<svg version="1.1" xmlns="http://www.w3.org/2000/svg" xmlns:xlink="http://www.w3.org/1999/xlink" width="205.64286" height="99.25" viewBox="0,0,205.64286,99.25"><g transform="translate(-137.30606,-131)"><g data-paper-data="{&quot;isPaintingLayer&quot;:true}" fill-rule="nonzero" stroke-linejoin="miter" stroke-miterlimit="10" stroke-dasharray="" stroke-dashoffset="0" style="mix-blend-mode: normal"><path d="M140.55606,207.25c0,-18.73959 -0.38249,-45.48871 0,-55.5c0.5,-13.0871 3.89541,-16.75 15.32143,-16.75c22.08229,0 127.56734,0 168,0c15.33535,0 15.82143,4.98326 15.82143,16.75c0,17.95892 0,45.32915 0,56c0,14.97422 -0.38765,19.25 -14.32143,19.25c-38.12556,0 -140.83396,0 -165,0c-18.91714,0 -19.82143,-3.40978 -19.82143,-19.75z" fill="#ffffff" stroke-opacity="0.25901" stroke="#000000" stroke-width="6.5" stroke-linecap="butt"/><path d="M140.47107,205.25c0,-18.73959 -0.38249,-45.48871 0,-55.5c0.5,-13.0871 3.89541,-16.75 15.32143,-16.75c22.08229,0 127.56734,0 168,0c15.33535,0 15.82143,4.98326 15.82143,16.75c0,17.95892 0,45.32915 0,56c0,14.97422 -0.38765,19.25 -14.32143,19.25c-38.12556,0 -140.83396,0 -165,0c-18.91714,0 -19.82143,-3.40978 -19.82143,-19.75z" fill="#ffffff" stroke="#000000" stroke-width="4" stroke-linecap="butt"/><path d="M160.7971,167.05017v-9.90984h2.40942v9.90984zM154.65739,167.05017v-9.90984h2.40279v9.90984zM155.58664,163.18713l0.01991,-2.1572h6.46496v2.1572zM168.22187,167.17629c-0.63278,0 -1.19697,-0.16594 -1.69257,-0.49782c-0.4956,-0.3363 -0.89164,-0.79872 -1.18812,-1.38724c-0.29205,-0.59295 -0.43808,-1.26113 -0.43808,-2.00454c0,-0.76553 0.14603,-1.44034 0.43808,-2.02445c0.29648,-0.58853 0.69915,-1.04873 1.20803,-1.38061c0.50888,-0.3363 1.08856,-0.50445 1.73903,-0.50445c0.35843,0 0.68588,0.0531 0.98235,0.1593c0.3009,0.10178 0.56419,0.24559 0.78987,0.43144c0.22568,0.18143 0.41816,0.39383 0.57747,0.6372c0.16373,0.23895 0.2832,0.4956 0.35843,0.76995l-0.47126,-0.05974v-1.7855h2.25012v7.52033h-2.28995v-1.81205l0.51109,-0.01328c-0.07523,0.2655 -0.19913,0.51551 -0.3717,0.75004c-0.16815,0.23453 -0.37613,0.4425 -0.62393,0.62393c-0.24338,0.177 -0.51773,0.3186 -0.82305,0.4248c-0.3009,0.10178 -0.6195,0.15266 -0.9558,0.15266zM168.83916,165.26468c0.34958,0 0.65048,-0.07965 0.9027,-0.23895c0.25665,-0.1593 0.45578,-0.38719 0.59738,-0.68367c0.1416,-0.3009 0.2124,-0.65269 0.2124,-1.05537c0,-0.4071 -0.0708,-0.75889 -0.2124,-1.05537c-0.1416,-0.29648 -0.34073,-0.52658 -0.59738,-0.6903c-0.25223,-0.16815 -0.55313,-0.25223 -0.9027,-0.25223c-0.3363,0 -0.63057,0.08407 -0.88279,0.25223c-0.2478,0.16373 -0.4425,0.39383 -0.5841,0.6903c-0.1416,0.29648 -0.2124,0.64827 -0.2124,1.05537c0,0.40268 0.0708,0.75447 0.2124,1.05537c0.1416,0.29648 0.3363,0.52437 0.5841,0.68367c0.25223,0.1593 0.54649,0.23895 0.88279,0.23895zM176.9107,167.05017l-3.13955,-7.52033h2.50235l1.87178,5.62199l-0.55092,0.05974l1.92488,-5.68173h2.4758l-3.29885,7.52033zM186.53819,167.18956c-0.8319,0 -1.5554,-0.16594 -2.17047,-0.49782c-0.61065,-0.3363 -1.08634,-0.79429 -1.42707,-1.37397c-0.3363,-0.57968 -0.50445,-1.24343 -0.50445,-1.99126c0,-0.57525 0.09293,-1.10404 0.27878,-1.58637c0.19028,-0.48233 0.45357,-0.90049 0.78987,-1.25449c0.34073,-0.354 0.74562,-0.62614 1.21467,-0.81642c0.46905,-0.1947 0.98014,-0.29205 1.53327,-0.29205c0.531,0 1.01554,0.09514 1.45362,0.28541c0.43808,0.18585 0.81642,0.44914 1.13502,0.78987c0.32303,0.34073 0.56861,0.7434 0.73677,1.20803c0.17258,0.4602 0.25001,0.96466 0.23231,1.51336l-0.01328,0.60402h-5.99369l-0.32524,-1.27441h4.4737l-0.23895,0.27214v-0.28541c-0.0177,-0.23453 -0.09071,-0.4425 -0.21904,-0.62393c-0.12833,-0.18585 -0.29648,-0.32966 -0.50445,-0.43144c-0.20798,-0.1062 -0.4425,-0.1593 -0.70358,-0.1593c-0.36728,0 -0.68145,0.07301 -0.94253,0.21904c-0.26108,0.14603 -0.45799,0.35843 -0.59074,0.6372c-0.13275,0.27878 -0.19913,0.6195 -0.19913,1.02218c0,0.41595 0.08629,0.7788 0.25886,1.08856c0.177,0.30533 0.43365,0.54428 0.76995,0.71685c0.3363,0.16815 0.73455,0.25223 1.19476,0.25223c0.32303,0 0.60844,-0.04646 0.85624,-0.13939c0.25223,-0.09735 0.52437,-0.25886 0.81642,-0.48454l1.06201,1.50008c-0.29205,0.25665 -0.60402,0.46463 -0.93589,0.62393c-0.32745,0.1593 -0.66375,0.27878 -1.00891,0.35843c-0.34515,0.07965 -0.68809,0.11948 -1.02882,0.11948zM195.78091,170.16318v-10.63333h2.1572l0.07965,1.68593l-0.4248,-0.12611c0.06638,-0.30975 0.22789,-0.59295 0.48454,-0.8496c0.25665,-0.25665 0.57968,-0.46241 0.96908,-0.61729c0.39383,-0.15488 0.80757,-0.23231 1.24122,-0.23231c0.64163,0 1.21246,0.16815 1.71248,0.50445c0.50003,0.33188 0.89385,0.78987 1.18148,1.37397c0.28763,0.57968 0.43144,1.25228 0.43144,2.01781c0,0.75225 -0.14381,1.42265 -0.43144,2.01117c-0.28763,0.5841 -0.68367,1.04431 -1.18812,1.38061c-0.50445,0.33188 -1.08413,0.49782 -1.73903,0.49782c-0.4248,0 -0.82969,-0.07965 -1.21467,-0.23895c-0.38498,-0.1593 -0.71022,-0.37613 -0.97572,-0.65048c-0.2655,-0.27435 -0.44029,-0.57304 -0.52437,-0.89607l0.52437,-0.19249v4.96488zM199.7037,165.26468c0.34073,0 0.6372,-0.08186 0.88943,-0.24559c0.25665,-0.16373 0.45578,-0.39161 0.59738,-0.68367c0.1416,-0.29648 0.2124,-0.64605 0.2124,-1.04873c0,-0.39825 -0.0708,-0.74562 -0.2124,-1.04209c-0.1416,-0.29648 -0.33851,-0.52658 -0.59074,-0.6903c-0.2478,-0.16815 -0.54649,-0.25223 -0.89607,-0.25223c-0.34958,0 -0.65269,0.08186 -0.90934,0.24559c-0.25223,0.1593 -0.44914,0.3894 -0.59074,0.6903c-0.1416,0.3009 -0.2124,0.65048 -0.2124,1.04873c0,0.40268 0.0708,0.75225 0.2124,1.04873c0.1416,0.29205 0.33851,0.51994 0.59074,0.68367c0.25665,0.16373 0.55977,0.24559 0.90934,0.24559zM208.69519,167.18956c-0.8319,0 -1.5554,-0.16594 -2.17047,-0.49782c-0.61065,-0.3363 -1.08634,-0.79429 -1.42707,-1.37397c-0.3363,-0.57968 -0.50445,-1.24343 -0.50445,-1.99126c0,-0.57525 0.09293,-1.10404 0.27878,-1.58637c0.19028,-0.48233 0.45357,-0.90049 0.78987,-1.25449c0.34073,-0.354 0.74562,-0.62614 1.21467,-0.81642c0.46905,-0.1947 0.98014,-0.29205 1.53327,-0.29205c0.531,0 1.01554,0.09514 1.45362,0.28541c0.43808,0.18585 0.81642,0.44914 1.13502,0.78987c0.32303,0.34073 0.56861,0.7434 0.73677,1.20803c0.17258,0.4602 0.25001,0.96466 0.23231,1.51336l-0.01328,0.60402h-5.99369l-0.32524,-1.27441h4.4737l-0.23895,0.27214v-0.28541c-0.0177,-0.23453 -0.09071,-0.4425 -0.21904,-0.62393c-0.12833,-0.18585 -0.29648,-0.32966 -0.50445,-0.43144c-0.20798,-0.1062 -0.4425,-0.1593 -0.70358,-0.1593c-0.36728,0 -0.68145,0.07301 -0.94253,0.21904c-0.26108,0.14603 -0.45799,0.35843 -0.59074,0.6372c-0.13275,0.27878 -0.19913,0.6195 -0.19913,1.02218c0,0.41595 0.08629,0.7788 0.25886,1.08856c0.177,0.30533 0.43365,0.54428 0.76995,0.71685c0.3363,0.16815 0.73455,0.25223 1.19476,0.25223c0.32303,0 0.60844,-0.04646 0.85624,-0.13939c0.25223,-0.09735 0.52437,-0.25886 0.81642,-0.48454l1.06201,1.50008c-0.29205,0.25665 -0.60402,0.46463 -0.93589,0.62393c-0.32745,0.1593 -0.66375,0.27878 -1.00891,0.35843c-0.34515,0.07965 -0.68809,0.11948 -1.02882,0.11948zM216.95186,167.18956c-0.78323,0 -1.48017,-0.16815 -2.09082,-0.50445c-0.61065,-0.34073 -1.09298,-0.80314 -1.44698,-1.38724c-0.34958,-0.58853 -0.52437,-1.25892 -0.52437,-2.01117c0,-0.75668 0.17479,-1.42707 0.52437,-2.01117c0.354,-0.58853 0.83633,-1.05094 1.44698,-1.38724c0.61065,-0.34073 1.30759,-0.51109 2.09082,-0.51109c0.78323,0 1.47796,0.17036 2.08419,0.51109c0.61065,0.3363 1.09077,0.79872 1.44034,1.38724c0.34958,0.5841 0.52437,1.25449 0.52437,2.01117c0,0.75225 -0.17479,1.42265 -0.52437,2.01117c-0.34958,0.5841 -0.82969,1.04652 -1.44034,1.38724c-0.60623,0.3363 -1.30096,0.50445 -2.08419,0.50445zM216.95186,165.23813c0.3363,0 0.6372,-0.08407 0.9027,-0.25223c0.2655,-0.17258 0.47348,-0.40489 0.62393,-0.69694c0.15045,-0.29205 0.22125,-0.62614 0.2124,-1.00227c0.00885,-0.38055 -0.06195,-0.71907 -0.2124,-1.01554c-0.15045,-0.29648 -0.35843,-0.52879 -0.62393,-0.69694c-0.2655,-0.17258 -0.5664,-0.25886 -0.9027,-0.25886c-0.34073,0 -0.64605,0.08629 -0.91598,0.25886c-0.26993,0.16815 -0.48012,0.40047 -0.63057,0.69694c-0.15045,0.29648 -0.22125,0.63499 -0.2124,1.01554c-0.00885,0.37613 0.06195,0.71022 0.2124,1.00227c0.15045,0.29205 0.36064,0.52437 0.63057,0.69694c0.26993,0.16815 0.57525,0.25223 0.91598,0.25223zM222.48258,170.16318v-10.63333h2.1572l0.07965,1.68593l-0.4248,-0.12611c0.06638,-0.30975 0.22789,-0.59295 0.48454,-0.8496c0.25665,-0.25665 0.57968,-0.46241 0.96908,-0.61729c0.39383,-0.15488 0.80757,-0.23231 1.24122,-0.23231c0.64163,0 1.21246,0.16815 1.71248,0.50445c0.50003,0.33188 0.89385,0.78987 1.18148,1.37397c0.28763,0.57968 0.43144,1.25228 0.43144,2.01781c0,0.75225 -0.14381,1.42265 -0.43144,2.01117c-0.28763,0.5841 -0.68367,1.04431 -1.18812,1.38061c-0.50445,0.33188 -1.08413,0.49782 -1.73903,0.49782c-0.4248,0 -0.82969,-0.07965 -1.21467,-0.23895c-0.38498,-0.1593 -0.71022,-0.37613 -0.97572,-0.65048c-0.2655,-0.27435 -0.44029,-0.57304 -0.52437,-0.89607l0.52437,-0.19249v4.96488zM226.40537,165.26468c0.34073,0 0.6372,-0.08186 0.88943,-0.24559c0.25665,-0.16373 0.45578,-0.39161 0.59738,-0.68367c0.1416,-0.29648 0.2124,-0.64605 0.2124,-1.04873c0,-0.39825 -0.0708,-0.74562 -0.2124,-1.04209c-0.1416,-0.29648 -0.33851,-0.52658 -0.59074,-0.6903c-0.2478,-0.16815 -0.54649,-0.25223 -0.89607,-0.25223c-0.34958,0 -0.65269,0.08186 -0.90934,0.24559c-0.25223,0.1593 -0.44914,0.3894 -0.59074,0.6903c-0.1416,0.3009 -0.2124,0.65048 -0.2124,1.04873c0,0.40268 0.0708,0.75225 0.2124,1.04873c0.1416,0.29205 0.33851,0.51994 0.59074,0.68367c0.25665,0.16373 0.55977,0.24559 0.90934,0.24559zM231.83251,167.05017v-10.47403h2.2634v10.47403zM239.55925,167.18956c-0.8319,0 -1.5554,-0.16594 -2.17047,-0.49782c-0.61065,-0.3363 -1.08634,-0.79429 -1.42707,-1.37397c-0.3363,-0.57968 -0.50445,-1.24343 -0.50445,-1.99126c0,-0.57525 0.09293,-1.10404 0.27878,-1.58637c0.19028,-0.48233 0.45357,-0.90049 0.78987,-1.25449c0.34073,-0.354 0.74562,-0.62614 1.21467,-0.81642c0.46905,-0.1947 0.98014,-0.29205 1.53327,-0.29205c0.531,0 1.01554,0.09514 1.45362,0.28541c0.43808,0.18585 0.81642,0.44914 1.13502,0.78987c0.32303,0.34073 0.56861,0.7434 0.73677,1.20803c0.17258,0.4602 0.25001,0.96466 0.23231,1.51336l-0.01328,0.60402h-5.99369l-0.32524,-1.27441h4.4737l-0.23895,0.27214v-0.28541c-0.0177,-0.23453 -0.09071,-0.4425 -0.21904,-0.62393c-0.12833,-0.18585 -0.29648,-0.32966 -0.50445,-0.43144c-0.20798,-0.1062 -0.4425,-0.1593 -0.70358,-0.1593c-0.36728,0 -0.68145,0.07301 -0.94253,0.21904c-0.26108,0.14603 -0.45799,0.35843 -0.59074,0.6372c-0.13275,0.27878 -0.19913,0.6195 -0.19913,1.02218c0,0.41595 0.08629,0.7788 0.25886,1.08856c0.177,0.30533 0.43365,0.54428 0.76995,0.71685c0.3363,0.16815 0.73455,0.25223 1.19476,0.25223c0.32303,0 0.60844,-0.04646 0.85624,-0.13939c0.25223,-0.09735 0.52437,-0.25886 0.81642,-0.48454l1.06201,1.50008c-0.29205,0.25665 -0.60402,0.46463 -0.93589,0.62393c-0.32745,0.1593 -0.66375,0.27878 -1.00891,0.35843c-0.34515,0.07965 -0.68809,0.11948 -1.02882,0.11948zM253.32213,167.20284c-0.34073,0 -0.66818,-0.04646 -0.98235,-0.13939c-0.30975,-0.09293 -0.59074,-0.21904 -0.84297,-0.37834c-0.2478,-0.16373 -0.45357,-0.35179 -0.61729,-0.56419c-0.16373,-0.2124 -0.27435,-0.43144 -0.33188,-0.65712l0.49118,-0.16594l-0.12611,1.73903h-2.11074v-10.46075h2.28331v4.75247l-0.47126,-0.16594c0.05752,-0.2478 0.16594,-0.4779 0.32524,-0.6903c0.16373,-0.2124 0.36728,-0.40047 0.61065,-0.56419c0.2478,-0.16373 0.51773,-0.29205 0.80978,-0.38498c0.29205,-0.09735 0.59295,-0.14603 0.9027,-0.14603c0.6549,0 1.23458,0.16815 1.73903,0.50445c0.50445,0.33188 0.9027,0.79429 1.19476,1.38724c0.29205,0.58853 0.43808,1.26113 0.43808,2.01781c0,0.7611 -0.14381,1.43813 -0.43144,2.03109c-0.28763,0.58853 -0.68145,1.05094 -1.18148,1.38724c-0.50003,0.33188 -1.06643,0.49782 -1.69921,0.49782zM252.72475,165.29786c0.34073,0 0.6372,-0.08407 0.88943,-0.25223c0.25665,-0.17258 0.45357,-0.4071 0.59074,-0.70358c0.13717,-0.3009 0.20576,-0.65269 0.20576,-1.05537c0,-0.39825 -0.06859,-0.74783 -0.20576,-1.04873c-0.13717,-0.3009 -0.33409,-0.531 -0.59074,-0.6903c-0.25223,-0.16373 -0.5487,-0.24559 -0.88943,-0.24559c-0.34958,0 -0.65269,0.08186 -0.90934,0.24559c-0.25223,0.1593 -0.44914,0.3894 -0.59074,0.6903c-0.1416,0.3009 -0.2124,0.65048 -0.2124,1.04873c0,0.40268 0.0708,0.75447 0.2124,1.05537c0.1416,0.29648 0.33851,0.531 0.59074,0.70358c0.25665,0.16815 0.55977,0.25223 0.90934,0.25223zM261.7021,167.18956c-0.8319,0 -1.5554,-0.16594 -2.17047,-0.49782c-0.61065,-0.3363 -1.08634,-0.79429 -1.42707,-1.37397c-0.3363,-0.57968 -0.50445,-1.24343 -0.50445,-1.99126c0,-0.57525 0.09293,-1.10404 0.27878,-1.58637c0.19028,-0.48233 0.45357,-0.90049 0.78987,-1.25449c0.34073,-0.354 0.74562,-0.62614 1.21467,-0.81642c0.46905,-0.1947 0.98014,-0.29205 1.53327,-0.29205c0.531,0 1.01554,0.09514 1.45362,0.28541c0.43808,0.18585 0.81642,0.44914 1.13502,0.78987c0.32303,0.34073 0.56861,0.7434 0.73677,1.20803c0.17258,0.4602 0.25001,0.96466 0.23231,1.51336l-0.01328,0.60402h-5.99369l-0.32524,-1.27441h4.4737l-0.23895,0.27214v-0.28541c-0.0177,-0.23453 -0.09071,-0.4425 -0.21904,-0.62393c-0.12833,-0.18585 -0.29648,-0.32966 -0.50445,-0.43144c-0.20798,-0.1062 -0.4425,-0.1593 -0.70358,-0.1593c-0.36728,0 -0.68145,0.07301 -0.94253,0.21904c-0.26108,0.14603 -0.45799,0.35843 -0.59074,0.6372c-0.13275,0.27878 -0.19913,0.6195 -0.19913,1.02218c0,0.41595 0.08629,0.7788 0.25886,1.08856c0.177,0.30533 0.43365,0.54428 0.76995,0.71685c0.3363,0.16815 0.73455,0.25223 1.19476,0.25223c0.32303,0 0.60844,-0.04646 0.85624,-0.13939c0.25223,-0.09735 0.52437,-0.25886 0.81642,-0.48454l1.06201,1.50008c-0.29205,0.25665 -0.60402,0.46463 -0.93589,0.62393c-0.32745,0.1593 -0.66375,0.27878 -1.00891,0.35843c-0.34515,0.07965 -0.68809,0.11948 -1.02882,0.11948zM269.9986,167.18956c-0.8319,0 -1.5554,-0.16594 -2.17047,-0.49782c-0.61065,-0.3363 -1.08634,-0.79429 -1.42707,-1.37397c-0.3363,-0.57968 -0.50445,-1.24343 -0.50445,-1.99126c0,-0.57525 0.09293,-1.10404 0.27878,-1.58637c0.19028,-0.48233 0.45357,-0.90049 0.78987,-1.25449c0.34073,-0.354 0.74562,-0.62614 1.21467,-0.81642c0.46905,-0.1947 0.98014,-0.29205 1.53327,-0.29205c0.531,0 1.01554,0.09514 1.45362,0.28541c0.43808,0.18585 0.81642,0.44914 1.13502,0.78987c0.32303,0.34073 0.56861,0.7434 0.73677,1.20803c0.17258,0.4602 0.25001,0.96466 0.23231,1.51336l-0.01328,0.60402h-5.99369l-0.32524,-1.27441h4.4737l-0.23895,0.27214v-0.28541c-0.0177,-0.23453 -0.09071,-0.4425 -0.21904,-0.62393c-0.12833,-0.18585 -0.29648,-0.32966 -0.50445,-0.43144c-0.20798,-0.1062 -0.4425,-0.1593 -0.70358,-0.1593c-0.36728,0 -0.68145,0.07301 -0.94253,0.21904c-0.26108,0.14603 -0.45799,0.35843 -0.59074,0.6372c-0.13275,0.27878 -0.19913,0.6195 -0.19913,1.02218c0,0.41595 0.08629,0.7788 0.25886,1.08856c0.177,0.30533 0.43365,0.54428 0.76995,0.71685c0.3363,0.16815 0.73455,0.25223 1.19476,0.25223c0.32303,0 0.60844,-0.04646 0.85624,-0.13939c0.25223,-0.09735 0.52437,-0.25886 0.81642,-0.48454l1.06201,1.50008c-0.29205,0.25665 -0.60402,0.46463 -0.93589,0.62393c-0.32745,0.1593 -0.66375,0.27878 -1.00891,0.35843c-0.34515,0.07965 -0.68809,0.11948 -1.02882,0.11948zM274.71081,167.05017v-7.52033h2.1572l0.06638,1.53327l-0.45135,0.16594c0.1062,-0.3363 0.29205,-0.64384 0.55755,-0.92262c0.26993,-0.27878 0.59295,-0.50224 0.96908,-0.67039c0.38055,-0.17258 0.7788,-0.25886 1.19476,-0.25886c0.5664,0 1.04209,0.11505 1.42707,0.34515c0.38498,0.2301 0.67703,0.57525 0.87615,1.03546c0.19913,0.45578 0.29869,1.01554 0.29869,1.6793v4.61309h-2.27667v-4.43387c0,-0.3009 -0.04425,-0.5487 -0.13275,-0.7434c-0.08407,-0.19913 -0.21461,-0.34736 -0.39161,-0.44471c-0.17258,-0.10178 -0.38498,-0.14824 -0.6372,-0.13939c-0.19913,0 -0.38498,0.03097 -0.55755,0.09293c-0.16815,0.06195 -0.31418,0.15266 -0.43808,0.27214c-0.11948,0.11505 -0.21461,0.2478 -0.28541,0.39825c-0.0708,0.15045 -0.1062,0.31639 -0.1062,0.49782v4.50025h-1.12174c-0.2655,0 -0.49339,0 -0.68367,0c-0.18585,0 -0.34073,0 -0.46463,0zM290.80027,167.20284c-0.55755,0 -1.03324,-0.11948 -1.42707,-0.35843c-0.3894,-0.23895 -0.6903,-0.5841 -0.9027,-1.03546c-0.2124,-0.45578 -0.3186,-1.00005 -0.3186,-1.63283v-4.64627h2.27667v4.33431c0,0.3009 0.04646,0.55977 0.13939,0.77659c0.09735,0.21683 0.23895,0.38498 0.4248,0.50445c0.19028,0.11948 0.41816,0.17921 0.68367,0.17921c0.19913,0 0.38055,-0.03319 0.54428,-0.09956c0.16373,-0.06638 0.30533,-0.15709 0.4248,-0.27214c0.11948,-0.11948 0.21019,-0.25665 0.27214,-0.41153c0.06638,-0.1593 0.09956,-0.33188 0.09956,-0.51773v-4.49361h2.28331v7.52033h-2.13729l-0.09956,-1.53991l0.4248,-0.17258c-0.11505,0.35843 -0.30533,0.67703 -0.57083,0.9558c-0.26108,0.27878 -0.57747,0.50003 -0.94917,0.66375c-0.36728,0.16373 -0.75668,0.24559 -1.16821,0.24559zM299.8564,167.18956c-0.73455,0 -1.38282,-0.11726 -1.9448,-0.35179c-0.56198,-0.23453 -1.00891,-0.55092 -1.34078,-0.94917l1.37397,-1.18812c0.29205,0.29205 0.62171,0.50667 0.98899,0.64384c0.3717,0.13717 0.72128,0.20576 1.04873,0.20576c0.13275,0 0.25001,-0.01328 0.35179,-0.03983c0.1062,-0.03097 0.1947,-0.0708 0.2655,-0.11948c0.0708,-0.0531 0.1239,-0.11505 0.1593,-0.18585c0.03983,-0.0708 0.05974,-0.15488 0.05974,-0.25223c0,-0.18585 -0.08407,-0.33188 -0.25223,-0.43808c-0.08407,-0.04425 -0.22568,-0.09956 -0.4248,-0.16594c-0.19913,-0.06638 -0.45357,-0.14381 -0.76332,-0.23231c-0.44693,-0.11062 -0.83412,-0.24338 -1.16157,-0.39825c-0.32303,-0.1593 -0.58853,-0.34073 -0.7965,-0.54428c-0.18585,-0.19913 -0.33188,-0.41816 -0.43808,-0.65712c-0.10178,-0.24338 -0.15266,-0.51551 -0.15266,-0.81642c0,-0.34958 0.08186,-0.66597 0.24559,-0.94917c0.16373,-0.2832 0.38498,-0.52879 0.66375,-0.73677c0.27878,-0.20798 0.59959,-0.36506 0.96244,-0.47126c0.36728,-0.11062 0.7434,-0.16594 1.12838,-0.16594c0.41595,0 0.81199,0.04868 1.18812,0.14603c0.37613,0.09293 0.72792,0.22346 1.05537,0.39161c0.32745,0.16815 0.61729,0.3717 0.86952,0.61065l-1.18812,1.32751c-0.16815,-0.1593 -0.35843,-0.30311 -0.57083,-0.43144c-0.2124,-0.12833 -0.43365,-0.2301 -0.66375,-0.30533c-0.22568,-0.07523 -0.43144,-0.11284 -0.61729,-0.11284c-0.1416,0 -0.26771,0.01328 -0.37834,0.03983c-0.1062,0.02213 -0.19913,0.05974 -0.27878,0.11284c-0.07523,0.04868 -0.13275,0.10841 -0.17258,0.17921c-0.0354,0.0708 -0.0531,0.15488 -0.0531,0.25223c0,0.09293 0.02655,0.18143 0.07965,0.2655c0.0531,0.08407 0.12611,0.15488 0.21904,0.2124c0.09735,0.05752 0.2478,0.12169 0.45135,0.19249c0.20798,0.0708 0.49118,0.15709 0.8496,0.25886c0.44693,0.1239 0.82969,0.26108 1.14829,0.41153c0.32303,0.15045 0.57747,0.32966 0.76332,0.53764c0.15488,0.16373 0.26993,0.35179 0.34515,0.56419c0.07523,0.2124 0.11284,0.44029 0.11284,0.68367c0,0.48233 -0.13496,0.90934 -0.40489,1.28104c-0.26993,0.3717 -0.64163,0.66375 -1.11511,0.87615c-0.46905,0.2124 -1.00669,0.3186 -1.61292,0.3186zM304.46174,167.05017v-7.52033h2.2634v7.52033zM305.59012,158.04304c-0.4248,0 -0.75668,-0.09956 -0.99563,-0.29869c-0.23895,-0.20355 -0.35843,-0.4956 -0.35843,-0.87615c0,-0.3363 0.12169,-0.61287 0.36506,-0.82969c0.24338,-0.22125 0.57304,-0.33188 0.98899,-0.33188c0.4248,0 0.75447,0.10178 0.98899,0.30533c0.23895,0.20355 0.35843,0.48896 0.35843,0.85624c0,0.34958 -0.12169,0.63278 -0.36506,0.8496c-0.23895,0.21683 -0.5664,0.32524 -0.98235,0.32524zM308.84534,167.05017v-7.52033h2.1572l0.06638,1.53327l-0.45135,0.16594c0.1062,-0.3363 0.29205,-0.64384 0.55755,-0.92262c0.26993,-0.27878 0.59295,-0.50224 0.96908,-0.67039c0.38055,-0.17258 0.7788,-0.25886 1.19476,-0.25886c0.5664,0 1.04209,0.11505 1.42707,0.34515c0.38498,0.2301 0.67703,0.57525 0.87615,1.03546c0.19913,0.45578 0.29869,1.01554 0.29869,1.6793v4.61309h-2.27667v-4.43387c0,-0.3009 -0.04425,-0.5487 -0.13275,-0.7434c-0.08407,-0.19913 -0.21461,-0.34736 -0.39161,-0.44471c-0.17258,-0.10178 -0.38498,-0.14824 -0.6372,-0.13939c-0.19913,0 -0.38498,0.03097 -0.55755,0.09293c-0.16815,0.06195 -0.31418,0.15266 -0.43808,0.27214c-0.11948,0.11505 -0.21461,0.2478 -0.28541,0.39825c-0.0708,0.15045 -0.1062,0.31639 -0.1062,0.49782v4.50025h-1.12174c-0.2655,0 -0.49339,0 -0.68367,0c-0.18585,0 -0.34073,0 -0.46463,0zM321.28044,170.3092c-0.61508,0 -1.22794,-0.09071 -1.8386,-0.27214c-0.60623,-0.177 -1.09741,-0.4071 -1.47353,-0.6903l0.78987,-1.58637c0.19913,0.13275 0.41816,0.2478 0.65712,0.34515c0.24338,0.09735 0.4956,0.17479 0.75668,0.23231c0.2655,0.05752 0.53543,0.08629 0.80978,0.08629c0.48233,0 0.87394,-0.0708 1.17484,-0.2124c0.3009,-0.1416 0.52658,-0.35621 0.67703,-0.64384c0.15488,-0.28763 0.23231,-0.64827 0.23231,-1.08192v-1.26113l0.43808,0.07301c-0.06638,0.30975 -0.2301,0.59295 -0.49118,0.8496c-0.26108,0.25223 -0.57968,0.45578 -0.9558,0.61065c-0.37613,0.15488 -0.77659,0.23231 -1.20139,0.23231c-0.68145,0 -1.28989,-0.15709 -1.82532,-0.47126c-0.531,-0.31418 -0.94917,-0.75225 -1.25449,-1.31423c-0.30533,-0.56198 -0.45799,-1.21246 -0.45799,-1.95143c0,-0.75225 0.15045,-1.41822 0.45135,-1.9979c0.3009,-0.5841 0.71464,-1.04209 1.24122,-1.37397c0.531,-0.3363 1.12617,-0.50445 1.7855,-0.50445c0.2832,0 0.55534,0.03319 0.81642,0.09956c0.26108,0.06638 0.50224,0.15488 0.72349,0.2655c0.22125,0.1062 0.41816,0.23231 0.59074,0.37834c0.177,0.14603 0.3186,0.30533 0.4248,0.4779c0.11062,0.16815 0.18364,0.34073 0.21904,0.51773l-0.46463,0.11284l0.08629,-1.69921h2.15056v6.90967c0,0.61508 -0.09293,1.15936 -0.27878,1.63283c-0.18143,0.4779 -0.44914,0.88501 -0.80314,1.22131c-0.354,0.3363 -0.78102,0.58853 -1.28104,0.75668c-0.50003,0.17258 -1.06643,0.25886 -1.69921,0.25886zM321.33354,165.23813c0.36728,0 0.68588,-0.08186 0.9558,-0.24559c0.26993,-0.16815 0.4779,-0.39825 0.62393,-0.6903c0.14603,-0.29205 0.21904,-0.6372 0.21904,-1.03546c0,-0.39383 -0.07301,-0.73898 -0.21904,-1.03546c-0.14603,-0.29648 -0.354,-0.52658 -0.62393,-0.6903c-0.26993,-0.16815 -0.58853,-0.25223 -0.9558,-0.25223c-0.35843,0 -0.67039,0.08407 -0.93589,0.25223c-0.26108,0.16373 -0.46463,0.39383 -0.61065,0.6903c-0.14603,0.29648 -0.21904,0.64163 -0.21904,1.03546c0,0.39825 0.07301,0.7434 0.21904,1.03546c0.14603,0.29205 0.34958,0.52215 0.61065,0.6903c0.2655,0.16373 0.57747,0.24559 0.93589,0.24559z" fill="#000000" stroke="none" stroke-width="1" stroke-linecap="square"/><path d="M172.59536,184.04226v-9.90984h4.27457c0.62393,0 1.17706,0.1416 1.65938,0.4248c0.48675,0.2832 0.87394,0.67039 1.16157,1.16157c0.28763,0.49118 0.43144,1.04209 0.43144,1.65275c0,0.64163 -0.14381,1.21688 -0.43144,1.72576c-0.28763,0.50445 -0.67482,0.9027 -1.16157,1.19476c-0.48233,0.29205 -1.03546,0.43808 -1.65938,0.43808h-1.87178v3.31213zM174.95832,178.61939h1.5731c0.20798,0 0.39604,-0.05089 0.56419,-0.15266c0.16815,-0.1062 0.30311,-0.2478 0.40489,-0.4248c0.1062,-0.18143 0.1593,-0.3894 0.1593,-0.62393c0,-0.2478 -0.0531,-0.45578 -0.1593,-0.62393c-0.10178,-0.16815 -0.23674,-0.29869 -0.40489,-0.39161c-0.16815,-0.09735 -0.35621,-0.14603 -0.56419,-0.14603h-1.5731zM181.855,184.04226v-7.52033h2.2634v7.52033zM182.98338,175.03513c-0.4248,0 -0.75668,-0.09956 -0.99563,-0.29869c-0.23895,-0.20355 -0.35843,-0.4956 -0.35843,-0.87615c0,-0.3363 0.12169,-0.61287 0.36506,-0.82969c0.24338,-0.22125 0.57304,-0.33188 0.98899,-0.33188c0.4248,0 0.75447,0.10178 0.98899,0.30533c0.23895,0.20355 0.35843,0.48896 0.35843,0.85624c0,0.34958 -0.12169,0.63278 -0.36506,0.8496c-0.23895,0.21683 -0.5664,0.32524 -0.98235,0.32524zM191.24037,184.04226v-7.88539c0,-0.49118 0.1062,-0.93368 0.3186,-1.32751c0.2124,-0.39825 0.50888,-0.71243 0.88943,-0.94253c0.38498,-0.23453 0.8319,-0.35179 1.34078,-0.35179c0.35843,0 0.68809,0.0531 0.98899,0.1593c0.3009,0.10178 0.57083,0.2478 0.80978,0.43808l-0.65048,1.65275c-0.1239,-0.06195 -0.24338,-0.11284 -0.35843,-0.15266c-0.11062,-0.03983 -0.21461,-0.05974 -0.31196,-0.05974c-0.16815,0 -0.30975,0.02876 -0.4248,0.08629c-0.11062,0.05752 -0.19249,0.14603 -0.24559,0.2655c-0.0531,0.11505 -0.07965,0.25886 -0.07965,0.43144v7.68626h-1.12838c-0.25665,0 -0.48233,0 -0.67703,0c-0.19028,0 -0.34736,0 -0.47126,0zM190.15182,178.60612v-1.87178h4.91177v1.87178zM199.59438,184.18165c-0.78323,0 -1.48017,-0.16815 -2.09082,-0.50445c-0.61065,-0.34073 -1.09298,-0.80314 -1.44698,-1.38724c-0.34958,-0.58853 -0.52437,-1.25892 -0.52437,-2.01117c0,-0.75668 0.17479,-1.42707 0.52437,-2.01117c0.354,-0.58853 0.83633,-1.05094 1.44698,-1.38724c0.61065,-0.34073 1.30759,-0.51109 2.09082,-0.51109c0.78323,0 1.47796,0.17036 2.08419,0.51109c0.61065,0.3363 1.09077,0.79872 1.44034,1.38724c0.34958,0.5841 0.52437,1.25449 0.52437,2.01117c0,0.75225 -0.17479,1.42265 -0.52437,2.01117c-0.34958,0.5841 -0.82969,1.04652 -1.44034,1.38724c-0.60623,0.3363 -1.30096,0.50445 -2.08419,0.50445zM199.59438,182.23021c0.3363,0 0.6372,-0.08407 0.9027,-0.25223c0.2655,-0.17258 0.47348,-0.40489 0.62393,-0.69694c0.15045,-0.29205 0.22125,-0.62614 0.2124,-1.00227c0.00885,-0.38055 -0.06195,-0.71907 -0.2124,-1.01554c-0.15045,-0.29648 -0.35843,-0.52879 -0.62393,-0.69694c-0.2655,-0.17258 -0.5664,-0.25886 -0.9027,-0.25886c-0.34073,0 -0.64605,0.08629 -0.91598,0.25886c-0.26993,0.16815 -0.48012,0.40047 -0.63057,0.69694c-0.15045,0.29648 -0.22125,0.63499 -0.2124,1.01554c-0.00885,0.37613 0.06195,0.71022 0.2124,1.00227c0.15045,0.29205 0.36064,0.52437 0.63057,0.69694c0.26993,0.16815 0.57525,0.25223 0.91598,0.25223zM205.12511,184.04226v-7.52033h2.1572l0.09956,2.44925l-0.4248,-0.46463c0.11062,-0.4071 0.29648,-0.76995 0.55755,-1.08856c0.26108,-0.32303 0.56419,-0.57747 0.90934,-0.76332c0.34958,-0.19028 0.72349,-0.28541 1.12174,-0.28541c0.16815,0 0.32524,0.01549 0.47126,0.04646c0.14603,0.02655 0.28099,0.05752 0.40489,0.09293l-0.62393,2.50899c-0.10178,-0.06638 -0.24116,-0.11948 -0.41816,-0.1593c-0.17258,-0.04425 -0.354,-0.06638 -0.54428,-0.06638c-0.20798,0 -0.40268,0.0354 -0.5841,0.1062c-0.177,0.0708 -0.32745,0.17258 -0.45135,0.30533c-0.11948,0.12833 -0.21461,0.2832 -0.28541,0.46463c-0.0708,0.177 -0.1062,0.38055 -0.1062,0.61065v3.76348zM216.72135,184.04226v-9.41202h2.27004v9.41202zM215.39384,178.50656v-1.98462h5.05116v1.98462zM221.73224,184.04226v-10.47403h2.22357v4.48697l-0.45135,0.16594c0.1062,-0.3363 0.29205,-0.64384 0.55755,-0.92262c0.26993,-0.27878 0.59295,-0.50224 0.96908,-0.67039c0.38055,-0.17258 0.7788,-0.25886 1.19476,-0.25886c0.5664,0 1.04209,0.11505 1.42707,0.34515c0.38498,0.2301 0.67703,0.57525 0.87615,1.03546c0.19913,0.45578 0.29869,1.01554 0.29869,1.6793v4.61309h-2.27667v-4.43387c0,-0.3009 -0.04425,-0.5487 -0.13275,-0.7434c-0.08407,-0.19913 -0.21461,-0.34736 -0.39161,-0.44471c-0.17258,-0.10178 -0.38498,-0.14824 -0.6372,-0.13939c-0.19913,0 -0.38498,0.03097 -0.55755,0.09293c-0.16815,0.06195 -0.31418,0.15266 -0.43808,0.27214c-0.11948,0.11505 -0.21461,0.2478 -0.28541,0.39825c-0.0708,0.15045 -0.1062,0.31639 -0.1062,0.49782v4.50025h-1.12174c-0.2655,0 -0.49339,0 -0.68367,0c-0.18585,0 -0.34073,0 -0.46463,0zM234.2669,184.18165c-0.78323,0 -1.48017,-0.16815 -2.09082,-0.50445c-0.61065,-0.34073 -1.09298,-0.80314 -1.44698,-1.38724c-0.34958,-0.58853 -0.52437,-1.25892 -0.52437,-2.01117c0,-0.75668 0.17479,-1.42707 0.52437,-2.01117c0.354,-0.58853 0.83633,-1.05094 1.44698,-1.38724c0.61065,-0.34073 1.30759,-0.51109 2.09082,-0.51109c0.78323,0 1.47796,0.17036 2.08419,0.51109c0.61065,0.3363 1.09077,0.79872 1.44034,1.38724c0.34958,0.5841 0.52437,1.25449 0.52437,2.01117c0,0.75225 -0.17479,1.42265 -0.52437,2.01117c-0.34958,0.5841 -0.82969,1.04652 -1.44034,1.38724c-0.60623,0.3363 -1.30096,0.50445 -2.08419,0.50445zM234.2669,182.23021c0.3363,0 0.6372,-0.08407 0.9027,-0.25223c0.2655,-0.17258 0.47348,-0.40489 0.62393,-0.69694c0.15045,-0.29205 0.22125,-0.62614 0.2124,-1.00227c0.00885,-0.38055 -0.06195,-0.71907 -0.2124,-1.01554c-0.15045,-0.29648 -0.35843,-0.52879 -0.62393,-0.69694c-0.2655,-0.17258 -0.5664,-0.25886 -0.9027,-0.25886c-0.34073,0 -0.64605,0.08629 -0.91598,0.25886c-0.26993,0.16815 -0.48012,0.40047 -0.63057,0.69694c-0.15045,0.29648 -0.22125,0.63499 -0.2124,1.01554c-0.00885,0.37613 0.06195,0.71022 0.2124,1.00227c0.15045,0.29205 0.36064,0.52437 0.63057,0.69694c0.26993,0.16815 0.57525,0.25223 0.91598,0.25223zM242.36635,184.19492c-0.55755,0 -1.03324,-0.11948 -1.42707,-0.35843c-0.3894,-0.23895 -0.6903,-0.5841 -0.9027,-1.03546c-0.2124,-0.45578 -0.3186,-1.00005 -0.3186,-1.63283v-4.64627h2.27667v4.33431c0,0.3009 0.04646,0.55977 0.13939,0.77659c0.09735,0.21683 0.23895,0.38498 0.4248,0.50445c0.19028,0.11948 0.41816,0.17921 0.68367,0.17921c0.19913,0 0.38055,-0.03319 0.54428,-0.09956c0.16373,-0.06638 0.30533,-0.15709 0.4248,-0.27214c0.11948,-0.11948 0.21019,-0.25665 0.27214,-0.41153c0.06638,-0.1593 0.09956,-0.33188 0.09956,-0.51773v-4.49361h2.28331v7.52033h-2.13729l-0.09956,-1.53991l0.4248,-0.17258c-0.11505,0.35843 -0.30533,0.67703 -0.57083,0.9558c-0.26108,0.27878 -0.57747,0.50003 -0.94917,0.66375c-0.36728,0.16373 -0.75668,0.24559 -1.16821,0.24559zM251.42249,184.18165c-0.73455,0 -1.38282,-0.11726 -1.9448,-0.35179c-0.56198,-0.23453 -1.00891,-0.55092 -1.34078,-0.94917l1.37397,-1.18812c0.29205,0.29205 0.62171,0.50667 0.98899,0.64384c0.3717,0.13717 0.72128,0.20576 1.04873,0.20576c0.13275,0 0.25001,-0.01328 0.35179,-0.03983c0.1062,-0.03097 0.1947,-0.0708 0.2655,-0.11948c0.0708,-0.0531 0.1239,-0.11505 0.1593,-0.18585c0.03983,-0.0708 0.05974,-0.15488 0.05974,-0.25223c0,-0.18585 -0.08407,-0.33188 -0.25223,-0.43808c-0.08407,-0.04425 -0.22568,-0.09956 -0.4248,-0.16594c-0.19913,-0.06638 -0.45357,-0.14381 -0.76332,-0.23231c-0.44693,-0.11062 -0.83412,-0.24338 -1.16157,-0.39825c-0.32303,-0.1593 -0.58853,-0.34073 -0.7965,-0.54428c-0.18585,-0.19913 -0.33188,-0.41816 -0.43808,-0.65712c-0.10178,-0.24338 -0.15266,-0.51551 -0.15266,-0.81642c0,-0.34958 0.08186,-0.66597 0.24559,-0.94917c0.16373,-0.2832 0.38498,-0.52879 0.66375,-0.73677c0.27878,-0.20798 0.59959,-0.36506 0.96244,-0.47126c0.36728,-0.11062 0.7434,-0.16594 1.12838,-0.16594c0.41595,0 0.81199,0.04868 1.18812,0.14603c0.37613,0.09293 0.72792,0.22346 1.05538,0.39161c0.32745,0.16815 0.61729,0.3717 0.86952,0.61065l-1.18813,1.32751c-0.16815,-0.1593 -0.35843,-0.30311 -0.57083,-0.43144c-0.2124,-0.12833 -0.43365,-0.2301 -0.66375,-0.30533c-0.22568,-0.07523 -0.43144,-0.11284 -0.61729,-0.11284c-0.1416,0 -0.26771,0.01328 -0.37834,0.03983c-0.1062,0.02213 -0.19913,0.05974 -0.27878,0.11284c-0.07523,0.04868 -0.13275,0.10841 -0.17258,0.17921c-0.0354,0.0708 -0.0531,0.15488 -0.0531,0.25223c0,0.09293 0.02655,0.18143 0.07965,0.2655c0.0531,0.08407 0.12611,0.15488 0.21904,0.2124c0.09735,0.05752 0.2478,0.12169 0.45135,0.19249c0.20798,0.0708 0.49118,0.15709 0.8496,0.25886c0.44693,0.1239 0.82969,0.26108 1.14829,0.41153c0.32303,0.15045 0.57748,0.32966 0.76333,0.53764c0.15488,0.16373 0.26993,0.35179 0.34515,0.56419c0.07523,0.2124 0.11284,0.44029 0.11284,0.68367c0,0.48233 -0.13496,0.90934 -0.40489,1.28104c-0.26993,0.3717 -0.64163,0.66375 -1.11512,0.87615c-0.46905,0.2124 -1.00669,0.3186 -1.61292,0.3186zM258.67621,184.16837c-0.63278,0 -1.19697,-0.16594 -1.69257,-0.49782c-0.4956,-0.3363 -0.89164,-0.79872 -1.18812,-1.38724c-0.29205,-0.59295 -0.43808,-1.26113 -0.43808,-2.00454c0,-0.76553 0.14603,-1.44034 0.43808,-2.02445c0.29648,-0.58853 0.69915,-1.04873 1.20803,-1.38061c0.50888,-0.3363 1.08856,-0.50445 1.73903,-0.50445c0.35843,0 0.68588,0.0531 0.98235,0.1593c0.3009,0.10178 0.56419,0.24559 0.78987,0.43144c0.22568,0.18143 0.41816,0.39383 0.57747,0.6372c0.16373,0.23895 0.2832,0.4956 0.35843,0.76995l-0.47126,-0.05974v-1.7855h2.25012v7.52033h-2.28995v-1.81205l0.51109,-0.01328c-0.07523,0.2655 -0.19913,0.51551 -0.3717,0.75004c-0.16815,0.23453 -0.37613,0.4425 -0.62393,0.62393c-0.24338,0.177 -0.51773,0.3186 -0.82305,0.4248c-0.3009,0.10178 -0.6195,0.15266 -0.9558,0.15266zM259.2935,182.25676c0.34958,0 0.65048,-0.07965 0.9027,-0.23895c0.25665,-0.1593 0.45578,-0.38719 0.59738,-0.68367c0.1416,-0.3009 0.2124,-0.65269 0.2124,-1.05537c0,-0.4071 -0.0708,-0.75889 -0.2124,-1.05537c-0.1416,-0.29648 -0.34073,-0.52658 -0.59738,-0.6903c-0.25223,-0.16815 -0.55313,-0.25223 -0.9027,-0.25223c-0.3363,0 -0.63057,0.08407 -0.88279,0.25223c-0.2478,0.16373 -0.4425,0.39383 -0.5841,0.6903c-0.1416,0.29648 -0.2124,0.64827 -0.2124,1.05537c0,0.40268 0.0708,0.75447 0.2124,1.05537c0.1416,0.29648 0.3363,0.52437 0.5841,0.68367c0.25223,0.1593 0.54649,0.23895 0.88279,0.23895zM265.2251,184.04226v-7.52033h2.1572l0.06638,1.53327l-0.45135,0.16594c0.1062,-0.3363 0.29205,-0.64384 0.55755,-0.92262c0.26993,-0.27878 0.59295,-0.50224 0.96908,-0.67039c0.38055,-0.17258 0.7788,-0.25886 1.19476,-0.25886c0.5664,0 1.04209,0.11505 1.42707,0.34515c0.38498,0.2301 0.67703,0.57525 0.87615,1.03546c0.19913,0.45578 0.29869,1.01554 0.29869,1.6793v4.61309h-2.27667v-4.43387c0,-0.3009 -0.04425,-0.5487 -0.13275,-0.7434c-0.08407,-0.19913 -0.21461,-0.34736 -0.39161,-0.44471c-0.17258,-0.10178 -0.38498,-0.14824 -0.6372,-0.13939c-0.19913,0 -0.38498,0.03097 -0.55755,0.09293c-0.16815,0.06195 -0.31418,0.15266 -0.43808,0.27214c-0.11948,0.11505 -0.21461,0.2478 -0.28541,0.39825c-0.0708,0.15045 -0.1062,0.31639 -0.1062,0.49782v4.50025h-1.12174c-0.2655,0 -0.49339,0 -0.68367,0c-0.18585,0 -0.34073,0 -0.46463,0zM277.06283,184.19492c-0.65048,0 -1.22794,-0.16594 -1.7324,-0.49782c-0.50445,-0.3363 -0.9027,-0.79872 -1.19476,-1.38724c-0.29205,-0.59295 -0.43808,-1.26556 -0.43808,-2.01781c0,-0.75668 0.14603,-1.42928 0.43808,-2.01781c0.29205,-0.59295 0.69252,-1.05758 1.20139,-1.39388c0.50888,-0.34073 1.09298,-0.51109 1.75231,-0.51109c0.34073,0 0.66597,0.0531 0.97572,0.1593c0.31418,0.10178 0.59738,0.24338 0.8496,0.4248c0.25665,0.177 0.46463,0.38055 0.62393,0.61065c0.16373,0.2301 0.25886,0.46905 0.28541,0.71685l-0.53764,0.12611v-4.83876h2.27667v10.47403h-2.1041l-0.13275,-1.71248l0.45799,0.07301c-0.03097,0.23453 -0.1239,0.4602 -0.27878,0.67703c-0.15488,0.21683 -0.35621,0.40931 -0.60402,0.57747c-0.24338,0.16373 -0.52437,0.29426 -0.84297,0.39161c-0.31418,0.09735 -0.64605,0.14603 -0.99563,0.14603zM277.64693,182.3165c0.34958,0 0.65048,-0.08407 0.9027,-0.25223c0.25665,-0.17258 0.45357,-0.40931 0.59074,-0.71022c0.13717,-0.30533 0.20576,-0.65933 0.20576,-1.06201c0,-0.41595 -0.06859,-0.77438 -0.20576,-1.07528c-0.13717,-0.30533 -0.33409,-0.54206 -0.59074,-0.71022c-0.25223,-0.16815 -0.55313,-0.25223 -0.9027,-0.25223c-0.34958,0 -0.65048,0.08407 -0.9027,0.25223c-0.2478,0.16815 -0.4425,0.40489 -0.5841,0.71022c-0.1416,0.3009 -0.2124,0.65933 -0.2124,1.07528c0,0.40268 0.0708,0.75668 0.2124,1.06201c0.1416,0.3009 0.3363,0.53764 0.5841,0.71022c0.25223,0.16815 0.55313,0.25223 0.9027,0.25223zM286.01007,184.18165c-0.73455,0 -1.38282,-0.11726 -1.9448,-0.35179c-0.56198,-0.23453 -1.00891,-0.55092 -1.34078,-0.94917l1.37397,-1.18812c0.29205,0.29205 0.62171,0.50667 0.98899,0.64384c0.3717,0.13717 0.72128,0.20576 1.04873,0.20576c0.13275,0 0.25001,-0.01328 0.35179,-0.03983c0.1062,-0.03097 0.1947,-0.0708 0.2655,-0.11948c0.0708,-0.0531 0.1239,-0.11505 0.1593,-0.18585c0.03983,-0.0708 0.05974,-0.15488 0.05974,-0.25223c0,-0.18585 -0.08407,-0.33188 -0.25223,-0.43808c-0.08407,-0.04425 -0.22568,-0.09956 -0.4248,-0.16594c-0.19913,-0.06638 -0.45357,-0.14381 -0.76332,-0.23231c-0.44693,-0.11062 -0.83412,-0.24338 -1.16157,-0.39825c-0.32303,-0.1593 -0.58853,-0.34073 -0.7965,-0.54428c-0.18585,-0.19913 -0.33188,-0.41816 -0.43808,-0.65712c-0.10178,-0.24338 -0.15266,-0.51551 -0.15266,-0.81642c0,-0.34958 0.08186,-0.66597 0.24559,-0.94917c0.16373,-0.2832 0.38498,-0.52879 0.66375,-0.73677c0.27878,-0.20798 0.59959,-0.36506 0.96244,-0.47126c0.36728,-0.11062 0.7434,-0.16594 1.12838,-0.16594c0.41595,0 0.81199,0.04868 1.18812,0.14603c0.37613,0.09293 0.72792,0.22346 1.05537,0.39161c0.32745,0.16815 0.61729,0.3717 0.86952,0.61065l-1.18812,1.32751c-0.16815,-0.1593 -0.35843,-0.30311 -0.57083,-0.43144c-0.2124,-0.12833 -0.43365,-0.2301 -0.66375,-0.30533c-0.22568,-0.07523 -0.43144,-0.11284 -0.61729,-0.11284c-0.1416,0 -0.26771,0.01328 -0.37834,0.03983c-0.1062,0.02213 -0.19913,0.05974 -0.27878,0.11284c-0.07523,0.04868 -0.13275,0.10841 -0.17258,0.17921c-0.0354,0.0708 -0.0531,0.15488 -0.0531,0.25223c0,0.09293 0.02655,0.18143 0.07965,0.2655c0.0531,0.08407 0.12611,0.15488 0.21904,0.2124c0.09735,0.05752 0.2478,0.12169 0.45135,0.19249c0.20798,0.0708 0.49118,0.15709 0.8496,0.25886c0.44693,0.1239 0.82969,0.26108 1.14829,0.41153c0.32303,0.15045 0.57747,0.32966 0.76332,0.53764c0.15488,0.16373 0.26993,0.35179 0.34515,0.56419c0.07523,0.2124 0.11284,0.44029 0.11284,0.68367c0,0.48233 -0.13496,0.90934 -0.40489,1.28104c-0.26993,0.3717 -0.64163,0.66375 -1.11511,0.87615c-0.46905,0.2124 -1.00669,0.3186 -1.61292,0.3186zM298.5576,184.18165c-0.78323,0 -1.48017,-0.16815 -2.09082,-0.50445c-0.61065,-0.34073 -1.09298,-0.80314 -1.44698,-1.38724c-0.34958,-0.58853 -0.52437,-1.25892 -0.52437,-2.01117c0,-0.75668 0.17479,-1.42707 0.52437,-2.01117c0.354,-0.58853 0.83633,-1.05094 1.44698,-1.38724c0.61065,-0.34073 1.30759,-0.51109 2.09082,-0.51109c0.78323,0 1.47796,0.17036 2.08419,0.51109c0.61065,0.3363 1.09077,0.79872 1.44034,1.38724c0.34958,0.5841 0.52437,1.25449 0.52437,2.01117c0,0.75225 -0.17479,1.42265 -0.52437,2.01117c-0.34958,0.5841 -0.82969,1.04652 -1.44034,1.38724c-0.60623,0.3363 -1.30096,0.50445 -2.08419,0.50445zM298.5576,182.23021c0.3363,0 0.6372,-0.08407 0.9027,-0.25223c0.2655,-0.17258 0.47348,-0.40489 0.62393,-0.69694c0.15045,-0.29205 0.22125,-0.62614 0.2124,-1.00227c0.00885,-0.38055 -0.06195,-0.71907 -0.2124,-1.01554c-0.15045,-0.29648 -0.35843,-0.52879 -0.62393,-0.69694c-0.2655,-0.17258 -0.5664,-0.25886 -0.9027,-0.25886c-0.34073,0 -0.64605,0.08629 -0.91598,0.25886c-0.26993,0.16815 -0.48012,0.40047 -0.63057,0.69694c-0.15045,0.29648 -0.22125,0.63499 -0.2124,1.01554c-0.00885,0.37613 0.06195,0.71022 0.2124,1.00227c0.15045,0.29205 0.36064,0.52437 0.63057,0.69694c0.26993,0.16815 0.57525,0.25223 0.91598,0.25223zM304.27638,184.04226v-7.88539c0,-0.49118 0.1062,-0.93368 0.3186,-1.32751c0.2124,-0.39825 0.50888,-0.71243 0.88943,-0.94253c0.38498,-0.23453 0.8319,-0.35179 1.34078,-0.35179c0.35843,0 0.68809,0.0531 0.98899,0.1593c0.3009,0.10178 0.57083,0.2478 0.80978,0.43808l-0.65048,1.65275c-0.1239,-0.06195 -0.24338,-0.11284 -0.35843,-0.15266c-0.11062,-0.03983 -0.21461,-0.05974 -0.31196,-0.05974c-0.16815,0 -0.30975,0.02876 -0.4248,0.08629c-0.11062,0.05752 -0.19249,0.14603 -0.24559,0.2655c-0.0531,0.11505 -0.07965,0.25886 -0.07965,0.43144v7.68626h-1.12838c-0.25665,0 -0.48233,0 -0.67703,0c-0.19028,0 -0.34736,0 -0.47126,0zM303.18783,178.60612v-1.87178h4.91177v1.87178z" fill="#000000" stroke="none" stroke-width="1" stroke-linecap="square"/><path d="M218.15798,204.29337l1.71248,-4.03562l0.03319,1.16157l-3.62409,-7.9053h2.56209l1.58637,3.78339c0.08407,0.19028 0.16373,0.39383 0.23895,0.61065c0.07523,0.21683 0.13054,0.42259 0.16594,0.61729l-0.30533,0.18585c0.0531,-0.1416 0.11505,-0.3186 0.18585,-0.531c0.0708,-0.2124 0.15045,-0.44029 0.23895,-0.68367l1.38724,-3.98252h2.57536l-3.19929,7.52033l-1.30759,3.25903zM229.42933,201.17373c-0.8319,0 -1.5554,-0.16594 -2.17047,-0.49782c-0.61065,-0.3363 -1.08634,-0.79429 -1.42707,-1.37397c-0.3363,-0.57968 -0.50445,-1.24343 -0.50445,-1.99126c0,-0.57525 0.09293,-1.10404 0.27878,-1.58637c0.19028,-0.48233 0.45357,-0.90049 0.78987,-1.25449c0.34073,-0.354 0.74562,-0.62614 1.21467,-0.81642c0.46905,-0.1947 0.98014,-0.29205 1.53327,-0.29205c0.531,0 1.01554,0.09514 1.45362,0.28541c0.43808,0.18585 0.81642,0.44914 1.13502,0.78987c0.32303,0.34073 0.56861,0.7434 0.73677,1.20803c0.17258,0.4602 0.25001,0.96466 0.23231,1.51336l-0.01328,0.60402h-5.99369l-0.32524,-1.27441h4.4737l-0.23895,0.27214v-0.28541c-0.0177,-0.23453 -0.09071,-0.4425 -0.21904,-0.62393c-0.12833,-0.18585 -0.29648,-0.32966 -0.50445,-0.43144c-0.20798,-0.1062 -0.4425,-0.1593 -0.70358,-0.1593c-0.36728,0 -0.68145,0.07301 -0.94253,0.21904c-0.26108,0.14603 -0.45799,0.35843 -0.59074,0.6372c-0.13275,0.27878 -0.19913,0.6195 -0.19913,1.02218c0,0.41595 0.08629,0.7788 0.25886,1.08856c0.177,0.30533 0.43365,0.54428 0.76995,0.71685c0.3363,0.16815 0.73455,0.25223 1.19476,0.25223c0.32303,0 0.60844,-0.04646 0.85624,-0.13939c0.25223,-0.09735 0.52437,-0.25886 0.81642,-0.48454l1.06201,1.50008c-0.29205,0.25665 -0.60402,0.46463 -0.93589,0.62393c-0.32745,0.1593 -0.66375,0.27878 -1.00891,0.35843c-0.34515,0.07965 -0.68809,0.11948 -1.02882,0.11948zM236.92268,201.16046c-0.63278,0 -1.19697,-0.16594 -1.69257,-0.49782c-0.4956,-0.3363 -0.89164,-0.79872 -1.18812,-1.38724c-0.29205,-0.59295 -0.43808,-1.26113 -0.43808,-2.00454c0,-0.76553 0.14603,-1.44034 0.43808,-2.02445c0.29648,-0.58853 0.69915,-1.04873 1.20803,-1.38061c0.50888,-0.3363 1.08856,-0.50445 1.73903,-0.50445c0.35843,0 0.68588,0.0531 0.98235,0.1593c0.3009,0.10178 0.56419,0.24559 0.78987,0.43144c0.22568,0.18143 0.41816,0.39383 0.57747,0.6372c0.16373,0.23895 0.2832,0.4956 0.35843,0.76995l-0.47126,-0.05974v-1.7855h2.25012v7.52033h-2.28995v-1.81205l0.51109,-0.01328c-0.07523,0.2655 -0.19913,0.51551 -0.3717,0.75004c-0.16815,0.23453 -0.37613,0.4425 -0.62393,0.62393c-0.24338,0.177 -0.51773,0.3186 -0.82305,0.4248c-0.3009,0.10178 -0.6195,0.15266 -0.9558,0.15266zM237.53997,199.24885c0.34958,0 0.65048,-0.07965 0.9027,-0.23895c0.25665,-0.1593 0.45578,-0.38719 0.59738,-0.68367c0.1416,-0.3009 0.2124,-0.65269 0.2124,-1.05537c0,-0.4071 -0.0708,-0.75889 -0.2124,-1.05537c-0.1416,-0.29648 -0.34073,-0.52658 -0.59738,-0.6903c-0.25223,-0.16815 -0.55313,-0.25223 -0.9027,-0.25223c-0.3363,0 -0.63057,0.08407 -0.88279,0.25223c-0.2478,0.16373 -0.4425,0.39383 -0.5841,0.6903c-0.1416,0.29648 -0.2124,0.64827 -0.2124,1.05537c0,0.40268 0.0708,0.75447 0.2124,1.05537c0.1416,0.29648 0.3363,0.52437 0.5841,0.68367c0.25223,0.1593 0.54649,0.23895 0.88279,0.23895zM243.47157,201.03434v-7.52033h2.1572l0.09956,2.44925l-0.4248,-0.46463c0.11062,-0.4071 0.29648,-0.76995 0.55755,-1.08856c0.26108,-0.32303 0.56419,-0.57747 0.90934,-0.76332c0.34958,-0.19028 0.72349,-0.28541 1.12174,-0.28541c0.16815,0 0.32524,0.01549 0.47126,0.04646c0.14603,0.02655 0.28099,0.05752 0.40489,0.09293l-0.62393,2.50899c-0.10178,-0.06638 -0.24116,-0.11948 -0.41816,-0.1593c-0.17258,-0.04425 -0.354,-0.06638 -0.54428,-0.06638c-0.20798,0 -0.40268,0.0354 -0.5841,0.1062c-0.177,0.0708 -0.32745,0.17258 -0.45135,0.30533c-0.11948,0.12833 -0.21461,0.2832 -0.28541,0.46463c-0.0708,0.177 -0.1062,0.38055 -0.1062,0.61065v3.76348zM252.44892,201.17373c-0.73455,0 -1.38282,-0.11726 -1.9448,-0.35179c-0.56198,-0.23453 -1.00891,-0.55092 -1.34078,-0.94917l1.37397,-1.18812c0.29205,0.29205 0.62171,0.50667 0.98899,0.64384c0.3717,0.13717 0.72128,0.20576 1.04873,0.20576c0.13275,0 0.25001,-0.01328 0.35179,-0.03983c0.1062,-0.03097 0.1947,-0.0708 0.2655,-0.11948c0.0708,-0.0531 0.1239,-0.11505 0.1593,-0.18585c0.03983,-0.0708 0.05974,-0.15488 0.05974,-0.25223c0,-0.18585 -0.08407,-0.33188 -0.25223,-0.43808c-0.08407,-0.04425 -0.22568,-0.09956 -0.4248,-0.16594c-0.19913,-0.06638 -0.45357,-0.14381 -0.76332,-0.23231c-0.44693,-0.11062 -0.83412,-0.24338 -1.16157,-0.39825c-0.32303,-0.1593 -0.58853,-0.34073 -0.7965,-0.54428c-0.18585,-0.19913 -0.33188,-0.41816 -0.43808,-0.65712c-0.10178,-0.24338 -0.15266,-0.51551 -0.15266,-0.81642c0,-0.34958 0.08186,-0.66597 0.24559,-0.94917c0.16373,-0.2832 0.38498,-0.52879 0.66375,-0.73677c0.27878,-0.20798 0.59959,-0.36506 0.96244,-0.47126c0.36728,-0.11062 0.7434,-0.16594 1.12838,-0.16594c0.41595,0 0.812,0.04868 1.18813,0.14603c0.37613,0.09293 0.72792,0.22346 1.05537,0.39161c0.32745,0.16815 0.61729,0.3717 0.86952,0.61065l-1.18812,1.32751c-0.16815,-0.1593 -0.35843,-0.30311 -0.57083,-0.43144c-0.2124,-0.12833 -0.43366,-0.2301 -0.66377,-0.30533c-0.22568,-0.07523 -0.43144,-0.11284 -0.61729,-0.11284c-0.1416,0 -0.26771,0.01328 -0.37834,0.03983c-0.1062,0.02213 -0.19913,0.05974 -0.27878,0.11284c-0.07523,0.04868 -0.13275,0.10841 -0.17258,0.17921c-0.0354,0.0708 -0.0531,0.15488 -0.0531,0.25223c0,0.09293 0.02655,0.18143 0.07965,0.2655c0.0531,0.08407 0.12611,0.15488 0.21904,0.2124c0.09735,0.05752 0.2478,0.12169 0.45135,0.19249c0.20798,0.0708 0.49118,0.15709 0.8496,0.25886c0.44694,0.1239 0.8297,0.26108 1.14831,0.41153c0.32303,0.15045 0.57747,0.32966 0.76332,0.53764c0.15488,0.16373 0.26993,0.35179 0.34515,0.56419c0.07523,0.2124 0.11284,0.44029 0.11284,0.68367c0,0.48233 -0.13496,0.90934 -0.40489,1.28104c-0.26993,0.3717 -0.64163,0.66375 -1.11511,0.87615c-0.46906,0.2124 -1.0067,0.3186 -1.61293,0.3186zM258.68046,197.63593l-0.45135,-1.85187c0.27435,-0.06638 0.53322,-0.14381 0.77659,-0.23231c0.24338,-0.09293 0.46905,-0.19028 0.67703,-0.29205c0.20798,-0.1062 0.38498,-0.22789 0.531,-0.36506c0.14603,-0.13717 0.26108,-0.28763 0.34515,-0.45135c0.0885,-0.16373 0.13275,-0.34073 0.13275,-0.531c0,-0.19028 -0.04868,-0.35179 -0.14603,-0.48454c-0.09293,-0.13717 -0.21904,-0.24338 -0.37834,-0.3186c-0.1593,-0.07965 -0.34736,-0.11948 -0.56419,-0.11948c-0.31418,0 -0.62835,0.11284 -0.94253,0.33851c-0.30975,0.22125 -0.59516,0.57747 -0.85624,1.06864l-1.54655,-1.43371c0.4248,-0.65048 0.93147,-1.15493 1.52,-1.51336c0.59295,-0.35843 1.21024,-0.53764 1.85187,-0.53764c0.62393,0 1.18591,0.12611 1.68593,0.37834c0.50003,0.2478 0.89607,0.59074 1.18812,1.02882c0.29205,0.43808 0.43808,0.93147 0.43808,1.48017c0,0.34958 -0.07301,0.69473 -0.21904,1.03546c-0.14603,0.34073 -0.34958,0.65933 -0.61065,0.9558c-0.25665,0.29648 -0.55977,0.55755 -0.90934,0.78323c-0.34958,0.22568 -0.73677,0.40047 -1.16157,0.52437l-0.14603,0.53764zM258.16937,199.93251c0,-0.38055 0.11284,-0.68809 0.33851,-0.92262c0.2301,-0.23453 0.52437,-0.35179 0.88279,-0.35179c0.38498,0 0.68588,0.11062 0.9027,0.33188c0.21683,0.22125 0.32524,0.53543 0.32524,0.94253c0,0.36728 -0.11284,0.66818 -0.33851,0.9027c-0.22568,0.23453 -0.52215,0.35179 -0.88943,0.35179c-0.3894,0 -0.6903,-0.10841 -0.9027,-0.32524c-0.2124,-0.21683 -0.3186,-0.52658 -0.3186,-0.92925z" fill="#000000" stroke="none" stroke-width="1" stroke-linecap="square"/></g></g></svg>