<svg version="1.1" xmlns="http://www.w3.org/2000/svg" xmlns:xlink="http://www.w3.org/1999/xlink" width="124.4" height="33.61996" viewBox="0,0,124.4,33.61996"><g transform="translate(-177.8,-162.97035)"><g data-paper-data="{&quot;isPaintingLayer&quot;:true}" fill-rule="nonzero" stroke-linecap="butt" stroke-linejoin="miter" stroke-miterlimit="10" stroke-dasharray="" stroke-dashoffset="0" style="mix-blend-mode: normal"><g fill="#f567e8"><path d="M239.8,195.27965l-13.85929,-13.85929l13.85929,-13.85929l13.85929,13.85929z" stroke="#000000" stroke-width="1.5"/><path d="M222.3,173.92035c0,-5.41239 4.38761,-9.8 9.8,-9.8c5.41239,0 9.8,4.38761 9.8,9.8c0,5.41239 -4.38761,9.8 -9.8,9.8c-5.41239,0 -9.8,-4.38761 -9.8,-9.8z" stroke="#000000" stroke-width="1.5"/><path d="M238.1,173.52035c0,-5.41239 4.38761,-9.8 9.8,-9.8c5.41239,0 9.8,4.38761 9.8,9.8c0,5.41239 -4.38761,9.8 -9.8,9.8c-5.41239,0 -9.8,-4.38761 -9.8,-9.8z" stroke="#000000" stroke-width="1.5"/><path d="M228.67443,176.67371c1.17245,-0.0549 1.75598,0.41269 2.16646,1.05155c0.10477,0.14479 0.19441,0.30124 0.26659,0.46705l1.36028,1.36028l-0.04476,0.04476l0.13981,0.05571c0.10202,0.14814 0.20602,0.33139 0.31388,0.52492c0.24823,0.11095 0.48234,0.28137 0.71263,0.47376c0.54219,0.0388 1.13481,-0.00097 1.6305,0.09522c-0.14123,-0.3132 -0.21983,-0.66072 -0.21983,-1.0266c0,-0.17475 0.01793,-0.34531 0.05205,-0.50995l0.56375,-3.00666c-0.40995,-0.06851 -0.8034,-0.15862 -1.20241,-0.27709l-0.06694,0.46857l-2.76361,-0.3948c-1.23096,-0.15585 -2.18283,-1.2068 -2.18283,-2.48007c0,-1.26478 0.93921,-2.31019 2.15823,-2.47683l2.49863,-0.3844c0.24442,-0.05248 0.50025,-0.10428 0.75456,-0.14826c-0.0989,-0.42841 -0.07271,-0.94341 0.18089,-1.55204c0.96154,-2.30769 3.26923,-1.34615 3.26923,-1.34615c1.31026,1.03727 3.98002,1.4414 3.93078,3.11181c-0.00723,0.24538 -0.03485,0.47704 -0.08081,0.69588h0.78849v0c1.38071,0 2.5,1.11929 2.5,2.5c0,0.99801 -0.58479,1.85943 -1.43041,2.26029l-1.31836,0.65918c0.37813,0.57017 0.66908,1.22248 0.90369,1.88467c0.8664,0.20255 2.11281,1.65978 2.34508,1.69586c0.00615,0.00096 0.01219,0.00171 0.0181,0.00226c0.08892,-0.07752 0.17781,-0.15505 0.26661,-0.23221c0.10048,-0.28907 0.10728,-0.76603 0.33053,-0.9515c0.69867,-0.58044 1.59175,-0.87552 2.38763,-1.31328l1.15087,-1.0867c0,0 1.88144,-1.64626 3.5277,0.23518c1.64626,1.88144 -0.23518,3.5277 -0.23518,3.5277l-2.04913,1.7133c-0.01163,0.00628 -0.02324,0.0126 -0.03485,0.01896l0.13546,0.188c-0.15491,0.08571 -0.31282,0.18093 -0.4733,0.28408c-0.31384,0.45781 -0.663,0.88833 -1.05667,1.282l-1.48153,0.97597c0,0 -0.31623,0.18974 -0.77864,0.30201c-1.06235,0.8389 -2.11974,1.59274 -3.08008,1.91333c-1.16972,0.39048 -2.46376,0.15192 -3.69688,0.13997c-2.48856,-0.02413 -6.54405,-0.48177 -9.38337,-2.19269c-2.28888,-0.88563 -4.44579,-2.62408 -4.70863,-4.44915c-0.14115,-0.24214 -0.24277,-0.51015 -0.29603,-0.79518c-0.0833,-0.2492 -0.12842,-0.51588 -0.12842,-0.79309c0,-1.22776 0.88504,-2.24881 2.05193,-2.45996c0.09689,-0.03131 0.19936,-0.05052 0.30832,-0.05562z" stroke="none" stroke-width="0.5"/></g><g fill="#bbbbbb"><path d="M283.55,195.52965l-13.85929,-13.85929l13.85929,-13.8593l13.85929,13.8593z" stroke="#000000" stroke-width="1.5"/><path d="M266.05,174.17036c0,-5.41239 4.38761,-9.8 9.8,-9.8c5.41239,0 9.8,4.38761 9.8,9.8c0,5.41239 -4.38761,9.8 -9.8,9.8c-5.41239,0 -9.8,-4.38761 -9.8,-9.8z" stroke="#000000" stroke-width="1.5"/><path d="M281.85,173.77036c0,-5.41239 4.38761,-9.8 9.8,-9.8c5.41239,0 9.8,4.38761 9.8,9.8c0,5.41239 -4.38761,9.8 -9.8,9.8c-5.41239,0 -9.8,-4.38761 -9.8,-9.8z" stroke="#000000" stroke-width="1.5"/><path d="M272.42444,176.92371c1.17245,-0.05489 1.75597,0.41269 2.16646,1.05155c0.10477,0.14479 0.19441,0.30124 0.26659,0.46705l1.36028,1.36028l-0.04476,0.04476l0.13981,0.05571c0.10202,0.14814 0.20601,0.33139 0.31388,0.52492c0.24823,0.11095 0.48234,0.28136 0.71263,0.47375c0.54219,0.0388 1.13482,-0.00097 1.6305,0.09522c-0.14123,-0.3132 -0.21983,-0.66072 -0.21983,-1.02659c0,-0.17475 0.01793,-0.34531 0.05205,-0.50995l0.56375,-3.00666c-0.40994,-0.06851 -0.8034,-0.15862 -1.20242,-0.27708l-0.06694,0.46857l-2.76362,-0.3948c-1.23096,-0.15585 -2.18283,-1.2068 -2.18283,-2.48007c0,-1.26477 0.93921,-2.31019 2.15823,-2.47683l2.49863,-0.3844c0.24442,-0.05248 0.50025,-0.10428 0.75456,-0.14826c-0.0989,-0.42842 -0.07271,-0.94341 0.18088,-1.55205c0.96154,-2.30769 3.26923,-1.34615 3.26923,-1.34615c1.31026,1.03727 3.98002,1.4414 3.93078,3.11182c-0.00724,0.24538 -0.03485,0.47704 -0.08081,0.69588h0.7885v0c1.38071,0 2.5,1.11929 2.5,2.5c0,0.99801 -0.58479,1.85943 -1.43041,2.26029l-1.31837,0.65918c0.37813,0.57017 0.66907,1.22248 0.9037,1.88467c0.8664,0.20254 2.11281,1.65978 2.34508,1.69586c0.00615,0.00096 0.01218,0.00171 0.0181,0.00226c0.08892,-0.07752 0.17781,-0.15505 0.26661,-0.23221c0.10048,-0.28907 0.10728,-0.76603 0.33053,-0.9515c0.69867,-0.58044 1.59175,-0.87553 2.38763,-1.31329l1.15087,-1.0867c0,0 1.88144,-1.64626 3.5277,0.23518c1.64626,1.88144 -0.23518,3.5277 -0.23518,3.5277l-2.04913,1.71329c-0.01163,0.00628 -0.02325,0.0126 -0.03485,0.01896l0.13545,0.188c-0.15491,0.08571 -0.31282,0.18093 -0.4733,0.28408c-0.31384,0.45781 -0.663,0.88833 -1.05668,1.282l-1.48152,0.97597c0,0 -0.31623,0.18973 -0.77864,0.30201c-1.06235,0.8389 -2.11974,1.59275 -3.08008,1.91333c-1.16972,0.39049 -2.46376,0.15192 -3.69688,0.13996c-2.48856,-0.02413 -6.54405,-0.48177 -9.38338,-2.19268c-2.28888,-0.88563 -4.44579,-2.62408 -4.70863,-4.44915c-0.14115,-0.24214 -0.24277,-0.51015 -0.29603,-0.79518c-0.0833,-0.24919 -0.12842,-0.51588 -0.12842,-0.79309c0,-1.22776 0.88503,-2.24881 2.05193,-2.45996c0.09689,-0.03131 0.19936,-0.05051 0.30832,-0.05561z" stroke="none" stroke-width="0.5"/></g><g fill="#f567e8"><path d="M196.05,195.27965l-13.85929,-13.85929l13.85929,-13.8593l13.85929,13.8593z" stroke="#000000" stroke-width="1.5"/><path d="M178.55,173.92036c0,-5.41239 4.38761,-9.8 9.8,-9.8c5.41239,0 9.8,4.38761 9.8,9.8c0,5.41239 -4.38761,9.8 -9.8,9.8c-5.41239,0 -9.8,-4.38761 -9.8,-9.8z" stroke="#000000" stroke-width="1.5"/><path d="M194.35,173.52036c0,-5.41239 4.38761,-9.8 9.8,-9.8c5.41239,0 9.8,4.38761 9.8,9.8c0,5.41239 -4.38761,9.8 -9.8,9.8c-5.41239,0 -9.8,-4.38761 -9.8,-9.8z" stroke="#000000" stroke-width="1.5"/><path d="M184.92444,176.67371c1.17245,-0.05489 1.75597,0.41269 2.16646,1.05155c0.10477,0.14479 0.19441,0.30124 0.26659,0.46705l1.36028,1.36028l-0.04476,0.04476l0.13981,0.05571c0.10202,0.14814 0.20602,0.33139 0.31388,0.52492c0.24823,0.11095 0.48235,0.28136 0.71263,0.47375c0.54219,0.0388 1.13482,-0.00097 1.6305,0.09522c-0.14123,-0.3132 -0.21983,-0.66072 -0.21983,-1.02659c0,-0.17475 0.01793,-0.34531 0.05205,-0.50995l0.56375,-3.00666c-0.40994,-0.06851 -0.8034,-0.15862 -1.20241,-0.27708l-0.06694,0.46857l-2.76362,-0.3948c-1.23096,-0.15585 -2.18283,-1.2068 -2.18283,-2.48007c0,-1.26477 0.93921,-2.31019 2.15823,-2.47683l2.49863,-0.3844c0.24442,-0.05248 0.50026,-0.10428 0.75457,-0.14826c-0.0989,-0.42842 -0.07271,-0.94341 0.18088,-1.55205c0.96154,-2.30769 3.26924,-1.34615 3.26924,-1.34615c1.31026,1.03727 3.98001,1.4414 3.93077,3.11182c-0.00723,0.24538 -0.03485,0.47704 -0.08081,0.69588h0.78849v0c1.38071,0 2.5,1.11929 2.5,2.5c0,0.99801 -0.58479,1.85943 -1.43041,2.26029l-1.31836,0.65918c0.37813,0.57017 0.66907,1.22248 0.90369,1.88467c0.8664,0.20254 2.11281,1.65978 2.34508,1.69586c0.00615,0.00096 0.01218,0.00171 0.0181,0.00226c0.08891,-0.07752 0.17781,-0.15505 0.26661,-0.23221c0.10048,-0.28907 0.10728,-0.76603 0.33053,-0.9515c0.69867,-0.58044 1.59175,-0.87553 2.38763,-1.31329l1.15087,-1.0867c0,0 1.88144,-1.64626 3.5277,0.23518c1.64626,1.88144 -0.23518,3.5277 -0.23518,3.5277l-2.04913,1.71329c-0.01163,0.00628 -0.02324,0.0126 -0.03484,0.01896l0.13545,0.188c-0.15491,0.08571 -0.31282,0.18093 -0.4733,0.28408c-0.31384,0.45781 -0.663,0.88833 -1.05668,1.282l-1.48153,0.97597c0,0 -0.31623,0.18973 -0.77864,0.30201c-1.06235,0.8389 -2.11973,1.59275 -3.08008,1.91333c-1.16972,0.39049 -2.46376,0.15192 -3.69688,0.13996c-2.48856,-0.02413 -6.54404,-0.48177 -9.38337,-2.19268c-2.28888,-0.88563 -4.44579,-2.62408 -4.70863,-4.44915c-0.14115,-0.24214 -0.24277,-0.51015 -0.29603,-0.79518c-0.0833,-0.24919 -0.12842,-0.51588 -0.12842,-0.79309c0,-1.22776 0.88503,-2.24881 2.05193,-2.45996c0.0969,-0.03131 0.19937,-0.05051 0.30832,-0.05561z" stroke="none" stroke-width="0.5"/></g></g></g></svg>