<svg version="1.1" xmlns="http://www.w3.org/2000/svg" xmlns:xlink="http://www.w3.org/1999/xlink" width="183.5" height="183.5" viewBox="0,0,183.5,183.5"><defs><radialGradient cx="240" cy="180" r="87" gradientUnits="userSpaceOnUse" id="color-1"><stop offset="0" stop-color="#888888" stop-opacity="0"/><stop offset="1" stop-color="#888888"/></radialGradient></defs><g transform="translate(-148.25,-88.25)"><g data-paper-data="{&quot;isPaintingLayer&quot;:true}" fill-rule="nonzero" stroke-linecap="butt" stroke-linejoin="miter" stroke-miterlimit="10" stroke-dasharray="" stroke-dashoffset="0" style="mix-blend-mode: normal"><path d="M150.5,180c0,-49.42949 40.07051,-89.5 89.5,-89.5c49.42949,0 89.5,40.07051 89.5,89.5c0,49.42949 -40.07051,89.5 -89.5,89.5c-49.42949,0 -89.5,-40.07051 -89.5,-89.5z" fill="#c3c3c3" stroke="#000000" stroke-width="4.5"/><path d="M153,180c0,-48.04877 38.95123,-87 87,-87c48.04877,0 87,38.95123 87,87c0,48.04877 -38.95123,87 -87,87c-48.04877,0 -87,-38.95123 -87,-87z" fill="url(#color-1)" stroke="none" stroke-width="0"/><path d="M183,180c0,-31.48023 25.51977,-57 57,-57c31.48023,0 57,25.51977 57,57c0,31.48023 -25.51977,57 -57,57c-31.48023,0 -57,-25.51977 -57,-57z" fill="#a5a5a5" stroke="none" stroke-width="0"/><path d="M241.94023,178.87174l82.58362,-20.17574c0,0 2.03088,9.6017 1.69886,21.51508c-0.33804,12.12968 -2.32543,22.59237 -2.32543,22.59237z" fill="#a053d4" stroke="#000000" stroke-width="2"/><path d="M241.5815,176.7759l59.68766,-57.40617c0,0 7.01789,6.8605 13.35296,16.95533c6.4501,10.27811 8.84661,20.4551 8.84661,20.4551z" fill="#a053d4" stroke="#000000" stroke-width="2"/><path d="M239.92281,176.03714l23.00768,-79.36754c0,0 9.47638,2.55256 19.93873,8.26027c10.65231,5.81133 17.7193,13.51666 17.7193,13.51666z" fill="#a053d4" stroke="#000000" stroke-width="2"/><path d="M257.84139,183.56685l-0.20456,-9.00045l12.27334,-2.86378v14.52344z" fill="#bb8649" stroke="#000000" stroke-width="2"/><path d="M286.79307,191.87709l-0.20455,-22.70567l12.68244,-3.47744l-0.40911,28.84233z" fill="#bb8649" stroke="#000000" stroke-width="2"/><path d="M309.5894,196.46798l0.61367,-34.16079l13.90978,-3.27289c0,0 1.81488,13.08527 2.01388,19.88468c0.20956,7.15992 -0.78654,22.04921 -0.78654,22.04921z" fill="#bb8649" stroke="#000000" stroke-width="2"/><path d="M257.54161,183.39723c0,0 -13.50067,-2.9777 -13.50067,-4.18178c0,-1.10585 23.31934,-6.45511 23.31934,-6.45511l59.31526,-1.89361l0.41496,12.53049z" fill="#bb8649" stroke="#000000" stroke-width="2"/><path d="M286.64932,167.11693l-1.10162,-30.92808l12.1077,-11.66268l1.36298,39.38865z" fill="#bb8649" stroke="#000000" stroke-width="2"/><path d="M310.42192,160.80195l-0.58731,-31.4424l8.25032,9.42434l4.9632,19.0731z" fill="#bb8649" stroke="#000000" stroke-width="2"/><path d="M257.44719,174.94568l0.18417,-12.6698l12.36486,-10.8912l-0.17998,20.35889z" fill="#bb8649" stroke="#000000" stroke-width="2"/><path d="M265.62753,154.28232l14.44752,-13.97995l37.1996,-0.60781l4.27235,12.01617z" fill="#bb8649" stroke="#000000" stroke-width="2"/><path d="M257.70479,159.86024l-0.37376,-40.56625l6.65692,-22.8726l5.42897,1.38075l-0.73791,52.99773z" fill="#bb8649" stroke="#000000" stroke-width="2"/><path d="M285.5121,134.17776l-1.38058,-29.25429l12.94459,9.25966l-0.03184,9.53945z" fill="#bb8649" stroke="#000000" stroke-width="2"/><path d="M246.35762,154.53992l4.12583,-13.42202l27.99377,-0.32885l-12.74448,13.13203z" fill="#bb8649" stroke="#000000" stroke-width="2"/><path d="M254.70519,125.22729l4.12583,-13.42202l34.13099,1.06597l5.43669,5.452l-3.11709,6.00624z" fill="#bb8649" stroke="#000000" stroke-width="2"/><path d="M297.08643,124.09008l2.17308,-5.33205l5.67661,5.25044z" fill="#bb8649" stroke="#000000" stroke-width="2"/></g></g></svg>