<svg version="1.1" xmlns="http://www.w3.org/2000/svg" xmlns:xlink="http://www.w3.org/1999/xlink" width="183.5" height="183.5" viewBox="0,0,183.5,183.5"><defs><radialGradient cx="240" cy="180" r="87" gradientUnits="userSpaceOnUse" id="color-1"><stop offset="0" stop-color="#888888" stop-opacity="0"/><stop offset="1" stop-color="#888888"/></radialGradient></defs><g transform="translate(-148.25,-88.25)"><g data-paper-data="{&quot;isPaintingLayer&quot;:true}" fill-rule="nonzero" stroke-linecap="butt" stroke-linejoin="miter" stroke-miterlimit="10" stroke-dasharray="" stroke-dashoffset="0" style="mix-blend-mode: normal"><path d="M150.5,180c0,-49.42949 40.07051,-89.5 89.5,-89.5c49.42949,0 89.5,40.07051 89.5,89.5c0,49.42949 -40.07051,89.5 -89.5,89.5c-49.42949,0 -89.5,-40.07051 -89.5,-89.5z" fill="#c3c3c3" stroke="#000000" stroke-width="4.5"/><path d="M153,180c0,-48.04877 38.95123,-87 87,-87c48.04877,0 87,38.95123 87,87c0,48.04877 -38.95123,87 -87,87c-48.04877,0 -87,-38.95123 -87,-87z" fill="url(#color-1)" stroke="none" stroke-width="0"/><path d="M183,180c0,-31.48023 25.51977,-57 57,-57c31.48023,0 57,25.51977 57,57c0,31.48023 -25.51977,57 -57,57c-31.48023,0 -57,-25.51977 -57,-57z" fill="#a5a5a5" stroke="none" stroke-width="0"/><path d="M241.94023,178.87174l82.58362,-20.17574c0,0 2.03088,9.6017 1.69886,21.51508c-0.33804,12.12968 -2.32543,22.59237 -2.32543,22.59237z" fill="#a053d4" stroke="#000000" stroke-width="2"/><path d="M241.5815,176.7759l59.68766,-57.40617c0,0 7.01789,6.8605 13.35296,16.95533c6.4501,10.27811 8.84661,20.4551 8.84661,20.4551z" fill="#a053d4" stroke="#000000" stroke-width="2"/><path d="M239.92281,176.03714l23.00768,-79.36754c0,0 9.47638,2.55256 19.93873,8.26027c10.65231,5.81133 17.7193,13.51666 17.7193,13.51666z" fill="#a053d4" stroke="#000000" stroke-width="2"/><path d="M238.87137,175.62405l-18.75889,-79.88803c0,0 9.52367,-2.37004 21.44132,-2.46062c12.13403,-0.09224 22.05347,3.21219 22.05347,3.21219z" fill="#a053d4" stroke="#000000" stroke-width="2"/><path d="M237.85981,176.48028l-56.25848,-60.56307c0,0 7.27595,-6.58619 17.73853,-12.29348c10.65253,-5.81092 20.9568,-7.58198 20.9568,-7.58198z" fill="#a053d4" stroke="#000000" stroke-width="2"/><path d="M236.51845,177.52006l-79.11559,-23.95048c0,0 2.96438,-9.35574 9.12398,-19.55858c6.27143,-10.38809 14.27833,-17.1115 14.27833,-17.1115z" fill="#a053d4" stroke="#000000" stroke-width="2"/><path d="M236.14913,177.26596l-81.11137,20.37329c0,0 -1.29609,-9.54177 -1.29424,-21.45977c0.00188,-12.13438 3.38315,-22.0279 3.38315,-22.0279z" fill="#a053d4" stroke="#000000" stroke-width="2"/><path d="M234.73063,178.92546l-60.16957,58.41731c0,0 -5.87869,-7.62668 -11.81624,-17.96032c-6.04536,-10.52126 -8.04414,-20.78379 -8.04414,-20.78379z" fill="#a053d4" stroke="#000000" stroke-width="2"/><path d="M234.64718,181.16232l-23.66494,80.45452c0,0 -8.86922,-3.74996 -19.12084,-9.82802c-10.43776,-6.18841 -17.22479,-14.14146 -17.22479,-14.14146z" fill="#a053d4" stroke="#000000" stroke-width="2"/><path d="M234.80304,182.89689l20.71056,82.76552c0,0 -10.21801,1.55686 -22.13565,1.46442c-12.13402,-0.09411 -22.00155,-5.21715 -22.00155,-5.21715z" fill="#a053d4" stroke="#000000" stroke-width="2"/><path d="M235.64741,185.17777l60.27575,60.38123c0,0 -7.96807,6.58342 -18.24153,12.62451c-10.45998,6.15078 -21.55784,6.82249 -21.55784,6.82249z" fill="#a053d4" stroke="#000000" stroke-width="2"/><path d="M236.20215,178.45629c0,0 2.2205,1.0711 5.40573,1.88504c11.75588,3.00403 82.38247,22.13673 82.38247,22.13673c0,0 -2.92742,9.78501 -9.99021,22.80442c-7.19102,13.25579 -18.90809,20.75444 -18.90809,20.75444c0,0 -49.11,-51.40875 -57.45924,-60.64427c-2.45445,-2.71499 -1.43066,-6.93636 -1.43066,-6.93636z" fill="#a053d4" stroke="#000000" stroke-width="2"/><path d="M233,180c0,-3.86599 3.13401,-7 7,-7c3.86599,0 7,3.13401 7,7c0,3.86599 -3.13401,7 -7,7c-3.86599,0 -7,-3.13401 -7,-7z" fill="#000000" stroke="none" stroke-width="0"/><path d="M241.25807,176.2505l59.68766,-57.40617c0,0 7.01789,6.8605 13.35296,16.95533c6.4501,10.27811 8.84661,20.4551 8.84661,20.4551z" fill="#a053d4" stroke="#000000" stroke-width="2"/><path d="M234.20595,151.50248l2.13692,-57.86205l12.08589,-0.29055l-2.4117,57.74013l-7.06984,19.59919z" fill="#bb8649" stroke="#000000" stroke-width="2"/><path d="M233.97463,153.95044l-3.40621,-13.14306l18.23002,-0.60782l-3.25969,13.68996z" fill="#bb8649" stroke="#000000" stroke-width="2"/><path d="M257.51796,183.32041l-0.20456,-9.00045l12.27334,-2.86378v14.52344z" fill="#bb8649" stroke="#000000" stroke-width="2"/><path d="M286.46964,191.63065l-0.20455,-22.70567l12.68244,-3.47744l-0.40911,28.84233z" fill="#bb8649" stroke="#000000" stroke-width="2"/><path d="M309.26597,196.22154l0.61367,-34.16079l13.90978,-3.27289c0,0 1.81488,13.08527 2.01388,19.88468c0.20956,7.15992 -0.78654,22.04921 -0.78654,22.04921z" fill="#bb8649" stroke="#000000" stroke-width="2"/><path d="M257.21817,183.15079c0,0 -13.50067,-2.9777 -13.50067,-4.18178c0,-1.10585 23.31934,-6.45511 23.31934,-6.45511l59.31526,-1.89361l0.41496,12.53049z" fill="#bb8649" stroke="#000000" stroke-width="2"/><path d="M286.32589,166.87049l-1.10162,-30.92808l12.1077,-11.66268l1.36298,39.38865z" fill="#bb8649" stroke="#000000" stroke-width="2"/><path d="M310.09849,160.55551l-0.58731,-31.4424l8.25032,9.42434l4.9632,19.0731z" fill="#bb8649" stroke="#000000" stroke-width="2"/><path d="M257.12376,174.69924l0.18417,-12.6698l12.36486,-10.8912l-0.17998,20.35889z" fill="#bb8649" stroke="#000000" stroke-width="2"/><path d="M257.38135,159.6138l-0.37376,-40.56625l6.65692,-22.8726l5.42897,1.38075l-0.73791,52.99773z" fill="#bb8649" stroke="#000000" stroke-width="2"/><path d="M285.18867,133.93132l-1.38058,-29.25429l12.94459,9.25966l-0.03184,9.53945z" fill="#bb8649" stroke="#000000" stroke-width="2"/><path d="M246.03419,154.29348l4.12583,-13.42202l27.99377,-0.32885l-12.74448,13.13203z" fill="#bb8649" stroke="#000000" stroke-width="2"/><path d="M254.38175,124.98085l4.12583,-13.42202l34.13099,1.06597l5.43669,5.452l-3.11709,6.00624z" fill="#bb8649" stroke="#000000" stroke-width="2"/><path d="M296.763,123.84364l2.17308,-5.33205l5.67661,5.25044z" fill="#bb8649" stroke="#000000" stroke-width="2"/><path d="M206.84607,143.11218l-2.60548,-42.519l12.08589,-4.19605l1.77277,58.57702z" fill="#bb8649" stroke="#000000" stroke-width="2"/><path d="M182.73896,114.52004l10.13314,-7.54362l0.37794,20.35889z" fill="#bb8649" stroke="#000000" stroke-width="2"/><path d="M192.12996,124.93813l-7.88673,-9.53264l3.92259,-3.61041l36.08374,0.22907l2.3196,12.29514z" fill="#bb8649" stroke="#000000" stroke-width="2"/><path d="M216.37851,153.65011l-10.38032,-12.0272l24.92516,-0.60782l2.87753,12.85307z" fill="#bb8649" stroke="#000000" stroke-width="2"/><path d="M156.91463,152.02986l6.3554,-17.6809l7.415,-7.47527l-2.53638,28.10113z" data-paper-data="{&quot;index&quot;:null}" fill="#bb8649" stroke="#000000" stroke-width="2"/><path d="M172.39592,125.65726l10.4121,-8.93845l4.84137,8.92135z" fill="#bb8649" stroke="#000000" stroke-width="2"/><path d="M160.28528,153.62875l-1.6348,-1.75473l2.1341,-9.43557l44.17371,-0.60782l9.57268,12.29514z" fill="#bb8649" stroke="#000000" stroke-width="2"/><path d="M181.7179,141.97496l0.18417,-16.5753l10.4121,0.82531l1.21484,15.61649z" fill="#bb8649" stroke="#000000" stroke-width="2"/><path d="M182.53343,160.36526l-0.0948,-6.53258l10.4121,0.26738l0.37795,8.92135z" fill="#bb8649" stroke="#000000" stroke-width="2"/><path d="M208.07247,168.22297l-0.26943,-13.2958l7.97853,-0.21683l2.83862,3.41951l0.70323,13.44556z" fill="#bb8649" stroke="#000000" stroke-width="2"/><path d="M208.74263,182.84389v-14.52344l10.88114,2.3069l0.63076,9.55733z" data-paper-data="{&quot;index&quot;:null}" fill="#bb8649" stroke="#000000" stroke-width="2"/><path d="M182.57534,189.76195l0.42621,-28.28545l10.17649,2.92056l0.35233,22.98411z" data-paper-data="{&quot;index&quot;:null}" fill="#bb8649" stroke="#000000" stroke-width="2"/><path d="M155.55484,195.31883c0,0 -1.13219,-19.27133 -0.69728,-26.59159c0.32319,-5.43989 3.07257,-13.38831 3.07257,-13.38831l10.17648,2.92057l1.46609,34.67855z" data-paper-data="{&quot;index&quot;:null}" fill="#bb8649" stroke="#000000" stroke-width="2"/><path d="M153.23293,178.9013l0.41496,-12.53049l59.31526,1.89361c0,0 23.31934,5.34926 23.31934,6.45511c0,1.20408 -13.50067,4.18178 -13.50067,4.18178z" data-paper-data="{&quot;index&quot;:null}" fill="#bb8649" stroke="#000000" stroke-width="2"/><path d="M227.84465,124.35364l-3.26608,-12.09596l34.68762,-0.46899l-5.01004,12.9932z" fill="#bb8649" stroke="#000000" stroke-width="2"/><path d="M169.35202,195.18583l0.68646,34.67862l-7.8261,-12.61393l-5.9443,-18.09199z" data-paper-data="{&quot;index&quot;:null}" fill="#bb8649" stroke="#000000" stroke-width="2"/><path d="M214.29552,197.06261l-11.42259,11.88405l-42.3238,-0.19673l-2.1341,-9.43557l1.6348,-1.75473z" data-paper-data="{&quot;index&quot;:null}" fill="#bb8649" stroke="#000000" stroke-width="2"/><path d="M193.29355,209.34692l0.01844,8.42236l-10.82319,10.07491l-0.59527,-18.63076z" data-paper-data="{&quot;index&quot;:null}" fill="#bb8649" stroke="#000000" stroke-width="2"/><path d="M192.99323,188.16697l-0.37795,8.92135l-10.4121,0.26738l0.0948,-6.53258z" data-paper-data="{&quot;index&quot;:null}" fill="#bb8649" stroke="#000000" stroke-width="2"/><path d="M219.91015,181.66844l-1.52542,11.3901l-2.83862,3.41951l-6.5397,-0.21683l-0.55276,-11.65143z" data-paper-data="{&quot;index&quot;:null}" fill="#bb8649" stroke="#000000" stroke-width="2"/><path d="M220.28512,195.06738l-0.56672,34.45592l-8.86976,31.32278l-4.02017,-1.7493l1.80144,-54.17753z" data-paper-data="{&quot;index&quot;:null}" fill="#bb8649" stroke="#000000" stroke-width="2"/><path d="M194.22987,219.8921l-1.58399,30.81136c0,0 -8.93451,-3.8071 -10.12346,-6.76223c-1.11149,-2.76258 -0.41169,-13.24396 -0.41169,-13.24396z" data-paper-data="{&quot;index&quot;:null}" fill="#bb8649" stroke="#000000" stroke-width="2"/><path d="M220.71466,227.73233l-3.52565,12.69716l-35.68172,1.43512l-4.72663,-4.81646l10.29884,-9.53264z" data-paper-data="{&quot;index&quot;:null}" fill="#bb8649" stroke="#000000" stroke-width="2"/><path d="M229.15243,197.37943l-3.68157,11.64702l-22.11103,0.59823l9.17427,-12.0272z" data-paper-data="{&quot;index&quot;:null}" fill="#bb8649" stroke="#000000" stroke-width="2"/><path d="M184.60902,227.86873l-10.06761,6.50924l-5.58788,-6.52634z" data-paper-data="{&quot;index&quot;:null}" fill="#bb8649" stroke="#000000" stroke-width="2"/><path d="M265.30409,154.03588l14.44752,-13.97995l37.1996,-0.60781l4.27235,12.01617z" fill="#bb8649" stroke="#000000" stroke-width="2"/><path d="M244.17998,222.98242l3.4281,43.6677l-16.08071,-0.94526l3.0075,-77.89661z" data-paper-data="{&quot;index&quot;:null}" fill="#bb8649" stroke="#000000" stroke-width="2"/><path d="M238.88022,197.5633l2.05363,11.27785l-15.01387,0.59824l3.00419,-11.937z" data-paper-data="{&quot;index&quot;:null}" fill="#bb8649" stroke="#000000" stroke-width="2"/><path d="M246.79359,227.87699l2.19591,12.9932l-31.06946,-0.06697l4.07011,-13.30202z" data-paper-data="{&quot;index&quot;:null}" fill="#bb8649" stroke="#000000" stroke-width="2"/><path d="M267.3253,215.5641l2.34598,45.35938l-12.26328,2.98882l-3.46903,-59.41867z" data-paper-data="{&quot;index&quot;:null}" fill="#bb8649" stroke="#000000" stroke-width="2"/><path d="M292.87643,243.44543l2.04193,3.50918l-8.52239,6.04351l0.97856,-15.58567z" data-paper-data="{&quot;index&quot;:null}" fill="#bb8649" stroke="#000000" stroke-width="2"/><path d="M247.89628,198.77427l11.94044,10.3179l-18.34533,0.07317l-2.91978,-10.60789z" data-paper-data="{&quot;index&quot;:null}" fill="#bb8649" stroke="#000000" stroke-width="2"/><path d="M279.85726,228.76789l8.53489,11.45824l-38.55319,0.66395l-3.32179,-12.61798z" data-paper-data="{&quot;index&quot;:null}" fill="#bb8649" stroke="#000000" stroke-width="2"/><path d="M322.47803,204.45979l-6.3554,17.6809l-7.415,9.76921l0.24244,-32.97575z" data-paper-data="{&quot;index&quot;:null}" fill="#bb8649" stroke="#000000" stroke-width="2"/><path d="M297.71946,196.41114l-1.62566,49.8307l-9.26513,-10.87685l0.19554,-41.61z" data-paper-data="{&quot;index&quot;:null}" fill="#bb8649" stroke="#000000" stroke-width="2"/><path d="M268.73951,186.83297l-1.16428,28.20641l-11.41944,-11.25287l0.75929,-19.7325z" data-paper-data="{&quot;index&quot;:null}" fill="#bb8649" stroke="#000000" stroke-width="2"/><path d="M307.0642,198.55977l14.61404,3.6963l-0.77622,6.63377l-61.37826,0.32108l-10.43291,-11.14817z" data-paper-data="{&quot;index&quot;:null}" fill="#bb8649" stroke="#000000" stroke-width="2"/><path d="M310.37735,228.60652l-7.52269,10.59801l-13.31985,0.09046l-9.34338,-10.61078z" data-paper-data="{&quot;index&quot;:null}" fill="#bb8649" stroke="#000000" stroke-width="2"/></g></g></svg>