<svg version="1.1" xmlns="http://www.w3.org/2000/svg" xmlns:xlink="http://www.w3.org/1999/xlink" width="205.64286" height="99.25" viewBox="0,0,205.64286,99.25"><g transform="translate(-137.30606,-131)"><g data-paper-data="{&quot;isPaintingLayer&quot;:true}" fill-rule="nonzero" stroke-linejoin="miter" stroke-miterlimit="10" stroke-dasharray="" stroke-dashoffset="0" style="mix-blend-mode: normal"><path d="M140.55606,207.25c0,-18.73959 -0.38249,-45.48871 0,-55.5c0.5,-13.0871 3.89541,-16.75 15.32143,-16.75c22.08229,0 127.56734,0 168,0c15.33535,0 15.82143,4.98326 15.82143,16.75c0,17.95892 0,45.32915 0,56c0,14.97422 -0.38765,19.25 -14.32143,19.25c-38.12556,0 -140.83396,0 -165,0c-18.91714,0 -19.82143,-3.40978 -19.82143,-19.75z" fill="#ffffff" stroke-opacity="0.25901" stroke="#000000" stroke-width="6.5" stroke-linecap="butt"/><path d="M140.47107,205.25c0,-18.73959 -0.38249,-45.48871 0,-55.5c0.5,-13.0871 3.89541,-16.75 15.32143,-16.75c22.08229,0 127.56734,0 168,0c15.33535,0 15.82143,4.98326 15.82143,16.75c0,17.95892 0,45.32915 0,56c0,14.97422 -0.38765,19.25 -14.32143,19.25c-38.12556,0 -140.83396,0 -165,0c-18.91714,0 -19.82143,-3.40978 -19.82143,-19.75z" fill="#ffffff" stroke="#000000" stroke-width="4" stroke-linecap="butt"/><path d="M154.22036,168.30165l4.02663,-10.17218h2.09167l3.99256,10.17218h-2.49365l-1.92133,-5.15763c-0.07722,-0.2044 -0.15443,-0.42242 -0.23165,-0.65407c-0.07722,-0.23165 -0.15443,-0.47012 -0.23165,-0.7154c-0.07722,-0.24982 -0.15216,-0.49283 -0.22484,-0.72902c-0.07268,-0.24074 -0.13399,-0.46103 -0.18396,-0.66089l0.43605,-0.02044c-0.05904,0.24527 -0.12491,0.48374 -0.19759,0.71539c-0.07268,0.23165 -0.14535,0.46103 -0.21802,0.68814c-0.07268,0.22711 -0.15216,0.45648 -0.23846,0.68813c-0.0863,0.22711 -0.16806,0.46103 -0.24528,0.70176l-1.92133,5.144zM156.13488,166.35306l0.76989,-1.86002h4.68071l0.75627,1.86002zM169.98826,168.45835c-0.34975,0 -0.68587,-0.04769 -1.00836,-0.14308c-0.31795,-0.09538 -0.60638,-0.22483 -0.86529,-0.38835c-0.25436,-0.16806 -0.46557,-0.3611 -0.63363,-0.57913c-0.16806,-0.21803 -0.28162,-0.44286 -0.34067,-0.67451l0.50418,-0.17033l-0.12945,1.78507h-2.16662v-10.73768h2.34376v4.87829l-0.48374,-0.17033c0.05904,-0.25436 0.17033,-0.49056 0.33385,-0.70858c0.16806,-0.21803 0.37699,-0.41107 0.62681,-0.57913c0.25436,-0.16806 0.53143,-0.29979 0.83122,-0.39517c0.29979,-0.09993 0.60865,-0.14989 0.9266,-0.14989c0.67224,0 1.26727,0.1726 1.78508,0.51781c0.51781,0.34067 0.9266,0.81532 1.22638,1.42397c0.29979,0.60411 0.44967,1.29452 0.44967,2.07123c0,0.78125 -0.14762,1.4762 -0.44286,2.08486c-0.29524,0.60411 -0.69949,1.07876 -1.21276,1.42396c-0.51326,0.34067 -1.09466,0.511 -1.74419,0.511zM169.37507,166.50295c0.34975,0 0.65407,-0.0863 0.91298,-0.2589c0.26344,-0.17714 0.46558,-0.41788 0.60638,-0.72221c0.14081,-0.30887 0.21121,-0.66997 0.21121,-1.0833c0,-0.40879 -0.0704,-0.76763 -0.21121,-1.0765c-0.14081,-0.30887 -0.34294,-0.54506 -0.60638,-0.70858c-0.2589,-0.16806 -0.56323,-0.25209 -0.91298,-0.25209c-0.35883,0 -0.66997,0.08403 -0.93342,0.25209c-0.2589,0.16352 -0.46103,0.39971 -0.60638,0.70858c-0.14535,0.30887 -0.21802,0.6677 -0.21802,1.0765c0,0.41333 0.07267,0.77443 0.21802,1.0833c0.14535,0.30433 0.34747,0.54506 0.60638,0.72221c0.26344,0.17261 0.57459,0.2589 0.93342,0.2589zM178.54917,168.44473c-0.80397,0 -1.51935,-0.1726 -2.14617,-0.51781c-0.62682,-0.34975 -1.12192,-0.8244 -1.48529,-1.42397c-0.35883,-0.60411 -0.53825,-1.29225 -0.53825,-2.06441c0,-0.77671 0.17942,-1.46485 0.53825,-2.06441c0.36337,-0.60411 0.85847,-1.07877 1.48529,-1.42397c0.62682,-0.34975 1.3422,-0.52462 2.14617,-0.52462c0.80397,0 1.51709,0.17487 2.13936,0.52462c0.62682,0.3452 1.11964,0.81986 1.47848,1.42397c0.35883,0.59957 0.53825,1.2877 0.53825,2.06441c0,0.77217 -0.17942,1.46031 -0.53825,2.06441c-0.35883,0.59957 -0.85165,1.07422 -1.47848,1.42397c-0.62228,0.3452 -1.3354,0.51781 -2.13936,0.51781zM178.54917,166.44163c0.3452,0 0.65408,-0.0863 0.9266,-0.2589c0.27253,-0.17714 0.48601,-0.4156 0.64044,-0.71539c0.15444,-0.29979 0.22711,-0.64271 0.21803,-1.0288c0.00908,-0.39062 -0.06359,-0.7381 -0.21803,-1.04243c-0.15444,-0.30433 -0.36792,-0.54279 -0.64044,-0.71539c-0.27253,-0.17714 -0.5814,-0.26572 -0.9266,-0.26572c-0.34975,0 -0.66315,0.08857 -0.94022,0.26572c-0.27707,0.17261 -0.49282,0.41107 -0.64726,0.71539c-0.15444,0.30433 -0.22711,0.6518 -0.21803,1.04243c-0.00908,0.38609 0.06359,0.72901 0.21803,1.0288c0.15444,0.29979 0.37019,0.53825 0.64726,0.71539c0.27707,0.17261 0.59047,0.2589 0.94022,0.2589zM186.86304,168.45835c-0.57232,0 -1.06059,-0.12264 -1.46484,-0.36792c-0.39971,-0.24527 -0.70858,-0.59956 -0.9266,-1.06286c-0.21803,-0.46785 -0.32703,-1.02653 -0.32703,-1.67606v-4.76927h2.33694v4.44905c0,0.30887 0.0477,0.57458 0.14308,0.79715c0.09993,0.22257 0.24528,0.39517 0.43605,0.51781c0.19531,0.12264 0.42924,0.18395 0.70176,0.18395c0.2044,0 0.39063,-0.03406 0.55868,-0.1022c0.16806,-0.06814 0.31341,-0.16124 0.43605,-0.27934c0.12264,-0.12264 0.21576,-0.26345 0.27935,-0.42243c0.06814,-0.16352 0.10219,-0.34066 0.10219,-0.53143v-4.61257h2.34376v7.71941h-2.19386l-0.1022,-1.58067l0.43605,-0.17714c-0.1181,0.36792 -0.31341,0.69495 -0.58594,0.98111c-0.26799,0.28616 -0.59275,0.51326 -0.97429,0.68132c-0.377,0.16806 -0.77672,0.25209 -1.19914,0.25209zM194.19671,168.30165v-9.66119h2.33014v9.66119zM192.83406,162.6194v-2.03716h5.18489v2.03716zM203.99071,168.30165v-10.75131h2.28243v4.60576l-0.4633,0.17033c0.10901,-0.3452 0.29979,-0.66089 0.57232,-0.94704c0.27707,-0.28616 0.60865,-0.51553 0.99473,-0.68814c0.39063,-0.17714 0.79942,-0.26572 1.22639,-0.26572c0.5814,0 1.06968,0.1181 1.46485,0.35429c0.39517,0.23619 0.69495,0.59049 0.89935,1.06287c0.2044,0.46785 0.3066,1.04243 0.3066,1.72375v4.73521h-2.33695v-4.55125c0,-0.30887 -0.04542,-0.56323 -0.13627,-0.76309c-0.0863,-0.2044 -0.2203,-0.35656 -0.40198,-0.45648c-0.17714,-0.10447 -0.39516,-0.15216 -0.65407,-0.14308c-0.2044,0 -0.39517,0.03179 -0.57232,0.09538c-0.17261,0.06359 -0.32249,0.15671 -0.44967,0.27935c-0.12264,0.1181 -0.2203,0.25436 -0.29297,0.40879c-0.07268,0.15444 -0.10901,0.32476 -0.10901,0.51099v4.61938h-1.15144c-0.27253,0 -0.50645,0 -0.70176,0c-0.19077,0 -0.34974,0 -0.47692,0zM216.8572,168.44473c-0.80397,0 -1.51935,-0.1726 -2.14617,-0.51781c-0.62682,-0.34975 -1.12192,-0.8244 -1.48529,-1.42397c-0.35883,-0.60411 -0.53824,-1.29225 -0.53824,-2.06441c0,-0.77671 0.17941,-1.46485 0.53824,-2.06441c0.36337,-0.60411 0.85847,-1.07877 1.48529,-1.42397c0.62682,-0.34975 1.34221,-0.52462 2.14617,-0.52462c0.80397,0 1.51708,0.17487 2.13936,0.52462c0.62682,0.3452 1.11964,0.81986 1.47848,1.42397c0.35883,0.59957 0.53825,1.2877 0.53825,2.06441c0,0.77217 -0.17942,1.46031 -0.53825,2.06441c-0.35883,0.59957 -0.85165,1.07422 -1.47848,1.42397c-0.62228,0.3452 -1.33539,0.51781 -2.13936,0.51781zM216.8572,166.44163c0.3452,0 0.65408,-0.0863 0.9266,-0.2589c0.27253,-0.17714 0.48601,-0.4156 0.64044,-0.71539c0.15444,-0.29979 0.2271,-0.64271 0.21802,-1.0288c0.00908,-0.39062 -0.06358,-0.7381 -0.21802,-1.04243c-0.15444,-0.30433 -0.36792,-0.54279 -0.64044,-0.71539c-0.27253,-0.17714 -0.5814,-0.26572 -0.9266,-0.26572c-0.34975,0 -0.66316,0.08857 -0.94023,0.26572c-0.27707,0.17261 -0.49282,0.41107 -0.64726,0.71539c-0.15444,0.30433 -0.22711,0.6518 -0.21802,1.04243c-0.00908,0.38609 0.06359,0.72901 0.21802,1.0288c0.15444,0.29979 0.37018,0.53825 0.64726,0.71539c0.27707,0.17261 0.59048,0.2589 0.94023,0.2589zM223.93333,168.30165l-2.54135,-7.71941h2.45277l1.42397,5.01455l-0.3066,-0.0545l1.60112,-3.89718h1.36265l1.68968,3.91081l-0.33385,0.02725l1.42397,-5.00092h2.45277l-2.62992,7.71941h-1.71013l-1.67606,-4.14245l0.17715,0.02725l-1.66925,4.1152zM239.00068,168.30165v-7.71941h2.21431l0.06813,1.39672l-0.3066,0.01362c0.1181,-0.24982 0.26572,-0.47012 0.44287,-0.66089c0.18168,-0.19531 0.38608,-0.35883 0.61319,-0.49056c0.22711,-0.13172 0.4633,-0.23164 0.70858,-0.29978c0.24982,-0.06814 0.49964,-0.1022 0.74946,-0.1022c0.38154,0 0.72674,0.05905 1.03562,0.17714c0.30887,0.11355 0.57913,0.29978 0.81078,0.55868c0.23165,0.25436 0.4156,0.59957 0.55187,1.03562l-0.3611,-0.02725l0.11583,-0.23165c0.12718,-0.23165 0.28843,-0.44059 0.48374,-0.62682c0.19986,-0.19077 0.42015,-0.35202 0.66089,-0.48374c0.24527,-0.13172 0.49737,-0.23164 0.75627,-0.29978c0.26344,-0.06814 0.51553,-0.1022 0.75627,-0.1022c0.61319,0 1.12191,0.12036 1.52617,0.3611c0.40879,0.23619 0.71766,0.59275 0.9266,1.06968c0.20894,0.47239 0.31341,1.04697 0.31341,1.72375v4.70795h-2.34376v-4.51718c0,-0.31341 -0.04315,-0.57004 -0.12945,-0.76989c-0.0863,-0.2044 -0.21575,-0.35656 -0.38836,-0.45649c-0.16806,-0.10447 -0.377,-0.15671 -0.62682,-0.15671c-0.2044,0 -0.39289,0.03406 -0.56549,0.1022c-0.16806,0.06814 -0.31341,0.16125 -0.43605,0.27935c-0.1181,0.11355 -0.21121,0.24754 -0.27934,0.40198c-0.06814,0.15444 -0.1022,0.32931 -0.1022,0.52462v4.59213h-2.33695v-4.53081c0,-0.2907 -0.04542,-0.53825 -0.13626,-0.74265c-0.0863,-0.2044 -0.21575,-0.35883 -0.38836,-0.4633c-0.17261,-0.10901 -0.377,-0.16352 -0.61319,-0.16352c-0.19986,0 -0.38608,0.03406 -0.55869,0.1022c-0.16806,0.06814 -0.31341,0.16125 -0.43605,0.27935c-0.1181,0.11355 -0.21121,0.24754 -0.27935,0.40198c-0.06814,0.15444 -0.10219,0.32477 -0.10219,0.511v4.60575zM255.84945,168.4311c-0.64953,0 -1.22866,-0.17033 -1.73739,-0.51099c-0.50871,-0.3452 -0.91523,-0.81986 -1.21956,-1.42397c-0.29979,-0.60865 -0.44968,-1.29451 -0.44968,-2.0576c0,-0.7858 0.14989,-1.47848 0.44968,-2.07805c0.30433,-0.60411 0.71766,-1.07649 1.24,-1.41716c0.52236,-0.3452 1.11739,-0.51781 1.78509,-0.51781c0.36792,0 0.70404,0.05451 1.00836,0.16352c0.30887,0.10447 0.57912,0.25209 0.81077,0.44286c0.23165,0.18623 0.42924,0.40426 0.59276,0.65408c0.16806,0.24527 0.2907,0.50872 0.36792,0.79033l-0.48374,-0.06132v-1.83276h2.30969v7.71941h-2.35057v-1.86001l0.52462,-0.01363c-0.07722,0.27253 -0.2044,0.52917 -0.38154,0.7699c-0.17261,0.24074 -0.38609,0.45422 -0.64045,0.64044c-0.24982,0.18168 -0.53143,0.32704 -0.84484,0.43605c-0.30887,0.10447 -0.6359,0.1567 -0.98111,0.1567zM256.48308,166.46888c0.35883,0 0.6677,-0.08175 0.9266,-0.24527c0.26345,-0.16352 0.46785,-0.39744 0.6132,-0.70176c0.14535,-0.30887 0.21802,-0.66997 0.21802,-1.0833c0,-0.41788 -0.07267,-0.77899 -0.21802,-1.08331c-0.14535,-0.30433 -0.34975,-0.54051 -0.6132,-0.70857c-0.2589,-0.17261 -0.56777,-0.2589 -0.9266,-0.2589c-0.3452,0 -0.64726,0.0863 -0.90616,0.2589c-0.25436,0.16806 -0.45422,0.40425 -0.59957,0.70857c-0.14535,0.30433 -0.21802,0.66543 -0.21802,1.08331c0,0.41333 0.07267,0.77443 0.21802,1.0833c0.14535,0.30433 0.34521,0.53824 0.59957,0.70176c0.2589,0.16352 0.56096,0.24527 0.90616,0.24527zM262.5717,168.30165v-7.71941h2.21431l0.06813,1.57386l-0.4633,0.17033c0.10901,-0.3452 0.29979,-0.66089 0.57232,-0.94704c0.27707,-0.28616 0.60865,-0.51553 0.99473,-0.68814c0.39063,-0.17714 0.79942,-0.26572 1.22639,-0.26572c0.5814,0 1.06968,0.1181 1.46485,0.35429c0.39517,0.23619 0.69494,0.59049 0.89935,1.06287c0.2044,0.46785 0.3066,1.04243 0.3066,1.72375v4.73521h-2.33695v-4.55125c0,-0.30887 -0.04542,-0.56323 -0.13626,-0.76309c-0.0863,-0.2044 -0.2203,-0.35656 -0.40199,-0.45648c-0.17714,-0.10447 -0.39517,-0.15216 -0.65407,-0.14308c-0.2044,0 -0.39517,0.03179 -0.57232,0.09538c-0.17261,0.06359 -0.3225,0.15671 -0.44968,0.27935c-0.12264,0.1181 -0.22029,0.25436 -0.29297,0.40879c-0.07268,0.15444 -0.10901,0.32476 -0.10901,0.51099v4.61938h-1.15144c-0.27253,0 -0.50646,0 -0.70177,0c-0.19077,0 -0.34975,0 -0.47693,0zM272.70155,171.64696l1.75782,-4.14246l0.03406,1.19232l-3.72003,-8.11458h2.62991l1.62837,3.88355c0.0863,0.19531 0.16806,0.40426 0.24528,0.62682c0.07722,0.22257 0.13399,0.43377 0.17033,0.63363l-0.31341,0.19078c0.05451,-0.14535 0.1181,-0.32703 0.19077,-0.54506c0.07268,-0.21803 0.15444,-0.45194 0.24528,-0.70176l1.42396,-4.08795h2.64355l-3.28399,7.71941l-1.34221,3.34531zM288.31081,168.45835c-0.6677,0 -1.26046,-0.17033 -1.77826,-0.511c-0.51781,-0.3452 -0.9266,-0.81985 -1.22639,-1.42396c-0.29978,-0.60865 -0.44967,-1.29906 -0.44967,-2.07123c0,-0.77671 0.14989,-1.46712 0.44967,-2.07123c0.29979,-0.60865 0.71085,-1.08558 1.2332,-1.43078c0.52235,-0.34975 1.12192,-0.52462 1.7987,-0.52462c0.34975,0 0.68359,0.05451 1.00154,0.16352c0.3225,0.10447 0.61319,0.24982 0.8721,0.43605c0.26344,0.18168 0.47692,0.39063 0.64044,0.62682c0.16806,0.23619 0.26571,0.48147 0.29297,0.73583l-0.55187,0.12945v-4.96686h2.33695v10.75131h-2.1598l-0.13626,-1.75781l0.47011,0.07495c-0.03179,0.24074 -0.12718,0.47239 -0.28616,0.69495c-0.15897,0.22257 -0.36564,0.42015 -0.62,0.59275c-0.24982,0.16806 -0.53825,0.30205 -0.86528,0.40198c-0.3225,0.09993 -0.66315,0.14989 -1.02198,0.14989zM288.91038,166.5302c0.35883,0 0.6677,-0.08629 0.9266,-0.2589c0.26344,-0.17714 0.46557,-0.42015 0.60637,-0.72902c0.14081,-0.31341 0.21122,-0.67679 0.21122,-1.09012c0,-0.42696 -0.07041,-0.79487 -0.21122,-1.10375c-0.14081,-0.31341 -0.34293,-0.55641 -0.60637,-0.72902c-0.25891,-0.17261 -0.56777,-0.2589 -0.9266,-0.2589c-0.35883,0 -0.66769,0.0863 -0.9266,0.2589c-0.25436,0.17261 -0.45422,0.41561 -0.59957,0.72902c-0.14535,0.30887 -0.21802,0.67678 -0.21802,1.10375c0,0.41333 0.07267,0.77671 0.21802,1.09012c0.14535,0.30887 0.34521,0.55187 0.59957,0.72902c0.25891,0.17261 0.56777,0.2589 0.9266,0.2589zM295.02854,168.30165v-7.71941h2.32332v7.71941zM296.18679,159.05607c-0.43605,0 -0.77671,-0.10219 -1.02199,-0.30659c-0.24527,-0.20894 -0.36792,-0.50872 -0.36792,-0.89935c0,-0.3452 0.12491,-0.62909 0.37473,-0.85166c0.24982,-0.22711 0.58821,-0.34067 1.01517,-0.34067c0.43605,0 0.77444,0.10447 1.01517,0.31341c0.24527,0.20894 0.36792,0.50191 0.36792,0.87891c0,0.35883 -0.12491,0.64953 -0.37473,0.8721c-0.24527,0.22257 -0.5814,0.33385 -1.00836,0.33385zM303.06427,171.64696c-0.63136,0 -1.26045,-0.09312 -1.88727,-0.27935c-0.62228,-0.18168 -1.12646,-0.41788 -1.51254,-0.70858l0.81078,-1.62837c0.2044,0.13627 0.42924,0.25436 0.67452,0.35429c0.24982,0.09993 0.50872,0.17942 0.77671,0.23846c0.27253,0.05904 0.5496,0.08857 0.83121,0.08857c0.49509,0 0.89708,-0.07267 1.20595,-0.21802c0.30887,-0.14535 0.54052,-0.36565 0.69496,-0.66089c0.15897,-0.29524 0.23846,-0.66542 0.23846,-1.11056v-1.29452l0.44968,0.07495c-0.06813,0.31795 -0.23619,0.60865 -0.50418,0.8721c-0.26799,0.2589 -0.59502,0.46784 -0.9811,0.62682c-0.38608,0.15897 -0.79715,0.23846 -1.2332,0.23846c-0.6995,0 -1.32405,-0.16124 -1.87365,-0.48374c-0.54506,-0.3225 -0.9743,-0.77217 -1.28771,-1.34902c-0.31341,-0.57685 -0.47011,-1.24456 -0.47011,-2.0031c0,-0.77217 0.15444,-1.45576 0.4633,-2.05078c0.30887,-0.59957 0.73356,-1.06968 1.27408,-1.41035c0.54506,-0.3452 1.15598,-0.51781 1.83276,-0.51781c0.2907,0 0.57004,0.03406 0.83803,0.1022c0.26799,0.06814 0.51553,0.15897 0.74264,0.27253c0.22711,0.10901 0.42924,0.23846 0.60638,0.38835c0.18169,0.14989 0.32704,0.31341 0.43605,0.49056c0.11356,0.17261 0.1885,0.34975 0.22484,0.53144l-0.47693,0.11583l0.08857,-1.74419h2.20749v7.09259c0,0.63136 -0.09538,1.19004 -0.28616,1.67606c-0.18623,0.49056 -0.46103,0.90843 -0.8244,1.25364c-0.36338,0.3452 -0.80169,0.60411 -1.31496,0.77671c-0.51326,0.17714 -1.09466,0.26572 -1.74419,0.26572zM303.11878,166.44163c0.377,0 0.70403,-0.08403 0.9811,-0.25209c0.27707,-0.17261 0.49055,-0.40879 0.64044,-0.70858c0.14989,-0.29979 0.22484,-0.65407 0.22484,-1.06286c0,-0.40426 -0.07495,-0.75854 -0.22484,-1.06287c-0.14989,-0.30433 -0.36338,-0.54051 -0.64044,-0.70857c-0.27707,-0.17261 -0.60411,-0.2589 -0.9811,-0.2589c-0.36792,0 -0.68814,0.0863 -0.96067,0.2589c-0.26799,0.16806 -0.47693,0.40425 -0.62682,0.70857c-0.14989,0.30433 -0.22483,0.65861 -0.22483,1.06287c0,0.40879 0.07494,0.76308 0.22483,1.06286c0.14989,0.29979 0.35883,0.53598 0.62682,0.70858c0.27253,0.16806 0.59276,0.25209 0.96067,0.25209zM309.38678,168.30165v-7.71941h2.32332v7.71941zM310.54503,159.05607c-0.43605,0 -0.77671,-0.10219 -1.02199,-0.30659c-0.24527,-0.20894 -0.36792,-0.50872 -0.36792,-0.89935c0,-0.3452 0.12491,-0.62909 0.37473,-0.85166c0.24982,-0.22711 0.58821,-0.34067 1.01517,-0.34067c0.43605,0 0.77444,0.10447 1.01517,0.31341c0.24527,0.20894 0.36792,0.50191 0.36792,0.87891c0,0.35883 -0.12491,0.64953 -0.37473,0.8721c-0.24527,0.22257 -0.5814,0.33385 -1.00836,0.33385zM314.52687,168.30165v-9.66119h2.33013v9.66119zM313.16422,162.6194v-2.03716h5.18489v2.03716zM322.5638,168.44473c-0.754,0 -1.41943,-0.12037 -1.99629,-0.36111c-0.57686,-0.24074 -1.03561,-0.5655 -1.37627,-0.9743l1.41034,-1.21957c0.29978,0.29979 0.63817,0.52008 1.01517,0.66089c0.38154,0.14081 0.74037,0.21121 1.0765,0.21121c0.13626,0 0.25663,-0.01362 0.3611,-0.04088c0.10901,-0.03179 0.19985,-0.07267 0.27253,-0.12264c0.07268,-0.05451 0.12718,-0.11809 0.16352,-0.19077c0.04088,-0.07268 0.06132,-0.15898 0.06132,-0.2589c0,-0.19077 -0.0863,-0.34067 -0.25891,-0.44968c-0.0863,-0.04542 -0.23164,-0.10219 -0.43605,-0.17033c-0.2044,-0.06814 -0.46557,-0.14762 -0.78352,-0.23846c-0.45876,-0.11355 -0.8562,-0.24982 -1.19232,-0.40879c-0.33158,-0.16352 -0.60411,-0.34974 -0.81759,-0.55868c-0.19077,-0.2044 -0.34067,-0.42924 -0.44968,-0.67452c-0.10447,-0.24982 -0.1567,-0.52916 -0.1567,-0.83803c0,-0.35883 0.08403,-0.68359 0.25209,-0.97429c0.16806,-0.2907 0.39517,-0.54279 0.68133,-0.75627c0.28616,-0.21348 0.61547,-0.37473 0.98792,-0.48374c0.377,-0.11355 0.76309,-0.17033 1.15826,-0.17033c0.42696,0 0.83348,0.04996 1.21957,0.14989c0.38608,0.09538 0.74719,0.22938 1.08331,0.40198c0.33612,0.17261 0.63363,0.38155 0.89253,0.62682l-1.21957,1.36265c-0.1726,-0.16352 -0.36791,-0.31114 -0.58594,-0.44286c-0.21803,-0.13172 -0.44514,-0.23619 -0.68133,-0.31341c-0.23165,-0.07722 -0.44287,-0.11583 -0.63364,-0.11583c-0.14535,0 -0.2748,0.01362 -0.38836,0.04088c-0.10901,0.02271 -0.20439,0.06132 -0.28616,0.11583c-0.07722,0.04996 -0.13626,0.11128 -0.17714,0.18395c-0.03634,0.07268 -0.0545,0.15898 -0.0545,0.2589c0,0.09538 0.02725,0.18623 0.08176,0.27253c0.0545,0.0863 0.12945,0.15898 0.22484,0.21802c0.09992,0.05904 0.25436,0.12491 0.4633,0.19759c0.21348,0.07268 0.50418,0.16125 0.87209,0.26572c0.45876,0.12718 0.85166,0.26799 1.1787,0.42242c0.33158,0.15444 0.59276,0.33839 0.78352,0.55187c0.15898,0.16806 0.27706,0.3611 0.35429,0.57913c0.07722,0.21803 0.11582,0.45194 0.11582,0.70176c0,0.49509 -0.13853,0.93342 -0.4156,1.31496c-0.27707,0.38154 -0.65861,0.68132 -1.14463,0.89935c-0.48147,0.21803 -1.03334,0.32704 -1.65562,0.32704z" fill="#000000" stroke="none" stroke-width="1" stroke-linecap="square"/><path d="M187.60306,185.88665c-0.80397,0 -1.51935,-0.1726 -2.14617,-0.5178c-0.62682,-0.34975 -1.12192,-0.82441 -1.48529,-1.42397c-0.35883,-0.60411 -0.53825,-1.29225 -0.53825,-2.06441c0,-0.77671 0.17942,-1.46485 0.53825,-2.06441c0.36337,-0.60411 0.85847,-1.07877 1.48529,-1.42397c0.62682,-0.34975 1.34221,-0.52462 2.14617,-0.52462c0.80397,0 1.51708,0.17487 2.13936,0.52462c0.62682,0.3452 1.11964,0.81986 1.47847,1.42397c0.35883,0.59957 0.53825,1.2877 0.53825,2.06441c0,0.77217 -0.17942,1.46031 -0.53825,2.06441c-0.35883,0.59957 -0.85165,1.07422 -1.47847,1.42397c-0.62228,0.3452 -1.3354,0.5178 -2.13936,0.5178zM187.60306,183.88355c0.3452,0 0.65407,-0.0863 0.9266,-0.2589c0.27253,-0.17714 0.48601,-0.4156 0.64044,-0.71539c0.15444,-0.29979 0.22711,-0.64272 0.21802,-1.0288c0.00908,-0.39062 -0.06359,-0.7381 -0.21802,-1.04243c-0.15444,-0.30433 -0.36792,-0.54278 -0.64044,-0.71539c-0.27253,-0.17714 -0.5814,-0.26572 -0.9266,-0.26572c-0.34975,0 -0.66316,0.08857 -0.94023,0.26572c-0.27707,0.17261 -0.49282,0.41106 -0.64726,0.71539c-0.15444,0.30433 -0.22711,0.6518 -0.21803,1.04243c-0.00908,0.38609 0.06359,0.72902 0.21803,1.0288c0.15444,0.29979 0.37019,0.53824 0.64726,0.71539c0.27707,0.17261 0.59048,0.2589 0.94023,0.2589zM193.47324,185.74357v-8.09415c0,-0.50418 0.10901,-0.95839 0.32703,-1.36265c0.21803,-0.40879 0.52235,-0.73129 0.91298,-0.96748c0.39517,-0.24074 0.85393,-0.3611 1.37627,-0.3611c0.36792,0 0.7063,0.05451 1.01517,0.16352c0.30887,0.10447 0.58595,0.25437 0.83122,0.44968l-0.6677,1.6965c-0.12718,-0.06359 -0.24982,-0.11583 -0.36792,-0.15671c-0.11355,-0.04088 -0.2203,-0.06132 -0.32022,-0.06132c-0.17261,0 -0.31795,0.02953 -0.43605,0.08857c-0.11355,0.05904 -0.19758,0.14989 -0.25209,0.27253c-0.05451,0.1181 -0.08176,0.26572 -0.08176,0.44287v7.88975h-1.15825c-0.26344,0 -0.49509,0 -0.69495,0c-0.19531,0 -0.35656,0 -0.48374,0zM192.35586,180.16352v-1.92133h5.0418v1.92133zM203.60336,185.74357v-10.17219h4.38773c0.64044,0 1.20822,0.14535 1.70331,0.43605c0.49964,0.2907 0.89708,0.68814 1.19232,1.19232c0.29524,0.50418 0.44286,1.06968 0.44286,1.6965c0,0.65861 -0.14762,1.2491 -0.44286,1.77145c-0.29524,0.51781 -0.69268,0.9266 -1.19232,1.22639c-0.49509,0.29979 -1.06287,0.44967 -1.70331,0.44967h-1.92134v3.39982zM206.02887,180.17714h1.61474c0.21348,0 0.40652,-0.05223 0.57913,-0.1567c0.17261,-0.10901 0.31114,-0.25436 0.4156,-0.43605c0.10901,-0.18623 0.16352,-0.39971 0.16352,-0.64044c0,-0.25436 -0.05451,-0.46784 -0.16352,-0.64045c-0.10447,-0.17261 -0.243,-0.3066 -0.4156,-0.40198c-0.17261,-0.09993 -0.36565,-0.14989 -0.57913,-0.14989h-1.61474zM213.10813,185.74357v-7.71942h2.32332v7.71942zM214.26639,176.49799c-0.43605,0 -0.77671,-0.1022 -1.02199,-0.3066c-0.24527,-0.20894 -0.36792,-0.50872 -0.36792,-0.89935c0,-0.3452 0.12491,-0.62909 0.37473,-0.85165c0.24982,-0.22711 0.58821,-0.34067 1.01517,-0.34067c0.43605,0 0.77444,0.10447 1.01517,0.31341c0.24527,0.20894 0.36792,0.50191 0.36792,0.87891c0,0.35883 -0.12491,0.64953 -0.37473,0.8721c-0.24527,0.22257 -0.5814,0.33385 -1.00836,0.33385zM222.25822,185.74357v-10.75132h2.28244v4.60576l-0.4633,0.17033c0.10901,-0.3452 0.29979,-0.66088 0.57232,-0.94704c0.27707,-0.28616 0.60864,-0.51553 0.99473,-0.68814c0.39063,-0.17714 0.79942,-0.26572 1.22639,-0.26572c0.5814,0 1.06967,0.1181 1.46484,0.35429c0.39517,0.23619 0.69495,0.59048 0.89935,1.06287c0.2044,0.46785 0.30659,1.04243 0.30659,1.72375v4.73521h-2.33695v-4.55126c0,-0.30887 -0.04542,-0.56323 -0.13626,-0.76308c-0.0863,-0.2044 -0.2203,-0.35656 -0.40198,-0.45648c-0.17714,-0.10447 -0.39516,-0.15216 -0.65407,-0.14308c-0.2044,0 -0.39517,0.03179 -0.57232,0.09538c-0.17261,0.06359 -0.3225,0.15671 -0.44968,0.27935c-0.12264,0.1181 -0.22029,0.25436 -0.29297,0.40879c-0.07268,0.15444 -0.10901,0.32476 -0.10901,0.51099v4.61939h-1.15144c-0.27253,0 -0.50645,0 -0.70176,0c-0.19077,0 -0.34975,0 -0.47693,0zM234.34121,185.87302c-0.64953,0 -1.22866,-0.17033 -1.73738,-0.511c-0.50872,-0.3452 -0.91525,-0.81986 -1.21957,-1.42397c-0.29979,-0.60865 -0.44967,-1.29452 -0.44967,-2.0576c0,-0.7858 0.14989,-1.47848 0.44967,-2.07805c0.30433,-0.60411 0.71767,-1.07649 1.24001,-1.41715c0.52235,-0.3452 1.11737,-0.51781 1.78507,-0.51781c0.36792,0 0.70404,0.0545 1.00836,0.16351c0.30887,0.10447 0.57913,0.2521 0.81078,0.44287c0.23165,0.18623 0.42923,0.40425 0.59275,0.65407c0.16806,0.24527 0.29069,0.50873 0.36792,0.79034l-0.48374,-0.06132v-1.83277h2.3097v7.71942h-2.35057v-1.86002l0.52462,-0.01362c-0.07722,0.27253 -0.2044,0.52916 -0.38154,0.76989c-0.17261,0.24074 -0.38609,0.45422 -0.64044,0.64044c-0.24982,0.18168 -0.53144,0.32704 -0.84485,0.43605c-0.30887,0.10447 -0.6359,0.15671 -0.9811,0.15671zM234.97484,183.91081c0.35883,0 0.6677,-0.08176 0.92661,-0.24528c0.26344,-0.16352 0.46784,-0.39744 0.61319,-0.70177c0.14535,-0.30887 0.21803,-0.66997 0.21803,-1.0833c0,-0.41788 -0.07268,-0.77898 -0.21803,-1.08331c-0.14535,-0.30433 -0.34974,-0.54051 -0.61319,-0.70857c-0.2589,-0.17261 -0.56778,-0.2589 -0.92661,-0.2589c-0.3452,0 -0.64726,0.0863 -0.90616,0.2589c-0.25436,0.16806 -0.45422,0.40425 -0.59957,0.70857c-0.14535,0.30433 -0.21802,0.66543 -0.21802,1.08331c0,0.41333 0.07267,0.77443 0.21802,1.0833c0.14535,0.30433 0.34521,0.53825 0.59957,0.70177c0.2589,0.16352 0.56096,0.24528 0.90616,0.24528zM243.26006,185.74357l-3.22267,-7.71942h2.56859l1.92134,5.77083l-0.5655,0.06132l1.97584,-5.83214h2.54135l-3.38619,7.71942zM253.14241,185.88665c-0.85393,0 -1.59657,-0.17033 -2.22793,-0.511c-0.62682,-0.3452 -1.1151,-0.81531 -1.46485,-1.41034c-0.3452,-0.59502 -0.51781,-1.27635 -0.51781,-2.04397c0,-0.59048 0.09539,-1.13328 0.28616,-1.62837c0.19531,-0.49509 0.46557,-0.92433 0.81078,-1.2877c0.34975,-0.36337 0.76535,-0.64272 1.24683,-0.83803c0.48147,-0.19986 1.00609,-0.29978 1.57386,-0.29978c0.54506,0 1.04243,0.09766 1.49212,0.29297c0.44968,0.19077 0.83803,0.46103 1.16506,0.81078c0.33158,0.34975 0.58367,0.76308 0.75627,1.24001c0.17714,0.47239 0.25663,0.99019 0.23846,1.55342l-0.01362,0.62001h-6.15238l-0.33385,-1.30814h4.59215l-0.24528,0.27934v-0.29297c-0.01817,-0.24074 -0.09312,-0.45422 -0.22485,-0.64044c-0.13172,-0.19077 -0.30433,-0.33839 -0.51781,-0.44286c-0.21348,-0.10901 -0.45422,-0.16352 -0.72221,-0.16352c-0.377,0 -0.69949,0.07495 -0.96748,0.22484c-0.26799,0.14989 -0.47011,0.36792 -0.60638,0.65408c-0.13627,0.28616 -0.2044,0.63591 -0.2044,1.04924c0,0.42696 0.08857,0.79942 0.26572,1.11737c0.18168,0.31341 0.44513,0.55869 0.79033,0.73584c0.3452,0.17261 0.75401,0.2589 1.22639,0.2589c0.33158,0 0.62455,-0.04769 0.87892,-0.14307c0.2589,-0.09993 0.53824,-0.26572 0.83803,-0.49737l1.09012,1.53979c-0.29979,0.26344 -0.62,0.47692 -0.96067,0.64044c-0.33612,0.16352 -0.68132,0.28616 -1.03561,0.36792c-0.3543,0.08176 -0.70632,0.12264 -1.05607,0.12264zM267.26965,185.90027c-0.34975,0 -0.68587,-0.04769 -1.00836,-0.14308c-0.31795,-0.09538 -0.60637,-0.22483 -0.86528,-0.38835c-0.25436,-0.16806 -0.46558,-0.36111 -0.63364,-0.57913c-0.16806,-0.21803 -0.28161,-0.44286 -0.34066,-0.67451l0.50418,-0.17033l-0.12946,1.78507h-2.16661v-10.73768h2.34376v4.87829l-0.48374,-0.17033c0.05904,-0.25436 0.17033,-0.49055 0.33385,-0.70858c0.16806,-0.21803 0.377,-0.41107 0.62682,-0.57913c0.25436,-0.16806 0.53143,-0.29979 0.83122,-0.39517c0.29979,-0.09993 0.60865,-0.14989 0.9266,-0.14989c0.67224,0 1.26727,0.1726 1.78508,0.51781c0.5178,0.34067 0.9266,0.81532 1.22638,1.42397c0.29979,0.60411 0.44968,1.29452 0.44968,2.07123c0,0.78125 -0.14762,1.4762 -0.44286,2.08486c-0.29524,0.60411 -0.6995,1.07877 -1.21276,1.42397c-0.51326,0.34067 -1.09466,0.51099 -1.74419,0.51099zM266.65646,183.94487c0.34975,0 0.65407,-0.0863 0.91297,-0.2589c0.26345,-0.17714 0.46557,-0.41788 0.60638,-0.72221c0.14081,-0.30887 0.21121,-0.66997 0.21121,-1.0833c0,-0.40879 -0.07041,-0.76762 -0.21121,-1.07649c-0.14081,-0.30887 -0.34293,-0.54506 -0.60638,-0.70858c-0.25891,-0.16806 -0.56322,-0.25209 -0.91297,-0.25209c-0.35883,0 -0.66997,0.08403 -0.93341,0.25209c-0.25891,0.16352 -0.46103,0.39971 -0.60638,0.70858c-0.14535,0.30887 -0.21803,0.6677 -0.21803,1.07649c0,0.41333 0.07268,0.77443 0.21803,1.0833c0.14535,0.30433 0.34748,0.54506 0.60638,0.72221c0.26344,0.17261 0.57458,0.2589 0.93341,0.2589zM275.87146,185.88665c-0.85393,0 -1.59657,-0.17033 -2.22793,-0.511c-0.62682,-0.3452 -1.1151,-0.81531 -1.46485,-1.41034c-0.3452,-0.59502 -0.51781,-1.27635 -0.51781,-2.04397c0,-0.59048 0.09539,-1.13328 0.28616,-1.62837c0.19531,-0.49509 0.46557,-0.92433 0.81077,-1.2877c0.34975,-0.36337 0.76535,-0.64272 1.24683,-0.83803c0.48147,-0.19986 1.00609,-0.29978 1.57386,-0.29978c0.54506,0 1.04243,0.09766 1.49211,0.29297c0.44967,0.19077 0.83803,0.46103 1.16507,0.81078c0.33158,0.34975 0.58366,0.76308 0.75627,1.24001c0.17714,0.47239 0.25663,0.99019 0.23847,1.55342l-0.01363,0.62001h-6.15237l-0.33385,-1.30814h4.59213l-0.24528,0.27934v-0.29297c-0.01817,-0.24074 -0.09311,-0.45422 -0.22483,-0.64044c-0.13173,-0.19077 -0.30433,-0.33839 -0.51781,-0.44286c-0.21348,-0.10901 -0.45421,-0.16352 -0.7222,-0.16352c-0.377,0 -0.69949,0.07495 -0.96748,0.22484c-0.26799,0.14989 -0.47012,0.36792 -0.60638,0.65408c-0.13626,0.28616 -0.20439,0.63591 -0.20439,1.04924c0,0.42696 0.08857,0.79942 0.26572,1.11737c0.18169,0.31341 0.44514,0.55869 0.79034,0.73584c0.34521,0.17261 0.754,0.2589 1.22639,0.2589c0.33158,0 0.62454,-0.04769 0.8789,-0.14307c0.25891,-0.09993 0.53825,-0.26572 0.83803,-0.49737l1.09013,1.53979c-0.29979,0.26344 -0.62,0.47692 -0.96067,0.64044c-0.33612,0.16352 -0.68133,0.28616 -1.03562,0.36792c-0.35429,0.08176 -0.70631,0.12264 -1.05606,0.12264zM284.3876,185.88665c-0.85393,0 -1.59658,-0.17033 -2.22794,-0.511c-0.62682,-0.3452 -1.11509,-0.81531 -1.46484,-1.41034c-0.34521,-0.59502 -0.51781,-1.27635 -0.51781,-2.04397c0,-0.59048 0.09539,-1.13328 0.28616,-1.62837c0.19531,-0.49509 0.46557,-0.92433 0.81078,-1.2877c0.34975,-0.36337 0.76535,-0.64272 1.24682,-0.83803c0.48147,-0.19986 1.00609,-0.29978 1.57386,-0.29978c0.54506,0 1.04242,0.09766 1.4921,0.29297c0.44968,0.19077 0.83803,0.46103 1.16507,0.81078c0.33158,0.34975 0.58366,0.76308 0.75627,1.24001c0.17714,0.47239 0.25664,0.99019 0.23847,1.55342l-0.01363,0.62001h-6.15236l-0.33385,-1.30814h4.59213l-0.24528,0.27934v-0.29297c-0.01817,-0.24074 -0.09311,-0.45422 -0.22484,-0.64044c-0.13172,-0.19077 -0.30432,-0.33839 -0.51781,-0.44286c-0.21348,-0.10901 -0.45421,-0.16352 -0.72221,-0.16352c-0.377,0 -0.69949,0.07495 -0.96748,0.22484c-0.26799,0.14989 -0.47011,0.36792 -0.60638,0.65408c-0.13626,0.28616 -0.20439,0.63591 -0.20439,1.04924c0,0.42696 0.08857,0.79942 0.26572,1.11737c0.18169,0.31341 0.44513,0.55869 0.79033,0.73584c0.34521,0.17261 0.754,0.2589 1.22639,0.2589c0.33158,0 0.62455,-0.04769 0.87891,-0.14307c0.25891,-0.09993 0.53824,-0.26572 0.83803,-0.49737l1.09012,1.53979c-0.29978,0.26344 -0.62,0.47692 -0.96066,0.64044c-0.33612,0.16352 -0.68133,0.28616 -1.03562,0.36792c-0.35429,0.08176 -0.70631,0.12264 -1.05606,0.12264zM289.22456,185.74357v-7.71942h2.2143l0.06813,1.57386l-0.4633,0.17033c0.10901,-0.3452 0.29978,-0.66088 0.57231,-0.94704c0.27707,-0.28616 0.60865,-0.51553 0.99473,-0.68814c0.39063,-0.17714 0.79942,-0.26572 1.22639,-0.26572c0.5814,0 1.06968,0.1181 1.46485,0.35429c0.39517,0.23619 0.69495,0.59048 0.89935,1.06287c0.2044,0.46785 0.3066,1.04243 0.3066,1.72375v4.73521h-2.33695v-4.55126c0,-0.30887 -0.04542,-0.56323 -0.13626,-0.76308c-0.0863,-0.2044 -0.22029,-0.35656 -0.40198,-0.45648c-0.17714,-0.10447 -0.39517,-0.15216 -0.65408,-0.14308c-0.2044,0 -0.39517,0.03179 -0.57231,0.09538c-0.1726,0.06359 -0.3225,0.15671 -0.44967,0.27935c-0.12264,0.1181 -0.22029,0.25436 -0.29297,0.40879c-0.07268,0.15444 -0.10901,0.32476 -0.10901,0.51099v4.61939h-1.15144c-0.27253,0 -0.50645,0 -0.70176,0c-0.19077,0 -0.34974,0 -0.47693,0z" fill="#000000" stroke="none" stroke-width="1" stroke-linecap="square"/><path d="M200.35943,203.3422c-0.6677,0 -1.26045,-0.17033 -1.77826,-0.511c-0.51781,-0.3452 -0.9266,-0.81986 -1.22638,-1.42397c-0.29979,-0.60865 -0.44968,-1.29906 -0.44968,-2.07122c0,-0.77671 0.14989,-1.46712 0.44968,-2.07123c0.29979,-0.60865 0.71085,-1.08558 1.23319,-1.43078c0.52235,-0.34975 1.12192,-0.52462 1.7987,-0.52462c0.34975,0 0.6836,0.05451 1.00155,0.16352c0.3225,0.10447 0.61319,0.24982 0.8721,0.43605c0.26344,0.18168 0.47692,0.39063 0.64044,0.62682c0.16806,0.23619 0.26572,0.48147 0.29297,0.73583l-0.55187,0.12945v-4.96686h2.33694v10.75131h-2.1598l-0.13627,-1.75782l0.47011,0.07495c-0.03179,0.24074 -0.12718,0.47239 -0.28615,0.69495c-0.15897,0.22257 -0.36565,0.42014 -0.62001,0.59275c-0.24982,0.16806 -0.53825,0.30206 -0.86529,0.40199c-0.3225,0.09993 -0.66316,0.14989 -1.02199,0.14989zM200.959,201.41405c0.35883,0 0.6677,-0.0863 0.9266,-0.2589c0.26344,-0.17714 0.46558,-0.42014 0.60638,-0.72902c0.14081,-0.31341 0.21121,-0.67678 0.21121,-1.09012c0,-0.42696 -0.0704,-0.79488 -0.21121,-1.10375c-0.14081,-0.31341 -0.34294,-0.55641 -0.60638,-0.72901c-0.2589,-0.17261 -0.56777,-0.2589 -0.9266,-0.2589c-0.35883,0 -0.6677,0.0863 -0.9266,0.2589c-0.25436,0.17261 -0.45422,0.4156 -0.59957,0.72901c-0.14535,0.30887 -0.21802,0.67679 -0.21802,1.10375c0,0.41333 0.07267,0.77671 0.21802,1.09012c0.14535,0.30887 0.34521,0.55187 0.59957,0.72902c0.2589,0.17261 0.56777,0.2589 0.9266,0.2589zM207.07714,203.18549v-7.71941h2.32332v7.71941zM208.2354,193.93991c-0.43605,0 -0.77671,-0.1022 -1.02199,-0.3066c-0.24527,-0.20894 -0.36792,-0.50872 -0.36792,-0.89935c0,-0.3452 0.12491,-0.62909 0.37473,-0.85166c0.24982,-0.22711 0.58821,-0.34066 1.01517,-0.34066c0.43605,0 0.77444,0.10447 1.01518,0.31341c0.24527,0.20894 0.36791,0.50191 0.36791,0.87891c0,0.35883 -0.12491,0.64953 -0.37473,0.8721c-0.24527,0.22257 -0.5814,0.33385 -1.00836,0.33385zM214.17946,203.32857c-0.754,0 -1.41943,-0.12037 -1.99629,-0.3611c-0.57685,-0.24074 -1.03561,-0.5655 -1.37627,-0.9743l1.41034,-1.21957c0.29979,0.29979 0.63817,0.52008 1.01517,0.66089c0.38154,0.14081 0.74037,0.21121 1.07649,0.21121c0.13627,0 0.25664,-0.01362 0.36111,-0.04088c0.10901,-0.03179 0.19985,-0.07267 0.27253,-0.12264c0.07268,-0.05451 0.12718,-0.1181 0.16352,-0.19078c0.04088,-0.07268 0.06132,-0.15897 0.06132,-0.2589c0,-0.19077 -0.0863,-0.34066 -0.2589,-0.44967c-0.0863,-0.04542 -0.23165,-0.10219 -0.43605,-0.17033c-0.2044,-0.06814 -0.46558,-0.14762 -0.78352,-0.23846c-0.45876,-0.11355 -0.8562,-0.24982 -1.19232,-0.40879c-0.33158,-0.16352 -0.60411,-0.34975 -0.81759,-0.55869c-0.19077,-0.2044 -0.34066,-0.42924 -0.44967,-0.67451c-0.10447,-0.24982 -0.1567,-0.52916 -0.1567,-0.83803c0,-0.35883 0.08403,-0.6836 0.25209,-0.9743c0.16806,-0.2907 0.39517,-0.54279 0.68133,-0.75627c0.28616,-0.21348 0.61547,-0.37473 0.98792,-0.48374c0.377,-0.11355 0.76308,-0.17033 1.15825,-0.17033c0.42696,0 0.83349,0.04997 1.21957,0.14989c0.38609,0.09538 0.74719,0.22938 1.0833,0.40198c0.33612,0.17261 0.63363,0.38155 0.89254,0.62682l-1.21957,1.36265c-0.17261,-0.16352 -0.36791,-0.31114 -0.58594,-0.44286c-0.21803,-0.13172 -0.44514,-0.23619 -0.68133,-0.31341c-0.23165,-0.07722 -0.44287,-0.11582 -0.63363,-0.11582c-0.14535,0 -0.2748,0.01362 -0.38835,0.04088c-0.10901,0.02271 -0.2044,0.06132 -0.28616,0.11583c-0.07722,0.04996 -0.13627,0.11128 -0.17714,0.18395c-0.03634,0.07268 -0.05451,0.15898 -0.05451,0.2589c0,0.09538 0.02725,0.18623 0.08176,0.27253c0.05451,0.0863 0.12945,0.15898 0.22484,0.21803c0.09993,0.05904 0.25436,0.12491 0.4633,0.19759c0.21348,0.07268 0.50419,0.16125 0.8721,0.26572c0.45876,0.12718 0.85165,0.26798 1.17869,0.42242c0.33158,0.15444 0.59276,0.33839 0.78352,0.55188c0.15897,0.16806 0.27707,0.3611 0.35429,0.57912c0.07722,0.21803 0.11583,0.45195 0.11583,0.70177c0,0.49509 -0.13854,0.93342 -0.41561,1.31496c-0.27707,0.38154 -0.65861,0.68132 -1.14462,0.89935c-0.48147,0.21803 -1.03334,0.32703 -1.65562,0.32703zM222.15665,203.32857c-0.74491,0 -1.41262,-0.17261 -2.0031,-0.51781c-0.59048,-0.34975 -1.05832,-0.82667 -1.40353,-1.43078c-0.34067,-0.60865 -0.51099,-1.29452 -0.51099,-2.0576c0,-0.76763 0.17032,-1.45349 0.51099,-2.0576c0.3452,-0.60865 0.81305,-1.08558 1.40353,-1.43078c0.59048,-0.34975 1.25819,-0.52462 2.0031,-0.52462c0.69041,0 1.32404,0.12265 1.90089,0.36792c0.57685,0.24074 1.03334,0.57912 1.36946,1.01517l-1.26046,1.50573c-0.13627,-0.15444 -0.29751,-0.29751 -0.48374,-0.42923c-0.18168,-0.13627 -0.38381,-0.243 -0.60638,-0.32022c-0.22257,-0.08176 -0.45649,-0.12264 -0.70176,-0.12264c-0.36792,0 -0.69268,0.0863 -0.9743,0.2589c-0.27707,0.16806 -0.49509,0.40198 -0.65407,0.70177c-0.15444,0.29979 -0.23165,0.64498 -0.23165,1.03561c0,0.36792 0.07949,0.70176 0.23846,1.00155c0.16352,0.29979 0.38608,0.53824 0.6677,0.71539c0.28161,0.17261 0.59957,0.2589 0.95386,0.2589c0.25436,0 0.48828,-0.03179 0.70176,-0.09538c0.21348,-0.06359 0.40879,-0.15671 0.58594,-0.27935c0.18168,-0.12718 0.34974,-0.28388 0.50418,-0.47011l1.24683,1.52617c-0.32703,0.41788 -0.78352,0.74719 -1.36946,0.98792c-0.58594,0.24074 -1.21503,0.3611 -1.88727,0.3611zM230.32901,203.32857c-0.80397,0 -1.51935,-0.17261 -2.14617,-0.51781c-0.62682,-0.34975 -1.12191,-0.8244 -1.48528,-1.42396c-0.35883,-0.60411 -0.53825,-1.29225 -0.53825,-2.06442c0,-0.77671 0.17942,-1.46485 0.53825,-2.06441c0.36337,-0.60411 0.85846,-1.07876 1.48528,-1.42397c0.62682,-0.34975 1.34221,-0.52462 2.14617,-0.52462c0.80397,0 1.51708,0.17487 2.13936,0.52462c0.62682,0.3452 1.11965,0.81986 1.47848,1.42397c0.35883,0.59957 0.53825,1.2877 0.53825,2.06441c0,0.77217 -0.17942,1.46031 -0.53825,2.06442c-0.35883,0.59957 -0.85166,1.07421 -1.47848,1.42396c-0.62228,0.3452 -1.3354,0.51781 -2.13936,0.51781zM230.32901,201.32548c0.3452,0 0.65408,-0.0863 0.92661,-0.2589c0.27253,-0.17714 0.48601,-0.4156 0.64044,-0.71539c0.15444,-0.29979 0.22711,-0.64272 0.21802,-1.02881c0.00908,-0.39062 -0.06359,-0.7381 -0.21802,-1.04243c-0.15444,-0.30433 -0.36792,-0.54278 -0.64044,-0.71539c-0.27253,-0.17714 -0.5814,-0.26572 -0.92661,-0.26572c-0.34975,0 -0.66315,0.08858 -0.94022,0.26572c-0.27707,0.17261 -0.49282,0.41106 -0.64726,0.71539c-0.15444,0.30433 -0.22711,0.6518 -0.21803,1.04243c-0.00908,0.38609 0.06359,0.72902 0.21803,1.02881c0.15444,0.29979 0.37019,0.53824 0.64726,0.71539c0.27707,0.17261 0.59047,0.2589 0.94022,0.2589zM238.15915,203.18549l-3.22267,-7.71941h2.5686l1.92133,5.77083l-0.5655,0.06132l1.97584,-5.83214h2.54134l-3.38618,7.71941zM248.0415,203.32857c-0.85393,0 -1.59657,-0.17033 -2.22793,-0.51099c-0.62682,-0.3452 -1.1151,-0.81532 -1.46485,-1.41035c-0.3452,-0.59502 -0.51781,-1.27635 -0.51781,-2.04398c0,-0.59048 0.09539,-1.13327 0.28616,-1.62837c0.19531,-0.49509 0.46557,-0.92433 0.81078,-1.2877c0.34975,-0.36337 0.76535,-0.64272 1.24683,-0.83803c0.48147,-0.19986 1.00609,-0.29978 1.57386,-0.29978c0.54506,0 1.04243,0.09766 1.49211,0.29297c0.44968,0.19077 0.83803,0.46103 1.16506,0.81078c0.33158,0.34975 0.58366,0.76308 0.75627,1.24001c0.17714,0.47239 0.25663,0.99019 0.23846,1.55342l-0.01363,0.62001h-6.15237l-0.33385,-1.30814h4.59213l-0.24528,0.27934v-0.29297c-0.01817,-0.24074 -0.09311,-0.45422 -0.22483,-0.64044c-0.13172,-0.19077 -0.30433,-0.33839 -0.51781,-0.44286c-0.21348,-0.10901 -0.45422,-0.16352 -0.72221,-0.16352c-0.377,0 -0.69949,0.07495 -0.96748,0.22484c-0.26799,0.14989 -0.47011,0.36791 -0.60638,0.65407c-0.13627,0.28616 -0.2044,0.63591 -0.2044,1.04924c0,0.42696 0.08857,0.79943 0.26572,1.11738c0.18168,0.31341 0.44513,0.55868 0.79034,0.73583c0.3452,0.17261 0.754,0.2589 1.22639,0.2589c0.33158,0 0.62455,-0.0477 0.87891,-0.14308c0.2589,-0.09993 0.53824,-0.26572 0.83803,-0.49737l1.09013,1.53979c-0.29979,0.26344 -0.62,0.47692 -0.96067,0.64044c-0.33612,0.16352 -0.68133,0.28616 -1.03562,0.36792c-0.35429,0.08176 -0.7063,0.12264 -1.05605,0.12264zM252.87847,203.18549v-7.71941h2.2143l0.1022,2.51409l-0.43605,-0.47692c0.11355,-0.41788 0.30433,-0.79034 0.57232,-1.11738c0.26799,-0.33158 0.57913,-0.59276 0.93341,-0.78352c0.35883,-0.19531 0.74265,-0.29297 1.15144,-0.29297c0.1726,0 0.33385,0.0159 0.48374,0.0477c0.14989,0.02725 0.28843,0.05904 0.41561,0.09538l-0.64044,2.57541c-0.10447,-0.06814 -0.24755,-0.12264 -0.42923,-0.16352c-0.17714,-0.04542 -0.36338,-0.06813 -0.55869,-0.06813c-0.21348,0 -0.41334,0.03633 -0.59957,0.10901c-0.18168,0.07268 -0.33612,0.17714 -0.4633,0.31341c-0.12264,0.13172 -0.22029,0.2907 -0.29297,0.47693c-0.07268,0.18168 -0.10901,0.39063 -0.10901,0.62681v3.86311zM262.85022,203.32857c-0.85393,0 -1.59657,-0.17033 -2.22793,-0.51099c-0.62682,-0.3452 -1.1151,-0.81532 -1.46485,-1.41035c-0.3452,-0.59502 -0.51781,-1.27635 -0.51781,-2.04398c0,-0.59048 0.09539,-1.13327 0.28616,-1.62837c0.19531,-0.49509 0.46557,-0.92433 0.81078,-1.2877c0.34975,-0.36337 0.76535,-0.64272 1.24682,-0.83803c0.48147,-0.19986 1.00609,-0.29978 1.57386,-0.29978c0.54506,0 1.04243,0.09766 1.49211,0.29297c0.44968,0.19077 0.83803,0.46103 1.16507,0.81078c0.33158,0.34975 0.58366,0.76308 0.75627,1.24001c0.17714,0.47239 0.25664,0.99019 0.23847,1.55342l-0.01362,0.62001h-6.15237l-0.33384,-1.30814h4.59213l-0.24528,0.27934v-0.29297c-0.01817,-0.24074 -0.09311,-0.45422 -0.22484,-0.64044c-0.13172,-0.19077 -0.30432,-0.33839 -0.5178,-0.44286c-0.21348,-0.10901 -0.45421,-0.16352 -0.72221,-0.16352c-0.377,0 -0.69949,0.07495 -0.96749,0.22484c-0.26799,0.14989 -0.47011,0.36791 -0.60638,0.65407c-0.13627,0.28616 -0.2044,0.63591 -0.2044,1.04924c0,0.42696 0.08857,0.79943 0.26572,1.11738c0.18169,0.31341 0.44514,0.55868 0.79034,0.73583c0.34521,0.17261 0.754,0.2589 1.22639,0.2589c0.33158,0 0.62455,-0.0477 0.87891,-0.14308c0.25891,-0.09993 0.53824,-0.26572 0.83803,-0.49737l1.09012,1.53979c-0.29978,0.26344 -0.62,0.47692 -0.96067,0.64044c-0.33612,0.16352 -0.68133,0.28616 -1.03562,0.36792c-0.35429,0.08176 -0.70631,0.12264 -1.05606,0.12264zM270.61006,203.3422c-0.6677,0 -1.26045,-0.17033 -1.77826,-0.511c-0.51781,-0.3452 -0.9266,-0.81986 -1.22639,-1.42397c-0.29978,-0.60865 -0.44967,-1.29906 -0.44967,-2.07122c0,-0.77671 0.14989,-1.46712 0.44967,-2.07123c0.29979,-0.60865 0.71085,-1.08558 1.2332,-1.43078c0.52235,-0.34975 1.12191,-0.52462 1.7987,-0.52462c0.34975,0 0.6836,0.05451 1.00155,0.16352c0.3225,0.10447 0.61319,0.24982 0.8721,0.43605c0.26344,0.18168 0.47692,0.39063 0.64044,0.62682c0.16806,0.23619 0.26571,0.48147 0.29297,0.73583l-0.55187,0.12945v-4.96686h2.33695v10.75131h-2.15981l-0.13626,-1.75782l0.47011,0.07495c-0.03179,0.24074 -0.12718,0.47239 -0.28616,0.69495c-0.15898,0.22257 -0.36564,0.42014 -0.62,0.59275c-0.24982,0.16806 -0.53825,0.30206 -0.86528,0.40199c-0.3225,0.09993 -0.66316,0.14989 -1.02199,0.14989zM271.20963,201.41405c0.35883,0 0.66769,-0.0863 0.9266,-0.2589c0.26344,-0.17714 0.46557,-0.42014 0.60638,-0.72902c0.14081,-0.31341 0.21121,-0.67678 0.21121,-1.09012c0,-0.42696 -0.07041,-0.79488 -0.21121,-1.10375c-0.14081,-0.31341 -0.34294,-0.55641 -0.60638,-0.72901c-0.25891,-0.17261 -0.56777,-0.2589 -0.9266,-0.2589c-0.35883,0 -0.6677,0.0863 -0.9266,0.2589c-0.25436,0.17261 -0.45422,0.4156 -0.59957,0.72901c-0.14535,0.30887 -0.21803,0.67679 -0.21803,1.10375c0,0.41333 0.07268,0.77671 0.21803,1.09012c0.14535,0.30887 0.34521,0.55187 0.59957,0.72902c0.25891,0.17261 0.56777,0.2589 0.9266,0.2589zM278.99704,199.69711l-0.4633,-1.90089c0.28161,-0.06814 0.54733,-0.14762 0.79715,-0.23847c0.24982,-0.09538 0.48147,-0.19531 0.69495,-0.29978c0.21348,-0.10901 0.39517,-0.23392 0.54506,-0.37473c0.14989,-0.14081 0.26799,-0.29524 0.35429,-0.4633c0.09084,-0.16806 0.13626,-0.34975 0.13626,-0.54506c0,-0.19531 -0.04997,-0.3611 -0.1499,-0.49737c-0.09538,-0.14081 -0.22483,-0.24981 -0.38835,-0.32703c-0.16352,-0.08176 -0.35656,-0.12264 -0.57913,-0.12264c-0.3225,0 -0.64498,0.11583 -0.96748,0.34748c-0.31795,0.22711 -0.61092,0.59276 -0.87891,1.09694l-1.58749,-1.47167c0.43605,-0.6677 0.95612,-1.18551 1.56023,-1.55342c0.60865,-0.36792 1.24229,-0.55187 1.9009,-0.55187c0.64044,0 1.2173,0.12945 1.73056,0.38835c0.51327,0.25436 0.91979,0.60637 1.21957,1.05605c0.29979,0.44968 0.44968,0.95612 0.44968,1.51935c0,0.35883 -0.07495,0.71312 -0.22484,1.06287c-0.14989,0.34975 -0.35883,0.67678 -0.62682,0.98111c-0.26344,0.30433 -0.57458,0.57231 -0.93341,0.80396c-0.35883,0.23165 -0.75627,0.41107 -1.19232,0.53825l-0.14989,0.55187zM278.47242,202.05449c0,-0.39062 0.11583,-0.7063 0.34748,-0.94704c0.23619,-0.24074 0.53825,-0.36111 0.90616,-0.36111c0.39517,0 0.70404,0.11355 0.9266,0.34067c0.22257,0.22711 0.33385,0.5496 0.33385,0.96748c0,0.377 -0.11583,0.68587 -0.34748,0.9266c-0.23165,0.24074 -0.53598,0.3611 -0.91298,0.3611c-0.39971,0 -0.70857,-0.11129 -0.9266,-0.33385c-0.21803,-0.22257 -0.32704,-0.54052 -0.32704,-0.95386z" fill="#000000" stroke="none" stroke-width="1" stroke-linecap="square"/></g></g></svg>