<svg version="1.1" xmlns="http://www.w3.org/2000/svg" xmlns:xlink="http://www.w3.org/1999/xlink" width="205.64286" height="99.25" viewBox="0,0,205.64286,99.25"><g transform="translate(-137.30607,-131)"><g data-paper-data="{&quot;isPaintingLayer&quot;:true}" fill-rule="nonzero" stroke-linejoin="miter" stroke-miterlimit="10" stroke-dasharray="" stroke-dashoffset="0" style="mix-blend-mode: normal"><path d="M140.55607,207.25c0,-18.73959 -0.38249,-45.48871 0,-55.5c0.5,-13.0871 3.89541,-16.75 15.32143,-16.75c22.08229,0 127.56734,0 168,0c15.33535,0 15.82143,4.98326 15.82143,16.75c0,17.95892 0,45.32915 0,56c0,14.97422 -0.38765,19.25 -14.32143,19.25c-38.12556,0 -140.83396,0 -165,0c-18.91714,0 -19.82143,-3.40978 -19.82143,-19.75z" fill="#ffffff" stroke-opacity="0.25901" stroke="#000000" stroke-width="6.5" stroke-linecap="butt"/><path d="M140.47107,205.25c0,-18.73959 -0.38249,-45.48871 0,-55.5c0.5,-13.0871 3.89541,-16.75 15.32143,-16.75c22.08229,0 127.56734,0 168,0c15.33535,0 15.82143,4.98326 15.82143,16.75c0,17.95892 0,45.32915 0,56c0,14.97422 -0.38765,19.25 -14.32143,19.25c-38.12556,0 -140.83396,0 -165,0c-18.91714,0 -19.82143,-3.40978 -19.82143,-19.75z" fill="#ffffff" stroke="#000000" stroke-width="4" stroke-linecap="butt"/><path d="M158.1586,169.18726l-2.81497,-9.40211h2.32376l1.41063,4.94351c0.05878,0.22251 0.11335,0.44922 0.16373,0.68013c0.05038,0.22671 0.09026,0.44292 0.11965,0.64864c0.03359,0.20572 0.05878,0.39674 0.07557,0.57307c0.01679,0.17213 0.03568,0.31697 0.05668,0.43452h-0.29598c0.05038,-0.33167 0.09656,-0.62765 0.13854,-0.88794c0.04198,-0.2603 0.08816,-0.5038 0.13854,-0.73051c0.05458,-0.22671 0.12175,-0.46601 0.20152,-0.71791l1.39804,-3.7218h1.82626l1.37285,3.7218c0.10916,0.29388 0.19942,0.57097 0.27079,0.83127c0.07137,0.2603 0.12595,0.51009 0.16373,0.7494c0.04198,0.23511 0.07557,0.46811 0.10076,0.69902l-0.26449,0.04408c0.01679,-0.16373 0.02939,-0.31487 0.03778,-0.45342c0.0084,-0.13854 0.01889,-0.27289 0.03149,-0.40304c0.01679,-0.13015 0.03359,-0.26659 0.05038,-0.40934c0.01679,-0.14274 0.04198,-0.30018 0.07557,-0.47231c0.03778,-0.17633 0.08816,-0.37575 0.15114,-0.59826l1.39804,-4.93091h2.26709l-2.82126,9.40211h-1.7444l-2.2293,-5.41582l0.2582,0.03149l-2.05927,5.38433zM169.5763,169.18726v-9.9374h2.10965v4.25708l-0.42823,0.15744c0.10076,-0.31907 0.27709,-0.61085 0.52899,-0.87535c0.2561,-0.26449 0.56257,-0.47651 0.91943,-0.63604c0.36106,-0.16373 0.7389,-0.2456 1.13354,-0.2456c0.53738,0 0.9887,0.10916 1.35395,0.32747c0.36525,0.21831 0.64234,0.54578 0.83127,0.9824c0.18892,0.43243 0.28339,0.96351 0.28339,1.59326v4.37674h-2.16003v-4.20671c0,-0.28549 -0.04198,-0.52059 -0.12595,-0.70532c-0.07977,-0.18892 -0.20362,-0.32957 -0.37155,-0.42193c-0.16373,-0.09656 -0.36525,-0.14064 -0.60456,-0.13225c-0.18892,0 -0.36525,0.02939 -0.52899,0.08816c-0.15954,0.05878 -0.29808,0.14484 -0.41563,0.2582c-0.11335,0.10916 -0.20362,0.23511 -0.27079,0.37785c-0.06717,0.14274 -0.10076,0.30018 -0.10076,0.47231v4.26968h-1.06427c-0.2519,0 -0.46811,0 -0.64864,0c-0.17633,0 -0.32327,0 -0.44082,0zM181.46875,169.3195c-0.7431,0 -1.40433,-0.15954 -1.9837,-0.47861c-0.57937,-0.32327 -1.03698,-0.76199 -1.37285,-1.31617c-0.33167,-0.55837 -0.4975,-1.19442 -0.4975,-1.90813c0,-0.71791 0.16583,-1.35395 0.4975,-1.90813c0.33587,-0.55837 0.79348,-0.9971 1.37285,-1.31617c0.57937,-0.32327 1.2406,-0.4849 1.9837,-0.4849c0.7431,0 1.40223,0.16163 1.9774,0.4849c0.57937,0.31907 1.03488,0.7578 1.36655,1.31617c0.33167,0.55418 0.4975,1.19022 0.4975,1.90813c0,0.71371 -0.16583,1.34976 -0.4975,1.90813c-0.33167,0.55418 -0.78718,0.9929 -1.36655,1.31617c-0.57517,0.31907 -1.2343,0.47861 -1.9774,0.47861zM181.46875,167.46805c0.31907,0 0.60456,-0.07977 0.85645,-0.2393c0.2519,-0.16373 0.44922,-0.38415 0.59196,-0.66123c0.14274,-0.27709 0.20992,-0.59406 0.20152,-0.95092c0.0084,-0.36106 -0.05878,-0.68223 -0.20152,-0.96351c-0.14274,-0.28129 -0.34006,-0.5017 -0.59196,-0.66123c-0.2519,-0.16373 -0.53738,-0.2456 -0.85645,-0.2456c-0.32327,0 -0.61295,0.08187 -0.86905,0.2456c-0.2561,0.15954 -0.45552,0.37995 -0.59826,0.66123c-0.14274,0.28129 -0.20992,0.60246 -0.20152,0.96351c-0.0084,0.35686 0.05878,0.67383 0.20152,0.95092c0.14274,0.27709 0.34216,0.4975 0.59826,0.66123c0.2561,0.15954 0.54578,0.2393 0.86905,0.2393zM192.57627,169.18726l-2.34895,-7.13503h2.26709l1.31617,4.63493l-0.28339,-0.05038l1.4799,-3.60215h1.25949l1.56177,3.61474l-0.30858,0.02519l1.31617,-4.62234h2.26709l-2.43082,7.13503h-1.58066l-1.54918,-3.82886l0.16373,0.02519l-1.54288,3.80367zM204.65429,169.30691c-0.60036,0 -1.13564,-0.15744 -1.60585,-0.47231c-0.47021,-0.31907 -0.84596,-0.7578 -1.12725,-1.31617c-0.27709,-0.56257 -0.41563,-1.19652 -0.41563,-1.90183c0,-0.72631 0.13854,-1.36655 0.41563,-1.92073c0.28129,-0.55837 0.66333,-0.995 1.14614,-1.30987c0.4828,-0.31907 1.03278,-0.47861 1.64994,-0.47861c0.34006,0 0.65074,0.05038 0.93202,0.15114c0.28549,0.09656 0.53528,0.23301 0.7494,0.40934c0.21411,0.17213 0.39674,0.37365 0.54788,0.60456c0.15534,0.22671 0.26869,0.47021 0.34006,0.73051l-0.44712,-0.05668v-1.69402h2.13484v7.13503h-2.17262v-1.71921l0.4849,-0.01259c-0.07137,0.2519 -0.18892,0.4891 -0.35266,0.71161c-0.15954,0.22251 -0.35686,0.41983 -0.59196,0.59196c-0.23091,0.16793 -0.4912,0.30228 -0.78089,0.40304c-0.28549,0.09656 -0.58776,0.14484 -0.90683,0.14484zM205.23996,167.49324c0.33167,0 0.61715,-0.07557 0.85645,-0.22671c0.2435,-0.15114 0.43243,-0.36735 0.56677,-0.64864c0.13435,-0.28549 0.20152,-0.61925 0.20152,-1.0013c0,-0.38625 -0.06717,-0.72001 -0.20152,-1.0013c-0.13435,-0.28129 -0.32327,-0.4996 -0.56677,-0.65494c-0.2393,-0.15954 -0.52479,-0.2393 -0.85645,-0.2393c-0.31907,0 -0.59826,0.07977 -0.83756,0.2393c-0.23511,0.15534 -0.41983,0.37365 -0.55418,0.65494c-0.13435,0.28129 -0.20152,0.61505 -0.20152,1.0013c0,0.38205 0.06717,0.71581 0.20152,1.0013c0.13435,0.28129 0.31907,0.4975 0.55418,0.64864c0.2393,0.15114 0.51849,0.22671 0.83756,0.22671zM213.27328,169.3195c-0.69692,0 -1.31197,-0.11125 -1.84516,-0.33377c-0.53318,-0.22251 -0.95721,-0.52269 -1.27209,-0.90054l1.30357,-1.12725c0.27709,0.27709 0.58986,0.48071 0.93832,0.61085c0.35266,0.13015 0.68432,0.19522 0.995,0.19522c0.12595,0 0.2372,-0.01259 0.33377,-0.03778c0.10076,-0.02939 0.18473,-0.06717 0.2519,-0.11335c0.06717,-0.05038 0.11755,-0.10916 0.15114,-0.17633c0.03778,-0.06717 0.05668,-0.14694 0.05668,-0.2393c0,-0.17633 -0.07977,-0.31487 -0.2393,-0.41563c-0.07977,-0.04198 -0.21411,-0.09446 -0.40304,-0.15744c-0.18892,-0.06297 -0.43033,-0.13644 -0.72421,-0.22041c-0.42403,-0.10496 -0.79138,-0.23091 -1.10206,-0.37785c-0.30648,-0.15114 -0.55837,-0.32327 -0.7557,-0.51639c-0.17633,-0.18892 -0.31487,-0.39674 -0.41563,-0.62345c-0.09656,-0.23091 -0.14484,-0.4891 -0.14484,-0.77459c0,-0.33167 0.07767,-0.63185 0.23301,-0.90054c0.15534,-0.26869 0.36525,-0.5017 0.62975,-0.69902c0.26449,-0.19732 0.56887,-0.34636 0.91313,-0.44712c0.34846,-0.10496 0.70532,-0.15744 1.07057,-0.15744c0.39464,0 0.77039,0.04618 1.12725,0.13854c0.35686,0.08816 0.69062,0.21201 1.0013,0.37155c0.31068,0.15954 0.58566,0.35266 0.82497,0.57937l-1.12725,1.25949c-0.15954,-0.15114 -0.34006,-0.28758 -0.54158,-0.40934c-0.20152,-0.12175 -0.41143,-0.21831 -0.62975,-0.28968c-0.21411,-0.07137 -0.40934,-0.10706 -0.58566,-0.10706c-0.13435,0 -0.254,0.01259 -0.35896,0.03778c-0.10076,0.02099 -0.18892,0.05668 -0.26449,0.10706c-0.07137,0.04618 -0.12595,0.10286 -0.16373,0.17003c-0.03359,0.06717 -0.05038,0.14694 -0.05038,0.2393c0,0.08816 0.02519,0.17213 0.07557,0.2519c0.05038,0.07977 0.11965,0.14694 0.20782,0.20152c0.09236,0.05458 0.23511,0.11545 0.42823,0.18263c0.19732,0.06717 0.46601,0.14904 0.80608,0.2456c0.42403,0.11755 0.78718,0.2477 1.08946,0.39044c0.30648,0.14274 0.54788,0.31277 0.72421,0.51009c0.14694,0.15534 0.2561,0.33377 0.32747,0.53528c0.07137,0.20152 0.10706,0.41773 0.10706,0.64864c0,0.45761 -0.12805,0.86275 -0.38415,1.21541c-0.2561,0.35266 -0.60875,0.62975 -1.05797,0.83127c-0.44502,0.20152 -0.95511,0.30228 -1.53028,0.30228zM222.40707,169.18726v-8.9298h2.15373v8.9298zM221.14758,163.93517v-1.88294h4.79237v1.88294zM227.16123,169.18726v-9.9374h2.10965v4.25708l-0.42823,0.15744c0.10076,-0.31907 0.27709,-0.61085 0.52899,-0.87535c0.2561,-0.26449 0.56257,-0.47651 0.91943,-0.63604c0.36106,-0.16373 0.7389,-0.2456 1.13354,-0.2456c0.53738,0 0.9887,0.10916 1.35395,0.32747c0.36525,0.21831 0.64234,0.54578 0.83127,0.9824c0.18892,0.43243 0.28339,0.96351 0.28339,1.59326v4.37674h-2.16003v-4.20671c0,-0.28549 -0.04198,-0.52059 -0.12595,-0.70532c-0.07977,-0.18892 -0.20362,-0.32957 -0.37155,-0.42193c-0.16373,-0.09656 -0.36525,-0.14064 -0.60456,-0.13225c-0.18892,0 -0.36525,0.02939 -0.52899,0.08816c-0.15954,0.05878 -0.29808,0.14484 -0.41563,0.2582c-0.11335,0.10916 -0.20362,0.23511 -0.27079,0.37785c-0.06717,0.14274 -0.10076,0.30018 -0.10076,0.47231v4.26968h-1.06427c-0.2519,0 -0.46811,0 -0.64864,0c-0.17633,0 -0.32327,0 -0.44082,0zM239.09147,169.3195c-0.78928,0 -1.47571,-0.15744 -2.05927,-0.47231c-0.57937,-0.31907 -1.03068,-0.7536 -1.35395,-1.30357c-0.31907,-0.54998 -0.47861,-1.17973 -0.47861,-1.88924c0,-0.54578 0.08816,-1.04748 0.26449,-1.50509c0.18053,-0.45761 0.43033,-0.85436 0.7494,-1.19022c0.32327,-0.33587 0.70742,-0.59406 1.15244,-0.77459c0.44502,-0.18473 0.92992,-0.27709 1.45471,-0.27709c0.5038,0 0.96351,0.09026 1.37914,0.27079c0.41563,0.17633 0.77459,0.42613 1.07687,0.7494c0.30648,0.32327 0.53948,0.70532 0.69902,1.14614c0.16373,0.43662 0.2372,0.91523 0.22041,1.43582l-0.01259,0.57307h-5.68661l-0.30858,-1.20911h4.24449l-0.22671,0.2582v-0.27079c-0.01679,-0.22251 -0.08606,-0.41983 -0.20782,-0.59196c-0.12175,-0.17633 -0.28129,-0.31277 -0.47861,-0.40934c-0.19732,-0.10076 -0.41983,-0.15114 -0.66753,-0.15114c-0.34846,0 -0.64654,0.06927 -0.89424,0.20782c-0.2477,0.13854 -0.43452,0.34006 -0.56047,0.60456c-0.12595,0.26449 -0.18892,0.58776 -0.18892,0.96981c0,0.39464 0.08187,0.7389 0.2456,1.03278c0.16793,0.28968 0.41143,0.51639 0.73051,0.68013c0.31907,0.15954 0.69692,0.2393 1.13354,0.2393c0.30648,0 0.57727,-0.04408 0.81237,-0.13225c0.2393,-0.09236 0.4975,-0.2456 0.77459,-0.45971l1.00759,1.42323c-0.27709,0.2435 -0.57307,0.44082 -0.88794,0.59196c-0.31068,0.15114 -0.62975,0.26449 -0.95721,0.34006c-0.32747,0.07557 -0.65284,0.11335 -0.97611,0.11335zM248.30778,169.18726v-7.48139c0,-0.46601 0.10076,-0.88584 0.30228,-1.25949c0.20152,-0.37785 0.4828,-0.67593 0.84386,-0.89424c0.36525,-0.22251 0.78928,-0.33377 1.27209,-0.33377c0.34006,0 0.65284,0.05038 0.93832,0.15114c0.28549,0.09656 0.54158,0.23511 0.76829,0.41563l-0.61715,1.56807c-0.11755,-0.05878 -0.23091,-0.10706 -0.34006,-0.14484c-0.10496,-0.03778 -0.20362,-0.05668 -0.29598,-0.05668c-0.15954,0 -0.29388,0.02729 -0.40304,0.08187c-0.10496,0.05458 -0.18263,0.13854 -0.23301,0.2519c-0.05038,0.10916 -0.07557,0.2456 -0.07557,0.40934v7.29246h-1.07057c-0.2435,0 -0.45761,0 -0.64234,0c-0.18053,0 -0.32957,0 -0.44712,0zM247.27499,164.02963v-1.77588h4.66012v1.77588zM253.26386,169.18726v-7.13503h2.14745v7.13503zM254.33445,160.6416c-0.40304,0 -0.71791,-0.09446 -0.94462,-0.28339c-0.22671,-0.19312 -0.34006,-0.47021 -0.34006,-0.83127c0,-0.31907 0.11545,-0.58147 0.34636,-0.78718c0.23091,-0.20992 0.54368,-0.31487 0.93832,-0.31487c0.40304,0 0.71581,0.09656 0.93832,0.28968c0.22671,0.19312 0.34006,0.46391 0.34006,0.81237c0,0.33167 -0.11545,0.60036 -0.34636,0.80608c-0.22671,0.20572 -0.53738,0.30858 -0.93202,0.30858zM257.42458,169.18726v-7.13503h2.04668l0.09446,2.32376l-0.40304,-0.44082c0.10496,-0.38625 0.28129,-0.73051 0.52899,-1.03278c0.2477,-0.30648 0.53528,-0.54788 0.86275,-0.72421c0.33167,-0.18053 0.68642,-0.27079 1.06427,-0.27079c0.15954,0 0.30858,0.01469 0.44712,0.04408c0.13854,0.02519 0.26659,0.05458 0.38415,0.08816l-0.59196,2.38044c-0.09656,-0.06297 -0.22881,-0.11335 -0.39674,-0.15114c-0.16373,-0.04198 -0.33587,-0.06297 -0.51639,-0.06297c-0.19732,0 -0.38205,0.03359 -0.55418,0.10076c-0.16793,0.06717 -0.31068,0.16373 -0.42823,0.28968c-0.11335,0.12175 -0.20362,0.26869 -0.27079,0.44082c-0.06717,0.16793 -0.10076,0.36106 -0.10076,0.57937v3.57066zM265.94197,169.3195c-0.69692,0 -1.31197,-0.11125 -1.84516,-0.33377c-0.53318,-0.22251 -0.95721,-0.52269 -1.27209,-0.90054l1.30357,-1.12725c0.27709,0.27709 0.58986,0.48071 0.93832,0.61085c0.35266,0.13015 0.68432,0.19522 0.995,0.19522c0.12595,0 0.2372,-0.01259 0.33377,-0.03778c0.10076,-0.02939 0.18473,-0.06717 0.2519,-0.11335c0.06717,-0.05038 0.11755,-0.10916 0.15114,-0.17633c0.03778,-0.06717 0.05668,-0.14694 0.05668,-0.2393c0,-0.17633 -0.07977,-0.31487 -0.2393,-0.41563c-0.07977,-0.04198 -0.21411,-0.09446 -0.40304,-0.15744c-0.18892,-0.06297 -0.43033,-0.13644 -0.72421,-0.22041c-0.42403,-0.10496 -0.79138,-0.23091 -1.10206,-0.37785c-0.30648,-0.15114 -0.55837,-0.32327 -0.7557,-0.51639c-0.17633,-0.18892 -0.31487,-0.39674 -0.41563,-0.62345c-0.09656,-0.23091 -0.14484,-0.4891 -0.14484,-0.77459c0,-0.33167 0.07767,-0.63185 0.23301,-0.90054c0.15534,-0.26869 0.36525,-0.5017 0.62975,-0.69902c0.26449,-0.19732 0.56887,-0.34636 0.91313,-0.44712c0.34846,-0.10496 0.70532,-0.15744 1.07057,-0.15744c0.39464,0 0.77039,0.04618 1.12725,0.13854c0.35686,0.08816 0.69062,0.21201 1.0013,0.37155c0.31068,0.15954 0.58566,0.35266 0.82497,0.57937l-1.12725,1.25949c-0.15954,-0.15114 -0.34006,-0.28758 -0.54158,-0.40934c-0.20152,-0.12175 -0.41143,-0.21831 -0.62975,-0.28968c-0.21411,-0.07137 -0.40934,-0.10706 -0.58566,-0.10706c-0.13435,0 -0.254,0.01259 -0.35896,0.03778c-0.10076,0.02099 -0.18892,0.05668 -0.26449,0.10706c-0.07137,0.04618 -0.12595,0.10286 -0.16373,0.17003c-0.03359,0.06717 -0.05038,0.14694 -0.05038,0.2393c0,0.08816 0.02519,0.17213 0.07557,0.2519c0.05038,0.07977 0.11965,0.14694 0.20782,0.20152c0.09236,0.05458 0.23511,0.11545 0.42823,0.18263c0.19732,0.06717 0.46601,0.14904 0.80608,0.2456c0.42403,0.11755 0.78718,0.2477 1.08946,0.39044c0.30648,0.14274 0.54788,0.31277 0.72421,0.51009c0.14694,0.15534 0.2561,0.33377 0.32747,0.53528c0.07137,0.20152 0.10706,0.41773 0.10706,0.64864c0,0.45761 -0.12805,0.86275 -0.38415,1.21541c-0.2561,0.35266 -0.60875,0.62975 -1.05797,0.83127c-0.44502,0.20152 -0.95511,0.30228 -1.53028,0.30228zM270.77737,169.18726v-8.9298h2.15373v8.9298zM269.51788,163.93517v-1.88294h4.79237v1.88294zM279.82992,172.14077v-10.08854h2.04668l0.07557,1.59956l-0.40304,-0.11965c0.06297,-0.29388 0.21621,-0.56257 0.45971,-0.80608c0.2435,-0.2435 0.54998,-0.43872 0.91943,-0.58566c0.37365,-0.14694 0.76619,-0.22041 1.17763,-0.22041c0.60875,0 1.15034,0.15954 1.62475,0.47861c0.47441,0.31487 0.84806,0.7494 1.12095,1.30357c0.27289,0.54998 0.40934,1.18812 0.40934,1.91443c0,0.71371 -0.13644,1.34976 -0.40934,1.90813c-0.27289,0.55418 -0.64864,0.9908 -1.12725,1.30987c-0.47861,0.31487 -1.02859,0.47231 -1.64994,0.47231c-0.40304,0 -0.78718,-0.07557 -1.15244,-0.22671c-0.36525,-0.15114 -0.67383,-0.35686 -0.92573,-0.61715c-0.2519,-0.2603 -0.41773,-0.54368 -0.4975,-0.85016l0.4975,-0.18263v4.7105zM283.55172,167.49324c0.32327,0 0.60456,-0.07767 0.84386,-0.23301c0.2435,-0.15534 0.43243,-0.37155 0.56677,-0.64864c0.13435,-0.28129 0.20152,-0.61295 0.20152,-0.995c0,-0.37785 -0.06717,-0.70742 -0.20152,-0.9887c-0.13435,-0.28129 -0.32117,-0.4996 -0.56047,-0.65494c-0.23511,-0.15954 -0.51849,-0.2393 -0.85016,-0.2393c-0.33167,0 -0.61925,0.07767 -0.86275,0.23301c-0.2393,0.15114 -0.42613,0.36945 -0.56047,0.65494c-0.13435,0.28549 -0.20152,0.61715 -0.20152,0.995c0,0.38205 0.06717,0.71371 0.20152,0.995c0.13435,0.27709 0.32117,0.4933 0.56047,0.64864c0.2435,0.15534 0.53109,0.23301 0.86275,0.23301zM292.08255,169.3195c-0.78928,0 -1.47571,-0.15744 -2.05927,-0.47231c-0.57937,-0.31907 -1.03068,-0.7536 -1.35395,-1.30357c-0.31907,-0.54998 -0.47861,-1.17973 -0.47861,-1.88924c0,-0.54578 0.08816,-1.04748 0.26449,-1.50509c0.18053,-0.45761 0.43033,-0.85436 0.7494,-1.19022c0.32327,-0.33587 0.70742,-0.59406 1.15244,-0.77459c0.44502,-0.18473 0.92992,-0.27709 1.45471,-0.27709c0.5038,0 0.96351,0.09026 1.37914,0.27079c0.41563,0.17633 0.77459,0.42613 1.07687,0.7494c0.30648,0.32327 0.53948,0.70532 0.69902,1.14614c0.16373,0.43662 0.2372,0.91523 0.22041,1.43582l-0.01259,0.57307h-5.68661l-0.30858,-1.20911h4.24449l-0.22671,0.2582v-0.27079c-0.01679,-0.22251 -0.08606,-0.41983 -0.20782,-0.59196c-0.12175,-0.17633 -0.28129,-0.31277 -0.47861,-0.40934c-0.19732,-0.10076 -0.41983,-0.15114 -0.66753,-0.15114c-0.34846,0 -0.64654,0.06927 -0.89424,0.20782c-0.2477,0.13854 -0.43452,0.34006 -0.56047,0.60456c-0.12595,0.26449 -0.18892,0.58776 -0.18892,0.96981c0,0.39464 0.08187,0.7389 0.2456,1.03278c0.16793,0.28968 0.41143,0.51639 0.73051,0.68013c0.31907,0.15954 0.69692,0.2393 1.13354,0.2393c0.30648,0 0.57727,-0.04408 0.81237,-0.13225c0.2393,-0.09236 0.4975,-0.2456 0.77459,-0.45971l1.00759,1.42323c-0.27709,0.2435 -0.57307,0.44082 -0.88794,0.59196c-0.31068,0.15114 -0.62975,0.26449 -0.95721,0.34006c-0.32747,0.07557 -0.65284,0.11335 -0.97611,0.11335zM296.55332,169.18726v-7.13503h2.04668l0.09446,2.32376l-0.40304,-0.44082c0.10496,-0.38625 0.28129,-0.73051 0.52899,-1.03278c0.2477,-0.30648 0.53528,-0.54788 0.86275,-0.72421c0.33167,-0.18053 0.68642,-0.27079 1.06427,-0.27079c0.15954,0 0.30858,0.01469 0.44712,0.04408c0.13854,0.02519 0.26659,0.05458 0.38415,0.08816l-0.59196,2.38044c-0.09656,-0.06297 -0.22881,-0.11335 -0.39674,-0.15114c-0.16373,-0.04198 -0.33587,-0.06297 -0.51639,-0.06297c-0.19732,0 -0.38205,0.03359 -0.55418,0.10076c-0.16793,0.06717 -0.31068,0.16373 -0.42823,0.28968c-0.11335,0.12175 -0.20362,0.26869 -0.27079,0.44082c-0.06717,0.16793 -0.10076,0.36106 -0.10076,0.57937v3.57066zM305.07074,169.3195c-0.69692,0 -1.31197,-0.11125 -1.84516,-0.33377c-0.53318,-0.22251 -0.95721,-0.52269 -1.27209,-0.90054l1.30357,-1.12725c0.27709,0.27709 0.58986,0.48071 0.93832,0.61085c0.35266,0.13015 0.68432,0.19522 0.995,0.19522c0.12595,0 0.2372,-0.01259 0.33377,-0.03778c0.10076,-0.02939 0.18473,-0.06717 0.2519,-0.11335c0.06717,-0.05038 0.11755,-0.10916 0.15114,-0.17633c0.03778,-0.06717 0.05668,-0.14694 0.05668,-0.2393c0,-0.17633 -0.07977,-0.31487 -0.2393,-0.41563c-0.07977,-0.04198 -0.21411,-0.09446 -0.40304,-0.15744c-0.18892,-0.06297 -0.43033,-0.13644 -0.72421,-0.22041c-0.42403,-0.10496 -0.79138,-0.23091 -1.10206,-0.37785c-0.30648,-0.15114 -0.55837,-0.32327 -0.7557,-0.51639c-0.17633,-0.18892 -0.31487,-0.39674 -0.41563,-0.62345c-0.09656,-0.23091 -0.14484,-0.4891 -0.14484,-0.77459c0,-0.33167 0.07767,-0.63185 0.23301,-0.90054c0.15534,-0.26869 0.36525,-0.5017 0.62975,-0.69902c0.26449,-0.19732 0.56887,-0.34636 0.91313,-0.44712c0.34846,-0.10496 0.70532,-0.15744 1.07057,-0.15744c0.39464,0 0.77039,0.04618 1.12725,0.13854c0.35686,0.08816 0.69062,0.21201 1.0013,0.37155c0.31068,0.15954 0.58566,0.35266 0.82497,0.57937l-1.12725,1.25949c-0.15954,-0.15114 -0.34006,-0.28758 -0.54158,-0.40934c-0.20152,-0.12175 -0.41143,-0.21831 -0.62975,-0.28968c-0.21411,-0.07137 -0.40934,-0.10706 -0.58566,-0.10706c-0.13435,0 -0.254,0.01259 -0.35896,0.03778c-0.10076,0.02099 -0.18892,0.05668 -0.26449,0.10706c-0.07137,0.04618 -0.12595,0.10286 -0.16373,0.17003c-0.03359,0.06717 -0.05038,0.14694 -0.05038,0.2393c0,0.08816 0.02519,0.17213 0.07557,0.2519c0.05038,0.07977 0.11965,0.14694 0.20782,0.20152c0.09236,0.05458 0.23511,0.11545 0.42823,0.18263c0.19732,0.06717 0.46601,0.14904 0.80608,0.2456c0.42403,0.11755 0.78718,0.2477 1.08946,0.39044c0.30648,0.14274 0.54788,0.31277 0.72421,0.51009c0.14694,0.15534 0.2561,0.33377 0.32747,0.53528c0.07137,0.20152 0.10706,0.41773 0.10706,0.64864c0,0.45761 -0.12805,0.86275 -0.38415,1.21541c-0.2561,0.35266 -0.60875,0.62975 -1.05797,0.83127c-0.44502,0.20152 -0.95511,0.30228 -1.53028,0.30228zM312.67702,169.3195c-0.7431,0 -1.40433,-0.15954 -1.9837,-0.47861c-0.57937,-0.32327 -1.03698,-0.76199 -1.37285,-1.31617c-0.33167,-0.55837 -0.4975,-1.19442 -0.4975,-1.90813c0,-0.71791 0.16583,-1.35395 0.4975,-1.90813c0.33587,-0.55837 0.79348,-0.9971 1.37285,-1.31617c0.57937,-0.32327 1.2406,-0.4849 1.9837,-0.4849c0.7431,0 1.40223,0.16163 1.9774,0.4849c0.57937,0.31907 1.03488,0.7578 1.36655,1.31617c0.33167,0.55418 0.4975,1.19022 0.4975,1.90813c0,0.71371 -0.16583,1.34976 -0.4975,1.90813c-0.33167,0.55418 -0.78718,0.9929 -1.36655,1.31617c-0.57517,0.31907 -1.2343,0.47861 -1.9774,0.47861zM312.67702,167.46805c0.31907,0 0.60456,-0.07977 0.85645,-0.2393c0.2519,-0.16373 0.44922,-0.38415 0.59196,-0.66123c0.14274,-0.27709 0.20992,-0.59406 0.20152,-0.95092c0.0084,-0.36106 -0.05878,-0.68223 -0.20152,-0.96351c-0.14274,-0.28129 -0.34006,-0.5017 -0.59196,-0.66123c-0.2519,-0.16373 -0.53738,-0.2456 -0.85645,-0.2456c-0.32327,0 -0.61295,0.08187 -0.86905,0.2456c-0.2561,0.15954 -0.45552,0.37995 -0.59826,0.66123c-0.14274,0.28129 -0.20992,0.60246 -0.20152,0.96351c-0.0084,0.35686 0.05878,0.67383 0.20152,0.95092c0.14274,0.27709 0.34216,0.4975 0.59826,0.66123c0.2561,0.15954 0.54578,0.2393 0.86905,0.2393zM317.92438,169.18726v-7.13503h2.04668l0.06297,1.45471l-0.42823,0.15744c0.10076,-0.31907 0.27709,-0.61085 0.52899,-0.87535c0.2561,-0.26449 0.56257,-0.47651 0.91943,-0.63604c0.36106,-0.16373 0.7389,-0.2456 1.13354,-0.2456c0.53738,0 0.9887,0.10916 1.35395,0.32747c0.36525,0.21831 0.64234,0.54578 0.83127,0.9824c0.18892,0.43243 0.28339,0.96351 0.28339,1.59326v4.37674h-2.16003v-4.20671c0,-0.28549 -0.04198,-0.52059 -0.12595,-0.70532c-0.07977,-0.18892 -0.20362,-0.32957 -0.37155,-0.42193c-0.16373,-0.09656 -0.36525,-0.14064 -0.60456,-0.13225c-0.18892,0 -0.36525,0.02939 -0.52899,0.08816c-0.15954,0.05878 -0.29808,0.14484 -0.41563,0.2582c-0.11335,0.10916 -0.20362,0.23511 -0.27079,0.37785c-0.06717,0.14274 -0.10076,0.30018 -0.10076,0.47231v4.26968h-1.06427c-0.2519,0 -0.46811,0 -0.64864,0c-0.17633,0 -0.32327,0 -0.44082,0z" fill="#000000" stroke="none" stroke-width="1" stroke-linecap="square"/><path d="M169.16753,185.30876v-8.9298h2.15373v8.9298zM167.90804,180.05668v-1.88294h4.79237v1.88294zM177.21736,185.44101c-0.7431,0 -1.40433,-0.15954 -1.9837,-0.47861c-0.57937,-0.32327 -1.03698,-0.76199 -1.37285,-1.31617c-0.33167,-0.55837 -0.4975,-1.19442 -0.4975,-1.90813c0,-0.71791 0.16583,-1.35395 0.4975,-1.90813c0.33587,-0.55837 0.79348,-0.9971 1.37285,-1.31617c0.57937,-0.32327 1.2406,-0.4849 1.9837,-0.4849c0.7431,0 1.40223,0.16163 1.9774,0.4849c0.57937,0.31907 1.03488,0.7578 1.36655,1.31617c0.33167,0.55418 0.4975,1.19022 0.4975,1.90813c0,0.71371 -0.16583,1.34976 -0.4975,1.90813c-0.33167,0.55418 -0.78718,0.9929 -1.36655,1.31617c-0.57517,0.31907 -1.2343,0.47861 -1.9774,0.47861zM177.21736,183.58955c0.31907,0 0.60456,-0.07977 0.85645,-0.2393c0.2519,-0.16373 0.44922,-0.38415 0.59196,-0.66123c0.14274,-0.27709 0.20992,-0.59406 0.20152,-0.95092c0.0084,-0.36106 -0.05878,-0.68223 -0.20152,-0.96351c-0.14274,-0.28129 -0.34006,-0.5017 -0.59196,-0.66123c-0.2519,-0.16373 -0.53738,-0.2456 -0.85645,-0.2456c-0.32327,0 -0.61295,0.08187 -0.86905,0.2456c-0.2561,0.15954 -0.45552,0.37995 -0.59826,0.66123c-0.14274,0.28129 -0.20992,0.60246 -0.20152,0.96351c-0.0084,0.35686 0.05878,0.67383 0.20152,0.95092c0.14274,0.27709 0.34216,0.4975 0.59826,0.66123c0.2561,0.15954 0.54578,0.2393 0.86905,0.2393zM189.16874,185.44101c-0.69692,0 -1.31197,-0.11125 -1.84516,-0.33377c-0.53318,-0.22251 -0.95721,-0.52269 -1.27209,-0.90054l1.30357,-1.12725c0.27709,0.27709 0.58986,0.48071 0.93832,0.61085c0.35266,0.13015 0.68432,0.19522 0.995,0.19522c0.12595,0 0.2372,-0.01259 0.33377,-0.03778c0.10076,-0.02939 0.18473,-0.06717 0.2519,-0.11335c0.06717,-0.05038 0.11755,-0.10916 0.15114,-0.17633c0.03778,-0.06717 0.05668,-0.14694 0.05668,-0.2393c0,-0.17633 -0.07977,-0.31487 -0.2393,-0.41563c-0.07977,-0.04198 -0.21411,-0.09446 -0.40304,-0.15744c-0.18892,-0.06297 -0.43033,-0.13644 -0.72421,-0.22041c-0.42403,-0.10496 -0.79138,-0.23091 -1.10206,-0.37785c-0.30648,-0.15114 -0.55837,-0.32327 -0.7557,-0.51639c-0.17633,-0.18892 -0.31487,-0.39674 -0.41563,-0.62345c-0.09656,-0.23091 -0.14484,-0.4891 -0.14484,-0.77459c0,-0.33167 0.07767,-0.63185 0.23301,-0.90054c0.15534,-0.26869 0.36525,-0.5017 0.62975,-0.69902c0.26449,-0.19732 0.56887,-0.34636 0.91313,-0.44712c0.34846,-0.10496 0.70532,-0.15744 1.07057,-0.15744c0.39464,0 0.77039,0.04618 1.12725,0.13854c0.35686,0.08816 0.69062,0.21201 1.0013,0.37155c0.31068,0.15954 0.58566,0.35266 0.82497,0.57937l-1.12725,1.25949c-0.15954,-0.15114 -0.34006,-0.28758 -0.54158,-0.40934c-0.20152,-0.12175 -0.41143,-0.21831 -0.62975,-0.28968c-0.21411,-0.07137 -0.40934,-0.10706 -0.58566,-0.10706c-0.13435,0 -0.254,0.01259 -0.35896,0.03778c-0.10076,0.02099 -0.18892,0.05668 -0.26449,0.10706c-0.07137,0.04618 -0.12595,0.10286 -0.16373,0.17003c-0.03359,0.06717 -0.05038,0.14694 -0.05038,0.2393c0,0.08816 0.02519,0.17213 0.07557,0.2519c0.05038,0.07977 0.11965,0.14694 0.20782,0.20152c0.09236,0.05458 0.23511,0.11545 0.42823,0.18263c0.19732,0.06717 0.46601,0.14904 0.80608,0.2456c0.42403,0.11755 0.78718,0.2477 1.08946,0.39044c0.30648,0.14274 0.54788,0.31277 0.72421,0.51009c0.14694,0.15534 0.2561,0.33377 0.32747,0.53528c0.07137,0.20152 0.10706,0.41773 0.10706,0.64864c0,0.45761 -0.12805,0.86275 -0.38415,1.21541c-0.2561,0.35266 -0.60875,0.62975 -1.05797,0.83127c-0.44502,0.20152 -0.95511,0.30228 -1.53028,0.30228zM194.00414,185.30876v-8.9298h2.15373v8.9298zM192.74464,180.05668v-1.88294h4.79237v1.88294zM201.19542,185.4536c-0.52899,0 -0.9803,-0.11335 -1.35395,-0.34006c-0.36945,-0.22671 -0.65494,-0.55418 -0.85645,-0.9824c-0.20152,-0.43243 -0.30228,-0.94882 -0.30228,-1.54918v-4.40822h2.16003v4.11224c0,0.28549 0.04408,0.53109 0.13225,0.7368c0.09236,0.20572 0.22671,0.36525 0.40304,0.47861c0.18053,0.11335 0.39674,0.17003 0.64864,0.17003c0.18892,0 0.36106,-0.03149 0.51639,-0.09446c0.15534,-0.06297 0.28968,-0.14904 0.40304,-0.2582c0.11335,-0.11335 0.19942,-0.2435 0.2582,-0.39044c0.06297,-0.15114 0.09446,-0.31487 0.09446,-0.4912v-4.26338h2.16633v7.13503h-2.02778l-0.09446,-1.46101l0.40304,-0.16373c-0.10916,0.34006 -0.28968,0.64234 -0.54158,0.90683c-0.2477,0.26449 -0.54788,0.47441 -0.90054,0.62975c-0.34846,0.15534 -0.71791,0.23301 -1.10835,0.23301zM210.08355,185.4536c-0.61715,0 -1.16503,-0.15744 -1.64364,-0.47231c-0.47861,-0.31907 -0.85645,-0.7578 -1.13354,-1.31617c-0.27709,-0.56257 -0.41563,-1.20072 -0.41563,-1.91443c0,-0.71791 0.13854,-1.35605 0.41563,-1.91443c0.27709,-0.56257 0.65704,-1.0034 1.13984,-1.32247c0.4828,-0.32327 1.03698,-0.4849 1.66253,-0.4849c0.32327,0 0.63185,0.05038 0.92573,0.15114c0.29808,0.09656 0.56677,0.23091 0.80608,0.40304c0.2435,0.16793 0.44082,0.36106 0.59196,0.57937c0.15534,0.21831 0.2456,0.44502 0.27079,0.68013l-0.51009,0.11965v-4.59085h2.16003v9.9374h-1.9963l-0.12595,-1.62475l0.43452,0.06927c-0.02939,0.22251 -0.11755,0.43662 -0.26449,0.64234c-0.14694,0.20572 -0.33796,0.38834 -0.57307,0.54788c-0.23091,0.15534 -0.4975,0.27919 -0.79978,0.37155c-0.29808,0.09236 -0.61295,0.13854 -0.94462,0.13854zM210.63773,183.67142c0.33167,0 0.61715,-0.07977 0.85645,-0.2393c0.2435,-0.16373 0.43033,-0.38834 0.56047,-0.67383c0.13015,-0.28968 0.19522,-0.62555 0.19522,-1.00759c0,-0.39464 -0.06507,-0.7347 -0.19522,-1.02019c-0.13015,-0.28968 -0.31697,-0.51429 -0.56047,-0.67383c-0.2393,-0.15954 -0.52479,-0.2393 -0.85645,-0.2393c-0.33167,0 -0.61715,0.07977 -0.85645,0.2393c-0.23511,0.15954 -0.41983,0.38415 -0.55418,0.67383c-0.13435,0.28549 -0.20152,0.62555 -0.20152,1.02019c0,0.38205 0.06717,0.71791 0.20152,1.00759c0.13435,0.28549 0.31907,0.51009 0.55418,0.67383c0.2393,0.15954 0.52479,0.2393 0.85645,0.2393zM217.0673,188.40082l1.62475,-3.82886l0.03149,1.10206l-3.43841,-7.50028h2.43082l1.50509,3.58955c0.07977,0.18053 0.15534,0.37365 0.22671,0.57937c0.07137,0.20572 0.12385,0.40094 0.15744,0.58566l-0.28968,0.17633c0.05038,-0.13435 0.10916,-0.30228 0.17633,-0.5038c0.06717,-0.20152 0.14274,-0.41773 0.22671,-0.64864l1.31617,-3.77848h2.44342l-3.03538,7.13503l-1.2406,3.09205zM229.02628,185.30876v-9.40211h4.05557c0.59196,0 1.11675,0.13435 1.57437,0.40304c0.46181,0.26869 0.82917,0.63604 1.10206,1.10206c0.27289,0.46601 0.40934,0.9887 0.40934,1.56807c0,0.60875 -0.13644,1.15454 -0.40934,1.63734c-0.27289,0.47861 -0.64024,0.85645 -1.10206,1.13354c-0.45761,0.27709 -0.9824,0.41563 -1.57437,0.41563h-1.77588v3.14243zM231.26818,180.16373h1.4925c0.19732,0 0.37575,-0.04828 0.53528,-0.14484c0.15954,-0.10076 0.28758,-0.23511 0.38415,-0.40304c0.10076,-0.17213 0.15114,-0.36945 0.15114,-0.59196c0,-0.23511 -0.05038,-0.43243 -0.15114,-0.59196c-0.09656,-0.15954 -0.22461,-0.28339 -0.38415,-0.37155c-0.15954,-0.09236 -0.33796,-0.13854 -0.53528,-0.13854h-1.4925zM237.81151,185.30876v-7.13503h2.14743v7.13503zM238.88208,176.7631c-0.40304,0 -0.71791,-0.09446 -0.94462,-0.28339c-0.22671,-0.19312 -0.34006,-0.47021 -0.34006,-0.83127c0,-0.31907 0.11545,-0.58147 0.34636,-0.78718c0.23091,-0.20992 0.54368,-0.31487 0.93832,-0.31487c0.40304,0 0.71581,0.09656 0.93832,0.28968c0.22671,0.19312 0.34006,0.46391 0.34006,0.81237c0,0.33167 -0.11545,0.60036 -0.34636,0.80608c-0.22671,0.20572 -0.53738,0.30858 -0.93202,0.30858zM246.39486,185.30876v-7.13503h2.14743v7.13503zM247.46543,176.7631c-0.40304,0 -0.71791,-0.09446 -0.94462,-0.28339c-0.22671,-0.19312 -0.34006,-0.47021 -0.34006,-0.83127c0,-0.31907 0.11545,-0.58147 0.34636,-0.78718c0.23091,-0.20992 0.54368,-0.31487 0.93832,-0.31487c0.40304,0 0.71581,0.09656 0.93832,0.28968c0.22671,0.19312 0.34006,0.46391 0.34006,0.81237c0,0.33167 -0.11545,0.60036 -0.34636,0.80608c-0.22671,0.20572 -0.53738,0.30858 -0.93202,0.30858zM250.55386,185.30876v-7.13503h2.04668l0.06297,1.45471l-0.42823,0.15744c0.10076,-0.31907 0.27709,-0.61085 0.52899,-0.87535c0.2561,-0.26449 0.56258,-0.47651 0.91944,-0.63604c0.36106,-0.16373 0.7389,-0.2456 1.13354,-0.2456c0.53738,0 0.9887,0.10916 1.35395,0.32747c0.36525,0.21831 0.64234,0.54578 0.83127,0.9824c0.18892,0.43243 0.28339,0.96351 0.28339,1.59326v4.37674h-2.16003v-4.20671c0,-0.28549 -0.04198,-0.52059 -0.12595,-0.70532c-0.07977,-0.18892 -0.20362,-0.32957 -0.37155,-0.42193c-0.16373,-0.09656 -0.36525,-0.14064 -0.60456,-0.13225c-0.18892,0 -0.36525,0.02939 -0.52899,0.08816c-0.15954,0.05878 -0.29809,0.14484 -0.41564,0.2582c-0.11335,0.10916 -0.20362,0.23511 -0.27079,0.37785c-0.06717,0.14274 -0.10076,0.30018 -0.10076,0.47231v4.26968h-1.06427c-0.2519,0 -0.46811,0 -0.64864,0c-0.17633,0 -0.32327,0 -0.44082,0zM266.02052,185.42841c-0.60036,0 -1.13564,-0.15744 -1.60585,-0.47231c-0.47021,-0.31907 -0.84596,-0.7578 -1.12725,-1.31617c-0.27709,-0.56257 -0.41563,-1.19652 -0.41563,-1.90183c0,-0.72631 0.13854,-1.36655 0.41563,-1.92073c0.28129,-0.55837 0.66333,-0.995 1.14614,-1.30987c0.4828,-0.31907 1.03278,-0.47861 1.64994,-0.47861c0.34006,0 0.65074,0.05038 0.93202,0.15114c0.28549,0.09656 0.53528,0.23301 0.7494,0.40934c0.21411,0.17213 0.39674,0.37365 0.54788,0.60456c0.15534,0.22671 0.26869,0.47021 0.34006,0.73051l-0.44712,-0.05668v-1.69402h2.13484v7.13503h-2.17262v-1.71921l0.4849,-0.01259c-0.07137,0.2519 -0.18892,0.4891 -0.35266,0.71161c-0.15954,0.22251 -0.35686,0.41983 -0.59196,0.59196c-0.23091,0.16793 -0.4912,0.30228 -0.78089,0.40304c-0.28549,0.09656 -0.58776,0.14484 -0.90683,0.14484zM266.60618,183.61474c0.33167,0 0.61715,-0.07557 0.85645,-0.22671c0.2435,-0.15114 0.43243,-0.36735 0.56677,-0.64864c0.13435,-0.28549 0.20152,-0.61925 0.20152,-1.0013c0,-0.38625 -0.06717,-0.72001 -0.20152,-1.0013c-0.13435,-0.28129 -0.32327,-0.4996 -0.56677,-0.65494c-0.2393,-0.15954 -0.52479,-0.2393 -0.85645,-0.2393c-0.31907,0 -0.59826,0.07977 -0.83756,0.2393c-0.23511,0.15534 -0.41983,0.37365 -0.55418,0.65494c-0.13435,0.28129 -0.20152,0.61505 -0.20152,1.0013c0,0.38205 0.06717,0.71581 0.20152,1.0013c0.13435,0.28129 0.31907,0.4975 0.55418,0.64864c0.2393,0.15114 0.51849,0.22671 0.83756,0.22671zM272.23388,185.30876v-7.13503h2.04668l0.06297,1.45471l-0.42823,0.15744c0.10076,-0.31907 0.27709,-0.61085 0.52899,-0.87535c0.2561,-0.26449 0.56257,-0.47651 0.91943,-0.63604c0.36106,-0.16373 0.7389,-0.2456 1.13354,-0.2456c0.53738,0 0.9887,0.10916 1.35395,0.32747c0.36525,0.21831 0.64234,0.54578 0.83127,0.9824c0.18892,0.43243 0.28339,0.96351 0.28339,1.59326v4.37674h-2.16003v-4.20671c0,-0.28549 -0.04198,-0.52059 -0.12595,-0.70532c-0.07977,-0.18892 -0.20362,-0.32957 -0.37155,-0.42193c-0.16373,-0.09656 -0.36525,-0.14064 -0.60456,-0.13225c-0.18892,0 -0.36525,0.02939 -0.52899,0.08816c-0.15954,0.05878 -0.29808,0.14484 -0.41563,0.2582c-0.11335,0.10916 -0.20362,0.23511 -0.27079,0.37785c-0.06717,0.14274 -0.10076,0.30018 -0.10076,0.47231v4.26968h-1.06427c-0.2519,0 -0.46811,0 -0.64864,0c-0.17633,0 -0.32327,0 -0.44082,0zM283.89331,185.44101c-0.68852,0 -1.30567,-0.15954 -1.85145,-0.47861c-0.54578,-0.32327 -0.97821,-0.76409 -1.29728,-1.32247c-0.31487,-0.56257 -0.47231,-1.19652 -0.47231,-1.90183c0,-0.70951 0.15744,-1.34346 0.47231,-1.90183c0.31907,-0.56257 0.7515,-1.0034 1.29728,-1.32247c0.54578,-0.32327 1.16293,-0.4849 1.85145,-0.4849c0.63814,0 1.22381,0.11335 1.75699,0.34006c0.53318,0.22251 0.95511,0.53528 1.26579,0.93832l-1.16503,1.39174c-0.12595,-0.14274 -0.27499,-0.27499 -0.44712,-0.39674c-0.16793,-0.12595 -0.35476,-0.22461 -0.56047,-0.29598c-0.20572,-0.07557 -0.42193,-0.11335 -0.64864,-0.11335c-0.34006,0 -0.64024,0.07977 -0.90054,0.2393c-0.2561,0.15534 -0.45761,0.37155 -0.60456,0.64864c-0.14274,0.27709 -0.21411,0.59616 -0.21411,0.95721c0,0.34006 0.07347,0.64864 0.22041,0.92573c0.15114,0.27709 0.35686,0.4975 0.61715,0.66123c0.2603,0.15954 0.55418,0.2393 0.88164,0.2393c0.23511,0 0.45132,-0.02939 0.64864,-0.08816c0.19732,-0.05878 0.37785,-0.14484 0.54158,-0.2582c0.16793,-0.11755 0.32327,-0.26239 0.46601,-0.43452l1.15244,1.41063c-0.30228,0.38625 -0.72421,0.69062 -1.26579,0.91313c-0.54158,0.22251 -1.12305,0.33377 -1.7444,0.33377zM288.21012,185.30876v-7.13503h2.14743v7.13503zM289.28069,176.7631c-0.40304,0 -0.71791,-0.09446 -0.94462,-0.28339c-0.22671,-0.19312 -0.34006,-0.47021 -0.34006,-0.83127c0,-0.31907 0.11545,-0.58147 0.34636,-0.78718c0.23091,-0.20992 0.54368,-0.31487 0.93832,-0.31487c0.40304,0 0.71581,0.09656 0.93832,0.28968c0.22671,0.19312 0.34006,0.46391 0.34006,0.81237c0,0.33167 -0.11545,0.60036 -0.34636,0.80608c-0.22671,0.20572 -0.53738,0.30858 -0.93202,0.30858zM295.76976,185.44101c-0.78928,0 -1.47571,-0.15744 -2.05927,-0.47231c-0.57937,-0.31907 -1.03068,-0.7536 -1.35395,-1.30357c-0.31907,-0.54998 -0.47861,-1.17973 -0.47861,-1.88924c0,-0.54578 0.08816,-1.04748 0.26449,-1.50509c0.18053,-0.45761 0.43033,-0.85436 0.7494,-1.19022c0.32327,-0.33587 0.70742,-0.59406 1.15244,-0.77459c0.44502,-0.18473 0.92992,-0.27709 1.45471,-0.27709c0.5038,0 0.96351,0.09026 1.37914,0.27079c0.41563,0.17633 0.77459,0.42613 1.07687,0.7494c0.30648,0.32327 0.53948,0.70532 0.69902,1.14614c0.16373,0.43662 0.2372,0.91523 0.22041,1.43582l-0.01259,0.57307h-5.68661l-0.30858,-1.20911h4.24449l-0.22671,0.2582v-0.27079c-0.01679,-0.22251 -0.08606,-0.41983 -0.20782,-0.59196c-0.12175,-0.17633 -0.28129,-0.31277 -0.47861,-0.40934c-0.19732,-0.10076 -0.41983,-0.15114 -0.66753,-0.15114c-0.34846,0 -0.64654,0.06927 -0.89424,0.20782c-0.2477,0.13854 -0.43452,0.34006 -0.56047,0.60456c-0.12595,0.26449 -0.18892,0.58776 -0.18892,0.96981c0,0.39464 0.08187,0.7389 0.2456,1.03278c0.16793,0.28968 0.41143,0.51639 0.73051,0.68013c0.31907,0.15954 0.69692,0.2393 1.13354,0.2393c0.30648,0 0.57727,-0.04408 0.81237,-0.13225c0.2393,-0.09236 0.4975,-0.2456 0.77459,-0.45971l1.00759,1.42323c-0.27709,0.2435 -0.57307,0.44082 -0.88794,0.59196c-0.31068,0.15114 -0.62975,0.26449 -0.95721,0.34006c-0.32747,0.07557 -0.65284,0.11335 -0.97611,0.11335zM300.24054,185.30876v-7.13503h2.04668l0.06297,1.45471l-0.42823,0.15744c0.10076,-0.31907 0.27709,-0.61085 0.52899,-0.87535c0.2561,-0.26449 0.56257,-0.47651 0.91943,-0.63604c0.36106,-0.16373 0.7389,-0.2456 1.13354,-0.2456c0.53738,0 0.9887,0.10916 1.35395,0.32747c0.36525,0.21831 0.64234,0.54578 0.83127,0.9824c0.18892,0.43243 0.28339,0.96351 0.28339,1.59326v4.37674h-2.16003v-4.20671c0,-0.28549 -0.04198,-0.52059 -0.12595,-0.70532c-0.07977,-0.18892 -0.20362,-0.32957 -0.37155,-0.42193c-0.16373,-0.09656 -0.36525,-0.14064 -0.60456,-0.13225c-0.18892,0 -0.36525,0.02939 -0.52899,0.08816c-0.15954,0.05878 -0.29808,0.14484 -0.41563,0.2582c-0.11335,0.10916 -0.20362,0.23511 -0.27079,0.37785c-0.06717,0.14274 -0.10076,0.30018 -0.10076,0.47231v4.26968h-1.06427c-0.2519,0 -0.46811,0 -0.64864,0c-0.17633,0 -0.32327,0 -0.44082,0zM309.36212,185.30876v-8.9298h2.15373v8.9298zM308.10263,180.05668v-1.88294h4.79237v1.88294z" fill="#000000" stroke="none" stroke-width="1" stroke-linecap="square"/><path d="M219.80119,201.43027v-8.9298h2.15373v8.9298zM218.54169,196.17818v-1.88294h4.79237v1.88294zM224.6813,201.43027v-7.13503h2.14743v7.13503zM225.75187,192.88461c-0.40304,0 -0.71791,-0.09446 -0.94462,-0.28339c-0.22671,-0.19312 -0.34006,-0.47021 -0.34006,-0.83127c0,-0.31907 0.11545,-0.58147 0.34636,-0.78718c0.23091,-0.20992 0.54368,-0.31487 0.93832,-0.31487c0.40304,0 0.71581,0.09656 0.93832,0.28968c0.22671,0.19312 0.34006,0.46391 0.34006,0.81237c0,0.33167 -0.11545,0.60036 -0.34636,0.80608c-0.22671,0.20572 -0.53738,0.30858 -0.93202,0.30858zM228.82771,201.43027v-7.13503h2.04668l0.06297,1.29098l-0.28339,0.01259c0.10916,-0.23091 0.2456,-0.43452 0.40934,-0.61085c0.16793,-0.18053 0.35686,-0.33167 0.56677,-0.45342c0.20992,-0.12175 0.42823,-0.21411 0.65494,-0.27709c0.23091,-0.06297 0.46181,-0.09446 0.69272,-0.09446c0.35266,0 0.67173,0.05458 0.95721,0.16373c0.28549,0.10496 0.53528,0.27709 0.7494,0.51639c0.21411,0.23511 0.38415,0.55418 0.51009,0.95721l-0.33377,-0.02519l0.10706,-0.21411c0.11755,-0.21411 0.26659,-0.40724 0.44712,-0.57937c0.18473,-0.17633 0.38834,-0.32537 0.61085,-0.44712c0.22671,-0.12175 0.45971,-0.21411 0.69902,-0.27709c0.2435,-0.06297 0.47651,-0.09446 0.69902,-0.09446c0.56677,0 1.03698,0.11125 1.41063,0.33377c0.37785,0.21831 0.66333,0.54788 0.85645,0.9887c0.19312,0.43662 0.28968,0.96771 0.28968,1.59326v4.35155h-2.16633v-4.17522c0,-0.28968 -0.03988,-0.52689 -0.11965,-0.71161c-0.07977,-0.18892 -0.19942,-0.32957 -0.35896,-0.42193c-0.15534,-0.09656 -0.34846,-0.14484 -0.57937,-0.14484c-0.18892,0 -0.36315,0.03149 -0.52269,0.09446c-0.15534,0.06297 -0.28968,0.14904 -0.40304,0.2582c-0.10916,0.10496 -0.19522,0.22881 -0.2582,0.37155c-0.06297,0.14274 -0.09446,0.30438 -0.09446,0.4849v4.24449h-2.16003v-4.18781c0,-0.26869 -0.04198,-0.4975 -0.12595,-0.68642c-0.07977,-0.18892 -0.19942,-0.33167 -0.35896,-0.42823c-0.15954,-0.10076 -0.34846,-0.15114 -0.56677,-0.15114c-0.18473,0 -0.35686,0.03149 -0.51639,0.09446c-0.15534,0.06297 -0.28968,0.14904 -0.40304,0.2582c-0.10916,0.10496 -0.19522,0.22881 -0.2582,0.37155c-0.06297,0.14274 -0.09446,0.30018 -0.09446,0.47231v4.25708zM245.16296,201.56251c-0.78928,0 -1.47571,-0.15744 -2.05927,-0.47231c-0.57937,-0.31907 -1.03068,-0.7536 -1.35395,-1.30357c-0.31907,-0.54998 -0.47861,-1.17973 -0.47861,-1.88924c0,-0.54578 0.08816,-1.04748 0.26449,-1.50509c0.18053,-0.45761 0.43033,-0.85436 0.7494,-1.19022c0.32327,-0.33587 0.70742,-0.59406 1.15244,-0.77459c0.44502,-0.18473 0.92992,-0.27709 1.45471,-0.27709c0.5038,0 0.96351,0.09026 1.37914,0.27079c0.41563,0.17633 0.77459,0.42613 1.07687,0.7494c0.30648,0.32327 0.53948,0.70532 0.69902,1.14614c0.16373,0.43662 0.2372,0.91523 0.22041,1.43582l-0.01259,0.57307h-5.68661l-0.30858,-1.20911h4.24449l-0.22671,0.2582v-0.27079c-0.01679,-0.22251 -0.08606,-0.41983 -0.20782,-0.59196c-0.12175,-0.17633 -0.28129,-0.31277 -0.47861,-0.40934c-0.19732,-0.10076 -0.41983,-0.15114 -0.66753,-0.15114c-0.34846,0 -0.64654,0.06927 -0.89424,0.20782c-0.2477,0.13854 -0.43452,0.34006 -0.56047,0.60456c-0.12595,0.26449 -0.18892,0.58776 -0.18892,0.96981c0,0.39464 0.08187,0.7389 0.2456,1.03278c0.16793,0.28968 0.41143,0.51639 0.73051,0.68013c0.31907,0.15954 0.69692,0.2393 1.13354,0.2393c0.30648,0 0.57727,-0.04408 0.81237,-0.13225c0.2393,-0.09236 0.4975,-0.2456 0.77459,-0.45971l1.00759,1.42323c-0.27709,0.2435 -0.57307,0.44082 -0.88794,0.59196c-0.31068,0.15114 -0.62975,0.26449 -0.95721,0.34006c-0.32747,0.07557 -0.65284,0.11335 -0.97611,0.11335zM252.03939,201.56251c-0.69692,0 -1.31197,-0.11125 -1.84516,-0.33377c-0.53318,-0.22251 -0.95721,-0.52269 -1.27209,-0.90054l1.30357,-1.12725c0.27709,0.27709 0.58986,0.48071 0.93832,0.61085c0.35266,0.13015 0.68432,0.19522 0.995,0.19522c0.12595,0 0.2372,-0.01259 0.33377,-0.03778c0.10076,-0.02939 0.18473,-0.06717 0.2519,-0.11335c0.06717,-0.05038 0.11755,-0.10916 0.15114,-0.17633c0.03778,-0.06717 0.05668,-0.14694 0.05668,-0.2393c0,-0.17633 -0.07977,-0.31487 -0.2393,-0.41563c-0.07977,-0.04198 -0.21411,-0.09446 -0.40304,-0.15744c-0.18892,-0.06297 -0.43033,-0.13644 -0.72421,-0.22041c-0.42403,-0.10496 -0.79138,-0.23091 -1.10206,-0.37785c-0.30648,-0.15114 -0.55837,-0.32327 -0.7557,-0.51639c-0.17633,-0.18892 -0.31487,-0.39674 -0.41563,-0.62345c-0.09656,-0.23091 -0.14484,-0.4891 -0.14484,-0.77459c0,-0.33167 0.07767,-0.63185 0.23301,-0.90054c0.15534,-0.26869 0.36525,-0.5017 0.62975,-0.69902c0.26449,-0.19732 0.56887,-0.34636 0.91313,-0.44712c0.34846,-0.10496 0.70532,-0.15744 1.07057,-0.15744c0.39464,0 0.77039,0.04618 1.12725,0.13854c0.35686,0.08816 0.69062,0.21201 1.0013,0.37155c0.31068,0.15954 0.58566,0.35266 0.82497,0.57937l-1.12725,1.25949c-0.15954,-0.15114 -0.34006,-0.28758 -0.54158,-0.40934c-0.20152,-0.12175 -0.41143,-0.21831 -0.62975,-0.28968c-0.21411,-0.07137 -0.40934,-0.10706 -0.58566,-0.10706c-0.13435,0 -0.254,0.01259 -0.35896,0.03778c-0.10076,0.02099 -0.18892,0.05668 -0.26449,0.10706c-0.07137,0.04618 -0.12595,0.10286 -0.16373,0.17003c-0.03359,0.06717 -0.05038,0.14694 -0.05038,0.2393c0,0.08816 0.02519,0.17213 0.07557,0.2519c0.05038,0.07977 0.11965,0.14694 0.20782,0.20152c0.09236,0.05458 0.23511,0.11545 0.42823,0.18263c0.19732,0.06717 0.46601,0.14904 0.80608,0.2456c0.42403,0.11755 0.78718,0.2477 1.08946,0.39044c0.30648,0.14274 0.54788,0.31277 0.72421,0.51009c0.14694,0.15534 0.2561,0.33377 0.32747,0.53528c0.07137,0.20152 0.10706,0.41773 0.10706,0.64864c0,0.45761 -0.12805,0.86275 -0.38415,1.21541c-0.2561,0.35266 -0.60875,0.62975 -1.05797,0.83127c-0.44502,0.20152 -0.95511,0.30228 -1.53028,0.30228zM257.95165,198.20596l-0.42823,-1.75699c0.2603,-0.06297 0.5059,-0.13644 0.7368,-0.22041c0.23091,-0.08816 0.44502,-0.18053 0.64234,-0.27709c0.19732,-0.10076 0.36525,-0.21621 0.5038,-0.34636c0.13854,-0.13015 0.2477,-0.27289 0.32747,-0.42823c0.08397,-0.15534 0.12595,-0.32327 0.12595,-0.5038c0,-0.18053 -0.04618,-0.33377 -0.13854,-0.45971c-0.08816,-0.13015 -0.20782,-0.23091 -0.35896,-0.30228c-0.15114,-0.07557 -0.32957,-0.11335 -0.53528,-0.11335c-0.29808,0 -0.59616,0.10706 -0.89424,0.32117c-0.29388,0.20992 -0.56467,0.54788 -0.81237,1.01389l-1.46731,-1.36025c0.40304,-0.61715 0.88374,-1.09576 1.44212,-1.43582c0.56257,-0.34006 1.14824,-0.51009 1.75699,-0.51009c0.59196,0 1.12515,0.11965 1.59956,0.35896c0.47441,0.23511 0.85016,0.56047 1.12725,0.97611c0.27709,0.41563 0.41563,0.88374 0.41563,1.40433c0,0.33167 -0.06927,0.65913 -0.20782,0.9824c-0.13854,0.32327 -0.33167,0.62555 -0.57937,0.90683c-0.2435,0.28129 -0.53109,0.52899 -0.86275,0.7431c-0.33167,0.21411 -0.69902,0.37995 -1.10206,0.4975l-0.13854,0.51009zM257.46674,200.38489c0,-0.36106 0.10706,-0.65284 0.32117,-0.87535c0.21831,-0.22251 0.4975,-0.33377 0.83756,-0.33377c0.36525,0 0.65074,0.10496 0.85645,0.31487c0.20572,0.20992 0.30858,0.50799 0.30858,0.89424c0,0.34846 -0.10706,0.63394 -0.32117,0.85645c-0.21411,0.22251 -0.4954,0.33377 -0.84386,0.33377c-0.36945,0 -0.65494,-0.10286 -0.85645,-0.30858c-0.20152,-0.20572 -0.30228,-0.4996 -0.30228,-0.88164z" fill="#000000" stroke="none" stroke-width="1" stroke-linecap="square"/></g></g></svg>