<svg version="1.1" xmlns="http://www.w3.org/2000/svg" xmlns:xlink="http://www.w3.org/1999/xlink" width="183.5" height="183.5" viewBox="0,0,183.5,183.5"><defs><radialGradient cx="240" cy="180" r="87" gradientUnits="userSpaceOnUse" id="color-1"><stop offset="0" stop-color="#888888" stop-opacity="0"/><stop offset="1" stop-color="#888888"/></radialGradient></defs><g transform="translate(-148.25,-88.25)"><g data-paper-data="{&quot;isPaintingLayer&quot;:true}" fill-rule="nonzero" stroke-linecap="butt" stroke-linejoin="miter" stroke-miterlimit="10" stroke-dasharray="" stroke-dashoffset="0" style="mix-blend-mode: normal"><path d="M150.5,180c0,-49.42949 40.07051,-89.5 89.5,-89.5c49.42949,0 89.5,40.07051 89.5,89.5c0,49.42949 -40.07051,89.5 -89.5,89.5c-49.42949,0 -89.5,-40.07051 -89.5,-89.5z" fill="#c3c3c3" stroke="#000000" stroke-width="4.5"/><path d="M153,180c0,-48.04877 38.95123,-87 87,-87c48.04877,0 87,38.95123 87,87c0,48.04877 -38.95123,87 -87,87c-48.04877,0 -87,-38.95123 -87,-87z" fill="url(#color-1)" stroke="none" stroke-width="0"/><path d="M183,180c0,-31.48023 25.51977,-57 57,-57c31.48023,0 57,25.51977 57,57c0,31.48023 -25.51977,57 -57,57c-31.48023,0 -57,-25.51977 -57,-57z" fill="#a5a5a5" stroke="none" stroke-width="0"/><path d="M239.91667,180.41667l84.66667,-22.16667c0,0 2.4615,9.50043 2.66667,21.41667c0.2089,12.13259 -3,22.08333 -3,22.08333z" fill="#a053d4" stroke="#000000" stroke-width="2"/><g stroke="#000000" stroke-width="2"><path d="M258.39932,185.24064l-0.20456,-9.00044l12.27333,-2.86378v14.52345z" fill="#bb8649"/><path d="M286.51409,191.87708l-0.20456,-22.70567l12.68245,-3.47745l-0.40911,28.84233z" fill="#bb8649"/><path d="M309.31043,196.46797l0.61367,-34.16078l13.90978,-3.27289c0,0 1.81487,13.08527 2.01388,19.88468c0.20956,7.15992 -0.78655,22.04921 -0.78655,22.04921z" fill="#bb8649"/><path d="M257.26265,184.51308c0,0 -13.50067,-2.9777 -13.50067,-4.18178c0,-1.10585 23.31933,-6.45511 23.31933,-6.45511l59.31526,-1.89361l0.41497,12.53049z" fill="#bb8649"/></g></g></g></svg>