<svg version="1.1" xmlns="http://www.w3.org/2000/svg" xmlns:xlink="http://www.w3.org/1999/xlink" width="83.33497" height="86.71345" viewBox="0,0,83.33497,86.71345"><g transform="translate(-198.33252,-136.64328)"><g data-paper-data="{&quot;isPaintingLayer&quot;:true}" fill-rule="nonzero" stroke="none" stroke-width="0" stroke-linecap="butt" stroke-linejoin="miter" stroke-miterlimit="10" stroke-dasharray="" stroke-dashoffset="0" style="mix-blend-mode: normal"><path d="M208.30223,180c0,-8.63568 1.81311,-16.19142 7.41417,-21.90832c5.75337,-5.87236 15.41309,-9.78945 24.2836,-9.78945c7.47242,0 14.01778,0.24933 19.53549,4.87176c1.65939,1.39014 3.22584,4.41905 4.6966,6.39079c0.73764,0.9889 2.26127,2.0091 2.92078,3.05987c3.20071,5.09957 4.5449,10.91913 4.5449,17.37535c0,9.35735 -2.41441,17.22094 -8.86261,23.02318c-5.61542,5.05289 -14.68631,8.67459 -22.83516,8.67459c-8.91847,0 -14.51632,-1.49624 -23.28322,-8.24465c-6.30692,-4.85482 -8.41455,-14.86539 -8.41455,-23.45312z" fill="#6e05ff"/><path d="M235.47056,214.36125v-68.72249h9.05887v68.72249z" fill="#ffdfa6"/><path d="M253.90269,210.61475v-62.16262h9.05887v62.16262z" fill="#ffdfa6"/><path d="M218.60632,211.55387v-62.16261h9.05887v62.16261z" fill="#ffdfa6"/><path d="M203.9257,174.37625h68.72249v9.05887h-68.72249z" fill="#ffdfa6"/><path d="M207.6722,192.80838h62.16261v9.05887l-62.16262,0z" fill="#ffdfa6"/><path d="M206.73307,157.51201h62.16261v9.05887h-62.16261z" fill="#ffdfa6"/><path d="M250,216.69005c0,3.6819 -4.92487,6.66667 -11,6.66667c-6.07513,0 -11,-2.98477 -11,-6.66667c0,-3.6819 4.92487,-6.66666 11,-6.66666c6.07513,0 11,2.98476 11,6.66666z" fill="#f5c185"/><path d="M264.68036,211.05757c0.88114,3.57491 -3.18632,7.65155 -9.08492,9.10543c-5.89859,1.45388 -11.39466,-0.26555 -12.2758,-3.84046c-0.88114,-3.57491 3.18631,-7.65155 9.08491,-9.10543c5.89859,-1.45388 11.39467,0.26556 12.27581,3.84046z" fill="#f5c185"/><path d="M225.92878,207.21711c5.8986,1.45388 9.96605,5.53052 9.08491,9.10543c-0.88114,3.57491 -6.37721,5.29434 -12.2758,3.84046c-5.8986,-1.45388 -9.96606,-5.53052 -9.08492,-9.10543c0.88114,-3.57491 6.37721,-5.29434 12.2758,-3.84046z" data-paper-data="{&quot;index&quot;:null}" fill="#f5c185"/><path d="M221.66381,213.90958c-2.52808,2.67679 -8.15794,1.46522 -12.57464,-2.7061c-4.4167,-4.17132 -5.94773,-9.72282 -3.41965,-12.39961c2.52808,-2.67679 8.15793,-1.46522 12.57463,2.7061c4.4167,4.17132 5.94774,9.72282 3.41966,12.39961z" fill="#f5c185"/><path d="M262.75585,200.50997c4.4167,-4.17132 10.04655,-5.3829 12.57463,-2.70611c2.52808,2.67679 0.99705,8.22829 -3.41965,12.39962c-4.4167,4.17132 -10.04656,5.38289 -12.57464,2.7061c-2.52808,-2.67679 -0.99704,-8.22828 3.41966,-12.39961z" data-paper-data="{&quot;index&quot;:null}" fill="#f5c185"/><path d="M267.27846,190.11677c1.73744,-5.82138 6.00602,-9.68693 9.53413,-8.63393c3.52811,1.053 4.97973,6.62579 3.24229,12.44717c-1.73744,5.82138 -6.00602,9.68693 -9.53414,8.63393c-3.52812,-1.053 -4.97973,-6.62579 -3.24228,-12.44717z" data-paper-data="{&quot;index&quot;:null}" fill="#f5c185"/><path d="M209.14593,202.89727c-3.52812,1.053 -7.79669,-2.81254 -9.53414,-8.63393c-1.73745,-5.82138 -0.28583,-11.39417 3.24229,-12.44717c3.52812,-1.053 7.79669,2.81255 9.53413,8.63393c1.73745,5.82138 0.28583,11.39417 -3.24229,12.44717z" data-paper-data="{&quot;index&quot;:null}" fill="#f5c185"/><path d="M205.12917,192.35596c-3.68165,0.04323 -6.72404,-4.84625 -6.79538,-10.92095c-0.07134,-6.07471 2.85539,-11.0343 6.53704,-11.07753c3.68165,-0.04323 6.72404,4.84625 6.79538,10.92096c0.07134,6.07471 -2.85539,11.03429 -6.53704,11.07752z" data-paper-data="{&quot;index&quot;:null}" fill="#f5c185"/><path d="M275.12917,190.6893c-3.68165,0.04323 -6.72404,-4.84625 -6.79538,-10.92096c-0.07134,-6.07471 2.85539,-11.03429 6.53704,-11.07753c3.68165,-0.04324 6.72403,4.84625 6.79537,10.92096c0.07134,6.07471 -2.85539,11.03429 -6.53703,11.07753z" data-paper-data="{&quot;index&quot;:null}" fill="#f5c185"/><path d="M239.33333,149.97661c-6.07513,0 -11,-2.98477 -11,-6.66667c0,-3.6819 4.92487,-6.66667 11,-6.66667c6.07513,0 11,2.98477 11,6.66667c0,3.6819 -4.92487,6.66667 -11,6.66667z" data-paper-data="{&quot;index&quot;:null}" fill="#f5c185"/><path d="M252.73789,152.78289c-5.89859,-1.45388 -9.96605,-5.53052 -9.08491,-9.10543c0.88114,-3.57491 6.37721,-5.29434 12.2758,-3.84046c5.89859,1.45388 9.96606,5.53052 9.08492,9.10543c-0.88114,3.57491 -6.37721,5.29434 -12.27581,3.84046z" data-paper-data="{&quot;index&quot;:null}" fill="#f5c185"/><path d="M213.98631,148.94243c-0.88114,-3.57491 3.18632,-7.65154 9.08491,-9.10542c5.8986,-1.45388 11.39466,0.26555 12.2758,3.84046c0.88114,3.57491 -3.18631,7.65155 -9.08491,9.10543c-5.89859,1.45388 -11.39467,-0.26556 -12.27581,-3.84046z" data-paper-data="{&quot;index&quot;:null}" fill="#f5c185"/><path d="M218.57749,158.49003c-4.4167,4.17132 -10.04655,5.3829 -12.57463,2.70611c-2.52808,-2.67679 -0.99705,-8.22829 3.41965,-12.39962c4.4167,-4.17132 10.04656,-5.38289 12.57464,-2.7061c2.52808,2.67679 0.99704,8.22829 -3.41966,12.39961z" data-paper-data="{&quot;index&quot;:null}" fill="#f5c185"/><path d="M259.66952,147.09042c2.52808,-2.67679 8.15794,-1.46522 12.57464,2.7061c4.4167,4.17132 5.94773,9.72283 3.41965,12.39961c-2.52808,2.67679 -8.15793,1.46522 -12.57463,-2.7061c-4.4167,-4.17133 -5.94774,-9.72282 -3.41966,-12.39961z" data-paper-data="{&quot;index&quot;:null}" fill="#f5c185"/><path d="M270.85408,157.43607c3.52812,-1.053 7.7967,2.81254 9.53414,8.63393c1.73744,5.82138 0.28583,11.39417 -3.24229,12.44717c-3.52812,1.053 -7.79669,-2.81255 -9.53413,-8.63393c-1.73744,-5.82138 -0.28583,-11.39417 3.24228,-12.44717z" data-paper-data="{&quot;index&quot;:null}" fill="#f5c185"/><path d="M212.72155,169.5499c-1.73745,5.82138 -6.00602,9.68693 -9.53413,8.63393c-3.52812,-1.053 -4.97974,-6.62579 -3.24229,-12.44717c1.73745,-5.82138 6.00602,-9.68693 9.53414,-8.63393c3.52812,1.053 4.97973,6.62579 3.24229,12.44717z" data-paper-data="{&quot;index&quot;:null}" fill="#f5c185"/></g></g></svg>