<svg version="1.1" xmlns="http://www.w3.org/2000/svg" xmlns:xlink="http://www.w3.org/1999/xlink" width="205.64286" height="99.25" viewBox="0,0,205.64286,99.25"><g transform="translate(-137.30606,-131)"><g data-paper-data="{&quot;isPaintingLayer&quot;:true}" fill-rule="nonzero" stroke-linejoin="miter" stroke-miterlimit="10" stroke-dasharray="" stroke-dashoffset="0" style="mix-blend-mode: normal"><path d="M140.55606,207.25c0,-18.73959 -0.38249,-45.48871 0,-55.5c0.5,-13.0871 3.89541,-16.75 15.32143,-16.75c22.08229,0 127.56734,0 168,0c15.33535,0 15.82143,4.98326 15.82143,16.75c0,17.95892 0,45.32915 0,56c0,14.97422 -0.38765,19.25 -14.32143,19.25c-38.12556,0 -140.83396,0 -165,0c-18.91714,0 -19.82143,-3.40978 -19.82143,-19.75z" fill="#ffffff" stroke-opacity="0.25901" stroke="#000000" stroke-width="6.5" stroke-linecap="butt"/><path d="M140.47107,205.25c0,-18.73959 -0.38249,-45.48871 0,-55.5c0.5,-13.0871 3.89541,-16.75 15.32143,-16.75c22.08229,0 127.56734,0 168,0c15.33535,0 15.82143,4.98326 15.82143,16.75c0,17.95892 0,45.32915 0,56c0,14.97422 -0.38765,19.25 -14.32143,19.25c-38.12556,0 -140.83396,0 -165,0c-18.91714,0 -19.82143,-3.40978 -19.82143,-19.75z" fill="#ffffff" stroke="#000000" stroke-width="4" stroke-linecap="butt"/><path d="M156.47461,168.51716l-2.98942,-9.98478h2.46777l1.49805,5.24987c0.06242,0.2363 0.12038,0.47706 0.17388,0.72227c0.0535,0.24076 0.09586,0.47037 0.12707,0.68884c0.03567,0.21847 0.06242,0.42133 0.08025,0.60858c0.01783,0.1828 0.0379,0.33662 0.06019,0.46145h-0.31432c0.0535,-0.35222 0.10255,-0.66654 0.14713,-0.94297c0.04458,-0.27643 0.09363,-0.53502 0.14713,-0.77578c0.05796,-0.24076 0.1293,-0.49489 0.21401,-0.7624l1.48468,-3.95245h1.93944l1.45793,3.95245c0.11592,0.31209 0.21178,0.60635 0.28757,0.88278c0.07579,0.27643 0.13375,0.54171 0.17388,0.79584c0.04458,0.24968 0.08025,0.49712 0.107,0.74234l-0.28088,0.04681c0.01783,-0.17388 0.03121,-0.33439 0.04013,-0.48152c0.00892,-0.14713 0.02006,-0.2898 0.03344,-0.42801c0.01783,-0.13821 0.03567,-0.28311 0.0535,-0.4347c0.01783,-0.15159 0.04458,-0.31878 0.08025,-0.50158c0.04013,-0.18726 0.09363,-0.39903 0.16051,-0.63533l1.48468,-5.23649h2.40758l-2.9961,9.98478h-1.8525l-2.36746,-5.75145l0.2742,0.03344l-2.18689,5.71801zM168.5999,168.51716v-10.55324h2.24039v4.52091l-0.45477,0.16719c0.107,-0.33884 0.29426,-0.64871 0.56177,-0.92959c0.27197,-0.28088 0.59744,-0.50604 0.97641,-0.67546c0.38343,-0.17388 0.78469,-0.26082 1.20379,-0.26082c0.57069,0 1.04997,0.11592 1.43786,0.34776c0.38789,0.23184 0.68215,0.5796 0.88278,1.04329c0.20063,0.45922 0.30095,1.02322 0.30095,1.692v4.64797h-2.29389v-4.4674c0,-0.30318 -0.04458,-0.55285 -0.13375,-0.74903c-0.08471,-0.20063 -0.21624,-0.34999 -0.39458,-0.44808c-0.17388,-0.10255 -0.38789,-0.14936 -0.64202,-0.14044c-0.20063,0 -0.38789,0.03121 -0.56177,0.09363c-0.16942,0.06242 -0.31655,0.15382 -0.44139,0.2742c-0.12038,0.11592 -0.21624,0.24968 -0.28757,0.40126c-0.07134,0.15159 -0.107,0.31878 -0.107,0.50158v4.53428h-1.13023c-0.26751,0 -0.49712,0 -0.68884,0c-0.18726,0 -0.3433,0 -0.46814,0zM180.46026,168.64423c-0.63756,0 -1.20602,-0.16719 -1.70537,-0.50158c-0.49935,-0.33884 -0.89839,-0.80476 -1.1971,-1.39774c-0.29426,-0.59744 -0.44139,-1.27067 -0.44139,-2.01969c0,-0.77132 0.14713,-1.45124 0.44139,-2.03976c0.29872,-0.59298 0.70444,-1.05666 1.21717,-1.39105c0.51273,-0.33884 1.09679,-0.50827 1.75219,-0.50827c0.36114,0 0.69107,0.0535 0.98978,0.16051c0.30318,0.10255 0.56846,0.24745 0.79584,0.4347c0.22738,0.1828 0.42133,0.39681 0.58183,0.64202c0.16496,0.24076 0.28534,0.49935 0.36114,0.77578l-0.47483,-0.06019v-1.799h2.26714v7.5772h-2.30727v-1.82575l0.51496,-0.01338c-0.07579,0.26751 -0.20063,0.51941 -0.37451,0.75571c-0.16942,0.2363 -0.37897,0.44585 -0.62865,0.62865c-0.24522,0.17834 -0.52164,0.32101 -0.82928,0.42801c-0.30318,0.10255 -0.62419,0.15382 -0.96303,0.15382zM181.08222,166.71816c0.35222,0 0.6554,-0.08025 0.90953,-0.24076c0.25859,-0.16051 0.45922,-0.39012 0.6019,-0.68884c0.14267,-0.30318 0.21401,-0.65763 0.21401,-1.06335c0,-0.41018 -0.07134,-0.76463 -0.21401,-1.06335c-0.14267,-0.29872 -0.3433,-0.53056 -0.6019,-0.69552c-0.25413,-0.16942 -0.55731,-0.25413 -0.90953,-0.25413c-0.33884,0 -0.63533,0.08471 -0.88947,0.25413c-0.24968,0.16496 -0.44585,0.39681 -0.58852,0.69552c-0.14267,0.29872 -0.21401,0.65317 -0.21401,1.06335c0,0.40572 0.07134,0.76017 0.21401,1.06335c0.14267,0.29872 0.33884,0.52833 0.58852,0.68884c0.25413,0.16051 0.55062,0.24076 0.88947,0.24076zM187.68732,168.51716v-9.4832h2.2872v9.4832zM186.34978,162.9396v-1.99963h5.08936v1.99963zM199.8556,168.65761c-0.74011,0 -1.39328,-0.11815 -1.95951,-0.35445c-0.56623,-0.2363 -1.01654,-0.55508 -1.35092,-0.95635l1.38436,-1.1971c0.29426,0.29426 0.62642,0.5105 0.99647,0.64871c0.37451,0.13821 0.72673,0.20732 1.05666,0.20732c0.13375,0 0.2519,-0.01338 0.35445,-0.04013c0.107,-0.03121 0.19617,-0.07134 0.26751,-0.12038c0.07134,-0.0535 0.12484,-0.11592 0.16051,-0.18726c0.04013,-0.07134 0.06019,-0.15605 0.06019,-0.25413c0,-0.18726 -0.08471,-0.33439 -0.25413,-0.44139c-0.08471,-0.04458 -0.22738,-0.10032 -0.42801,-0.16719c-0.20063,-0.06688 -0.457,-0.1449 -0.76909,-0.23407c-0.45031,-0.11146 -0.84042,-0.24522 -1.17035,-0.40126c-0.32547,-0.16051 -0.59298,-0.3433 -0.80253,-0.54839c-0.18726,-0.20063 -0.33439,-0.42133 -0.44139,-0.66209c-0.10255,-0.24522 -0.15382,-0.51941 -0.15382,-0.82259c0,-0.35222 0.08248,-0.671 0.24745,-0.95635c0.16496,-0.28534 0.38789,-0.53279 0.66877,-0.74234c0.28088,-0.20955 0.60413,-0.36783 0.96972,-0.47483c0.37006,-0.11146 0.74903,-0.16719 1.13691,-0.16719c0.4191,0 0.81813,0.04904 1.1971,0.14713c0.37897,0.09363 0.73342,0.22515 1.06335,0.39458c0.32993,0.16942 0.62196,0.37451 0.87609,0.61527l-1.1971,1.33755c-0.16942,-0.16051 -0.36114,-0.30541 -0.57514,-0.4347c-0.21401,-0.1293 -0.43693,-0.23184 -0.66877,-0.30764c-0.22738,-0.07579 -0.4347,-0.11369 -0.62196,-0.11369c-0.14267,0 -0.26974,0.01338 -0.3812,0.04013c-0.107,0.02229 -0.20063,0.06019 -0.28088,0.11369c-0.07579,0.04904 -0.13375,0.10923 -0.17388,0.18057c-0.03567,0.07134 -0.0535,0.15605 -0.0535,0.25413c0,0.09363 0.02675,0.1828 0.08025,0.26751c0.0535,0.08471 0.12707,0.15605 0.2207,0.21401c0.09809,0.05796 0.24968,0.12261 0.45477,0.19394c0.20955,0.07134 0.49489,0.15828 0.85603,0.26082c0.45031,0.12484 0.83597,0.26305 1.15698,0.41464c0.32547,0.15159 0.58183,0.33216 0.76909,0.54171c0.15605,0.16496 0.27197,0.35445 0.34776,0.56846c0.07579,0.21401 0.11369,0.44362 0.11369,0.68884c0,0.48597 -0.13598,0.91622 -0.40795,1.29073c-0.27197,0.37451 -0.64648,0.66877 -1.12354,0.88278c-0.4726,0.21401 -1.01431,0.32101 -1.62512,0.32101zM207.68581,168.65761c-0.73119,0 -1.38659,-0.16942 -1.96619,-0.50827c-0.5796,-0.3433 -1.03883,-0.81145 -1.37767,-1.40442c-0.33439,-0.59744 -0.50158,-1.27067 -0.50158,-2.01969c0,-0.75348 0.16719,-1.42672 0.50158,-2.01969c0.33884,-0.59744 0.79807,-1.06558 1.37767,-1.40442c0.5796,-0.3433 1.235,-0.51496 1.96619,-0.51496c0.67769,0 1.29965,0.12038 1.86588,0.36114c0.56623,0.2363 1.01431,0.56846 1.34423,0.99647l-1.23723,1.47799c-0.13375,-0.15159 -0.29203,-0.29203 -0.47483,-0.42133c-0.17834,-0.13375 -0.37674,-0.23853 -0.59521,-0.31432c-0.21847,-0.08025 -0.44808,-0.12038 -0.68884,-0.12038c-0.36114,0 -0.67992,0.08471 -0.95635,0.25413c-0.27197,0.16496 -0.48597,0.39458 -0.64202,0.68884c-0.15159,0.29426 -0.22738,0.6331 -0.22738,1.01654c0,0.36114 0.07802,0.68884 0.23407,0.9831c0.16051,0.29426 0.37897,0.52833 0.6554,0.70221c0.27643,0.16942 0.58852,0.25413 0.93628,0.25413c0.24968,0 0.47929,-0.03121 0.68884,-0.09363c0.20955,-0.06242 0.40126,-0.15382 0.57514,-0.2742c0.17834,-0.12484 0.3433,-0.27865 0.49489,-0.46145l1.22385,1.49805c-0.32101,0.41018 -0.76909,0.73342 -1.34423,0.96972c-0.57514,0.2363 -1.19265,0.35445 -1.8525,0.35445zM212.27013,168.51716v-7.5772h2.28052v7.5772zM213.40704,159.44191c-0.42801,0 -0.7624,-0.10032 -1.00316,-0.30095c-0.24076,-0.20509 -0.36114,-0.49935 -0.36114,-0.88278c0,-0.33884 0.12261,-0.6175 0.36783,-0.83597c0.24522,-0.22293 0.57737,-0.33439 0.99647,-0.33439c0.42801,0 0.76017,0.10255 0.99647,0.30764c0.24076,0.20509 0.36114,0.49266 0.36114,0.86272c0,0.35222 -0.12261,0.63756 -0.36783,0.85603c-0.24076,0.21847 -0.57069,0.3277 -0.98978,0.3277zM220.29825,168.65761c-0.8382,0 -1.56716,-0.16719 -2.18689,-0.50158c-0.61527,-0.33884 -1.09456,-0.8003 -1.43786,-1.38436c-0.33884,-0.58406 -0.50827,-1.25284 -0.50827,-2.00632c0,-0.5796 0.09363,-1.11239 0.28088,-1.59837c0.19171,-0.48597 0.457,-0.9073 0.79584,-1.26398c0.3433,-0.35668 0.75126,-0.63088 1.22385,-0.82259c0.4726,-0.19617 0.98755,-0.29426 1.54487,-0.29426c0.53502,0 1.02322,0.09586 1.46461,0.28757c0.44139,0.18726 0.82259,0.45254 1.1436,0.79584c0.32547,0.3433 0.57291,0.74903 0.74234,1.21717c0.17388,0.46368 0.2519,0.97195 0.23407,1.5248l-0.01338,0.60858h-6.03902l-0.3277,-1.28404h4.50753l-0.24076,0.2742v-0.28757c-0.01783,-0.2363 -0.0914,-0.44585 -0.2207,-0.62865c-0.1293,-0.18726 -0.29872,-0.33216 -0.50827,-0.4347c-0.20955,-0.107 -0.44585,-0.16051 -0.7089,-0.16051c-0.37006,0 -0.68661,0.07357 -0.94966,0.2207c-0.26305,0.14713 -0.46145,0.36114 -0.59521,0.64202c-0.13375,0.28088 -0.20063,0.62419 -0.20063,1.02991c0,0.4191 0.08694,0.78469 0.26082,1.09679c0.17834,0.30764 0.43693,0.54839 0.77578,0.72227c0.33884,0.16942 0.74011,0.25413 1.20379,0.25413c0.32547,0 0.61304,-0.04681 0.86272,-0.14044c0.25413,-0.09809 0.52833,-0.26082 0.82259,-0.4882l1.07004,1.51143c-0.29426,0.25859 -0.60858,0.46814 -0.94297,0.62865c-0.32993,0.16051 -0.66877,0.28088 -1.01654,0.36114c-0.34776,0.08025 -0.69329,0.12038 -1.0366,0.12038zM225.04611,168.51716v-7.5772h2.17351l0.06688,1.54487l-0.45477,0.16719c0.107,-0.33884 0.29426,-0.64871 0.56177,-0.92959c0.27197,-0.28088 0.59744,-0.50604 0.97641,-0.67546c0.38343,-0.17388 0.78469,-0.26082 1.20379,-0.26082c0.57069,0 1.04997,0.11592 1.43786,0.34776c0.38789,0.23184 0.68215,0.5796 0.88278,1.04329c0.20063,0.45922 0.30095,1.02322 0.30095,1.692v4.64797h-2.29389v-4.4674c0,-0.30318 -0.04458,-0.55285 -0.13375,-0.74903c-0.08471,-0.20063 -0.21624,-0.34999 -0.39458,-0.44808c-0.17388,-0.10255 -0.38789,-0.14936 -0.64202,-0.14044c-0.20063,0 -0.38789,0.03121 -0.56177,0.09363c-0.16942,0.06242 -0.31655,0.15382 -0.44139,0.2742c-0.12038,0.11592 -0.21624,0.24968 -0.28757,0.40126c-0.07134,0.15159 -0.107,0.31878 -0.107,0.50158v4.53428h-1.13023c-0.26751,0 -0.49712,0 -0.68884,0c-0.18726,0 -0.3433,0 -0.46814,0zM234.73297,168.51716v-9.4832h2.2872v9.4832zM233.39543,162.9396v-1.99963h5.08936v1.99963zM239.91551,168.51716v-7.5772h2.28052v7.5772zM241.05242,159.44191c-0.42801,0 -0.7624,-0.10032 -1.00316,-0.30095c-0.24076,-0.20509 -0.36114,-0.49935 -0.36114,-0.88278c0,-0.33884 0.12261,-0.6175 0.36783,-0.83597c0.24522,-0.22293 0.57737,-0.33439 0.99647,-0.33439c0.42801,0 0.76017,0.10255 0.99647,0.30764c0.24076,0.20509 0.36114,0.49266 0.36114,0.86272c0,0.35222 -0.12261,0.63756 -0.36783,0.85603c-0.24076,0.21847 -0.57069,0.3277 -0.98978,0.3277zM246.88697,168.65761c-0.74011,0 -1.39328,-0.11815 -1.95951,-0.35445c-0.56623,-0.2363 -1.01654,-0.55508 -1.35092,-0.95635l1.38436,-1.1971c0.29426,0.29426 0.62642,0.5105 0.99647,0.64871c0.37451,0.13821 0.72673,0.20732 1.05666,0.20732c0.13375,0 0.2519,-0.01338 0.35445,-0.04013c0.107,-0.03121 0.19617,-0.07134 0.26751,-0.12038c0.07134,-0.0535 0.12484,-0.11592 0.16051,-0.18726c0.04013,-0.07134 0.06019,-0.15605 0.06019,-0.25413c0,-0.18726 -0.08471,-0.33439 -0.25413,-0.44139c-0.08471,-0.04458 -0.22738,-0.10032 -0.42801,-0.16719c-0.20063,-0.06688 -0.457,-0.1449 -0.76909,-0.23407c-0.45031,-0.11146 -0.84042,-0.24522 -1.17035,-0.40126c-0.32547,-0.16051 -0.59298,-0.3433 -0.80253,-0.54839c-0.18726,-0.20063 -0.33439,-0.42133 -0.44139,-0.66209c-0.10255,-0.24522 -0.15382,-0.51941 -0.15382,-0.82259c0,-0.35222 0.08248,-0.671 0.24745,-0.95635c0.16496,-0.28534 0.38789,-0.53279 0.66877,-0.74234c0.28088,-0.20955 0.60413,-0.36783 0.96972,-0.47483c0.37006,-0.11146 0.74903,-0.16719 1.13691,-0.16719c0.4191,0 0.81813,0.04904 1.1971,0.14713c0.37897,0.09363 0.73342,0.22515 1.06335,0.39458c0.32993,0.16942 0.62196,0.37451 0.87609,0.61527l-1.1971,1.33755c-0.16942,-0.16051 -0.36114,-0.30541 -0.57514,-0.4347c-0.21401,-0.1293 -0.43693,-0.23184 -0.66877,-0.30764c-0.22738,-0.07579 -0.4347,-0.11369 -0.62196,-0.11369c-0.14267,0 -0.26974,0.01338 -0.3812,0.04013c-0.107,0.02229 -0.20063,0.06019 -0.28088,0.11369c-0.07579,0.04904 -0.13375,0.10923 -0.17388,0.18057c-0.03567,0.07134 -0.0535,0.15605 -0.0535,0.25413c0,0.09363 0.02675,0.1828 0.08025,0.26751c0.0535,0.08471 0.12707,0.15605 0.2207,0.21401c0.09809,0.05796 0.24968,0.12261 0.45477,0.19394c0.20955,0.07134 0.49489,0.15828 0.85603,0.26082c0.45031,0.12484 0.83597,0.26305 1.15698,0.41464c0.32547,0.15159 0.58183,0.33216 0.76909,0.54171c0.15605,0.16496 0.27197,0.35445 0.34776,0.56846c0.07579,0.21401 0.11369,0.44362 0.11369,0.68884c0,0.48597 -0.13598,0.91622 -0.40795,1.29073c-0.27197,0.37451 -0.64648,0.66877 -1.12354,0.88278c-0.4726,0.21401 -1.01431,0.32101 -1.62512,0.32101zM252.02204,168.51716v-9.4832h2.28722v9.4832zM250.68449,162.9396v-1.99963h5.08938v1.99963zM263.29414,168.51716l-2.49452,-7.5772h2.40758l1.39774,4.92217l-0.30095,-0.0535l1.57162,-3.82538h1.33755l1.65856,3.83876l-0.3277,0.02675l1.39774,-4.90879h2.40758l-2.58146,7.5772h-1.67862l-1.64518,-4.06614l0.17388,0.02675l-1.63849,4.03939zM276.12069,168.64423c-0.63756,0 -1.20602,-0.16719 -1.70537,-0.50158c-0.49935,-0.33884 -0.89839,-0.80476 -1.1971,-1.39774c-0.29426,-0.59744 -0.44139,-1.27067 -0.44139,-2.01969c0,-0.77132 0.14713,-1.45124 0.44139,-2.03976c0.29872,-0.59298 0.70444,-1.05666 1.21717,-1.39105c0.51273,-0.33884 1.09679,-0.50827 1.75219,-0.50827c0.36114,0 0.69107,0.0535 0.98978,0.16051c0.30318,0.10255 0.56846,0.24745 0.79584,0.4347c0.22738,0.1828 0.42133,0.39681 0.58183,0.64202c0.16496,0.24076 0.28534,0.49935 0.36114,0.77578l-0.47483,-0.06019v-1.799h2.26714v7.5772h-2.30727v-1.82575l0.51496,-0.01338c-0.07579,0.26751 -0.20063,0.51941 -0.37451,0.75571c-0.16942,0.2363 -0.37897,0.44585 -0.62865,0.62865c-0.24522,0.17834 -0.52164,0.32101 -0.82928,0.42801c-0.30318,0.10255 -0.62419,0.15382 -0.96303,0.15382zM276.74265,166.71816c0.35222,0 0.6554,-0.08025 0.90953,-0.24076c0.25859,-0.16051 0.45922,-0.39012 0.6019,-0.68884c0.14267,-0.30318 0.21401,-0.65763 0.21401,-1.06335c0,-0.41018 -0.07134,-0.76463 -0.21401,-1.06335c-0.14267,-0.29872 -0.3433,-0.53056 -0.6019,-0.69552c-0.25413,-0.16942 -0.55731,-0.25413 -0.90953,-0.25413c-0.33884,0 -0.63533,0.08471 -0.88947,0.25413c-0.24968,0.16496 -0.44585,0.39681 -0.58852,0.69552c-0.14267,0.29872 -0.21401,0.65317 -0.21401,1.06335c0,0.40572 0.07134,0.76017 0.21401,1.06335c0.14267,0.29872 0.33884,0.52833 0.58852,0.68884c0.25413,0.16051 0.55062,0.24076 0.88947,0.24076zM285.27381,168.65761c-0.74011,0 -1.39328,-0.11815 -1.95951,-0.35445c-0.56623,-0.2363 -1.01654,-0.55508 -1.35092,-0.95635l1.38436,-1.1971c0.29426,0.29426 0.62642,0.5105 0.99647,0.64871c0.37451,0.13821 0.72673,0.20732 1.05666,0.20732c0.13375,0 0.2519,-0.01338 0.35445,-0.04013c0.107,-0.03121 0.19617,-0.07134 0.26751,-0.12038c0.07134,-0.0535 0.12484,-0.11592 0.16051,-0.18726c0.04013,-0.07134 0.06019,-0.15605 0.06019,-0.25413c0,-0.18726 -0.08471,-0.33439 -0.25413,-0.44139c-0.08471,-0.04458 -0.22738,-0.10032 -0.42801,-0.16719c-0.20063,-0.06688 -0.457,-0.1449 -0.76909,-0.23407c-0.45031,-0.11146 -0.84042,-0.24522 -1.17035,-0.40126c-0.32547,-0.16051 -0.59298,-0.3433 -0.80253,-0.54839c-0.18726,-0.20063 -0.33439,-0.42133 -0.44139,-0.66209c-0.10255,-0.24522 -0.15382,-0.51941 -0.15382,-0.82259c0,-0.35222 0.08248,-0.671 0.24745,-0.95635c0.16496,-0.28534 0.38789,-0.53279 0.66877,-0.74234c0.28088,-0.20955 0.60413,-0.36783 0.96972,-0.47483c0.37006,-0.11146 0.74903,-0.16719 1.13691,-0.16719c0.4191,0 0.81813,0.04904 1.1971,0.14713c0.37897,0.09363 0.73342,0.22515 1.06335,0.39458c0.32993,0.16942 0.62196,0.37451 0.87609,0.61527l-1.1971,1.33755c-0.16942,-0.16051 -0.36114,-0.30541 -0.57514,-0.4347c-0.21401,-0.1293 -0.43693,-0.23184 -0.66877,-0.30764c-0.22738,-0.07579 -0.4347,-0.11369 -0.62196,-0.11369c-0.14267,0 -0.26974,0.01338 -0.3812,0.04013c-0.107,0.02229 -0.20063,0.06019 -0.28088,0.11369c-0.07579,0.04904 -0.13375,0.10923 -0.17388,0.18057c-0.03567,0.07134 -0.0535,0.15605 -0.0535,0.25413c0,0.09363 0.02675,0.1828 0.08025,0.26751c0.0535,0.08471 0.12707,0.15605 0.2207,0.21401c0.09809,0.05796 0.24968,0.12261 0.45477,0.19394c0.20955,0.07134 0.49489,0.15828 0.85603,0.26082c0.45031,0.12484 0.83597,0.26305 1.15698,0.41464c0.32547,0.15159 0.58183,0.33216 0.76909,0.54171c0.15605,0.16496 0.27197,0.35445 0.34776,0.56846c0.07579,0.21401 0.11369,0.44362 0.11369,0.68884c0,0.48597 -0.13598,0.91622 -0.40795,1.29073c-0.27197,0.37451 -0.64648,0.66877 -1.12354,0.88278c-0.4726,0.21401 -1.01431,0.32101 -1.62512,0.32101zM298.89933,168.67098c-0.3433,0 -0.67323,-0.04681 -0.98978,-0.14044c-0.31209,-0.09363 -0.59521,-0.2207 -0.84934,-0.3812c-0.24968,-0.16496 -0.457,-0.35445 -0.62196,-0.56846c-0.16496,-0.21401 -0.27643,-0.4347 -0.33439,-0.66209l0.49489,-0.16719l-0.12707,1.75219h-2.1267v-10.53986h2.30058v4.78842l-0.47483,-0.16719c0.05796,-0.24968 0.16719,-0.48152 0.3277,-0.69552c0.16496,-0.21401 0.37006,-0.40349 0.61527,-0.56846c0.24968,-0.16496 0.52164,-0.29426 0.8159,-0.38789c0.29426,-0.09809 0.59744,-0.14713 0.90953,-0.14713c0.65986,0 1.24392,0.16942 1.75219,0.50827c0.50827,0.33439 0.90953,0.8003 1.20379,1.39774c0.29426,0.59298 0.44139,1.27067 0.44139,2.03307c0,0.76686 -0.1449,1.44901 -0.4347,2.04645c-0.2898,0.59298 -0.68661,1.05889 -1.19042,1.39774c-0.50381,0.33439 -1.07449,0.50158 -1.71206,0.50158zM298.29744,166.7516c0.3433,0 0.64202,-0.08471 0.89616,-0.25413c0.25859,-0.17388 0.457,-0.41018 0.59521,-0.7089c0.13821,-0.30318 0.20732,-0.65763 0.20732,-1.06335c0,-0.40126 -0.06911,-0.75348 -0.20732,-1.05666c-0.13821,-0.30318 -0.33662,-0.53502 -0.59521,-0.69552c-0.25413,-0.16496 -0.55285,-0.24745 -0.89616,-0.24745c-0.35222,0 -0.65763,0.08248 -0.91622,0.24745c-0.25413,0.16051 -0.45254,0.39235 -0.59521,0.69552c-0.14267,0.30318 -0.21401,0.6554 -0.21401,1.05666c0,0.40572 0.07134,0.76017 0.21401,1.06335c0.14267,0.29872 0.34107,0.53502 0.59521,0.7089c0.25859,0.16942 0.564,0.25413 0.91622,0.25413zM307.30255,168.65761c-0.78915,0 -1.49136,-0.16942 -2.10664,-0.50827c-0.61527,-0.3433 -1.10125,-0.80922 -1.45793,-1.39774c-0.35222,-0.59298 -0.52833,-1.26844 -0.52833,-2.02638c0,-0.7624 0.17611,-1.43786 0.52833,-2.02638c0.35668,-0.59298 0.84265,-1.05889 1.45793,-1.39774c0.61527,-0.3433 1.31748,-0.51496 2.10664,-0.51496c0.78915,0 1.48913,0.17165 2.09995,0.51496c0.61527,0.33884 1.09902,0.80476 1.45124,1.39774c0.35222,0.58852 0.52833,1.26398 0.52833,2.02638c0,0.75794 -0.17611,1.4334 -0.52833,2.02638c-0.35222,0.58852 -0.83597,1.05443 -1.45124,1.39774c-0.61081,0.33884 -1.3108,0.50827 -2.09995,0.50827zM307.30255,166.69141c0.33884,0 0.64202,-0.08471 0.90953,-0.25413c0.26751,-0.17388 0.47706,-0.40795 0.62865,-0.70221c0.15159,-0.29426 0.22293,-0.63088 0.21401,-1.00985c0.00892,-0.38343 -0.06242,-0.7245 -0.21401,-1.02322c-0.15159,-0.29872 -0.36114,-0.53279 -0.62865,-0.70221c-0.26751,-0.17388 -0.57069,-0.26082 -0.90953,-0.26082c-0.3433,0 -0.65094,0.08694 -0.92291,0.26082c-0.27197,0.16942 -0.48375,0.40349 -0.63533,0.70221c-0.15159,0.29872 -0.22293,0.63979 -0.21401,1.02322c-0.00892,0.37897 0.06242,0.71559 0.21401,1.00985c0.15159,0.29426 0.36337,0.52833 0.63533,0.70221c0.27197,0.16942 0.5796,0.25413 0.92291,0.25413zM312.8751,168.51716v-7.5772h2.17351l0.10032,2.46777l-0.42801,-0.46814c0.11146,-0.41018 0.29872,-0.77578 0.56177,-1.09679c0.26305,-0.32547 0.56846,-0.58183 0.91622,-0.76909c0.35222,-0.19171 0.72896,-0.28757 1.13023,-0.28757c0.16942,0 0.3277,0.01561 0.47483,0.04681c0.14713,0.02675 0.28311,0.05796 0.40795,0.09363l-0.62865,2.52796c-0.10255,-0.06688 -0.24299,-0.12038 -0.42133,-0.16051c-0.17388,-0.04458 -0.35668,-0.06688 -0.54839,-0.06688c-0.20955,0 -0.40572,0.03567 -0.58852,0.107c-0.17834,0.07134 -0.32993,0.17388 -0.45477,0.30764c-0.12038,0.1293 -0.21624,0.28534 -0.28757,0.46814c-0.07134,0.17834 -0.107,0.38343 -0.107,0.61527v3.79194zM319.36562,168.51716v-7.5772h2.17351l0.06688,1.54487l-0.45477,0.16719c0.107,-0.33884 0.29426,-0.64871 0.56177,-0.92959c0.27197,-0.28088 0.59744,-0.50604 0.97641,-0.67546c0.38343,-0.17388 0.78469,-0.26082 1.20379,-0.26082c0.57069,0 1.04997,0.11592 1.43786,0.34776c0.38789,0.23184 0.68215,0.5796 0.88278,1.04329c0.20063,0.45922 0.30095,1.02322 0.30095,1.692v4.64797h-2.29389v-4.4674c0,-0.30318 -0.04458,-0.55285 -0.13375,-0.74903c-0.08471,-0.20063 -0.21624,-0.34999 -0.39458,-0.44808c-0.17388,-0.10255 -0.38789,-0.14936 -0.64202,-0.14044c-0.20063,0 -0.38789,0.03121 -0.56177,0.09363c-0.16942,0.06242 -0.31655,0.15382 -0.44139,0.2742c-0.12038,0.11592 -0.21624,0.24968 -0.28757,0.40126c-0.07134,0.15159 -0.107,0.31878 -0.107,0.50158v4.53428h-1.13023c-0.26751,0 -0.49712,0 -0.68884,0c-0.18726,0 -0.3433,0 -0.46814,0z" fill="#000000" stroke="none" stroke-width="1" stroke-linecap="square"/><path d="M172.73462,185.7782c-0.78915,0 -1.49136,-0.16942 -2.10664,-0.50827c-0.61527,-0.3433 -1.10125,-0.80922 -1.45793,-1.39774c-0.35222,-0.59298 -0.52833,-1.26844 -0.52833,-2.02638c0,-0.7624 0.17611,-1.43786 0.52833,-2.02638c0.35668,-0.59298 0.84265,-1.05889 1.45793,-1.39774c0.61527,-0.3433 1.31748,-0.51496 2.10664,-0.51496c0.78915,0 1.48913,0.17165 2.09995,0.51496c0.61527,0.33884 1.09902,0.80476 1.45124,1.39774c0.35222,0.58852 0.52833,1.26398 0.52833,2.02638c0,0.75794 -0.17611,1.4334 -0.52833,2.02638c-0.35222,0.58852 -0.83597,1.05443 -1.45124,1.39774c-0.61081,0.33884 -1.3108,0.50827 -2.09995,0.50827zM172.73462,183.81201c0.33884,0 0.64202,-0.08471 0.90953,-0.25413c0.26751,-0.17388 0.47706,-0.40795 0.62865,-0.70221c0.15159,-0.29426 0.22293,-0.63088 0.21401,-1.00985c0.00892,-0.38343 -0.06242,-0.7245 -0.21401,-1.02322c-0.15159,-0.29872 -0.36114,-0.53279 -0.62865,-0.70221c-0.26751,-0.17388 -0.57069,-0.26082 -0.90953,-0.26082c-0.3433,0 -0.65094,0.08694 -0.92291,0.26082c-0.27197,0.16942 -0.48375,0.40349 -0.63533,0.70221c-0.15159,0.29872 -0.22293,0.63979 -0.21401,1.02322c-0.00892,0.37897 0.06242,0.71559 0.21401,1.00985c0.15159,0.29426 0.36337,0.52833 0.63533,0.70221c0.27197,0.16942 0.5796,0.25413 0.92291,0.25413zM178.30717,185.63776v-7.5772h2.17351l0.06688,1.54487l-0.45477,0.16719c0.107,-0.33884 0.29426,-0.64871 0.56177,-0.92959c0.27197,-0.28088 0.59744,-0.50604 0.97641,-0.67546c0.38343,-0.17388 0.78469,-0.26082 1.20379,-0.26082c0.57069,0 1.04997,0.11592 1.43786,0.34776c0.38789,0.23184 0.68215,0.5796 0.88278,1.04329c0.20063,0.45922 0.30095,1.02322 0.30095,1.692v4.64797h-2.29389v-4.4674c0,-0.30318 -0.04458,-0.55285 -0.13375,-0.74903c-0.08471,-0.20063 -0.21624,-0.34999 -0.39458,-0.44808c-0.17388,-0.10255 -0.38789,-0.14936 -0.64202,-0.14044c-0.20063,0 -0.38789,0.03121 -0.56177,0.09363c-0.16942,0.06242 -0.31655,0.15382 -0.44139,0.2742c-0.12038,0.11592 -0.21624,0.24968 -0.28757,0.40126c-0.07134,0.15159 -0.107,0.31878 -0.107,0.50158v4.53428h-1.13023c-0.26751,0 -0.49712,0 -0.68884,0c-0.18726,0 -0.3433,0 -0.46814,0zM192.55879,185.63776v-9.4832h2.2872v9.4832zM191.22124,180.06019v-1.99963h5.08936v1.99963zM197.60758,185.63776v-10.55324h2.24039v4.52091l-0.45477,0.16719c0.107,-0.33884 0.29426,-0.64871 0.56177,-0.92959c0.27197,-0.28088 0.59744,-0.50604 0.97641,-0.67546c0.38343,-0.17388 0.78469,-0.26082 1.20379,-0.26082c0.57069,0 1.04997,0.11592 1.43786,0.34776c0.38789,0.23184 0.68215,0.5796 0.88278,1.04329c0.20063,0.45922 0.30095,1.02322 0.30095,1.692v4.64797h-2.29389v-4.4674c0,-0.30318 -0.04458,-0.55285 -0.13375,-0.74903c-0.08471,-0.20063 -0.21624,-0.34999 -0.39458,-0.44808c-0.17388,-0.10255 -0.38789,-0.14936 -0.64202,-0.14044c-0.20063,0 -0.38789,0.03121 -0.56177,0.09363c-0.16942,0.06242 -0.31655,0.15382 -0.44139,0.2742c-0.12038,0.11592 -0.21624,0.24968 -0.28757,0.40126c-0.07134,0.15159 -0.107,0.31878 -0.107,0.50158v4.53428h-1.13023c-0.26751,0 -0.49712,0 -0.68884,0c-0.18726,0 -0.3433,0 -0.46814,0zM210.27716,185.7782c-0.8382,0 -1.56716,-0.16719 -2.18689,-0.50158c-0.61527,-0.33884 -1.09456,-0.8003 -1.43786,-1.38436c-0.33884,-0.58406 -0.50827,-1.25284 -0.50827,-2.00632c0,-0.5796 0.09363,-1.11239 0.28088,-1.59837c0.19171,-0.48597 0.457,-0.9073 0.79584,-1.26398c0.3433,-0.35668 0.75126,-0.63088 1.22385,-0.82259c0.4726,-0.19617 0.98755,-0.29426 1.54487,-0.29426c0.53502,0 1.02322,0.09586 1.46461,0.28757c0.44139,0.18726 0.82259,0.45254 1.1436,0.79584c0.32547,0.3433 0.57291,0.74903 0.74234,1.21717c0.17388,0.46368 0.2519,0.97195 0.23407,1.5248l-0.01338,0.60858h-6.03902l-0.3277,-1.28404h4.50753l-0.24076,0.2742v-0.28757c-0.01783,-0.2363 -0.0914,-0.44585 -0.2207,-0.62865c-0.1293,-0.18726 -0.29872,-0.33216 -0.50827,-0.4347c-0.20955,-0.107 -0.44585,-0.16051 -0.7089,-0.16051c-0.37006,0 -0.68661,0.07357 -0.94966,0.2207c-0.26305,0.14713 -0.46145,0.36114 -0.59521,0.64202c-0.13375,0.28088 -0.20063,0.62419 -0.20063,1.02991c0,0.4191 0.08694,0.78469 0.26082,1.09679c0.17834,0.30764 0.43693,0.54839 0.77578,0.72227c0.33884,0.16942 0.74011,0.25413 1.20379,0.25413c0.32547,0 0.61304,-0.04681 0.86272,-0.14044c0.25413,-0.09809 0.52833,-0.26082 0.82259,-0.4882l1.07004,1.51143c-0.29426,0.25859 -0.60858,0.46814 -0.94297,0.62865c-0.32993,0.16051 -0.66877,0.28088 -1.01654,0.36114c-0.34776,0.08025 -0.69329,0.12038 -1.0366,0.12038zM222.45882,185.79158c-0.6554,0 -1.23723,-0.16719 -1.7455,-0.50158c-0.50827,-0.33884 -0.90953,-0.80476 -1.20379,-1.39774c-0.29426,-0.59744 -0.44139,-1.27513 -0.44139,-2.03307c0,-0.7624 0.14713,-1.44009 0.44139,-2.03307c0.29426,-0.59744 0.69775,-1.06558 1.21048,-1.40442c0.51273,-0.3433 1.10125,-0.51496 1.76556,-0.51496c0.3433,0 0.671,0.0535 0.9831,0.16051c0.31655,0.10255 0.6019,0.24522 0.85603,0.42801c0.25859,0.17834 0.46814,0.38343 0.62865,0.61527c0.16496,0.23184 0.26082,0.4726 0.28757,0.72227l-0.54171,0.12707v-4.87536h2.29389v10.55324h-2.12001l-0.13375,-1.72543l0.46145,0.07357c-0.03121,0.2363 -0.12484,0.46368 -0.28088,0.68215c-0.15605,0.21847 -0.35891,0.41241 -0.60858,0.58183c-0.24522,0.16496 -0.52833,0.29649 -0.84934,0.39458c-0.31655,0.09809 -0.65094,0.14713 -1.00316,0.14713zM223.04734,183.89895c0.35222,0 0.6554,-0.08471 0.90953,-0.25413c0.25859,-0.17388 0.457,-0.41241 0.59521,-0.71559c0.13821,-0.30764 0.20732,-0.66432 0.20732,-1.07004c0,-0.4191 -0.06911,-0.78023 -0.20732,-1.08341c-0.13821,-0.30764 -0.33662,-0.54616 -0.59521,-0.71559c-0.25413,-0.16942 -0.55731,-0.25413 -0.90953,-0.25413c-0.35222,0 -0.6554,0.08471 -0.90953,0.25413c-0.24968,0.16942 -0.44585,0.40795 -0.58852,0.71559c-0.14267,0.30318 -0.21401,0.66432 -0.21401,1.08341c0,0.40572 0.07134,0.7624 0.21401,1.07004c0.14267,0.30318 0.33884,0.54171 0.58852,0.71559c0.25413,0.16942 0.55731,0.25413 0.90953,0.25413zM231.7212,185.76483c-0.63756,0 -1.20602,-0.16719 -1.70537,-0.50158c-0.49935,-0.33884 -0.89839,-0.80476 -1.1971,-1.39774c-0.29426,-0.59744 -0.44139,-1.27067 -0.44139,-2.01969c0,-0.77132 0.14713,-1.45124 0.44139,-2.03976c0.29872,-0.59298 0.70444,-1.05666 1.21717,-1.39105c0.51273,-0.33884 1.09679,-0.50827 1.75219,-0.50827c0.36114,0 0.69107,0.0535 0.98978,0.16051c0.30318,0.10255 0.56846,0.24745 0.79584,0.4347c0.22738,0.1828 0.42133,0.39681 0.58183,0.64202c0.16496,0.24076 0.28534,0.49935 0.36114,0.77578l-0.47483,-0.06019v-1.799h2.26714v7.5772h-2.30727v-1.82575l0.51496,-0.01338c-0.07579,0.26751 -0.20063,0.51941 -0.37451,0.75571c-0.16942,0.2363 -0.37897,0.44585 -0.62865,0.62865c-0.24522,0.17834 -0.52164,0.32101 -0.82928,0.42801c-0.30318,0.10255 -0.62419,0.15382 -0.96303,0.15382zM232.34316,183.83876c0.35222,0 0.6554,-0.08025 0.90953,-0.24076c0.25859,-0.16051 0.45922,-0.39012 0.6019,-0.68884c0.14267,-0.30318 0.21401,-0.65763 0.21401,-1.06335c0,-0.41018 -0.07134,-0.76463 -0.21401,-1.06335c-0.14267,-0.29872 -0.3433,-0.53056 -0.6019,-0.69552c-0.25413,-0.16942 -0.55731,-0.25413 -0.90953,-0.25413c-0.33884,0 -0.63533,0.08471 -0.88947,0.25413c-0.24968,0.16496 -0.44585,0.39681 -0.58852,0.69552c-0.14267,0.29872 -0.21401,0.65317 -0.21401,1.06335c0,0.40572 0.07134,0.76017 0.21401,1.06335c0.14267,0.29872 0.33884,0.52833 0.58852,0.68884c0.25413,0.16051 0.55062,0.24076 0.88947,0.24076zM239.10475,188.92144l1.72543,-4.06614l0.03344,1.17035l-3.6515,-7.96509h2.58146l1.59837,3.81201c0.08471,0.19171 0.16496,0.39681 0.24076,0.61527c0.07579,0.21847 0.13152,0.42578 0.16719,0.62196l-0.30764,0.18726c0.0535,-0.14267 0.11592,-0.32101 0.18726,-0.53502c0.07134,-0.21401 0.15159,-0.44362 0.24076,-0.68884l1.39774,-4.01264h2.59484l-3.22349,7.5772l-1.31748,3.28368zM251.80486,185.63776v-9.98478h4.3069c0.62865,0 1.18596,0.14267 1.67193,0.42801c0.49043,0.28534 0.88055,0.67546 1.17035,1.17035c0.2898,0.49489 0.4347,1.04997 0.4347,1.66524c0,0.64648 -0.1449,1.22608 -0.4347,1.73881c-0.2898,0.50827 -0.67992,0.90953 -1.17035,1.20379c-0.48597,0.29426 -1.04329,0.44139 -1.67193,0.44139h-1.88594v3.33718zM254.18569,180.17388h1.58499c0.20955,0 0.39903,-0.05127 0.56846,-0.15382c0.16942,-0.107 0.30541,-0.24968 0.40795,-0.42801c0.107,-0.1828 0.16051,-0.39235 0.16051,-0.62865c0,-0.24968 -0.0535,-0.45922 -0.16051,-0.62865c-0.10255,-0.16942 -0.23853,-0.30095 -0.40795,-0.39458c-0.16942,-0.09809 -0.35891,-0.14713 -0.56846,-0.14713h-1.58499zM261.13453,185.63776v-7.5772h2.28052v7.5772zM262.27144,176.56251c-0.42801,0 -0.7624,-0.10032 -1.00316,-0.30095c-0.24076,-0.20509 -0.36114,-0.49935 -0.36114,-0.88278c0,-0.33884 0.12261,-0.6175 0.36783,-0.83597c0.24522,-0.22293 0.57737,-0.33439 0.99647,-0.33439c0.42801,0 0.76017,0.10255 0.99647,0.30764c0.24076,0.20509 0.36114,0.49266 0.36114,0.86272c0,0.35222 -0.12261,0.63756 -0.36783,0.85603c-0.24076,0.21847 -0.57069,0.3277 -0.98978,0.3277zM272.98508,185.79158c-0.6554,0 -1.23723,-0.16719 -1.7455,-0.50158c-0.50827,-0.33884 -0.90953,-0.80476 -1.20379,-1.39774c-0.29426,-0.59744 -0.44139,-1.27513 -0.44139,-2.03307c0,-0.7624 0.14713,-1.44009 0.44139,-2.03307c0.29426,-0.59744 0.69775,-1.06558 1.21048,-1.40442c0.51273,-0.3433 1.10125,-0.51496 1.76556,-0.51496c0.3433,0 0.671,0.0535 0.9831,0.16051c0.31655,0.10255 0.6019,0.24522 0.85603,0.42801c0.25859,0.17834 0.46814,0.38343 0.62865,0.61527c0.16496,0.23184 0.26082,0.4726 0.28757,0.72227l-0.54171,0.12707v-4.87536h2.29389v10.55324h-2.12001l-0.13375,-1.72543l0.46145,0.07357c-0.03121,0.2363 -0.12484,0.46368 -0.28088,0.68215c-0.15605,0.21847 -0.35891,0.41241 -0.60858,0.58183c-0.24522,0.16496 -0.52833,0.29649 -0.84934,0.39458c-0.31655,0.09809 -0.65094,0.14713 -1.00316,0.14713zM273.5736,183.89895c0.35222,0 0.6554,-0.08471 0.90953,-0.25413c0.25859,-0.17388 0.457,-0.41241 0.59521,-0.71559c0.13821,-0.30764 0.20732,-0.66432 0.20732,-1.07004c0,-0.4191 -0.06911,-0.78023 -0.20732,-1.08341c-0.13821,-0.30764 -0.33662,-0.54616 -0.59521,-0.71559c-0.25413,-0.16942 -0.55731,-0.25413 -0.90953,-0.25413c-0.35222,0 -0.6554,0.08471 -0.90953,0.25413c-0.24968,0.16942 -0.44585,0.40795 -0.58852,0.71559c-0.14267,0.30318 -0.21401,0.66432 -0.21401,1.08341c0,0.40572 0.07134,0.7624 0.21401,1.07004c0.14267,0.30318 0.33884,0.54171 0.58852,0.71559c0.25413,0.16942 0.55731,0.25413 0.90953,0.25413zM282.24746,185.76483c-0.63756,0 -1.20602,-0.16719 -1.70537,-0.50158c-0.49935,-0.33884 -0.89839,-0.80476 -1.1971,-1.39774c-0.29426,-0.59744 -0.44139,-1.27067 -0.44139,-2.01969c0,-0.77132 0.14713,-1.45124 0.44139,-2.03976c0.29872,-0.59298 0.70444,-1.05666 1.21717,-1.39105c0.51273,-0.33884 1.09679,-0.50827 1.75219,-0.50827c0.36114,0 0.69107,0.0535 0.98978,0.16051c0.30318,0.10255 0.56846,0.24745 0.79584,0.4347c0.22738,0.1828 0.42133,0.39681 0.58183,0.64202c0.16496,0.24076 0.28534,0.49935 0.36114,0.77578l-0.47483,-0.06019v-1.799h2.26714v7.5772h-2.30727v-1.82575l0.51496,-0.01338c-0.07579,0.26751 -0.20063,0.51941 -0.37451,0.75571c-0.16942,0.2363 -0.37897,0.44585 -0.62865,0.62865c-0.24522,0.17834 -0.52164,0.32101 -0.82928,0.42801c-0.30318,0.10255 -0.62419,0.15382 -0.96303,0.15382zM282.86942,183.83876c0.35222,0 0.6554,-0.08025 0.90953,-0.24076c0.25859,-0.16051 0.45922,-0.39012 0.6019,-0.68884c0.14267,-0.30318 0.21401,-0.65763 0.21401,-1.06335c0,-0.41018 -0.07134,-0.76463 -0.21401,-1.06335c-0.14267,-0.29872 -0.3433,-0.53056 -0.6019,-0.69552c-0.25413,-0.16942 -0.55731,-0.25413 -0.90953,-0.25413c-0.33884,0 -0.63533,0.08471 -0.88947,0.25413c-0.24968,0.16496 -0.44585,0.39681 -0.58852,0.69552c-0.14267,0.29872 -0.21401,0.65317 -0.21401,1.06335c0,0.40572 0.07134,0.76017 0.21401,1.06335c0.14267,0.29872 0.33884,0.52833 0.58852,0.68884c0.25413,0.16051 0.55062,0.24076 0.88947,0.24076zM289.63103,188.92144l1.72543,-4.06614l0.03344,1.17035l-3.6515,-7.96509h2.58146l1.59837,3.81201c0.08471,0.19171 0.16496,0.39681 0.24076,0.61527c0.07579,0.21847 0.13152,0.42578 0.16719,0.62196l-0.30764,0.18726c0.0535,-0.14267 0.11592,-0.32101 0.18726,-0.53502c0.07134,-0.21401 0.15159,-0.44362 0.24076,-0.68884l1.39774,-4.01264h2.59484l-3.22349,7.5772l-1.31748,3.28368zM302.21744,185.63776v-7.5772h2.28052v7.5772zM303.35435,176.56251c-0.42801,0 -0.7624,-0.10032 -1.00316,-0.30095c-0.24076,-0.20509 -0.36114,-0.49935 -0.36114,-0.88278c0,-0.33884 0.12261,-0.6175 0.36783,-0.83597c0.24522,-0.22293 0.57737,-0.33439 0.99647,-0.33439c0.42801,0 0.76017,0.10255 0.99647,0.30764c0.24076,0.20509 0.36114,0.49266 0.36114,0.86272c0,0.35222 -0.12261,0.63756 -0.36783,0.85603c-0.24076,0.21847 -0.57069,0.3277 -0.98978,0.3277zM309.1889,185.7782c-0.74011,0 -1.39328,-0.11815 -1.95951,-0.35445c-0.56623,-0.2363 -1.01654,-0.55508 -1.35092,-0.95635l1.38436,-1.1971c0.29426,0.29426 0.62642,0.5105 0.99647,0.64871c0.37451,0.13821 0.72673,0.20732 1.05666,0.20732c0.13375,0 0.2519,-0.01338 0.35445,-0.04013c0.107,-0.03121 0.19617,-0.07134 0.26751,-0.12038c0.07134,-0.0535 0.12484,-0.11592 0.16051,-0.18726c0.04013,-0.07134 0.06019,-0.15605 0.06019,-0.25413c0,-0.18726 -0.08471,-0.33439 -0.25413,-0.44139c-0.08471,-0.04458 -0.22738,-0.10032 -0.42801,-0.16719c-0.20063,-0.06688 -0.457,-0.1449 -0.76909,-0.23407c-0.45031,-0.11146 -0.84042,-0.24522 -1.17035,-0.40126c-0.32547,-0.16051 -0.59298,-0.3433 -0.80253,-0.54839c-0.18726,-0.20063 -0.33439,-0.42133 -0.44139,-0.66209c-0.10255,-0.24522 -0.15382,-0.51941 -0.15382,-0.82259c0,-0.35222 0.08248,-0.671 0.24745,-0.95635c0.16496,-0.28534 0.38789,-0.53279 0.66877,-0.74234c0.28088,-0.20955 0.60413,-0.36783 0.96972,-0.47483c0.37006,-0.11146 0.74903,-0.16719 1.13691,-0.16719c0.4191,0 0.81813,0.04904 1.1971,0.14713c0.37897,0.09363 0.73342,0.22515 1.06335,0.39458c0.32993,0.16942 0.62196,0.37451 0.87609,0.61527l-1.1971,1.33755c-0.16942,-0.16051 -0.36114,-0.30541 -0.57514,-0.4347c-0.21401,-0.1293 -0.43693,-0.23184 -0.66877,-0.30764c-0.22738,-0.07579 -0.4347,-0.11369 -0.62196,-0.11369c-0.14267,0 -0.26974,0.01338 -0.3812,0.04013c-0.107,0.02229 -0.20063,0.06019 -0.28088,0.11369c-0.07579,0.04904 -0.13375,0.10923 -0.17388,0.18057c-0.03567,0.07134 -0.0535,0.15605 -0.0535,0.25413c0,0.09363 0.02675,0.1828 0.08025,0.26751c0.0535,0.08471 0.12707,0.15605 0.2207,0.21401c0.09809,0.05796 0.24968,0.12261 0.45477,0.19394c0.20955,0.07134 0.49489,0.15828 0.85603,0.26082c0.45031,0.12484 0.83597,0.26305 1.15698,0.41464c0.32547,0.15159 0.58183,0.33216 0.76909,0.54171c0.15605,0.16496 0.27197,0.35445 0.34776,0.56846c0.07579,0.21401 0.11369,0.44362 0.11369,0.68884c0,0.48597 -0.13598,0.91622 -0.40795,1.29073c-0.27197,0.37451 -0.64648,0.66877 -1.12354,0.88278c-0.4726,0.21401 -1.01431,0.32101 -1.62512,0.32101z" fill="#000000" stroke="none" stroke-width="1" stroke-linecap="square"/><path d="M202.45775,202.89879c-0.73119,0 -1.38659,-0.16942 -1.96619,-0.50827c-0.5796,-0.3433 -1.03883,-0.81145 -1.37767,-1.40442c-0.33439,-0.59744 -0.50158,-1.27067 -0.50158,-2.01969c0,-0.75348 0.16719,-1.42672 0.50158,-2.01969c0.33884,-0.59744 0.79807,-1.06558 1.37767,-1.40442c0.5796,-0.3433 1.235,-0.51496 1.96619,-0.51496c0.67769,0 1.29965,0.12038 1.86588,0.36114c0.56623,0.2363 1.01431,0.56846 1.34423,0.99647l-1.23723,1.47799c-0.13375,-0.15159 -0.29203,-0.29203 -0.47483,-0.42133c-0.17834,-0.13375 -0.37674,-0.23853 -0.59521,-0.31432c-0.21847,-0.08025 -0.44808,-0.12038 -0.68884,-0.12038c-0.36114,0 -0.67992,0.08471 -0.95635,0.25413c-0.27197,0.16496 -0.48597,0.39458 -0.64202,0.68884c-0.15159,0.29426 -0.22738,0.6331 -0.22738,1.01654c0,0.36114 0.07802,0.68884 0.23407,0.9831c0.16051,0.29426 0.37897,0.52833 0.6554,0.70221c0.27643,0.16942 0.58852,0.25413 0.93628,0.25413c0.24968,0 0.47929,-0.03121 0.68884,-0.09363c0.20955,-0.06242 0.40126,-0.15382 0.57514,-0.2742c0.17834,-0.12484 0.3433,-0.27865 0.49489,-0.46145l1.22385,1.49805c-0.32101,0.41018 -0.76909,0.73342 -1.34423,0.96972c-0.57514,0.2363 -1.19265,0.35445 -1.8525,0.35445zM210.51969,202.89879c-0.8382,0 -1.56716,-0.16719 -2.18689,-0.50158c-0.61527,-0.33884 -1.09456,-0.8003 -1.43786,-1.38436c-0.33884,-0.58406 -0.50827,-1.25284 -0.50827,-2.00632c0,-0.5796 0.09363,-1.11239 0.28088,-1.59837c0.19171,-0.48597 0.457,-0.9073 0.79584,-1.26398c0.3433,-0.35668 0.75126,-0.63088 1.22385,-0.82259c0.4726,-0.19617 0.98755,-0.29426 1.54487,-0.29426c0.53502,0 1.02322,0.09586 1.46461,0.28757c0.44139,0.18726 0.82259,0.45254 1.1436,0.79584c0.32547,0.3433 0.57291,0.74903 0.74234,1.21717c0.17388,0.46368 0.2519,0.97195 0.23407,1.5248l-0.01338,0.60858h-6.03902l-0.3277,-1.28404h4.50753l-0.24076,0.2742v-0.28757c-0.01783,-0.2363 -0.0914,-0.44585 -0.2207,-0.62865c-0.1293,-0.18726 -0.29872,-0.33216 -0.50827,-0.4347c-0.20955,-0.107 -0.44585,-0.16051 -0.7089,-0.16051c-0.37006,0 -0.68661,0.07357 -0.94966,0.2207c-0.26305,0.14713 -0.46145,0.36114 -0.59521,0.64202c-0.13375,0.28088 -0.20063,0.62419 -0.20063,1.02991c0,0.4191 0.08694,0.78469 0.26082,1.09679c0.17834,0.30764 0.43693,0.54839 0.77578,0.72227c0.33884,0.16942 0.74011,0.25413 1.20379,0.25413c0.32547,0 0.61304,-0.04681 0.86272,-0.14044c0.25413,-0.09809 0.52833,-0.26082 0.82259,-0.4882l1.07004,1.51143c-0.29426,0.25859 -0.60858,0.46814 -0.94297,0.62865c-0.32993,0.16051 -0.66877,0.28088 -1.01654,0.36114c-0.34776,0.08025 -0.69329,0.12038 -1.0366,0.12038zM215.28761,202.75835v-10.55324h2.28052v10.55324zM223.07278,202.89879c-0.8382,0 -1.56716,-0.16719 -2.18689,-0.50158c-0.61527,-0.33884 -1.09456,-0.8003 -1.43786,-1.38436c-0.33884,-0.58406 -0.50827,-1.25284 -0.50827,-2.00632c0,-0.5796 0.09363,-1.11239 0.28088,-1.59837c0.19171,-0.48597 0.457,-0.9073 0.79584,-1.26398c0.3433,-0.35668 0.75126,-0.63088 1.22385,-0.82259c0.4726,-0.19617 0.98755,-0.29426 1.54487,-0.29426c0.53502,0 1.02322,0.09586 1.46461,0.28757c0.44139,0.18726 0.82259,0.45254 1.1436,0.79584c0.32547,0.3433 0.57291,0.74903 0.74234,1.21717c0.17388,0.46368 0.2519,0.97195 0.23407,1.5248l-0.01338,0.60858h-6.03902l-0.3277,-1.28404h4.50753l-0.24076,0.2742v-0.28757c-0.01783,-0.2363 -0.0914,-0.44585 -0.2207,-0.62865c-0.1293,-0.18726 -0.29872,-0.33216 -0.50827,-0.4347c-0.20955,-0.107 -0.44585,-0.16051 -0.7089,-0.16051c-0.37006,0 -0.68661,0.07357 -0.94966,0.2207c-0.26305,0.14713 -0.46145,0.36114 -0.59521,0.64202c-0.13375,0.28088 -0.20063,0.62419 -0.20063,1.02991c0,0.4191 0.08694,0.78469 0.26082,1.09679c0.17834,0.30764 0.43693,0.54839 0.77578,0.72227c0.33884,0.16942 0.74011,0.25413 1.20379,0.25413c0.32547,0 0.61304,-0.04681 0.86272,-0.14044c0.25413,-0.09809 0.52833,-0.26082 0.82259,-0.4882l1.07004,1.51143c-0.29426,0.25859 -0.60858,0.46814 -0.94297,0.62865c-0.32993,0.16051 -0.66877,0.28088 -1.01654,0.36114c-0.34776,0.08025 -0.69329,0.12038 -1.0366,0.12038zM232.37499,202.91217c-0.3433,0 -0.67323,-0.04681 -0.98978,-0.14044c-0.31209,-0.09363 -0.59521,-0.2207 -0.84934,-0.3812c-0.24968,-0.16496 -0.457,-0.35445 -0.62196,-0.56846c-0.16496,-0.21401 -0.27643,-0.4347 -0.33439,-0.66209l0.49489,-0.16719l-0.12707,1.75219h-2.1267v-10.53986h2.30058v4.78842l-0.47483,-0.16719c0.05796,-0.24968 0.16719,-0.48152 0.3277,-0.69552c0.16496,-0.21401 0.37006,-0.40349 0.61527,-0.56846c0.24968,-0.16496 0.52164,-0.29426 0.8159,-0.38789c0.29426,-0.09809 0.59744,-0.14713 0.90953,-0.14713c0.65986,0 1.24392,0.16942 1.75219,0.50827c0.50827,0.33439 0.90953,0.8003 1.20379,1.39774c0.29426,0.59298 0.44139,1.27067 0.44139,2.03307c0,0.76686 -0.1449,1.44901 -0.4347,2.04645c-0.2898,0.59298 -0.68661,1.05889 -1.19042,1.39774c-0.50381,0.33439 -1.07449,0.50158 -1.71206,0.50158zM231.77309,200.99279c0.3433,0 0.64202,-0.08471 0.89616,-0.25413c0.25859,-0.17388 0.457,-0.41018 0.59521,-0.7089c0.13821,-0.30318 0.20732,-0.65763 0.20732,-1.06335c0,-0.40126 -0.06911,-0.75348 -0.20732,-1.05666c-0.13821,-0.30318 -0.33662,-0.53502 -0.59521,-0.69552c-0.25413,-0.16496 -0.55285,-0.24745 -0.89616,-0.24745c-0.35222,0 -0.65763,0.08248 -0.91622,0.24745c-0.25413,0.16051 -0.45254,0.39235 -0.59521,0.69552c-0.14267,0.30318 -0.21401,0.6554 -0.21401,1.05666c0,0.40572 0.07134,0.76017 0.21401,1.06335c0.14267,0.29872 0.34107,0.53502 0.59521,0.7089c0.25859,0.16942 0.564,0.25413 0.91622,0.25413zM237.20694,202.75835v-7.5772h2.17351l0.10032,2.46777l-0.42801,-0.46814c0.11146,-0.41018 0.29872,-0.77578 0.56177,-1.09679c0.26305,-0.32547 0.56846,-0.58183 0.91622,-0.76909c0.35222,-0.19171 0.72896,-0.28757 1.13023,-0.28757c0.16942,0 0.3277,0.01561 0.47483,0.04681c0.14713,0.02675 0.28311,0.05796 0.40795,0.09363l-0.62865,2.52796c-0.10255,-0.06688 -0.24299,-0.12038 -0.42133,-0.16051c-0.17388,-0.04458 -0.35668,-0.06688 -0.54839,-0.06688c-0.20955,0 -0.40572,0.03567 -0.58852,0.107c-0.17834,0.07134 -0.32993,0.17388 -0.45477,0.30764c-0.12038,0.1293 -0.21624,0.28534 -0.28757,0.46814c-0.07134,0.17834 -0.107,0.38343 -0.107,0.61527v3.79194zM246.18575,202.88542c-0.63756,0 -1.20602,-0.16719 -1.70537,-0.50158c-0.49935,-0.33884 -0.89839,-0.80476 -1.1971,-1.39774c-0.29426,-0.59744 -0.44139,-1.27067 -0.44139,-2.01969c0,-0.77132 0.14713,-1.45124 0.44139,-2.03976c0.29872,-0.59298 0.70444,-1.05666 1.21717,-1.39105c0.51273,-0.33884 1.09679,-0.50827 1.75219,-0.50827c0.36114,0 0.69107,0.0535 0.98978,0.16051c0.30318,0.10255 0.56846,0.24745 0.79584,0.4347c0.22738,0.1828 0.42133,0.39681 0.58183,0.64202c0.16496,0.24076 0.28534,0.49935 0.36114,0.77578l-0.47483,-0.06019v-1.799h2.26714v7.5772h-2.30727v-1.82575l0.51496,-0.01338c-0.07579,0.26751 -0.20063,0.51941 -0.37451,0.75571c-0.16942,0.2363 -0.37897,0.44585 -0.62865,0.62865c-0.24522,0.17834 -0.52164,0.32101 -0.82928,0.42801c-0.30318,0.10255 -0.62419,0.15382 -0.96303,0.15382zM246.80771,200.95935c0.35222,0 0.6554,-0.08025 0.90953,-0.24076c0.25859,-0.16051 0.45922,-0.39012 0.6019,-0.68884c0.14267,-0.30318 0.21401,-0.65763 0.21401,-1.06335c0,-0.41018 -0.07134,-0.76463 -0.21401,-1.06335c-0.14267,-0.29872 -0.3433,-0.53056 -0.6019,-0.69552c-0.25413,-0.16942 -0.55731,-0.25413 -0.90953,-0.25413c-0.33884,0 -0.63533,0.08471 -0.88947,0.25413c-0.24968,0.16496 -0.44585,0.39681 -0.58852,0.69552c-0.14267,0.29872 -0.21401,0.65317 -0.21401,1.06335c0,0.40572 0.07134,0.76017 0.21401,1.06335c0.14267,0.29872 0.33884,0.52833 0.58852,0.68884c0.25413,0.16051 0.55062,0.24076 0.88947,0.24076zM253.41281,202.75835v-9.4832h2.2872v9.4832zM252.07526,197.18078v-1.99963h5.08936v1.99963zM262.00163,202.89879c-0.8382,0 -1.56716,-0.16719 -2.18689,-0.50158c-0.61527,-0.33884 -1.09456,-0.8003 -1.43786,-1.38436c-0.33884,-0.58406 -0.50827,-1.25284 -0.50827,-2.00632c0,-0.5796 0.09363,-1.11239 0.28088,-1.59837c0.19171,-0.48597 0.457,-0.9073 0.79584,-1.26398c0.3433,-0.35668 0.75126,-0.63088 1.22385,-0.82259c0.4726,-0.19617 0.98755,-0.29426 1.54487,-0.29426c0.53502,0 1.02322,0.09586 1.46461,0.28757c0.44139,0.18726 0.82259,0.45254 1.1436,0.79584c0.32547,0.3433 0.57291,0.74903 0.74234,1.21717c0.17388,0.46368 0.2519,0.97195 0.23407,1.5248l-0.01338,0.60858h-6.03902l-0.3277,-1.28404h4.50753l-0.24076,0.2742v-0.28757c-0.01783,-0.2363 -0.0914,-0.44585 -0.2207,-0.62865c-0.1293,-0.18726 -0.29872,-0.33216 -0.50827,-0.4347c-0.20955,-0.107 -0.44585,-0.16051 -0.7089,-0.16051c-0.37006,0 -0.68661,0.07357 -0.94966,0.2207c-0.26305,0.14713 -0.46145,0.36114 -0.59521,0.64202c-0.13375,0.28088 -0.20063,0.62419 -0.20063,1.02991c0,0.4191 0.08694,0.78469 0.26082,1.09679c0.17834,0.30764 0.43693,0.54839 0.77578,0.72227c0.33884,0.16942 0.74011,0.25413 1.20379,0.25413c0.32547,0 0.61304,-0.04681 0.86272,-0.14044c0.25413,-0.09809 0.52833,-0.26082 0.82259,-0.4882l1.07004,1.51143c-0.29426,0.25859 -0.60858,0.46814 -0.94297,0.62865c-0.32993,0.16051 -0.66877,0.28088 -1.01654,0.36114c-0.34776,0.08025 -0.69329,0.12038 -1.0366,0.12038zM269.61854,202.91217c-0.6554,0 -1.23723,-0.16719 -1.7455,-0.50158c-0.50827,-0.33884 -0.90953,-0.80476 -1.20379,-1.39774c-0.29426,-0.59744 -0.44139,-1.27513 -0.44139,-2.03307c0,-0.7624 0.14713,-1.44009 0.44139,-2.03307c0.29426,-0.59744 0.69775,-1.06558 1.21048,-1.40442c0.51273,-0.3433 1.10125,-0.51496 1.76556,-0.51496c0.3433,0 0.671,0.0535 0.9831,0.16051c0.31655,0.10255 0.6019,0.24522 0.85603,0.42801c0.25859,0.17834 0.46814,0.38343 0.62865,0.61527c0.16496,0.23184 0.26082,0.4726 0.28757,0.72227l-0.54171,0.12707v-4.87536h2.29389v10.55324h-2.12001l-0.13375,-1.72543l0.46145,0.07357c-0.03121,0.2363 -0.12484,0.46368 -0.28088,0.68215c-0.15605,0.21847 -0.35891,0.41241 -0.60858,0.58183c-0.24522,0.16496 -0.52833,0.29649 -0.84934,0.39458c-0.31655,0.09809 -0.65094,0.14713 -1.00316,0.14713zM270.20706,201.01954c0.35222,0 0.6554,-0.08471 0.90953,-0.25413c0.25859,-0.17388 0.457,-0.41241 0.59521,-0.71559c0.13821,-0.30764 0.20732,-0.66432 0.20732,-1.07004c0,-0.4191 -0.06911,-0.78023 -0.20732,-1.08341c-0.13821,-0.30764 -0.33662,-0.54616 -0.59521,-0.71559c-0.25413,-0.16942 -0.55731,-0.25413 -0.90953,-0.25413c-0.35222,0 -0.6554,0.08471 -0.90953,0.25413c-0.24968,0.16942 -0.44585,0.40795 -0.58852,0.71559c-0.14267,0.30318 -0.21401,0.66432 -0.21401,1.08341c0,0.40572 0.07134,0.7624 0.21401,1.07004c0.14267,0.30318 0.33884,0.54171 0.58852,0.71559c0.25413,0.16942 0.55731,0.25413 0.90953,0.25413zM277.85098,199.33423l-0.45477,-1.86588c0.27643,-0.06688 0.53725,-0.1449 0.78246,-0.23407c0.24522,-0.09363 0.4726,-0.19171 0.68215,-0.29426c0.20955,-0.107 0.38789,-0.22961 0.53502,-0.36783c0.14713,-0.13821 0.26305,-0.2898 0.34776,-0.45477c0.08917,-0.16496 0.13375,-0.3433 0.13375,-0.53502c0,-0.19171 -0.04904,-0.35445 -0.14713,-0.4882c-0.09363,-0.13821 -0.2207,-0.24522 -0.3812,-0.32101c-0.16051,-0.08025 -0.34999,-0.12038 -0.56846,-0.12038c-0.31655,0 -0.6331,0.11369 -0.94966,0.34107c-0.31209,0.22293 -0.59967,0.58183 -0.86272,1.07672l-1.55824,-1.44455c0.42801,-0.6554 0.93851,-1.16367 1.53149,-1.5248c0.59744,-0.36114 1.2194,-0.54171 1.86588,-0.54171c0.62865,0 1.19487,0.12707 1.69868,0.3812c0.50381,0.24968 0.90284,0.59521 1.1971,1.0366c0.29426,0.44139 0.44139,0.93851 0.44139,1.49136c0,0.35222 -0.07357,0.69998 -0.2207,1.04329c-0.14713,0.3433 -0.35222,0.66432 -0.61527,0.96303c-0.25859,0.29872 -0.564,0.56177 -0.91622,0.78915c-0.35222,0.22738 -0.74234,0.40349 -1.17035,0.52833l-0.14713,0.54171zM277.33602,201.64819c0,-0.38343 0.11369,-0.69329 0.34107,-0.92959c0.23184,-0.2363 0.52833,-0.35445 0.88947,-0.35445c0.38789,0 0.69107,0.11146 0.90953,0.33439c0.21847,0.22293 0.3277,0.53948 0.3277,0.94966c0,0.37006 -0.11369,0.67323 -0.34107,0.90953c-0.22738,0.2363 -0.5261,0.35445 -0.89616,0.35445c-0.39235,0 -0.69552,-0.10923 -0.90953,-0.3277c-0.21401,-0.21847 -0.32101,-0.53056 -0.32101,-0.93628z" fill="#000000" stroke="none" stroke-width="1" stroke-linecap="square"/></g></g></svg>