<svg version="1.1" xmlns="http://www.w3.org/2000/svg" xmlns:xlink="http://www.w3.org/1999/xlink" width="205.64286" height="99.25" viewBox="0,0,205.64286,99.25"><g transform="translate(-137.30606,-131)"><g data-paper-data="{&quot;isPaintingLayer&quot;:true}" fill-rule="nonzero" stroke-linejoin="miter" stroke-miterlimit="10" stroke-dasharray="" stroke-dashoffset="0" style="mix-blend-mode: normal"><path d="M140.55606,207.25c0,-18.73959 -0.38249,-45.48871 0,-55.5c0.5,-13.0871 3.89541,-16.75 15.32143,-16.75c22.08229,0 127.56734,0 168,0c15.33535,0 15.82143,4.98326 15.82143,16.75c0,17.95892 0,45.32915 0,56c0,14.97422 -0.38765,19.25 -14.32143,19.25c-38.12556,0 -140.83396,0 -165,0c-18.91714,0 -19.82143,-3.40978 -19.82143,-19.75z" fill="#ffffff" stroke-opacity="0.25901" stroke="#000000" stroke-width="6.5" stroke-linecap="butt"/><path d="M140.47107,205.25c0,-18.73959 -0.38249,-45.48871 0,-55.5c0.5,-13.0871 3.89541,-16.75 15.32143,-16.75c22.08229,0 127.56734,0 168,0c15.33535,0 15.82143,4.98326 15.82143,16.75c0,17.95892 0,45.32915 0,56c0,14.97422 -0.38765,19.25 -14.32143,19.25c-38.12556,0 -140.83396,0 -165,0c-18.91714,0 -19.82143,-3.40978 -19.82143,-19.75z" fill="#ffffff" stroke="#000000" stroke-width="4" stroke-linecap="butt"/><path d="M164.05228,158.29898l-2.94262,-9.82849h2.42915l1.4746,5.16769c0.06144,0.2326 0.11849,0.46959 0.17116,0.71097c0.05266,0.23699 0.09436,0.46301 0.12508,0.67805c0.03511,0.21505 0.06144,0.41473 0.079,0.59906c0.01755,0.17994 0.0373,0.33135 0.05925,0.45423h-0.3094c0.05266,-0.34671 0.10094,-0.65611 0.14483,-0.92821c0.04389,-0.2721 0.09216,-0.52664 0.14483,-0.76363c0.05705,-0.23699 0.12727,-0.48715 0.21066,-0.75047l1.46144,-3.89058h1.90908l1.4351,3.89058c0.11411,0.30721 0.20846,0.59686 0.28307,0.86896c0.07461,0.2721 0.13166,0.53323 0.17116,0.78338c0.04389,0.24577 0.079,0.48934 0.10533,0.73072l-0.27649,0.04608c0.01755,-0.17116 0.03072,-0.32915 0.0395,-0.47398c0.00878,-0.14483 0.01975,-0.28527 0.03292,-0.42132c0.01755,-0.13605 0.03511,-0.27868 0.05266,-0.4279c0.01755,-0.14922 0.04389,-0.31379 0.079,-0.49373c0.0395,-0.18433 0.09216,-0.39279 0.15799,-0.62539l1.46144,-5.15453h2.3699l-2.94921,9.82849h-1.8235l-2.3304,-5.66142l0.26991,0.03292l-2.15266,5.62851zM175.98777,158.29898v-10.38805h2.20532v4.45014l-0.44765,0.16458c0.10533,-0.33354 0.28965,-0.63856 0.55298,-0.91504c0.26771,-0.27649 0.58809,-0.49812 0.96113,-0.66489c0.37743,-0.17116 0.77241,-0.25674 1.18495,-0.25674c0.56175,0 1.03354,0.11411 1.41536,0.34232c0.38182,0.22821 0.67147,0.57053 0.86896,1.02696c0.19749,0.45204 0.29624,1.00721 0.29624,1.66551v4.57522h-2.25799v-4.39748c0,-0.29843 -0.04389,-0.5442 -0.13166,-0.7373c-0.08338,-0.19749 -0.21285,-0.34451 -0.3884,-0.44106c-0.17116,-0.10094 -0.38182,-0.14702 -0.63197,-0.13824c-0.19749,0 -0.38182,0.03072 -0.55298,0.09216c-0.16677,0.06144 -0.3116,0.15141 -0.43448,0.26991c-0.11849,0.11411 -0.21285,0.24577 -0.28307,0.39498c-0.07022,0.14922 -0.10533,0.31379 -0.10533,0.49373v4.46331h-1.11254c-0.26332,0 -0.48934,0 -0.67805,0c-0.18433,0 -0.33793,0 -0.46081,0zM188.41954,158.43722c-0.7768,0 -1.46802,-0.16677 -2.07366,-0.50031c-0.60564,-0.33793 -1.08401,-0.79655 -1.4351,-1.37586c-0.34671,-0.5837 -0.52006,-1.24858 -0.52006,-1.99466c0,-0.75047 0.17335,-1.41536 0.52006,-1.99466c0.3511,-0.5837 0.82946,-1.04232 1.4351,-1.37586c0.60564,-0.33793 1.29686,-0.50689 2.07366,-0.50689c0.7768,0 1.46582,0.16896 2.06708,0.50689c0.60564,0.33354 1.08182,0.79216 1.42852,1.37586c0.34671,0.57931 0.52006,1.2442 0.52006,1.99466c0,0.74608 -0.17335,1.41097 -0.52006,1.99466c-0.34671,0.57931 -0.82288,1.03793 -1.42852,1.37586c-0.60125,0.33354 -1.29028,0.50031 -2.06708,0.50031zM188.41954,156.50181c0.33354,0 0.63197,-0.08338 0.89529,-0.25016c0.26332,-0.17116 0.46959,-0.40157 0.61881,-0.69122c0.14922,-0.28965 0.21944,-0.621 0.21066,-0.99404c0.00878,-0.37743 -0.06144,-0.71316 -0.21066,-1.00721c-0.14922,-0.29404 -0.35548,-0.52445 -0.61881,-0.69122c-0.26332,-0.17116 -0.56175,-0.25674 -0.89529,-0.25674c-0.33793,0 -0.64075,0.08558 -0.90846,0.25674c-0.26771,0.16677 -0.47617,0.39718 -0.62539,0.69122c-0.14922,0.29404 -0.21944,0.62978 -0.21066,1.00721c-0.00878,0.37304 0.06144,0.70439 0.21066,0.99404c0.14922,0.28965 0.35768,0.52006 0.62539,0.69122c0.26771,0.16677 0.57053,0.25016 0.90846,0.25016zM198.39818,158.29898v-10.38805h2.20532v4.45014l-0.44765,0.16458c0.10533,-0.33354 0.28965,-0.63856 0.55298,-0.91504c0.26771,-0.27649 0.58809,-0.49812 0.96113,-0.66489c0.37743,-0.17116 0.77241,-0.25674 1.18495,-0.25674c0.56175,0 1.03354,0.11411 1.41536,0.34232c0.38182,0.22821 0.67147,0.57053 0.86896,1.02696c0.19749,0.45204 0.29624,1.00721 0.29624,1.66551v4.57522h-2.25799v-4.39748c0,-0.29843 -0.04389,-0.5442 -0.13166,-0.7373c-0.08338,-0.19749 -0.21285,-0.34451 -0.3884,-0.44106c-0.17116,-0.10094 -0.38182,-0.14702 -0.63197,-0.13824c-0.19749,0 -0.38182,0.03072 -0.55298,0.09216c-0.16677,0.06144 -0.3116,0.15141 -0.43448,0.26991c-0.11849,0.11411 -0.21285,0.24577 -0.28307,0.39498c-0.07022,0.14922 -0.10533,0.31379 -0.10533,0.49373v4.46331h-1.11254c-0.26332,0 -0.48934,0 -0.67805,0c-0.18433,0 -0.33793,0 -0.46081,0zM210.82996,158.43722c-0.7768,0 -1.46802,-0.16677 -2.07366,-0.50031c-0.60564,-0.33793 -1.08401,-0.79655 -1.4351,-1.37586c-0.34671,-0.5837 -0.52006,-1.24858 -0.52006,-1.99466c0,-0.75047 0.17335,-1.41536 0.52006,-1.99466c0.3511,-0.5837 0.82946,-1.04232 1.4351,-1.37586c0.60564,-0.33793 1.29686,-0.50689 2.07366,-0.50689c0.7768,0 1.46582,0.16896 2.06708,0.50689c0.60564,0.33354 1.08182,0.79216 1.42852,1.37586c0.34671,0.57931 0.52006,1.2442 0.52006,1.99466c0,0.74608 -0.17335,1.41097 -0.52006,1.99466c-0.34671,0.57931 -0.82288,1.03793 -1.42852,1.37586c-0.60125,0.33354 -1.29028,0.50031 -2.06708,0.50031zM210.82996,156.50181c0.33354,0 0.63197,-0.08338 0.89529,-0.25016c0.26332,-0.17116 0.46959,-0.40157 0.61881,-0.69122c0.14922,-0.28965 0.21944,-0.621 0.21066,-0.99404c0.00878,-0.37743 -0.06144,-0.71316 -0.21066,-1.00721c-0.14922,-0.29404 -0.35548,-0.52445 -0.61881,-0.69122c-0.26332,-0.17116 -0.56175,-0.25674 -0.89529,-0.25674c-0.33793,0 -0.64075,0.08558 -0.90846,0.25674c-0.26771,0.16677 -0.47617,0.39718 -0.62539,0.69122c-0.14922,0.29404 -0.21944,0.62978 -0.21066,1.00721c-0.00878,0.37304 0.06144,0.70439 0.21066,0.99404c0.14922,0.28965 0.35768,0.52006 0.62539,0.69122c0.26771,0.16677 0.57053,0.25016 0.90846,0.25016zM216.33504,158.29898v-10.38805h2.24482v10.38805zM223.26763,158.45039c-0.64514,0 -1.21786,-0.16458 -1.71818,-0.49373c-0.50031,-0.33354 -0.89529,-0.79216 -1.18495,-1.37586c-0.28965,-0.58809 -0.43448,-1.25517 -0.43448,-2.00125c0,-0.75047 0.14483,-1.41755 0.43448,-2.00125c0.28965,-0.58809 0.68683,-1.0489 1.19153,-1.38244c0.5047,-0.33793 1.08401,-0.50689 1.73792,-0.50689c0.33793,0 0.6605,0.05266 0.96771,0.15799c0.3116,0.10094 0.59247,0.24138 0.84263,0.42132c0.25454,0.17555 0.46081,0.37743 0.61881,0.60564c0.16238,0.22821 0.25674,0.4652 0.28307,0.71097l-0.53323,0.12508v-4.79904h2.25799v10.38805h-2.08683l-0.13166,-1.69843l0.45423,0.07241c-0.03072,0.2326 -0.12288,0.45643 -0.27649,0.67147c-0.15361,0.21505 -0.35329,0.40595 -0.59906,0.57273c-0.24138,0.16238 -0.52006,0.29185 -0.83605,0.3884c-0.3116,0.09655 -0.64075,0.14483 -0.98746,0.14483zM223.84694,156.58739c0.34671,0 0.64514,-0.08338 0.89529,-0.25016c0.25454,-0.17116 0.44984,-0.40595 0.58589,-0.70439c0.13605,-0.30282 0.20407,-0.65392 0.20407,-1.05329c0,-0.41254 -0.06803,-0.76802 -0.20407,-1.06645c-0.13605,-0.30282 -0.33135,-0.53761 -0.58589,-0.70439c-0.25016,-0.16677 -0.54859,-0.25016 -0.89529,-0.25016c-0.34671,0 -0.64514,0.08338 -0.89529,0.25016c-0.24577,0.16677 -0.43887,0.40157 -0.57931,0.70439c-0.14044,0.29843 -0.21066,0.65392 -0.21066,1.06645c0,0.39937 0.07022,0.75047 0.21066,1.05329c0.14044,0.29843 0.33354,0.53323 0.57931,0.70439c0.25016,0.16677 0.54859,0.25016 0.89529,0.25016zM232.14144,158.43722c-0.72852,0 -1.37147,-0.1163 -1.92883,-0.3489c-0.55736,-0.2326 -1.00062,-0.54639 -1.32978,-0.94138l1.36269,-1.17837c0.28965,0.28965 0.61661,0.50251 0.98087,0.63856c0.36865,0.13605 0.71536,0.20407 1.04012,0.20407c0.13166,0 0.24796,-0.01317 0.3489,-0.0395c0.10533,-0.03072 0.1931,-0.07022 0.26332,-0.11849c0.07022,-0.05266 0.12288,-0.11411 0.15799,-0.18433c0.0395,-0.07022 0.05925,-0.15361 0.05925,-0.25016c0,-0.18433 -0.08338,-0.32915 -0.25016,-0.43448c-0.08338,-0.04389 -0.22382,-0.09875 -0.42132,-0.16458c-0.19749,-0.06583 -0.44984,-0.14263 -0.75705,-0.23041c-0.44326,-0.10972 -0.82727,-0.24138 -1.15203,-0.39498c-0.32037,-0.15799 -0.5837,-0.33793 -0.78997,-0.53981c-0.18433,-0.19749 -0.32915,-0.41473 -0.43448,-0.65172c-0.10094,-0.24138 -0.15141,-0.51128 -0.15141,-0.80972c0,-0.34671 0.08119,-0.6605 0.24357,-0.94138c0.16238,-0.28088 0.38182,-0.52445 0.6583,-0.73072c0.27649,-0.20627 0.59467,-0.36207 0.95454,-0.4674c0.36426,-0.10972 0.7373,-0.16458 1.11912,-0.16458c0.41254,0 0.80533,0.04828 1.17837,0.14483c0.37304,0.09216 0.72194,0.22163 1.0467,0.3884c0.32476,0.16677 0.61222,0.36865 0.86238,0.60564l-1.17837,1.31661c-0.16677,-0.15799 -0.35548,-0.30063 -0.56614,-0.4279c-0.21066,-0.12727 -0.43009,-0.22821 -0.6583,-0.30282c-0.22382,-0.07461 -0.4279,-0.11191 -0.61222,-0.11191c-0.14044,0 -0.26552,0.01317 -0.37523,0.0395c-0.10533,0.02194 -0.19749,0.05925 -0.27649,0.11191c-0.07461,0.04828 -0.13166,0.10752 -0.17116,0.17774c-0.03511,0.07022 -0.05266,0.15361 -0.05266,0.25016c0,0.09216 0.02633,0.17994 0.079,0.26332c0.05266,0.08338 0.12508,0.15361 0.21724,0.21066c0.09655,0.05705 0.24577,0.12069 0.44765,0.19091c0.20627,0.07022 0.48715,0.1558 0.84263,0.25674c0.44326,0.12288 0.82288,0.25893 1.13887,0.40815c0.32037,0.14922 0.57273,0.32696 0.75705,0.53323c0.15361,0.16238 0.26771,0.3489 0.34232,0.55956c0.07461,0.21066 0.11191,0.43668 0.11191,0.67805c0,0.47837 -0.13386,0.90188 -0.40157,1.27053c-0.26771,0.36865 -0.63636,0.6583 -1.10595,0.86896c-0.4652,0.21066 -0.99843,0.31599 -1.59968,0.31599zM241.68945,158.29898v-9.33476h2.2514v9.33476zM240.37284,152.80872v-1.96833h5.0097v1.96833zM246.6592,158.29898v-10.38805h2.20532v4.45014l-0.44765,0.16458c0.10533,-0.33354 0.28965,-0.63856 0.55298,-0.91504c0.26771,-0.27649 0.58809,-0.49812 0.96113,-0.66489c0.37743,-0.17116 0.77241,-0.25674 1.18495,-0.25674c0.56175,0 1.03354,0.11411 1.41536,0.34232c0.38182,0.22821 0.67147,0.57053 0.86896,1.02696c0.19749,0.45204 0.29624,1.00721 0.29624,1.66551v4.57522h-2.25799v-4.39748c0,-0.29843 -0.04389,-0.5442 -0.13166,-0.7373c-0.08338,-0.19749 -0.21285,-0.34451 -0.3884,-0.44106c-0.17116,-0.10094 -0.38182,-0.14702 -0.63197,-0.13824c-0.19749,0 -0.38182,0.03072 -0.55298,0.09216c-0.16677,0.06144 -0.3116,0.15141 -0.43448,0.26991c-0.11849,0.11411 -0.21285,0.24577 -0.28307,0.39498c-0.07022,0.14922 -0.10533,0.31379 -0.10533,0.49373v4.46331h-1.11254c-0.26332,0 -0.48934,0 -0.67805,0c-0.18433,0 -0.33793,0 -0.46081,0zM259.13048,158.43722c-0.82508,0 -1.54263,-0.16458 -2.15266,-0.49373c-0.60564,-0.33354 -1.07742,-0.78777 -1.41536,-1.36269c-0.33354,-0.57492 -0.50031,-1.23323 -0.50031,-1.97491c0,-0.57053 0.09216,-1.09498 0.27649,-1.57335c0.18871,-0.47837 0.44984,-0.8931 0.78338,-1.2442c0.33793,-0.3511 0.7395,-0.621 1.2047,-0.80972c0.4652,-0.1931 0.9721,-0.28965 1.52068,-0.28965c0.52664,0 1.00721,0.09436 1.44169,0.28307c0.43448,0.18433 0.80972,0.44545 1.1257,0.78338c0.32037,0.33793 0.56395,0.7373 0.73072,1.19811c0.17116,0.45643 0.24796,0.95674 0.23041,1.50094l-0.01317,0.59906h-5.94449l-0.32257,-1.26395h4.43698l-0.23699,0.26991v-0.28307c-0.01755,-0.2326 -0.08997,-0.43887 -0.21724,-0.61881c-0.12727,-0.18433 -0.29404,-0.32696 -0.50031,-0.4279c-0.20627,-0.10533 -0.43887,-0.15799 -0.6978,-0.15799c-0.36426,0 -0.67586,0.07241 -0.93479,0.21724c-0.25893,0.14483 -0.45423,0.35548 -0.58589,0.63197c-0.13166,0.27649 -0.19749,0.61442 -0.19749,1.01379c0,0.41254 0.08558,0.77241 0.25674,1.07962c0.17555,0.30282 0.43009,0.53981 0.76363,0.71097c0.33354,0.16677 0.72852,0.25016 1.18495,0.25016c0.32037,0 0.60345,-0.04608 0.84921,-0.13824c0.25016,-0.09655 0.52006,-0.25674 0.80972,-0.48056l1.05329,1.48777c-0.28965,0.25454 -0.59906,0.46081 -0.92821,0.61881c-0.32476,0.15799 -0.6583,0.27649 -1.00062,0.35548c-0.34232,0.079 -0.68244,0.11849 -1.02037,0.11849zM271.56912,158.43722c-0.71975,0 -1.36489,-0.16677 -1.93542,-0.50031c-0.57053,-0.33793 -1.02257,-0.79874 -1.35611,-1.38244c-0.32915,-0.58809 -0.49373,-1.25078 -0.49373,-1.98808c0,-0.74169 0.16458,-1.40438 0.49373,-1.98808c0.33354,-0.58809 0.78558,-1.0489 1.35611,-1.38244c0.57053,-0.33793 1.21567,-0.50689 1.93542,-0.50689c0.66708,0 1.27931,0.11849 1.83667,0.35548c0.55736,0.2326 0.99843,0.55956 1.32319,0.98087l-1.21786,1.45485c-0.13166,-0.14922 -0.28746,-0.28746 -0.4674,-0.41473c-0.17555,-0.13166 -0.37085,-0.23479 -0.58589,-0.3094c-0.21505,-0.079 -0.44106,-0.11849 -0.67805,-0.11849c-0.35548,0 -0.66928,0.08338 -0.94138,0.25016c-0.26771,0.16238 -0.47837,0.3884 -0.63197,0.67805c-0.14922,0.28965 -0.22382,0.62319 -0.22382,1.00062c0,0.35548 0.0768,0.67805 0.23041,0.96771c0.15799,0.28965 0.37304,0.52006 0.64514,0.69122c0.2721,0.16677 0.57931,0.25016 0.92163,0.25016c0.24577,0 0.47178,-0.03072 0.67805,-0.09216c0.20627,-0.06144 0.39498,-0.15141 0.56614,-0.26991c0.17555,-0.12288 0.33793,-0.27429 0.48715,-0.45423l1.2047,1.4746c-0.31599,0.40376 -0.75705,0.72194 -1.32319,0.95454c-0.56614,0.2326 -1.17398,0.3489 -1.8235,0.3489zM278.49765,158.45039c-0.55298,0 -1.02476,-0.11849 -1.41536,-0.35548c-0.3862,-0.23699 -0.68464,-0.57931 -0.89529,-1.02696c-0.21066,-0.45204 -0.31599,-0.99185 -0.31599,-1.61943v-4.60813h2.25799v4.29873c0,0.29843 0.04608,0.55517 0.13824,0.77022c0.09655,0.21505 0.23699,0.38182 0.42132,0.50031c0.18871,0.11849 0.41473,0.17774 0.67805,0.17774c0.19749,0 0.37743,-0.03292 0.53981,-0.09875c0.16238,-0.06583 0.30282,-0.1558 0.42132,-0.26991c0.11849,-0.11849 0.20846,-0.25454 0.26991,-0.40815c0.06583,-0.15799 0.09875,-0.32915 0.09875,-0.51348v-4.45672h2.26457v7.45859h-2.11974l-0.09875,-1.52727l0.42132,-0.17116c-0.11411,0.35548 -0.30282,0.67147 -0.56614,0.94796c-0.25893,0.27649 -0.57273,0.49592 -0.94138,0.6583c-0.36426,0.16238 -0.75047,0.24357 -1.15862,0.24357zM284.96472,158.29898v-7.45859h2.13949l0.09875,2.42915l-0.42132,-0.46081c0.10972,-0.40376 0.29404,-0.76363 0.55298,-1.07962c0.25893,-0.32037 0.55956,-0.57273 0.90188,-0.75705c0.34671,-0.18871 0.71755,-0.28307 1.11254,-0.28307c0.16677,0 0.32257,0.01536 0.4674,0.04608c0.14483,0.02633 0.27868,0.05705 0.40157,0.09216l-0.61881,2.48839c-0.10094,-0.06583 -0.23918,-0.11849 -0.41473,-0.15799c-0.17116,-0.04389 -0.3511,-0.06583 -0.53981,-0.06583c-0.20627,0 -0.39937,0.03511 -0.57931,0.10533c-0.17555,0.07022 -0.32476,0.17116 -0.44765,0.30282c-0.11849,0.12727 -0.21285,0.28088 -0.28307,0.46081c-0.07022,0.17555 -0.10533,0.37743 -0.10533,0.60564v3.73259zM291.35368,158.29898v-7.45859h2.13949l0.09875,2.42915l-0.42132,-0.46081c0.10972,-0.40376 0.29404,-0.76363 0.55298,-1.07962c0.25893,-0.32037 0.55956,-0.57273 0.90188,-0.75705c0.34671,-0.18871 0.71755,-0.28307 1.11254,-0.28307c0.16677,0 0.32257,0.01536 0.4674,0.04608c0.14483,0.02633 0.27868,0.05705 0.40157,0.09216l-0.61881,2.48839c-0.10094,-0.06583 -0.23918,-0.11849 -0.41473,-0.15799c-0.17116,-0.04389 -0.3511,-0.06583 -0.53981,-0.06583c-0.20627,0 -0.39937,0.03511 -0.57931,0.10533c-0.17555,0.07022 -0.32476,0.17116 -0.44765,0.30282c-0.11849,0.12727 -0.21285,0.28088 -0.28307,0.46081c-0.07022,0.17555 -0.10533,0.37743 -0.10533,0.60564v3.73259zM300.98848,158.43722c-0.82508,0 -1.54263,-0.16458 -2.15266,-0.49373c-0.60564,-0.33354 -1.07742,-0.78777 -1.41536,-1.36269c-0.33354,-0.57492 -0.50031,-1.23323 -0.50031,-1.97491c0,-0.57053 0.09216,-1.09498 0.27649,-1.57335c0.18871,-0.47837 0.44984,-0.8931 0.78338,-1.2442c0.33793,-0.3511 0.7395,-0.621 1.2047,-0.80972c0.4652,-0.1931 0.9721,-0.28965 1.52068,-0.28965c0.52664,0 1.00721,0.09436 1.44169,0.28307c0.43448,0.18433 0.80972,0.44545 1.1257,0.78338c0.32037,0.33793 0.56395,0.7373 0.73072,1.19811c0.17116,0.45643 0.24796,0.95674 0.23041,1.50094l-0.01317,0.59906h-5.94449l-0.32257,-1.26395h4.43698l-0.23699,0.26991v-0.28307c-0.01755,-0.2326 -0.08997,-0.43887 -0.21724,-0.61881c-0.12727,-0.18433 -0.29404,-0.32696 -0.50031,-0.4279c-0.20627,-0.10533 -0.43887,-0.15799 -0.6978,-0.15799c-0.36426,0 -0.67586,0.07241 -0.93479,0.21724c-0.25893,0.14483 -0.45423,0.35548 -0.58589,0.63197c-0.13166,0.27649 -0.19749,0.61442 -0.19749,1.01379c0,0.41254 0.08558,0.77241 0.25674,1.07962c0.17555,0.30282 0.43009,0.53981 0.76363,0.71097c0.33354,0.16677 0.72852,0.25016 1.18495,0.25016c0.32037,0 0.60345,-0.04608 0.84921,-0.13824c0.25016,-0.09655 0.52006,-0.25674 0.80972,-0.48056l1.05329,1.48777c-0.28965,0.25454 -0.59906,0.46081 -0.92821,0.61881c-0.32476,0.15799 -0.6583,0.27649 -1.00062,0.35548c-0.34232,0.079 -0.68244,0.11849 -1.02037,0.11849zM305.66201,158.29898v-7.45859h2.13949l0.06583,1.52068l-0.44765,0.16458c0.10533,-0.33354 0.28965,-0.63856 0.55298,-0.91504c0.26771,-0.27649 0.58809,-0.49812 0.96113,-0.66489c0.37743,-0.17116 0.77241,-0.25674 1.18495,-0.25674c0.56175,0 1.03354,0.11411 1.41536,0.34232c0.38182,0.22821 0.67147,0.57053 0.86896,1.02696c0.19749,0.45204 0.29624,1.00721 0.29624,1.66551v4.57522h-2.25799v-4.39748c0,-0.29843 -0.04389,-0.5442 -0.13166,-0.7373c-0.08338,-0.19749 -0.21285,-0.34451 -0.3884,-0.44106c-0.17116,-0.10094 -0.38182,-0.14702 -0.63197,-0.13824c-0.19749,0 -0.38182,0.03072 -0.55298,0.09216c-0.16677,0.06144 -0.3116,0.15141 -0.43448,0.26991c-0.11849,0.11411 -0.21285,0.24577 -0.28307,0.39498c-0.07022,0.14922 -0.10533,0.31379 -0.10533,0.49373v4.46331h-1.11254c-0.26332,0 -0.48934,0 -0.67805,0c-0.18433,0 -0.33793,0 -0.46081,0zM315.19725,158.29898v-9.33476h2.2514v9.33476zM313.88064,152.80872v-1.96833h5.0097v1.96833z" fill="#000000" stroke="none" stroke-width="1" stroke-linecap="square"/><path d="M162.16386,175.15158v-7.45859h2.13949l0.09875,2.42915l-0.42132,-0.46081c0.10972,-0.40376 0.29404,-0.76363 0.55298,-1.07962c0.25893,-0.32037 0.55956,-0.57273 0.90188,-0.75705c0.34671,-0.18871 0.71755,-0.28307 1.11254,-0.28307c0.16677,0 0.32257,0.01536 0.4674,0.04608c0.14483,0.02633 0.27868,0.05705 0.40157,0.09216l-0.61881,2.48839c-0.10094,-0.06583 -0.23918,-0.11849 -0.41473,-0.15799c-0.17116,-0.04389 -0.3511,-0.06583 -0.53981,-0.06583c-0.20627,0 -0.39937,0.03511 -0.57931,0.10533c-0.17555,0.07022 -0.32476,0.17116 -0.44765,0.30282c-0.11849,0.12727 -0.21285,0.28088 -0.28307,0.46081c-0.07022,0.17555 -0.10533,0.37743 -0.10533,0.60564v3.73259zM171.79868,175.28983c-0.82508,0 -1.54263,-0.16458 -2.15266,-0.49373c-0.60564,-0.33354 -1.07742,-0.78777 -1.41536,-1.36269c-0.33354,-0.57492 -0.50031,-1.23323 -0.50031,-1.97491c0,-0.57053 0.09216,-1.09498 0.27649,-1.57335c0.18871,-0.47837 0.44984,-0.8931 0.78338,-1.2442c0.33793,-0.3511 0.7395,-0.621 1.2047,-0.80972c0.4652,-0.1931 0.9721,-0.28965 1.52068,-0.28965c0.52664,0 1.00721,0.09436 1.44169,0.28307c0.43448,0.18433 0.80972,0.44545 1.1257,0.78338c0.32037,0.33793 0.56395,0.7373 0.73072,1.19811c0.17116,0.45643 0.24796,0.95674 0.23041,1.50094l-0.01317,0.59906h-5.94449l-0.32257,-1.26395h4.43698l-0.23699,0.26991v-0.28307c-0.01755,-0.2326 -0.08997,-0.43887 -0.21724,-0.61881c-0.12727,-0.18433 -0.29404,-0.32696 -0.50031,-0.4279c-0.20627,-0.10533 -0.43887,-0.15799 -0.6978,-0.15799c-0.36426,0 -0.67586,0.07241 -0.93479,0.21724c-0.25893,0.14483 -0.45423,0.35548 -0.58589,0.63197c-0.13166,0.27649 -0.19749,0.61442 -0.19749,1.01379c0,0.41254 0.08558,0.77241 0.25674,1.07962c0.17555,0.30282 0.43009,0.53981 0.76363,0.71097c0.33354,0.16677 0.72852,0.25016 1.18495,0.25016c0.32037,0 0.60345,-0.04608 0.84921,-0.13824c0.25016,-0.09655 0.52006,-0.25674 0.80972,-0.48056l1.05329,1.48777c-0.28965,0.25454 -0.59906,0.46081 -0.92821,0.61881c-0.32476,0.15799 -0.6583,0.27649 -1.00062,0.35548c-0.34232,0.079 -0.68244,0.11849 -1.02037,0.11849zM179.74399,175.28983c-0.71975,0 -1.36489,-0.16677 -1.93542,-0.50031c-0.57053,-0.33793 -1.02257,-0.79874 -1.35611,-1.38244c-0.32915,-0.58809 -0.49373,-1.25078 -0.49373,-1.98808c0,-0.74169 0.16458,-1.40438 0.49373,-1.98808c0.33354,-0.58809 0.78558,-1.0489 1.35611,-1.38244c0.57053,-0.33793 1.21567,-0.50689 1.93542,-0.50689c0.66708,0 1.27931,0.11849 1.83667,0.35548c0.55736,0.2326 0.99843,0.55956 1.32319,0.98087l-1.21786,1.45485c-0.13166,-0.14922 -0.28746,-0.28746 -0.4674,-0.41473c-0.17555,-0.13166 -0.37085,-0.23479 -0.58589,-0.3094c-0.21505,-0.079 -0.44106,-0.11849 -0.67805,-0.11849c-0.35548,0 -0.66928,0.08338 -0.94138,0.25016c-0.26771,0.16238 -0.47837,0.3884 -0.63197,0.67805c-0.14922,0.28965 -0.22382,0.62319 -0.22382,1.00062c0,0.35548 0.0768,0.67805 0.23041,0.96771c0.15799,0.28965 0.37304,0.52006 0.64514,0.69122c0.2721,0.16677 0.57931,0.25016 0.92163,0.25016c0.24577,0 0.47178,-0.03072 0.67805,-0.09216c0.20627,-0.06144 0.39498,-0.15141 0.56614,-0.26991c0.17555,-0.12288 0.33793,-0.27429 0.48715,-0.45423l1.2047,1.4746c-0.31599,0.40376 -0.75705,0.72194 -1.32319,0.95454c-0.56614,0.2326 -1.17398,0.3489 -1.8235,0.3489zM187.64025,175.28983c-0.7768,0 -1.46802,-0.16677 -2.07366,-0.50031c-0.60564,-0.33793 -1.08401,-0.79655 -1.4351,-1.37586c-0.34671,-0.5837 -0.52006,-1.24858 -0.52006,-1.99466c0,-0.75047 0.17335,-1.41536 0.52006,-1.99466c0.3511,-0.5837 0.82946,-1.04232 1.4351,-1.37586c0.60564,-0.33793 1.29686,-0.50689 2.07366,-0.50689c0.7768,0 1.46582,0.16896 2.06708,0.50689c0.60564,0.33354 1.08182,0.79216 1.42852,1.37586c0.34671,0.57931 0.52006,1.2442 0.52006,1.99466c0,0.74608 -0.17335,1.41097 -0.52006,1.99466c-0.34671,0.57931 -0.82288,1.03793 -1.42852,1.37586c-0.60125,0.33354 -1.29028,0.50031 -2.06708,0.50031zM187.64025,173.35441c0.33354,0 0.63197,-0.08338 0.89529,-0.25016c0.26332,-0.17116 0.46959,-0.40157 0.61881,-0.69122c0.14922,-0.28965 0.21944,-0.621 0.21066,-0.99404c0.00878,-0.37743 -0.06144,-0.71316 -0.21066,-1.00721c-0.14922,-0.29404 -0.35548,-0.52445 -0.61881,-0.69122c-0.26332,-0.17116 -0.56175,-0.25674 -0.89529,-0.25674c-0.33793,0 -0.64075,0.08558 -0.90846,0.25674c-0.26771,0.16677 -0.47617,0.39718 -0.62539,0.69122c-0.14922,0.29404 -0.21944,0.62978 -0.21066,1.00721c-0.00878,0.37304 0.06144,0.70439 0.21066,0.99404c0.14922,0.28965 0.35768,0.52006 0.62539,0.69122c0.26771,0.16677 0.57053,0.25016 0.90846,0.25016zM193.12557,175.15158v-7.45859h2.13949l0.09875,2.42915l-0.42132,-0.46081c0.10972,-0.40376 0.29404,-0.76363 0.55298,-1.07962c0.25893,-0.32037 0.55956,-0.57273 0.90188,-0.75705c0.34671,-0.18871 0.71755,-0.28307 1.11254,-0.28307c0.16677,0 0.32257,0.01536 0.4674,0.04608c0.14483,0.02633 0.27868,0.05705 0.40157,0.09216l-0.61881,2.48839c-0.10094,-0.06583 -0.23918,-0.11849 -0.41473,-0.15799c-0.17116,-0.04389 -0.3511,-0.06583 -0.53981,-0.06583c-0.20627,0 -0.39937,0.03511 -0.57931,0.10533c-0.17555,0.07022 -0.32476,0.17116 -0.44765,0.30282c-0.11849,0.12727 -0.21285,0.28088 -0.28307,0.46081c-0.07022,0.17555 -0.10533,0.37743 -0.10533,0.60564v3.73259zM202.02966,175.30299c-0.64514,0 -1.21786,-0.16458 -1.71818,-0.49373c-0.50031,-0.33354 -0.89529,-0.79216 -1.18495,-1.37586c-0.28965,-0.58809 -0.43448,-1.25517 -0.43448,-2.00125c0,-0.75047 0.14483,-1.41755 0.43448,-2.00125c0.28965,-0.58809 0.68683,-1.0489 1.19153,-1.38244c0.5047,-0.33793 1.08401,-0.50689 1.73792,-0.50689c0.33793,0 0.6605,0.05266 0.96771,0.15799c0.3116,0.10094 0.59247,0.24138 0.84263,0.42132c0.25454,0.17555 0.46081,0.37743 0.61881,0.60564c0.16238,0.22821 0.25674,0.4652 0.28307,0.71097l-0.53323,0.12508v-4.79904h2.25799v10.38805h-2.08683l-0.13166,-1.69843l0.45423,0.07241c-0.03072,0.2326 -0.12288,0.45643 -0.27649,0.67147c-0.15361,0.21505 -0.35329,0.40595 -0.59906,0.57273c-0.24138,0.16238 -0.52006,0.29185 -0.83605,0.3884c-0.3116,0.09655 -0.64075,0.14483 -0.98746,0.14483zM202.60897,173.43999c0.34671,0 0.64514,-0.08338 0.89529,-0.25016c0.25454,-0.17116 0.44984,-0.40595 0.58589,-0.70439c0.13605,-0.30282 0.20407,-0.65392 0.20407,-1.05329c0,-0.41254 -0.06803,-0.76802 -0.20407,-1.06645c-0.13605,-0.30282 -0.33135,-0.53761 -0.58589,-0.70439c-0.25016,-0.16677 -0.54859,-0.25016 -0.89529,-0.25016c-0.34671,0 -0.64514,0.08338 -0.89529,0.25016c-0.24577,0.16677 -0.43887,0.40157 -0.57931,0.70439c-0.14044,0.29843 -0.21066,0.65392 -0.21066,1.06645c0,0.39937 0.07022,0.75047 0.21066,1.05329c0.14044,0.29843 0.33354,0.53323 0.57931,0.70439c0.25016,0.16677 0.54859,0.25016 0.89529,0.25016zM213.34947,175.15158v-7.82066c0,-0.48715 0.10533,-0.92601 0.31599,-1.31661c0.21066,-0.39498 0.5047,-0.70658 0.88213,-0.93479c0.38182,-0.2326 0.82508,-0.3489 1.32978,-0.3489c0.35548,0 0.68244,0.05266 0.98087,0.15799c0.29843,0.10094 0.56614,0.24577 0.80313,0.43448l-0.64514,1.63918c-0.12288,-0.06144 -0.24138,-0.11191 -0.35548,-0.15141c-0.10972,-0.0395 -0.21285,-0.05925 -0.3094,-0.05925c-0.16677,0 -0.30721,0.02853 -0.42132,0.08558c-0.10972,0.05705 -0.19091,0.14483 -0.24357,0.26332c-0.05266,0.11411 -0.079,0.25674 -0.079,0.4279v7.62317h-1.11912c-0.25454,0 -0.47837,0 -0.67147,0c-0.18871,0 -0.34451,0 -0.4674,0zM212.26985,169.76007v-1.85642h4.87146v1.85642zM221.63489,175.28983c-0.7768,0 -1.46802,-0.16677 -2.07366,-0.50031c-0.60564,-0.33793 -1.08401,-0.79655 -1.4351,-1.37586c-0.34671,-0.5837 -0.52006,-1.24858 -0.52006,-1.99466c0,-0.75047 0.17335,-1.41536 0.52006,-1.99466c0.3511,-0.5837 0.82946,-1.04232 1.4351,-1.37586c0.60564,-0.33793 1.29686,-0.50689 2.07366,-0.50689c0.7768,0 1.46582,0.16896 2.06708,0.50689c0.60564,0.33354 1.08182,0.79216 1.42852,1.37586c0.34671,0.57931 0.52006,1.2442 0.52006,1.99466c0,0.74608 -0.17335,1.41097 -0.52006,1.99466c-0.34671,0.57931 -0.82288,1.03793 -1.42852,1.37586c-0.60125,0.33354 -1.29028,0.50031 -2.06708,0.50031zM221.63489,173.35441c0.33354,0 0.63197,-0.08338 0.89529,-0.25016c0.26332,-0.17116 0.46959,-0.40157 0.61881,-0.69122c0.14922,-0.28965 0.21944,-0.621 0.21066,-0.99404c0.00878,-0.37743 -0.06144,-0.71316 -0.21066,-1.00721c-0.14922,-0.29404 -0.35548,-0.52445 -0.61881,-0.69122c-0.26332,-0.17116 -0.56175,-0.25674 -0.89529,-0.25674c-0.33793,0 -0.64075,0.08558 -0.90846,0.25674c-0.26771,0.16677 -0.47617,0.39718 -0.62539,0.69122c-0.14922,0.29404 -0.21944,0.62978 -0.21066,1.00721c-0.00878,0.37304 0.06144,0.70439 0.21066,0.99404c0.14922,0.28965 0.35768,0.52006 0.62539,0.69122c0.26771,0.16677 0.57053,0.25016 0.90846,0.25016zM227.12022,175.15158v-7.45859h2.13949l0.09875,2.42915l-0.42132,-0.46081c0.10972,-0.40376 0.29404,-0.76363 0.55298,-1.07962c0.25893,-0.32037 0.55956,-0.57273 0.90188,-0.75705c0.34671,-0.18871 0.71755,-0.28307 1.11254,-0.28307c0.16677,0 0.32257,0.01536 0.4674,0.04608c0.14483,0.02633 0.27868,0.05705 0.40157,0.09216l-0.61881,2.48839c-0.10094,-0.06583 -0.23918,-0.11849 -0.41473,-0.15799c-0.17116,-0.04389 -0.3511,-0.06583 -0.53981,-0.06583c-0.20627,0 -0.39937,0.03511 -0.57931,0.10533c-0.17555,0.07022 -0.32476,0.17116 -0.44765,0.30282c-0.11849,0.12727 -0.21285,0.28088 -0.28307,0.46081c-0.07022,0.17555 -0.10533,0.37743 -0.10533,0.60564v3.73259zM238.00247,175.15158v-7.45859h2.13949l0.09875,2.42915l-0.42132,-0.46081c0.10972,-0.40376 0.29404,-0.76363 0.55298,-1.07962c0.25893,-0.32037 0.55956,-0.57273 0.90188,-0.75705c0.34671,-0.18871 0.71755,-0.28307 1.11254,-0.28307c0.16677,0 0.32257,0.01536 0.4674,0.04608c0.14483,0.02633 0.27868,0.05705 0.40157,0.09216l-0.61881,2.48839c-0.10094,-0.06583 -0.23918,-0.11849 -0.41473,-0.15799c-0.17116,-0.04389 -0.3511,-0.06583 -0.53981,-0.06583c-0.20627,0 -0.39937,0.03511 -0.57931,0.10533c-0.17555,0.07022 -0.32476,0.17116 -0.44765,0.30282c-0.11849,0.12727 -0.21285,0.28088 -0.28307,0.46081c-0.07022,0.17555 -0.10533,0.37743 -0.10533,0.60564v3.73259zM247.63728,175.28983c-0.82508,0 -1.54263,-0.16458 -2.15266,-0.49373c-0.60564,-0.33354 -1.07742,-0.78777 -1.41536,-1.36269c-0.33354,-0.57492 -0.50031,-1.23323 -0.50031,-1.97491c0,-0.57053 0.09216,-1.09498 0.27649,-1.57335c0.18871,-0.47837 0.44984,-0.8931 0.78338,-1.2442c0.33793,-0.3511 0.7395,-0.621 1.2047,-0.80972c0.4652,-0.1931 0.9721,-0.28965 1.52068,-0.28965c0.52664,0 1.00721,0.09436 1.44169,0.28307c0.43448,0.18433 0.80972,0.44545 1.1257,0.78338c0.32037,0.33793 0.56395,0.7373 0.73072,1.19811c0.17116,0.45643 0.24796,0.95674 0.23041,1.50094l-0.01317,0.59906h-5.94449l-0.32257,-1.26395h4.43698l-0.23699,0.26991v-0.28307c-0.01755,-0.2326 -0.08997,-0.43887 -0.21724,-0.61881c-0.12727,-0.18433 -0.29404,-0.32696 -0.50031,-0.4279c-0.20627,-0.10533 -0.43887,-0.15799 -0.6978,-0.15799c-0.36426,0 -0.67586,0.07241 -0.93479,0.21724c-0.25893,0.14483 -0.45423,0.35548 -0.58589,0.63197c-0.13166,0.27649 -0.19749,0.61442 -0.19749,1.01379c0,0.41254 0.08558,0.77241 0.25674,1.07962c0.17555,0.30282 0.43009,0.53981 0.76363,0.71097c0.33354,0.16677 0.72852,0.25016 1.18495,0.25016c0.32037,0 0.60345,-0.04608 0.84921,-0.13824c0.25016,-0.09655 0.52006,-0.25674 0.80972,-0.48056l1.05329,1.48777c-0.28965,0.25454 -0.59906,0.46081 -0.92821,0.61881c-0.32476,0.15799 -0.6583,0.27649 -1.00062,0.35548c-0.34232,0.079 -0.68244,0.11849 -1.02037,0.11849zM255.5826,175.28983c-0.71975,0 -1.36489,-0.16677 -1.93542,-0.50031c-0.57053,-0.33793 -1.02257,-0.79874 -1.35611,-1.38244c-0.32915,-0.58809 -0.49373,-1.25078 -0.49373,-1.98808c0,-0.74169 0.16458,-1.40438 0.49373,-1.98808c0.33354,-0.58809 0.78558,-1.0489 1.35611,-1.38244c0.57053,-0.33793 1.21567,-0.50689 1.93542,-0.50689c0.66708,0 1.27931,0.11849 1.83667,0.35548c0.55736,0.2326 0.99843,0.55956 1.32319,0.98087l-1.21786,1.45485c-0.13166,-0.14922 -0.28746,-0.28746 -0.4674,-0.41473c-0.17555,-0.13166 -0.37085,-0.23479 -0.58589,-0.3094c-0.21505,-0.079 -0.44106,-0.11849 -0.67805,-0.11849c-0.35548,0 -0.66928,0.08338 -0.94138,0.25016c-0.26771,0.16238 -0.47837,0.3884 -0.63197,0.67805c-0.14922,0.28965 -0.22382,0.62319 -0.22382,1.00062c0,0.35548 0.0768,0.67805 0.23041,0.96771c0.15799,0.28965 0.37304,0.52006 0.64514,0.69122c0.2721,0.16677 0.57931,0.25016 0.92163,0.25016c0.24577,0 0.47178,-0.03072 0.67805,-0.09216c0.20627,-0.06144 0.39498,-0.15141 0.56614,-0.26991c0.17555,-0.12288 0.33793,-0.27429 0.48715,-0.45423l1.2047,1.4746c-0.31599,0.40376 -0.75705,0.72194 -1.32319,0.95454c-0.56614,0.2326 -1.17398,0.3489 -1.8235,0.3489zM260.09517,175.15158v-7.45859h2.24482v7.45859zM261.21429,166.21839c-0.42132,0 -0.75047,-0.09875 -0.98746,-0.29624c-0.23699,-0.20188 -0.35548,-0.49153 -0.35548,-0.86896c0,-0.33354 0.12069,-0.60784 0.36207,-0.82288c0.24138,-0.21944 0.56834,-0.32915 0.98087,-0.32915c0.42132,0 0.74827,0.10094 0.98087,0.30282c0.23699,0.20188 0.35548,0.48495 0.35548,0.84921c0,0.34671 -0.12069,0.62758 -0.36207,0.84263c-0.23699,0.21505 -0.56175,0.32257 -0.97429,0.32257zM265.0616,175.15158v-9.33476h2.2514v9.33476zM263.74499,169.66132v-1.96833h5.0097v1.96833zM270.163,175.15158v-7.45859h2.24482v7.45859zM271.28211,166.21839c-0.42132,0 -0.75047,-0.09875 -0.98746,-0.29624c-0.23699,-0.20188 -0.35548,-0.49153 -0.35548,-0.86896c0,-0.33354 0.12069,-0.60784 0.36207,-0.82288c0.24138,-0.21944 0.56834,-0.32915 0.98087,-0.32915c0.42132,0 0.74827,0.10094 0.98087,0.30282c0.23699,0.20188 0.35548,0.48495 0.35548,0.84921c0,0.34671 -0.12069,0.62758 -0.36207,0.84263c-0.23699,0.21505 -0.56175,0.32257 -0.97429,0.32257zM274.51061,175.15158v-7.45859h2.13949l0.06583,1.52068l-0.44765,0.16458c0.10533,-0.33354 0.28965,-0.63856 0.55298,-0.91504c0.26771,-0.27649 0.58809,-0.49812 0.96113,-0.66489c0.37743,-0.17116 0.77241,-0.25674 1.18495,-0.25674c0.56175,0 1.03354,0.11411 1.41536,0.34232c0.38182,0.22821 0.67147,0.57053 0.86896,1.02696c0.19749,0.45204 0.29624,1.00721 0.29624,1.66551v4.57522h-2.25799v-4.39748c0,-0.29843 -0.04389,-0.5442 -0.13166,-0.7373c-0.08338,-0.19749 -0.21285,-0.34451 -0.3884,-0.44106c-0.17116,-0.10094 -0.38182,-0.14702 -0.63197,-0.13824c-0.19749,0 -0.38182,0.03072 -0.55298,0.09216c-0.16677,0.06144 -0.3116,0.15141 -0.43448,0.26991c-0.11849,0.11411 -0.21285,0.24577 -0.28307,0.39498c-0.07022,0.14922 -0.10533,0.31379 -0.10533,0.49373v4.46331h-1.11254c-0.26332,0 -0.48934,0 -0.67805,0c-0.18433,0 -0.33793,0 -0.46081,0zM286.84364,178.38386c-0.61003,0 -1.21786,-0.08997 -1.8235,-0.26991c-0.60125,-0.17555 -1.0884,-0.40376 -1.46144,-0.68464l0.78338,-1.57335c0.19749,0.13166 0.41473,0.24577 0.65172,0.34232c0.24138,0.09655 0.49153,0.17335 0.75047,0.23041c0.26332,0.05705 0.53103,0.08558 0.80313,0.08558c0.47837,0 0.86677,-0.07022 1.1652,-0.21066c0.29843,-0.14044 0.52226,-0.35329 0.67147,-0.63856c0.15361,-0.28527 0.23041,-0.64294 0.23041,-1.07304v-1.25078l0.43448,0.07241c-0.06583,0.30721 -0.22821,0.58809 -0.48715,0.84263c-0.25893,0.25016 -0.57492,0.45204 -0.94796,0.60564c-0.37304,0.15361 -0.77022,0.23041 -1.19153,0.23041c-0.67586,0 -1.27931,-0.1558 -1.81034,-0.4674c-0.52664,-0.3116 -0.94138,-0.74608 -1.2442,-1.30344c-0.30282,-0.55736 -0.45423,-1.2025 -0.45423,-1.93542c0,-0.74608 0.14922,-1.40658 0.44765,-1.9815c0.29843,-0.57931 0.70877,-1.03354 1.23103,-1.36269c0.52664,-0.33354 1.11692,-0.50031 1.77084,-0.50031c0.28088,0 0.55078,0.03292 0.80972,0.09875c0.25893,0.06583 0.49812,0.15361 0.71755,0.26332c0.21944,0.10533 0.41473,0.23041 0.58589,0.37523c0.17555,0.14483 0.31599,0.30282 0.42132,0.47398c0.10972,0.16677 0.18213,0.33793 0.21724,0.51348l-0.46081,0.11191l0.08558,-1.68526h2.13291v6.85295c0,0.61003 -0.09216,1.14984 -0.27649,1.61943c-0.17994,0.47398 -0.44545,0.87774 -0.79655,1.21128c-0.3511,0.33354 -0.7746,0.5837 -1.27053,0.75047c-0.49592,0.17116 -1.05768,0.25674 -1.68526,0.25674zM286.89631,173.35441c0.36426,0 0.68025,-0.08119 0.94796,-0.24357c0.26771,-0.16677 0.47398,-0.39498 0.61881,-0.68464c0.14483,-0.28965 0.21724,-0.63197 0.21724,-1.02696c0,-0.39059 -0.07241,-0.73291 -0.21724,-1.02696c-0.14483,-0.29404 -0.3511,-0.52226 -0.61881,-0.68464c-0.26771,-0.16677 -0.5837,-0.25016 -0.94796,-0.25016c-0.35548,0 -0.66489,0.08338 -0.92821,0.25016c-0.25893,0.16238 -0.46081,0.39059 -0.60564,0.68464c-0.14483,0.29404 -0.21724,0.63636 -0.21724,1.02696c0,0.39498 0.07241,0.7373 0.21724,1.02696c0.14483,0.28965 0.34671,0.51787 0.60564,0.68464c0.26332,0.16238 0.57273,0.24357 0.92821,0.24357zM297.933,175.15158v-9.33476h2.2514v9.33476zM296.61639,169.66132v-1.96833h5.0097v1.96833zM302.90276,175.15158v-10.38805h2.20532v4.45014l-0.44765,0.16458c0.10533,-0.33354 0.28965,-0.63856 0.55298,-0.91504c0.26771,-0.27649 0.58809,-0.49812 0.96113,-0.66489c0.37743,-0.17116 0.77241,-0.25674 1.18495,-0.25674c0.56175,0 1.03354,0.11411 1.41536,0.34232c0.38182,0.22821 0.67147,0.57053 0.86896,1.02696c0.19749,0.45204 0.29624,1.00721 0.29624,1.66551v4.57522h-2.25799v-4.39748c0,-0.29843 -0.04389,-0.5442 -0.13166,-0.7373c-0.08338,-0.19749 -0.21285,-0.34451 -0.3884,-0.44106c-0.17116,-0.10094 -0.38182,-0.14702 -0.63197,-0.13824c-0.19749,0 -0.38182,0.03072 -0.55298,0.09216c-0.16677,0.06144 -0.3116,0.15141 -0.43448,0.26991c-0.11849,0.11411 -0.21285,0.24577 -0.28307,0.39498c-0.07022,0.14922 -0.10533,0.31379 -0.10533,0.49373v4.46331h-1.11254c-0.26332,0 -0.48934,0 -0.67805,0c-0.18433,0 -0.33793,0 -0.46081,0zM315.37404,175.28983c-0.82508,0 -1.54263,-0.16458 -2.15266,-0.49373c-0.60564,-0.33354 -1.07742,-0.78777 -1.41536,-1.36269c-0.33354,-0.57492 -0.50031,-1.23323 -0.50031,-1.97491c0,-0.57053 0.09216,-1.09498 0.27649,-1.57335c0.18871,-0.47837 0.44984,-0.8931 0.78338,-1.2442c0.33793,-0.3511 0.7395,-0.621 1.2047,-0.80972c0.4652,-0.1931 0.9721,-0.28965 1.52068,-0.28965c0.52664,0 1.00721,0.09436 1.44169,0.28307c0.43448,0.18433 0.80972,0.44545 1.1257,0.78338c0.32037,0.33793 0.56395,0.7373 0.73072,1.19811c0.17116,0.45643 0.24796,0.95674 0.23041,1.50094l-0.01317,0.59906h-5.94449l-0.32257,-1.26395h4.43698l-0.23699,0.26991v-0.28307c-0.01755,-0.2326 -0.08997,-0.43887 -0.21724,-0.61881c-0.12727,-0.18433 -0.29404,-0.32696 -0.50031,-0.4279c-0.20627,-0.10533 -0.43887,-0.15799 -0.6978,-0.15799c-0.36426,0 -0.67586,0.07241 -0.93479,0.21724c-0.25893,0.14483 -0.45423,0.35548 -0.58589,0.63197c-0.13166,0.27649 -0.19749,0.61442 -0.19749,1.01379c0,0.41254 0.08558,0.77241 0.25674,1.07962c0.17555,0.30282 0.43009,0.53981 0.76363,0.71097c0.33354,0.16677 0.72852,0.25016 1.18495,0.25016c0.32037,0 0.60345,-0.04608 0.84921,-0.13824c0.25016,-0.09655 0.52006,-0.25674 0.80972,-0.48056l1.05329,1.48777c-0.28965,0.25454 -0.59906,0.46081 -0.92821,0.61881c-0.32476,0.15799 -0.6583,0.27649 -1.00062,0.35548c-0.34232,0.079 -0.68244,0.11849 -1.02037,0.11849z" fill="#000000" stroke="none" stroke-width="1" stroke-linecap="square"/><path d="M163.36523,192.00419v-7.45859h2.13949l0.06583,1.34953l-0.29624,0.01317c0.11411,-0.24138 0.25674,-0.45423 0.4279,-0.63856c0.17555,-0.18871 0.37304,-0.34671 0.59247,-0.47398c0.21944,-0.12727 0.44765,-0.22382 0.68464,-0.28965c0.24138,-0.06583 0.48276,-0.09875 0.72414,-0.09875c0.36865,0 0.70219,0.05705 1.00062,0.17116c0.29843,0.10972 0.55956,0.28965 0.78338,0.53981c0.22382,0.24577 0.40157,0.57931 0.53323,1.00062l-0.3489,-0.02633l0.11191,-0.22382c0.12288,-0.22382 0.27868,-0.4257 0.4674,-0.60564c0.1931,-0.18433 0.40595,-0.34012 0.63856,-0.4674c0.23699,-0.12727 0.48056,-0.22382 0.73072,-0.28965c0.25454,-0.06583 0.49812,-0.09875 0.73072,-0.09875c0.59247,0 1.08401,0.1163 1.4746,0.3489c0.39498,0.22821 0.69342,0.57273 0.89529,1.03354c0.20188,0.45643 0.30282,1.01159 0.30282,1.66551v4.54889h-2.26457v-4.36456c0,-0.30282 -0.04169,-0.55078 -0.12508,-0.74388c-0.08338,-0.19749 -0.20846,-0.34451 -0.37523,-0.44106c-0.16238,-0.10094 -0.36426,-0.15141 -0.60564,-0.15141c-0.19749,0 -0.37962,0.03292 -0.54639,0.09875c-0.16238,0.06583 -0.30282,0.1558 -0.42132,0.26991c-0.11411,0.10972 -0.20407,0.23918 -0.26991,0.3884c-0.06583,0.14922 -0.09875,0.31818 -0.09875,0.50689v4.43698h-2.25799v-4.37773c0,-0.28088 -0.04389,-0.52006 -0.13166,-0.71755c-0.08338,-0.19749 -0.20846,-0.34671 -0.37523,-0.44765c-0.16677,-0.10533 -0.36426,-0.15799 -0.59247,-0.15799c-0.1931,0 -0.37304,0.03292 -0.53981,0.09875c-0.16238,0.06583 -0.30282,0.1558 -0.42132,0.26991c-0.11411,0.10972 -0.20407,0.23918 -0.26991,0.3884c-0.06583,0.14922 -0.09875,0.31379 -0.09875,0.49373v4.45014zM180.40177,192.14243c-0.7768,0 -1.46802,-0.16677 -2.07366,-0.50031c-0.60564,-0.33793 -1.08401,-0.79655 -1.4351,-1.37586c-0.34671,-0.5837 -0.52006,-1.24858 -0.52006,-1.99466c0,-0.75047 0.17335,-1.41536 0.52006,-1.99466c0.3511,-0.5837 0.82946,-1.04232 1.4351,-1.37586c0.60564,-0.33793 1.29686,-0.50689 2.07366,-0.50689c0.7768,0 1.46582,0.16896 2.06708,0.50689c0.60564,0.33354 1.08182,0.79216 1.42852,1.37586c0.34671,0.57931 0.52006,1.2442 0.52006,1.99466c0,0.74608 -0.17335,1.41097 -0.52006,1.99466c-0.34671,0.57931 -0.82288,1.03793 -1.42852,1.37586c-0.60125,0.33354 -1.29028,0.50031 -2.06708,0.50031zM180.40177,190.20702c0.33354,0 0.63197,-0.08338 0.89529,-0.25016c0.26332,-0.17116 0.46959,-0.40157 0.61881,-0.69122c0.14922,-0.28965 0.21944,-0.621 0.21066,-0.99404c0.00878,-0.37743 -0.06144,-0.71316 -0.21066,-1.00721c-0.14922,-0.29404 -0.35548,-0.52445 -0.61881,-0.69122c-0.26332,-0.17116 -0.56175,-0.25674 -0.89529,-0.25674c-0.33793,0 -0.64075,0.08558 -0.90846,0.25674c-0.26771,0.16677 -0.47617,0.39718 -0.62539,0.69122c-0.14922,0.29404 -0.21944,0.62978 -0.21066,1.00721c-0.00878,0.37304 0.06144,0.70439 0.21066,0.99404c0.14922,0.28965 0.35768,0.52006 0.62539,0.69122c0.26771,0.16677 0.57053,0.25016 0.90846,0.25016zM188.40182,192.14243c-0.72852,0 -1.37147,-0.1163 -1.92883,-0.3489c-0.55736,-0.2326 -1.00062,-0.54639 -1.32978,-0.94138l1.36269,-1.17837c0.28965,0.28965 0.61661,0.50251 0.98087,0.63856c0.36865,0.13605 0.71536,0.20407 1.04012,0.20407c0.13166,0 0.24796,-0.01317 0.3489,-0.0395c0.10533,-0.03072 0.1931,-0.07022 0.26332,-0.11849c0.07022,-0.05266 0.12288,-0.11411 0.15799,-0.18433c0.0395,-0.07022 0.05925,-0.15361 0.05925,-0.25016c0,-0.18433 -0.08338,-0.32915 -0.25016,-0.43448c-0.08338,-0.04389 -0.22382,-0.09875 -0.42132,-0.16458c-0.19749,-0.06583 -0.44984,-0.14263 -0.75705,-0.23041c-0.44326,-0.10972 -0.82727,-0.24138 -1.15203,-0.39498c-0.32037,-0.15799 -0.5837,-0.33793 -0.78997,-0.53981c-0.18433,-0.19749 -0.32915,-0.41473 -0.43448,-0.65172c-0.10094,-0.24138 -0.15141,-0.51128 -0.15141,-0.80972c0,-0.34671 0.08119,-0.6605 0.24357,-0.94138c0.16238,-0.28088 0.38182,-0.52445 0.6583,-0.73072c0.27649,-0.20627 0.59467,-0.36207 0.95454,-0.4674c0.36426,-0.10972 0.7373,-0.16458 1.11912,-0.16458c0.41254,0 0.80533,0.04828 1.17837,0.14483c0.37304,0.09216 0.72194,0.22163 1.0467,0.3884c0.32476,0.16677 0.61222,0.36865 0.86238,0.60564l-1.17837,1.31661c-0.16677,-0.15799 -0.35548,-0.30063 -0.56614,-0.4279c-0.21066,-0.12727 -0.43009,-0.22821 -0.6583,-0.30282c-0.22382,-0.07461 -0.4279,-0.11191 -0.61222,-0.11191c-0.14044,0 -0.26552,0.01317 -0.37523,0.0395c-0.10533,0.02194 -0.19749,0.05925 -0.27649,0.11191c-0.07461,0.04828 -0.13166,0.10752 -0.17116,0.17774c-0.03511,0.07022 -0.05266,0.15361 -0.05266,0.25016c0,0.09216 0.02633,0.17994 0.079,0.26332c0.05266,0.08338 0.12508,0.15361 0.21724,0.21066c0.09655,0.05705 0.24577,0.12069 0.44765,0.19091c0.20627,0.07022 0.48715,0.1558 0.84263,0.25674c0.44326,0.12288 0.82288,0.25893 1.13887,0.40815c0.32037,0.14922 0.57273,0.32696 0.75705,0.53323c0.15361,0.16238 0.26771,0.3489 0.34232,0.55956c0.07461,0.21066 0.11191,0.43668 0.11191,0.67805c0,0.47837 -0.13386,0.90188 -0.40157,1.27053c-0.26771,0.36865 -0.63636,0.6583 -1.10595,0.86896c-0.4652,0.21066 -0.99843,0.31599 -1.59968,0.31599zM193.4565,192.00419v-9.33476h2.2514v9.33476zM192.13989,186.51393v-1.96833h5.0097v1.96833zM205.74371,192.1556c-0.64514,0 -1.21786,-0.16458 -1.71818,-0.49373c-0.50031,-0.33354 -0.89529,-0.79216 -1.18495,-1.37586c-0.28965,-0.58809 -0.43448,-1.25517 -0.43448,-2.00125c0,-0.75047 0.14483,-1.41755 0.43448,-2.00125c0.28965,-0.58809 0.68683,-1.0489 1.19153,-1.38244c0.5047,-0.33793 1.08401,-0.50689 1.73792,-0.50689c0.33793,0 0.6605,0.05266 0.96771,0.15799c0.3116,0.10094 0.59247,0.24138 0.84263,0.42132c0.25454,0.17555 0.46081,0.37743 0.61881,0.60564c0.16238,0.22821 0.25674,0.4652 0.28307,0.71097l-0.53323,0.12508v-4.79904h2.25799v10.38805h-2.08683l-0.13166,-1.69843l0.45423,0.07241c-0.03072,0.2326 -0.12288,0.45643 -0.27649,0.67147c-0.15361,0.21505 -0.35329,0.40595 -0.59906,0.57273c-0.24138,0.16238 -0.52006,0.29185 -0.83605,0.3884c-0.3116,0.09655 -0.64075,0.14483 -0.98746,0.14483zM206.32302,190.2926c0.34671,0 0.64514,-0.08338 0.89529,-0.25016c0.25454,-0.17116 0.44984,-0.40595 0.58589,-0.70439c0.13605,-0.30282 0.20407,-0.65392 0.20407,-1.05329c0,-0.41254 -0.06803,-0.76802 -0.20407,-1.06645c-0.13605,-0.30282 -0.33135,-0.53761 -0.58589,-0.70439c-0.25016,-0.16677 -0.54859,-0.25016 -0.89529,-0.25016c-0.34671,0 -0.64514,0.08338 -0.89529,0.25016c-0.24577,0.16677 -0.43887,0.40157 -0.57931,0.70439c-0.14044,0.29843 -0.21066,0.65392 -0.21066,1.06645c0,0.39937 0.07022,0.75047 0.21066,1.05329c0.14044,0.29843 0.33354,0.53323 0.57931,0.70439c0.25016,0.16677 0.54859,0.25016 0.89529,0.25016zM212.23445,192.00419v-7.45859h2.24482v7.45859zM213.35357,183.07099c-0.42132,0 -0.75047,-0.09875 -0.98746,-0.29624c-0.23699,-0.20188 -0.35548,-0.49153 -0.35548,-0.86896c0,-0.33354 0.12069,-0.60784 0.36207,-0.82288c0.24138,-0.21944 0.56834,-0.32915 0.98087,-0.32915c0.42132,0 0.74827,0.10094 0.98087,0.30282c0.23699,0.20188 0.35548,0.48495 0.35548,0.84921c0,0.34671 -0.12069,0.62758 -0.36207,0.84263c-0.23699,0.21505 -0.56175,0.32257 -0.97429,0.32257zM219.99867,195.23647c-0.61003,0 -1.21786,-0.08997 -1.8235,-0.26991c-0.60125,-0.17555 -1.0884,-0.40376 -1.46144,-0.68464l0.78338,-1.57335c0.19749,0.13166 0.41473,0.24577 0.65172,0.34232c0.24138,0.09655 0.49153,0.17335 0.75047,0.23041c0.26332,0.05705 0.53103,0.08558 0.80313,0.08558c0.47837,0 0.86677,-0.07022 1.1652,-0.21066c0.29843,-0.14044 0.52226,-0.35329 0.67147,-0.63856c0.15361,-0.28527 0.23041,-0.64294 0.23041,-1.07304v-1.25078l0.43448,0.07241c-0.06583,0.30721 -0.22821,0.58809 -0.48715,0.84263c-0.25893,0.25016 -0.57492,0.45204 -0.94796,0.60564c-0.37304,0.15361 -0.77022,0.23041 -1.19153,0.23041c-0.67586,0 -1.27931,-0.1558 -1.81034,-0.4674c-0.52664,-0.3116 -0.94138,-0.74608 -1.2442,-1.30344c-0.30282,-0.55736 -0.45423,-1.2025 -0.45423,-1.93542c0,-0.74608 0.14922,-1.40658 0.44765,-1.9815c0.29843,-0.57931 0.70877,-1.03354 1.23103,-1.36269c0.52664,-0.33354 1.11692,-0.50031 1.77084,-0.50031c0.28088,0 0.55078,0.03292 0.80972,0.09875c0.25893,0.06583 0.49812,0.15361 0.71755,0.26332c0.21944,0.10533 0.41473,0.23041 0.58589,0.37523c0.17555,0.14483 0.31599,0.30282 0.42132,0.47398c0.10972,0.16677 0.18213,0.33793 0.21724,0.51348l-0.46081,0.11191l0.08558,-1.68526h2.13291v6.85295c0,0.61003 -0.09216,1.14984 -0.27649,1.61943c-0.17994,0.47398 -0.44545,0.87774 -0.79655,1.21128c-0.3511,0.33354 -0.7746,0.5837 -1.27053,0.75047c-0.49592,0.17116 -1.05768,0.25674 -1.68526,0.25674zM220.05133,190.20702c0.36426,0 0.68025,-0.08119 0.94796,-0.24357c0.26771,-0.16677 0.47398,-0.39498 0.61881,-0.68464c0.14483,-0.28965 0.21724,-0.63197 0.21724,-1.02696c0,-0.39059 -0.07241,-0.73291 -0.21724,-1.02696c-0.14483,-0.29404 -0.3511,-0.52226 -0.61881,-0.68464c-0.26771,-0.16677 -0.5837,-0.25016 -0.94796,-0.25016c-0.35548,0 -0.66489,0.08338 -0.92821,0.25016c-0.25893,0.16238 -0.46081,0.39059 -0.60564,0.68464c-0.14483,0.29404 -0.21724,0.63636 -0.21724,1.02696c0,0.39498 0.07241,0.7373 0.21724,1.02696c0.14483,0.28965 0.34671,0.51787 0.60564,0.68464c0.26332,0.16238 0.57273,0.24357 0.92821,0.24357zM226.10757,192.00419v-7.45859h2.24482v7.45859zM227.22669,183.07099c-0.42132,0 -0.75047,-0.09875 -0.98746,-0.29624c-0.23699,-0.20188 -0.35548,-0.49153 -0.35548,-0.86896c0,-0.33354 0.12069,-0.60784 0.36207,-0.82288c0.24138,-0.21944 0.56834,-0.32915 0.98087,-0.32915c0.42132,0 0.74827,0.10094 0.98087,0.30282c0.23699,0.20188 0.35548,0.48495 0.35548,0.84921c0,0.34671 -0.12069,0.62758 -0.36207,0.84263c-0.23699,0.21505 -0.56175,0.32257 -0.97429,0.32257zM231.074,192.00419v-9.33476h2.2514v9.33476zM229.75739,186.51393v-1.96833h5.0097v1.96833zM238.83936,192.14243c-0.72852,0 -1.37147,-0.1163 -1.92883,-0.3489c-0.55736,-0.2326 -1.00062,-0.54639 -1.32978,-0.94138l1.36269,-1.17837c0.28965,0.28965 0.61661,0.50251 0.98087,0.63856c0.36865,0.13605 0.71536,0.20407 1.04012,0.20407c0.13166,0 0.24796,-0.01317 0.3489,-0.0395c0.10533,-0.03072 0.1931,-0.07022 0.26332,-0.11849c0.07022,-0.05266 0.12288,-0.11411 0.15799,-0.18433c0.0395,-0.07022 0.05925,-0.15361 0.05925,-0.25016c0,-0.18433 -0.08338,-0.32915 -0.25016,-0.43448c-0.08338,-0.04389 -0.22382,-0.09875 -0.42132,-0.16458c-0.19749,-0.06583 -0.44984,-0.14263 -0.75705,-0.23041c-0.44326,-0.10972 -0.82727,-0.24138 -1.15203,-0.39498c-0.32037,-0.15799 -0.5837,-0.33793 -0.78997,-0.53981c-0.18433,-0.19749 -0.32915,-0.41473 -0.43448,-0.65172c-0.10094,-0.24138 -0.15141,-0.51128 -0.15141,-0.80972c0,-0.34671 0.08119,-0.6605 0.24357,-0.94138c0.16238,-0.28088 0.38182,-0.52445 0.6583,-0.73072c0.27649,-0.20627 0.59467,-0.36207 0.95454,-0.4674c0.36426,-0.10972 0.7373,-0.16458 1.11912,-0.16458c0.41254,0 0.80533,0.04828 1.17837,0.14483c0.37304,0.09216 0.72194,0.22163 1.0467,0.3884c0.32476,0.16677 0.61222,0.36865 0.86238,0.60564l-1.17837,1.31661c-0.16677,-0.15799 -0.35548,-0.30063 -0.56614,-0.4279c-0.21066,-0.12727 -0.43009,-0.22821 -0.6583,-0.30282c-0.22382,-0.07461 -0.4279,-0.11191 -0.61222,-0.11191c-0.14044,0 -0.26552,0.01317 -0.37523,0.0395c-0.10533,0.02194 -0.19749,0.05925 -0.27649,0.11191c-0.07461,0.04828 -0.13166,0.10752 -0.17116,0.17774c-0.03511,0.07022 -0.05266,0.15361 -0.05266,0.25016c0,0.09216 0.02633,0.17994 0.079,0.26332c0.05266,0.08338 0.12508,0.15361 0.21724,0.21066c0.09655,0.05705 0.24577,0.12069 0.44765,0.19091c0.20627,0.07022 0.48715,0.1558 0.84263,0.25674c0.44326,0.12288 0.82288,0.25893 1.13887,0.40815c0.32037,0.14922 0.57273,0.32696 0.75705,0.53323c0.15361,0.16238 0.26771,0.3489 0.34232,0.55956c0.07461,0.21066 0.11191,0.43668 0.11191,0.67805c0,0.47837 -0.13386,0.90188 -0.40157,1.27053c-0.26771,0.36865 -0.63636,0.6583 -1.10595,0.86896c-0.4652,0.21066 -0.99843,0.31599 -1.59968,0.31599zM251.28389,192.14243c-0.7768,0 -1.46802,-0.16677 -2.07366,-0.50031c-0.60564,-0.33793 -1.08401,-0.79655 -1.4351,-1.37586c-0.34671,-0.5837 -0.52006,-1.24858 -0.52006,-1.99466c0,-0.75047 0.17335,-1.41536 0.52006,-1.99466c0.3511,-0.5837 0.82946,-1.04232 1.4351,-1.37586c0.60564,-0.33793 1.29686,-0.50689 2.07366,-0.50689c0.7768,0 1.46582,0.16896 2.06708,0.50689c0.60564,0.33354 1.08182,0.79216 1.42852,1.37586c0.34671,0.57931 0.52006,1.2442 0.52006,1.99466c0,0.74608 -0.17335,1.41097 -0.52006,1.99466c-0.34671,0.57931 -0.82288,1.03793 -1.42852,1.37586c-0.60125,0.33354 -1.29028,0.50031 -2.06708,0.50031zM251.28389,190.20702c0.33354,0 0.63197,-0.08338 0.89529,-0.25016c0.26332,-0.17116 0.46959,-0.40157 0.61881,-0.69122c0.14922,-0.28965 0.21944,-0.621 0.21066,-0.99404c0.00878,-0.37743 -0.06144,-0.71316 -0.21066,-1.00721c-0.14922,-0.29404 -0.35548,-0.52445 -0.61881,-0.69122c-0.26332,-0.17116 -0.56175,-0.25674 -0.89529,-0.25674c-0.33793,0 -0.64075,0.08558 -0.90846,0.25674c-0.26771,0.16677 -0.47617,0.39718 -0.62539,0.69122c-0.14922,0.29404 -0.21944,0.62978 -0.21066,1.00721c-0.00878,0.37304 0.06144,0.70439 0.21066,0.99404c0.14922,0.28965 0.35768,0.52006 0.62539,0.69122c0.26771,0.16677 0.57053,0.25016 0.90846,0.25016zM256.95575,192.00419v-7.82066c0,-0.48715 0.10533,-0.92601 0.31599,-1.31661c0.21066,-0.39498 0.5047,-0.70658 0.88213,-0.93479c0.38182,-0.2326 0.82508,-0.3489 1.32978,-0.3489c0.35548,0 0.68244,0.05266 0.98087,0.15799c0.29843,0.10094 0.56614,0.24577 0.80313,0.43448l-0.64514,1.63918c-0.12288,-0.06144 -0.24138,-0.11191 -0.35548,-0.15141c-0.10972,-0.0395 -0.21285,-0.05925 -0.3094,-0.05925c-0.16677,0 -0.30721,0.02853 -0.42132,0.08558c-0.10972,0.05705 -0.19091,0.14483 -0.24357,0.26332c-0.05266,0.11411 -0.079,0.25674 -0.079,0.4279v7.62317h-1.11912c-0.25454,0 -0.47837,0 -0.67147,0c-0.18871,0 -0.34451,0 -0.4674,0zM255.87613,186.61267v-1.85642h4.87146v1.85642zM266.50002,195.09164v-10.54604h2.13949l0.079,1.67209l-0.42132,-0.12508c0.06583,-0.30721 0.22602,-0.58809 0.48056,-0.84263c0.25454,-0.25454 0.57492,-0.45862 0.96113,-0.61222c0.39059,-0.15361 0.80094,-0.23041 1.23103,-0.23041c0.63636,0 1.2025,0.16677 1.69843,0.50031c0.49592,0.32915 0.88652,0.78338 1.17178,1.36269c0.28527,0.57492 0.4279,1.242 0.4279,2.00125c0,0.74608 -0.14263,1.41097 -0.4279,1.99466c-0.28527,0.57931 -0.67805,1.03573 -1.17837,1.36927c-0.50031,0.32915 -1.07523,0.49373 -1.72476,0.49373c-0.42132,0 -0.82288,-0.079 -1.2047,-0.23699c-0.38182,-0.15799 -0.70439,-0.37304 -0.96771,-0.64514c-0.26332,-0.2721 -0.43668,-0.56834 -0.52006,-0.88871l0.52006,-0.19091v4.92412zM270.3906,190.23335c0.33793,0 0.63197,-0.08119 0.88213,-0.24357c0.25454,-0.16238 0.45204,-0.3884 0.59247,-0.67805c0.14044,-0.29404 0.21066,-0.64075 0.21066,-1.04012c0,-0.39498 -0.07022,-0.7395 -0.21066,-1.03354c-0.14044,-0.29404 -0.33574,-0.52226 -0.58589,-0.68464c-0.24577,-0.16677 -0.54201,-0.25016 -0.88871,-0.25016c-0.34671,0 -0.64733,0.08119 -0.90188,0.24357c-0.25016,0.15799 -0.44545,0.3862 -0.58589,0.68464c-0.14044,0.29843 -0.21066,0.64514 -0.21066,1.04012c0,0.39937 0.07022,0.74608 0.21066,1.04012c0.14044,0.28965 0.33574,0.51567 0.58589,0.67805c0.25454,0.16238 0.55517,0.24357 0.90188,0.24357zM275.8851,192.00419v-7.45859h2.24482v7.45859zM277.00422,183.07099c-0.42132,0 -0.75047,-0.09875 -0.98746,-0.29624c-0.23699,-0.20188 -0.35548,-0.49153 -0.35548,-0.86896c0,-0.33354 0.12069,-0.60784 0.36207,-0.82288c0.24138,-0.21944 0.56834,-0.32915 0.98087,-0.32915c0.42132,0 0.74827,0.10094 0.98087,0.30282c0.23699,0.20188 0.35548,0.48495 0.35548,0.84921c0,0.34671 -0.12069,0.62758 -0.36207,0.84263c-0.23699,0.21505 -0.56175,0.32257 -0.97429,0.32257zM285.19343,192.00419v-7.82066c0,-0.48715 0.10533,-0.92601 0.31599,-1.31661c0.21066,-0.39498 0.5047,-0.70658 0.88213,-0.93479c0.38182,-0.2326 0.82508,-0.3489 1.32978,-0.3489c0.35548,0 0.68244,0.05266 0.98087,0.15799c0.29843,0.10094 0.56614,0.24577 0.80313,0.43448l-0.64514,1.63918c-0.12288,-0.06144 -0.24138,-0.11191 -0.35548,-0.15141c-0.10972,-0.0395 -0.21285,-0.05925 -0.3094,-0.05925c-0.16677,0 -0.30721,0.02853 -0.42132,0.08558c-0.10972,0.05705 -0.19091,0.14483 -0.24357,0.26332c-0.05266,0.11411 -0.079,0.25674 -0.079,0.4279v7.62317h-1.11912c-0.25454,0 -0.47837,0 -0.67147,0c-0.18871,0 -0.34451,0 -0.4674,0zM284.11381,186.61267v-1.85642h4.87146v1.85642zM290.24441,192.00419v-7.45859h2.13949l0.09875,2.42915l-0.42132,-0.46081c0.10972,-0.40376 0.29404,-0.76363 0.55298,-1.07962c0.25893,-0.32037 0.55956,-0.57273 0.90188,-0.75705c0.34671,-0.18871 0.71755,-0.28307 1.11254,-0.28307c0.16677,0 0.32257,0.01536 0.4674,0.04608c0.14483,0.02633 0.27868,0.05705 0.40157,0.09216l-0.61881,2.48839c-0.10094,-0.06583 -0.23918,-0.11849 -0.41473,-0.15799c-0.17116,-0.04389 -0.3511,-0.06583 -0.53981,-0.06583c-0.20627,0 -0.39937,0.03511 -0.57931,0.10533c-0.17555,0.07022 -0.32476,0.17116 -0.44765,0.30282c-0.11849,0.12727 -0.21285,0.28088 -0.28307,0.46081c-0.07022,0.17555 -0.10533,0.37743 -0.10533,0.60564v3.73259zM299.83971,192.14243c-0.7768,0 -1.46802,-0.16677 -2.07366,-0.50031c-0.60564,-0.33793 -1.08401,-0.79655 -1.4351,-1.37586c-0.34671,-0.5837 -0.52006,-1.24858 -0.52006,-1.99466c0,-0.75047 0.17335,-1.41536 0.52006,-1.99466c0.3511,-0.5837 0.82946,-1.04232 1.4351,-1.37586c0.60564,-0.33793 1.29686,-0.50689 2.07366,-0.50689c0.7768,0 1.46582,0.16896 2.06708,0.50689c0.60564,0.33354 1.08182,0.79216 1.42852,1.37586c0.34671,0.57931 0.52006,1.2442 0.52006,1.99466c0,0.74608 -0.17335,1.41097 -0.52006,1.99466c-0.34671,0.57931 -0.82288,1.03793 -1.42852,1.37586c-0.60125,0.33354 -1.29028,0.50031 -2.06708,0.50031zM299.83971,190.20702c0.33354,0 0.63197,-0.08338 0.89529,-0.25016c0.26332,-0.17116 0.46959,-0.40157 0.61881,-0.69122c0.14922,-0.28965 0.21944,-0.621 0.21066,-0.99404c0.00878,-0.37743 -0.06144,-0.71316 -0.21066,-1.00721c-0.14922,-0.29404 -0.35548,-0.52445 -0.61881,-0.69122c-0.26332,-0.17116 -0.56175,-0.25674 -0.89529,-0.25674c-0.33793,0 -0.64075,0.08558 -0.90846,0.25674c-0.26771,0.16677 -0.47617,0.39718 -0.62539,0.69122c-0.14922,0.29404 -0.21944,0.62978 -0.21066,1.00721c-0.00878,0.37304 0.06144,0.70439 0.21066,0.99404c0.14922,0.28965 0.35768,0.52006 0.62539,0.69122c0.26771,0.16677 0.57053,0.25016 0.90846,0.25016zM305.31187,192.00419v-7.45859h2.13949l0.06583,1.34953l-0.29624,0.01317c0.11411,-0.24138 0.25674,-0.45423 0.4279,-0.63856c0.17555,-0.18871 0.37304,-0.34671 0.59247,-0.47398c0.21944,-0.12727 0.44765,-0.22382 0.68464,-0.28965c0.24138,-0.06583 0.48276,-0.09875 0.72414,-0.09875c0.36865,0 0.70219,0.05705 1.00062,0.17116c0.29843,0.10972 0.55956,0.28965 0.78338,0.53981c0.22382,0.24577 0.40157,0.57931 0.53323,1.00062l-0.3489,-0.02633l0.11191,-0.22382c0.12288,-0.22382 0.27868,-0.4257 0.4674,-0.60564c0.1931,-0.18433 0.40595,-0.34012 0.63856,-0.4674c0.23699,-0.12727 0.48056,-0.22382 0.73072,-0.28965c0.25454,-0.06583 0.49812,-0.09875 0.73072,-0.09875c0.59247,0 1.08401,0.1163 1.4746,0.3489c0.39498,0.22821 0.69342,0.57273 0.89529,1.03354c0.20188,0.45643 0.30282,1.01159 0.30282,1.66551v4.54889h-2.26457v-4.36456c0,-0.30282 -0.04169,-0.55078 -0.12508,-0.74388c-0.08338,-0.19749 -0.20846,-0.34451 -0.37523,-0.44106c-0.16238,-0.10094 -0.36426,-0.15141 -0.60564,-0.15141c-0.19749,0 -0.37962,0.03292 -0.54639,0.09875c-0.16238,0.06583 -0.30282,0.1558 -0.42132,0.26991c-0.11411,0.10972 -0.20407,0.23918 -0.26991,0.3884c-0.06583,0.14922 -0.09875,0.31818 -0.09875,0.50689v4.43698h-2.25799v-4.37773c0,-0.28088 -0.04389,-0.52006 -0.13166,-0.71755c-0.08338,-0.19749 -0.20846,-0.34671 -0.37523,-0.44765c-0.16677,-0.10533 -0.36426,-0.15799 -0.59247,-0.15799c-0.1931,0 -0.37304,0.03292 -0.53981,0.09875c-0.16238,0.06583 -0.30282,0.1558 -0.42132,0.26991c-0.11411,0.10972 -0.20407,0.23918 -0.26991,0.3884c-0.06583,0.14922 -0.09875,0.31379 -0.09875,0.49373v4.45014z" fill="#000000" stroke="none" stroke-width="1" stroke-linecap="square"/><path d="M207.65948,208.8568v-7.45859h2.13949l0.06583,1.34953l-0.29624,0.01317c0.11411,-0.24138 0.25674,-0.45423 0.4279,-0.63856c0.17555,-0.18871 0.37304,-0.34671 0.59247,-0.47398c0.21944,-0.12727 0.44765,-0.22382 0.68464,-0.28965c0.24138,-0.06583 0.48276,-0.09875 0.72414,-0.09875c0.36865,0 0.70219,0.05705 1.00062,0.17116c0.29843,0.10972 0.55956,0.28965 0.78338,0.53981c0.22382,0.24577 0.40157,0.57931 0.53323,1.00062l-0.3489,-0.02633l0.11191,-0.22382c0.12288,-0.22382 0.27868,-0.4257 0.4674,-0.60564c0.1931,-0.18433 0.40595,-0.34012 0.63856,-0.4674c0.23699,-0.12727 0.48056,-0.22382 0.73072,-0.28965c0.25454,-0.06583 0.49812,-0.09875 0.73072,-0.09875c0.59247,0 1.08401,0.1163 1.4746,0.3489c0.39498,0.22821 0.69342,0.57273 0.89529,1.03354c0.20188,0.45643 0.30282,1.01159 0.30282,1.66551v4.54889h-2.26457v-4.36456c0,-0.30282 -0.04169,-0.55078 -0.12508,-0.74388c-0.08338,-0.19749 -0.20846,-0.34451 -0.37523,-0.44106c-0.16238,-0.10094 -0.36426,-0.15141 -0.60564,-0.15141c-0.19749,0 -0.37962,0.03292 -0.54639,0.09875c-0.16238,0.06583 -0.30282,0.1558 -0.42132,0.26991c-0.11411,0.10972 -0.20407,0.23918 -0.26991,0.3884c-0.06583,0.14922 -0.09875,0.31818 -0.09875,0.50689v4.43698h-2.25799v-4.37773c0,-0.28088 -0.04389,-0.52006 -0.13166,-0.71755c-0.08338,-0.19749 -0.20846,-0.34671 -0.37523,-0.44765c-0.16677,-0.10533 -0.36426,-0.15799 -0.59247,-0.15799c-0.1931,0 -0.37304,0.03292 -0.53981,0.09875c-0.16238,0.06583 -0.30282,0.1558 -0.42132,0.26991c-0.11411,0.10972 -0.20407,0.23918 -0.26991,0.3884c-0.06583,0.14922 -0.09875,0.31379 -0.09875,0.49373v4.45014zM224.73552,208.99504c-0.82508,0 -1.54263,-0.16458 -2.15266,-0.49373c-0.60564,-0.33354 -1.07742,-0.78777 -1.41536,-1.36269c-0.33354,-0.57492 -0.50031,-1.23323 -0.50031,-1.97491c0,-0.57053 0.09216,-1.09498 0.27649,-1.57335c0.18871,-0.47837 0.44984,-0.8931 0.78338,-1.2442c0.33793,-0.3511 0.7395,-0.621 1.2047,-0.80972c0.4652,-0.1931 0.9721,-0.28965 1.52068,-0.28965c0.52664,0 1.00721,0.09436 1.44169,0.28307c0.43448,0.18433 0.80972,0.44545 1.1257,0.78338c0.32037,0.33793 0.56395,0.7373 0.73072,1.19811c0.17116,0.45643 0.24796,0.95674 0.23041,1.50094l-0.01317,0.59906h-5.94449l-0.32257,-1.26395h4.43698l-0.23699,0.26991v-0.28307c-0.01755,-0.2326 -0.08997,-0.43887 -0.21724,-0.61881c-0.12727,-0.18433 -0.29404,-0.32696 -0.50031,-0.4279c-0.20627,-0.10533 -0.43887,-0.15799 -0.6978,-0.15799c-0.36426,0 -0.67586,0.07241 -0.93479,0.21724c-0.25893,0.14483 -0.45423,0.35548 -0.58589,0.63197c-0.13166,0.27649 -0.19749,0.61442 -0.19749,1.01379c0,0.41254 0.08558,0.77241 0.25674,1.07962c0.17555,0.30282 0.43009,0.53981 0.76363,0.71097c0.33354,0.16677 0.72852,0.25016 1.18495,0.25016c0.32037,0 0.60345,-0.04608 0.84921,-0.13824c0.25016,-0.09655 0.52006,-0.25674 0.80972,-0.48056l1.05329,1.48777c-0.28965,0.25454 -0.59906,0.46081 -0.92821,0.61881c-0.32476,0.15799 -0.6583,0.27649 -1.00062,0.35548c-0.34232,0.079 -0.68244,0.11849 -1.02037,0.11849zM229.3959,208.8568v-7.45859h2.13949l0.06583,1.34953l-0.29624,0.01317c0.11411,-0.24138 0.25674,-0.45423 0.4279,-0.63856c0.17555,-0.18871 0.37304,-0.34671 0.59247,-0.47398c0.21944,-0.12727 0.44765,-0.22382 0.68464,-0.28965c0.24138,-0.06583 0.48276,-0.09875 0.72414,-0.09875c0.36865,0 0.70219,0.05705 1.00062,0.17116c0.29843,0.10972 0.55956,0.28965 0.78338,0.53981c0.22382,0.24577 0.40157,0.57931 0.53323,1.00062l-0.3489,-0.02633l0.11191,-0.22382c0.12288,-0.22382 0.27868,-0.4257 0.4674,-0.60564c0.1931,-0.18433 0.40595,-0.34012 0.63856,-0.4674c0.23699,-0.12727 0.48056,-0.22382 0.73072,-0.28965c0.25454,-0.06583 0.49812,-0.09875 0.73072,-0.09875c0.59247,0 1.08401,0.1163 1.4746,0.3489c0.39498,0.22821 0.69342,0.57273 0.89529,1.03354c0.20188,0.45643 0.30282,1.01159 0.30282,1.66551v4.54889h-2.26457v-4.36456c0,-0.30282 -0.04169,-0.55078 -0.12508,-0.74388c-0.08338,-0.19749 -0.20846,-0.34451 -0.37523,-0.44106c-0.16238,-0.10094 -0.36426,-0.15141 -0.60564,-0.15141c-0.19749,0 -0.37962,0.03292 -0.54639,0.09875c-0.16238,0.06583 -0.30282,0.1558 -0.42132,0.26991c-0.11411,0.10972 -0.20407,0.23918 -0.26991,0.3884c-0.06583,0.14922 -0.09875,0.31818 -0.09875,0.50689v4.43698h-2.25799v-4.37773c0,-0.28088 -0.04389,-0.52006 -0.13166,-0.71755c-0.08338,-0.19749 -0.20846,-0.34671 -0.37523,-0.44765c-0.16677,-0.10533 -0.36426,-0.15799 -0.59247,-0.15799c-0.1931,0 -0.37304,0.03292 -0.53981,0.09875c-0.16238,0.06583 -0.30282,0.1558 -0.42132,0.26991c-0.11411,0.10972 -0.20407,0.23918 -0.26991,0.3884c-0.06583,0.14922 -0.09875,0.31379 -0.09875,0.49373v4.45014zM246.43244,208.99504c-0.7768,0 -1.46802,-0.16677 -2.07366,-0.50031c-0.60564,-0.33793 -1.08401,-0.79655 -1.4351,-1.37586c-0.34671,-0.5837 -0.52006,-1.24858 -0.52006,-1.99466c0,-0.75047 0.17335,-1.41536 0.52006,-1.99466c0.3511,-0.5837 0.82946,-1.04232 1.4351,-1.37586c0.60564,-0.33793 1.29686,-0.50689 2.07366,-0.50689c0.7768,0 1.46582,0.16896 2.06708,0.50689c0.60564,0.33354 1.08182,0.79216 1.42852,1.37586c0.34671,0.57931 0.52006,1.2442 0.52006,1.99466c0,0.74608 -0.17335,1.41097 -0.52006,1.99466c-0.34671,0.57931 -0.82288,1.03793 -1.42852,1.37586c-0.60125,0.33354 -1.29028,0.50031 -2.06708,0.50031zM246.43244,207.05962c0.33354,0 0.63197,-0.08338 0.89529,-0.25016c0.26332,-0.17116 0.46959,-0.40157 0.61881,-0.69122c0.14922,-0.28965 0.21944,-0.621 0.21066,-0.99404c0.00878,-0.37743 -0.06144,-0.71316 -0.21066,-1.00721c-0.14922,-0.29404 -0.35548,-0.52445 -0.61881,-0.69122c-0.26332,-0.17116 -0.56175,-0.25674 -0.89529,-0.25674c-0.33793,0 -0.64075,0.08558 -0.90846,0.25674c-0.26771,0.16677 -0.47617,0.39718 -0.62539,0.69122c-0.14922,0.29404 -0.21944,0.62978 -0.21066,1.00721c-0.00878,0.37304 0.06144,0.70439 0.21066,0.99404c0.14922,0.28965 0.35768,0.52006 0.62539,0.69122c0.26771,0.16677 0.57053,0.25016 0.90846,0.25016zM251.91777,208.8568v-7.45859h2.13949l0.09875,2.42915l-0.42132,-0.46081c0.10972,-0.40376 0.29404,-0.76363 0.55298,-1.07962c0.25893,-0.32037 0.55956,-0.57273 0.90188,-0.75705c0.34671,-0.18871 0.71755,-0.28307 1.11254,-0.28307c0.16677,0 0.32257,0.01536 0.4674,0.04608c0.14483,0.02633 0.27868,0.05705 0.40157,0.09216l-0.61881,2.48839c-0.10094,-0.06583 -0.23918,-0.11849 -0.41473,-0.15799c-0.17116,-0.04389 -0.3511,-0.06583 -0.53981,-0.06583c-0.20627,0 -0.39937,0.03511 -0.57931,0.10533c-0.17555,0.07022 -0.32476,0.17116 -0.44765,0.30282c-0.11849,0.12727 -0.21285,0.28088 -0.28307,0.46081c-0.07022,0.17555 -0.10533,0.37743 -0.10533,0.60564v3.73259zM259.24807,212.08907l1.69843,-4.00249l0.03292,1.15203l-3.59434,-7.84041h2.54106l1.57335,3.75234c0.08338,0.18871 0.16238,0.39059 0.23699,0.60564c0.07461,0.21505 0.12947,0.41912 0.16458,0.61222l-0.30282,0.18433c0.05266,-0.14044 0.11411,-0.31599 0.18433,-0.52664c0.07022,-0.21066 0.14922,-0.43668 0.23699,-0.67805l1.37586,-3.94983h2.55422l-3.17303,7.45859l-1.29686,3.23228zM268.757,205.48627l-0.44765,-1.83667c0.2721,-0.06583 0.52884,-0.14263 0.77022,-0.23041c0.24138,-0.09216 0.4652,-0.18871 0.67147,-0.28965c0.20627,-0.10533 0.38182,-0.22602 0.52664,-0.36207c0.14483,-0.13605 0.25893,-0.28527 0.34232,-0.44765c0.08777,-0.16238 0.13166,-0.33793 0.13166,-0.52664c0,-0.18871 -0.04828,-0.3489 -0.14483,-0.48056c-0.09216,-0.13605 -0.21724,-0.24138 -0.37523,-0.31599c-0.15799,-0.079 -0.34451,-0.11849 -0.55956,-0.11849c-0.3116,0 -0.62319,0.11191 -0.93479,0.33574c-0.30721,0.21944 -0.59028,0.57273 -0.84921,1.05987l-1.53385,-1.42194c0.42132,-0.64514 0.92382,-1.14545 1.50752,-1.50094c0.58809,-0.35548 1.20031,-0.53323 1.83667,-0.53323c0.61881,0 1.17617,0.12508 1.67209,0.37523c0.49592,0.24577 0.88871,0.58589 1.17837,1.02037c0.28965,0.43448 0.43448,0.92382 0.43448,1.46802c0,0.34671 -0.07241,0.68903 -0.21724,1.02696c-0.14483,0.33793 -0.34671,0.65392 -0.60564,0.94796c-0.25454,0.29404 -0.55517,0.55298 -0.90188,0.7768c-0.34671,0.22382 -0.73072,0.39718 -1.15203,0.52006l-0.14483,0.53323zM268.25011,207.76401c0,-0.37743 0.11191,-0.68244 0.33574,-0.91504c0.22821,-0.2326 0.52006,-0.3489 0.87555,-0.3489c0.38182,0 0.68025,0.10972 0.89529,0.32915c0.21505,0.21944 0.32257,0.53103 0.32257,0.93479c0,0.36426 -0.11191,0.66269 -0.33574,0.89529c-0.22382,0.2326 -0.51787,0.3489 -0.88213,0.3489c-0.3862,0 -0.68464,-0.10752 -0.89529,-0.32257c-0.21066,-0.21505 -0.31599,-0.52226 -0.31599,-0.92163z" fill="#000000" stroke="none" stroke-width="1" stroke-linecap="square"/></g></g></svg>