<svg version="1.1" xmlns="http://www.w3.org/2000/svg" xmlns:xlink="http://www.w3.org/1999/xlink" width="205.64286" height="99.25" viewBox="0,0,205.64286,99.25"><g transform="translate(-137.30606,-131)"><g data-paper-data="{&quot;isPaintingLayer&quot;:true}" fill-rule="nonzero" stroke-linejoin="miter" stroke-miterlimit="10" stroke-dasharray="" stroke-dashoffset="0" style="mix-blend-mode: normal"><path d="M140.55606,207.25c0,-18.73959 -0.38249,-45.48871 0,-55.5c0.5,-13.0871 3.89541,-16.75 15.32143,-16.75c22.08229,0 127.56734,0 168,0c15.33535,0 15.82143,4.98326 15.82143,16.75c0,17.95892 0,45.32915 0,56c0,14.97422 -0.38765,19.25 -14.32143,19.25c-38.12556,0 -140.83396,0 -165,0c-18.91714,0 -19.82143,-3.40978 -19.82143,-19.75z" fill="#ffffff" stroke-opacity="0.25901" stroke="#000000" stroke-width="6.5" stroke-linecap="butt"/><path d="M140.47107,205.25c0,-18.73959 -0.38249,-45.48871 0,-55.5c0.5,-13.0871 3.89541,-16.75 15.32143,-16.75c22.08229,0 127.56734,0 168,0c15.33535,0 15.82143,4.98326 15.82143,16.75c0,17.95892 0,45.32915 0,56c0,14.97422 -0.38765,19.25 -14.32143,19.25c-38.12556,0 -140.83396,0 -165,0c-18.91714,0 -19.82143,-3.40978 -19.82143,-19.75z" fill="#ffffff" stroke="#000000" stroke-width="4" stroke-linecap="butt"/><path d="M177.6055,157.37051v-10.249h4.29044c0.75054,0 1.43701,0.12585 2.05941,0.37756c0.62698,0.24713 1.167,0.59952 1.62007,1.05716c0.45307,0.45765 0.80088,0.99996 1.04343,1.62693c0.24713,0.6224 0.37069,1.30887 0.37069,2.05941c0,0.75512 -0.12356,1.44845 -0.37069,2.08001c-0.24255,0.62698 -0.59036,1.167 -1.04343,1.62007c-0.45307,0.45307 -0.99309,0.80546 -1.62007,1.05716c-0.6224,0.24713 -1.30887,0.37069 -2.05941,0.37069zM180.09053,155.67492l-0.33637,-0.50112h2.06628c0.41188,0 0.778,-0.07094 1.09835,-0.21281c0.32035,-0.14187 0.59494,-0.33866 0.82376,-0.59036c0.2334,-0.25628 0.41188,-0.56519 0.53545,-0.92673c0.12814,-0.36154 0.19221,-0.76198 0.19221,-1.20132c0,-0.43934 -0.06407,-0.83749 -0.19221,-1.19446c-0.12356,-0.36154 -0.30205,-0.66817 -0.53545,-0.91987c-0.22882,-0.25628 -0.50341,-0.45536 -0.82376,-0.59723c-0.32035,-0.14187 -0.68647,-0.21281 -1.09835,-0.21281h-2.10746l0.37756,-0.4668zM192.32118,157.51466c-0.81004,0 -1.53083,-0.17391 -2.16238,-0.52172c-0.63155,-0.35239 -1.13039,-0.83063 -1.49651,-1.43472c-0.36154,-0.60867 -0.54231,-1.302 -0.54231,-2.08001c0,-0.78258 0.18077,-1.47591 0.54231,-2.08001c0.36612,-0.60867 0.86495,-1.08691 1.49651,-1.43472c0.63155,-0.35239 1.35235,-0.52858 2.16238,-0.52858c0.81004,0 1.52854,0.17619 2.15552,0.52858c0.63155,0.34781 1.1281,0.82605 1.48964,1.43472c0.36154,0.60409 0.54231,1.29743 0.54231,2.08001c0,0.778 -0.18077,1.47134 -0.54231,2.08001c-0.36154,0.60409 -0.85809,1.08233 -1.48964,1.43472c-0.62698,0.34781 -1.34548,0.52172 -2.15552,0.52172zM192.32118,155.49644c0.34781,0 0.65901,-0.08695 0.9336,-0.26086c0.27459,-0.17848 0.48968,-0.41875 0.64528,-0.72079c0.1556,-0.30205 0.22882,-0.64757 0.21967,-1.03657c0.00915,-0.39358 -0.06407,-0.74368 -0.21967,-1.0503c-0.1556,-0.30662 -0.37069,-0.54689 -0.64528,-0.72079c-0.27459,-0.17848 -0.58579,-0.26772 -0.9336,-0.26772c-0.35239,0 -0.66817,0.08924 -0.94733,0.26772c-0.27916,0.17391 -0.49655,0.41417 -0.65215,0.72079c-0.1556,0.30662 -0.22882,0.65672 -0.21967,1.0503c-0.00915,0.389 0.06407,0.73452 0.21967,1.03657c0.1556,0.30205 0.37298,0.54231 0.65215,0.72079c0.27916,0.17391 0.59494,0.26086 0.94733,0.26086zM201.74813,157.51466c-0.86038,0 -1.60863,-0.17162 -2.24476,-0.51485c-0.63155,-0.34781 -1.12352,-0.82148 -1.47591,-1.42099c-0.34781,-0.59952 -0.52172,-1.28599 -0.52172,-2.05941c0,-0.59494 0.09611,-1.14183 0.28832,-1.64066c0.19679,-0.49883 0.46909,-0.93131 0.8169,-1.29743c0.35239,-0.36612 0.77114,-0.64757 1.25624,-0.84436c0.4851,-0.20137 1.01369,-0.30205 1.58575,-0.30205c0.54918,0 1.0503,0.09839 1.50337,0.29518c0.45307,0.19221 0.84436,0.46451 1.17386,0.8169c0.33408,0.35239 0.58808,0.76885 0.76198,1.24938c0.17848,0.47595 0.25857,0.99767 0.24026,1.56515l-0.01373,0.62469h-6.19883l-0.33637,-1.31802h4.62681l-0.24713,0.28145v-0.29518c-0.01831,-0.24255 -0.09382,-0.45765 -0.22654,-0.64528c-0.13272,-0.19221 -0.30662,-0.34095 -0.52172,-0.44621c-0.21509,-0.10984 -0.45765,-0.16475 -0.72766,-0.16475c-0.37985,0 -0.70478,0.07551 -0.97479,0.22654c-0.27001,0.15102 -0.47366,0.37069 -0.61096,0.65901c-0.13729,0.28832 -0.20594,0.64071 -0.20594,1.05716c0,0.43019 0.08924,0.80546 0.26772,1.12581c0.18306,0.31578 0.44849,0.56291 0.79631,0.74139c0.34781,0.17391 0.75969,0.26086 1.23565,0.26086c0.33408,0 0.62926,-0.04805 0.88555,-0.14416c0.26086,-0.10068 0.54231,-0.26772 0.84436,-0.50112l1.09835,1.55142c-0.30205,0.26543 -0.62469,0.48053 -0.96792,0.64528c-0.33866,0.16475 -0.68647,0.28832 -1.04343,0.37069c-0.35696,0.08238 -0.71164,0.12356 -1.06403,0.12356zM209.24394,157.51466c-0.75969,0 -1.43015,-0.12128 -2.01136,-0.36383c-0.58121,-0.24255 -1.04343,-0.56977 -1.38667,-0.98165l1.42099,-1.22878c0.30205,0.30205 0.64299,0.52401 1.02284,0.66588c0.38442,0.14187 0.74596,0.21281 1.08462,0.21281c0.13729,0 0.25857,-0.01373 0.36383,-0.04119c0.10984,-0.03203 0.20137,-0.07322 0.27459,-0.12356c0.07322,-0.05492 0.12814,-0.11899 0.16475,-0.19221c0.04119,-0.07322 0.06178,-0.16018 0.06178,-0.26086c0,-0.19221 -0.08695,-0.34324 -0.26086,-0.45307c-0.08695,-0.04576 -0.2334,-0.10297 -0.43934,-0.17162c-0.20594,-0.06865 -0.46909,-0.14873 -0.78944,-0.24026c-0.46222,-0.11441 -0.86266,-0.25171 -1.20132,-0.41188c-0.33408,-0.16475 -0.60867,-0.35239 -0.82376,-0.56291c-0.19221,-0.20594 -0.34324,-0.43248 -0.45307,-0.67961c-0.10526,-0.25171 -0.15789,-0.53316 -0.15789,-0.84436c0,-0.36154 0.08467,-0.68876 0.25399,-0.98165c0.16933,-0.29289 0.39815,-0.54689 0.68647,-0.76198c0.28832,-0.21509 0.62011,-0.37756 0.99538,-0.48739c0.37985,-0.11441 0.76885,-0.17162 1.167,-0.17162c0.43019,0 0.83978,0.05034 1.22878,0.15102c0.389,0.09611 0.75283,0.23111 1.09149,0.40502c0.33866,0.17391 0.63842,0.38442 0.89928,0.63155l-1.22878,1.37294c-0.17391,-0.16475 -0.37069,-0.31349 -0.59036,-0.44621c-0.21967,-0.13272 -0.44849,-0.23798 -0.68647,-0.31578c-0.2334,-0.0778 -0.44621,-0.1167 -0.63842,-0.1167c-0.14645,0 -0.27688,0.01373 -0.39129,0.04119c-0.10984,0.02288 -0.20594,0.06178 -0.28832,0.1167c-0.0778,0.05034 -0.13729,0.11212 -0.17848,0.18535c-0.03661,0.07322 -0.05492,0.16018 -0.05492,0.26086c0,0.09611 0.02746,0.18764 0.08238,0.27459c0.05492,0.08695 0.13043,0.16018 0.22654,0.21967c0.10068,0.05949 0.25628,0.12585 0.4668,0.19908c0.21509,0.07322 0.50799,0.16246 0.87868,0.26772c0.46222,0.12814 0.85809,0.27001 1.18759,0.42561c0.33408,0.1556 0.59723,0.34095 0.78944,0.55604c0.16018,0.16933 0.27916,0.36383 0.35696,0.5835c0.0778,0.21967 0.1167,0.45536 0.1167,0.70706c0,0.49883 -0.13958,0.94046 -0.41875,1.32489c-0.27916,0.38442 -0.66359,0.68647 -1.15327,0.90614c-0.4851,0.21967 -1.04115,0.32951 -1.66812,0.32951zM219.20046,157.37051v-9.73415h2.34773v9.73415zM217.82752,151.64534v-2.05255h5.22404v2.05255zM224.38284,157.37051v-10.8325h2.29968v4.64054l-0.4668,0.17162c0.10984,-0.34781 0.30205,-0.66588 0.57664,-0.95419c0.27916,-0.28832 0.61325,-0.51943 1.00225,-0.69334c0.39358,-0.17848 0.80546,-0.26772 1.23565,-0.26772c0.58579,0 1.07776,0.11899 1.47591,0.35696c0.39815,0.23798 0.7002,0.59494 0.90614,1.07089c0.20594,0.47138 0.30891,1.0503 0.30891,1.73677v4.77097h-2.35459v-4.58562c0,-0.3112 -0.04576,-0.56748 -0.13729,-0.76885c-0.08695,-0.20594 -0.22196,-0.35925 -0.40502,-0.45994c-0.17848,-0.10526 -0.39815,-0.15331 -0.65901,-0.14416c-0.20594,0 -0.39815,0.03203 -0.57664,0.09611c-0.17391,0.06407 -0.32493,0.15789 -0.45307,0.28145c-0.12356,0.11899 -0.22196,0.25628 -0.29518,0.41188c-0.07322,0.1556 -0.10984,0.32722 -0.10984,0.51485v4.65427h-1.16013c-0.27459,0 -0.51028,0 -0.70706,0c-0.19221,0 -0.35239,0 -0.48053,0zM237.3877,157.51466c-0.86038,0 -1.60863,-0.17162 -2.24476,-0.51485c-0.63155,-0.34781 -1.12352,-0.82148 -1.47591,-1.42099c-0.34781,-0.59952 -0.52172,-1.28599 -0.52172,-2.05941c0,-0.59494 0.09611,-1.14183 0.28832,-1.64066c0.19679,-0.49883 0.46909,-0.93131 0.8169,-1.29743c0.35239,-0.36612 0.77114,-0.64757 1.25624,-0.84436c0.4851,-0.20137 1.01369,-0.30205 1.58575,-0.30205c0.54918,0 1.0503,0.09839 1.50337,0.29518c0.45307,0.19221 0.84436,0.46451 1.17386,0.8169c0.33408,0.35239 0.58808,0.76885 0.76198,1.24938c0.17848,0.47595 0.25857,0.99767 0.24026,1.56515l-0.01373,0.62469h-6.19883l-0.33637,-1.31802h4.62681l-0.24713,0.28145v-0.29518c-0.01831,-0.24255 -0.09382,-0.45765 -0.22654,-0.64528c-0.13272,-0.19221 -0.30662,-0.34095 -0.52172,-0.44621c-0.21509,-0.10984 -0.45765,-0.16475 -0.72766,-0.16475c-0.37985,0 -0.70478,0.07551 -0.97479,0.22654c-0.27001,0.15102 -0.47366,0.37069 -0.61096,0.65901c-0.13729,0.28832 -0.20594,0.64071 -0.20594,1.05716c0,0.43019 0.08924,0.80546 0.26772,1.12581c0.18306,0.31578 0.44849,0.56291 0.79631,0.74139c0.34781,0.17391 0.75969,0.26086 1.23565,0.26086c0.33408,0 0.62926,-0.04805 0.88555,-0.14416c0.26086,-0.10068 0.54231,-0.26772 0.84436,-0.50112l1.09835,1.55142c-0.30205,0.26543 -0.62469,0.48053 -0.96792,0.64528c-0.33866,0.16475 -0.68647,0.28832 -1.04343,0.37069c-0.35696,0.08238 -0.71164,0.12356 -1.06403,0.12356zM246.94676,157.37051v-7.77771h2.23103l0.06865,1.58575l-0.4668,0.17162c0.10984,-0.34781 0.30205,-0.66588 0.57664,-0.95419c0.27916,-0.28832 0.61325,-0.51943 1.00225,-0.69334c0.39358,-0.17848 0.80546,-0.26772 1.23565,-0.26772c0.58579,0 1.07776,0.11899 1.47591,0.35696c0.39815,0.23798 0.7002,0.59494 0.90614,1.07089c0.20595,0.47138 0.30892,1.0503 0.30892,1.73677v4.77097h-2.35461v-4.58562c0,-0.3112 -0.04576,-0.56748 -0.13729,-0.76885c-0.08695,-0.20594 -0.22196,-0.35925 -0.40502,-0.45994c-0.17848,-0.10526 -0.39815,-0.15331 -0.65901,-0.14416c-0.20594,0 -0.39815,0.03203 -0.57664,0.09611c-0.17391,0.06407 -0.32493,0.15789 -0.45307,0.28145c-0.12356,0.11899 -0.22196,0.25628 -0.29518,0.41188c-0.07322,0.1556 -0.10984,0.32722 -0.10984,0.51485v4.65427h-1.16013c-0.27459,0 -0.51028,0 -0.70706,0c-0.19221,0 -0.35239,0 -0.48053,0zM258.90131,157.52839c-0.57664,0 -1.0686,-0.12356 -1.47591,-0.37069c-0.40273,-0.24713 -0.71393,-0.60409 -0.9336,-1.07089c-0.21967,-0.47138 -0.32951,-1.03428 -0.32951,-1.68872v-4.80529h2.35459v4.48265c0,0.3112 0.04805,0.57892 0.14416,0.80317c0.10068,0.22425 0.24713,0.39815 0.43934,0.52172c0.19679,0.12356 0.43248,0.18535 0.70706,0.18535c0.20594,0 0.39358,-0.03432 0.56291,-0.10297c0.16933,-0.06865 0.31578,-0.16246 0.43934,-0.28145c0.12356,-0.12356 0.21738,-0.26543 0.28145,-0.42561c0.06865,-0.16475 0.10297,-0.34324 0.10297,-0.53545v-4.6474h2.36146v7.77771h-2.21043l-0.10297,-1.59261l0.43934,-0.17848c-0.11899,0.37069 -0.31578,0.7002 -0.59036,0.98852c-0.27001,0.28832 -0.59723,0.51714 -0.98165,0.68647c-0.37985,0.16933 -0.78258,0.25399 -1.20819,0.25399zM265.63134,157.37051v-7.77771h2.23103l0.06865,1.40726l-0.30891,0.01373c0.11899,-0.25171 0.26772,-0.47366 0.44621,-0.66588c0.18306,-0.19679 0.389,-0.36154 0.61782,-0.49426c0.22882,-0.13272 0.4668,-0.2334 0.71393,-0.30205c0.25171,-0.06865 0.50341,-0.10297 0.75512,-0.10297c0.38442,0 0.73223,0.05949 1.04343,0.17848c0.3112,0.11441 0.5835,0.30205 0.8169,0.56291c0.2334,0.25628 0.41875,0.60409 0.55604,1.04343l-0.36383,-0.02746l0.1167,-0.2334c0.12814,-0.2334 0.29061,-0.44392 0.48739,-0.63155c0.20137,-0.19221 0.42332,-0.35468 0.66588,-0.48739c0.24713,-0.13272 0.50112,-0.2334 0.76198,-0.30205c0.26543,-0.06865 0.51943,-0.10297 0.76198,-0.10297c0.61782,0 1.13039,0.12128 1.53769,0.36383c0.41188,0.23798 0.72308,0.59723 0.9336,1.07776c0.21052,0.47595 0.31578,1.05488 0.31578,1.73677v4.74351h-2.36146v-4.5513c0,-0.31578 -0.04348,-0.57435 -0.13043,-0.77571c-0.08695,-0.20594 -0.21738,-0.35925 -0.39129,-0.45994c-0.16933,-0.10526 -0.37985,-0.15789 -0.63155,-0.15789c-0.20594,0 -0.39586,0.03432 -0.56977,0.10297c-0.16933,0.06865 -0.31578,0.16246 -0.43934,0.28145c-0.11899,0.11441 -0.21281,0.24942 -0.28145,0.40502c-0.06865,0.1556 -0.10297,0.33179 -0.10297,0.52858v4.62681h-2.35459v-4.56503c0,-0.29289 -0.04576,-0.54231 -0.13729,-0.74825c-0.08695,-0.20594 -0.21738,-0.36154 -0.39129,-0.4668c-0.17391,-0.10984 -0.37985,-0.16475 -0.61782,-0.16475c-0.20137,0 -0.389,0.03432 -0.56291,0.10297c-0.16933,0.06865 -0.31578,0.16246 -0.43934,0.28145c-0.11899,0.11441 -0.21281,0.24942 -0.28145,0.40502c-0.06865,0.1556 -0.10297,0.32722 -0.10297,0.51485v4.64054zM284.4059,157.52839c-0.35239,0 -0.69105,-0.04805 -1.01598,-0.14416c-0.32035,-0.09611 -0.61096,-0.22654 -0.87182,-0.39129c-0.25628,-0.16933 -0.46909,-0.36383 -0.63842,-0.5835c-0.16933,-0.21967 -0.28374,-0.44621 -0.34324,-0.67961l0.50799,-0.17162l-0.13043,1.79855h-2.18298v-10.81877h2.36146v4.91513l-0.48739,-0.17162c0.05949,-0.25628 0.17162,-0.49426 0.33637,-0.71393c0.16933,-0.21967 0.37985,-0.41417 0.63155,-0.5835c0.25628,-0.16933 0.53545,-0.30205 0.83749,-0.39815c0.30205,-0.10068 0.61325,-0.15102 0.9336,-0.15102c0.67732,0 1.27683,0.17391 1.79855,0.52172c0.52172,0.34324 0.9336,0.82148 1.23565,1.43472c0.30205,0.60867 0.45307,1.30429 0.45307,2.08687c0,0.78715 -0.14873,1.48735 -0.44621,2.1006c-0.29747,0.60867 -0.70478,1.08691 -1.22192,1.43472c-0.51714,0.34324 -1.10293,0.51485 -1.75736,0.51485zM283.78808,155.55822c0.35239,0 0.65901,-0.08695 0.91987,-0.26086c0.26543,-0.17848 0.46909,-0.42104 0.61096,-0.72766c0.14187,-0.3112 0.21281,-0.67503 0.21281,-1.09149c0,-0.41188 -0.07094,-0.77342 -0.21281,-1.08462c-0.14187,-0.3112 -0.34552,-0.54918 -0.61096,-0.71393c-0.26086,-0.16933 -0.56748,-0.25399 -0.91987,-0.25399c-0.36154,0 -0.67503,0.08467 -0.94046,0.25399c-0.26086,0.16475 -0.46451,0.40273 -0.61096,0.71393c-0.14645,0.3112 -0.21967,0.67274 -0.21967,1.08462c0,0.41646 0.07322,0.78029 0.21967,1.09149c0.14645,0.30662 0.3501,0.54918 0.61096,0.72766c0.26543,0.17391 0.57892,0.26086 0.94046,0.26086zM293.07267,157.51466c-0.86038,0 -1.60863,-0.17162 -2.24476,-0.51485c-0.63155,-0.34781 -1.12352,-0.82148 -1.47591,-1.42099c-0.34781,-0.59952 -0.52172,-1.28599 -0.52172,-2.05941c0,-0.59494 0.09611,-1.14183 0.28832,-1.64066c0.19679,-0.49883 0.46909,-0.93131 0.8169,-1.29743c0.35239,-0.36612 0.77114,-0.64757 1.25624,-0.84436c0.4851,-0.20137 1.01369,-0.30205 1.58575,-0.30205c0.54918,0 1.0503,0.09839 1.50337,0.29518c0.45307,0.19221 0.84436,0.46451 1.17386,0.8169c0.33408,0.35239 0.58808,0.76885 0.76198,1.24938c0.17848,0.47595 0.25857,0.99767 0.24026,1.56515l-0.01373,0.62469h-6.19883l-0.33637,-1.31802h4.62681l-0.24713,0.28145v-0.29518c-0.01831,-0.24255 -0.09382,-0.45765 -0.22654,-0.64528c-0.13272,-0.19221 -0.30662,-0.34095 -0.52172,-0.44621c-0.21509,-0.10984 -0.45765,-0.16475 -0.72766,-0.16475c-0.37985,0 -0.70478,0.07551 -0.97479,0.22654c-0.27001,0.15102 -0.47366,0.37069 -0.61096,0.65901c-0.13729,0.28832 -0.20594,0.64071 -0.20594,1.05716c0,0.43019 0.08924,0.80546 0.26772,1.12581c0.18306,0.31578 0.44849,0.56291 0.79631,0.74139c0.34781,0.17391 0.75969,0.26086 1.23565,0.26086c0.33408,0 0.62926,-0.04805 0.88555,-0.14416c0.26086,-0.10068 0.54231,-0.26772 0.84436,-0.50112l1.09835,1.55142c-0.30205,0.26543 -0.62469,0.48053 -0.96792,0.64528c-0.33866,0.16475 -0.68647,0.28832 -1.04343,0.37069c-0.35696,0.08238 -0.71164,0.12356 -1.06403,0.12356zM297.94618,157.37051v-7.77771h2.23103l0.10297,2.53308l-0.43934,-0.48053c0.11441,-0.42104 0.30662,-0.79631 0.57664,-1.12581c0.27001,-0.33408 0.5835,-0.59723 0.94046,-0.78944c0.36154,-0.19679 0.74825,-0.29518 1.16013,-0.29518c0.17391,0 0.33637,0.01602 0.48739,0.04805c0.15102,0.02746 0.29061,0.05949 0.41875,0.09611l-0.64528,2.59486c-0.10526,-0.06865 -0.24942,-0.12356 -0.43248,-0.16475c-0.17848,-0.04576 -0.36612,-0.06865 -0.56291,-0.06865c-0.21509,0 -0.41646,0.03661 -0.60409,0.10984c-0.18306,0.07322 -0.33866,0.17848 -0.4668,0.31578c-0.12356,0.13272 -0.22196,0.29289 -0.29518,0.48053c-0.07322,0.18306 -0.10984,0.39358 -0.10984,0.63155v3.89229z" fill="#000000" stroke="none" stroke-width="1" stroke-linecap="square"/><path d="M162.21265,175.08831c-0.75969,0 -1.43015,-0.12128 -2.01136,-0.36383c-0.58121,-0.24255 -1.04343,-0.56977 -1.38667,-0.98165l1.42099,-1.22878c0.30205,0.30205 0.64299,0.52401 1.02284,0.66588c0.38442,0.14187 0.74596,0.21281 1.08462,0.21281c0.13729,0 0.25857,-0.01373 0.36383,-0.04119c0.10984,-0.03203 0.20137,-0.07322 0.27459,-0.12356c0.07322,-0.05492 0.12814,-0.11899 0.16475,-0.19221c0.04119,-0.07322 0.06178,-0.16018 0.06178,-0.26086c0,-0.19221 -0.08695,-0.34324 -0.26086,-0.45307c-0.08695,-0.04576 -0.2334,-0.10297 -0.43934,-0.17162c-0.20594,-0.06865 -0.46909,-0.14873 -0.78944,-0.24026c-0.46222,-0.11441 -0.86266,-0.25171 -1.20132,-0.41188c-0.33408,-0.16475 -0.60867,-0.35239 -0.82376,-0.56291c-0.19221,-0.20594 -0.34324,-0.43248 -0.45307,-0.67961c-0.10526,-0.25171 -0.15789,-0.53316 -0.15789,-0.84436c0,-0.36154 0.08467,-0.68876 0.25399,-0.98165c0.16933,-0.29289 0.39815,-0.54689 0.68647,-0.76198c0.28832,-0.21509 0.62011,-0.37756 0.99538,-0.48739c0.37985,-0.11441 0.76885,-0.17162 1.167,-0.17162c0.43019,0 0.83978,0.05034 1.22878,0.15102c0.389,0.09611 0.75283,0.23111 1.09149,0.40502c0.33866,0.17391 0.63842,0.38442 0.89928,0.63155l-1.22878,1.37294c-0.17391,-0.16475 -0.37069,-0.31349 -0.59036,-0.44621c-0.21967,-0.13272 -0.44849,-0.23798 -0.68647,-0.31578c-0.2334,-0.0778 -0.44621,-0.1167 -0.63842,-0.1167c-0.14645,0 -0.27688,0.01373 -0.39129,0.04119c-0.10984,0.02288 -0.20594,0.06178 -0.28832,0.1167c-0.0778,0.05034 -0.13729,0.11212 -0.17848,0.18535c-0.03661,0.07322 -0.05492,0.16018 -0.05492,0.26086c0,0.09611 0.02746,0.18764 0.08238,0.27459c0.05492,0.08695 0.13043,0.16018 0.22654,0.21967c0.10068,0.05949 0.25628,0.12585 0.4668,0.19908c0.21509,0.07322 0.50799,0.16246 0.87868,0.26772c0.46222,0.12814 0.85809,0.27001 1.18759,0.42561c0.33408,0.1556 0.59723,0.34095 0.78944,0.55604c0.16018,0.16933 0.27916,0.36383 0.35696,0.5835c0.0778,0.21967 0.1167,0.45536 0.1167,0.70706c0,0.49883 -0.13958,0.94046 -0.41875,1.32489c-0.27916,0.38442 -0.66359,0.68647 -1.15327,0.90614c-0.4851,0.21967 -1.04115,0.32951 -1.66812,0.32951zM170.54524,175.08831c-0.86038,0 -1.60863,-0.17162 -2.24476,-0.51485c-0.63155,-0.34781 -1.12352,-0.82148 -1.47591,-1.42099c-0.34781,-0.59952 -0.52172,-1.28599 -0.52172,-2.05941c0,-0.59494 0.09611,-1.14183 0.28832,-1.64066c0.19679,-0.49883 0.46909,-0.93131 0.8169,-1.29743c0.35239,-0.36612 0.77114,-0.64757 1.25624,-0.84436c0.4851,-0.20137 1.01369,-0.30205 1.58575,-0.30205c0.54918,0 1.0503,0.09839 1.50337,0.29518c0.45307,0.19221 0.84436,0.46451 1.17386,0.8169c0.33408,0.35239 0.58808,0.76885 0.76198,1.24938c0.17848,0.47595 0.25857,0.99767 0.24026,1.56515l-0.01373,0.62469h-6.19883l-0.33637,-1.31802h4.62681l-0.24713,0.28145v-0.29518c-0.01831,-0.24255 -0.09382,-0.45765 -0.22654,-0.64528c-0.13272,-0.19221 -0.30662,-0.34095 -0.52172,-0.44621c-0.21509,-0.10984 -0.45765,-0.16475 -0.72766,-0.16475c-0.37985,0 -0.70478,0.07551 -0.97479,0.22654c-0.27001,0.15102 -0.47366,0.37069 -0.61096,0.65901c-0.13729,0.28832 -0.20594,0.64071 -0.20594,1.05716c0,0.43019 0.08924,0.80546 0.26772,1.12581c0.18306,0.31578 0.44849,0.56291 0.79631,0.74139c0.34781,0.17391 0.75969,0.26086 1.23565,0.26086c0.33408,0 0.62926,-0.04805 0.88555,-0.14416c0.26086,-0.10068 0.54231,-0.26772 0.84436,-0.50112l1.09835,1.55142c-0.30205,0.26543 -0.62469,0.48053 -0.96792,0.64528c-0.33866,0.16475 -0.68647,0.28832 -1.04343,0.37069c-0.35696,0.08238 -0.71164,0.12356 -1.06403,0.12356zM180.62219,178.1637v-5.09361l0.50799,0.1167c-0.03661,0.24255 -0.13958,0.48053 -0.30891,0.71393c-0.16475,0.22882 -0.37298,0.43019 -0.62469,0.60409c-0.24713,0.17391 -0.52629,0.31349 -0.83749,0.41875c-0.3112,0.10068 -0.63384,0.15102 -0.96792,0.15102c-0.68189,0 -1.28599,-0.17162 -1.81228,-0.51485c-0.52629,-0.34781 -0.94046,-0.82376 -1.24251,-1.42786c-0.30205,-0.60867 -0.45307,-1.302 -0.45307,-2.08001c0,-0.79173 0.14873,-1.48964 0.44621,-2.09373c0.29747,-0.60867 0.70706,-1.08462 1.22878,-1.42786c0.52172,-0.34781 1.10979,-0.52172 1.76423,-0.52172c0.37069,0 0.72079,0.05492 1.0503,0.16475c0.33408,0.10526 0.63155,0.24713 0.89241,0.42561c0.26543,0.17391 0.48053,0.37527 0.64528,0.60409c0.16933,0.22882 0.26315,0.46909 0.28145,0.72079l-0.52858,0.08924l0.08924,-1.84661h2.22416v10.99725zM178.91974,173.09755c0.36154,0 0.67274,-0.08238 0.9336,-0.24713c0.26543,-0.16475 0.47138,-0.40044 0.61782,-0.70706c0.14645,-0.3112 0.21967,-0.67503 0.21967,-1.09149c0,-0.42104 -0.07322,-0.78487 -0.21967,-1.09149c-0.14645,-0.30662 -0.35239,-0.5446 -0.61782,-0.71393c-0.26086,-0.17391 -0.57206,-0.26086 -0.9336,-0.26086c-0.35239,0 -0.6613,0.08695 -0.92673,0.26086c-0.26086,0.16933 -0.46222,0.40959 -0.60409,0.72079c-0.14187,0.3112 -0.21281,0.67274 -0.21281,1.08462c0,0.41646 0.07094,0.78029 0.21281,1.09149c0.14187,0.30662 0.34324,0.54231 0.60409,0.70706c0.26543,0.16475 0.57435,0.24713 0.92673,0.24713zM187.71007,175.10204c-0.57664,0 -1.0686,-0.12356 -1.47591,-0.37069c-0.40273,-0.24713 -0.71393,-0.60409 -0.9336,-1.07089c-0.21967,-0.47138 -0.32951,-1.03428 -0.32951,-1.68872v-4.80529h2.35459v4.48265c0,0.3112 0.04805,0.57892 0.14416,0.80317c0.10068,0.22425 0.24713,0.39815 0.43934,0.52172c0.19679,0.12356 0.43248,0.18535 0.70706,0.18535c0.20594,0 0.39358,-0.03432 0.56291,-0.10297c0.16933,-0.06865 0.31578,-0.16246 0.43934,-0.28145c0.12356,-0.12356 0.21738,-0.26543 0.28145,-0.42561c0.06865,-0.16475 0.10297,-0.34324 0.10297,-0.53545v-4.6474h2.36146v7.77771h-2.21043l-0.10297,-1.59261l0.43934,-0.17848c-0.11899,0.37069 -0.31578,0.7002 -0.59036,0.98852c-0.27001,0.28832 -0.59723,0.51714 -0.98165,0.68647c-0.37985,0.16933 -0.78258,0.25399 -1.20819,0.25399zM198.16078,175.08831c-0.86038,0 -1.60863,-0.17162 -2.24476,-0.51485c-0.63155,-0.34781 -1.12352,-0.82148 -1.47591,-1.42099c-0.34781,-0.59952 -0.52172,-1.28599 -0.52172,-2.05941c0,-0.59494 0.09611,-1.14183 0.28832,-1.64066c0.19679,-0.49883 0.46909,-0.93131 0.8169,-1.29743c0.35239,-0.36612 0.77114,-0.64757 1.25624,-0.84436c0.4851,-0.20137 1.01369,-0.30205 1.58575,-0.30205c0.54918,0 1.0503,0.09839 1.50337,0.29518c0.45307,0.19221 0.84436,0.46451 1.17386,0.8169c0.33408,0.35239 0.58808,0.76885 0.76198,1.24938c0.17848,0.47595 0.25857,0.99767 0.24026,1.56515l-0.01373,0.62469h-6.19883l-0.33637,-1.31802h4.62681l-0.24713,0.28145v-0.29518c-0.01831,-0.24255 -0.09382,-0.45765 -0.22654,-0.64528c-0.13272,-0.19221 -0.30662,-0.34095 -0.52172,-0.44621c-0.21509,-0.10984 -0.45765,-0.16475 -0.72766,-0.16475c-0.37985,0 -0.70478,0.07551 -0.97479,0.22654c-0.27001,0.15102 -0.47366,0.37069 -0.61096,0.65901c-0.13729,0.28832 -0.20594,0.64071 -0.20594,1.05716c0,0.43019 0.08924,0.80546 0.26772,1.12581c0.18306,0.31578 0.44849,0.56291 0.79631,0.74139c0.34781,0.17391 0.75969,0.26086 1.23565,0.26086c0.33408,0 0.62926,-0.04805 0.88555,-0.14416c0.26086,-0.10068 0.54231,-0.26772 0.84436,-0.50112l1.09835,1.55142c-0.30205,0.26543 -0.62469,0.48053 -0.96792,0.64528c-0.33866,0.16475 -0.68647,0.28832 -1.04343,0.37069c-0.35696,0.08238 -0.71164,0.12356 -1.06403,0.12356zM203.03428,174.94415v-7.77771h2.23103l0.06865,1.58575l-0.4668,0.17162c0.10984,-0.34781 0.30205,-0.66588 0.57664,-0.95419c0.27916,-0.28832 0.61325,-0.51943 1.00225,-0.69334c0.39358,-0.17848 0.80546,-0.26772 1.23565,-0.26772c0.58579,0 1.07776,0.11899 1.47591,0.35696c0.39815,0.23798 0.7002,0.59494 0.90614,1.07089c0.20594,0.47138 0.30891,1.0503 0.30891,1.73677v4.77097h-2.35459v-4.58562c0,-0.3112 -0.04576,-0.56748 -0.13729,-0.76885c-0.08695,-0.20594 -0.22196,-0.35925 -0.40502,-0.45994c-0.17848,-0.10526 -0.39815,-0.15331 -0.65901,-0.14416c-0.20594,0 -0.39815,0.03203 -0.57664,0.09611c-0.17391,0.06407 -0.32493,0.15789 -0.45307,0.28145c-0.12356,0.11899 -0.22196,0.25628 -0.29518,0.41188c-0.07322,0.1556 -0.10984,0.32722 -0.10984,0.51485v4.65427h-1.16013c-0.27459,0 -0.51028,0 -0.70706,0c-0.19221,0 -0.35239,0 -0.48053,0zM215.74394,175.08831c-0.75054,0 -1.42328,-0.17391 -2.01822,-0.52172c-0.59494,-0.35239 -1.06632,-0.83292 -1.41413,-1.44159c-0.34324,-0.61325 -0.51485,-1.30429 -0.51485,-2.07314c0,-0.77342 0.17162,-1.46447 0.51485,-2.07314c0.34781,-0.61325 0.81919,-1.09378 1.41413,-1.44159c0.59494,-0.35239 1.26768,-0.52858 2.01822,-0.52858c0.69562,0 1.33404,0.12356 1.91525,0.37069c0.58121,0.24255 1.04115,0.5835 1.37981,1.02284l-1.26997,1.5171c-0.13729,-0.1556 -0.29976,-0.29976 -0.48739,-0.43248c-0.18306,-0.13729 -0.38671,-0.24484 -0.61096,-0.32264c-0.22425,-0.08238 -0.45994,-0.12356 -0.70706,-0.12356c-0.37069,0 -0.69791,0.08695 -0.98165,0.26086c-0.27916,0.16933 -0.49883,0.40502 -0.65901,0.70706c-0.1556,0.30205 -0.2334,0.64986 -0.2334,1.04343c0,0.37069 0.08009,0.70706 0.24026,1.00911c0.16475,0.30205 0.389,0.54231 0.67274,0.72079c0.28374,0.17391 0.60409,0.26086 0.96106,0.26086c0.25628,0 0.49197,-0.03203 0.70706,-0.09611c0.21509,-0.06407 0.41188,-0.15789 0.59036,-0.28145c0.18306,-0.12814 0.35239,-0.28603 0.50799,-0.47366l1.25624,1.53769c-0.32951,0.42104 -0.78944,0.75283 -1.37981,0.99538c-0.59036,0.24255 -1.22421,0.36383 -1.90152,0.36383zM224.01922,175.08831c-0.86038,0 -1.60863,-0.17162 -2.24476,-0.51485c-0.63155,-0.34781 -1.12352,-0.82148 -1.47591,-1.42099c-0.34781,-0.59952 -0.52172,-1.28599 -0.52172,-2.05941c0,-0.59494 0.09611,-1.14183 0.28832,-1.64066c0.19679,-0.49883 0.46909,-0.93131 0.8169,-1.29743c0.35239,-0.36612 0.77114,-0.64757 1.25624,-0.84436c0.4851,-0.20137 1.01369,-0.30205 1.58575,-0.30205c0.54918,0 1.0503,0.09839 1.50337,0.29518c0.45307,0.19221 0.84436,0.46451 1.17386,0.8169c0.33408,0.35239 0.58808,0.76885 0.76198,1.24938c0.17848,0.47595 0.25857,0.99767 0.24026,1.56515l-0.01373,0.62469h-6.19883l-0.33637,-1.31802h4.62681l-0.24713,0.28145v-0.29518c-0.01831,-0.24255 -0.09382,-0.45765 -0.22654,-0.64528c-0.13272,-0.19221 -0.30662,-0.34095 -0.52172,-0.44621c-0.21509,-0.10984 -0.45765,-0.16475 -0.72766,-0.16475c-0.37985,0 -0.70478,0.07551 -0.97479,0.22654c-0.27001,0.15102 -0.47366,0.37069 -0.61096,0.65901c-0.13729,0.28832 -0.20594,0.64071 -0.20594,1.05716c0,0.43019 0.08924,0.80546 0.26772,1.12581c0.18306,0.31578 0.44849,0.56291 0.79631,0.74139c0.34781,0.17391 0.75969,0.26086 1.23565,0.26086c0.33408,0 0.62926,-0.04805 0.88555,-0.14416c0.26086,-0.10068 0.54231,-0.26772 0.84436,-0.50112l1.09835,1.55142c-0.30205,0.26543 -0.62469,0.48053 -0.96792,0.64528c-0.33866,0.16475 -0.68647,0.28832 -1.04343,0.37069c-0.35696,0.08238 -0.71164,0.12356 -1.06403,0.12356zM235.63082,174.22336v-8.31316l0.54231,1.24251l-2.19671,1.04343l-0.42561,-2.23103l2.9175,-1.41413h1.60634v9.67237zM233.75676,174.94415v-2.19671h6.24002v2.19671zM241.62104,174.94415l-0.48739,-1.20132l2.99301,-3.2676c0.16475,-0.18306 0.34324,-0.39129 0.53545,-0.62469c0.19679,-0.2334 0.38671,-0.47366 0.56977,-0.72079c0.18764,-0.25171 0.33637,-0.49426 0.44621,-0.72766c0.11441,-0.23798 0.17162,-0.45307 0.17162,-0.64528c0,-0.19679 -0.04348,-0.36841 -0.13043,-0.51485c-0.08695,-0.14645 -0.21509,-0.26086 -0.38442,-0.34324c-0.16475,-0.08238 -0.37298,-0.12356 -0.62469,-0.12356c-0.22425,0 -0.43934,0.05721 -0.64528,0.17162c-0.20594,0.10984 -0.40044,0.28145 -0.5835,0.51485c-0.17848,0.2334 -0.34552,0.52172 -0.50112,0.86495l-1.84661,-0.99538c0.20594,-0.56748 0.49655,-1.0686 0.87182,-1.50337c0.37527,-0.43477 0.8169,-0.77114 1.32489,-1.00911c0.50799,-0.23798 1.0503,-0.35696 1.62693,-0.35696c0.60409,0.00915 1.15098,0.13958 1.64066,0.39129c0.48968,0.24713 0.87868,0.59265 1.167,1.03657c0.28832,0.44392 0.43248,0.96335 0.43248,1.55829c0,0.20594 -0.02517,0.42104 -0.07551,0.64528c-0.05034,0.22425 -0.12356,0.45536 -0.21967,0.69334c-0.09611,0.23798 -0.22654,0.49197 -0.39129,0.76198c-0.16018,0.27001 -0.35239,0.55147 -0.57664,0.84436c-0.22425,0.29289 -0.48739,0.60409 -0.78944,0.9336l-2.32713,2.53308l-0.29518,-1.11208h5.12793v2.19671zM252.98131,175.08831c-0.82834,0 -1.55371,-0.17162 -2.17611,-0.51485c-0.61782,-0.34781 -1.18073,-0.94733 -1.68872,-1.79855l1.78482,-1.15327c0.21509,0.33866 0.43705,0.61096 0.66588,0.8169c0.22882,0.20594 0.4668,0.35696 0.71393,0.45307c0.25171,0.09153 0.51485,0.13729 0.78944,0.13729c0.27459,0 0.52629,-0.06178 0.75512,-0.18535c0.22882,-0.12356 0.41417,-0.29747 0.55604,-0.52172c0.14187,-0.22425 0.21281,-0.47824 0.21281,-0.76198c0,-0.30205 -0.06178,-0.55833 -0.18535,-0.76885c-0.12356,-0.21052 -0.29976,-0.36841 -0.52858,-0.47366c-0.22882,-0.10526 -0.50341,-0.15789 -0.82376,-0.15789c-0.14645,0 -0.30434,0.01602 -0.47366,0.04805c-0.16475,0.03203 -0.34095,0.0778 -0.52858,0.13729c-0.18306,0.05949 -0.37069,0.13729 -0.56291,0.2334l-0.54231,-1.44845l2.48502,-2.70469l0.67274,0.36383l-4.26985,-0.08924v-2.09373h6.29493l0.45307,0.90614l-3.3843,3.63143l-0.5835,-0.68647c0.0778,-0.03661 0.20594,-0.07094 0.38442,-0.10297c0.18306,-0.03661 0.35696,-0.05492 0.52172,-0.05492c0.45765,0 0.88555,0.08238 1.2837,0.24713c0.40273,0.16475 0.75969,0.39358 1.07089,0.68647c0.31578,0.29289 0.56062,0.63842 0.73452,1.03657c0.17848,0.39358 0.26772,0.81461 0.26772,1.26311c0,0.68189 -0.17391,1.29056 -0.52172,1.82601c-0.34781,0.53087 -0.8169,0.9519 -1.40726,1.26311c-0.59036,0.3112 -1.24709,0.4668 -1.97017,0.4668zM262.54111,174.94415v-8.2857l1.33862,0.02746l-3.70694,4.53757l-0.3501,-0.43934h6.78919v2.05255h-7.90127l-0.99538,-1.92212l5.22404,-6.30866h2.00449v10.33824zM271.25957,175.04712c-0.77342,0 -1.47591,-0.1556 -2.10746,-0.4668c-0.62698,-0.31578 -1.14641,-0.76656 -1.55829,-1.35235l1.33175,-1.46218c0.40273,0.43934 0.77342,0.74139 1.11208,0.90614c0.34324,0.16018 0.72537,0.24026 1.14641,0.24026c0.3112,0 0.58808,-0.06407 0.83063,-0.19221c0.24713,-0.12814 0.44163,-0.30662 0.5835,-0.53545c0.14187,-0.22882 0.21281,-0.4851 0.21281,-0.76885c0,-0.29289 -0.07094,-0.55375 -0.21281,-0.78258c-0.14187,-0.22882 -0.33408,-0.41188 -0.57664,-0.54918c-0.23798,-0.13729 -0.51256,-0.20594 -0.82376,-0.20594c-0.22425,0 -0.43477,0.02059 -0.63155,0.06178c-0.19221,0.03661 -0.39815,0.10297 -0.61782,0.19908c-0.21967,0.09153 -0.48282,0.22425 -0.78944,0.39815l-1.0503,-1.40726l0.63155,-4.52384h5.88305v2.09373h-4.70232l0.64528,-0.8169l-0.48053,3.247l-0.87868,-0.28832c0.18306,-0.16933 0.40959,-0.31578 0.67961,-0.43934c0.27001,-0.12814 0.56062,-0.2334 0.87182,-0.31578c0.3112,-0.08238 0.6224,-0.12356 0.9336,-0.12356c0.64528,0 1.22421,0.14873 1.73677,0.44621c0.51256,0.29747 0.91987,0.70935 1.22192,1.23565c0.30205,0.52629 0.45307,1.13039 0.45307,1.81228c0,0.67732 -0.17162,1.28599 -0.51485,1.82601c-0.33866,0.54002 -0.79631,0.97021 -1.37294,1.29056c-0.57664,0.31578 -1.22878,0.47366 -1.95644,0.47366zM280.15805,174.94415c-0.52629,0 -1.02284,-0.09382 -1.48964,-0.28145c-0.46222,-0.19221 -0.86495,-0.45536 -1.20819,-0.78944c-0.33866,-0.33866 -0.60867,-0.73223 -0.81004,-1.18073c-0.19679,-0.45307 -0.29518,-0.93818 -0.29518,-1.45532c0,-0.36154 0.0389,-0.70935 0.1167,-1.04343c0.0778,-0.33866 0.18764,-0.67961 0.32951,-1.02284c0.14187,-0.34781 0.3112,-0.70478 0.50799,-1.07089c0.20137,-0.36612 0.42332,-0.75512 0.66588,-1.167l1.43472,-2.40265h2.29968l0.06178,0.15102l-1.99076,3.1303c-0.25628,0.41188 -0.47824,0.79631 -0.66588,1.15327c-0.18306,0.35696 -0.34781,0.71164 -0.49426,1.06403c-0.14645,0.34781 -0.29289,0.71622 -0.43934,1.10522l-0.4668,-1.00911c0.09611,-0.33866 0.25171,-0.65215 0.4668,-0.94046c0.21509,-0.28832 0.4668,-0.53774 0.75512,-0.74825c0.28832,-0.21052 0.58808,-0.37069 0.89928,-0.48053c0.3112,-0.11441 0.62011,-0.17162 0.92673,-0.17162c0.57206,0 1.10064,0.15331 1.58575,0.45994c0.4851,0.30662 0.87411,0.71393 1.167,1.22192c0.29289,0.50799 0.43934,1.06403 0.43934,1.66812c0,0.72308 -0.16475,1.37294 -0.49426,1.94958c-0.32493,0.57664 -0.77342,1.03199 -1.34548,1.36608c-0.57206,0.32951 -1.22421,0.49426 -1.95644,0.49426zM280.18551,172.89161c0.31578,0 0.59265,-0.06636 0.83063,-0.19908c0.23798,-0.13729 0.42561,-0.32951 0.56291,-0.57664c0.13729,-0.25171 0.20594,-0.54002 0.20594,-0.86495c0,-0.27001 -0.07094,-0.52401 -0.21281,-0.76198c-0.14187,-0.24255 -0.33408,-0.43934 -0.57664,-0.59036c-0.23798,-0.15102 -0.50341,-0.22654 -0.79631,-0.22654c-0.3112,0 -0.59265,0.07094 -0.84436,0.21281c-0.24713,0.14187 -0.43934,0.33179 -0.57664,0.56977c-0.13272,0.23798 -0.19908,0.50341 -0.19908,0.79631c0,0.31578 0.06636,0.59952 0.19908,0.85122c0.13729,0.24713 0.32722,0.44163 0.56977,0.5835c0.24713,0.13729 0.52629,0.20594 0.83749,0.20594zM293.76092,175.08831c-0.86038,0 -1.60863,-0.17162 -2.24476,-0.51485c-0.63155,-0.34781 -1.12352,-0.82148 -1.47591,-1.42099c-0.34781,-0.59952 -0.52172,-1.28599 -0.52172,-2.05941c0,-0.59494 0.09611,-1.14183 0.28832,-1.64066c0.19679,-0.49883 0.46909,-0.93131 0.8169,-1.29743c0.35239,-0.36612 0.77114,-0.64757 1.25624,-0.84436c0.4851,-0.20137 1.01369,-0.30205 1.58575,-0.30205c0.54918,0 1.0503,0.09839 1.50337,0.29518c0.45307,0.19221 0.84436,0.46451 1.17386,0.8169c0.33408,0.35239 0.58808,0.76885 0.76198,1.24938c0.17848,0.47595 0.25857,0.99767 0.24026,1.56515l-0.01373,0.62469h-6.19883l-0.33637,-1.31802h4.62681l-0.24713,0.28145v-0.29518c-0.01831,-0.24255 -0.09382,-0.45765 -0.22654,-0.64528c-0.13272,-0.19221 -0.30662,-0.34095 -0.52172,-0.44621c-0.21509,-0.10984 -0.45765,-0.16475 -0.72766,-0.16475c-0.37985,0 -0.70478,0.07551 -0.97479,0.22654c-0.27001,0.15102 -0.47366,0.37069 -0.61096,0.65901c-0.13729,0.28832 -0.20594,0.64071 -0.20594,1.05716c0,0.43019 0.08924,0.80546 0.26772,1.12581c0.18306,0.31578 0.44849,0.56291 0.79631,0.74139c0.34781,0.17391 0.75969,0.26086 1.23565,0.26086c0.33408,0 0.62926,-0.04805 0.88555,-0.14416c0.26086,-0.10068 0.54231,-0.26772 0.84436,-0.50112l1.09835,1.55142c-0.30205,0.26543 -0.62469,0.48053 -0.96792,0.64528c-0.33866,0.16475 -0.68647,0.28832 -1.04343,0.37069c-0.35696,0.08238 -0.71164,0.12356 -1.06403,0.12356zM300.87688,174.94415l-3.247,-7.77771h2.58799l1.93585,5.8144l-0.56977,0.06178l1.99076,-5.87619h2.56053l-3.41176,7.77771zM310.83387,175.08831c-0.86038,0 -1.60863,-0.17162 -2.24476,-0.51485c-0.63155,-0.34781 -1.12352,-0.82148 -1.47591,-1.42099c-0.34781,-0.59952 -0.52172,-1.28599 -0.52172,-2.05941c0,-0.59494 0.09611,-1.14183 0.28832,-1.64066c0.19679,-0.49883 0.46909,-0.93131 0.8169,-1.29743c0.35239,-0.36612 0.77114,-0.64757 1.25624,-0.84436c0.4851,-0.20137 1.01369,-0.30205 1.58575,-0.30205c0.54918,0 1.0503,0.09839 1.50337,0.29518c0.45307,0.19221 0.84436,0.46451 1.17386,0.8169c0.33408,0.35239 0.58808,0.76885 0.76198,1.24938c0.17848,0.47595 0.25857,0.99767 0.24026,1.56515l-0.01373,0.62469h-6.19883l-0.33637,-1.31802h4.62681l-0.24713,0.28145v-0.29518c-0.01831,-0.24255 -0.09382,-0.45765 -0.22654,-0.64528c-0.13272,-0.19221 -0.30662,-0.34095 -0.52172,-0.44621c-0.21509,-0.10984 -0.45765,-0.16475 -0.72766,-0.16475c-0.37985,0 -0.70478,0.07551 -0.97479,0.22654c-0.27001,0.15102 -0.47366,0.37069 -0.61096,0.65901c-0.13729,0.28832 -0.20594,0.64071 -0.20594,1.05716c0,0.43019 0.08924,0.80546 0.26772,1.12581c0.18306,0.31578 0.44849,0.56291 0.79631,0.74139c0.34781,0.17391 0.75969,0.26086 1.23565,0.26086c0.33408,0 0.62926,-0.04805 0.88555,-0.14416c0.26086,-0.10068 0.54231,-0.26772 0.84436,-0.50112l1.09835,1.55142c-0.30205,0.26543 -0.62469,0.48053 -0.96792,0.64528c-0.33866,0.16475 -0.68647,0.28832 -1.04343,0.37069c-0.35696,0.08238 -0.71164,0.12356 -1.06403,0.12356zM315.70735,174.94415v-7.77771h2.23103l0.10297,2.53308l-0.43934,-0.48053c0.11441,-0.42104 0.30662,-0.79631 0.57664,-1.12581c0.27001,-0.33408 0.5835,-0.59723 0.94046,-0.78944c0.36154,-0.19679 0.74825,-0.29518 1.16013,-0.29518c0.17391,0 0.33637,0.01602 0.48739,0.04805c0.15102,0.02746 0.29061,0.05949 0.41875,0.09611l-0.64528,2.59486c-0.10526,-0.06865 -0.24942,-0.12356 -0.43248,-0.16475c-0.17848,-0.04576 -0.36612,-0.06865 -0.56291,-0.06865c-0.21509,0 -0.41646,0.03661 -0.60409,0.10984c-0.18306,0.07322 -0.33866,0.17848 -0.4668,0.31578c-0.12356,0.13272 -0.22196,0.29289 -0.29518,0.48053c-0.07322,0.18306 -0.10984,0.39358 -0.10984,0.63155v3.89229z" fill="#000000" stroke="none" stroke-width="1" stroke-linecap="square"/><path d="M169.53888,192.64823c-0.65444,0 -1.23794,-0.17162 -1.7505,-0.51485c-0.51256,-0.34781 -0.92216,-0.82605 -1.22878,-1.43472c-0.30205,-0.61325 -0.45307,-1.30429 -0.45307,-2.07314c0,-0.79173 0.15102,-1.48964 0.45307,-2.09373c0.30662,-0.60867 0.72308,-1.08462 1.24938,-1.42786c0.52629,-0.34781 1.12581,-0.52172 1.79855,-0.52172c0.37069,0 0.70935,0.05492 1.01598,0.16475c0.3112,0.10526 0.5835,0.25399 0.8169,0.44621c0.2334,0.18764 0.43248,0.40731 0.59723,0.65901c0.16933,0.24713 0.29289,0.51256 0.37069,0.79631l-0.48739,-0.06178v-1.84661h2.32713v7.77771h-2.36832v-1.87406l0.52858,-0.01373c-0.0778,0.27459 -0.20594,0.53316 -0.38442,0.77571c-0.17391,0.24255 -0.389,0.45765 -0.64528,0.64528c-0.25171,0.18306 -0.53545,0.32951 -0.85122,0.43934c-0.3112,0.10526 -0.64071,0.15789 -0.98852,0.15789zM170.1773,190.67119c0.36154,0 0.67274,-0.08238 0.9336,-0.24713c0.26543,-0.16475 0.47138,-0.40044 0.61782,-0.70706c0.14645,-0.3112 0.21967,-0.67503 0.21967,-1.09149c0,-0.42104 -0.07322,-0.78487 -0.21967,-1.09149c-0.14645,-0.30662 -0.35239,-0.5446 -0.61782,-0.71393c-0.26086,-0.17391 -0.57206,-0.26086 -0.9336,-0.26086c-0.34781,0 -0.65215,0.08695 -0.91301,0.26086c-0.25628,0.16933 -0.45765,0.40731 -0.60409,0.71393c-0.14645,0.30662 -0.21967,0.67045 -0.21967,1.09149c0,0.41646 0.07322,0.78029 0.21967,1.09149c0.14645,0.30662 0.34781,0.54231 0.60409,0.70706c0.26086,0.16475 0.56519,0.24713 0.91301,0.24713zM176.3119,195.73734v-10.99725h2.23103l0.08238,1.74363l-0.43934,-0.13043c0.06865,-0.32035 0.23569,-0.61325 0.50112,-0.87868c0.26543,-0.26543 0.59952,-0.47824 1.00225,-0.63842c0.40731,-0.16018 0.8352,-0.24026 1.2837,-0.24026c0.66359,0 1.25395,0.17391 1.77109,0.52172c0.51714,0.34324 0.92445,0.8169 1.22192,1.42099c0.29747,0.59952 0.44621,1.29514 0.44621,2.08687c0,0.778 -0.14873,1.47134 -0.44621,2.08001c-0.29747,0.60409 -0.70706,1.08005 -1.22878,1.42786c-0.52172,0.34324 -1.12124,0.51485 -1.79855,0.51485c-0.43934,0 -0.85809,-0.08238 -1.25624,-0.24713c-0.39815,-0.16475 -0.73452,-0.389 -1.00911,-0.67274c-0.27459,-0.28374 -0.45536,-0.59265 -0.54231,-0.92673l0.54231,-0.19908v5.1348zM180.36894,190.67119c0.35239,0 0.65901,-0.08467 0.91987,-0.25399c0.26543,-0.16933 0.47138,-0.40502 0.61782,-0.70706c0.14645,-0.30662 0.21967,-0.66817 0.21967,-1.08462c0,-0.41188 -0.07322,-0.77114 -0.21967,-1.07776c-0.14645,-0.30662 -0.3501,-0.5446 -0.61096,-0.71393c-0.25628,-0.17391 -0.56519,-0.26086 -0.92673,-0.26086c-0.36154,0 -0.67503,0.08467 -0.94046,0.25399c-0.26086,0.16475 -0.46451,0.40273 -0.61096,0.71393c-0.14645,0.3112 -0.21967,0.67274 -0.21967,1.08462c0,0.41646 0.07322,0.778 0.21967,1.08462c0.14645,0.30205 0.3501,0.53774 0.61096,0.70706c0.26543,0.16933 0.57892,0.25399 0.94046,0.25399zM185.96123,195.73734v-10.99725h2.23103l0.08238,1.74363l-0.43934,-0.13043c0.06865,-0.32035 0.23569,-0.61325 0.50112,-0.87868c0.26543,-0.26543 0.59952,-0.47824 1.00225,-0.63842c0.40731,-0.16018 0.8352,-0.24026 1.2837,-0.24026c0.66359,0 1.25395,0.17391 1.77109,0.52172c0.51714,0.34324 0.92445,0.8169 1.22192,1.42099c0.29747,0.59952 0.44621,1.29514 0.44621,2.08687c0,0.778 -0.14873,1.47134 -0.44621,2.08001c-0.29747,0.60409 -0.70706,1.08005 -1.22878,1.42786c-0.52172,0.34324 -1.12124,0.51485 -1.79855,0.51485c-0.43934,0 -0.85809,-0.08238 -1.25624,-0.24713c-0.39815,-0.16475 -0.73452,-0.389 -1.00911,-0.67274c-0.27459,-0.28374 -0.45536,-0.59265 -0.54231,-0.92673l0.54231,-0.19908v5.1348zM190.01827,190.67119c0.35239,0 0.65901,-0.08467 0.91987,-0.25399c0.26543,-0.16933 0.47138,-0.40502 0.61782,-0.70706c0.14645,-0.30662 0.21967,-0.66817 0.21967,-1.08462c0,-0.41188 -0.07322,-0.77114 -0.21967,-1.07776c-0.14645,-0.30662 -0.3501,-0.5446 -0.61096,-0.71393c-0.25628,-0.17391 -0.56519,-0.26086 -0.92673,-0.26086c-0.36154,0 -0.67503,0.08467 -0.94046,0.25399c-0.26086,0.16475 -0.46451,0.40273 -0.61096,0.71393c-0.14645,0.3112 -0.21967,0.67274 -0.21967,1.08462c0,0.41646 0.07322,0.778 0.21967,1.08462c0.14645,0.30205 0.3501,0.53774 0.61096,0.70706c0.26543,0.16933 0.57892,0.25399 0.94046,0.25399zM199.3175,192.66196c-0.86038,0 -1.60863,-0.17162 -2.24476,-0.51485c-0.63155,-0.34781 -1.12352,-0.82148 -1.47591,-1.42099c-0.34781,-0.59952 -0.52172,-1.28599 -0.52172,-2.05941c0,-0.59494 0.09611,-1.14183 0.28832,-1.64066c0.19679,-0.49883 0.46909,-0.93131 0.8169,-1.29743c0.35239,-0.36612 0.77114,-0.64757 1.25624,-0.84436c0.4851,-0.20137 1.01369,-0.30205 1.58575,-0.30205c0.54918,0 1.0503,0.09839 1.50337,0.29518c0.45307,0.19221 0.84436,0.46451 1.17386,0.8169c0.33408,0.35239 0.58808,0.76885 0.76198,1.24938c0.17848,0.47595 0.25857,0.99767 0.24026,1.56515l-0.01373,0.62469h-6.19883l-0.33637,-1.31802h4.62681l-0.24713,0.28145v-0.29518c-0.01831,-0.24255 -0.09382,-0.45765 -0.22654,-0.64528c-0.13272,-0.19221 -0.30662,-0.34095 -0.52172,-0.44621c-0.21509,-0.10984 -0.45765,-0.16475 -0.72766,-0.16475c-0.37985,0 -0.70478,0.07551 -0.97479,0.22654c-0.27001,0.15102 -0.47366,0.37069 -0.61096,0.65901c-0.13729,0.28832 -0.20594,0.64071 -0.20594,1.05716c0,0.43019 0.08924,0.80546 0.26772,1.12581c0.18306,0.31578 0.44849,0.56291 0.79631,0.74139c0.34781,0.17391 0.75969,0.26086 1.23565,0.26086c0.33408,0 0.62926,-0.04805 0.88555,-0.14416c0.26086,-0.10068 0.54231,-0.26772 0.84436,-0.50112l1.09835,1.55142c-0.30205,0.26543 -0.62469,0.48053 -0.96792,0.64528c-0.33866,0.16475 -0.68647,0.28832 -1.04343,0.37069c-0.35696,0.08238 -0.71164,0.12356 -1.06403,0.12356zM207.06731,192.64823c-0.65444,0 -1.23794,-0.17162 -1.7505,-0.51485c-0.51256,-0.34781 -0.92216,-0.82605 -1.22878,-1.43472c-0.30205,-0.61325 -0.45307,-1.30429 -0.45307,-2.07314c0,-0.79173 0.15102,-1.48964 0.45307,-2.09373c0.30662,-0.60867 0.72308,-1.08462 1.24938,-1.42786c0.52629,-0.34781 1.12581,-0.52172 1.79855,-0.52172c0.37069,0 0.70935,0.05492 1.01598,0.16475c0.3112,0.10526 0.5835,0.25399 0.8169,0.44621c0.2334,0.18764 0.43248,0.40731 0.59723,0.65901c0.16933,0.24713 0.29289,0.51256 0.37069,0.79631l-0.48739,-0.06178v-1.84661h2.32713v7.77771h-2.36832v-1.87406l0.52858,-0.01373c-0.0778,0.27459 -0.20594,0.53316 -0.38442,0.77571c-0.17391,0.24255 -0.389,0.45765 -0.64528,0.64528c-0.25171,0.18306 -0.53545,0.32951 -0.85122,0.43934c-0.3112,0.10526 -0.64071,0.15789 -0.98852,0.15789zM207.70573,190.67119c0.36154,0 0.67274,-0.08238 0.9336,-0.24713c0.26543,-0.16475 0.47138,-0.40044 0.61782,-0.70706c0.14645,-0.3112 0.21967,-0.67503 0.21967,-1.09149c0,-0.42104 -0.07322,-0.78487 -0.21967,-1.09149c-0.14645,-0.30662 -0.35239,-0.5446 -0.61782,-0.71393c-0.26086,-0.17391 -0.57206,-0.26086 -0.9336,-0.26086c-0.34781,0 -0.65215,0.08695 -0.91301,0.26086c-0.25628,0.16933 -0.45765,0.40731 -0.60409,0.71393c-0.14645,0.30662 -0.21967,0.67045 -0.21967,1.09149c0,0.41646 0.07322,0.78029 0.21967,1.09149c0.14645,0.30662 0.34781,0.54231 0.60409,0.70706c0.26086,0.16475 0.56519,0.24713 0.91301,0.24713zM213.84034,192.5178v-7.77771h2.23103l0.10297,2.53308l-0.43934,-0.48053c0.11441,-0.42104 0.30662,-0.79631 0.57664,-1.12581c0.27001,-0.33408 0.5835,-0.59723 0.94046,-0.78944c0.36154,-0.19679 0.74825,-0.29518 1.16013,-0.29518c0.17391,0 0.33637,0.01602 0.48739,0.04805c0.15102,0.02746 0.29061,0.05949 0.41875,0.09611l-0.64528,2.59486c-0.10526,-0.06865 -0.24942,-0.12356 -0.43248,-0.16475c-0.17848,-0.04576 -0.36612,-0.06865 -0.56291,-0.06865c-0.21509,0 -0.41646,0.03661 -0.60409,0.10984c-0.18306,0.07322 -0.33866,0.17848 -0.4668,0.31578c-0.12356,0.13272 -0.22196,0.29289 -0.29518,0.48053c-0.07322,0.18306 -0.10984,0.39358 -0.10984,0.63155v3.89229zM225.32547,192.5178v-7.77771h2.34086v7.77771zM226.49247,183.2024c-0.43934,0 -0.78258,-0.10297 -1.02971,-0.30891c-0.24713,-0.21052 -0.37069,-0.51256 -0.37069,-0.90614c0,-0.34781 0.12585,-0.63384 0.37756,-0.85809c0.25171,-0.22882 0.59265,-0.34324 1.02284,-0.34324c0.43934,0 0.78029,0.10526 1.02284,0.31578c0.24713,0.21052 0.37069,0.5057 0.37069,0.88555c0,0.36154 -0.12585,0.65444 -0.37756,0.87868c-0.24713,0.22425 -0.58579,0.33637 -1.01598,0.33637zM229.8591,192.5178v-7.77771h2.23103l0.06865,1.58575l-0.4668,0.17162c0.10984,-0.34781 0.30205,-0.66588 0.57664,-0.95419c0.27916,-0.28832 0.61325,-0.51943 1.00225,-0.69334c0.39358,-0.17848 0.80546,-0.26772 1.23565,-0.26772c0.58579,0 1.07776,0.11899 1.47591,0.35696c0.39815,0.23798 0.7002,0.59494 0.90614,1.07089c0.20594,0.47138 0.30891,1.0503 0.30891,1.73677v4.77097h-2.35459v-4.58562c0,-0.3112 -0.04576,-0.56748 -0.13729,-0.76885c-0.08695,-0.20594 -0.22196,-0.35925 -0.40502,-0.45994c-0.17848,-0.10526 -0.39815,-0.15331 -0.65901,-0.14416c-0.20594,0 -0.39815,0.03203 -0.57664,0.09611c-0.17391,0.06407 -0.32493,0.15789 -0.45307,0.28145c-0.12356,0.11899 -0.22196,0.25628 -0.29518,0.41188c-0.07322,0.1556 -0.10984,0.32722 -0.10984,0.51485v4.65427h-1.16013c-0.27459,0 -0.51028,0 -0.70706,0c-0.19221,0 -0.35239,0 -0.48053,0zM244.48786,192.5178v-9.73415h2.34773v9.73415zM243.11492,186.79264v-2.05255h5.22404v2.05255zM249.67024,192.5178v-10.8325h2.29968v4.64054l-0.4668,0.17162c0.10984,-0.34781 0.30205,-0.66588 0.57664,-0.95419c0.27916,-0.28832 0.61325,-0.51943 1.00225,-0.69334c0.39358,-0.17848 0.80546,-0.26772 1.23565,-0.26772c0.58579,0 1.07776,0.11899 1.47591,0.35696c0.39815,0.23798 0.7002,0.59494 0.90614,1.07089c0.20594,0.47138 0.30891,1.0503 0.30891,1.73677v4.77097h-2.35459v-4.58562c0,-0.3112 -0.04576,-0.56748 -0.13729,-0.76885c-0.08695,-0.20594 -0.22196,-0.35925 -0.40502,-0.45994c-0.17848,-0.10526 -0.39815,-0.15331 -0.65901,-0.14416c-0.20594,0 -0.39815,0.03203 -0.57664,0.09611c-0.17391,0.06407 -0.32493,0.15789 -0.45307,0.28145c-0.12356,0.11899 -0.22196,0.25628 -0.29518,0.41188c-0.07322,0.1556 -0.10984,0.32722 -0.10984,0.51485v4.65427h-1.16013c-0.27459,0 -0.51028,0 -0.70706,0c-0.19221,0 -0.35239,0 -0.48053,0zM262.6751,192.66196c-0.86038,0 -1.60863,-0.17162 -2.24476,-0.51485c-0.63155,-0.34781 -1.12352,-0.82148 -1.47591,-1.42099c-0.34781,-0.59952 -0.52172,-1.28599 -0.52172,-2.05941c0,-0.59494 0.09611,-1.14183 0.28832,-1.64066c0.19679,-0.49883 0.46909,-0.93131 0.8169,-1.29743c0.35239,-0.36612 0.77114,-0.64757 1.25624,-0.84436c0.4851,-0.20137 1.01369,-0.30205 1.58575,-0.30205c0.54918,0 1.0503,0.09839 1.50337,0.29518c0.45307,0.19221 0.84436,0.46451 1.17386,0.8169c0.33408,0.35239 0.58808,0.76885 0.76198,1.24938c0.17848,0.47595 0.25857,0.99767 0.24026,1.56515l-0.01373,0.62469h-6.19883l-0.33637,-1.31802h4.62681l-0.24713,0.28145v-0.29518c-0.01831,-0.24255 -0.09382,-0.45765 -0.22654,-0.64528c-0.13272,-0.19221 -0.30662,-0.34095 -0.52172,-0.44621c-0.21509,-0.10984 -0.45765,-0.16475 -0.72766,-0.16475c-0.37985,0 -0.70478,0.07551 -0.97479,0.22654c-0.27001,0.15102 -0.47366,0.37069 -0.61096,0.65901c-0.13729,0.28832 -0.20594,0.64071 -0.20594,1.05716c0,0.43019 0.08924,0.80546 0.26772,1.12581c0.18306,0.31578 0.44849,0.56291 0.79631,0.74139c0.34781,0.17391 0.75969,0.26086 1.23565,0.26086c0.33408,0 0.62926,-0.04805 0.88555,-0.14416c0.26086,-0.10068 0.54231,-0.26772 0.84436,-0.50112l1.09835,1.55142c-0.30205,0.26543 -0.62469,0.48053 -0.96792,0.64528c-0.33866,0.16475 -0.68647,0.28832 -1.04343,0.37069c-0.35696,0.08238 -0.71164,0.12356 -1.06403,0.12356zM272.72157,192.5178v-8.15527c0,-0.50799 0.10984,-0.96563 0.32951,-1.37294c0.21967,-0.41188 0.52629,-0.73681 0.91987,-0.97479c0.39815,-0.24255 0.86038,-0.36383 1.38667,-0.36383c0.37069,0 0.71164,0.05492 1.02284,0.16475c0.3112,0.10526 0.59036,0.25628 0.83749,0.45307l-0.67274,1.70931c-0.12814,-0.06407 -0.25171,-0.1167 -0.37069,-0.15789c-0.11441,-0.04119 -0.22196,-0.06178 -0.32264,-0.06178c-0.17391,0 -0.32035,0.02975 -0.43934,0.08924c-0.11441,0.05949 -0.19908,0.15102 -0.25399,0.27459c-0.05492,0.11899 -0.08238,0.26772 -0.08238,0.44621v7.94933h-1.167c-0.26543,0 -0.49883,0 -0.7002,0c-0.19679,0 -0.35925,0 -0.48739,0zM271.59575,186.89561v-1.93585h5.07988v1.93585zM278.12409,192.5178v-7.77771h2.34086v7.77771zM279.29109,183.2024c-0.43934,0 -0.78258,-0.10297 -1.02971,-0.30891c-0.24713,-0.21052 -0.37069,-0.51256 -0.37069,-0.90614c0,-0.34781 0.12585,-0.63384 0.37756,-0.85809c0.25171,-0.22882 0.59265,-0.34324 1.02284,-0.34324c0.43934,0 0.78029,0.10526 1.02284,0.31578c0.24713,0.21052 0.37069,0.5057 0.37069,0.88555c0,0.36154 -0.12585,0.65444 -0.37756,0.87868c-0.24713,0.22425 -0.58579,0.33637 -1.01598,0.33637zM282.65954,192.5178v-7.77771h2.23103l0.10297,2.53308l-0.43934,-0.48053c0.11441,-0.42104 0.30662,-0.79631 0.57664,-1.12581c0.27001,-0.33408 0.5835,-0.59723 0.94046,-0.78944c0.36154,-0.19679 0.74825,-0.29518 1.16013,-0.29518c0.17391,0 0.33637,0.01602 0.48739,0.04805c0.15102,0.02746 0.29061,0.05949 0.41875,0.09611l-0.64528,2.59486c-0.10526,-0.06865 -0.24942,-0.12356 -0.43248,-0.16475c-0.17848,-0.04576 -0.36612,-0.06865 -0.56291,-0.06865c-0.21509,0 -0.41646,0.03661 -0.60409,0.10984c-0.18306,0.07322 -0.33866,0.17848 -0.4668,0.31578c-0.12356,0.13272 -0.22196,0.29289 -0.29518,0.48053c-0.07322,0.18306 -0.10984,0.39358 -0.10984,0.63155v3.89229zM291.94413,192.66196c-0.75969,0 -1.43015,-0.12128 -2.01136,-0.36383c-0.58121,-0.24255 -1.04343,-0.56977 -1.38667,-0.98165l1.42099,-1.22878c0.30205,0.30205 0.64299,0.52401 1.02284,0.66588c0.38442,0.14187 0.74596,0.21281 1.08462,0.21281c0.13729,0 0.25857,-0.01373 0.36383,-0.04119c0.10984,-0.03203 0.20137,-0.07322 0.27459,-0.12356c0.07322,-0.05492 0.12814,-0.11899 0.16475,-0.19221c0.04119,-0.07322 0.06178,-0.16018 0.06178,-0.26086c0,-0.19221 -0.08695,-0.34324 -0.26086,-0.45307c-0.08695,-0.04576 -0.2334,-0.10297 -0.43934,-0.17162c-0.20594,-0.06865 -0.46909,-0.14873 -0.78944,-0.24026c-0.46222,-0.11441 -0.86266,-0.25171 -1.20132,-0.41188c-0.33408,-0.16475 -0.60867,-0.35239 -0.82376,-0.56291c-0.19221,-0.20594 -0.34324,-0.43248 -0.45307,-0.67961c-0.10526,-0.25171 -0.15789,-0.53316 -0.15789,-0.84436c0,-0.36154 0.08467,-0.68876 0.25399,-0.98165c0.16933,-0.29289 0.39815,-0.54689 0.68647,-0.76198c0.28832,-0.21509 0.62011,-0.37756 0.99538,-0.48739c0.37985,-0.11441 0.76885,-0.17162 1.167,-0.17162c0.43019,0 0.83978,0.05034 1.22878,0.15102c0.389,0.09611 0.75283,0.23111 1.09149,0.40502c0.33866,0.17391 0.63842,0.38442 0.89928,0.63155l-1.22878,1.37294c-0.17391,-0.16475 -0.37069,-0.31349 -0.59036,-0.44621c-0.21967,-0.13272 -0.44849,-0.23798 -0.68647,-0.31578c-0.2334,-0.0778 -0.44621,-0.1167 -0.63842,-0.1167c-0.14645,0 -0.27688,0.01373 -0.39129,0.04119c-0.10984,0.02288 -0.20594,0.06178 -0.28832,0.1167c-0.0778,0.05034 -0.13729,0.11212 -0.17848,0.18535c-0.03661,0.07322 -0.05492,0.16018 -0.05492,0.26086c0,0.09611 0.02746,0.18764 0.08238,0.27459c0.05492,0.08695 0.13043,0.16018 0.22654,0.21967c0.10068,0.05949 0.25628,0.12585 0.4668,0.19908c0.21509,0.07322 0.50799,0.16246 0.87868,0.26772c0.46222,0.12814 0.85809,0.27001 1.18759,0.42561c0.33408,0.1556 0.59723,0.34095 0.78944,0.55604c0.16018,0.16933 0.27916,0.36383 0.35696,0.5835c0.0778,0.21967 0.1167,0.45536 0.1167,0.70706c0,0.49883 -0.13958,0.94046 -0.41875,1.32489c-0.27916,0.38442 -0.66359,0.68647 -1.15327,0.90614c-0.4851,0.21967 -1.04115,0.32951 -1.66812,0.32951zM297.21507,192.5178v-9.73415h2.34773v9.73415zM295.84213,186.79264v-2.05255h5.22404v2.05255zM309.13557,191.797v-8.31316l0.54231,1.24251l-2.19671,1.04343l-0.42561,-2.23103l2.9175,-1.41413h1.60634v9.67237zM307.26151,192.5178v-2.19671h6.24002v2.19671z" fill="#000000" stroke="none" stroke-width="1" stroke-linecap="square"/><path d="M169.74254,210.09143v-10.249h2.22416l3.7344,6.07526l-1.59948,-0.01373l3.78245,-6.06153h2.13492v10.249h-2.41638v-3.19209c0,-0.87868 0.02059,-1.66812 0.06178,-2.36832c0.04576,-0.70478 0.12356,-1.40498 0.2334,-2.1006l0.27459,0.76198l-2.83512,4.40714h-0.96792l-2.78707,-4.37282l0.28145,-0.79631c0.10526,0.65444 0.18077,1.32718 0.22654,2.01822c0.04576,0.68647 0.06865,1.50337 0.06865,2.4507v3.19209zM182.48185,210.09143v-7.77771h2.34086v7.77771zM183.64885,200.77603c-0.43934,0 -0.78258,-0.10297 -1.02971,-0.30891c-0.24713,-0.21052 -0.37069,-0.51256 -0.37069,-0.90614c0,-0.34781 0.12585,-0.63384 0.37756,-0.85809c0.25171,-0.22882 0.59265,-0.34324 1.02284,-0.34324c0.43934,0 0.78029,0.10526 1.02284,0.31578c0.24713,0.21052 0.37069,0.5057 0.37069,0.88555c0,0.36154 -0.12585,0.65444 -0.37756,0.87868c-0.24713,0.22425 -0.58579,0.33637 -1.01598,0.33637zM187.03607,210.09143v-10.8325h2.34086v10.8325zM191.48736,210.09143v-10.8325h2.34086v10.8325zM196.05534,210.09143v-7.77771h2.34086v7.77771zM197.22234,200.77603c-0.43934,0 -0.78258,-0.10297 -1.02971,-0.30891c-0.24713,-0.21052 -0.37069,-0.51256 -0.37069,-0.90614c0,-0.34781 0.12585,-0.63384 0.37756,-0.85809c0.25171,-0.22882 0.59265,-0.34324 1.02284,-0.34324c0.43934,0 0.78029,0.10526 1.02284,0.31578c0.24713,0.21052 0.37069,0.5057 0.37069,0.88555c0,0.36154 -0.12585,0.65444 -0.37756,0.87868c-0.24713,0.22425 -0.58579,0.33637 -1.01598,0.33637zM204.25472,210.23559c-0.81004,0 -1.53083,-0.17391 -2.16238,-0.52172c-0.63155,-0.35239 -1.13039,-0.83063 -1.49651,-1.43472c-0.36154,-0.60867 -0.54231,-1.302 -0.54231,-2.08001c0,-0.78258 0.18077,-1.47591 0.54231,-2.08001c0.36612,-0.60867 0.86495,-1.08691 1.49651,-1.43472c0.63155,-0.35239 1.35235,-0.52858 2.16238,-0.52858c0.81004,0 1.52854,0.17619 2.15552,0.52858c0.63155,0.34781 1.1281,0.82605 1.48964,1.43472c0.36154,0.60409 0.54231,1.29743 0.54231,2.08001c0,0.778 -0.18077,1.47134 -0.54231,2.08001c-0.36154,0.60409 -0.85809,1.08233 -1.48964,1.43472c-0.62698,0.34781 -1.34548,0.52172 -2.15552,0.52172zM204.25472,208.21736c0.34781,0 0.65901,-0.08695 0.9336,-0.26086c0.27459,-0.17848 0.48968,-0.41875 0.64528,-0.72079c0.1556,-0.30205 0.22882,-0.64757 0.21967,-1.03657c0.00915,-0.39358 -0.06407,-0.74368 -0.21967,-1.0503c-0.1556,-0.30662 -0.37069,-0.54689 -0.64528,-0.72079c-0.27459,-0.17848 -0.58579,-0.26772 -0.9336,-0.26772c-0.35239,0 -0.66817,0.08924 -0.94733,0.26772c-0.27916,0.17391 -0.49655,0.41417 -0.65215,0.72079c-0.1556,0.30662 -0.22882,0.65672 -0.21967,1.0503c-0.00915,0.389 0.06407,0.73452 0.21967,1.03657c0.1556,0.30205 0.37298,0.54231 0.65215,0.72079c0.27916,0.17391 0.59494,0.26086 0.94733,0.26086zM209.97473,210.09143v-7.77771h2.23103l0.06865,1.58575l-0.4668,0.17162c0.10984,-0.34781 0.30205,-0.66588 0.57664,-0.95419c0.27916,-0.28832 0.61325,-0.51943 1.00225,-0.69334c0.39358,-0.17848 0.80546,-0.26772 1.23565,-0.26772c0.58579,0 1.07776,0.11899 1.47591,0.35696c0.39815,0.23798 0.7002,0.59494 0.90614,1.07089c0.20594,0.47138 0.30891,1.0503 0.30891,1.73677v4.77097h-2.35459v-4.58562c0,-0.3112 -0.04576,-0.56748 -0.13729,-0.76885c-0.08695,-0.20594 -0.22196,-0.35925 -0.40502,-0.45994c-0.17848,-0.10526 -0.39815,-0.15331 -0.65901,-0.14416c-0.20594,0 -0.39815,0.03203 -0.57664,0.09611c-0.17391,0.06407 -0.32493,0.15789 -0.45307,0.28145c-0.12356,0.11899 -0.22196,0.25628 -0.29518,0.41188c-0.07322,0.1556 -0.10984,0.32722 -0.10984,0.51485v4.65427h-1.16013c-0.27459,0 -0.51028,0 -0.70706,0c-0.19221,0 -0.35239,0 -0.48053,0zM226.90317,210.24932c-0.67274,0 -1.26997,-0.17162 -1.79169,-0.51485c-0.52172,-0.34781 -0.9336,-0.82605 -1.23565,-1.43472c-0.30205,-0.61325 -0.45307,-1.30887 -0.45307,-2.08687c0,-0.78258 0.15102,-1.4782 0.45307,-2.08687c0.30205,-0.61325 0.71622,-1.09378 1.24251,-1.44159c0.52629,-0.35239 1.13039,-0.52858 1.81228,-0.52858c0.35239,0 0.68876,0.05492 1.00911,0.16475c0.32493,0.10526 0.61782,0.25171 0.87868,0.43934c0.26543,0.18306 0.48053,0.39358 0.64528,0.63155c0.16933,0.23798 0.26772,0.4851 0.29518,0.74139l-0.55604,0.13043v-5.00437h2.35459v10.8325h-2.17611l-0.13729,-1.77109l0.47366,0.07551c-0.03203,0.24255 -0.12814,0.47595 -0.28832,0.7002c-0.16018,0.22425 -0.36841,0.42332 -0.62469,0.59723c-0.25171,0.16933 -0.54231,0.30434 -0.87182,0.40502c-0.32493,0.10068 -0.66817,0.15102 -1.02971,0.15102zM227.50726,208.3066c0.36154,0 0.67274,-0.08695 0.9336,-0.26086c0.26543,-0.17848 0.46909,-0.42332 0.61096,-0.73452c0.14187,-0.31578 0.21281,-0.68189 0.21281,-1.09835c0,-0.43019 -0.07094,-0.80088 -0.21281,-1.11208c-0.14187,-0.31578 -0.34552,-0.56062 -0.61096,-0.73452c-0.26086,-0.17391 -0.57206,-0.26086 -0.9336,-0.26086c-0.36154,0 -0.67274,0.08695 -0.9336,0.26086c-0.25628,0.17391 -0.45765,0.41875 -0.60409,0.73452c-0.14645,0.3112 -0.21967,0.68189 -0.21967,1.11208c0,0.41646 0.07322,0.78258 0.21967,1.09835c0.14645,0.3112 0.34781,0.55604 0.60409,0.73452c0.26086,0.17391 0.57206,0.26086 0.9336,0.26086zM233.67162,210.09143v-7.77771h2.34086v7.77771zM234.83862,200.77603c-0.43934,0 -0.78258,-0.10297 -1.02971,-0.30891c-0.24713,-0.21052 -0.37069,-0.51256 -0.37069,-0.90614c0,-0.34781 0.12585,-0.63384 0.37756,-0.85809c0.25171,-0.22882 0.59265,-0.34324 1.02284,-0.34324c0.43934,0 0.78029,0.10526 1.02284,0.31578c0.24713,0.21052 0.37069,0.5057 0.37069,0.88555c0,0.36154 -0.12585,0.65444 -0.37756,0.87868c-0.24713,0.22425 -0.58579,0.33637 -1.01598,0.33637zM241.76803,213.462c-0.63613,0 -1.26997,-0.09382 -1.90152,-0.28145c-0.62698,-0.18306 -1.13497,-0.42104 -1.52396,-0.71393l0.8169,-1.64066c0.20594,0.13729 0.43248,0.25628 0.67961,0.35696c0.25171,0.10068 0.51256,0.18077 0.78258,0.24026c0.27459,0.05949 0.55375,0.08924 0.83749,0.08924c0.49883,0 0.90385,-0.07322 1.21505,-0.21967c0.3112,-0.14645 0.5446,-0.36841 0.7002,-0.66588c0.16018,-0.29747 0.24026,-0.67045 0.24026,-1.11895v-1.30429l0.45307,0.07551c-0.06865,0.32035 -0.23798,0.61325 -0.50799,0.87868c-0.27001,0.26086 -0.59952,0.47138 -0.98852,0.63155c-0.389,0.16018 -0.80317,0.24026 -1.24251,0.24026c-0.70478,0 -1.33404,-0.16246 -1.88779,-0.48739c-0.54918,-0.32493 -0.98165,-0.778 -1.29743,-1.35921c-0.31578,-0.58121 -0.47366,-1.25395 -0.47366,-2.01822c0,-0.778 0.1556,-1.46676 0.4668,-2.06628c0.3112,-0.60409 0.7391,-1.07776 1.2837,-1.42099c0.54918,-0.34781 1.16471,-0.52172 1.84661,-0.52172c0.29289,0 0.57435,0.03432 0.84436,0.10297c0.27001,0.06865 0.51943,0.16018 0.74825,0.27459c0.22882,0.10984 0.43248,0.24026 0.61096,0.39129c0.18306,0.15102 0.32951,0.31578 0.43934,0.49426c0.11441,0.17391 0.18992,0.35239 0.22654,0.53545l-0.48053,0.1167l0.08924,-1.75736h2.22416v7.14616c0,0.63613 -0.09611,1.19903 -0.28832,1.68872c-0.18764,0.49426 -0.46451,0.91529 -0.83063,1.26311c-0.36612,0.34781 -0.80775,0.60867 -1.32489,0.78258c-0.51714,0.17848 -1.10293,0.26772 -1.75736,0.26772zM241.82294,208.21736c0.37985,0 0.70935,-0.08467 0.98852,-0.25399c0.27916,-0.17391 0.49426,-0.41188 0.64528,-0.71393c0.15102,-0.30205 0.22654,-0.65901 0.22654,-1.07089c0,-0.40731 -0.07551,-0.76427 -0.22654,-1.07089c-0.15102,-0.30662 -0.36612,-0.5446 -0.64528,-0.71393c-0.27916,-0.17391 -0.60867,-0.26086 -0.98852,-0.26086c-0.37069,0 -0.69334,0.08695 -0.96792,0.26086c-0.27001,0.16933 -0.48053,0.40731 -0.63155,0.71393c-0.15102,0.30662 -0.22654,0.66359 -0.22654,1.07089c0,0.41188 0.07551,0.76885 0.22654,1.07089c0.15102,0.30205 0.36154,0.54002 0.63155,0.71393c0.27459,0.16933 0.59723,0.25399 0.96792,0.25399zM248.1383,210.09143v-7.77771h2.34086v7.77771zM249.3053,200.77603c-0.43934,0 -0.78258,-0.10297 -1.02971,-0.30891c-0.24713,-0.21052 -0.37069,-0.51256 -0.37069,-0.90614c0,-0.34781 0.12585,-0.63384 0.37756,-0.85809c0.25171,-0.22882 0.59265,-0.34324 1.02284,-0.34324c0.43934,0 0.78029,0.10526 1.02284,0.31578c0.24713,0.21052 0.37069,0.5057 0.37069,0.88555c0,0.36154 -0.12585,0.65444 -0.37756,0.87868c-0.24713,0.22425 -0.58579,0.33637 -1.01598,0.33637zM253.31721,210.09143v-9.73415h2.34774v9.73415zM251.94427,204.36626v-2.05255h5.22405v2.05255zM261.41481,210.23559c-0.75969,0 -1.43015,-0.12128 -2.01136,-0.36383c-0.58121,-0.24255 -1.04343,-0.56977 -1.38667,-0.98165l1.42099,-1.22878c0.30205,0.30205 0.64299,0.52401 1.02284,0.66588c0.38442,0.14187 0.74596,0.21281 1.08462,0.21281c0.13729,0 0.25857,-0.01373 0.36383,-0.04119c0.10984,-0.03203 0.20137,-0.07322 0.27459,-0.12356c0.07322,-0.05492 0.12814,-0.11899 0.16475,-0.19221c0.04119,-0.07322 0.06178,-0.16018 0.06178,-0.26086c0,-0.19221 -0.08695,-0.34324 -0.26086,-0.45307c-0.08695,-0.04576 -0.2334,-0.10297 -0.43934,-0.17162c-0.20594,-0.06865 -0.46909,-0.14873 -0.78944,-0.24026c-0.46222,-0.11441 -0.86266,-0.25171 -1.20132,-0.41188c-0.33408,-0.16475 -0.60867,-0.35239 -0.82376,-0.56291c-0.19221,-0.20594 -0.34324,-0.43248 -0.45307,-0.67961c-0.10526,-0.25171 -0.15789,-0.53316 -0.15789,-0.84436c0,-0.36154 0.08467,-0.68876 0.25399,-0.98165c0.16933,-0.29289 0.39815,-0.54689 0.68647,-0.76198c0.28832,-0.21509 0.62011,-0.37756 0.99538,-0.48739c0.37985,-0.11441 0.76885,-0.17162 1.167,-0.17162c0.43019,0 0.83978,0.05034 1.22878,0.15102c0.389,0.09611 0.75283,0.23111 1.09149,0.40502c0.33866,0.17391 0.63842,0.38442 0.89928,0.63155l-1.22878,1.37294c-0.17391,-0.16475 -0.37069,-0.31349 -0.59036,-0.44621c-0.21967,-0.13272 -0.44849,-0.23798 -0.68647,-0.31578c-0.2334,-0.0778 -0.44621,-0.1167 -0.63842,-0.1167c-0.14645,0 -0.27688,0.01373 -0.39129,0.04119c-0.10984,0.02288 -0.20594,0.06178 -0.28832,0.1167c-0.0778,0.05034 -0.13729,0.11212 -0.17848,0.18535c-0.03661,0.07322 -0.05492,0.16018 -0.05492,0.26086c0,0.09611 0.02746,0.18764 0.08238,0.27459c0.05492,0.08695 0.13043,0.16018 0.22654,0.21967c0.10068,0.05949 0.25628,0.12585 0.4668,0.19908c0.21509,0.07322 0.50799,0.16246 0.87868,0.26772c0.46222,0.12814 0.85809,0.27001 1.18759,0.42561c0.33408,0.1556 0.59723,0.34095 0.78944,0.55604c0.16018,0.16933 0.27916,0.36383 0.35696,0.5835c0.0778,0.21967 0.1167,0.45536 0.1167,0.70706c0,0.49883 -0.13958,0.94046 -0.41875,1.32489c-0.27916,0.38442 -0.66359,0.68647 -1.15327,0.90614c-0.4851,0.21967 -1.04115,0.32951 -1.66812,0.32951zM274.39178,210.23559c-0.81004,0 -1.53083,-0.17391 -2.16238,-0.52172c-0.63155,-0.35239 -1.13039,-0.83063 -1.49651,-1.43472c-0.36154,-0.60867 -0.54231,-1.302 -0.54231,-2.08001c0,-0.78258 0.18077,-1.47591 0.54231,-2.08001c0.36612,-0.60867 0.86495,-1.08691 1.49651,-1.43472c0.63155,-0.35239 1.35235,-0.52858 2.16238,-0.52858c0.81004,0 1.52854,0.17619 2.15552,0.52858c0.63155,0.34781 1.1281,0.82605 1.48964,1.43472c0.36154,0.60409 0.54231,1.29743 0.54231,2.08001c0,0.778 -0.18077,1.47134 -0.54231,2.08001c-0.36154,0.60409 -0.85809,1.08233 -1.48964,1.43472c-0.62698,0.34781 -1.34548,0.52172 -2.15552,0.52172zM274.39178,208.21736c0.34781,0 0.65901,-0.08695 0.9336,-0.26086c0.27459,-0.17848 0.48968,-0.41875 0.64528,-0.72079c0.1556,-0.30205 0.22882,-0.64757 0.21967,-1.03657c0.00915,-0.39358 -0.06407,-0.74368 -0.21967,-1.0503c-0.1556,-0.30662 -0.37069,-0.54689 -0.64528,-0.72079c-0.27459,-0.17848 -0.58579,-0.26772 -0.9336,-0.26772c-0.35239,0 -0.66817,0.08924 -0.94733,0.26772c-0.27916,0.17391 -0.49655,0.41417 -0.65215,0.72079c-0.1556,0.30662 -0.22882,0.65672 -0.21967,1.0503c-0.00915,0.389 0.06407,0.73452 0.21967,1.03657c0.1556,0.30205 0.37298,0.54231 0.65215,0.72079c0.27916,0.17391 0.59494,0.26086 0.94733,0.26086zM280.30631,210.09143v-8.15527c0,-0.50799 0.10984,-0.96563 0.32951,-1.37294c0.21967,-0.41188 0.52629,-0.73681 0.91987,-0.97479c0.39815,-0.24255 0.86038,-0.36383 1.38667,-0.36383c0.37069,0 0.71164,0.05492 1.02284,0.16475c0.3112,0.10526 0.59036,0.25628 0.83749,0.45307l-0.67274,1.70931c-0.12814,-0.06407 -0.25171,-0.1167 -0.37069,-0.15789c-0.11441,-0.04119 -0.22196,-0.06178 -0.32264,-0.06178c-0.17391,0 -0.32035,0.02975 -0.43934,0.08924c-0.11441,0.05949 -0.19908,0.15102 -0.25399,0.27459c-0.05492,0.11899 -0.08238,0.26772 -0.08238,0.44621v7.94933h-1.167c-0.26543,0 -0.49883,0 -0.7002,0c-0.19679,0 -0.35925,0 -0.48739,0zM279.1805,204.46924v-1.93585h5.07988v1.93585zM290.51292,210.09143v-10.249h4.42087c0.64528,0 1.21734,0.14645 1.71618,0.43934c0.50341,0.29289 0.90385,0.69334 1.20132,1.20132c0.29747,0.50799 0.44621,1.07776 0.44621,1.70931c0,0.66359 -0.14873,1.25853 -0.44621,1.78482c-0.29747,0.52172 -0.69791,0.9336 -1.20132,1.23565c-0.49883,0.30205 -1.07089,0.45307 -1.71618,0.45307h-1.93585v3.42549zM292.95675,204.48296h1.62693c0.21509,0 0.40959,-0.05263 0.5835,-0.15789c0.17391,-0.10984 0.31349,-0.25628 0.41875,-0.43934c0.10984,-0.18764 0.16475,-0.40273 0.16475,-0.64528c0,-0.25628 -0.05492,-0.47138 -0.16475,-0.64528c-0.10526,-0.17391 -0.24484,-0.30891 -0.41875,-0.40502c-0.17391,-0.10068 -0.36841,-0.15102 -0.5835,-0.15102h-1.62693zM300.08947,210.09143v-7.77771h2.34086v7.77771zM301.25647,200.77603c-0.43934,0 -0.78258,-0.10297 -1.02971,-0.30891c-0.24713,-0.21052 -0.37069,-0.51256 -0.37069,-0.90614c0,-0.34781 0.12585,-0.63384 0.37756,-0.85809c0.25171,-0.22882 0.59265,-0.34324 1.02284,-0.34324c0.43934,0 0.78029,0.10526 1.02284,0.31578c0.24713,0.21052 0.37069,0.5057 0.37069,0.88555c0,0.36154 -0.12585,0.65444 -0.37756,0.87868c-0.24713,0.22425 -0.58579,0.33637 -1.01598,0.33637zM306.44225,206.5767l-0.4668,-1.91525c0.28374,-0.06865 0.55147,-0.14873 0.80317,-0.24026c0.25171,-0.09611 0.4851,-0.19679 0.7002,-0.30205c0.21509,-0.10984 0.39815,-0.23569 0.54918,-0.37756c0.15102,-0.14187 0.27001,-0.29747 0.35696,-0.4668c0.09153,-0.16933 0.13729,-0.35239 0.13729,-0.54918c0,-0.19679 -0.05034,-0.36383 -0.15102,-0.50112c-0.09611,-0.14187 -0.22654,-0.25171 -0.39129,-0.32951c-0.16475,-0.08238 -0.35925,-0.12356 -0.5835,-0.12356c-0.32493,0 -0.64986,0.1167 -0.97479,0.3501c-0.32035,0.22882 -0.61553,0.59723 -0.88555,1.10522l-1.59948,-1.48278c0.43934,-0.67274 0.96335,-1.19446 1.57202,-1.56515c0.61325,-0.37069 1.25166,-0.55604 1.91525,-0.55604c0.64528,0 1.22649,0.13043 1.74363,0.39129c0.51714,0.25628 0.92673,0.61096 1.22878,1.06403c0.30205,0.45307 0.45307,0.96335 0.45307,1.53083c0,0.36154 -0.07551,0.7185 -0.22654,1.07089c-0.15102,0.35239 -0.36154,0.68189 -0.63155,0.98852c-0.26543,0.30662 -0.57892,0.57664 -0.94046,0.81004c-0.36154,0.2334 -0.76198,0.41417 -1.20132,0.54231l-0.15102,0.55604zM305.91367,208.95189c0,-0.39358 0.1167,-0.71164 0.3501,-0.95419c0.23798,-0.24255 0.54231,-0.36383 0.91301,-0.36383c0.39815,0 0.70935,0.11441 0.9336,0.34324c0.22425,0.22882 0.33637,0.55375 0.33637,0.97479c0,0.37985 -0.1167,0.69105 -0.3501,0.9336c-0.2334,0.24255 -0.54002,0.36383 -0.91987,0.36383c-0.40273,0 -0.71393,-0.11212 -0.9336,-0.33637c-0.21967,-0.22425 -0.32951,-0.5446 -0.32951,-0.96106z" fill="#000000" stroke="none" stroke-width="1" stroke-linecap="square"/></g></g></svg>