<svg version="1.1" xmlns="http://www.w3.org/2000/svg" xmlns:xlink="http://www.w3.org/1999/xlink" width="205.64286" height="99.25" viewBox="0,0,205.64286,99.25"><g transform="translate(-137.30607,-131)"><g data-paper-data="{&quot;isPaintingLayer&quot;:true}" fill-rule="nonzero" stroke-linejoin="miter" stroke-miterlimit="10" stroke-dasharray="" stroke-dashoffset="0" style="mix-blend-mode: normal"><path d="M140.55607,207.25c0,-18.73959 -0.38249,-45.48871 0,-55.5c0.5,-13.0871 3.89541,-16.75 15.32143,-16.75c22.08229,0 127.56734,0 168,0c15.33535,0 15.82143,4.98326 15.82143,16.75c0,17.95892 0,45.32915 0,56c0,14.97422 -0.38765,19.25 -14.32143,19.25c-38.12556,0 -140.83396,0 -165,0c-18.91714,0 -19.82143,-3.40978 -19.82143,-19.75z" fill="#ffffff" stroke-opacity="0.25901" stroke="#000000" stroke-width="6.5" stroke-linecap="butt"/><path d="M140.47107,205.25c0,-18.73959 -0.38249,-45.48871 0,-55.5c0.5,-13.0871 3.89541,-16.75 15.32143,-16.75c22.08229,0 127.56734,0 168,0c15.33535,0 15.82143,4.98326 15.82143,16.75c0,17.95892 0,45.32915 0,56c0,14.97422 -0.38765,19.25 -14.32143,19.25c-38.12556,0 -140.83396,0 -165,0c-18.91714,0 -19.82143,-3.40978 -19.82143,-19.75z" fill="#ffffff" stroke="#000000" stroke-width="4" stroke-linecap="butt"/><path d="M161.69271,176.38213l-2.67777,-8.94388h2.21051l1.34188,4.70258c0.05591,0.21167 0.10783,0.42733 0.15575,0.64698c0.04792,0.21566 0.08587,0.42134 0.11382,0.61703c0.03195,0.19569 0.05591,0.3774 0.07189,0.54514c0.01597,0.16374 0.03395,0.30152 0.05391,0.41335h-0.28156c0.04792,-0.3155 0.09186,-0.59706 0.13179,-0.84467c0.03994,-0.24761 0.08387,-0.47924 0.13179,-0.6949c0.05192,-0.21566 0.11582,-0.4433 0.1917,-0.68292l1.3299,-3.54041h1.73726l1.30594,3.54041c0.10384,0.27956 0.1897,0.54314 0.25759,0.79075c0.06789,0.24761 0.11981,0.48523 0.15575,0.71287c0.03994,0.22365 0.07189,0.4453 0.09585,0.66495l-0.2516,0.04193c0.01597,-0.15575 0.02796,-0.29953 0.03594,-0.43132c0.00799,-0.13179 0.01797,-0.25959 0.02995,-0.38339c0.01597,-0.1238 0.03195,-0.2536 0.04792,-0.38939c0.01597,-0.13578 0.03994,-0.28555 0.07189,-0.44929c0.03594,-0.16774 0.08387,-0.35744 0.14377,-0.5691l1.3299,-4.69059h2.1566l-2.68376,8.94388h-1.65938l-2.12065,-5.15187l0.24561,0.02995l-1.95891,5.12191zM172.55395,176.38213v-9.45307h2.00683v4.04961l-0.40736,0.14976c0.09585,-0.30352 0.26358,-0.58108 0.50321,-0.83269c0.24361,-0.2516 0.53516,-0.45328 0.87462,-0.60504c0.34346,-0.15575 0.70289,-0.23363 1.0783,-0.23363c0.51119,0 0.94052,0.10384 1.28797,0.31151c0.34745,0.20767 0.61104,0.51918 0.79075,0.93452c0.17972,0.41135 0.26957,0.91655 0.26957,1.51561v4.16343h-2.05476v-4.00168c0,-0.27157 -0.03994,-0.49522 -0.11981,-0.67094c-0.07588,-0.17972 -0.19369,-0.31351 -0.35344,-0.40137c-0.15575,-0.09186 -0.34745,-0.13379 -0.57509,-0.1258c-0.17972,0 -0.34745,0.02796 -0.50321,0.08387c-0.15176,0.05591 -0.28355,0.13778 -0.39538,0.24561c-0.10783,0.10384 -0.19369,0.22365 -0.25759,0.35943c-0.0639,0.13578 -0.09585,0.28555 -0.09585,0.44929v4.06159h-1.0124c-0.23962,0 -0.4453,0 -0.61703,0c-0.16774,0 -0.30752,0 -0.41934,0zM181.4606,179.32349l1.54556,-3.64225l0.02995,1.04834l-3.27084,-7.13474h2.31235l1.43174,3.41461c0.07588,0.17173 0.14777,0.35544 0.21566,0.55113c0.06789,0.19569 0.11781,0.3814 0.14976,0.55712l-0.27556,0.16774c0.04792,-0.1278 0.10384,-0.28755 0.16774,-0.47924c0.0639,-0.1917 0.13578,-0.39737 0.21566,-0.61703l1.25202,-3.59433h2.32433l-2.88744,6.78728l-1.18014,2.94136zM192.73489,176.38213v-6.78728h2.04277v6.78728zM193.75329,168.25297c-0.38339,0 -0.68292,-0.08986 -0.89858,-0.26957c-0.21566,-0.18371 -0.32349,-0.44729 -0.32349,-0.79075c0,-0.30352 0.10983,-0.55313 0.32948,-0.74882c0.21965,-0.19969 0.51718,-0.29953 0.89259,-0.29953c0.38339,0 0.68092,0.09186 0.89259,0.27556c0.21566,0.18371 0.32349,0.4413 0.32349,0.77278c0,0.3155 -0.10983,0.5711 -0.32948,0.76679c-0.21566,0.19569 -0.51119,0.29354 -0.8866,0.29354zM198.97959,176.50794c-0.66295,0 -1.24803,-0.10583 -1.75523,-0.3175c-0.5072,-0.21167 -0.91056,-0.49721 -1.21009,-0.85665l1.24004,-1.07231c0.26358,0.26358 0.56111,0.45728 0.89259,0.58108c0.33547,0.1238 0.65097,0.18571 0.94651,0.18571c0.11981,0 0.22564,-0.01198 0.3175,-0.03594c0.09585,-0.02796 0.17572,-0.0639 0.23962,-0.10783c0.0639,-0.04792 0.11182,-0.10384 0.14377,-0.16774c0.03594,-0.0639 0.05391,-0.13978 0.05391,-0.22764c0,-0.16774 -0.07588,-0.29953 -0.22764,-0.39538c-0.07588,-0.03994 -0.20368,-0.08986 -0.38339,-0.14976c-0.17972,-0.05991 -0.40935,-0.12979 -0.68891,-0.20967c-0.40336,-0.09984 -0.75281,-0.21965 -1.04834,-0.35943c-0.29154,-0.14377 -0.53116,-0.30752 -0.71887,-0.49122c-0.16774,-0.17972 -0.29953,-0.3774 -0.39538,-0.59306c-0.09186,-0.21965 -0.13778,-0.46526 -0.13778,-0.73684c0,-0.3155 0.07388,-0.60105 0.22165,-0.85665c0.14777,-0.2556 0.34745,-0.47725 0.59905,-0.66495c0.2516,-0.1877 0.54115,-0.32948 0.86863,-0.42533c0.33148,-0.09984 0.67094,-0.14976 1.01839,-0.14976c0.37541,0 0.73284,0.04393 1.07231,0.13179c0.33946,0.08387 0.65696,0.20168 0.9525,0.35344c0.29553,0.15176 0.55712,0.33547 0.78476,0.55113l-1.07231,1.19811c-0.15176,-0.14377 -0.32349,-0.27357 -0.51519,-0.38939c-0.1917,-0.11582 -0.39138,-0.20767 -0.59905,-0.27556c-0.20368,-0.06789 -0.38939,-0.10184 -0.55712,-0.10184c-0.1278,0 -0.24162,0.01198 -0.34146,0.03594c-0.09585,0.01997 -0.17972,0.05391 -0.2516,0.10184c-0.06789,0.04393 -0.11981,0.09785 -0.15575,0.16174c-0.03195,0.0639 -0.04792,0.13978 -0.04792,0.22764c0,0.08387 0.02396,0.16374 0.07189,0.23962c0.04792,0.07588 0.11382,0.13978 0.19769,0.1917c0.08786,0.05192 0.22365,0.10983 0.40736,0.17373c0.1877,0.0639 0.4433,0.14178 0.76679,0.23363c0.40336,0.11182 0.74882,0.23563 1.03636,0.37141c0.29154,0.13578 0.52118,0.29753 0.68891,0.48523c0.13978,0.14777 0.24361,0.3175 0.31151,0.5092c0.06789,0.1917 0.10184,0.39737 0.10184,0.61703c0,0.43531 -0.12181,0.8207 -0.36542,1.15617c-0.24361,0.33547 -0.57909,0.59905 -1.00641,0.79075c-0.42333,0.1917 -0.90856,0.28755 -1.4557,0.28755zM207.32675,176.38213v-8.94388h3.85791c0.56311,0 1.06232,0.1278 1.49764,0.38339c0.43931,0.2556 0.78875,0.60504 1.04834,1.04834c0.25959,0.4433 0.38939,0.94052 0.38939,1.49164c0,0.57909 -0.12979,1.09827 -0.38939,1.55754c-0.25959,0.45528 -0.60904,0.81471 -1.04834,1.0783c-0.43531,0.26358 -0.93452,0.39538 -1.49764,0.39538h-1.68933v2.98928zM209.45939,171.48786h1.41976c0.1877,0 0.35744,-0.04593 0.5092,-0.13778c0.15176,-0.09585 0.27357,-0.22365 0.36542,-0.38339c0.09585,-0.16374 0.14377,-0.35144 0.14377,-0.56311c0,-0.22365 -0.04792,-0.41135 -0.14377,-0.56311c-0.09186,-0.15176 -0.21366,-0.26957 -0.36542,-0.35344c-0.15176,-0.08786 -0.32149,-0.13179 -0.5092,-0.13179h-1.41976zM215.68382,176.38213v-6.78728h2.04277v6.78728zM216.70221,168.25297c-0.38339,0 -0.68292,-0.08986 -0.89858,-0.26957c-0.21566,-0.18371 -0.32349,-0.44729 -0.32349,-0.79075c0,-0.30352 0.10983,-0.55313 0.32948,-0.74882c0.21965,-0.19969 0.51718,-0.29953 0.89259,-0.29953c0.38339,0 0.68092,0.09186 0.89259,0.27556c0.21566,0.18371 0.32349,0.4413 0.32349,0.77278c0,0.3155 -0.10983,0.5711 -0.32948,0.76679c-0.21566,0.19569 -0.51119,0.29354 -0.8866,0.29354zM223.95067,176.38213v-8.94388h3.74409c0.65497,0 1.25402,0.10983 1.79716,0.32948c0.54714,0.21566 1.01839,0.52317 1.41377,0.92254c0.39538,0.39937 0.6989,0.87262 0.91056,1.41976c0.21566,0.54314 0.32349,1.1422 0.32349,1.79716c0,0.65896 -0.10783,1.264 -0.32349,1.81513c-0.21167,0.54714 -0.51519,1.01839 -0.91056,1.41377c-0.39538,0.39538 -0.86663,0.70289 -1.41377,0.92254c-0.54314,0.21566 -1.1422,0.32349 -1.79716,0.32349zM226.11925,174.90247l-0.29354,-0.43731h1.80315c0.35943,0 0.67893,-0.0619 0.95849,-0.18571c0.27956,-0.1238 0.51918,-0.29553 0.71887,-0.51519c0.20368,-0.22365 0.35943,-0.49322 0.46726,-0.80872c0.11182,-0.3155 0.16774,-0.66495 0.16774,-1.04834c0,-0.38339 -0.05591,-0.73085 -0.16774,-1.04235c-0.10783,-0.3155 -0.26358,-0.58308 -0.46726,-0.80273c-0.19969,-0.22365 -0.43931,-0.39737 -0.71887,-0.52118c-0.27956,-0.1238 -0.59905,-0.18571 -0.95849,-0.18571h-1.8391l0.32948,-0.40736zM236.10353,176.49595c-0.5711,0 -1.08029,-0.14976 -1.52759,-0.44929c-0.44729,-0.30352 -0.80473,-0.72086 -1.07231,-1.25202c-0.26358,-0.53516 -0.39538,-1.1382 -0.39538,-1.80914c0,-0.69091 0.13179,-1.29995 0.39538,-1.82712c0.26758,-0.53116 0.631,-0.94651 1.09028,-1.24603c0.45927,-0.30352 0.98245,-0.45528 1.56952,-0.45528c0.32349,0 0.61902,0.04792 0.8866,0.14377c0.27157,0.09186 0.5092,0.22165 0.71287,0.38939c0.20368,0.16374 0.3774,0.35544 0.52118,0.57509c0.14777,0.21566 0.2556,0.44729 0.32349,0.6949l-0.42533,-0.05391v-1.61146h2.03079v6.78728h-2.06674v-1.63542l0.46127,-0.01198c-0.06789,0.23962 -0.17972,0.46526 -0.33547,0.67693c-0.15176,0.21167 -0.33946,0.39937 -0.56311,0.56311c-0.21965,0.15975 -0.46726,0.28755 -0.74283,0.38339c-0.27157,0.09186 -0.55912,0.13778 -0.86264,0.13778zM236.66065,174.77068c0.3155,0 0.58707,-0.07189 0.81471,-0.21566c0.23163,-0.14377 0.41135,-0.34945 0.53915,-0.61703c0.1278,-0.27157 0.1917,-0.58907 0.1917,-0.9525c0,-0.36742 -0.0639,-0.68492 -0.1917,-0.9525c-0.1278,-0.26758 -0.30752,-0.47525 -0.53915,-0.62302c-0.22764,-0.15176 -0.49921,-0.22764 -0.81471,-0.22764c-0.30352,0 -0.5691,0.07588 -0.79674,0.22764c-0.22365,0.14777 -0.39937,0.35544 -0.52717,0.62302c-0.1278,0.26758 -0.1917,0.58508 -0.1917,0.9525c0,0.36343 0.0639,0.68092 0.1917,0.9525c0.1278,0.26758 0.30352,0.47325 0.52717,0.61703c0.22764,0.14377 0.49322,0.21566 0.79674,0.21566zM242.71735,179.32349l1.54556,-3.64225l0.02995,1.04834l-3.27084,-7.13474h2.31235l1.43174,3.41461c0.07588,0.17173 0.14777,0.35544 0.21566,0.55113c0.06789,0.19569 0.11781,0.3814 0.14976,0.55712l-0.27556,0.16774c0.04792,-0.1278 0.10384,-0.28755 0.16774,-0.47924c0.0639,-0.1917 0.13578,-0.39737 0.21566,-0.61703l1.25202,-3.59433h2.32433l-2.88744,6.78728l-1.18014,2.94136zM256.84914,176.50794c-0.65497,0 -1.24204,-0.15176 -1.76122,-0.45528c-0.51918,-0.30752 -0.93053,-0.72685 -1.23405,-1.25801c-0.29953,-0.53516 -0.44929,-1.1382 -0.44929,-1.80914c0,-0.67493 0.14976,-1.27798 0.44929,-1.80914c0.30352,-0.53516 0.71487,-0.95449 1.23405,-1.25801c0.51918,-0.30752 1.10625,-0.46127 1.76122,-0.46127c0.60704,0 1.16416,0.10783 1.67136,0.32349c0.5072,0.21167 0.90856,0.5092 1.2041,0.89259l-1.10825,1.32391c-0.11981,-0.13578 -0.26159,-0.26159 -0.42533,-0.3774c-0.15975,-0.11981 -0.33747,-0.21366 -0.53316,-0.28156c-0.19569,-0.07189 -0.40137,-0.10783 -0.61703,-0.10783c-0.32349,0 -0.60904,0.07588 -0.85665,0.22764c-0.24361,0.14777 -0.43531,0.35344 -0.57509,0.61703c-0.13578,0.26358 -0.20368,0.5671 -0.20368,0.91056c0,0.32349 0.06989,0.61703 0.20967,0.88061c0.14377,0.26358 0.33946,0.47325 0.58707,0.62901c0.24761,0.15176 0.52717,0.22764 0.83868,0.22764c0.22365,0 0.42932,-0.02796 0.61703,-0.08387c0.1877,-0.05591 0.35943,-0.13778 0.51519,-0.24561c0.15975,-0.11182 0.30752,-0.24961 0.4433,-0.41335l1.09627,1.34188c-0.28755,0.36742 -0.68891,0.65696 -1.2041,0.86863c-0.51519,0.21167 -1.06831,0.3175 -1.65938,0.3175zM264.07064,176.50794c-0.75082,0 -1.40378,-0.14976 -1.95891,-0.44929c-0.55113,-0.30352 -0.98045,-0.71687 -1.28797,-1.24004c-0.30352,-0.52317 -0.45528,-1.12223 -0.45528,-1.79716c0,-0.51918 0.08387,-0.99643 0.2516,-1.43174c0.17173,-0.43531 0.40935,-0.81272 0.71287,-1.13221c0.30752,-0.3195 0.67294,-0.56511 1.09627,-0.73684c0.42333,-0.17572 0.8846,-0.26358 1.38382,-0.26358c0.47924,0 0.91655,0.08587 1.31193,0.25759c0.39538,0.16774 0.73684,0.40536 1.02438,0.71287c0.29154,0.30752 0.51319,0.67094 0.66495,1.09028c0.15575,0.41534 0.22564,0.87063 0.20967,1.36584l-0.01198,0.54514h-5.40946l-0.29354,-1.15018h4.03763l-0.21566,0.24561v-0.25759c-0.01597,-0.21167 -0.08187,-0.39937 -0.19769,-0.56311c-0.11582,-0.16774 -0.26758,-0.29753 -0.45528,-0.38939c-0.1877,-0.09585 -0.39937,-0.14377 -0.635,-0.14377c-0.33148,0 -0.61503,0.0659 -0.85066,0.19769c-0.23563,0.13179 -0.41335,0.32349 -0.53316,0.57509c-0.11981,0.2516 -0.17972,0.55912 -0.17972,0.92254c0,0.37541 0.07788,0.70289 0.23363,0.98245c0.15975,0.27556 0.39138,0.49122 0.6949,0.64698c0.30352,0.15176 0.66295,0.22764 1.0783,0.22764c0.29154,0 0.54913,-0.04193 0.77278,-0.1258c0.22764,-0.08786 0.47325,-0.23363 0.73684,-0.43731l0.95849,1.35386c-0.26358,0.23163 -0.54514,0.41934 -0.84467,0.56311c-0.29553,0.14377 -0.59905,0.2516 -0.91056,0.32349c-0.31151,0.07189 -0.62102,0.10783 -0.92853,0.10783zM268.3415,176.38213v-9.45307h2.04277v9.45307zM275.31507,176.50794c-0.75082,0 -1.40378,-0.14976 -1.95891,-0.44929c-0.55113,-0.30352 -0.98045,-0.71687 -1.28797,-1.24004c-0.30352,-0.52317 -0.45528,-1.12223 -0.45528,-1.79716c0,-0.51918 0.08387,-0.99643 0.2516,-1.43174c0.17173,-0.43531 0.40935,-0.81272 0.71287,-1.13221c0.30752,-0.3195 0.67294,-0.56511 1.09627,-0.73684c0.42333,-0.17572 0.8846,-0.26358 1.38382,-0.26358c0.47924,0 0.91655,0.08587 1.31193,0.25759c0.39538,0.16774 0.73684,0.40536 1.02438,0.71287c0.29154,0.30752 0.51319,0.67094 0.66495,1.09028c0.15575,0.41534 0.22564,0.87063 0.20967,1.36584l-0.01198,0.54514h-5.40946l-0.29354,-1.15018h4.03763l-0.21566,0.24561v-0.25759c-0.01597,-0.21167 -0.08187,-0.39937 -0.19769,-0.56311c-0.11582,-0.16774 -0.26758,-0.29753 -0.45528,-0.38939c-0.1877,-0.09585 -0.39937,-0.14377 -0.635,-0.14377c-0.33148,0 -0.61503,0.0659 -0.85066,0.19769c-0.23563,0.13179 -0.41335,0.32349 -0.53316,0.57509c-0.11981,0.2516 -0.17972,0.55912 -0.17972,0.92254c0,0.37541 0.07788,0.70289 0.23363,0.98245c0.15975,0.27556 0.39138,0.49122 0.6949,0.64698c0.30352,0.15176 0.66295,0.22764 1.0783,0.22764c0.29154,0 0.54913,-0.04193 0.77278,-0.1258c0.22764,-0.08786 0.47325,-0.23363 0.73684,-0.43731l0.95849,1.35386c-0.26358,0.23163 -0.54514,0.41934 -0.84467,0.56311c-0.29553,0.14377 -0.59905,0.2516 -0.91056,0.32349c-0.31151,0.07189 -0.62102,0.10783 -0.92853,0.10783zM283.64754,176.51992c-0.30752,0 -0.60305,-0.04193 -0.8866,-0.1258c-0.27956,-0.08387 -0.53316,-0.19769 -0.7608,-0.34146c-0.22365,-0.14777 -0.40935,-0.3175 -0.55712,-0.5092c-0.14777,-0.1917 -0.24761,-0.38939 -0.29953,-0.59306l0.4433,-0.14976l-0.11382,1.56952h-1.90499v-9.44109h2.06075v4.28923l-0.42533,-0.14976c0.05192,-0.22365 0.14976,-0.43132 0.29354,-0.62302c0.14777,-0.1917 0.33148,-0.36143 0.55113,-0.5092c0.22365,-0.14777 0.46726,-0.26358 0.73085,-0.34745c0.26358,-0.08786 0.53516,-0.13179 0.81471,-0.13179c0.59107,0 1.11424,0.15176 1.56952,0.45528c0.45528,0.29953 0.81471,0.71687 1.0783,1.25202c0.26358,0.53116 0.39538,1.1382 0.39538,1.82112c0,0.68691 -0.12979,1.29795 -0.38939,1.83311c-0.25959,0.53116 -0.61503,0.9485 -1.06632,1.25202c-0.45129,0.29953 -0.96248,0.44929 -1.53358,0.44929zM283.10839,174.80063c0.30752,0 0.57509,-0.07588 0.80273,-0.22764c0.23163,-0.15575 0.40935,-0.36742 0.53316,-0.635c0.1238,-0.27157 0.18571,-0.58907 0.18571,-0.9525c0,-0.35943 -0.0619,-0.67493 -0.18571,-0.94651c-0.1238,-0.27157 -0.30152,-0.47924 -0.53316,-0.62302c-0.22764,-0.14777 -0.49522,-0.22165 -0.80273,-0.22165c-0.3155,0 -0.58907,0.07388 -0.8207,0.22165c-0.22764,0.14377 -0.40536,0.35144 -0.53316,0.62302c-0.1278,0.27157 -0.1917,0.58707 -0.1917,0.94651c0,0.36343 0.0639,0.68092 0.1917,0.9525c0.1278,0.26758 0.30552,0.47924 0.53316,0.635c0.23163,0.15176 0.5052,0.22764 0.8207,0.22764zM287.97578,176.38213v-6.78728h1.94693l0.08986,2.21051l-0.38339,-0.41934c0.09984,-0.36742 0.26758,-0.6949 0.50321,-0.98245c0.23563,-0.29154 0.5092,-0.52118 0.8207,-0.68891c0.3155,-0.17173 0.65297,-0.25759 1.0124,-0.25759c0.15176,0 0.29354,0.01398 0.42533,0.04193c0.13179,0.02396 0.2536,0.05192 0.36542,0.08387l-0.56311,2.26442c-0.09186,-0.05991 -0.21766,-0.10783 -0.3774,-0.14377c-0.15575,-0.03994 -0.3195,-0.05991 -0.49122,-0.05991c-0.1877,0 -0.36343,0.03195 -0.52717,0.09585c-0.15975,0.0639 -0.29553,0.15575 -0.40736,0.27556c-0.10783,0.11582 -0.19369,0.2556 -0.25759,0.41934c-0.0639,0.15975 -0.09585,0.34346 -0.09585,0.55113v3.39664zM296.01855,176.49595c-0.5711,0 -1.08029,-0.14976 -1.52759,-0.44929c-0.44729,-0.30352 -0.80473,-0.72086 -1.07231,-1.25202c-0.26358,-0.53516 -0.39538,-1.1382 -0.39538,-1.80914c0,-0.69091 0.13179,-1.29995 0.39538,-1.82712c0.26758,-0.53116 0.631,-0.94651 1.09028,-1.24603c0.45927,-0.30352 0.98245,-0.45528 1.56952,-0.45528c0.32349,0 0.61902,0.04792 0.8866,0.14377c0.27157,0.09186 0.5092,0.22165 0.71287,0.38939c0.20368,0.16374 0.3774,0.35544 0.52118,0.57509c0.14777,0.21566 0.2556,0.44729 0.32349,0.6949l-0.42533,-0.05391v-1.61146h2.03079v6.78728h-2.06674v-1.63542l0.46127,-0.01198c-0.06789,0.23962 -0.17972,0.46526 -0.33547,0.67693c-0.15176,0.21167 -0.33946,0.39937 -0.56311,0.56311c-0.21965,0.15975 -0.46726,0.28755 -0.74283,0.38339c-0.27157,0.09186 -0.55912,0.13778 -0.86264,0.13778zM296.57567,174.77068c0.3155,0 0.58707,-0.07189 0.81471,-0.21566c0.23163,-0.14377 0.41135,-0.34945 0.53915,-0.61703c0.1278,-0.27157 0.1917,-0.58907 0.1917,-0.9525c0,-0.36742 -0.0639,-0.68492 -0.1917,-0.9525c-0.1278,-0.26758 -0.30752,-0.47525 -0.53915,-0.62302c-0.22764,-0.15176 -0.49921,-0.22764 -0.81471,-0.22764c-0.30352,0 -0.5691,0.07588 -0.79674,0.22764c-0.22365,0.14777 -0.39937,0.35544 -0.52717,0.62302c-0.1278,0.26758 -0.1917,0.58508 -0.1917,0.9525c0,0.36343 0.0639,0.68092 0.1917,0.9525c0.1278,0.26758 0.30352,0.47325 0.52717,0.61703c0.22764,0.14377 0.49322,0.21566 0.79674,0.21566zM302.4922,176.38213v-8.49459h2.04877v8.49459zM301.29409,171.38602v-1.79117h4.5588v1.79117zM310.18564,176.50794c-0.75082,0 -1.40378,-0.14976 -1.95891,-0.44929c-0.55113,-0.30352 -0.98045,-0.71687 -1.28797,-1.24004c-0.30352,-0.52317 -0.45528,-1.12223 -0.45528,-1.79716c0,-0.51918 0.08387,-0.99643 0.2516,-1.43174c0.17173,-0.43531 0.40935,-0.81272 0.71287,-1.13221c0.30752,-0.3195 0.67294,-0.56511 1.09627,-0.73684c0.42333,-0.17572 0.8846,-0.26358 1.38382,-0.26358c0.47924,0 0.91655,0.08587 1.31193,0.25759c0.39538,0.16774 0.73684,0.40536 1.02438,0.71287c0.29154,0.30752 0.51319,0.67094 0.66495,1.09028c0.15575,0.41534 0.22564,0.87063 0.20967,1.36584l-0.01198,0.54514h-5.40946l-0.29354,-1.15018h4.03763l-0.21566,0.24561v-0.25759c-0.01597,-0.21167 -0.08187,-0.39937 -0.19769,-0.56311c-0.11582,-0.16774 -0.26758,-0.29753 -0.45528,-0.38939c-0.1877,-0.09585 -0.39937,-0.14377 -0.635,-0.14377c-0.33148,0 -0.61503,0.0659 -0.85066,0.19769c-0.23563,0.13179 -0.41335,0.32349 -0.53316,0.57509c-0.11981,0.2516 -0.17972,0.55912 -0.17972,0.92254c0,0.37541 0.07788,0.70289 0.23363,0.98245c0.15975,0.27556 0.39138,0.49122 0.6949,0.64698c0.30352,0.15176 0.66295,0.22764 1.0783,0.22764c0.29154,0 0.54913,-0.04193 0.77278,-0.1258c0.22764,-0.08786 0.47325,-0.23363 0.73684,-0.43731l0.95849,1.35386c-0.26358,0.23163 -0.54514,0.41934 -0.84467,0.56311c-0.29553,0.14377 -0.59905,0.2516 -0.91056,0.32349c-0.31151,0.07189 -0.62102,0.10783 -0.92853,0.10783zM317.00847,176.51992c-0.58707,0 -1.10825,-0.14976 -1.56353,-0.44929c-0.45528,-0.30352 -0.81471,-0.72086 -1.0783,-1.25202c-0.26358,-0.53516 -0.39538,-1.1422 -0.39538,-1.82112c0,-0.68292 0.13179,-1.28996 0.39538,-1.82112c0.26358,-0.53516 0.62501,-0.95449 1.08429,-1.25801c0.45927,-0.30752 0.98644,-0.46127 1.5815,-0.46127c0.30752,0 0.60105,0.04792 0.88061,0.14377c0.28355,0.09186 0.53915,0.21965 0.76679,0.38339c0.23163,0.15975 0.41934,0.34346 0.56311,0.55113c0.14777,0.20767 0.23363,0.42333 0.25759,0.64698l-0.48523,0.11382v-4.3671h2.05476v9.45307h-1.899l-0.11981,-1.54556l0.41335,0.0659c-0.02796,0.21167 -0.11182,0.41534 -0.2516,0.61104c-0.13978,0.19569 -0.32149,0.36942 -0.54514,0.52118c-0.21965,0.14777 -0.47325,0.26558 -0.7608,0.35344c-0.28355,0.08786 -0.58308,0.13179 -0.89858,0.13179zM317.53564,174.82459c0.3155,0 0.58707,-0.07588 0.81471,-0.22764c0.23163,-0.15575 0.40935,-0.36942 0.53316,-0.64099c0.1238,-0.27556 0.18571,-0.59506 0.18571,-0.95849c0,-0.37541 -0.0619,-0.6989 -0.18571,-0.97047c-0.1238,-0.27556 -0.30152,-0.48923 -0.53316,-0.64099c-0.22764,-0.15176 -0.49921,-0.22764 -0.81471,-0.22764c-0.3155,0 -0.58707,0.07588 -0.81471,0.22764c-0.22365,0.15176 -0.39937,0.36542 -0.52717,0.64099c-0.1278,0.27157 -0.1917,0.59506 -0.1917,0.97047c0,0.36343 0.0639,0.68292 0.1917,0.95849c0.1278,0.27157 0.30352,0.48523 0.52717,0.64099c0.22764,0.15176 0.49921,0.22764 0.81471,0.22764z" fill="#000000" stroke="none" stroke-width="1" stroke-linecap="square"/><path d="M194.32539,191.84372c-0.70688,0 -1.33589,-0.15176 -1.88702,-0.45528c-0.55113,-0.30752 -0.98644,-0.72486 -1.30594,-1.25202c-0.3155,-0.53116 -0.47325,-1.13621 -0.47325,-1.81513c0,-0.68292 0.15775,-1.28797 0.47325,-1.81513c0.3195,-0.53116 0.75481,-0.9485 1.30594,-1.25202c0.55113,-0.30752 1.18014,-0.46127 1.88702,-0.46127c0.70688,0 1.33389,0.15376 1.88103,0.46127c0.55113,0.30352 0.98445,0.72086 1.29995,1.25202c0.3155,0.52717 0.47325,1.13221 0.47325,1.81513c0,0.67893 -0.15775,1.28397 -0.47325,1.81513c-0.3155,0.52717 -0.74882,0.94451 -1.29995,1.25202c-0.54714,0.30352 -1.17415,0.45528 -1.88103,0.45528zM194.32539,190.0825c0.30352,0 0.57509,-0.07588 0.81471,-0.22764c0.23962,-0.15575 0.42733,-0.36542 0.56311,-0.62901c0.13578,-0.26358 0.19969,-0.56511 0.1917,-0.90457c0.00799,-0.34346 -0.05591,-0.64898 -0.1917,-0.91655c-0.13578,-0.26758 -0.32349,-0.47725 -0.56311,-0.62901c-0.23962,-0.15575 -0.51119,-0.23363 -0.81471,-0.23363c-0.30752,0 -0.58308,0.07788 -0.82669,0.23363c-0.24361,0.15176 -0.43332,0.36143 -0.5691,0.62901c-0.13578,0.26758 -0.19969,0.57309 -0.1917,0.91655c-0.00799,0.33946 0.05591,0.64099 0.1917,0.90457c0.13578,0.26358 0.32549,0.47325 0.5691,0.62901c0.24361,0.15176 0.51918,0.22764 0.82669,0.22764zM199.31701,191.71792v-6.78728h1.94693l0.05991,1.38382l-0.40736,0.14976c0.09585,-0.30352 0.26358,-0.58108 0.50321,-0.83269c0.24361,-0.2516 0.53516,-0.45328 0.87462,-0.60504c0.34346,-0.15575 0.70289,-0.23363 1.0783,-0.23363c0.51119,0 0.94052,0.10384 1.28797,0.31151c0.34745,0.20767 0.61104,0.51918 0.79075,0.93452c0.17972,0.41135 0.26957,0.91655 0.26957,1.51561v4.16343h-2.05476v-4.00168c0,-0.27157 -0.03994,-0.49522 -0.11981,-0.67094c-0.07588,-0.17972 -0.19369,-0.31351 -0.35344,-0.40137c-0.15575,-0.09186 -0.34745,-0.13379 -0.57509,-0.1258c-0.17972,0 -0.34745,0.02796 -0.50321,0.08387c-0.15176,0.05591 -0.28355,0.13778 -0.39538,0.24561c-0.10783,0.10384 -0.19369,0.22365 -0.25759,0.35943c-0.0639,0.13578 -0.09585,0.28555 -0.09585,0.44929v4.06159h-1.0124c-0.23962,0 -0.4453,0 -0.61703,0c-0.16774,0 -0.30752,0 -0.41934,0zM211.74147,191.71792v-8.94388h1.94094l3.25885,5.30163l-1.3958,-0.01198l3.30079,-5.28965h1.86306v8.94388h-2.10867v-2.7856c0,-0.76679 0.01797,-1.4557 0.05391,-2.06674c0.03994,-0.61503 0.10783,-1.22606 0.20368,-1.83311l0.23962,0.66495l-2.47409,3.84593h-0.84467l-2.43216,-3.81598l0.24561,-0.6949c0.09186,0.5711 0.15775,1.15817 0.19769,1.76122c0.03994,0.59905 0.05991,1.31193 0.05991,2.13862v2.7856zM225.24876,191.83174c-0.5711,0 -1.08029,-0.14976 -1.52759,-0.44929c-0.44729,-0.30352 -0.80473,-0.72086 -1.07231,-1.25202c-0.26358,-0.53516 -0.39538,-1.1382 -0.39538,-1.80914c0,-0.69091 0.13179,-1.29995 0.39538,-1.82712c0.26758,-0.53116 0.631,-0.94651 1.09028,-1.24603c0.45927,-0.30352 0.98245,-0.45528 1.56952,-0.45528c0.32349,0 0.61902,0.04792 0.8866,0.14377c0.27157,0.09186 0.5092,0.22165 0.71287,0.38939c0.20368,0.16374 0.3774,0.35544 0.52118,0.57509c0.14777,0.21566 0.2556,0.44729 0.32349,0.6949l-0.42533,-0.05391v-1.61146h2.03079v6.78728h-2.06674v-1.63542l0.46127,-0.01198c-0.06789,0.23962 -0.17972,0.46526 -0.33547,0.67693c-0.15176,0.21167 -0.33946,0.39937 -0.56311,0.56311c-0.21965,0.15975 -0.46726,0.28755 -0.74283,0.38339c-0.27157,0.09186 -0.55912,0.13778 -0.86264,0.13778zM225.80588,190.10646c0.3155,0 0.58707,-0.07189 0.81471,-0.21566c0.23163,-0.14377 0.41135,-0.34945 0.53915,-0.61703c0.1278,-0.27157 0.1917,-0.58907 0.1917,-0.9525c0,-0.36742 -0.0639,-0.68492 -0.1917,-0.9525c-0.1278,-0.26758 -0.30752,-0.47525 -0.53915,-0.62302c-0.22764,-0.15176 -0.49921,-0.22764 -0.81471,-0.22764c-0.30352,0 -0.5691,0.07588 -0.79674,0.22764c-0.22365,0.14777 -0.39937,0.35544 -0.52717,0.62302c-0.1278,0.26758 -0.1917,0.58508 -0.1917,0.9525c0,0.36343 0.0639,0.68092 0.1917,0.9525c0.1278,0.26758 0.30352,0.47325 0.52717,0.61703c0.22764,0.14377 0.49322,0.21566 0.79674,0.21566zM231.15929,191.71792v-6.78728h1.94693l0.08986,2.21051l-0.38339,-0.41934c0.09984,-0.36742 0.26758,-0.6949 0.50321,-0.98245c0.23563,-0.29154 0.5092,-0.52118 0.8207,-0.68891c0.3155,-0.17173 0.65297,-0.25759 1.0124,-0.25759c0.15176,0 0.29354,0.01398 0.42533,0.04193c0.13179,0.02396 0.2536,0.05192 0.36542,0.08387l-0.56311,2.26442c-0.09186,-0.05991 -0.21766,-0.10783 -0.3774,-0.14377c-0.15575,-0.03994 -0.3195,-0.05991 -0.49122,-0.05991c-0.1877,0 -0.36343,0.03195 -0.52717,0.09585c-0.15975,0.0639 -0.29553,0.15575 -0.40736,0.27556c-0.10783,0.11582 -0.19369,0.2556 -0.25759,0.41934c-0.0639,0.15975 -0.09585,0.34346 -0.09585,0.55113v3.39664zM239.66934,191.84372c-0.65497,0 -1.24204,-0.15176 -1.76122,-0.45528c-0.51918,-0.30752 -0.93053,-0.72685 -1.23405,-1.25801c-0.29953,-0.53516 -0.44929,-1.1382 -0.44929,-1.80914c0,-0.67493 0.14976,-1.27798 0.44929,-1.80914c0.30352,-0.53516 0.71487,-0.95449 1.23405,-1.25801c0.51918,-0.30752 1.10625,-0.46127 1.76122,-0.46127c0.60704,0 1.16416,0.10783 1.67136,0.32349c0.5072,0.21167 0.90856,0.5092 1.2041,0.89259l-1.10825,1.32391c-0.11981,-0.13578 -0.26159,-0.26159 -0.42533,-0.3774c-0.15975,-0.11981 -0.33747,-0.21366 -0.53316,-0.28156c-0.19569,-0.07189 -0.40137,-0.10783 -0.61703,-0.10783c-0.32349,0 -0.60904,0.07588 -0.85665,0.22764c-0.24361,0.14777 -0.43531,0.35344 -0.57509,0.61703c-0.13578,0.26358 -0.20368,0.5671 -0.20368,0.91056c0,0.32349 0.06989,0.61703 0.20967,0.88061c0.14377,0.26358 0.33946,0.47325 0.58707,0.62901c0.24761,0.15176 0.52717,0.22764 0.83868,0.22764c0.22365,0 0.42932,-0.02796 0.61703,-0.08387c0.1877,-0.05591 0.35943,-0.13778 0.51519,-0.24561c0.15975,-0.11182 0.30752,-0.24961 0.4433,-0.41335l1.09627,1.34188c-0.28755,0.36742 -0.68891,0.65696 -1.2041,0.86863c-0.51519,0.21167 -1.06831,0.3175 -1.65938,0.3175zM243.65594,191.71792v-9.45307h2.00683v4.04961l-0.40736,0.14976c0.09585,-0.30352 0.26358,-0.58108 0.50321,-0.83269c0.24361,-0.2516 0.53516,-0.45328 0.87462,-0.60504c0.34346,-0.15575 0.70289,-0.23363 1.0783,-0.23363c0.51119,0 0.94052,0.10384 1.28797,0.31151c0.34745,0.20767 0.61104,0.51918 0.79075,0.93452c0.17972,0.41135 0.26957,0.91655 0.26957,1.51561v4.16343h-2.05476v-4.00168c0,-0.27157 -0.03994,-0.49522 -0.11981,-0.67094c-0.07588,-0.17972 -0.19369,-0.31351 -0.35344,-0.40137c-0.15575,-0.09186 -0.34745,-0.13379 -0.57509,-0.1258c-0.17972,0 -0.34745,0.02796 -0.50321,0.08387c-0.15176,0.05591 -0.28355,0.13778 -0.39538,0.24561c-0.10783,0.10384 -0.19369,0.22365 -0.25759,0.35943c-0.0639,0.13578 -0.09585,0.28555 -0.09585,0.44929v4.06159h-1.0124c-0.23962,0 -0.4453,0 -0.61703,0c-0.16774,0 -0.30752,0 -0.41934,0zM257.6499,191.08891v-7.25455l0.47325,1.08429l-1.91697,0.91056l-0.37141,-1.94693l2.54598,-1.23405h1.40179v8.44067zM256.01448,191.71792v-1.91697h5.4454v1.91697zM266.57948,191.71792v-7.23058l1.16816,0.02396l-3.23489,3.95975l-0.30552,-0.38339h5.92465v1.79117h-6.89511l-0.86863,-1.67735l4.5588,-5.50531h1.74924v9.02176zM272.0491,191.71792v-8.49459h2.04877v8.49459zM270.851,186.72181v-1.79117h4.5588v1.79117zM276.57154,191.71792v-9.45307h2.00683v4.04961l-0.40736,0.14976c0.09585,-0.30352 0.26358,-0.58108 0.50321,-0.83269c0.24361,-0.2516 0.53516,-0.45328 0.87462,-0.60504c0.34346,-0.15575 0.70289,-0.23363 1.0783,-0.23363c0.51119,0 0.94052,0.10384 1.28797,0.31151c0.34745,0.20767 0.61104,0.51918 0.79075,0.93452c0.17972,0.41135 0.26957,0.91655 0.26957,1.51561v4.16343h-2.05476v-4.00168c0,-0.27157 -0.03994,-0.49522 -0.11981,-0.67094c-0.07588,-0.17972 -0.19369,-0.31351 -0.35344,-0.40137c-0.15575,-0.09186 -0.34745,-0.13379 -0.57509,-0.1258c-0.17972,0 -0.34745,0.02796 -0.50321,0.08387c-0.15176,0.05591 -0.28355,0.13778 -0.39538,0.24561c-0.10783,0.10384 -0.19369,0.22365 -0.25759,0.35943c-0.0639,0.13578 -0.09585,0.28555 -0.09585,0.44929v4.06159h-1.0124c-0.23962,0 -0.4453,0 -0.61703,0c-0.16774,0 -0.30752,0 -0.41934,0zM286.27294,188.65076l-0.40736,-1.67136c0.24761,-0.05991 0.48124,-0.12979 0.70089,-0.20967c0.21965,-0.08387 0.42333,-0.17173 0.61104,-0.26358c0.1877,-0.09585 0.34745,-0.20568 0.47924,-0.32948c0.13179,-0.1238 0.23563,-0.25959 0.31151,-0.40736c0.07987,-0.14777 0.11981,-0.30752 0.11981,-0.47924c0,-0.17173 -0.04393,-0.3175 -0.13179,-0.43731c-0.08387,-0.1238 -0.19769,-0.21965 -0.34146,-0.28755c-0.14377,-0.07189 -0.31351,-0.10783 -0.5092,-0.10783c-0.28355,0 -0.5671,0.10184 -0.85066,0.30552c-0.27956,0.19969 -0.53715,0.52118 -0.77278,0.96448l-1.3958,-1.29396c0.38339,-0.58707 0.84067,-1.04235 1.37183,-1.36584c0.53516,-0.32349 1.09228,-0.48523 1.67136,-0.48523c0.56311,0 1.07031,0.11382 1.5216,0.34146c0.45129,0.22365 0.80872,0.53316 1.07231,0.92853c0.26358,0.39538 0.39538,0.84067 0.39538,1.33589c0,0.3155 -0.0659,0.62701 -0.19769,0.93452c-0.13179,0.30752 -0.3155,0.59506 -0.55113,0.86264c-0.23163,0.26758 -0.5052,0.50321 -0.8207,0.70688c-0.3155,0.20368 -0.66495,0.36143 -1.04834,0.47325l-0.13179,0.48523zM285.81167,190.72349c0,-0.34346 0.10184,-0.62102 0.30552,-0.83269c0.20767,-0.21167 0.47325,-0.3175 0.79674,-0.3175c0.34745,0 0.61902,0.09984 0.81471,0.29953c0.19569,0.19969 0.29354,0.48324 0.29354,0.85066c0,0.33148 -0.10184,0.60305 -0.30552,0.81471c-0.20368,0.21167 -0.47126,0.3175 -0.80273,0.3175c-0.35144,0 -0.62302,-0.09785 -0.81471,-0.29354c-0.1917,-0.19569 -0.28755,-0.47525 -0.28755,-0.83868z" fill="#000000" stroke="none" stroke-width="1" stroke-linecap="square"/></g></g></svg>