<svg version="1.1" xmlns="http://www.w3.org/2000/svg" xmlns:xlink="http://www.w3.org/1999/xlink" width="205.64286" height="99.25" viewBox="0,0,205.64286,99.25"><g transform="translate(-137.30606,-131)"><g data-paper-data="{&quot;isPaintingLayer&quot;:true}" fill-rule="nonzero" stroke-linejoin="miter" stroke-miterlimit="10" stroke-dasharray="" stroke-dashoffset="0" style="mix-blend-mode: normal"><path d="M140.55606,207.25c0,-18.73959 -0.38249,-45.48871 0,-55.5c0.5,-13.0871 3.89541,-16.75 15.32143,-16.75c22.08229,0 127.56734,0 168,0c15.33535,0 15.82143,4.98326 15.82143,16.75c0,17.95892 0,45.32915 0,56c0,14.97422 -0.38765,19.25 -14.32143,19.25c-38.12556,0 -140.83396,0 -165,0c-18.91714,0 -19.82143,-3.40978 -19.82143,-19.75z" fill="#ffffff" stroke-opacity="0.25901" stroke="#000000" stroke-width="6.5" stroke-linecap="butt"/><path d="M140.47107,205.25c0,-18.73959 -0.38249,-45.48871 0,-55.5c0.5,-13.0871 3.89541,-16.75 15.32143,-16.75c22.08229,0 127.56734,0 168,0c15.33535,0 15.82143,4.98326 15.82143,16.75c0,17.95892 0,45.32915 0,56c0,14.97422 -0.38765,19.25 -14.32143,19.25c-38.12556,0 -140.83396,0 -165,0c-18.91714,0 -19.82143,-3.40978 -19.82143,-19.75z" fill="#ffffff" stroke="#000000" stroke-width="4" stroke-linecap="butt"/><path d="M149.42119,176.60863v-11.58653h4.85036c0.84849,0 1.62455,0.14228 2.32817,0.42683c0.7088,0.27938 1.3193,0.67776 1.83149,1.19513c0.5122,0.51737 0.9054,1.13046 1.17961,1.83926c0.27938,0.70362 0.41907,1.47968 0.41907,2.32817c0,0.85366 -0.13969,1.63748 -0.41907,2.35145c-0.27421,0.7088 -0.66741,1.3193 -1.17961,1.83149c-0.5122,0.5122 -1.1227,0.91057 -1.83149,1.19513c-0.70362,0.27938 -1.47968,0.41907 -2.32817,0.41907zM152.23052,174.69177l-0.38027,-0.56652h2.33593c0.46563,0 0.87953,-0.08019 1.24169,-0.24058c0.36216,-0.16038 0.67258,-0.38286 0.93127,-0.66741c0.26386,-0.28973 0.46563,-0.63895 0.60532,-1.04768c0.14486,-0.40872 0.2173,-0.86142 0.2173,-1.3581c0,-0.49668 -0.07243,-0.94679 -0.2173,-1.35034c-0.13969,-0.40872 -0.34147,-0.75536 -0.60532,-1.03992c-0.25869,-0.28973 -0.56911,-0.51479 -0.93127,-0.67517c-0.36216,-0.16038 -0.77606,-0.24058 -1.24169,-0.24058h-2.3825l0.42683,-0.52772zM166.05731,176.7716c-0.91575,0 -1.73061,-0.1966 -2.44458,-0.5898c-0.71397,-0.39838 -1.27791,-0.93903 -1.6918,-1.62196c-0.40872,-0.6881 -0.61309,-1.47192 -0.61309,-2.35145c0,-0.88471 0.20436,-1.66852 0.61309,-2.35145c0.4139,-0.6881 0.97783,-1.22876 1.6918,-1.62196c0.71397,-0.39838 1.52883,-0.59756 2.44458,-0.59756c0.91575,0 1.72802,0.19919 2.43682,0.59756c0.71397,0.3932 1.27532,0.93386 1.68404,1.62196c0.40872,0.68293 0.61309,1.46675 0.61309,2.35145c0,0.87953 -0.20436,1.66335 -0.61309,2.35145c-0.40872,0.68293 -0.97007,1.22358 -1.68404,1.62196c-0.7088,0.3932 -1.52107,0.5898 -2.43682,0.5898zM166.05731,174.48999c0.3932,0 0.74501,-0.0983 1.05544,-0.2949c0.31042,-0.20177 0.55359,-0.47339 0.72949,-0.81486c0.17591,-0.34147 0.25869,-0.73208 0.24834,-1.17185c0.01035,-0.44494 -0.07243,-0.84073 -0.24834,-1.18737c-0.17591,-0.34664 -0.41907,-0.61826 -0.72949,-0.81486c-0.31042,-0.20177 -0.66224,-0.30266 -1.05544,-0.30266c-0.39838,0 -0.75536,0.10089 -1.07096,0.30266c-0.3156,0.1966 -0.56135,0.46822 -0.73725,0.81486c-0.17591,0.34664 -0.25869,0.74243 -0.24834,1.18737c-0.01035,0.43976 0.07243,0.83038 0.24834,1.17185c0.17591,0.34147 0.42166,0.61309 0.73725,0.81486c0.3156,0.1966 0.67258,0.2949 1.07096,0.2949zM176.71451,176.7716c-0.97266,0 -1.81856,-0.19401 -2.53771,-0.58204c-0.71397,-0.3932 -1.27015,-0.92868 -1.66852,-1.60644c-0.3932,-0.67776 -0.5898,-1.45381 -0.5898,-2.32817c0,-0.67258 0.10865,-1.29084 0.32594,-1.85478c0.22247,-0.56393 0.53031,-1.05285 0.92351,-1.46675c0.39838,-0.4139 0.87177,-0.73208 1.42018,-0.95455c0.54841,-0.22764 1.14598,-0.34147 1.79269,-0.34147c0.62085,0 1.18737,0.11124 1.69957,0.3337c0.5122,0.2173 0.95455,0.52513 1.32706,0.92351c0.37768,0.39838 0.66482,0.86918 0.86142,1.41242c0.20177,0.53807 0.29231,1.12787 0.27162,1.76941l-0.01552,0.70621h-7.0078l-0.38027,-1.49003h5.23062l-0.27938,0.31818v-0.3337c-0.02069,-0.27421 -0.10606,-0.51737 -0.2561,-0.72949c-0.15004,-0.2173 -0.34664,-0.38544 -0.5898,-0.50444c-0.24317,-0.12417 -0.51737,-0.18625 -0.82262,-0.18625c-0.42942,0 -0.79675,0.08537 -1.102,0.2561c-0.30525,0.17073 -0.53548,0.41907 -0.69069,0.74501c-0.15521,0.32594 -0.23282,0.72432 -0.23282,1.19513c0,0.48633 0.10089,0.91057 0.30266,1.27273c0.20695,0.35699 0.50702,0.63637 0.90023,0.83814c0.3932,0.1966 0.85884,0.2949 1.3969,0.2949c0.37768,0 0.71138,-0.05432 1.00111,-0.16297c0.2949,-0.11382 0.61309,-0.30266 0.95455,-0.56652l1.24169,1.75389c-0.34147,0.30007 -0.70621,0.54324 -1.09424,0.72949c-0.38286,0.18625 -0.77606,0.32594 -1.17961,0.41907c-0.40355,0.09313 -0.80451,0.13969 -1.20289,0.13969zM185.18856,176.7716c-0.85884,0 -1.61679,-0.1371 -2.27385,-0.41131c-0.65706,-0.27421 -1.17961,-0.64413 -1.56764,-1.10976l1.60644,-1.38914c0.34147,0.34147 0.72691,0.59239 1.15633,0.75278c0.43459,0.16038 0.84331,0.24058 1.22617,0.24058c0.15521,0 0.29231,-0.01552 0.41131,-0.04656c0.12417,-0.03622 0.22764,-0.08278 0.31042,-0.13969c0.08278,-0.06208 0.14486,-0.13452 0.18625,-0.2173c0.04656,-0.08278 0.06985,-0.18108 0.06985,-0.2949c0,-0.2173 -0.0983,-0.38803 -0.2949,-0.5122c-0.0983,-0.05174 -0.26386,-0.11641 -0.49668,-0.19401c-0.23282,-0.07761 -0.53031,-0.16814 -0.89247,-0.27162c-0.52255,-0.12934 -0.97524,-0.28455 -1.3581,-0.46563c-0.37768,-0.18625 -0.6881,-0.39838 -0.93127,-0.63637c-0.2173,-0.23282 -0.38803,-0.48892 -0.5122,-0.7683c-0.119,-0.28455 -0.17849,-0.60274 -0.17849,-0.95455c0,-0.40872 0.09571,-0.77864 0.28714,-1.10976c0.19143,-0.33112 0.45011,-0.61826 0.77606,-0.86142c0.32594,-0.24317 0.70104,-0.42683 1.12528,-0.551c0.42942,-0.12934 0.86918,-0.19401 1.3193,-0.19401c0.48633,0 0.94938,0.05691 1.38914,0.17073c0.43976,0.10865 0.85108,0.26127 1.23393,0.45787c0.38286,0.1966 0.72173,0.43459 1.01663,0.71397l-1.38914,1.55211c-0.1966,-0.18625 -0.41907,-0.3544 -0.66741,-0.50444c-0.24834,-0.15004 -0.50702,-0.26903 -0.77606,-0.35699c-0.26386,-0.08795 -0.50444,-0.13193 -0.72173,-0.13193c-0.16556,0 -0.31301,0.01552 -0.44235,0.04656c-0.12417,0.02587 -0.23282,0.06985 -0.32594,0.13193c-0.08795,0.05691 -0.15521,0.12676 -0.20177,0.20954c-0.04139,0.08278 -0.06208,0.18108 -0.06208,0.2949c0,0.10865 0.03104,0.21212 0.09313,0.31042c0.06208,0.0983 0.14745,0.18108 0.2561,0.24834c0.11382,0.06726 0.28973,0.14228 0.52772,0.22506c0.24317,0.08278 0.57428,0.18367 0.99335,0.30266c0.52255,0.14486 0.97007,0.30525 1.34258,0.48116c0.37768,0.17591 0.67517,0.38544 0.89247,0.62861c0.18108,0.19143 0.3156,0.41131 0.40355,0.65965c0.08795,0.24834 0.13193,0.51479 0.13193,0.79934c0,0.56393 -0.1578,1.0632 -0.47339,1.49779c-0.3156,0.43459 -0.75019,0.77606 -1.30378,1.0244c-0.54841,0.24834 -1.17702,0.37251 -1.88582,0.37251zM196.00208,176.60863v-11.58653h4.99781c0.72949,0 1.37621,0.16556 1.94014,0.49668c0.56911,0.33112 1.02181,0.78382 1.3581,1.3581c0.33629,0.57428 0.50444,1.21841 0.50444,1.93238c0,0.75019 -0.16814,1.42277 -0.50444,2.01775c-0.33629,0.5898 -0.78899,1.05544 -1.3581,1.3969c-0.56393,0.34147 -1.21065,0.5122 -1.94014,0.5122h-2.18848v3.87252zM198.76484,170.26824h1.83926c0.24317,0 0.46305,-0.0595 0.65965,-0.17849c0.1966,-0.12417 0.3544,-0.28973 0.47339,-0.49668c0.12417,-0.21212 0.18625,-0.45529 0.18625,-0.72949c0,-0.28973 -0.06208,-0.53289 -0.18625,-0.72949c-0.119,-0.1966 -0.27679,-0.34923 -0.47339,-0.45787c-0.1966,-0.11382 -0.41648,-0.17073 -0.65965,-0.17073h-1.83926zM206.82841,176.60863v-8.79273h2.64635v8.79273zM208.1477,166.07754c-0.49668,0 -0.88471,-0.11641 -1.16409,-0.34923c-0.27938,-0.23799 -0.41907,-0.57946 -0.41907,-1.0244c0,-0.3932 0.14228,-0.71656 0.42683,-0.97007c0.28455,-0.25869 0.67,-0.38803 1.15633,-0.38803c0.49668,0 0.88212,0.119 1.15633,0.35699c0.27938,0.23799 0.41907,0.57169 0.41907,1.00111c0,0.40872 -0.14228,0.73984 -0.42683,0.99335c-0.27938,0.25351 -0.66224,0.38027 -1.14856,0.38027zM217.25073,176.60863v-12.24618h2.59979v5.24615l-0.52772,0.19401c0.12417,-0.3932 0.34147,-0.75278 0.65189,-1.07872c0.3156,-0.32594 0.69328,-0.58722 1.13304,-0.78382c0.44494,-0.20177 0.91057,-0.30266 1.3969,-0.30266c0.66224,0 1.21841,0.13452 1.66852,0.40355c0.45011,0.26903 0.79158,0.67258 1.0244,1.21065c0.23282,0.53289 0.34923,1.18737 0.34923,1.96342v5.3936h-2.66188v-5.18406c0,-0.35181 -0.05174,-0.64154 -0.15521,-0.86918c-0.0983,-0.23282 -0.25093,-0.40614 -0.45787,-0.51996c-0.20177,-0.119 -0.45011,-0.17332 -0.74501,-0.16297c-0.23282,0 -0.45011,0.03622 -0.65189,0.10865c-0.1966,0.07243 -0.36733,0.17849 -0.5122,0.31818c-0.13969,0.13452 -0.25093,0.28973 -0.3337,0.46563c-0.08278,0.17591 -0.12417,0.36992 -0.12417,0.58204v5.26167h-1.31154c-0.31042,0 -0.57687,0 -0.79934,0c-0.2173,0 -0.39838,0 -0.54324,0zM231.01373,176.75608c-0.73984,0 -1.39949,-0.19401 -1.97895,-0.58204c-0.57946,-0.3932 -1.0425,-0.93386 -1.38914,-1.62196c-0.34147,-0.69328 -0.5122,-1.47451 -0.5122,-2.34369c0,-0.89505 0.17073,-1.68404 0.5122,-2.36697c0.34664,-0.6881 0.81745,-1.22617 1.41242,-1.6142c0.59498,-0.3932 1.27273,-0.5898 2.03327,-0.5898c0.41907,0 0.80193,0.06208 1.14856,0.18625c0.35181,0.119 0.65965,0.28714 0.92351,0.50444c0.26386,0.21212 0.48892,0.46046 0.67517,0.74501c0.19143,0.27938 0.33112,0.57946 0.41907,0.90023l-0.551,-0.06985v-2.08759h2.63083v8.79273h-2.6774v-2.11864l0.59756,-0.01552c-0.08795,0.31042 -0.23282,0.60274 -0.43459,0.87694c-0.1966,0.27421 -0.43976,0.51737 -0.72949,0.72949c-0.28455,0.20695 -0.60532,0.37251 -0.96231,0.49668c-0.35181,0.119 -0.72432,0.17849 -1.11752,0.17849zM231.73546,174.52104c0.40872,0 0.76054,-0.09313 1.05544,-0.27938c0.30007,-0.18625 0.53289,-0.4527 0.69845,-0.79934c0.16556,-0.35181 0.24834,-0.76312 0.24834,-1.23393c0,-0.47598 -0.08278,-0.88729 -0.24834,-1.23393c-0.16556,-0.34664 -0.39838,-0.61567 -0.69845,-0.8071c-0.2949,-0.1966 -0.64672,-0.2949 -1.05544,-0.2949c-0.3932,0 -0.73725,0.0983 -1.03216,0.2949c-0.28973,0.19143 -0.51737,0.46046 -0.68293,0.8071c-0.16556,0.34664 -0.24834,0.75795 -0.24834,1.23393c0,0.47081 0.08278,0.88212 0.24834,1.23393c0.16556,0.34664 0.3932,0.61309 0.68293,0.79934c0.2949,0.18625 0.63895,0.27938 1.03216,0.27938zM241.17266,176.60863l-3.67075,-8.79273h2.92574l2.18848,6.5732l-0.64413,0.06985l2.25057,-6.64305h2.89469l-3.857,8.79273zM252.42908,176.7716c-0.97266,0 -1.81856,-0.19401 -2.53771,-0.58204c-0.71397,-0.3932 -1.27015,-0.92868 -1.66852,-1.60644c-0.3932,-0.67776 -0.5898,-1.45381 -0.5898,-2.32817c0,-0.67258 0.10865,-1.29084 0.32594,-1.85478c0.22247,-0.56393 0.53031,-1.05285 0.92351,-1.46675c0.39838,-0.4139 0.87177,-0.73208 1.42018,-0.95455c0.54841,-0.22764 1.14598,-0.34147 1.79269,-0.34147c0.62085,0 1.18737,0.11124 1.69957,0.3337c0.5122,0.2173 0.95455,0.52513 1.32706,0.92351c0.37768,0.39838 0.66483,0.86918 0.86144,1.41242c0.20177,0.53807 0.29231,1.12787 0.27162,1.76941l-0.01552,0.70621h-7.00781l-0.38027,-1.49003h5.23062l-0.27938,0.31818v-0.3337c-0.02069,-0.27421 -0.10606,-0.51737 -0.2561,-0.72949c-0.15004,-0.2173 -0.34664,-0.38544 -0.5898,-0.50444c-0.24317,-0.12417 -0.51737,-0.18625 -0.82262,-0.18625c-0.42942,0 -0.79675,0.08537 -1.102,0.2561c-0.30525,0.17073 -0.53548,0.41907 -0.69069,0.74501c-0.15521,0.32594 -0.23282,0.72432 -0.23282,1.19513c0,0.48633 0.10089,0.91057 0.30266,1.27273c0.20695,0.35699 0.50702,0.63637 0.90023,0.83814c0.3932,0.1966 0.85884,0.2949 1.3969,0.2949c0.37768,0 0.71138,-0.05432 1.00111,-0.16297c0.2949,-0.11382 0.61309,-0.30266 0.95455,-0.56652l1.24171,1.75389c-0.34148,0.30007 -0.70623,0.54324 -1.09426,0.72949c-0.38286,0.18625 -0.77606,0.32594 -1.17961,0.41907c-0.40355,0.09313 -0.80451,0.13969 -1.20289,0.13969zM266.48731,176.75608c-0.73984,0 -1.39949,-0.19401 -1.97895,-0.58204c-0.57946,-0.3932 -1.0425,-0.93386 -1.38914,-1.62196c-0.34147,-0.69328 -0.5122,-1.47451 -0.5122,-2.34369c0,-0.89505 0.17073,-1.68404 0.5122,-2.36697c0.34664,-0.6881 0.81745,-1.22617 1.41242,-1.6142c0.59498,-0.3932 1.27273,-0.5898 2.03327,-0.5898c0.41907,0 0.80193,0.06208 1.14856,0.18625c0.35181,0.119 0.65965,0.28714 0.92351,0.50444c0.26386,0.21212 0.48892,0.46046 0.67517,0.74501c0.19143,0.27938 0.33112,0.57946 0.41907,0.90023l-0.551,-0.06985v-2.08759h2.63083v8.79273h-2.6774v-2.11864l0.59756,-0.01552c-0.08795,0.31042 -0.23282,0.60274 -0.43459,0.87694c-0.1966,0.27421 -0.43976,0.51737 -0.72949,0.72949c-0.28455,0.20695 -0.60532,0.37251 -0.96231,0.49668c-0.35181,0.119 -0.72432,0.17849 -1.11752,0.17849zM267.20905,174.52104c0.40872,0 0.76054,-0.09313 1.05544,-0.27938c0.30007,-0.18625 0.53289,-0.4527 0.69845,-0.79934c0.16556,-0.35181 0.24834,-0.76312 0.24834,-1.23393c0,-0.47598 -0.08278,-0.88729 -0.24834,-1.23393c-0.16556,-0.34664 -0.39838,-0.61567 -0.69845,-0.8071c-0.2949,-0.1966 -0.64672,-0.2949 -1.05544,-0.2949c-0.3932,0 -0.73725,0.0983 -1.03216,0.2949c-0.28973,0.19143 -0.51737,0.46046 -0.68293,0.8071c-0.16556,0.34664 -0.24834,0.75795 -0.24834,1.23393c0,0.47081 0.08278,0.88212 0.24834,1.23393c0.16556,0.34664 0.3932,0.61309 0.68293,0.79934c0.2949,0.18625 0.63895,0.27938 1.03216,0.27938zM274.14424,176.60863v-8.79273h2.52219l0.07761,1.79269l-0.52772,0.19401c0.12417,-0.3932 0.34147,-0.75278 0.65189,-1.07872c0.3156,-0.32594 0.69328,-0.58722 1.13304,-0.78382c0.44494,-0.20177 0.91057,-0.30266 1.3969,-0.30266c0.66224,0 1.21841,0.13452 1.66852,0.40355c0.45011,0.26903 0.79158,0.67258 1.0244,1.21065c0.23282,0.53289 0.34923,1.18737 0.34923,1.96342v5.3936h-2.66188v-5.18406c0,-0.35181 -0.05174,-0.64154 -0.15521,-0.86918c-0.0983,-0.23282 -0.25093,-0.40614 -0.45787,-0.51996c-0.20177,-0.119 -0.45011,-0.17332 -0.74501,-0.16297c-0.23282,0 -0.45011,0.03622 -0.65189,0.10865c-0.1966,0.07243 -0.36733,0.17849 -0.5122,0.31818c-0.13969,0.13452 -0.25093,0.28973 -0.3337,0.46563c-0.08278,0.17591 -0.12417,0.36992 -0.12417,0.58204v5.26167h-1.31154c-0.31042,0 -0.57687,0 -0.79934,0c-0.2173,0 -0.39838,0 -0.54324,0zM285.68254,180.41907l2.00223,-4.71843l0.0388,1.3581l-4.23727,-9.24284h2.99558l1.85478,4.42353c0.0983,0.22247 0.19143,0.46046 0.27938,0.71397c0.08795,0.25351 0.15262,0.49409 0.19401,0.72173l-0.35699,0.2173c0.06208,-0.16556 0.13452,-0.37251 0.2173,-0.62085c0.08278,-0.24834 0.17591,-0.51479 0.27938,-0.79934l1.62196,-4.65634h3.0111l-3.7406,8.79273l-1.52883,3.81044zM300.13284,176.60863v-8.79273h2.52219l0.11641,2.86365l-0.49668,-0.54324c0.12934,-0.47598 0.34664,-0.90023 0.65189,-1.27273c0.30525,-0.37768 0.65965,-0.67517 1.0632,-0.89247c0.40872,-0.22247 0.8459,-0.3337 1.31154,-0.3337c0.1966,0 0.38027,0.01811 0.551,0.05432c0.17073,0.03104 0.32853,0.06726 0.47339,0.10865l-0.72949,2.9335c-0.119,-0.07761 -0.28197,-0.13969 -0.48892,-0.18625c-0.20177,-0.05174 -0.4139,-0.07761 -0.63637,-0.07761c-0.24317,0 -0.47081,0.04139 -0.68293,0.12417c-0.20695,0.08278 -0.38286,0.20177 -0.52772,0.35699c-0.13969,0.15004 -0.25093,0.33112 -0.3337,0.54324c-0.08278,0.20695 -0.12417,0.44494 -0.12417,0.71397v4.40024zM311.49105,176.7716c-0.97266,0 -1.81856,-0.19401 -2.53771,-0.58204c-0.71397,-0.3932 -1.27015,-0.92868 -1.66852,-1.60644c-0.3932,-0.67776 -0.5898,-1.45381 -0.5898,-2.32817c0,-0.67258 0.10865,-1.29084 0.32594,-1.85478c0.22247,-0.56393 0.53031,-1.05285 0.92351,-1.46675c0.39838,-0.4139 0.87177,-0.73208 1.42018,-0.95455c0.54841,-0.22764 1.14598,-0.34147 1.79269,-0.34147c0.62085,0 1.18737,0.11124 1.69957,0.3337c0.5122,0.2173 0.95455,0.52513 1.32706,0.92351c0.37768,0.39838 0.66482,0.86918 0.86142,1.41242c0.20177,0.53807 0.29231,1.12787 0.27162,1.76941l-0.01552,0.70621h-7.0078l-0.38027,-1.49003h5.23062l-0.27938,0.31818v-0.3337c-0.02069,-0.27421 -0.10606,-0.51737 -0.2561,-0.72949c-0.15004,-0.2173 -0.34664,-0.38544 -0.5898,-0.50444c-0.24317,-0.12417 -0.51737,-0.18625 -0.82262,-0.18625c-0.42942,0 -0.79675,0.08537 -1.102,0.2561c-0.30525,0.17073 -0.53548,0.41907 -0.69069,0.74501c-0.15521,0.32594 -0.23282,0.72432 -0.23282,1.19513c0,0.48633 0.10089,0.91057 0.30266,1.27273c0.20695,0.35699 0.50702,0.63637 0.90023,0.83814c0.3932,0.1966 0.85884,0.2949 1.3969,0.2949c0.37768,0 0.71138,-0.05432 1.00111,-0.16297c0.2949,-0.11382 0.61309,-0.30266 0.95455,-0.56652l1.24169,1.75389c-0.34147,0.30007 -0.70621,0.54324 -1.09424,0.72949c-0.38286,0.18625 -0.77606,0.32594 -1.17961,0.41907c-0.40355,0.09313 -0.80451,0.13969 -1.20289,0.13969zM320.25224,176.75608c-0.73984,0 -1.39949,-0.19401 -1.97895,-0.58204c-0.57946,-0.3932 -1.0425,-0.93386 -1.38914,-1.62196c-0.34147,-0.69328 -0.5122,-1.47451 -0.5122,-2.34369c0,-0.89505 0.17073,-1.68404 0.5122,-2.36697c0.34664,-0.6881 0.81745,-1.22617 1.41242,-1.6142c0.59498,-0.3932 1.27273,-0.5898 2.03327,-0.5898c0.41907,0 0.80193,0.06208 1.14856,0.18625c0.35181,0.119 0.65965,0.28714 0.92351,0.50444c0.26386,0.21212 0.48892,0.46046 0.67517,0.74501c0.19143,0.27938 0.33112,0.57946 0.41907,0.90023l-0.551,-0.06985v-2.08759h2.63083v8.79273h-2.6774v-2.11864l0.59756,-0.01552c-0.08795,0.31042 -0.23282,0.60274 -0.43459,0.87694c-0.1966,0.27421 -0.43976,0.51737 -0.72949,0.72949c-0.28455,0.20695 -0.60532,0.37251 -0.96231,0.49668c-0.35181,0.119 -0.72432,0.17849 -1.11752,0.17849zM320.97398,174.52104c0.40872,0 0.76054,-0.09313 1.05544,-0.27938c0.30007,-0.18625 0.53289,-0.4527 0.69845,-0.79934c0.16556,-0.35181 0.24834,-0.76312 0.24834,-1.23393c0,-0.47598 -0.08278,-0.88729 -0.24834,-1.23393c-0.16556,-0.34664 -0.39838,-0.61567 -0.69845,-0.8071c-0.2949,-0.1966 -0.64672,-0.2949 -1.05544,-0.2949c-0.3932,0 -0.73725,0.0983 -1.03216,0.2949c-0.28973,0.19143 -0.51737,0.46046 -0.68293,0.8071c-0.16556,0.34664 -0.24834,0.75795 -0.24834,1.23393c0,0.47081 0.08278,0.88212 0.24834,1.23393c0.16556,0.34664 0.3932,0.61309 0.68293,0.79934c0.2949,0.18625 0.63895,0.27938 1.03216,0.27938zM327.93245,176.60863v-12.24618h2.64635v12.24618z" fill="#000000" stroke="none" stroke-width="1" stroke-linecap="square"/><path d="M193.82398,196.47569l-2.89468,-8.79273h2.79379l1.62196,5.71178l-0.34923,-0.06208l1.82373,-4.43905h1.55211l1.92462,4.45457l-0.38027,0.03104l1.62196,-5.69626h2.79381l-2.99558,8.79273h-1.9479l-1.9091,-4.71843l0.20177,0.03104l-1.90134,4.68738zM209.60059,196.63866c-0.91575,0 -1.73061,-0.1966 -2.44458,-0.5898c-0.71397,-0.39838 -1.27791,-0.93903 -1.6918,-1.62196c-0.40872,-0.6881 -0.61309,-1.47192 -0.61309,-2.35145c0,-0.88471 0.20436,-1.66852 0.61309,-2.35145c0.4139,-0.6881 0.97783,-1.22876 1.6918,-1.62196c0.71397,-0.39838 1.52883,-0.59756 2.44458,-0.59756c0.91575,0 1.72802,0.19919 2.43682,0.59756c0.71397,0.3932 1.27532,0.93386 1.68404,1.62196c0.40872,0.68293 0.61309,1.46675 0.61309,2.35145c0,0.87953 -0.20436,1.66335 -0.61309,2.35145c-0.40872,0.68293 -0.97007,1.22358 -1.68404,1.62196c-0.7088,0.3932 -1.52107,0.5898 -2.43682,0.5898zM209.60059,194.35706c0.3932,0 0.74501,-0.0983 1.05544,-0.2949c0.31042,-0.20177 0.55359,-0.47339 0.72949,-0.81486c0.17591,-0.34147 0.25869,-0.73208 0.24834,-1.17185c0.01035,-0.44494 -0.07243,-0.84073 -0.24834,-1.18737c-0.17591,-0.34664 -0.41907,-0.61826 -0.72949,-0.81486c-0.31042,-0.20177 -0.66224,-0.30266 -1.05544,-0.30266c-0.39838,0 -0.75536,0.10089 -1.07096,0.30266c-0.3156,0.1966 -0.56135,0.46822 -0.73725,0.81486c-0.17591,0.34664 -0.25869,0.74243 -0.24834,1.18737c-0.01035,0.43976 0.07243,0.83038 0.24834,1.17185c0.17591,0.34147 0.42166,0.61309 0.73725,0.81486c0.3156,0.1966 0.67258,0.2949 1.07096,0.2949zM216.06708,196.47569v-8.79273h2.52219l0.11641,2.86365l-0.49668,-0.54324c0.12934,-0.47598 0.34664,-0.90023 0.65189,-1.27273c0.30525,-0.37768 0.65965,-0.67517 1.0632,-0.89247c0.40872,-0.22247 0.8459,-0.3337 1.31154,-0.3337c0.1966,0 0.38027,0.01811 0.551,0.05432c0.17073,0.03104 0.32853,0.06726 0.47339,0.10865l-0.72949,2.9335c-0.119,-0.07761 -0.28197,-0.13969 -0.48892,-0.18625c-0.20177,-0.05174 -0.4139,-0.07761 -0.63637,-0.07761c-0.24317,0 -0.47081,0.04139 -0.68293,0.12417c-0.20695,0.08278 -0.38286,0.20177 -0.52772,0.35699c-0.13969,0.15004 -0.25093,0.33112 -0.3337,0.54324c-0.08278,0.20695 -0.12417,0.44494 -0.12417,0.71397v4.40024zM223.6221,196.47569v-12.24618h2.64635v12.24618zM231.79474,196.65419c-0.76054,0 -1.43571,-0.19401 -2.02551,-0.58204c-0.5898,-0.3932 -1.05544,-0.93386 -1.3969,-1.62196c-0.34147,-0.69328 -0.5122,-1.47968 -0.5122,-2.35921c0,-0.88471 0.17073,-1.67111 0.5122,-2.35921c0.34147,-0.69328 0.80969,-1.23652 1.40466,-1.62972c0.59498,-0.39838 1.27791,-0.59756 2.04879,-0.59756c0.39838,0 0.77864,0.06208 1.1408,0.18625c0.36733,0.119 0.69845,0.28455 0.99335,0.49668c0.30007,0.20695 0.54324,0.44494 0.72949,0.71397c0.19143,0.26903 0.30266,0.54841 0.3337,0.83814l-0.62861,0.14745v-5.65746h2.66188v12.24618h-2.4601l-0.15521,-2.00223l0.53548,0.08537c-0.03622,0.27421 -0.14486,0.53807 -0.32594,0.79158c-0.18108,0.25351 -0.41648,0.47857 -0.70621,0.67517c-0.28455,0.19143 -0.61309,0.34405 -0.98559,0.45787c-0.36733,0.11382 -0.75536,0.17073 -1.16409,0.17073zM232.47767,194.45794c0.40872,0 0.76054,-0.0983 1.05544,-0.2949c0.30007,-0.20177 0.53031,-0.47857 0.69069,-0.83038c0.16038,-0.35699 0.24058,-0.77088 0.24058,-1.24169c0,-0.48633 -0.08019,-0.9054 -0.24058,-1.25721c-0.16038,-0.35699 -0.39062,-0.63378 -0.69069,-0.83038c-0.2949,-0.1966 -0.64672,-0.2949 -1.05544,-0.2949c-0.40872,0 -0.76054,0.0983 -1.05544,0.2949c-0.28973,0.1966 -0.51737,0.47339 -0.68293,0.83038c-0.16556,0.35181 -0.24834,0.77088 -0.24834,1.25721c0,0.47081 0.08278,0.88471 0.24834,1.24169c0.16556,0.35181 0.3932,0.62861 0.68293,0.83038c0.2949,0.1966 0.64672,0.2949 1.05544,0.2949zM247.59167,196.65419c-0.65189,0 -1.20806,-0.13969 -1.66852,-0.41907c-0.45529,-0.27938 -0.8071,-0.68293 -1.05544,-1.21065c-0.24834,-0.53289 -0.37251,-1.16926 -0.37251,-1.9091v-5.4324h2.66188v5.06765c0,0.35181 0.05432,0.65448 0.16297,0.90799c0.11382,0.25351 0.27938,0.45011 0.49668,0.5898c0.22247,0.13969 0.48892,0.20954 0.79934,0.20954c0.23282,0 0.44494,-0.0388 0.63637,-0.11641c0.19143,-0.07761 0.35699,-0.18367 0.49668,-0.31818c0.13969,-0.13969 0.24575,-0.30007 0.31818,-0.48116c0.07761,-0.18625 0.11641,-0.38803 0.11641,-0.60532v-5.25391h2.66964v8.79273h-2.4989l-0.11641,-1.80045l0.49668,-0.20177c-0.13452,0.41907 -0.35699,0.79158 -0.66741,1.11752c-0.30525,0.32594 -0.67517,0.58463 -1.10976,0.77606c-0.42942,0.19143 -0.88471,0.28714 -1.36586,0.28714zM258.18008,196.63866c-0.85884,0 -1.61679,-0.1371 -2.27385,-0.41131c-0.65707,-0.27421 -1.17962,-0.64413 -1.56765,-1.10976l1.60645,-1.38914c0.34147,0.34147 0.72691,0.59239 1.15633,0.75278c0.43459,0.16038 0.84331,0.24058 1.22617,0.24058c0.15521,0 0.29231,-0.01552 0.41131,-0.04656c0.12417,-0.03622 0.22764,-0.08278 0.31042,-0.13969c0.08278,-0.06208 0.14486,-0.13452 0.18625,-0.2173c0.04656,-0.08278 0.06985,-0.18108 0.06985,-0.2949c0,-0.2173 -0.0983,-0.38803 -0.2949,-0.5122c-0.0983,-0.05174 -0.26386,-0.11641 -0.49668,-0.19401c-0.23282,-0.07761 -0.53031,-0.16814 -0.89247,-0.27162c-0.52255,-0.12934 -0.97524,-0.28455 -1.3581,-0.46563c-0.37769,-0.18625 -0.68812,-0.39838 -0.93128,-0.63637c-0.2173,-0.23282 -0.38803,-0.48892 -0.5122,-0.7683c-0.119,-0.28455 -0.17849,-0.60274 -0.17849,-0.95455c0,-0.40872 0.09571,-0.77864 0.28714,-1.10976c0.19143,-0.33112 0.45011,-0.61826 0.77606,-0.86142c0.32595,-0.24317 0.70105,-0.42683 1.1253,-0.551c0.42942,-0.12934 0.86918,-0.19401 1.3193,-0.19401c0.48633,0 0.94938,0.05691 1.38914,0.17073c0.43976,0.10865 0.85108,0.26127 1.23393,0.45787c0.38286,0.1966 0.72173,0.43459 1.01663,0.71397l-1.38914,1.55211c-0.1966,-0.18625 -0.41907,-0.3544 -0.66741,-0.50444c-0.24834,-0.15004 -0.50702,-0.26903 -0.77606,-0.35699c-0.26386,-0.08795 -0.50444,-0.13193 -0.72173,-0.13193c-0.16556,0 -0.31301,0.01552 -0.44235,0.04656c-0.12417,0.02587 -0.23282,0.06985 -0.32594,0.13193c-0.08795,0.05691 -0.15521,0.12676 -0.20177,0.20954c-0.04139,0.08278 -0.06208,0.18108 -0.06208,0.2949c0,0.10865 0.03104,0.21212 0.09313,0.31042c0.06208,0.0983 0.14745,0.18108 0.2561,0.24834c0.11382,0.06726 0.28973,0.14228 0.52772,0.22506c0.24317,0.08278 0.57428,0.18367 0.99335,0.30266c0.52255,0.14486 0.97007,0.30525 1.34258,0.48116c0.37768,0.17591 0.67517,0.38544 0.89247,0.62861c0.18108,0.19143 0.3156,0.41131 0.40355,0.65965c0.08795,0.24834 0.13193,0.51479 0.13193,0.79934c0,0.56393 -0.1578,1.0632 -0.47339,1.49779c-0.3156,0.43459 -0.75019,0.77606 -1.30378,1.0244c-0.54841,0.24834 -1.17702,0.37251 -1.88582,0.37251zM267.60011,196.63866c-0.97266,0 -1.81856,-0.19401 -2.53771,-0.58204c-0.71397,-0.3932 -1.27015,-0.92868 -1.66852,-1.60644c-0.3932,-0.67776 -0.5898,-1.45381 -0.5898,-2.32817c0,-0.67258 0.10865,-1.29084 0.32594,-1.85478c0.22247,-0.56393 0.53031,-1.05285 0.92351,-1.46675c0.39838,-0.4139 0.87177,-0.73208 1.42018,-0.95455c0.54841,-0.22764 1.14598,-0.34147 1.79269,-0.34147c0.62085,0 1.18737,0.11124 1.69957,0.3337c0.5122,0.2173 0.95455,0.52513 1.32706,0.92351c0.37768,0.39838 0.66482,0.86918 0.86142,1.41242c0.20177,0.53807 0.29231,1.12787 0.27162,1.76941l-0.01552,0.70621h-7.0078l-0.38027,-1.49003h5.23062l-0.27938,0.31818v-0.3337c-0.02069,-0.27421 -0.10606,-0.51737 -0.2561,-0.72949c-0.15004,-0.2173 -0.34664,-0.38544 -0.5898,-0.50444c-0.24317,-0.12417 -0.51737,-0.18625 -0.82262,-0.18625c-0.42942,0 -0.79675,0.08537 -1.102,0.2561c-0.30525,0.17073 -0.53548,0.41907 -0.69069,0.74501c-0.15521,0.32594 -0.23282,0.72432 -0.23282,1.19513c0,0.48633 0.10089,0.91057 0.30266,1.27273c0.20695,0.35699 0.50702,0.63637 0.90023,0.83814c0.3932,0.1966 0.85884,0.2949 1.3969,0.2949c0.37768,0 0.71138,-0.05432 1.00111,-0.16297c0.2949,-0.11382 0.61309,-0.30266 0.95455,-0.56652l1.24169,1.75389c-0.34147,0.30007 -0.70621,0.54324 -1.09424,0.72949c-0.38286,0.18625 -0.77606,0.32594 -1.17961,0.41907c-0.40355,0.09313 -0.80451,0.13969 -1.20289,0.13969zM276.07416,196.63866c-0.85884,0 -1.61679,-0.1371 -2.27385,-0.41131c-0.65706,-0.27421 -1.17961,-0.64413 -1.56764,-1.10976l1.60644,-1.38914c0.34147,0.34147 0.72691,0.59239 1.15633,0.75278c0.43459,0.16038 0.84331,0.24058 1.22617,0.24058c0.15521,0 0.29231,-0.01552 0.41131,-0.04656c0.12417,-0.03622 0.22764,-0.08278 0.31042,-0.13969c0.08278,-0.06208 0.14486,-0.13452 0.18625,-0.2173c0.04656,-0.08278 0.06985,-0.18108 0.06985,-0.2949c0,-0.2173 -0.0983,-0.38803 -0.2949,-0.5122c-0.0983,-0.05174 -0.26386,-0.11641 -0.49668,-0.19401c-0.23282,-0.07761 -0.53031,-0.16814 -0.89247,-0.27162c-0.52255,-0.12934 -0.97524,-0.28455 -1.3581,-0.46563c-0.37768,-0.18625 -0.6881,-0.39838 -0.93127,-0.63637c-0.2173,-0.23282 -0.38803,-0.48892 -0.5122,-0.7683c-0.119,-0.28455 -0.17849,-0.60274 -0.17849,-0.95455c0,-0.40872 0.09571,-0.77864 0.28714,-1.10976c0.19143,-0.33112 0.45011,-0.61826 0.77606,-0.86142c0.32594,-0.24317 0.70104,-0.42683 1.12528,-0.551c0.42942,-0.12934 0.86918,-0.19401 1.3193,-0.19401c0.48633,0 0.94938,0.05691 1.38914,0.17073c0.43976,0.10865 0.85108,0.26127 1.23393,0.45787c0.38286,0.1966 0.72173,0.43459 1.01663,0.71397l-1.38914,1.55211c-0.1966,-0.18625 -0.41907,-0.3544 -0.66741,-0.50444c-0.24834,-0.15004 -0.50702,-0.26903 -0.77606,-0.35699c-0.26386,-0.08795 -0.50444,-0.13193 -0.72173,-0.13193c-0.16556,0 -0.31301,0.01552 -0.44235,0.04656c-0.12417,0.02587 -0.23282,0.06985 -0.32594,0.13193c-0.08795,0.05691 -0.15521,0.12676 -0.20177,0.20954c-0.04139,0.08278 -0.06208,0.18108 -0.06208,0.2949c0,0.10865 0.03104,0.21212 0.09313,0.31042c0.06208,0.0983 0.14745,0.18108 0.2561,0.24834c0.11382,0.06726 0.28973,0.14228 0.52772,0.22506c0.24317,0.08278 0.57428,0.18367 0.99335,0.30266c0.52255,0.14486 0.97007,0.30525 1.34258,0.48116c0.37768,0.17591 0.67517,0.38544 0.89247,0.62861c0.18108,0.19143 0.3156,0.41131 0.40355,0.65965c0.08795,0.24834 0.13193,0.51479 0.13193,0.79934c0,0.56393 -0.1578,1.0632 -0.47339,1.49779c-0.3156,0.43459 -0.75019,0.77606 -1.30378,1.0244c-0.54841,0.24834 -1.17702,0.37251 -1.88582,0.37251zM283.36003,192.50228l-0.52772,-2.1652c0.32077,-0.07761 0.62343,-0.16814 0.90799,-0.27162c0.28455,-0.10865 0.54841,-0.22247 0.79158,-0.34147c0.24317,-0.12417 0.45011,-0.26645 0.62085,-0.42683c0.17073,-0.16038 0.30525,-0.33629 0.40355,-0.52772c0.10348,-0.19143 0.15521,-0.39838 0.15521,-0.62085c0,-0.22247 -0.05691,-0.41131 -0.17073,-0.56652c-0.10865,-0.16038 -0.2561,-0.28455 -0.44235,-0.37251c-0.18625,-0.09313 -0.40614,-0.13969 -0.65965,-0.13969c-0.36733,0 -0.73467,0.13193 -1.102,0.39579c-0.36216,0.25869 -0.69586,0.67517 -1.00111,1.24945l-1.80821,-1.67628c0.49668,-0.76054 1.08907,-1.35034 1.77717,-1.76941c0.69328,-0.41907 1.41501,-0.62861 2.1652,-0.62861c0.72949,0 1.38655,0.14745 1.97119,0.44235c0.58463,0.28973 1.04768,0.69069 1.38914,1.20289c0.34147,0.5122 0.5122,1.08907 0.5122,1.73061c0,0.40872 -0.08537,0.81227 -0.2561,1.21065c-0.17073,0.39838 -0.40872,0.77088 -0.71397,1.11752c-0.30007,0.34664 -0.65448,0.65189 -1.0632,0.91575c-0.40872,0.26386 -0.86142,0.46822 -1.3581,0.61309l-0.17073,0.62861zM282.76247,195.18744c0,-0.44494 0.13193,-0.80451 0.39579,-1.07872c0.26903,-0.27421 0.61309,-0.41131 1.03216,-0.41131c0.45011,0 0.80193,0.12934 1.05544,0.38803c0.25351,0.25869 0.38027,0.62602 0.38027,1.102c0,0.42942 -0.13193,0.78123 -0.39579,1.05544c-0.26386,0.27421 -0.6105,0.41131 -1.03992,0.41131c-0.45529,0 -0.8071,-0.12676 -1.05544,-0.38027c-0.24834,-0.25351 -0.37251,-0.61567 -0.37251,-1.08648z" fill="#000000" stroke="none" stroke-width="1" stroke-linecap="square"/></g></g></svg>