<svg version="1.1" xmlns="http://www.w3.org/2000/svg" xmlns:xlink="http://www.w3.org/1999/xlink" width="505.5015" height="386.88288" viewBox="0,0,505.5015,386.88288"><g transform="translate(10.49848,14.94292)"><g data-paper-data="{&quot;isPaintingLayer&quot;:true}" stroke-linecap="butt" stroke-linejoin="miter" stroke-miterlimit="10" stroke-dasharray="" stroke-dashoffset="0" style="mix-blend-mode: normal"><path d="M-8.49848,369.93997v-382.88288h501.5015v382.88288z" fill="#5776ff" fill-rule="nonzero" stroke="#000000" stroke-width="4"/><path d="M126.54279,121.61469c1.19157,0 2.48501,-0.1816 3.88035,-0.54927c1.39089,-0.37652 2.59575,-1.0011 3.61458,-1.87817c1.02767,-0.87264 1.54151,-2.05534 1.54151,-3.5437c0,-1.39089 -0.54041,-2.51603 -1.61239,-3.36653c-1.0631,-0.85048 -2.47174,-1.54593 -4.21701,-2.09077c-1.73641,-0.54041 -3.64115,-1.04983 -5.70537,-1.52381c-2.06863,-0.46955 -4.14613,-1.04539 -6.23692,-1.7187c-2.09079,-0.67331 -4.01323,-1.55924 -5.75851,-2.65779c-1.73641,-1.09855 -3.14505,-2.51603 -4.21701,-4.25244c-1.07641,-1.74527 -1.61238,-3.96894 -1.61238,-6.66216c0,-2.6312 0.54927,-4.90803 1.64782,-6.82164c1.09855,-1.92246 2.55591,-3.51713 4.37647,-4.78401c1.81615,-1.27574 3.85377,-2.21924 6.11289,-2.83496c2.26796,-0.62458 4.5448,-0.93908 6.83935,-0.93908c3.48168,0 6.74188,0.54927 9.78062,1.64782c3.0476,1.08969 5.52818,2.81724 7.44178,5.19152c1.9136,2.36541 2.92355,5.4883 3.02987,9.37309h-10.84374c-0.29678,-2.64448 -1.21815,-4.47392 -2.76408,-5.49273c-1.53708,-1.01438 -3.69875,-1.52379 -6.48499,-1.52379c-1.05426,0 -2.16165,0.17719 -3.33108,0.53155c-1.16943,0.34552 -2.17051,0.89922 -2.99443,1.66555c-0.81505,0.77076 -1.22258,1.80286 -1.22258,3.10074c0,1.28903 0.53155,2.31227 1.59467,3.0653c1.07198,0.74419 2.4806,1.36433 4.21701,1.86044c1.74527,0.49612 3.66772,0.97008 5.75851,1.41748c2.09079,0.45183 4.16829,1.0011 6.23692,1.64782c2.0642,0.65115 3.96894,1.53708 5.70537,2.65777c1.74527,1.12514 3.15832,2.58248 4.23473,4.37647c1.07198,1.78513 1.61238,4.07082 1.61238,6.85706c0,2.98999 -0.60241,5.52816 -1.80727,7.61895c-1.196,2.09079 -2.79953,3.77404 -4.81944,5.04978c-2.01106,1.26688 -4.27016,2.19268 -6.78619,2.78181c-2.51603,0.60243 -5.06749,0.90364 -7.6544,0.90364c-3.74748,0 -7.24687,-0.63343 -10.50708,-1.89588c-3.26022,-1.27572 -5.90027,-3.2292 -7.92018,-5.86483c-2.01105,-2.6312 -3.04315,-6.01542 -3.10074,-10.15271h11.35757c0.15062,3.03872 1.27572,5.26239 3.36651,6.67987c2.09079,1.41748 4.50492,2.12624 7.24687,2.12624zM126.54279,121.61469" fill="#000000" fill-rule="nonzero" stroke="none" stroke-width="1"/><path d="M153.88141,129.53487v-50.79899h11.19812v40.64629h18.23235v10.15271zM153.88141,129.53487" fill="#000000" fill-rule="nonzero" stroke="none" stroke-width="1"/><path d="M201.60652,129.53487h-11.1981v-50.79899h11.1981zM201.60652,129.53487" fill="#000000" fill-rule="nonzero" stroke="none" stroke-width="1"/><path d="M247.25401,112.27705h12.47384c-1.14727,3.48611 -2.94127,6.58687 -5.38642,9.30222c-2.43629,2.71979 -5.3244,4.85044 -8.66435,6.39638c-3.33108,1.53708 -6.94123,2.30341 -10.82601,2.30341c-3.57913,0 -6.95452,-0.67329 -10.11727,-2.01991c-3.16718,-1.3466 -5.96228,-3.22477 -8.38086,-5.63449c-2.40972,-2.40972 -4.28789,-5.19596 -5.63449,-8.36314c-1.33774,-3.16275 -2.0022,-6.53814 -2.0022,-10.11727c0,-3.58801 0.66445,-6.96338 2.0022,-10.11727c1.3466,-3.16275 3.22477,-5.95342 5.63449,-8.36314c2.41858,-2.41857 5.21368,-4.3056 8.38086,-5.65221c3.16275,-1.34662 6.53814,-2.01991 10.11727,-2.01991c3.88479,0 7.48164,0.77519 10.79058,2.32113c3.31779,1.53708 6.19263,3.64117 8.62892,6.3078c2.44517,2.65779 4.23916,5.73637 5.38642,9.23135h-12.47384c-1.05426,-2.29012 -2.72422,-4.09741 -5.01434,-5.42187c-2.29455,-1.32003 -4.73085,-1.98448 -7.31775,-1.98448c-2.74194,0 -5.23582,0.71759 -7.47721,2.14393c-2.23253,1.41748 -4.01323,3.30894 -5.33328,5.66994c-1.32446,2.36543 -1.98448,4.9922 -1.98448,7.88474c0,2.8837 0.66002,5.51046 1.98448,7.88473c1.32003,2.36543 3.10075,4.25244 5.33328,5.66992c2.24139,1.41748 4.73527,2.12622 7.47721,2.12622c2.64448,0 5.10735,-0.69545 7.38862,-2.09079c2.29012,-1.39089 3.9601,-3.21148 5.01434,-5.4573zM247.25401,112.27705" fill="#000000" fill-rule="nonzero" stroke="none" stroke-width="1"/><path d="M295.50728,119.38215v10.15271h-29.43046v-50.79899h29.43046v10.15271h-18.23236v10.09955h17.48817v10.15271h-17.48817v10.24131zM295.50728,119.38215" fill="#000000" fill-rule="nonzero" stroke="none" stroke-width="1"/><path d="M54.2509,204.89902c0,-42.58634 34.52305,-77.10937 77.10939,-77.10937c42.58634,0 77.10937,34.52303 77.10937,77.10937c0,42.58634 -34.52305,77.10937 -77.10937,77.10937c-42.58634,0 -77.10937,-34.52305 -77.10937,-77.10937z" fill="#e4bb81" fill-rule="nonzero" stroke="#5776ff" stroke-width="7.5"/><path d="M120.06497,144.1361v4.88146h19.00753v-4.88146c-2.57362,-1.67439 -5.88254,-2.68436 -9.50155,-2.68436c-3.61458,0 -6.93237,1.00995 -9.50598,2.68436zM139.21424,144.24245c-0.03986,-0.03543 -0.0886,-0.06645 -0.1329,-0.08859c0.04429,0.02214 0.09302,0.05316 0.1329,0.08859zM139.39586,144.35758c-0.05759,-0.03986 -0.1196,-0.07972 -0.17276,-0.11516c0.05316,0.03543 0.11517,0.07529 0.17276,0.11516zM139.54646,144.45948c-0.04872,-0.03102 -0.0886,-0.05316 -0.13733,-0.08416c0.04872,0.03102 0.0886,0.05316 0.13733,0.08416zM141.79673,146.4838l0.02214,-0.00886l-0.02214,0.00886l-0.00886,-0.00886zM143.09018,145.95671c-0.05759,0.01771 -0.10631,0.03986 -0.15062,0.05316c0.04429,-0.01329 0.09303,-0.03543 0.15062,-0.05316zM144.18873,145.62446c-0.03102,0.00886 -0.07088,0.02659 -0.11074,0.03102c0.03986,-0.00443 0.07974,-0.02215 0.11074,-0.03102zM144.37033,145.58462c-0.03986,0.00886 -0.07974,0.01771 -0.11517,0.02657zM144.6627,145.51371c-0.09302,0.02659 -0.19048,0.03986 -0.2835,0.06645c0.09302,-0.02659 0.19048,-0.03986 0.2835,-0.06645zM145.57519,145.34983c-0.03986,0.00886 -0.08416,0.01771 -0.13288,0.01771c0.04872,0 0.09302,-0.00886 0.13288,-0.01771zM146.27507,145.26565c-0.21705,0.01328 -0.43853,0.04429 -0.66002,0.07531c0.22148,-0.03102 0.44296,-0.06202 0.66002,-0.07531zM146.44341,145.23913c-0.03986,0.00886 -0.08859,0.01772 -0.13731,0.01772c0.04872,0 0.09745,-0.00886 0.13731,-0.01772zM146.82879,145.21696c-0.04872,0 -0.09746,0 -0.14176,0.00886c0.04429,-0.00886 0.09303,-0.00886 0.14176,-0.00886zM147.0237,145.19922c-0.04429,0 -0.1019,0.00885 -0.15062,0.00885c0.04872,0 0.10631,-0.00885 0.15062,-0.00885zM147.7413,145.17707c-0.23478,0 -0.47398,0.00886 -0.70876,0.02215c0.23478,-0.01329 0.47398,-0.02215 0.70876,-0.02215zM147.93177,145.17707c-0.05759,0 -0.11074,0 -0.15947,0c0.04872,0 0.1019,0 0.15947,0zM148.11781,145.17707c-0.05316,0 -0.1019,0 -0.15503,0c0.05316,0 0.1019,0 0.15503,0zM149.64604,145.26565c-0.43853,-0.03986 -0.87264,-0.07088 -1.30674,-0.07974c0.4341,0.00886 0.86821,0.03986 1.30674,0.07974zM149.83651,145.28779c-0.05759,-0.00886 -0.1196,-0.01771 -0.17276,-0.01771c0.05316,0 0.11517,0.00886 0.17276,0.01771zM151.18754,145.49158c-0.4474,-0.08416 -0.89479,-0.15062 -1.33774,-0.20378c0.44296,0.05316 0.89036,0.1196 1.33774,0.20378zM151.38688,145.53143c-0.07088,-0.00886 -0.13288,-0.02214 -0.19933,-0.03986c0.06645,0.01771 0.12847,0.031 0.19933,0.03986zM151.57735,145.57132c-0.06643,-0.00886 -0.12845,-0.02215 -0.19048,-0.03988c0.06202,0.01771 0.12403,0.03102 0.19048,0.03988zM152.9284,145.92567c-0.4474,-0.13288 -0.89479,-0.25248 -1.35105,-0.3455c0.45624,0.09302 0.90365,0.21262 1.35105,0.3455zM153.32262,146.04527v2.97229h5.71866l0.07088,0.05759c-1.20486,-0.93908 -2.58248,-1.7497 -4.08856,-2.392c-0.69102,-0.30121 -1.38648,-0.55371 -2.08636,-0.75746c0.12845,0.03986 0.26134,0.07974 0.38538,0.1196zM159.41779,149.32764c-0.04872,-0.03986 -0.09302,-0.07974 -0.14174,-0.1196c0.04872,0.03986 0.09302,0.07974 0.14174,0.1196zM160.03795,149.85475c-0.08416,-0.07974 -0.17276,-0.1506 -0.25691,-0.23033c0.08416,0.07974 0.17276,0.1506 0.25691,0.23033zM160.3303,150.11169c-0.08416,-0.07531 -0.17276,-0.14619 -0.2525,-0.22591c0.07974,0.07974 0.16833,0.15062 0.2525,0.22591zM160.6138,150.39075c-0.07974,-0.07974 -0.15503,-0.15947 -0.24364,-0.23034c0.08859,0.07088 0.1639,0.15062 0.24364,0.23034zM161.06119,150.85584c-0.04429,-0.04872 -0.09303,-0.10631 -0.14176,-0.15062c0.04872,0.04429 0.09746,0.1019 0.14176,0.15062zM161.30924,151.11277c-0.03986,-0.03986 -0.07088,-0.07974 -0.11074,-0.11517c0.03986,0.03543 0.07088,0.07531 0.11074,0.11517zM175.23601,160.36627c0.83277,0.83277 1.57251,1.72312 2.20151,2.64448c-0.62902,-0.92136 -1.36874,-1.8117 -2.20151,-2.64448c-3.00772,-3.00772 -6.71532,-4.73527 -10.20586,-5.05421c3.49055,0.31893 7.19814,2.0465 10.20586,5.05421zM177.89821,163.71065c0.07531,0.1196 0.14617,0.23478 0.21705,0.35438c0.06645,0.1196 0.13731,0.23478 0.19933,0.35438c-0.06202,-0.1196 -0.13288,-0.23478 -0.19933,-0.35438c-0.07088,-0.1196 -0.14174,-0.23478 -0.21705,-0.35438c-0.11074,-0.17276 -0.22148,-0.34552 -0.34109,-0.52712c0.1196,0.1816 0.23034,0.35436 0.34109,0.52712zM179.11637,166.04951c0.05759,0.1196 0.10188,0.24364 0.1506,0.36322c0.04872,0.11074 0.08417,0.21262 0.12403,0.32336c-0.03986,-0.11074 -0.07531,-0.21262 -0.12403,-0.32336c-0.04872,-0.1196 -0.09302,-0.24364 -0.1506,-0.36322c-0.04872,-0.12403 -0.1019,-0.24364 -0.15503,-0.36322c0.05316,0.1196 0.10631,0.23921 0.15503,0.36322zM179.60362,167.33406c0.10188,0.30565 0.19048,0.61129 0.27464,0.92136c-0.08416,-0.31009 -0.17276,-0.61571 -0.27464,-0.92136c-0.03986,-0.12845 -0.08416,-0.24364 -0.12403,-0.37209c0.03986,0.12845 0.08416,0.24364 0.12403,0.37209zM180.09088,169.1768c0.16833,0.85491 0.25248,1.70541 0.25248,2.54262l0.02659,0.01328l-0.02659,-0.01328c0,-0.83721 -0.08416,-1.68769 -0.25248,-2.54262c-0.05316,-0.24364 -0.10631,-0.49169 -0.1639,-0.73531c0.05759,0.24364 0.11074,0.49169 0.1639,0.73531zM184.51165,174.37278c-0.03986,-0.03986 -0.07974,-0.07974 -0.12845,-0.11074c0.04872,0.03102 0.08859,0.07088 0.12845,0.11074zM184.79515,174.62524c-0.04872,-0.03986 -0.08859,-0.07972 -0.13731,-0.11959c0.04872,0.03986 0.08859,0.07972 0.13731,0.11959zM185.06092,174.89106c-0.03102,-0.03986 -0.07088,-0.07086 -0.11074,-0.11074c0.03986,0.03986 0.07974,0.07086 0.11074,0.11074zM185.35329,175.18339c-0.04872,-0.04872 -0.09746,-0.1019 -0.15062,-0.15062c0.05316,0.04872 0.1019,0.1019 0.15062,0.15062zM185.61906,175.4669c-0.04429,-0.04872 -0.09302,-0.09302 -0.1329,-0.14174c0.03986,0.04872 0.0886,0.09302 0.1329,0.14174zM185.88927,175.76367c-0.07974,-0.08416 -0.15947,-0.17276 -0.23034,-0.25693c0.07088,0.08416 0.15062,0.17276 0.23034,0.25693zM186.07087,175.9763c-0.04872,-0.06202 -0.10631,-0.11517 -0.1506,-0.17719c0.04429,0.06202 0.10188,0.11517 0.1506,0.17719zM186.31893,176.2864c-0.03543,-0.06643 -0.08417,-0.1196 -0.1329,-0.17276c0.04872,0.05316 0.09745,0.10631 0.1329,0.17276zM186.55815,176.57433c-0.03986,-0.05316 -0.07974,-0.10631 -0.12847,-0.15503c0.04872,0.04872 0.0886,0.10188 0.12847,0.15503zM186.58028,182.27521h2.98556c0.08416,0.26134 0.1639,0.52271 0.23478,0.77962c-0.22148,-0.78403 -0.49612,-1.57251 -0.82834,-2.35213c-0.64229,-1.5105 -1.45291,-2.88812 -2.392,-4.10184zM189.84935,183.22758c-0.01771,-0.06202 -0.03102,-0.11517 -0.04872,-0.17276c0.01771,0.05759 0.03102,0.11074 0.04872,0.17276zM189.95123,183.62183c-0.01771,-0.05316 -0.02214,-0.10188 -0.03986,-0.15503c0.01771,0.05316 0.02214,0.10188 0.03986,0.15503zM189.99997,183.8212c-0.01771,-0.05759 -0.02657,-0.10188 -0.03986,-0.15947c0.01329,0.05759 0.02215,0.10188 0.03986,0.15947zM190.155,184.57419c-0.03986,-0.23478 -0.09303,-0.46953 -0.15062,-0.70874c0.05759,0.23921 0.11074,0.47396 0.15062,0.70874zM190.19486,184.78242c-0.00886,-0.05759 -0.02214,-0.11074 -0.031,-0.16833c0.00886,0.05759 0.02214,0.11074 0.031,0.16833zM190.46064,187.75027c0,-0.05759 0,-0.11074 0,-0.17276c0,0.06202 0,0.11517 0,0.17276zM190.46064,187.96288c0,-0.03102 0,-0.07086 0,-0.10188c0,0.03102 0,0.07086 0,0.10188zM189.64559,192.70259c0.03543,-0.10188 0.07531,-0.21262 0.10631,-0.32336c-0.03102,0.11074 -0.07088,0.22148 -0.10631,0.32336zM189.17162,193.85871c0.01329,-0.03986 0.03102,-0.07088 0.04872,-0.1019zM186.58028,196.52978v19.00312h4.87258c1.68769,-2.57362 2.69322,-5.88699 2.69322,-9.50155c0,-3.61458 -1.00553,-6.92794 -2.68436,-9.50155zM190.46064,224.51618c0,-0.07088 0,-0.14174 0,-0.20376c0,0.06202 0,0.13288 0,0.20376zM190.34547,226.27919c0.01329,-0.1639 0.031,-0.33665 0.04429,-0.50055c-0.01329,0.1639 -0.031,0.33665 -0.04429,0.50055zM190.20373,227.24925c0.00886,-0.04872 0.01328,-0.10188 0.02214,-0.1506c-0.00886,0.04872 -0.01328,0.10188 -0.02214,0.1506zM190.16385,227.4486c0.00886,-0.05759 0.02214,-0.11074 0.031,-0.17719c-0.00886,0.06645 -0.02214,0.1196 -0.031,0.17719zM190.04426,228.01558c0.04872,-0.1816 0.08859,-0.37209 0.1196,-0.56257c-0.03102,0.19048 -0.07088,0.38095 -0.1196,0.56257zM190.00438,228.21051c0.01771,-0.06202 0.02657,-0.1196 0.03986,-0.17276c-0.01329,0.05316 -0.02215,0.11074 -0.03986,0.17276zM189.96009,228.40099c0.01329,-0.05759 0.03102,-0.11074 0.03986,-0.16833c-0.00886,0.05759 -0.02657,0.11074 -0.03986,0.16833zM189.85821,228.79966c0.01329,-0.05316 0.031,-0.11074 0.04429,-0.1639c-0.01329,0.05316 -0.031,0.11074 -0.04429,0.1639zM189.56585,229.783h-2.98556v5.67878c-0.14176,0.17276 -0.27464,0.34552 -0.41638,0.51384c1.11183,-1.33332 2.06863,-2.88368 2.80837,-4.61566c0.36322,-0.84164 0.65559,-1.68326 0.87707,-2.53375c-0.07974,0.31893 -0.18162,0.63788 -0.2835,0.95681zM185.90255,236.27241c0.08859,-0.09302 0.17276,-0.19491 0.26134,-0.29234c-0.08859,0.09745 -0.17276,0.19933 -0.26134,0.29234zM185.64563,236.56479c0.08416,-0.09745 0.17276,-0.19047 0.25693,-0.2835c-0.08416,0.09302 -0.17276,0.18605 -0.25693,0.2835zM185.10079,237.13176c0.1816,-0.1816 0.35438,-0.36322 0.52712,-0.55371c-0.17276,0.19048 -0.34552,0.37209 -0.52712,0.55371zM184.82615,237.4064c0.08416,-0.08859 0.17276,-0.17276 0.26578,-0.26136c-0.09302,0.08859 -0.1816,0.17276 -0.26578,0.26136zM184.64455,237.57029c0.05316,-0.05316 0.1196,-0.11074 0.17276,-0.1639c-0.05316,0.05316 -0.1196,0.11074 -0.17276,0.1639zM184.36991,237.81397c0.05316,-0.04429 0.11074,-0.09302 0.15503,-0.14174c-0.04429,0.04872 -0.10188,0.09745 -0.15503,0.14174zM184.06869,238.07528c0.06202,-0.05316 0.1196,-0.10188 0.18162,-0.15503c-0.06202,0.05316 -0.1196,0.10188 -0.18162,0.15503zM183.79405,238.30564c0.08416,-0.07088 0.17276,-0.1506 0.26134,-0.22148c-0.08859,0.07088 -0.17717,0.1506 -0.26134,0.22148zM183.32008,238.65998c0.03986,-0.03102 0.08859,-0.06645 0.12845,-0.09746c-0.03986,0.03102 -0.08859,0.06645 -0.12845,0.09746zM180.29907,241.40637c0.00443,-0.11074 0.01329,-0.22147 0.02215,-0.33664c-0.00886,0.11517 -0.01772,0.2259 -0.02215,0.33664zM180.12631,242.70426c-0.07974,0.42524 -0.18162,0.85936 -0.30122,1.2846c0.1196,-0.42524 0.22148,-0.85936 0.30122,-1.2846c0.03543,-0.24364 0.07529,-0.4784 0.10631,-0.70874c-0.03102,0.23034 -0.07086,0.4651 -0.10631,0.70874zM179.26697,245.64995c-0.1196,0.30121 -0.25248,0.60686 -0.39422,0.90364c-0.85048,1.82058 -2.06863,3.5747 -3.63673,5.1428c-0.36322,0.36322 -0.73976,0.70874 -1.1207,1.0321c-0.21705,0.19048 -0.43853,0.36765 -0.66002,0.54484c0.22148,-0.17719 0.44296,-0.35436 0.66002,-0.54484c0.38095,-0.32336 0.75746,-0.66888 1.1207,-1.0321c1.5681,-1.5681 2.78624,-3.32222 3.63673,-5.1428c0.14176,-0.29678 0.27462,-0.60243 0.39422,-0.90364c0.19491,-0.48726 0.36765,-0.98338 0.50941,-1.47064c-0.14176,0.48726 -0.31452,0.98338 -0.50941,1.47064zM172.77757,253.76948c0.15947,-0.11074 0.31009,-0.22147 0.46512,-0.34107c-0.15503,0.1196 -0.30565,0.23033 -0.46512,0.34107zM171.97579,254.30102c0.1506,-0.09302 0.30564,-0.19491 0.45626,-0.28793c-0.15062,0.09302 -0.30565,0.19491 -0.45626,0.28793zM170.93483,254.90788c0.06645,-0.03102 0.12845,-0.06202 0.19047,-0.1019c-0.06202,0.03986 -0.12402,0.07088 -0.19047,0.1019zM169.87173,255.43501c0.17276,-0.07531 0.35438,-0.1639 0.52714,-0.2525c-0.17276,0.08859 -0.35438,0.17719 -0.52714,0.2525zM169.51292,255.59445c0.05316,-0.02214 0.10631,-0.04871 0.15503,-0.062c-0.04872,0.01329 -0.10188,0.03986 -0.15503,0.062zM169.15856,255.74508c0.04429,-0.02659 0.09302,-0.03986 0.14174,-0.06645c-0.04872,0.02659 -0.09745,0.03986 -0.14174,0.06645zM168.61371,255.94885c0.11074,-0.03986 0.21262,-0.07972 0.32336,-0.1196c-0.11074,0.03986 -0.21262,0.07972 -0.32336,0.1196zM165.73,256.66641c0.49169,-0.07088 0.99224,-0.16833 1.48836,-0.29234c-0.49612,0.12403 -0.99667,0.22148 -1.48836,0.29234zM164.66691,256.78161c0.1196,-0.00443 0.24805,-0.02215 0.36322,-0.03102c-0.11517,0.00886 -0.24364,0.02659 -0.36322,0.03102zM161.94269,260.19244c0.03543,-0.03986 0.07088,-0.08859 0.10631,-0.12845c-0.03543,0.03986 -0.07088,0.08859 -0.10631,0.12845zM161.70791,260.48481c0.03102,-0.03986 0.062,-0.07972 0.09302,-0.11959c-0.03102,0.03986 -0.062,0.07972 -0.09302,0.11959zM161.45542,260.77272c0.03986,-0.03543 0.07088,-0.07088 0.10188,-0.10631c-0.03102,0.03543 -0.06202,0.07088 -0.10188,0.10631zM161.20292,261.06505c0.03543,-0.03986 0.07088,-0.07972 0.10631,-0.11517c-0.03543,0.03543 -0.07088,0.07529 -0.10631,0.11517zM160.92829,261.34855c0.03986,-0.03986 0.07974,-0.07974 0.1196,-0.11517c-0.03986,0.03543 -0.07974,0.07531 -0.1196,0.11517zM160.66252,261.62318c0.04429,-0.04429 0.08416,-0.08417 0.13288,-0.1329c-0.04872,0.04872 -0.08859,0.0886 -0.13288,0.1329zM160.3613,261.90673c0.08859,-0.07531 0.16833,-0.15503 0.24364,-0.22591c-0.07531,0.07088 -0.15503,0.15062 -0.24364,0.22591zM160.07782,262.17688c0.08859,-0.07974 0.17276,-0.15947 0.26136,-0.23478c-0.08859,0.07531 -0.17276,0.15503 -0.26136,0.23478zM159.78102,262.43379c0.08416,-0.07088 0.17276,-0.14617 0.25691,-0.2259c-0.08416,0.07974 -0.17276,0.15503 -0.25691,0.2259zM159.5994,262.58446c0.04429,-0.03102 0.09302,-0.07086 0.13288,-0.11074c-0.03986,0.03986 -0.08859,0.07972 -0.13288,0.11074zM159.27606,262.85463c0.04872,-0.03986 0.10188,-0.07974 0.1506,-0.12845c-0.04872,0.04872 -0.10188,0.08859 -0.1506,0.12845zM159.04128,263.04069h-5.71866v2.9767c-0.06202,0.02659 -0.12402,0.03988 -0.18603,0.06202c0.62902,-0.19491 1.25801,-0.42524 1.88701,-0.69988c1.5105,-0.64229 2.8837,-1.45736 4.08856,-2.39201zM151.57735,266.48249c0.51827,-0.11074 1.02767,-0.24364 1.55036,-0.4031c-0.52271,0.15947 -1.0321,0.29234 -1.55036,0.4031zM150.04027,266.75266c0.50497,-0.06645 1.02324,-0.1506 1.53708,-0.27021c-0.51384,0.1196 -1.03212,0.20376 -1.53708,0.27021zM148.33044,266.87674c0.55814,-0.00886 1.12514,-0.05317 1.70098,-0.12403c-0.57584,0.07088 -1.14284,0.11517 -1.70098,0.12403zM148.15768,266.88561c0.05759,0 0.11074,0.00002 0.16833,-0.00885c-0.05759,0.00886 -0.11074,0.00885 -0.16833,0.00885zM147.96276,266.88561c0.04429,0 0.1019,0 0.15503,0c-0.05316,0 -0.11074,0 -0.15503,0zM146.85093,266.85461c0.36322,0.02214 0.72646,0.031 1.08526,0.031c-0.35881,0 -0.72203,-0.00886 -1.08526,-0.031zM146.66932,266.83689c0.05759,0.00886 0.11074,0.00886 0.16833,0.00886c-0.05759,0 -0.11074,0 -0.16833,-0.00886zM146.4877,266.82356c0.05759,0.00443 0.11076,0.00443 0.15948,0.01328c-0.04872,-0.00886 -0.1019,-0.00886 -0.15948,-0.01328zM145.60621,266.71727c0.2835,0.03986 0.567,0.07086 0.85934,0.10631c-0.29234,-0.03543 -0.57584,-0.06643 -0.85934,-0.10631zM145.44231,266.68627c0.04872,0.00886 0.09302,0.01771 0.13288,0.02657c-0.03986,-0.00886 -0.08416,-0.01771 -0.13288,-0.02657zM145.2607,266.66409c0.04872,0.00886 0.0886,0.01772 0.12847,0.01772c-0.03986,0 -0.07974,-0.00886 -0.12847,-0.01772zM144.71586,266.55339c0.04872,0.01771 0.09745,0.02214 0.14174,0.031c-0.04429,-0.00886 -0.09302,-0.01328 -0.14174,-0.031zM144.23747,266.44266c0.14176,0.03986 0.2835,0.07086 0.4341,0.10188c-0.15062,-0.03102 -0.29234,-0.062 -0.4341,-0.10188zM143.20535,266.14583c0.03986,0.01329 0.07974,0.02215 0.11074,0.03986c-0.03102,-0.01771 -0.07088,-0.02657 -0.11074,-0.03986zM142.9307,266.04839c0.08859,0.03102 0.17276,0.06645 0.26136,0.08859c-0.08859,-0.02214 -0.17276,-0.05759 -0.26136,-0.08859zM141.79673,265.57885l-0.00886,0.00443l0.00886,-0.00443l0.02214,0.00443zM140.18876,267.10706c0.03986,-0.03543 0.08859,-0.06645 0.12845,-0.10631c-0.03986,0.03986 -0.08859,0.07088 -0.12845,0.10631zM139.88312,267.35069c0.10188,-0.07974 0.20378,-0.15947 0.30565,-0.23921c-0.10188,0.07974 -0.20378,0.15947 -0.30565,0.23921zM139.74139,267.45259c0.03986,-0.02659 0.07974,-0.05759 0.1196,-0.0886c-0.03986,0.03102 -0.07974,0.06202 -0.1196,0.0886zM139.07251,267.92213v-4.88144h-19.00753v4.88144c-0.21262,-0.14176 -0.4164,-0.28348 -0.61129,-0.42967c2.64448,1.93575 6.20147,3.11403 10.11727,3.11403c3.92908,0 7.5038,-1.18714 10.14829,-3.13174c-0.21262,0.15062 -0.42524,0.30121 -0.64672,0.4474zM119.27206,267.35515c0.03986,0.03543 0.07974,0.06645 0.12403,0.09746c-0.04429,-0.03102 -0.08416,-0.06202 -0.12403,-0.09746zM119.1303,267.25325c0.04429,0.03102 0.08417,0.06643 0.1329,0.09745c-0.04872,-0.03102 -0.0886,-0.06643 -0.1329,-0.09745zM118.96199,267.12039c0.03986,0.03102 0.07974,0.062 0.1196,0.09302c-0.03986,-0.03102 -0.07974,-0.062 -0.1196,-0.09302zM117.34074,265.57885l0.00886,0.00443zM114.50134,266.54008c0.12403,-0.02659 0.24807,-0.05759 0.37652,-0.08859c-0.12845,0.03102 -0.2525,0.06202 -0.37652,0.08859zM113.56228,266.71281c0.03986,-0.00886 0.08859,-0.01772 0.12845,-0.01772c-0.03986,0 -0.08859,0.00886 -0.12845,0.01772zM113.03514,266.78371c0.15947,-0.01771 0.32336,-0.03986 0.48726,-0.06643c-0.1639,0.02659 -0.32779,0.04872 -0.48726,0.06643zM112.87568,266.79699c0.04872,0 0.09745,-0.00886 0.14174,-0.01329c-0.04429,0.00443 -0.09302,0.01329 -0.14174,0.01329zM112.68078,266.82356c0.04872,-0.00886 0.1019,-0.01772 0.15062,-0.01772c-0.04872,0 -0.1019,0.00886 -0.15062,0.01772zM112.30425,266.84574c0.04429,0 0.10188,0 0.14617,-0.00886c-0.04429,0.00886 -0.10188,0.00886 -0.14617,0.00886zM112.11378,266.85902c0.05316,0 0.11074,-0.00443 0.1639,-0.00443c-0.05316,0 -0.11074,0.00443 -0.1639,0.00443zM111.18355,266.88561c0.31009,0 0.60686,-0.00886 0.90808,-0.02657c-0.30121,0.01771 -0.598,0.02657 -0.90808,0.02657zM111.00194,266.88561c0.06645,0 0.1196,0 0.18162,0zM110.81591,266.87674c0.06202,0.00886 0.11517,0.00885 0.18162,0.00885c-0.06645,0 -0.1196,0.00002 -0.18162,-0.00885zM109.49144,266.79699c0.44296,0.03986 0.8815,0.07088 1.3156,0.07974c-0.4341,-0.00886 -0.87264,-0.03986 -1.3156,-0.07974zM109.29653,266.77486c0.06202,0.00886 0.12403,0.01328 0.18605,0.01328c-0.06202,0 -0.12403,-0.00443 -0.18605,-0.01328zM106.20908,266.13701c1.0321,0.30565 2.0642,0.51827 3.0786,0.63788c-1.01438,-0.1196 -2.0465,-0.33222 -3.0786,-0.63788zM105.81485,266.01741v-2.9767h-5.71421l-0.03986,-0.03988c1.196,0.93022 2.55591,1.74086 4.05311,2.37872c0.69545,0.30121 1.38646,0.55369 2.08634,0.75746c-0.12403,-0.03986 -0.25693,-0.07974 -0.38538,-0.1196zM86.70543,254.01307c0.15062,0.09302 0.31009,0.19491 0.45626,0.28793c-0.14619,-0.09302 -0.30565,-0.19491 -0.45626,-0.28793zM86.02326,253.52137c0.10631,0.08859 0.22591,0.16833 0.33665,0.24805c-0.11074,-0.07974 -0.23034,-0.15947 -0.33665,-0.24805zM85.02218,252.7285c-0.37652,-0.32336 -0.75746,-0.66888 -1.1207,-1.0321c-2.05093,-2.05536 -3.50827,-4.43406 -4.32775,-6.84378c0.81948,2.40972 2.27682,4.78842 4.32775,6.84378c0.36322,0.36322 0.74419,0.70874 1.1207,1.0321c0.22148,0.19048 0.43853,0.36765 0.66002,0.54484c-0.22148,-0.17719 -0.43853,-0.35436 -0.66002,-0.54484zM79.18833,243.52371c0.06202,0.25248 0.1329,0.50498 0.20376,0.74862c-0.07088,-0.24364 -0.14174,-0.49612 -0.20376,-0.74862zM79.02002,242.73524c0.03986,0.20819 0.07974,0.41195 0.12845,0.61571c-0.04872,-0.20376 -0.08859,-0.40752 -0.12845,-0.61571zM78.87827,241.80945c0.02659,0.22591 0.06643,0.45626 0.09745,0.67331c-0.03102,-0.21705 -0.07086,-0.4474 -0.09745,-0.67331zM78.81625,241.08299c0.00886,0.11074 0.01772,0.21262 0.02659,0.32336c-0.00886,-0.11074 -0.01772,-0.21262 -0.02659,-0.32336zM75.69337,238.56255c0.03543,0.03102 0.08416,0.06645 0.12403,0.09746c-0.03986,-0.03102 -0.08859,-0.06645 -0.12403,-0.09746zM74.62139,237.68988c0.05316,0.03986 0.1019,0.08859 0.15062,0.12403c-0.04872,-0.03543 -0.09746,-0.08416 -0.15062,-0.12403zM74.32018,237.41526c0.05759,0.04429 0.11074,0.09303 0.15947,0.14176c-0.04872,-0.04872 -0.1019,-0.09746 -0.15947,-0.14176zM74.0544,237.14509c0.08416,0.08859 0.17276,0.17276 0.26136,0.26136c-0.08859,-0.08859 -0.17719,-0.17276 -0.26136,-0.26136zM73.5007,236.57806c0.14176,0.15062 0.2835,0.30121 0.42524,0.45183c-0.14176,-0.15062 -0.2835,-0.30121 -0.42524,-0.45183zM73.24379,236.29016c0.08416,0.09302 0.1639,0.18603 0.25248,0.28348c-0.08859,-0.09745 -0.16833,-0.19047 -0.25248,-0.28348zM72.5572,235.46182v-5.67878h-2.98115c-0.08859,-0.25693 -0.16833,-0.51827 -0.23921,-0.77076c0.22148,0.7796 0.49612,1.5681 0.82833,2.3477c0.79291,1.86488 1.84274,3.51713 3.06087,4.91246c-0.22591,-0.26134 -0.44738,-0.53598 -0.66886,-0.81062zM69.29254,228.83952c0.01329,0.05759 0.031,0.11074 0.04429,0.1639c-0.01329,-0.05316 -0.031,-0.10631 -0.04429,-0.1639zM69.23497,228.6269c0.01771,0.05759 0.03102,0.11074 0.04874,0.17276c-0.01771,-0.06202 -0.03102,-0.11517 -0.04874,-0.17276zM69.18623,228.43197c0.01771,0.06202 0.02657,0.11517 0.03986,0.17276c-0.01329,-0.05759 -0.02215,-0.11074 -0.03986,-0.17276zM69.14194,228.23267c0.00886,0.05759 0.02215,0.11074 0.03986,0.17276c-0.01771,-0.06202 -0.031,-0.11517 -0.03986,-0.17276zM68.95147,227.30688c0.04872,0.30565 0.11074,0.60243 0.18162,0.91252c-0.07088,-0.31009 -0.1329,-0.60686 -0.18162,-0.91252zM68.80085,226.30575c0,0.03986 0.00886,0.07974 0.01772,0.11517c-0.00886,-0.03543 -0.01772,-0.07531 -0.01772,-0.11517zM68.73886,225.76089c0.01771,0.15947 0.031,0.3145 0.05757,0.48283c-0.02659,-0.16833 -0.03986,-0.32336 -0.05757,-0.48283zM69.96142,218.20394h0.00443zM72.5572,215.5329v-19.00312h-4.87259l0.03986,-0.06645c-1.70982,2.58248 -2.73308,5.92242 -2.73308,9.568c0,3.61458 1.00996,6.92794 2.6932,9.50155zM68.67683,187.54209c0,0.1506 0,0.29234 0,0.44296c0,-0.15062 0,-0.29236 0,-0.44296zM68.79643,185.77908c-0.01771,0.17276 -0.03986,0.34995 -0.04872,0.51384c0.00886,-0.1639 0.03102,-0.34109 0.04872,-0.51384zM68.93819,184.80457c-0.00886,0.05316 -0.01772,0.10188 -0.02659,0.15503c0.00886,-0.05316 0.01772,-0.10188 0.02659,-0.15503zM68.97361,184.60523c-0.01328,0.06645 -0.02215,0.12845 -0.03102,0.19048c0.00886,-0.06202 0.01772,-0.12403 0.03102,-0.19048zM69.13309,183.86106c-0.05316,0.24805 -0.11074,0.49612 -0.15947,0.74417c0.04872,-0.24805 0.10631,-0.49612 0.15947,-0.74417zM69.1818,183.66173c-0.01771,0.05759 -0.031,0.11074 -0.03986,0.16833c0.00886,-0.05759 0.02215,-0.11074 0.03986,-0.16833zM69.2837,183.26747c-0.01771,0.04872 -0.03102,0.1019 -0.04874,0.15062c0.01771,-0.04872 0.03102,-0.1019 0.04874,-0.15062zM69.33684,183.05486c-0.01329,0.05759 -0.031,0.11074 -0.04429,0.16833c0.01329,-0.05759 0.031,-0.11074 0.04429,-0.16833zM69.57604,182.27521h2.98115v-5.67435c0.30121,-0.38538 0.61572,-0.75746 0.93908,-1.11183c-1.33332,1.45734 -2.4806,3.21148 -3.3311,5.21368c-0.33222,0.7796 -0.60684,1.55922 -0.82833,2.33884c0.07088,-0.25248 0.1506,-0.51384 0.23921,-0.76633zM74.48851,174.49678c-0.34109,0.3145 -0.66888,0.63788 -0.98781,0.99224c0.31893,-0.35438 0.64672,-0.67774 0.98781,-0.99224zM74.88275,174.14243c-0.1196,0.11074 -0.24807,0.22148 -0.37209,0.33222c0.12403,-0.11074 0.25248,-0.22148 0.37209,-0.33222zM75.06879,173.98739c-0.05316,0.04429 -0.11517,0.09302 -0.17276,0.14617c0.05759,-0.05316 0.1196,-0.10188 0.17276,-0.14617zM75.34342,173.75703c-0.08416,0.07088 -0.17276,0.14176 -0.25691,0.22148c0.08416,-0.07974 0.17276,-0.15062 0.25691,-0.22148zM78.79412,171.71943c0.01329,-3.80948 1.76298,-8.00878 5.10735,-11.35315c2.64005,-2.64005 5.8028,-4.28346 8.89912,-4.87703c-3.09632,0.59357 -6.25907,2.23696 -8.89912,4.87703c-3.34437,3.34437 -5.09406,7.54366 -5.10735,11.35315l-0.02215,0.01328zM93.1727,155.42721c-0.10631,0.01771 -0.20819,0.031 -0.30121,0.05759c0.09302,-0.02659 0.1949,-0.03986 0.30121,-0.05759zM94.44399,155.28551c-0.1639,0.00886 -0.32779,0.02657 -0.49612,0.03986c0.16833,-0.01329 0.33222,-0.031 0.49612,-0.03986zM94.99769,155.25448c-0.1196,0.00886 -0.23034,0.00886 -0.34109,0.01771c0.11074,-0.00886 0.22148,-0.00886 0.34109,-0.01771zM100.10063,149.01755h5.71421v-2.97229c-0.567,0.17719 -1.13398,0.38981 -1.70096,0.63786c-1.50164,0.64229 -2.86598,1.45293 -4.07084,2.38315zM105.9876,145.98769c-0.05316,0.01771 -0.11074,0.031 -0.1639,0.05759c0.05316,-0.02659 0.11074,-0.03986 0.1639,-0.05759zM106.18695,145.92567c-0.05759,0.01329 -0.11074,0.03986 -0.16833,0.05316zM106.39071,145.8681c-0.05759,0.01771 -0.11074,0.03543 -0.1639,0.04872c0.05316,-0.01328 0.10631,-0.03102 0.1639,-0.04872zM106.58559,145.81496c-0.05316,0.01771 -0.11517,0.03102 -0.17276,0.04872c0.05759,-0.01771 0.1196,-0.03102 0.17276,-0.04872zM107.53797,145.58018c-0.31452,0.07088 -0.629,0.14174 -0.93465,0.2259c0.30565,-0.08416 0.62014,-0.15503 0.93465,-0.2259zM107.72844,145.5403c-0.04872,0.00886 -0.10188,0.02215 -0.15947,0.03102c0.05759,-0.00886 0.11074,-0.02215 0.15947,-0.03102zM107.93222,145.50043c-0.04429,0.00886 -0.1019,0.01328 -0.15503,0.031c0.05316,-0.01771 0.11074,-0.02214 0.15503,-0.031zM108.13153,145.46057c-0.05759,0.00886 -0.11072,0.02215 -0.16831,0.03102c0.05759,-0.00886 0.11072,-0.02215 0.16831,-0.03102zM109.07505,145.30999c-0.30121,0.03986 -0.60686,0.08859 -0.90364,0.14174c0.29678,-0.05316 0.60243,-0.10188 0.90364,-0.14174zM109.4693,145.2701c-0.04872,0 -0.1019,0.00886 -0.15947,0.01771c0.05759,-0.00886 0.11074,-0.01771 0.15947,-0.01771zM109.67306,145.24794c-0.05316,0.00886 -0.11074,0.00886 -0.1639,0.01771c0.05316,-0.00886 0.11074,-0.00886 0.1639,-0.01771zM110.60329,145.18594c-0.30121,0.01329 -0.60686,0.03102 -0.91252,0.06202c0.30565,-0.03102 0.61129,-0.04872 0.91252,-0.06202zM110.78932,145.18594c-0.05316,0 -0.10631,0 -0.15503,0c0.04872,0 0.10188,0 0.15503,0zM110.9798,145.17707c-0.05316,0 -0.10188,0 -0.1506,0.00886c0.04872,-0.00886 0.09745,-0.00886 0.1506,-0.00886zM112.07392,145.19922c-0.22591,-0.01329 -0.4474,-0.02215 -0.67774,-0.02215c0.23034,0 0.45183,0.00886 0.67774,0.02215zM112.82252,145.25681c-0.03986,0 -0.07974,-0.00886 -0.12403,-0.00886c0.04429,0 0.08417,0.00886 0.12403,0.00886zM113.51356,145.34096c-0.14619,-0.02214 -0.30565,-0.03986 -0.45626,-0.06202c0.15062,0.02214 0.31009,0.03986 0.45626,0.06202zM113.86792,145.39858c-0.03543,-0.00886 -0.07531,-0.01771 -0.11517,-0.01771c0.03986,0 0.07974,0.00886 0.11517,0.01771zM114.6874,145.56246c-0.07974,-0.01328 -0.15503,-0.03102 -0.22591,-0.04872c0.07088,0.01771 0.14619,0.03543 0.22591,0.04872zM115.05947,145.6555c-0.03986,-0.00443 -0.07974,-0.02215 -0.11074,-0.03102c0.03102,0.00886 0.07088,0.02659 0.11074,0.03102zM116.20233,146.00983c-0.06645,-0.02214 -0.12845,-0.04429 -0.19933,-0.07086c0.07088,0.02659 0.13288,0.04872 0.19933,0.07086zM116.36622,146.07633c-0.03102,-0.01771 -0.07086,-0.03102 -0.10188,-0.03986c0.03102,0.00886 0.07086,0.02215 0.10188,0.03986zM117.34074,146.4838l0.00886,-0.00886l-0.00886,0.00886c-0.03102,-0.00886 -0.06202,-0.02215 -0.09302,-0.03986zM119.3961,144.6101c-0.03986,0.03102 -0.07972,0.05759 -0.11517,0.08859c0.03543,-0.03102 0.07529,-0.05759 0.11517,-0.08859zM119.58656,144.46835c-0.04872,0.03102 -0.08859,0.06202 -0.13288,0.09303c0.04429,-0.03102 0.08416,-0.06202 0.13288,-0.09303zM120.05611,144.14501c-0.15503,0.10188 -0.3145,0.21262 -0.46067,0.32336c0.14619,-0.11074 0.30564,-0.22148 0.46067,-0.32336zM172.33017,182.27521h-19.00755v-19.0031h19.00755zM139.07251,182.27521h-19.00753v-19.0031h19.00753zM105.81485,182.27521h-19.00753v-19.0031h19.00753zM172.33017,215.5329h-19.00755v-19.00312h19.00755zM139.07251,215.5329h-19.00753v-19.00312h19.00753zM105.81485,215.5329h-19.00753v-19.00312h19.00753zM172.33017,248.79056h-19.00755v-19.00753h19.00755zM139.07251,248.79056h-19.00753v-19.00753h19.00753zM105.81485,248.79056h-19.00753v-19.00753h19.00753zM105.81485,229.783" fill="#a137f5" fill-rule="evenodd" stroke="none" stroke-width="1"/><path d="M139.07251,144.1361c1.04096,0.68659 1.96232,1.47507 2.72422,2.3477c3.20262,-1.52822 7.38418,-1.77186 11.52589,-0.43853v2.97229h5.71866c2.27239,1.7497 3.96453,3.92908 4.91246,6.23692c3.79177,0.03986 7.96005,1.78957 11.28227,5.11178c3.34437,3.34437 5.09406,7.54366 5.10735,11.35315c2.30784,0.93465 4.48278,2.62234 6.23692,4.88144v5.67435h2.98556c1.35105,4.15056 1.13398,8.35429 -0.39424,11.5835c0.85048,0.75746 1.62124,1.65226 2.29012,2.67106h-4.88146v19.00312h4.88146c-0.66888,1.01881 -1.43964,1.9136 -2.29012,2.67106c1.52822,3.2292 1.74527,7.43293 0.39424,11.57906h-2.98556v5.67878c-1.75413,2.25912 -3.92908,3.94237 -6.23692,4.88146c-0.01329,3.80948 -1.77186,8.00876 -5.10735,11.35313c-3.32222,3.32222 -7.4905,5.07192 -11.28227,5.1118c-0.94793,2.30341 -2.64005,4.48722 -4.91246,6.23249h-5.71866v2.9767c-4.14172,1.33332 -8.32326,1.08969 -11.52589,-0.43853c-0.7619,0.87264 -1.68326,1.66112 -2.72422,2.34327v-4.88144h-19.00753v4.88144c-1.03653,-0.68217 -1.95789,-1.47064 -2.72422,-2.34327c-3.20262,1.52822 -7.38419,1.77186 -11.52589,0.43853v-2.9767h-5.71421c-2.27682,-1.74527 -3.96894,-3.92908 -4.91246,-6.23249c-3.7962,-0.03986 -7.96005,-1.78957 -11.2867,-5.1118c-3.34437,-3.34437 -5.09406,-7.54366 -5.10735,-11.35313c-2.30784,-0.93908 -4.47835,-2.62234 -6.23692,-4.88146v-5.67878h-2.98115c-1.35546,-4.14613 -1.13398,-8.34986 0.38981,-11.57906c-0.85048,-0.75746 -1.62126,-1.65224 -2.28127,-2.67106h4.87259v-19.00312h-4.87259c0.66002,-1.01881 1.43077,-1.9136 2.28127,-2.67106c-1.52379,-3.2292 -1.74527,-7.43292 -0.38981,-11.5835h2.98115v-5.67435c1.75857,-2.25912 3.92908,-3.94679 6.23692,-4.88144c0.01329,-3.80948 1.76298,-8.00878 5.10735,-11.35315c3.32665,-3.32222 7.4905,-5.07192 11.2867,-5.11178c0.9435,-2.30784 2.63563,-4.48722 4.91246,-6.23692h5.71421v-2.97229c4.14172,-1.33332 8.32328,-1.08969 11.52589,0.43853c0.76633,-0.87264 1.68769,-1.66112 2.72422,-2.3477v4.88146h19.00753zM172.33017,163.2721h-19.00755v19.0031h19.00755zM139.07251,163.2721h-19.00753v19.0031h19.00753zM105.81485,163.2721h-19.00753v19.0031h19.00753zM172.33017,196.52978h-19.00755v19.00312h19.00755zM139.07251,196.52978h-19.00753v19.00312h19.00753zM105.81485,196.52978h-19.00753v19.00312h19.00753zM172.33017,229.783h-19.00755v19.00753h19.00755zM139.07251,229.783h-19.00753v19.00753h19.00753zM105.81485,229.783h-19.00753v19.00753h19.00753zM105.81485,229.783" fill="#fccc88" fill-rule="evenodd" stroke="none" stroke-width="1"/><path d="M145.41131,194.1245c-0.30121,4.08854 -0.55371,8.19038 -0.70874,12.27451c-0.09302,2.62234 -0.30565,7.0564 0.50497,9.55028c0.11517,0.35438 0.45624,1.16055 0.82391,1.47507c0.17276,-0.10188 0.38095,-0.2835 0.47398,-0.4031c0.58915,-0.65115 0.96124,-1.70098 1.30674,-2.5116c0.1506,-0.32779 0.30565,-0.66886 0.49612,-0.98338c0.93022,-1.51936 2.6755,-2.42301 4.47835,-2.12622c2.56918,0.4341 3.6013,2.54262 3.70318,4.7973c0.08416,2.15722 -0.17276,4.54037 -0.81062,6.60457c-0.94793,3.02099 -2.77294,5.59906 -5.37758,7.43292c-2.88368,2.02877 -6.7419,3.18932 -10.2546,2.48501c-3.46841,-0.69988 -6.41409,-3.16275 -8.22581,-6.15718c-2.03763,-3.36651 -2.11736,-7.08297 -2.11736,-10.91903c0,-5.92683 0.32336,-11.96001 0.629,-17.88685c0.06202,-1.227 0.1196,-2.48946 0.19048,-3.75632c-0.62457,0 -1.25358,-0.00886 -1.87372,-0.00886c-0.05759,0.62902 -0.11074,1.25358 -0.16833,1.87372c-0.4651,5.10294 -1.03653,10.20588 -1.55036,15.29995c-0.4341,4.25244 -0.7486,9.35093 -1.9136,13.43063c-0.86377,3.02544 -2.38315,5.74966 -5.05421,7.52593c-2.09965,1.4042 -4.39418,1.86044 -6.85706,1.29346c-2.24582,-0.51384 -4.47837,-1.794 -5.91356,-3.60572c-1.5991,-2.02434 -2.17051,-4.64668 -1.70984,-7.16714c0.42524,-2.30341 1.74086,-4.37647 2.93243,-6.36094c1.72313,-2.86598 3.3931,-5.72308 4.64225,-8.84154c1.32446,-3.26906 2.22812,-6.87921 2.75524,-10.3609c0.14176,-0.97008 0.26134,-1.94462 0.34107,-2.91913c-0.60686,0.06202 -1.19157,0.14617 -1.7187,0.26578c-0.67329,0.15503 -1.53265,0.42524 -1.95789,1.02324c-0.33222,0.4651 -0.48727,1.08526 -0.62458,1.6301c-0.58914,2.43186 -2.25024,4.05311 -4.87258,3.86706c-0.39867,-0.03102 -0.81062,-0.06645 -1.21815,-0.10188c-2.93686,-0.27021 -4.37204,-2.56032 -4.15942,-5.35542c0.12845,-1.70982 0.47398,-3.45068 1.03212,-5.06306c0.70874,-2.0465 1.87372,-4.24358 3.24249,-5.9224c1.23588,-1.5105 2.55146,-2.48503 4.22144,-3.43739c3.17161,-1.81172 7.47278,-1.96234 11.02977,-2.15281c8.55361,-0.43853 17.25783,-0.42967 25.83359,-0.48726c4.2923,-0.03102 10.38305,-0.78846 10.49379,5.36428c0.03102,1.66553 0.11074,3.34437 0.11074,5.01434c0,1.11627 -0.17276,2.08634 -0.80177,3.04758c-1.86488,2.87925 -5.78066,2.34327 -8.73966,2.30784c-0.87264,-0.01771 -1.7497,-0.02659 -2.61348,-0.03543zM145.41131,194.1245" fill="#fccc88" fill-rule="evenodd" stroke="none" stroke-width="1"/><path d="M106.65205,191.81223c0.57141,-1.65226 1.54151,-3.42411 2.51603,-4.62454c0.97895,-1.196 1.95346,-1.81615 3.0343,-2.44072c1.08526,-0.61129 2.28125,-1.23588 9.14719,-1.59024c6.86594,-0.35438 19.40177,-0.43853 25.64313,-0.48726c6.24576,-0.04429 6.19706,-0.04429 6.2192,1.196c0.02659,1.23588 0.11074,3.71646 0.11074,4.93904c0,1.21815 -0.08416,1.17384 -5.24911,1.1074c-1.732,-0.02214 -4.05754,-0.04429 -6.6223,-0.07086c-0.02659,0.62457 -0.08859,1.43519 -0.16833,2.48944c-0.24805,3.33994 -0.64229,9.16491 -0.82391,13.91347c-0.17276,4.75299 -0.12847,8.42516 0.7176,11.02091c0.83276,2.59134 2.47617,4.09741 4.11513,4.40306c1.63896,0.31452 3.27793,-0.57584 4.37647,-1.81172c1.11183,-1.24472 1.68769,-2.83496 2.04205,-3.65444c0.35438,-0.82391 0.48727,-0.86377 0.536,0.17276c0.03986,1.04096 0,3.16718 -0.62457,5.16052c-0.62014,1.98889 -1.81615,3.8582 -3.76077,5.22696c-1.95346,1.36876 -4.65554,2.2591 -6.97666,1.794c-2.32556,-0.4651 -4.27458,-2.28125 -5.4263,-4.18599c-1.14727,-1.90917 -1.50164,-3.89808 -1.50164,-8.72638c0,-4.82387 0.35436,-12.48712 0.61129,-17.66536c0.21262,-4.03097 0.36322,-6.56028 0.57584,-8.19038c-3.26906,-0.02214 -6.52483,-0.04872 -9.23578,-0.05316h-1.29788c-0.00886,1.20929 -0.10188,2.91912 -0.35438,5.75409c-0.35438,3.91137 -1.01439,9.9844 -1.55038,15.25121c-0.52712,5.27568 -0.93022,9.74519 -1.77186,12.69089c-0.84164,2.9457 -2.12622,4.36318 -3.32222,5.15608c-1.196,0.79734 -2.29898,0.97895 -3.56586,0.68659c-1.26245,-0.2835 -2.67993,-1.04096 -3.52156,-2.10408c-0.84164,-1.0631 -1.10298,-2.43186 -0.85936,-3.76075c0.24364,-1.33332 0.99224,-2.61349 2.38756,-4.93904c1.39977,-2.32112 3.43296,-5.69206 4.94347,-9.43953c1.5105,-3.74748 2.49831,-7.87145 3.01658,-11.32213c0.51827,-3.44625 0.567,-6.2192 0.55814,-7.69869v-0.27021c-3.38424,0.04872 -5.47059,0.1816 -7.07856,0.54484c-2.33,0.53598 -3.65444,1.55036 -4.47835,2.70651c-0.81948,1.1517 -1.12512,2.43631 -1.28458,3.0786c-0.15947,0.64672 -0.1639,0.66443 -0.44296,0.63786c-0.2835,-0.01329 -0.83276,-0.07088 -1.13841,-0.09302c-0.31009,-0.03102 -0.3721,-0.03102 -0.31009,-0.81062c0.05759,-0.7796 0.23034,-2.32998 0.81505,-3.9911zM105.837,195.80333" fill="#521e7b" fill-rule="evenodd" stroke="none" stroke-width="1"/><path d="M75.42016,106.62833l-6.71532,-10.135l-1.18714,12.10175zM90.07338,115.66476l-7.40633,1.84274l-3.80948,-5.7408l-11.90684,2.95898l-0.67331,6.85707l-7.40633,1.84272l4.90803,-34.39164l5.8294,-1.45293zM90.07338,115.66476" fill="#000000" fill-rule="nonzero" stroke="none" stroke-width="1"/><path d="M280.41015,234.63431l-51.11792,-5.84711l-6.82164,59.65825l-32.77925,-3.75632l17.00978,-148.58749l86.07657,9.85148l-3.40196,29.71396l-53.2973,-6.09518l-3.38425,29.50133l51.11792,5.84711zM280.41015,234.63431" fill="#000000" fill-rule="nonzero" stroke="#5776ff" stroke-width="9"/><path d="M347.14534,201.16175v22.83917h-14.10394v-63.92842h23.97315c3.44625,0 6.66218,0.86379 9.63888,2.58691c2.97672,1.72757 5.37315,4.12398 7.19371,7.19371c1.81615,3.07417 2.72865,6.64444 2.72865,10.7197c0,4.32332 -0.9125,8.02205 -2.72865,11.09179c-1.82058,3.07417 -4.21701,5.42187 -7.19371,7.05197c-2.97672,1.6301 -6.19263,2.44515 -9.63888,2.44515zM354.67572,171.1643h-7.53037v18.90566h7.53037c2.06422,0 3.9911,-0.81507 5.77625,-2.44517c1.7807,-1.6301 2.6755,-3.9778 2.6755,-7.05197c0,-2.95013 -0.89479,-5.25354 -2.6755,-6.91023c-1.78515,-1.66553 -3.71203,-2.49831 -5.77625,-2.49831zM354.67572,171.1643" fill="#000000" fill-rule="nonzero" stroke="none" stroke-width="1"/><path d="M382.87637,169.82479c0,-2.31227 0.79734,-4.27016 2.39201,-5.86483c1.60353,-1.60351 3.56584,-2.40972 5.88254,-2.40972c2.25467,0 4.19929,0.8062 5.82939,2.40972c1.6301,1.59467 2.44517,3.55256 2.44517,5.86483c0,2.25912 -0.81507,4.19929 -2.44517,5.82939c-1.6301,1.6301 -3.57472,2.44515 -5.82939,2.44515c-2.31669,0 -4.27901,-0.81505 -5.88254,-2.44515c-1.59467,-1.6301 -2.39201,-3.57027 -2.39201,-5.82939zM398.20287,225.47866h-14.10394v-41.46134h14.10394zM398.20287,225.47866" fill="#000000" fill-rule="nonzero" stroke="none" stroke-width="1"/><path d="M409.20007,218.14317c0,-2.25467 0.79733,-4.19929 2.392,-5.82939c1.60353,-1.6301 3.56586,-2.44515 5.88254,-2.44515c2.25467,0 4.19929,0.81505 5.82939,2.44515c1.6301,1.6301 2.44515,3.57472 2.44515,5.82939c0,2.31669 -0.81505,4.27903 -2.44515,5.88254c-1.6301,1.59467 -3.57472,2.392 -5.82939,2.392c-2.31669,0 -4.27903,-0.79733 -5.88254,-2.392c-1.59467,-1.60351 -2.392,-3.56586 -2.392,-5.88254zM412.30081,203.95064l-1.87817,-48.97398h14.10394l-1.87815,48.97398zM412.30081,203.95064" fill="#000000" fill-rule="nonzero" stroke="none" stroke-width="1"/><path d="M5.42564,355.77926v-351.55848h469.14874v351.55848z" fill="none" fill-rule="nonzero" stroke="#e4e9ff" stroke-width="27"/><text transform="translate(26.75227,333.09575) scale(0.36156,0.36156)" font-size="40" xml:space="preserve" fill="#4c66de" fill-rule="nonzero" stroke="none" stroke-width="1" stroke-linecap="butt" stroke-linejoin="miter" stroke-miterlimit="10" stroke-dasharray="" stroke-dashoffset="0" font-family="&quot;ヒラギノ角ゴ Pro W3&quot;, &quot;Hiragino Kaku Gothic Pro&quot;, Osaka, &quot;メイリオ&quot;, Meiryo, &quot;ＭＳ Ｐゴシック&quot;, &quot;MS PGothic&quot;" font-weight="normal" text-anchor="start" style="mix-blend-mode: normal"><tspan x="0" dy="0">upd. 3.10.4</tspan></text></g></g></svg>