<svg version="1.1" xmlns="http://www.w3.org/2000/svg" xmlns:xlink="http://www.w3.org/1999/xlink" width="126.224" height="54.56505" viewBox="0,0,126.224,54.56505"><g transform="translate(-176.888,-149.96267)"><g data-paper-data="{&quot;isPaintingLayer&quot;:true}" fill-rule="nonzero" stroke-linejoin="miter" stroke-miterlimit="10" stroke-dasharray="" stroke-dashoffset="0" style="mix-blend-mode: normal"><path d="M178.638,191.77772c0,-8.96537 0,-20.94029 0,-26c0,-6.56706 6.46679,-10.5 12.85068,-10.5c14.07202,0 69.36842,0 95.73756,0c10.21618,0 14.13575,3.93539 14.13575,10.25c0,8.19601 0,19.13233 0,24.25c0,5.37018 -0.02566,13 -13.81448,13c-25.65867,0 -81.69428,0 -96.05882,0c-6.38388,0 -12.85068,-2.0244 -12.85068,-11z" fill="#e65555" stroke="#000000" stroke-width="3.5" stroke-linecap="butt"/><path d="M178.63801,188.21267c0,-8.96537 0,-20.94029 0,-26c0,-6.56706 6.46679,-10.5 12.85068,-10.5c14.07202,0 69.36842,0 95.73756,0c10.21618,0 14.13575,3.93539 14.13575,10.25c0,8.19601 0,19.13233 0,24.25c0,5.37018 -0.02566,13 -13.81448,13c-25.65867,0 -81.69428,0 -96.05882,0c-6.38388,0 -12.85068,-2.0244 -12.85068,-11z" fill="#e65555" stroke="#000000" stroke-width="3.5" stroke-linecap="butt"/><path d="M188.80678,185.79645v-4.00245h3.30026v-11.57432h-3.30026v-3.99074h11.37537v3.99075h-3.32367v11.57433h3.32367v4.00245zM204.26533,173.80082l-1.28734,-1.56821c0.78021,-0.33549 1.40827,-0.749 1.8842,-1.24052c0.47593,-0.49153 0.71389,-0.90503 0.71389,-1.24052c0,-0.21066 -0.07022,-0.41351 -0.21066,-0.60856c-0.14044,-0.19505 -0.34719,-0.3745 -0.62026,-0.53834c-0.42911,-0.31988 -0.72949,-0.62806 -0.90113,-0.92454c-0.16384,-0.29648 -0.24576,-0.62416 -0.24576,-0.98306c0,-0.57735 0.20675,-1.03377 0.62027,-1.36925c0.42131,-0.33549 0.96746,-0.50323 1.63843,-0.50323c0.56175,0 1.06888,0.14434 1.5214,0.43302c0.46032,0.28868 0.81921,0.69828 1.07668,1.22882c0.26527,0.53054 0.3979,1.143 0.3979,1.83738c0,0.59296 -0.11313,1.17421 -0.33938,1.74376c-0.22626,0.56955 -0.55004,1.10399 -0.97135,1.60332c-0.41351,0.49153 -0.90113,0.92455 -1.46288,1.29904c-0.55394,0.36669 -1.1586,0.64367 -1.81397,0.83092zM211.08456,185.79645v-14.85118h4.24821l0.14044,2.6917l-0.58515,0.02341c0.22626,-0.48372 0.51103,-0.91284 0.85433,-1.28734c0.34329,-0.3745 0.73339,-0.68658 1.17031,-0.93624c0.43691,-0.24966 0.89333,-0.43691 1.36926,-0.56175c0.47593,-0.13263 0.95575,-0.19895 1.43948,-0.19895c0.73339,0 1.39656,0.11313 1.98952,0.33939c0.60075,0.21846 1.12349,0.57735 1.56821,1.07668c0.44472,0.49153 0.79971,1.1547 1.06498,1.98952l-0.70218,-0.05851l0.22236,-0.44472c0.24187,-0.44472 0.55394,-0.85042 0.93624,-1.21712c0.3823,-0.36669 0.80361,-0.67488 1.26393,-0.92454c0.46812,-0.24966 0.95185,-0.43691 1.45118,-0.56175c0.50713,-0.13263 0.99476,-0.19895 1.46289,-0.19895c1.17811,0 2.15727,0.23016 2.93747,0.69048c0.78021,0.45252 1.36926,1.1352 1.76717,2.04804c0.40571,0.91284 0.60856,2.02073 0.60856,3.32367v9.05817h-4.50567v-8.69537c0,-0.59296 -0.08582,-1.08449 -0.25747,-1.47459c-0.16384,-0.3979 -0.4096,-0.69438 -0.73729,-0.88943c-0.31988,-0.19505 -0.72169,-0.29257 -1.20541,-0.29257c-0.3901,0 -0.749,0.06632 -1.07668,0.19896c-0.32769,0.13263 -0.60856,0.31208 -0.84262,0.53834c-0.23406,0.21846 -0.41741,0.47593 -0.55004,0.7724c-0.12484,0.29648 -0.18725,0.63197 -0.18725,1.00646v8.83581h-4.50567v-8.71878c0,-0.56175 -0.08582,-1.03767 -0.25747,-1.42777c-0.16384,-0.3901 -0.41351,-0.68658 -0.749,-0.88943c-0.33549,-0.21066 -0.72559,-0.31598 -1.17031,-0.31598c-0.3901,0 -0.749,0.06632 -1.07668,0.19896c-0.32769,0.13263 -0.60856,0.31208 -0.84262,0.53834c-0.23406,0.21846 -0.41741,0.47593 -0.55004,0.7724c-0.12484,0.29648 -0.18725,0.62416 -0.18725,0.98306v8.85922zM256.34856,186.07733c-1.49019,0 -2.85164,-0.24966 -4.08436,-0.749c-1.22492,-0.50713 -2.2938,-1.21712 -3.20664,-2.12996c-0.91284,-0.91284 -1.62283,-1.98562 -2.12996,-3.21834c-0.49933,-1.23272 -0.749,-2.58248 -0.749,-4.04926c0,-1.47459 0.24966,-2.82434 0.749,-4.04926c0.50713,-1.23272 1.21712,-2.3055 2.12996,-3.21834c0.91284,-0.92064 1.98172,-1.63062 3.20664,-2.12996c1.23272,-0.50713 2.58638,-0.7607 4.06097,-0.7607c1.47459,0 2.82434,0.25357 4.04926,0.7607c1.23272,0.49933 2.30551,1.20931 3.21837,2.12996c0.91284,0.91284 1.61502,1.98562 2.10655,3.21835c0.49933,1.22492 0.749,2.57467 0.749,4.04926c0,1.45118 -0.24966,2.79703 -0.749,4.03756c-0.49153,1.24052 -1.19371,2.31721 -2.10655,3.23004c-0.91285,0.91284 -1.98564,1.62283 -3.21837,2.12996c-1.22492,0.49933 -2.56687,0.749 -4.02585,0.749zM256.32515,181.60676c0.7646,0 1.46678,-0.14044 2.10655,-0.42131c0.64757,-0.28087 1.20931,-0.67488 1.68524,-1.18201c0.47593,-0.51493 0.84262,-1.11569 1.10009,-1.80227c0.25747,-0.69438 0.3862,-1.45118 0.3862,-2.27039c0,-0.81921 -0.12873,-1.57211 -0.3862,-2.25869c-0.25747,-0.69438 -0.62416,-1.29904 -1.10009,-1.81397c-0.47593,-0.51493 -1.03767,-0.90894 -1.68524,-1.18201c-0.63977,-0.28087 -1.34195,-0.42131 -2.10655,-0.42131c-0.7646,0 -1.47068,0.14044 -2.11825,0.42131c-0.63977,0.27307 -1.20152,0.66708 -1.68524,1.18201c-0.48372,0.51493 -0.85432,1.11959 -1.11179,1.81398c-0.24966,0.68658 -0.3745,1.43948 -0.3745,2.25869c0,0.81921 0.12484,1.57992 0.3745,2.2821c0.25747,0.69438 0.62806,1.29514 1.11179,1.80227c0.48372,0.49933 1.04547,0.88943 1.68524,1.17031c0.64757,0.28087 1.35365,0.42131 2.11826,0.42131zM273.97193,181.43122l-1.65013,-3.34707l6.92821,-7.13887h5.89834zM269.6652,185.79645v-20.69101h4.47057v20.69101zM279.72983,185.79645l-5.23126,-6.76437l3.15983,-2.45764l7.34952,9.22201zM288.75897,186.10073c-0.7646,0 -1.35755,-0.21456 -1.77887,-0.64366c-0.42131,-0.42911 -0.63197,-1.04157 -0.63197,-1.83738c0,-0.749 0.22236,-1.35365 0.66708,-1.81397c0.45252,-0.46812 1.03377,-0.70218 1.74376,-0.70218c0.7646,0 1.36146,0.21846 1.79057,0.65537c0.42911,0.43691 0.64367,1.05718 0.64367,1.86079c0,0.72559 -0.22626,1.32245 -0.67878,1.79057c-0.44472,0.46032 -1.02987,0.69048 -1.75546,0.69048z" fill="#000000" stroke="none" stroke-width="1" stroke-linecap="square"/></g></g></svg>