<svg version="1.1" xmlns="http://www.w3.org/2000/svg" xmlns:xlink="http://www.w3.org/1999/xlink" width="45.74541" height="20.94689" viewBox="0,0,45.74541,20.94689"><g transform="translate(-217.12729,-169.52656)"><g data-paper-data="{&quot;isPaintingLayer&quot;:true}" fill="#000000" fill-rule="nonzero" stroke="none" stroke-width="0" stroke-linecap="butt" stroke-linejoin="miter" stroke-miterlimit="10" stroke-dasharray="" stroke-dashoffset="0" style="mix-blend-mode: normal"><path d="M223.06852,190.47344l-3.97433,-13.62629h41.44663l-3.69045,13.62629z"/><path d="M217.12729,177.07021c0,-1.83661 1.48887,-3.32546 3.32546,-3.32546c1.83661,0 3.32546,1.48887 3.32546,3.32546c0,1.83661 -1.48887,3.32546 -3.32546,3.32546c-1.83661,0 -3.32546,-1.48887 -3.32546,-3.32546z"/><path d="M256.22177,177.23243c0,-1.8366 1.48887,-3.32546 3.32547,-3.32546c1.8366,0 3.32546,1.48887 3.32546,3.32546c0,1.8366 -1.48885,3.32546 -3.32546,3.32546c-1.83661,0 -3.32547,-1.48887 -3.32547,-3.32546z"/><path d="M221.34495,179.09792v-4.86653c0,0 5.74972,-4.76208 18.16839,-4.70432c13.48569,0.06274 18.65504,4.70432 18.65504,4.70432v4.86653z"/><path d="M220.8583,176.58355c0,-1.8366 1.48887,-3.32546 3.32546,-3.32546c1.8366,0 3.32546,1.48887 3.32546,3.32546c0,1.8366 -1.48887,3.32546 -3.32546,3.32546c-1.8366,0 -3.32546,-1.48887 -3.32546,-3.32546z"/></g></g></svg>