<svg version="1.1" xmlns="http://www.w3.org/2000/svg" xmlns:xlink="http://www.w3.org/1999/xlink" width="205.64286" height="99.25" viewBox="0,0,205.64286,99.25"><g transform="translate(-137.30606,-131)"><g data-paper-data="{&quot;isPaintingLayer&quot;:true}" fill-rule="nonzero" stroke-linejoin="miter" stroke-miterlimit="10" stroke-dasharray="" stroke-dashoffset="0" style="mix-blend-mode: normal"><path d="M140.55606,207.25c0,-18.73959 -0.38249,-45.48871 0,-55.5c0.5,-13.0871 3.89541,-16.75 15.32143,-16.75c22.08229,0 127.56734,0 168,0c15.33535,0 15.82143,4.98326 15.82143,16.75c0,17.95892 0,45.32915 0,56c0,14.97422 -0.38765,19.25 -14.32143,19.25c-38.12556,0 -140.83396,0 -165,0c-18.91714,0 -19.82143,-3.40978 -19.82143,-19.75z" fill="#ffffff" stroke-opacity="0.25901" stroke="#000000" stroke-width="6.5" stroke-linecap="butt"/><path d="M140.47107,205.25c0,-18.73959 -0.38249,-45.48871 0,-55.5c0.5,-13.0871 3.89541,-16.75 15.32143,-16.75c22.08229,0 127.56734,0 168,0c15.33535,0 15.82143,4.98326 15.82143,16.75c0,17.95892 0,45.32915 0,56c0,14.97422 -0.38765,19.25 -14.32143,19.25c-38.12556,0 -140.83396,0 -165,0c-18.91714,0 -19.82143,-3.40978 -19.82143,-19.75z" fill="#ffffff" stroke="#000000" stroke-width="4" stroke-linecap="butt"/><path d="M149.33775,175.15865v-2.0353h1.68163v-5.89237h-1.68163v-2.0353h5.79228v2.0353h-1.69497v5.89237h1.69497v2.0353zM159.7399,175.29878c-0.73849,0 -1.39024,-0.11789 -1.95523,-0.35368c-0.56499,-0.23578 -1.01432,-0.55387 -1.34797,-0.95426l1.38134,-1.19449c0.29362,0.29362 0.62505,0.50938 0.9943,0.64729c0.3737,0.13791 0.72515,0.20687 1.05435,0.20687c0.13346,0 0.25135,-0.01335 0.35368,-0.04004c0.10677,-0.03114 0.19575,-0.07118 0.26693,-0.12012c0.07118,-0.05339 0.12456,-0.11567 0.16016,-0.18685c0.04004,-0.07118 0.06006,-0.15571 0.06006,-0.25358c0,-0.18685 -0.08453,-0.33366 -0.25358,-0.44043c-0.08453,-0.04449 -0.22689,-0.1001 -0.42708,-0.16683c-0.20019,-0.06673 -0.456,-0.14458 -0.76741,-0.23356c-0.44932,-0.11122 -0.83859,-0.24468 -1.1678,-0.40039c-0.32476,-0.16016 -0.59168,-0.34255 -0.80078,-0.5472c-0.18685,-0.20019 -0.33366,-0.42041 -0.44043,-0.66064c-0.10232,-0.24468 -0.15348,-0.51828 -0.15348,-0.82079c0,-0.35145 0.0823,-0.66954 0.24691,-0.95426c0.1646,-0.28472 0.38704,-0.53163 0.66731,-0.74072c0.28027,-0.20909 0.60281,-0.36702 0.9676,-0.47379c0.36925,-0.11122 0.74739,-0.16683 1.13443,-0.16683c0.41818,0 0.81635,0.04894 1.19449,0.14681c0.37814,0.09342 0.73182,0.22466 1.06103,0.39371c0.32921,0.16905 0.6206,0.3737 0.87418,0.61393l-1.19449,1.33463c-0.16905,-0.16016 -0.36035,-0.30474 -0.57389,-0.43375c-0.21354,-0.12901 -0.43598,-0.23133 -0.66731,-0.30696c-0.22689,-0.07563 -0.43375,-0.11344 -0.6206,-0.11344c-0.14236,0 -0.26915,0.01335 -0.38037,0.04004c-0.10677,0.02224 -0.20019,0.06006 -0.28027,0.11344c-0.07563,0.04894 -0.13346,0.109 -0.1735,0.18017c-0.03559,0.07118 -0.05339,0.15571 -0.05339,0.25358c0,0.09342 0.02669,0.1824 0.08008,0.26693c0.05339,0.08453 0.12679,0.15571 0.22021,0.21354c0.09787,0.05783 0.24913,0.12234 0.45377,0.19352c0.20909,0.07118 0.49381,0.15793 0.85416,0.26025c0.44932,0.12456 0.83414,0.26248 1.15445,0.41373c0.32476,0.15126 0.58056,0.33143 0.76741,0.54052c0.15571,0.1646 0.27137,0.35368 0.347,0.56722c0.07563,0.21354 0.11344,0.44265 0.11344,0.68733c0,0.48491 -0.13569,0.91422 -0.40706,1.28791c-0.27137,0.3737 -0.64507,0.66731 -1.12109,0.88085c-0.47157,0.21354 -1.01209,0.32031 -1.62157,0.32031zM169.41855,175.15865v-9.4625h2.28221v9.4625zM168.08392,169.59326v-1.99527h5.07825v1.99527zM174.45632,175.15865v-10.5302h2.2355v4.51104l-0.45377,0.16683c0.10677,-0.3381 0.29362,-0.64729 0.56054,-0.92756c0.27137,-0.28027 0.59613,-0.50493 0.97428,-0.67399c0.38259,-0.1735 0.78298,-0.26025 1.20116,-0.26025c0.56944,0 1.04768,0.11567 1.43472,0.347c0.38704,0.23133 0.68066,0.57834 0.88085,1.04101c0.20019,0.45822 0.30029,1.02099 0.30029,1.6883v4.63782h-2.28888v-4.45765c0,-0.30252 -0.04449,-0.55164 -0.13346,-0.74739c-0.08453,-0.20019 -0.21577,-0.34923 -0.39371,-0.4471c-0.1735,-0.10232 -0.38704,-0.14903 -0.64062,-0.14014c-0.20019,0 -0.38704,0.03114 -0.56054,0.09342c-0.16905,0.06228 -0.31586,0.15348 -0.44043,0.2736c-0.12012,0.11567 -0.21577,0.24913 -0.28694,0.40039c-0.07118,0.15126 -0.10677,0.31809 -0.10677,0.50048v4.52438h-1.12776c-0.26693,0 -0.49604,0 -0.68733,0c-0.18685,0 -0.34255,0 -0.46712,0zM187.09823,175.29878c-0.83637,0 -1.56374,-0.16683 -2.18211,-0.50048c-0.61393,-0.3381 -1.09217,-0.79855 -1.43472,-1.38134c-0.3381,-0.58279 -0.50716,-1.2501 -0.50716,-2.00194c0,-0.57834 0.09342,-1.10996 0.28027,-1.59488c0.1913,-0.48491 0.456,-0.90532 0.7941,-1.26122c0.34255,-0.3559 0.74962,-0.6295 1.22118,-0.82079c0.47157,-0.19575 0.9854,-0.29362 1.54149,-0.29362c0.53385,0 1.02099,0.09565 1.46142,0.28694c0.44043,0.18685 0.82079,0.45155 1.14111,0.7941c0.32476,0.34255 0.57166,0.74739 0.74072,1.21451c0.1735,0.46267 0.25135,0.96983 0.23356,1.52147l-0.01335,0.60725h-6.02584l-0.32698,-1.28124h4.49769l-0.24023,0.2736v-0.28694c-0.01779,-0.23578 -0.0912,-0.44487 -0.22021,-0.62727c-0.12901,-0.18685 -0.29807,-0.33143 -0.50716,-0.43375c-0.20909,-0.10677 -0.44487,-0.16016 -0.70735,-0.16016c-0.36925,0 -0.68511,0.0734 -0.94758,0.22021c-0.26248,0.14681 -0.46045,0.36035 -0.59391,0.64062c-0.13346,0.28027 -0.20019,0.62283 -0.20019,1.02766c0,0.41818 0.08675,0.78298 0.26025,1.09439c0.17795,0.30696 0.43598,0.5472 0.77408,0.7207c0.3381,0.16905 0.73849,0.25358 1.20116,0.25358c0.32476,0 0.6117,-0.04671 0.86083,-0.14014c0.25358,-0.09787 0.52718,-0.26025 0.82079,-0.48714l1.0677,1.50813c-0.29362,0.25803 -0.60725,0.46712 -0.94091,0.62727c-0.32921,0.16016 -0.66731,0.28027 -1.01432,0.36035c-0.347,0.08008 -0.69178,0.12012 -1.03434,0.12012zM191.83573,175.15865v-7.56066h2.16877l0.1001,2.46238l-0.42708,-0.46712c0.11122,-0.40929 0.29807,-0.77408 0.56054,-1.09439c0.26248,-0.32476 0.56722,-0.58056 0.91422,-0.76741c0.35145,-0.1913 0.72737,-0.28694 1.12776,-0.28694c0.16905,0 0.32698,0.01557 0.47379,0.04671c0.14681,0.02669 0.2825,0.05783 0.40706,0.09342l-0.62727,2.52244c-0.10232,-0.06673 -0.24246,-0.12012 -0.42041,-0.16016c-0.1735,-0.04449 -0.3559,-0.06673 -0.5472,-0.06673c-0.20909,0 -0.40484,0.03559 -0.58724,0.10677c-0.17795,0.07118 -0.32921,0.1735 -0.45377,0.30696c-0.12012,0.12901 -0.21577,0.28472 -0.28694,0.46712c-0.07118,0.17795 -0.10677,0.38259 -0.10677,0.61393v3.78366zM201.60239,175.29878c-0.83637,0 -1.56374,-0.16683 -2.18211,-0.50048c-0.61393,-0.3381 -1.09217,-0.79855 -1.43472,-1.38134c-0.3381,-0.58279 -0.50716,-1.2501 -0.50716,-2.00194c0,-0.57834 0.09342,-1.10996 0.28027,-1.59488c0.1913,-0.48491 0.456,-0.90532 0.7941,-1.26122c0.34255,-0.3559 0.74962,-0.6295 1.22118,-0.82079c0.47157,-0.19575 0.9854,-0.29362 1.54149,-0.29362c0.53385,0 1.02099,0.09565 1.46142,0.28694c0.44043,0.18685 0.82079,0.45155 1.14111,0.7941c0.32476,0.34255 0.57166,0.74739 0.74072,1.21451c0.1735,0.46267 0.25135,0.96983 0.23356,1.52147l-0.01335,0.60725h-6.02584l-0.32698,-1.28124h4.49769l-0.24023,0.2736v-0.28694c-0.01779,-0.23578 -0.0912,-0.44487 -0.22021,-0.62727c-0.12901,-0.18685 -0.29807,-0.33143 -0.50716,-0.43375c-0.20909,-0.10677 -0.44487,-0.16016 -0.70735,-0.16016c-0.36925,0 -0.68511,0.0734 -0.94758,0.22021c-0.26248,0.14681 -0.46045,0.36035 -0.59391,0.64062c-0.13346,0.28027 -0.20019,0.62283 -0.20019,1.02766c0,0.41818 0.08675,0.78298 0.26025,1.09439c0.17795,0.30696 0.43598,0.5472 0.77408,0.7207c0.3381,0.16905 0.73849,0.25358 1.20116,0.25358c0.32476,0 0.6117,-0.04671 0.86083,-0.14014c0.25358,-0.09787 0.52718,-0.26025 0.82079,-0.48714l1.0677,1.50813c-0.29362,0.25803 -0.60725,0.46712 -0.94091,0.62727c-0.32921,0.16016 -0.66731,0.28027 -1.01432,0.36035c-0.347,0.08008 -0.69178,0.12012 -1.03434,0.12012zM213.69072,175.28544c-0.63617,0 -1.20339,-0.16683 -1.70165,-0.50048c-0.49826,-0.3381 -0.89642,-0.803 -1.19449,-1.39468c-0.29362,-0.59613 -0.44043,-1.26789 -0.44043,-2.01528c0,-0.76963 0.14681,-1.44807 0.44043,-2.0353c0.29807,-0.59168 0.7029,-1.05435 1.21451,-1.38801c0.51161,-0.3381 1.09439,-0.50716 1.74836,-0.50716c0.36035,0 0.68956,0.05339 0.98762,0.16016c0.30252,0.10232 0.56722,0.24691 0.7941,0.43375c0.22689,0.1824 0.42041,0.39594 0.58056,0.64062c0.1646,0.24023 0.28472,0.49826 0.36035,0.77408l-0.47379,-0.06006v-1.79507h2.26219v7.56066h-2.30223v-1.82176l0.51383,-0.01335c-0.07563,0.26693 -0.20019,0.51828 -0.3737,0.75406c-0.16905,0.23578 -0.37814,0.44487 -0.62727,0.62727c-0.24468,0.17795 -0.5205,0.32031 -0.82747,0.42708c-0.30252,0.10232 -0.62283,0.15348 -0.96093,0.15348zM214.31132,173.36357c0.35145,0 0.65397,-0.08008 0.90755,-0.24023c0.25803,-0.16016 0.45822,-0.38927 0.60058,-0.68733c0.14236,-0.30252 0.21354,-0.65619 0.21354,-1.06103c0,-0.40929 -0.07118,-0.76296 -0.21354,-1.06103c-0.14236,-0.29807 -0.34255,-0.5294 -0.60058,-0.69401c-0.25358,-0.16905 -0.55609,-0.25358 -0.90755,-0.25358c-0.3381,0 -0.63395,0.08453 -0.88753,0.25358c-0.24913,0.1646 -0.44487,0.39594 -0.58724,0.69401c-0.14236,0.29807 -0.21354,0.65174 -0.21354,1.06103c0,0.40484 0.07118,0.75851 0.21354,1.06103c0.14236,0.29807 0.3381,0.52718 0.58724,0.68733c0.25358,0.16016 0.54942,0.24023 0.88753,0.24023zM225.4568,175.15865v-9.4625h2.28221v9.4625zM224.12218,169.59326v-1.99527h5.07825v1.99527zM230.49456,175.15865v-7.56066h2.16877l0.1001,2.46238l-0.42708,-0.46712c0.11122,-0.40929 0.29807,-0.77408 0.56054,-1.09439c0.26248,-0.32476 0.56722,-0.58056 0.91422,-0.76741c0.35145,-0.1913 0.72737,-0.28694 1.12776,-0.28694c0.16905,0 0.32698,0.01557 0.47379,0.04671c0.14681,0.02669 0.2825,0.05783 0.40706,0.09342l-0.62727,2.52244c-0.10232,-0.06673 -0.24246,-0.12012 -0.42041,-0.16016c-0.1735,-0.04449 -0.3559,-0.06673 -0.5472,-0.06673c-0.20909,0 -0.40484,0.03559 -0.58724,0.10677c-0.17795,0.07118 -0.32921,0.1735 -0.45377,0.30696c-0.12012,0.12901 -0.21577,0.28472 -0.28694,0.46712c-0.07118,0.17795 -0.10677,0.38259 -0.10677,0.61393v3.78366zM239.55342,175.31213c-0.56054,0 -1.03878,-0.12012 -1.43472,-0.36035c-0.39149,-0.24023 -0.69401,-0.58724 -0.90755,-1.04101c-0.21354,-0.45822 -0.32031,-1.00542 -0.32031,-1.64159v-4.67119h2.28888v4.35755c0,0.30252 0.04671,0.56277 0.14014,0.78076c0.09787,0.21799 0.24023,0.38704 0.42708,0.50716c0.1913,0.12012 0.42041,0.18017 0.68733,0.18017c0.20019,0 0.38259,-0.03337 0.5472,-0.1001c0.1646,-0.06673 0.30696,-0.15793 0.42708,-0.2736c0.12012,-0.12012 0.21132,-0.25803 0.2736,-0.41373c0.06673,-0.16016 0.1001,-0.33366 0.1001,-0.5205v-4.51771h2.29556v7.56066h-2.14875l-0.1001,-1.54817l0.42708,-0.1735c-0.11567,0.36035 -0.30696,0.68066 -0.57389,0.96093c-0.26248,0.28027 -0.58056,0.50271 -0.95426,0.66731c-0.36925,0.1646 -0.76074,0.24691 -1.17447,0.24691zM249.71248,175.29878c-0.83637,0 -1.56374,-0.16683 -2.18211,-0.50048c-0.61393,-0.3381 -1.09217,-0.79855 -1.43472,-1.38134c-0.3381,-0.58279 -0.50716,-1.2501 -0.50716,-2.00194c0,-0.57834 0.09342,-1.10996 0.28027,-1.59488c0.1913,-0.48491 0.456,-0.90532 0.7941,-1.26122c0.34255,-0.3559 0.74962,-0.6295 1.22118,-0.82079c0.47157,-0.19575 0.9854,-0.29362 1.54149,-0.29362c0.53385,0 1.02099,0.09565 1.46142,0.28694c0.44043,0.18685 0.82079,0.45155 1.14111,0.7941c0.32476,0.34255 0.57166,0.74739 0.74072,1.21451c0.1735,0.46267 0.25135,0.96983 0.23356,1.52147l-0.01335,0.60725h-6.02584l-0.32698,-1.28124h4.49769l-0.24023,0.2736v-0.28694c-0.01779,-0.23578 -0.0912,-0.44487 -0.22021,-0.62727c-0.12901,-0.18685 -0.29807,-0.33143 -0.50716,-0.43375c-0.20909,-0.10677 -0.44487,-0.16016 -0.70735,-0.16016c-0.36925,0 -0.68511,0.0734 -0.94758,0.22021c-0.26248,0.14681 -0.46045,0.36035 -0.59391,0.64062c-0.13346,0.28027 -0.20019,0.62283 -0.20019,1.02766c0,0.41818 0.08675,0.78298 0.26025,1.09439c0.17795,0.30696 0.43598,0.5472 0.77408,0.7207c0.3381,0.16905 0.73849,0.25358 1.20116,0.25358c0.32476,0 0.6117,-0.04671 0.86083,-0.14014c0.25358,-0.09787 0.52718,-0.26025 0.82079,-0.48714l1.0677,1.50813c-0.29362,0.25803 -0.60725,0.46712 -0.94091,0.62727c-0.32921,0.16016 -0.66731,0.28027 -1.01432,0.36035c-0.347,0.08008 -0.69178,0.12012 -1.03434,0.12012zM259.00479,178.28834v-10.69035h2.16877l0.08008,1.69497l-0.42708,-0.12679c0.06673,-0.31141 0.22911,-0.59613 0.48714,-0.85416c0.25803,-0.25803 0.58279,-0.46489 0.97428,-0.6206c0.39594,-0.15571 0.8119,-0.23356 1.24788,-0.23356c0.64507,0 1.21896,0.16905 1.72167,0.50716c0.50271,0.33366 0.89865,0.7941 1.18782,1.38134c0.28917,0.58279 0.43375,1.259 0.43375,2.02863c0,0.75629 -0.14458,1.43027 -0.43375,2.02196c-0.28917,0.58724 -0.68733,1.04991 -1.19449,1.38801c-0.50716,0.33366 -1.08995,0.50048 -1.74836,0.50048c-0.42708,0 -0.83414,-0.08008 -1.22118,-0.24023c-0.38704,-0.16016 -0.71402,-0.37814 -0.98095,-0.65397c-0.26693,-0.27582 -0.44265,-0.57611 -0.52718,-0.90087l0.52718,-0.19352v4.9915zM262.9486,173.36357c0.34255,0 0.64062,-0.0823 0.8942,-0.24691c0.25803,-0.1646 0.45822,-0.39371 0.60058,-0.68733c0.14236,-0.29807 0.21354,-0.64952 0.21354,-1.05435c0,-0.40039 -0.07118,-0.74962 -0.21354,-1.04768c-0.14236,-0.29807 -0.34033,-0.5294 -0.59391,-0.69401c-0.24913,-0.16905 -0.54942,-0.25358 -0.90087,-0.25358c-0.35145,0 -0.65619,0.0823 -0.91422,0.24691c-0.25358,0.16016 -0.45155,0.39149 -0.59391,0.69401c-0.14236,0.30252 -0.21354,0.65397 -0.21354,1.05435c0,0.40484 0.07118,0.75629 0.21354,1.05435c0.14236,0.29362 0.34033,0.52273 0.59391,0.68733c0.25803,0.1646 0.56277,0.24691 0.91422,0.24691zM271.18087,175.28544c-0.63617,0 -1.20339,-0.16683 -1.70165,-0.50048c-0.49826,-0.3381 -0.89642,-0.803 -1.19449,-1.39468c-0.29362,-0.59613 -0.44043,-1.26789 -0.44043,-2.01528c0,-0.76963 0.14681,-1.44807 0.44043,-2.0353c0.29807,-0.59168 0.7029,-1.05435 1.21451,-1.38801c0.51161,-0.3381 1.09439,-0.50716 1.74836,-0.50716c0.36035,0 0.68956,0.05339 0.98762,0.16016c0.30252,0.10232 0.56722,0.24691 0.7941,0.43375c0.22689,0.1824 0.42041,0.39594 0.58056,0.64062c0.1646,0.24023 0.28472,0.49826 0.36035,0.77408l-0.47379,-0.06006v-1.79507h2.26219v7.56066h-2.30223v-1.82176l0.51383,-0.01335c-0.07563,0.26693 -0.20019,0.51828 -0.3737,0.75406c-0.16905,0.23578 -0.37814,0.44487 -0.62727,0.62727c-0.24468,0.17795 -0.5205,0.32031 -0.82747,0.42708c-0.30252,0.10232 -0.62283,0.15348 -0.96093,0.15348zM271.80147,173.36357c0.35145,0 0.65397,-0.08008 0.90755,-0.24023c0.25803,-0.16016 0.45822,-0.38927 0.60058,-0.68733c0.14236,-0.30252 0.21354,-0.65619 0.21354,-1.06103c0,-0.40929 -0.07118,-0.76296 -0.21354,-1.06103c-0.14236,-0.29807 -0.34255,-0.5294 -0.60058,-0.69401c-0.25358,-0.16905 -0.55609,-0.25358 -0.90755,-0.25358c-0.3381,0 -0.63395,0.08453 -0.88753,0.25358c-0.24913,0.1646 -0.44487,0.39594 -0.58724,0.69401c-0.14236,0.29807 -0.21354,0.65174 -0.21354,1.06103c0,0.40484 0.07118,0.75851 0.21354,1.06103c0.14236,0.29807 0.3381,0.52718 0.58724,0.68733c0.25358,0.16016 0.54942,0.24023 0.88753,0.24023zM278.39215,175.15865v-9.4625h2.28221v9.4625zM277.05753,169.59326v-1.99527h5.07825v1.99527zM284.05717,175.15865v-9.4625h2.28221v9.4625zM282.72254,169.59326v-1.99527h5.07825v1.99527zM292.62724,175.29878c-0.83637,0 -1.56374,-0.16683 -2.18211,-0.50048c-0.61393,-0.3381 -1.09217,-0.79855 -1.43472,-1.38134c-0.3381,-0.58279 -0.50716,-1.2501 -0.50716,-2.00194c0,-0.57834 0.09342,-1.10996 0.28027,-1.59488c0.1913,-0.48491 0.456,-0.90532 0.7941,-1.26122c0.34255,-0.3559 0.74962,-0.6295 1.22118,-0.82079c0.47157,-0.19575 0.9854,-0.29362 1.54149,-0.29362c0.53385,0 1.02099,0.09565 1.46142,0.28694c0.44043,0.18685 0.82079,0.45155 1.14111,0.7941c0.32476,0.34255 0.57166,0.74739 0.74072,1.21451c0.1735,0.46267 0.25135,0.96983 0.23356,1.52147l-0.01335,0.60725h-6.02584l-0.32698,-1.28124h4.49769l-0.24023,0.2736v-0.28694c-0.01779,-0.23578 -0.0912,-0.44487 -0.22021,-0.62727c-0.12901,-0.18685 -0.29807,-0.33143 -0.50716,-0.43375c-0.20909,-0.10677 -0.44487,-0.16016 -0.70735,-0.16016c-0.36925,0 -0.68511,0.0734 -0.94758,0.22021c-0.26248,0.14681 -0.46045,0.36035 -0.59391,0.64062c-0.13346,0.28027 -0.20019,0.62283 -0.20019,1.02766c0,0.41818 0.08675,0.78298 0.26025,1.09439c0.17795,0.30696 0.43598,0.5472 0.77408,0.7207c0.3381,0.16905 0.73849,0.25358 1.20116,0.25358c0.32476,0 0.6117,-0.04671 0.86083,-0.14014c0.25358,-0.09787 0.52718,-0.26025 0.82079,-0.48714l1.0677,1.50813c-0.29362,0.25803 -0.60725,0.46712 -0.94091,0.62727c-0.32921,0.16016 -0.66731,0.28027 -1.01432,0.36035c-0.347,0.08008 -0.69178,0.12012 -1.03434,0.12012zM297.36475,175.15865v-7.56066h2.16877l0.1001,2.46238l-0.42708,-0.46712c0.11122,-0.40929 0.29807,-0.77408 0.56054,-1.09439c0.26248,-0.32476 0.56722,-0.58056 0.91422,-0.76741c0.35145,-0.1913 0.72737,-0.28694 1.12776,-0.28694c0.16905,0 0.32698,0.01557 0.47379,0.04671c0.14681,0.02669 0.2825,0.05783 0.40706,0.09342l-0.62727,2.52244c-0.10232,-0.06673 -0.24246,-0.12012 -0.42041,-0.16016c-0.1735,-0.04449 -0.3559,-0.06673 -0.5472,-0.06673c-0.20909,0 -0.40484,0.03559 -0.58724,0.10677c-0.17795,0.07118 -0.32921,0.1735 -0.45377,0.30696c-0.12012,0.12901 -0.21577,0.28472 -0.28694,0.46712c-0.07118,0.17795 -0.10677,0.38259 -0.10677,0.61393v3.78366zM303.8411,175.15865v-7.56066h2.16877l0.06673,1.54149l-0.45377,0.16683c0.10677,-0.3381 0.29362,-0.64729 0.56054,-0.92756c0.27137,-0.28027 0.59613,-0.50493 0.97428,-0.67399c0.38259,-0.1735 0.78298,-0.26025 1.20116,-0.26025c0.56944,0 1.04768,0.11567 1.43472,0.347c0.38704,0.23133 0.68066,0.57834 0.88085,1.04101c0.20019,0.45822 0.30029,1.02099 0.30029,1.6883v4.63782h-2.28888v-4.45765c0,-0.30252 -0.04449,-0.55164 -0.13346,-0.74739c-0.08453,-0.20019 -0.21577,-0.34923 -0.39371,-0.4471c-0.1735,-0.10232 -0.38704,-0.14903 -0.64062,-0.14014c-0.20019,0 -0.38704,0.03114 -0.56054,0.09342c-0.16905,0.06228 -0.31586,0.15348 -0.44043,0.2736c-0.12012,0.11567 -0.21577,0.24913 -0.28694,0.40039c-0.07118,0.15126 -0.10677,0.31809 -0.10677,0.50048v4.52438h-1.12776c-0.26693,0 -0.49604,0 -0.68733,0c-0.18685,0 -0.34255,0 -0.46712,0zM318.06161,175.15865v-9.4625h2.28221v9.4625zM316.72699,169.59326v-1.99527h5.07825v1.99527zM326.59164,175.29878c-0.78743,0 -1.48811,-0.16905 -2.10204,-0.50716c-0.61393,-0.34255 -1.09884,-0.80745 -1.45474,-1.39468c-0.35145,-0.59168 -0.52718,-1.26567 -0.52718,-2.02196c0,-0.76074 0.17573,-1.43472 0.52718,-2.02196c0.3559,-0.59168 0.84081,-1.05658 1.45474,-1.39468c0.61393,-0.34255 1.31461,-0.51383 2.10204,-0.51383c0.78743,0 1.48588,0.17128 2.09536,0.51383c0.61393,0.3381 1.09662,0.803 1.44807,1.39468c0.35145,0.58724 0.52718,1.26122 0.52718,2.02196c0,0.75629 -0.17573,1.43027 -0.52718,2.02196c-0.35145,0.58724 -0.83414,1.05213 -1.44807,1.39468c-0.60948,0.3381 -1.30793,0.50716 -2.09536,0.50716zM326.59164,173.33688c0.3381,0 0.64062,-0.08453 0.90755,-0.25358c0.26693,-0.1735 0.47602,-0.40706 0.62727,-0.70068c0.15126,-0.29362 0.22244,-0.6295 0.21354,-1.00764c0.0089,-0.38259 -0.06228,-0.72292 -0.21354,-1.02099c-0.15126,-0.29807 -0.36035,-0.53163 -0.62727,-0.70068c-0.26693,-0.1735 -0.56944,-0.26025 -0.90755,-0.26025c-0.34255,0 -0.64952,0.08675 -0.92089,0.26025c-0.27137,0.16905 -0.48269,0.40261 -0.63395,0.70068c-0.15126,0.29807 -0.22244,0.6384 -0.21354,1.02099c-0.0089,0.37814 0.06228,0.71402 0.21354,1.00764c0.15126,0.29362 0.36257,0.52718 0.63395,0.70068c0.27137,0.16905 0.57834,0.25358 0.92089,0.25358z" fill="#000000" stroke="none" stroke-width="1" stroke-linecap="square"/><path d="M229.94656,195.37155v-10.69035h2.16877l0.08008,1.69497l-0.42708,-0.12679c0.06673,-0.31141 0.22911,-0.59613 0.48714,-0.85416c0.25803,-0.25803 0.58279,-0.46489 0.97428,-0.6206c0.39594,-0.15571 0.8119,-0.23356 1.24788,-0.23356c0.64507,0 1.21896,0.16905 1.72167,0.50716c0.50271,0.33366 0.89865,0.7941 1.18782,1.38134c0.28917,0.58279 0.43375,1.259 0.43375,2.02863c0,0.75629 -0.14458,1.43027 -0.43375,2.02196c-0.28917,0.58724 -0.68733,1.04991 -1.19449,1.38801c-0.50716,0.33366 -1.08995,0.50048 -1.74836,0.50048c-0.42708,0 -0.83414,-0.08008 -1.22118,-0.24023c-0.38704,-0.16016 -0.71402,-0.37814 -0.98095,-0.65397c-0.26693,-0.27582 -0.44265,-0.57611 -0.52718,-0.90087l0.52718,-0.19352v4.9915zM233.89038,190.44678c0.34255,0 0.64062,-0.0823 0.8942,-0.24691c0.25803,-0.1646 0.45822,-0.39371 0.60058,-0.68733c0.14236,-0.29807 0.21354,-0.64952 0.21354,-1.05435c0,-0.40039 -0.07118,-0.74962 -0.21354,-1.04768c-0.14236,-0.29807 -0.34033,-0.5294 -0.59391,-0.69401c-0.24913,-0.16905 -0.54942,-0.25358 -0.90087,-0.25358c-0.35145,0 -0.65619,0.0823 -0.91422,0.24691c-0.25358,0.16016 -0.45155,0.39149 -0.59391,0.69401c-0.14236,0.30252 -0.21354,0.65397 -0.21354,1.05435c0,0.40484 0.07118,0.75629 0.21354,1.05435c0.14236,0.29362 0.34033,0.52273 0.59391,0.68733c0.25803,0.1646 0.56277,0.24691 0.91422,0.24691zM239.46007,192.24185v-7.56066h2.27554v7.56066zM240.5945,183.18642c-0.42708,0 -0.76074,-0.1001 -1.00097,-0.30029c-0.24023,-0.20464 -0.36035,-0.49826 -0.36035,-0.88085c0,-0.3381 0.12234,-0.61615 0.36702,-0.83414c0.24468,-0.22244 0.57611,-0.33366 0.9943,-0.33366c0.42708,0 0.75851,0.10232 0.9943,0.30696c0.24023,0.20464 0.36035,0.49159 0.36035,0.86083c0,0.35145 -0.12234,0.63617 -0.36702,0.85416c-0.24023,0.21799 -0.56944,0.32698 -0.98762,0.32698zM245.63556,188.82521l-0.45377,-1.8618c0.27582,-0.06673 0.53608,-0.14458 0.78076,-0.23356c0.24468,-0.09342 0.47157,-0.1913 0.68066,-0.29362c0.20909,-0.10677 0.38704,-0.22911 0.53385,-0.36702c0.14681,-0.13791 0.26248,-0.28917 0.347,-0.45377c0.08898,-0.1646 0.13346,-0.34255 0.13346,-0.53385c0,-0.1913 -0.04894,-0.35368 -0.14681,-0.48714c-0.09342,-0.13791 -0.22021,-0.24468 -0.38037,-0.32031c-0.16016,-0.08008 -0.34923,-0.12012 -0.56722,-0.12012c-0.31586,0 -0.63172,0.11344 -0.94758,0.34033c-0.31141,0.22244 -0.59836,0.58056 -0.86083,1.07437l-1.55484,-1.4414c0.42708,-0.65397 0.93646,-1.16112 1.52815,-1.52147c0.59613,-0.36035 1.21673,-0.54052 1.8618,-0.54052c0.62727,0 1.19227,0.12679 1.69497,0.38037c0.50271,0.24913 0.90087,0.59391 1.19449,1.03434c0.29362,0.44043 0.44043,0.93646 0.44043,1.48811c0,0.35145 -0.0734,0.69845 -0.22021,1.04101c-0.14681,0.34255 -0.35145,0.66286 -0.61393,0.96093c-0.25803,0.29807 -0.56277,0.56054 -0.91422,0.78743c-0.35145,0.22689 -0.74072,0.40261 -1.1678,0.52718l-0.14681,0.54052zM245.12173,191.13411c0,-0.38259 0.11344,-0.69178 0.34033,-0.92756c0.23133,-0.23578 0.52718,-0.35368 0.88753,-0.35368c0.38704,0 0.68956,0.11122 0.90755,0.33366c0.21799,0.22244 0.32698,0.5383 0.32698,0.94758c0,0.36925 -0.11344,0.67176 -0.34033,0.90755c-0.22689,0.23578 -0.52495,0.35368 -0.8942,0.35368c-0.39149,0 -0.69401,-0.109 -0.90755,-0.32698c-0.21354,-0.21799 -0.32031,-0.5294 -0.32031,-0.93424z" fill="#000000" stroke="none" stroke-width="1" stroke-linecap="square"/></g></g></svg>