<svg version="1.1" xmlns="http://www.w3.org/2000/svg" xmlns:xlink="http://www.w3.org/1999/xlink" width="183.5" height="183.5" viewBox="0,0,183.5,183.5"><defs><radialGradient cx="240" cy="180" r="87" gradientUnits="userSpaceOnUse" id="color-1"><stop offset="0" stop-color="#888888" stop-opacity="0"/><stop offset="1" stop-color="#888888"/></radialGradient></defs><g transform="translate(-148.25,-88.25)"><g data-paper-data="{&quot;isPaintingLayer&quot;:true}" fill-rule="nonzero" stroke-linecap="butt" stroke-linejoin="miter" stroke-miterlimit="10" stroke-dasharray="" stroke-dashoffset="0" style="mix-blend-mode: normal"><path d="M150.5,180c0,-49.42949 40.07051,-89.5 89.5,-89.5c49.42949,0 89.5,40.07051 89.5,89.5c0,49.42949 -40.07051,89.5 -89.5,89.5c-49.42949,0 -89.5,-40.07051 -89.5,-89.5z" fill="#c3c3c3" stroke="#000000" stroke-width="4.5"/><path d="M153,180c0,-48.04877 38.95123,-87 87,-87c48.04877,0 87,38.95123 87,87c0,48.04877 -38.95123,87 -87,87c-48.04877,0 -87,-38.95123 -87,-87z" fill="url(#color-1)" stroke="none" stroke-width="0"/><path d="M183,180c0,-31.48023 25.51977,-57 57,-57c31.48023,0 57,25.51977 57,57c0,31.48023 -25.51977,57 -57,57c-31.48023,0 -57,-25.51977 -57,-57z" fill="#a5a5a5" stroke="none" stroke-width="0"/></g></g></svg>