<svg version="1.1" xmlns="http://www.w3.org/2000/svg" xmlns:xlink="http://www.w3.org/1999/xlink" width="289.97428" height="214.79442" viewBox="0,0,289.97428,214.79442"><g transform="translate(-90.59454,-41.074)"><g data-paper-data="{&quot;isPaintingLayer&quot;:true}" stroke-linecap="butt" stroke-linejoin="miter" stroke-dasharray="" stroke-dashoffset="0" style="mix-blend-mode: normal"><path d="M94.8246,228.81048c0,-31.7004 0,-180.64444 0,-180.64444h281.74422c0,0 0,139.75053 0,173.7376c0,23.53316 -8.40409,29.96479 -22.23508,29.96479c-57.82607,0 -207.37465,0 -237.34459,0c-9.99398,0 -22.16455,-4.82545 -22.16455,-23.05794z" fill-opacity="0.21932" fill="#000000" fill-rule="nonzero" stroke-opacity="0.22039" stroke="#000000" stroke-width="8" stroke-miterlimit="10"/><path d="M94.59454,225.71845c0,-31.7004 0,-180.64444 0,-180.64444h281.74422c0,0 0,139.75053 0,173.7376c0,23.53316 -8.40409,29.96479 -22.23508,29.96479c-57.82607,0 -207.37465,0 -237.34459,0c-9.99398,0 -22.16455,-4.82545 -22.16455,-23.05794z" fill="#e8e8e8" fill-rule="nonzero" stroke="#d1d1d1" stroke-width="8" stroke-miterlimit="10"/><path d="M171.25726,135.71331c0.71801,0 1.49741,-0.10943 2.33821,-0.33098c0.83812,-0.22688 1.56414,-0.60324 2.17806,-1.13174c0.61925,-0.52583 0.92888,-1.2385 0.92888,-2.13535c0,-0.83812 -0.32564,-1.5161 -0.97159,-2.02859c-0.6406,-0.51248 -1.48941,-0.93154 -2.54107,-1.25985c-1.04632,-0.32564 -2.19407,-0.6326 -3.43792,-0.91821c-1.24651,-0.28294 -2.49836,-0.62993 -3.75822,-1.03565c-1.25986,-0.40572 -2.41828,-0.93956 -3.46994,-1.60152c-1.04632,-0.66196 -1.89513,-1.5161 -2.54107,-2.56242c-0.64862,-1.05166 -0.97158,-2.39159 -0.97158,-4.01446c0,-1.5855 0.33098,-2.95746 0.99294,-4.11056c0.66196,-1.15843 1.54013,-2.11934 2.63716,-2.88273c1.09437,-0.76873 2.32219,-1.33726 3.68348,-1.70828c1.36662,-0.37636 2.73859,-0.56587 4.12123,-0.56587c2.09798,0 4.0625,0.33098 5.89357,0.99294c1.83641,0.65662 3.33115,1.6976 4.48424,3.12829c1.15309,1.42534 1.76166,3.30712 1.82573,5.648h-6.53418c-0.17883,-1.5935 -0.73403,-2.69588 -1.66557,-3.30979c-0.92621,-0.61124 -2.22878,-0.9182 -3.9077,-0.9182c-0.63527,0 -1.30256,0.10677 -2.00723,0.3203c-0.70467,0.2082 -1.3079,0.54185 -1.80437,1.00362c-0.49113,0.46444 -0.7367,1.08636 -0.7367,1.86843c0,0.77674 0.3203,1.39332 0.96091,1.84708c0.64595,0.44843 1.49475,0.82211 2.54107,1.12106c1.05166,0.29895 2.21008,0.58455 3.46994,0.85414c1.25986,0.27226 2.51171,0.60324 3.75822,0.99294c1.24384,0.39237 2.39159,0.92621 3.43792,1.60151c1.05166,0.67798 1.90313,1.55614 2.55175,2.63716c0.64595,1.07568 0.97158,2.45298 0.97158,4.1319c0,1.8017 -0.363,3.33114 -1.08902,4.591c-0.72068,1.25986 -1.68693,2.27415 -2.90408,3.04288c-1.21182,0.76339 -2.5731,1.32126 -4.0892,1.67625c-1.5161,0.36301 -3.05355,0.54451 -4.61236,0.54451c-2.25814,0 -4.36679,-0.38169 -6.33132,-1.14241c-1.96453,-0.76872 -3.55536,-1.94584 -4.77251,-3.53401c-1.21181,-1.5855 -1.83373,-3.62475 -1.86843,-6.11778h6.8438c0.09076,1.83106 0.76872,3.17099 2.02858,4.02513c1.25986,0.85414 2.71456,1.28122 4.36679,1.28122zM171.25726,135.71331" fill="#000000" fill-rule="nonzero" stroke="none" stroke-width="1" stroke-miterlimit="10"/><path d="M187.73086,140.48582v-30.61027h6.74772v24.49249h10.98638v6.11778zM187.73086,140.48582" fill="#000000" fill-rule="nonzero" stroke="none" stroke-width="1" stroke-miterlimit="10"/><path d="M216.48888,140.48582h-6.74771v-30.61027h6.74771zM216.48888,140.48582" fill="#000000" fill-rule="nonzero" stroke="none" stroke-width="1" stroke-miterlimit="10"/><path d="M243.99499,130.08667h7.51644c-0.69132,2.10065 -1.77234,3.96909 -3.24573,5.6053c-1.46805,1.63888 -3.20836,2.92276 -5.22093,3.85431c-2.00723,0.92621 -4.18262,1.38798 -6.5235,1.38798c-2.1567,0 -4.19063,-0.40571 -6.09643,-1.21715c-1.90847,-0.81143 -3.59273,-1.94317 -5.05011,-3.39521c-1.45204,-1.45204 -2.58378,-3.13096 -3.39521,-5.03943c-0.80609,-1.9058 -1.20648,-3.93973 -1.20648,-6.09643c0,-2.16205 0.40038,-4.19597 1.20648,-6.09643c0.81143,-1.9058 1.94317,-3.58739 3.39521,-5.03943c1.45738,-1.45737 3.14164,-2.59445 5.05011,-3.40589c1.9058,-0.81144 3.93973,-1.21715 6.09643,-1.21715c2.34088,0 4.50826,0.46711 6.50215,1.39866c1.99922,0.92621 3.73153,2.19408 5.19958,3.80093c1.4734,1.60152 2.55442,3.4566 3.24573,5.56259h-7.51644c-0.63527,-1.37997 -1.64155,-2.469 -3.02152,-3.26709c-1.38264,-0.79542 -2.8507,-1.1958 -4.4095,-1.1958c-1.65223,0 -3.15498,0.4324 -4.50559,1.29188c-1.34527,0.85414 -2.41828,1.99389 -3.21371,3.41657c-0.79809,1.42535 -1.1958,3.00818 -1.1958,4.75116c0,1.73765 0.39771,3.32047 1.1958,4.75115c0.79542,1.42535 1.86844,2.56242 3.21371,3.41656c1.35061,0.85414 2.85336,1.28121 4.50559,1.28121c1.5935,0 3.07757,-0.41906 4.45221,-1.25986c1.37997,-0.83812 2.38626,-1.93516 3.02152,-3.28844zM243.99499,130.08667" fill="#000000" fill-rule="nonzero" stroke="none" stroke-width="1" stroke-miterlimit="10"/><path d="M273.07126,134.36804v6.11778h-17.7341v-30.61027h17.7341v6.11778h-10.98639v6.08575h10.53796v6.11778h-10.53796v6.17117zM273.07126,134.36804" fill="#000000" fill-rule="nonzero" stroke="none" stroke-width="1" stroke-miterlimit="10"/><path d="M127.69587,185.89847c0,-25.66152 20.80277,-46.46428 46.46429,-46.46428c25.66152,0 46.46428,20.80276 46.46428,46.46428c0,25.66152 -20.80277,46.46428 -46.46428,46.46428c-25.66152,0 -46.46428,-20.80277 -46.46428,-46.46428z" fill="#e4bb81" fill-rule="nonzero" stroke="#e8e8e8" stroke-width="3.5" stroke-miterlimit="10"/><path d="M167.35387,149.28419v2.94145h11.45349v-2.94145c-1.5508,-1.00895 -3.54468,-1.61753 -5.72541,-1.61753c-2.17806,0 -4.17728,0.60857 -5.72808,1.61753zM178.89277,149.34827c-0.02402,-0.02135 -0.05339,-0.04004 -0.08008,-0.05338c0.02669,0.01334 0.05605,0.03203 0.08008,0.05338zM179.00221,149.41763c-0.0347,-0.02402 -0.07207,-0.04804 -0.1041,-0.06939c0.03203,0.02135 0.0694,0.04537 0.1041,0.06939zM179.09296,149.47904c-0.02936,-0.01869 -0.05339,-0.03203 -0.08275,-0.05071c0.02936,0.01869 0.05339,0.03203 0.08275,0.05071zM180.44891,150.69886l0.01334,-0.00534l-0.01334,0.00534l-0.00534,-0.00534zM181.22832,150.38124c-0.0347,0.01067 -0.06406,0.02402 -0.09076,0.03203c0.02669,-0.00801 0.05606,-0.02135 0.09076,-0.03203zM181.89028,150.18104c-0.01869,0.00534 -0.04271,0.01602 -0.06673,0.01869c0.02402,-0.00267 0.04805,-0.01335 0.06673,-0.01869zM181.99971,150.15703c-0.02402,0.00534 -0.04805,0.01067 -0.0694,0.01601zM182.17588,150.11431c-0.05605,0.01602 -0.11478,0.02402 -0.17083,0.04004c0.05605,-0.01602 0.11478,-0.02402 0.17083,-0.04004zM182.72573,150.01555c-0.02402,0.00534 -0.05071,0.01067 -0.08007,0.01067c0.02936,0 0.05605,-0.00534 0.08007,-0.01067zM183.14746,149.96482c-0.13079,0.008 -0.26425,0.02669 -0.39771,0.04538c0.13346,-0.01869 0.26692,-0.03737 0.39771,-0.04538zM183.24889,149.94884c-0.02402,0.00534 -0.05338,0.01068 -0.08274,0.01068c0.02936,0 0.05872,-0.00534 0.08274,-0.01068zM183.48111,149.93549c-0.02936,0 -0.05873,0 -0.08542,0.00534c0.02669,-0.00534 0.05606,-0.00534 0.08542,-0.00534zM183.59856,149.92479c-0.02669,0 -0.0614,0.00533 -0.09076,0.00533c0.02936,0 0.06406,-0.00533 0.09076,-0.00533zM184.03097,149.91144c-0.14147,0 -0.28561,0.00534 -0.42708,0.01335c0.14147,-0.00801 0.28561,-0.01335 0.42708,-0.01335zM184.14574,149.91144c-0.0347,0 -0.06673,0 -0.09609,0c0.02936,0 0.0614,0 0.09609,0zM184.25785,149.91144c-0.03203,0 -0.0614,0 -0.09342,0c0.03203,0 0.0614,0 0.09342,0zM185.17872,149.96482c-0.26425,-0.02402 -0.52583,-0.04271 -0.78741,-0.04805c0.26158,0.00534 0.52316,0.02402 0.78741,0.04805zM185.29349,149.97816c-0.0347,-0.00534 -0.07207,-0.01067 -0.1041,-0.01067c0.03203,0 0.0694,0.00534 0.1041,0.01067zM186.10759,150.10097c-0.26959,-0.05071 -0.53918,-0.09076 -0.80609,-0.12279c0.26692,0.03203 0.53651,0.07207 0.80609,0.12279zM186.22771,150.12498c-0.04271,-0.00534 -0.08007,-0.01334 -0.12011,-0.02402c0.04004,0.01067 0.07741,0.01868 0.12011,0.02402zM186.34248,150.149c-0.04003,-0.00534 -0.0774,-0.01335 -0.11478,-0.02403c0.03737,0.01067 0.07474,0.01869 0.11478,0.02403zM187.15659,150.36254c-0.26959,-0.08007 -0.53918,-0.15214 -0.81411,-0.20819c0.27492,0.05605 0.54452,0.12812 0.81411,0.20819zM187.39414,150.43461v1.79103h3.44593l0.04271,0.0347c-0.72602,-0.56587 -1.55614,-1.05433 -2.46367,-1.44136c-0.41639,-0.1815 -0.83546,-0.33365 -1.25719,-0.45643c0.0774,0.02402 0.15748,0.04805 0.23222,0.07207zM191.06695,152.41249c-0.02936,-0.02402 -0.05605,-0.04805 -0.08541,-0.07207c0.02936,0.02402 0.05605,0.04805 0.08541,0.07207zM191.44064,152.73011c-0.05071,-0.04805 -0.1041,-0.09075 -0.15481,-0.13879c0.05071,0.04805 0.1041,0.09075 0.15481,0.13879zM191.6168,152.88493c-0.05071,-0.04538 -0.1041,-0.08809 -0.15215,-0.13613c0.04805,0.04805 0.10143,0.09076 0.15215,0.13613zM191.78763,153.05309c-0.04805,-0.04805 -0.09342,-0.09609 -0.14681,-0.1388c0.05338,0.04271 0.09876,0.09076 0.14681,0.1388zM192.05722,153.33335c-0.02669,-0.02936 -0.05606,-0.06406 -0.08542,-0.09076c0.02936,0.02669 0.05873,0.0614 0.08542,0.09076zM192.20669,153.48816c-0.02402,-0.02402 -0.04271,-0.04805 -0.06673,-0.0694c0.02402,0.02135 0.04271,0.04538 0.06673,0.0694zM200.59863,159.0641c0.50181,0.50181 0.94756,1.03831 1.32658,1.5935c-0.37903,-0.55519 -0.82477,-1.09169 -1.32658,-1.5935c-1.81238,-1.81238 -4.04649,-2.85336 -6.14981,-3.04555c2.10332,0.19218 4.33743,1.23317 6.14981,3.04555zM202.20281,161.07933c0.04538,0.07207 0.08808,0.14147 0.13079,0.21354c0.04004,0.07207 0.08274,0.14147 0.12011,0.21354c-0.03737,-0.07207 -0.08007,-0.14147 -0.12011,-0.21354c-0.04271,-0.07207 -0.08541,-0.14147 -0.13079,-0.21354c-0.06673,-0.1041 -0.13346,-0.2082 -0.20553,-0.31763c0.07207,0.10943 0.1388,0.21353 0.20553,0.31763zM202.93684,162.48869c0.0347,0.07207 0.06139,0.14681 0.09075,0.21887c0.02936,0.06673 0.05072,0.12812 0.07474,0.19485c-0.02402,-0.06673 -0.04538,-0.12812 -0.07474,-0.19485c-0.02936,-0.07207 -0.05605,-0.14681 -0.09075,-0.21887c-0.02936,-0.07474 -0.0614,-0.14681 -0.09342,-0.21887c0.03203,0.07207 0.06406,0.14414 0.09342,0.21887zM203.23045,163.26272c0.06139,0.18418 0.11478,0.36835 0.16549,0.55519c-0.05071,-0.18685 -0.1041,-0.37101 -0.16549,-0.55519c-0.02402,-0.0774 -0.05071,-0.14681 -0.07474,-0.22421c0.02402,0.0774 0.05071,0.14681 0.07474,0.22421zM203.52406,164.37312c0.10143,0.51515 0.15214,1.02764 0.15214,1.53212l0.01602,0.008l-0.01602,-0.008c0,-0.50448 -0.05071,-1.01696 -0.15214,-1.53212c-0.03203,-0.14681 -0.06406,-0.29628 -0.09876,-0.44308c0.0347,0.14681 0.06673,0.29628 0.09876,0.44308zM206.18791,167.50409c-0.02402,-0.02402 -0.04805,-0.04805 -0.0774,-0.06673c0.02936,0.01869 0.05338,0.04271 0.0774,0.06673zM206.35874,167.65622c-0.02936,-0.02402 -0.05338,-0.04804 -0.08274,-0.07206c0.02936,0.02402 0.05338,0.04804 0.08274,0.07206zM206.51889,167.81639c-0.01869,-0.02402 -0.04271,-0.0427 -0.06673,-0.06673c0.02402,0.02402 0.04805,0.0427 0.06673,0.06673zM206.69506,167.99254c-0.02936,-0.02936 -0.05873,-0.0614 -0.09076,-0.09076c0.03203,0.02936 0.0614,0.0614 0.09076,0.09076zM206.85521,168.16338c-0.02669,-0.02936 -0.05605,-0.05605 -0.08008,-0.08541c0.02402,0.02936 0.05339,0.05605 0.08008,0.08541zM207.01803,168.34221c-0.04805,-0.05071 -0.09609,-0.1041 -0.1388,-0.15482c0.04271,0.05071 0.09076,0.1041 0.1388,0.15482zM207.12746,168.47033c-0.02936,-0.03737 -0.06406,-0.0694 -0.09075,-0.10677c0.02669,0.03737 0.06139,0.0694 0.09075,0.10677zM207.27694,168.65719c-0.02135,-0.04003 -0.05072,-0.07207 -0.08008,-0.1041c0.02936,0.03203 0.05872,0.06406 0.08008,0.1041zM207.42108,168.83069c-0.02402,-0.03203 -0.04805,-0.06406 -0.07741,-0.09342c0.02936,0.02936 0.05339,0.06139 0.07741,0.09342zM207.43442,172.26591h1.79903c0.05071,0.15748 0.09876,0.31497 0.14147,0.46978c-0.13346,-0.47244 -0.29895,-0.94756 -0.49914,-1.41734c-0.38703,-0.91019 -0.87549,-1.74031 -1.44136,-2.47167zM209.40428,172.83979c-0.01067,-0.03737 -0.01869,-0.0694 -0.02936,-0.1041c0.01067,0.0347 0.01869,0.06673 0.02936,0.1041zM209.46567,173.07735c-0.01067,-0.03203 -0.01334,-0.06139 -0.02402,-0.09342c0.01067,0.03203 0.01334,0.06139 0.02402,0.09342zM209.49504,173.19748c-0.01067,-0.0347 -0.01601,-0.06139 -0.02402,-0.09609c0.00801,0.0347 0.01335,0.06139 0.02402,0.09609zM209.58846,173.65122c-0.02402,-0.14147 -0.05606,-0.28293 -0.09076,-0.42707c0.0347,0.14414 0.06673,0.2856 0.09076,0.42707zM209.61248,173.77669c-0.00534,-0.0347 -0.01334,-0.06673 -0.01868,-0.10143c0.00534,0.0347 0.01334,0.06673 0.01868,0.10143zM209.77263,175.56505c0,-0.0347 0,-0.06673 0,-0.1041c0,0.03737 0,0.0694 0,0.1041zM209.77263,175.69316c0,-0.01869 0,-0.0427 0,-0.06139c0,0.01869 0,0.0427 0,0.06139zM209.2815,178.5492c0.02135,-0.06139 0.04538,-0.12812 0.06406,-0.19485c-0.01869,0.06673 -0.04271,0.13346 -0.06406,0.19485zM208.9959,179.24585c0.00801,-0.02402 0.01869,-0.04271 0.02936,-0.0614zM207.43442,180.85537v11.45083h2.9361c1.01696,-1.5508 1.62287,-3.54736 1.62287,-5.72541c0,-2.17806 -0.60591,-4.17461 -1.61753,-5.72541zM209.77263,197.71932c0,-0.04271 0,-0.08541 0,-0.12278c0,0.03737 0,0.08007 0,0.12278zM209.70323,198.78166c0.00801,-0.09876 0.01868,-0.20286 0.02669,-0.30162c-0.00801,0.09876 -0.01868,0.20286 -0.02669,0.30162zM209.61782,199.3662c0.00534,-0.02936 0.008,-0.06139 0.01334,-0.09075c-0.00534,0.02936 -0.008,0.06139 -0.01334,0.09075zM209.5938,199.48632c0.00534,-0.0347 0.01334,-0.06673 0.01868,-0.10677c-0.00534,0.04004 -0.01334,0.07207 -0.01868,0.10677zM209.52173,199.82797c0.02936,-0.10943 0.05338,-0.22421 0.07207,-0.33899c-0.01869,0.11478 -0.04271,0.22955 -0.07207,0.33899zM209.4977,199.94543c0.01067,-0.03737 0.01601,-0.07207 0.02402,-0.1041c-0.00801,0.03203 -0.01335,0.06673 -0.02402,0.1041zM209.47101,200.06021c0.00801,-0.0347 0.01869,-0.06673 0.02402,-0.10143c-0.00534,0.0347 -0.01601,0.06673 -0.02402,0.10143zM209.40962,200.30044c0.00801,-0.03203 0.01868,-0.06673 0.02669,-0.09876c-0.00801,0.03203 -0.01868,0.06673 -0.02669,0.09876zM209.23345,200.89298h-1.79903v3.4219c-0.08542,0.1041 -0.16549,0.2082 -0.2509,0.30963c0.66996,-0.80343 1.24651,-1.73764 1.69226,-2.78129c0.21887,-0.50715 0.39504,-1.01429 0.5285,-1.52678c-0.04805,0.19218 -0.10944,0.38437 -0.17083,0.57655zM207.02604,204.80334c0.05338,-0.05605 0.1041,-0.11745 0.15748,-0.17616c-0.05338,0.05872 -0.1041,0.12011 -0.15748,0.17616zM206.87122,204.97952c0.05071,-0.05872 0.1041,-0.11477 0.15482,-0.17083c-0.05071,0.05605 -0.1041,0.11211 -0.15482,0.17083zM206.54291,205.32116c0.10943,-0.10943 0.21354,-0.21887 0.31763,-0.33365c-0.1041,0.11478 -0.2082,0.22421 -0.31763,0.33365zM206.37742,205.48666c0.05071,-0.05338 0.1041,-0.1041 0.16015,-0.15749c-0.05605,0.05338 -0.10943,0.1041 -0.16015,0.15749zM206.26799,205.58541c0.03203,-0.03203 0.07207,-0.06673 0.1041,-0.09876c-0.03203,0.03203 -0.07207,0.06673 -0.1041,0.09876zM206.1025,205.73224c0.03203,-0.02669 0.06673,-0.05605 0.09342,-0.08541c-0.02669,0.02936 -0.06139,0.05872 -0.09342,0.08541zM205.92099,205.88971c0.03737,-0.03203 0.07207,-0.06139 0.10944,-0.09342c-0.03737,0.03203 -0.07207,0.06139 -0.10944,0.09342zM205.7555,206.02851c0.05071,-0.04271 0.1041,-0.09075 0.15748,-0.13346c-0.05338,0.04271 -0.10676,0.09075 -0.15748,0.13346zM205.4699,206.24204c0.02402,-0.01869 0.05338,-0.04004 0.0774,-0.05873c-0.02402,0.01869 -0.05338,0.04004 -0.0774,0.05873zM203.64951,207.89694c0.00267,-0.06673 0.00801,-0.13345 0.01335,-0.20285c-0.00534,0.0694 -0.01068,0.13612 -0.01335,0.20285zM203.54541,208.67902c-0.04805,0.25624 -0.10944,0.51783 -0.18151,0.77407c0.07207,-0.25624 0.13346,-0.51783 0.18151,-0.77407c0.02135,-0.14681 0.04537,-0.28827 0.06406,-0.42707c-0.01869,0.1388 -0.0427,0.28026 -0.06406,0.42707zM203.02759,210.45403c-0.07207,0.1815 -0.15214,0.36568 -0.23755,0.54451c-0.51248,1.09704 -1.24651,2.15403 -2.19141,3.09893c-0.21887,0.21887 -0.44576,0.42707 -0.67531,0.62192c-0.13079,0.11478 -0.26425,0.22154 -0.39771,0.32831c0.13346,-0.10677 0.26692,-0.21353 0.39771,-0.32831c0.22955,-0.19485 0.45643,-0.40305 0.67531,-0.62192c0.9449,-0.9449 1.67892,-2.00189 2.19141,-3.09893c0.08542,-0.17883 0.16548,-0.36301 0.23755,-0.54451c0.11745,-0.29361 0.22154,-0.59256 0.30696,-0.88617c-0.08542,0.29361 -0.18952,0.59256 -0.30696,0.88617zM199.11723,215.34666c0.09609,-0.06673 0.18685,-0.13345 0.28027,-0.20552c-0.09342,0.07207 -0.18418,0.13879 -0.28027,0.20552zM198.6341,215.66695c0.09075,-0.05605 0.18417,-0.11745 0.27493,-0.1735c-0.09076,0.05605 -0.18418,0.11745 -0.27493,0.1735zM198.00684,216.03263c0.04004,-0.01869 0.0774,-0.03737 0.11477,-0.0614c-0.03737,0.02402 -0.07473,0.04271 -0.11477,0.0614zM197.36624,216.35026c0.1041,-0.04538 0.21354,-0.09876 0.31764,-0.15215c-0.1041,0.05338 -0.21354,0.10677 -0.31764,0.15215zM197.15003,216.44634c0.03203,-0.01334 0.06406,-0.02935 0.09342,-0.03736c-0.02936,0.00801 -0.06139,0.02402 -0.09342,0.03736zM196.9365,216.53711c0.02669,-0.01602 0.05605,-0.02402 0.08541,-0.04004c-0.02936,0.01602 -0.05872,0.02402 -0.08541,0.04004zM196.60819,216.65989c0.06673,-0.02402 0.12812,-0.04804 0.19485,-0.07207c-0.06673,0.02402 -0.12812,0.04804 -0.19485,0.07207zM194.87054,217.09229c0.29628,-0.04271 0.5979,-0.10143 0.89685,-0.17616c-0.29895,0.07474 -0.60057,0.13346 -0.89685,0.17616zM194.22994,217.16169c0.07207,-0.00267 0.14947,-0.01335 0.21887,-0.01869c-0.0694,0.00534 -0.14681,0.01602 -0.21887,0.01869zM192.58839,219.21698c0.02135,-0.02402 0.04271,-0.05338 0.06406,-0.0774c-0.02135,0.02402 -0.04271,0.05338 -0.06406,0.0774zM192.44692,219.39315c0.01869,-0.02402 0.03736,-0.04804 0.05605,-0.07206c-0.01869,0.02402 -0.03736,0.04804 -0.05605,0.07206zM192.29478,219.56665c0.02402,-0.02135 0.04271,-0.04271 0.06139,-0.06406c-0.01869,0.02135 -0.03737,0.04271 -0.06139,0.06406zM192.14263,219.7428c0.02135,-0.02402 0.04271,-0.04804 0.06406,-0.0694c-0.02135,0.02135 -0.04271,0.04537 -0.06406,0.0694zM191.97714,219.91364c0.02402,-0.02402 0.04805,-0.04805 0.07207,-0.0694c-0.02402,0.02135 -0.04805,0.04538 -0.07207,0.0694zM191.81699,220.07912c0.02669,-0.02669 0.05071,-0.05072 0.08007,-0.08008c-0.02936,0.02936 -0.05338,0.05339 -0.08007,0.08008zM191.63549,220.24996c0.05338,-0.04538 0.10143,-0.09342 0.14681,-0.13613c-0.04538,0.04271 -0.09342,0.09076 -0.14681,0.13613zM191.46466,220.41276c0.05338,-0.04805 0.1041,-0.09609 0.15749,-0.14147c-0.05338,0.04538 -0.1041,0.09342 -0.15749,0.14147zM191.28582,220.56757c0.05071,-0.04271 0.1041,-0.08808 0.15481,-0.13612c-0.05071,0.04805 -0.1041,0.09342 -0.15481,0.13612zM191.17639,220.65835c0.02669,-0.01869 0.05605,-0.0427 0.08007,-0.06673c-0.02402,0.02402 -0.05338,0.04804 -0.08007,0.06673zM190.98154,220.82116c0.02936,-0.02402 0.06139,-0.04805 0.09075,-0.0774c-0.02936,0.02936 -0.06139,0.05338 -0.09075,0.0774zM190.84007,220.93326h-3.44593v1.79369c-0.03737,0.01602 -0.07473,0.02403 -0.1121,0.03737c0.37903,-0.11745 0.75805,-0.25624 1.13707,-0.42173c0.91019,-0.38703 1.73765,-0.87817 2.46367,-1.44137zM186.34248,223.00722c0.3123,-0.06673 0.61925,-0.14681 0.93421,-0.2429c-0.31497,0.09609 -0.62192,0.17616 -0.93421,0.2429zM185.41627,223.17003c0.30428,-0.04004 0.61658,-0.09075 0.92621,-0.16282c-0.30963,0.07207 -0.62193,0.12278 -0.92621,0.16282zM184.38597,223.24478c0.33632,-0.00534 0.67798,-0.03204 1.02497,-0.07474c-0.34699,0.04271 -0.68865,0.0694 -1.02497,0.07474zM184.28187,223.25012c0.0347,0 0.06673,0.00001 0.10143,-0.00533c-0.0347,0.00534 -0.06673,0.00533 -0.10143,0.00533zM184.16442,223.25012c0.02669,0 0.0614,0 0.09342,0c-0.03203,0 -0.06673,0 -0.09342,0zM183.49446,223.23144c0.21887,0.01334 0.43775,0.01868 0.65395,0.01868c-0.21621,0 -0.43508,-0.00534 -0.65395,-0.01868zM183.38502,223.22076c0.0347,0.00534 0.06673,0.00534 0.10143,0.00534c-0.0347,0 -0.06673,0 -0.10143,-0.00534zM183.27558,223.21274c0.0347,0.00267 0.06674,0.00267 0.0961,0.008c-0.02936,-0.00534 -0.0614,-0.00534 -0.0961,-0.008zM182.74442,223.14869c0.17083,0.02402 0.34166,0.0427 0.51782,0.06406c-0.17616,-0.02135 -0.34699,-0.04003 -0.51782,-0.06406zM182.64566,223.13c0.02936,0.00534 0.05605,0.01067 0.08007,0.01601c-0.02402,-0.00534 -0.05071,-0.01067 -0.08007,-0.01601zM182.53622,223.11665c0.02936,0.00534 0.05339,0.01068 0.07741,0.01068c-0.02402,0 -0.04805,-0.00534 -0.07741,-0.01068zM182.20791,223.04993c0.02936,0.01067 0.05872,0.01334 0.08541,0.01868c-0.02669,-0.00534 -0.05605,-0.008 -0.08541,-0.01868zM181.91964,222.98321c0.08542,0.02402 0.17083,0.0427 0.26158,0.06139c-0.09076,-0.01869 -0.17616,-0.03736 -0.26158,-0.06139zM181.29771,222.80436c0.02402,0.00801 0.04805,0.01335 0.06673,0.02402c-0.01869,-0.01067 -0.04271,-0.01601 -0.06673,-0.02402zM181.13222,222.74564c0.05338,0.01869 0.1041,0.04004 0.15749,0.05338c-0.05338,-0.01334 -0.1041,-0.0347 -0.15749,-0.05338zM180.44891,222.46272l-0.00534,0.00267l0.00534,-0.00267l0.01334,0.00267zM179.48,223.38357c0.02402,-0.02135 0.05338,-0.04004 0.0774,-0.06406c-0.02402,0.02402 -0.05338,0.04271 -0.0774,0.06406zM179.29582,223.53038c0.06139,-0.04805 0.12279,-0.09609 0.18418,-0.14414c-0.06139,0.04805 -0.12279,0.09609 -0.18418,0.14414zM179.21041,223.59177c0.02402,-0.01602 0.04805,-0.0347 0.07207,-0.05339c-0.02402,0.01869 -0.04805,0.03737 -0.07207,0.05339zM178.80736,223.8747v-2.94144h-11.45349v2.94144c-0.12812,-0.08542 -0.25091,-0.17082 -0.36835,-0.25891c1.5935,1.16644 3.73686,1.87644 6.09643,1.87644c2.36757,0 4.52161,-0.71534 6.11512,-1.88711c-0.12812,0.09076 -0.25624,0.1815 -0.3897,0.26959zM166.87608,223.53306c0.02402,0.02135 0.04805,0.04004 0.07474,0.05873c-0.02669,-0.01869 -0.05071,-0.03737 -0.07474,-0.05873zM166.79066,223.47166c0.02669,0.01869 0.05072,0.04003 0.08008,0.05872c-0.02936,-0.01869 -0.05339,-0.04003 -0.08008,-0.05872zM166.68924,223.3916c0.02402,0.01869 0.04805,0.03736 0.07207,0.05605c-0.02402,-0.01869 -0.04805,-0.03736 -0.07207,-0.05605zM165.71231,222.46272l0.00534,0.00267zM164.00136,223.04193c0.07474,-0.01602 0.14948,-0.0347 0.22688,-0.05338c-0.0774,0.01869 -0.15215,0.03737 -0.22688,0.05338zM163.4355,223.14601c0.02402,-0.00534 0.05338,-0.01068 0.0774,-0.01068c-0.02402,0 -0.05338,0.00534 -0.0774,0.01068zM163.11786,223.18872c0.09609,-0.01067 0.19485,-0.02402 0.29361,-0.04003c-0.09876,0.01602 -0.19752,0.02936 -0.29361,0.04003zM163.02177,223.19674c0.02936,0 0.05872,-0.00534 0.08541,-0.00801c-0.02669,0.00267 -0.05605,0.00801 -0.08541,0.00801zM162.90433,223.21274c0.02936,-0.00534 0.0614,-0.01068 0.09076,-0.01068c-0.02936,0 -0.0614,0.00534 -0.09076,0.01068zM162.67745,223.2261c0.02669,0 0.06139,0 0.08808,-0.00534c-0.02669,0.00534 -0.06139,0.00534 -0.08808,0.00534zM162.56267,223.23411c0.03203,0 0.06673,-0.00267 0.09876,-0.00267c-0.03203,0 -0.06673,0.00267 -0.09876,0.00267zM162.00214,223.25012c0.18685,0 0.36568,-0.00534 0.54719,-0.01601c-0.1815,0.01067 -0.36034,0.01601 -0.54719,0.01601zM161.8927,223.25012c0.04004,0 0.07207,0 0.10944,0zM161.7806,223.24478c0.03737,0.00534 0.0694,0.00533 0.10944,0.00533c-0.04004,0 -0.07207,0.00001 -0.10944,-0.00533zM160.98251,223.19674c0.26692,0.02402 0.53117,0.04271 0.79275,0.04805c-0.26158,-0.00534 -0.52583,-0.02402 -0.79275,-0.04805zM160.86506,223.18339c0.03737,0.00534 0.07474,0.008 0.11211,0.008c-0.03737,0 -0.07474,-0.00267 -0.11211,-0.008zM159.00464,222.79904c0.62192,0.18418 1.24384,0.3123 1.85509,0.38437c-0.61124,-0.07207 -1.23317,-0.20019 -1.85509,-0.38437zM158.76708,222.72696v-1.79369h-3.44325l-0.02402,-0.02403c0.72068,0.56053 1.54013,1.049 2.44231,1.43336c0.41906,0.1815 0.83545,0.33364 1.25718,0.45643c-0.07474,-0.02402 -0.15482,-0.04805 -0.23222,-0.07207zM147.2522,215.49344c0.09076,0.05605 0.18685,0.11745 0.27493,0.1735c-0.08809,-0.05605 -0.18418,-0.11745 -0.27493,-0.1735zM146.84114,215.19716c0.06406,0.05338 0.13613,0.10143 0.20286,0.14947c-0.06673,-0.04805 -0.1388,-0.09609 -0.20286,-0.14947zM146.23791,214.71939c-0.22688,-0.19485 -0.45643,-0.40305 -0.67531,-0.62192c-1.23584,-1.23851 -2.114,-2.67186 -2.6078,-4.1239c0.4938,1.45204 1.37196,2.88539 2.6078,4.1239c0.21887,0.21887 0.44843,0.42707 0.67531,0.62192c0.13346,0.11478 0.26425,0.22154 0.39771,0.32831c-0.13346,-0.10677 -0.26425,-0.21353 -0.39771,-0.32831zM142.72258,209.1728c0.03737,0.15214 0.08008,0.30429 0.12278,0.4511c-0.04271,-0.14681 -0.08541,-0.29895 -0.12278,-0.4511zM142.62115,208.69769c0.02402,0.12545 0.04805,0.24823 0.0774,0.37101c-0.02936,-0.12278 -0.05338,-0.24556 -0.0774,-0.37101zM142.53574,208.13983c0.01602,0.13613 0.04003,0.27493 0.05872,0.40572c-0.01869,-0.13079 -0.0427,-0.26959 -0.05872,-0.40572zM142.49837,207.70208c0.00534,0.06673 0.01068,0.12812 0.01602,0.19485c-0.00534,-0.06673 -0.01068,-0.12812 -0.01602,-0.19485zM140.61659,206.18332c0.02135,0.01869 0.05071,0.04004 0.07474,0.05873c-0.02402,-0.01869 -0.05338,-0.04004 -0.07474,-0.05873zM139.97064,205.65748c0.03203,0.02402 0.0614,0.05338 0.09076,0.07474c-0.02936,-0.02135 -0.05873,-0.05071 -0.09076,-0.07474zM139.78914,205.492c0.0347,0.02669 0.06673,0.05606 0.09609,0.08542c-0.02936,-0.02936 -0.0614,-0.05873 -0.09609,-0.08542zM139.62899,205.32919c0.05071,0.05338 0.1041,0.1041 0.15749,0.15749c-0.05338,-0.05338 -0.10677,-0.1041 -0.15749,-0.15749zM139.29534,204.98752c0.08542,0.09076 0.17083,0.1815 0.25624,0.27226c-0.08542,-0.09076 -0.17083,-0.1815 -0.25624,-0.27226zM139.14053,204.81404c0.05071,0.05605 0.09876,0.1121 0.15214,0.17082c-0.05338,-0.05872 -0.10143,-0.11477 -0.15214,-0.17082zM138.72681,204.31489v-3.4219h-1.79637c-0.05338,-0.15482 -0.10143,-0.3123 -0.14414,-0.46444c0.13346,0.46977 0.29895,0.9449 0.49913,1.41467c0.47779,1.12373 1.11039,2.11934 1.84441,2.96013c-0.13613,-0.15748 -0.26958,-0.32297 -0.40304,-0.48846zM136.75961,200.32446c0.00801,0.0347 0.01868,0.06673 0.02669,0.09876c-0.00801,-0.03203 -0.01868,-0.06406 -0.02669,-0.09876zM136.72491,200.19633c0.01067,0.0347 0.01869,0.06673 0.02937,0.1041c-0.01067,-0.03737 -0.01869,-0.0694 -0.02937,-0.1041zM136.69555,200.07887c0.01067,0.03737 0.01601,0.0694 0.02402,0.1041c-0.00801,-0.0347 -0.01335,-0.06673 -0.02402,-0.1041zM136.66886,199.95878c0.00534,0.0347 0.01335,0.06673 0.02402,0.1041c-0.01067,-0.03737 -0.01868,-0.0694 -0.02402,-0.1041zM136.55408,199.40092c0.02936,0.18418 0.06673,0.36301 0.10944,0.54986c-0.04271,-0.18685 -0.08008,-0.36568 -0.10944,-0.54986zM136.46333,198.79767c0,0.02402 0.00534,0.04805 0.01068,0.0694c-0.00534,-0.02135 -0.01068,-0.04538 -0.01068,-0.0694zM136.42597,198.46935c0.01067,0.09609 0.01868,0.18951 0.03469,0.29094c-0.01602,-0.10143 -0.02402,-0.19485 -0.03469,-0.29094zM137.16266,193.91571h0.00267zM138.72681,192.3062v-11.45083h-2.93611l0.02402,-0.04004c-1.0303,1.55614 -1.64689,3.56871 -1.64689,5.76545c0,2.17806 0.60858,4.17461 1.62286,5.72541zM136.3886,175.4396c0,0.09075 0,0.17616 0,0.26692c0,-0.09076 0,-0.17617 0,-0.26692zM136.46066,174.37726c-0.01067,0.1041 -0.02402,0.21087 -0.02936,0.30963c0.00534,-0.09876 0.01869,-0.20553 0.02936,-0.30963zM136.54608,173.79004c-0.00534,0.03203 -0.01068,0.06139 -0.01602,0.09342c0.00534,-0.03203 0.01068,-0.06139 0.01602,-0.09342zM136.56743,173.66992c-0.008,0.04004 -0.01335,0.0774 -0.01869,0.11478c0.00534,-0.03737 0.01068,-0.07474 0.01869,-0.11478zM136.66352,173.2215c-0.03203,0.14947 -0.06673,0.29895 -0.09609,0.44842c0.02936,-0.14947 0.06406,-0.29895 0.09609,-0.44842zM136.69288,173.10139c-0.01067,0.0347 -0.01868,0.06673 -0.02402,0.10143c0.00534,-0.0347 0.01335,-0.06673 0.02402,-0.10143zM136.75428,172.86382c-0.01067,0.02936 -0.01869,0.0614 -0.02937,0.09076c0.01067,-0.02936 0.01869,-0.0614 0.02937,-0.09076zM136.78631,172.73571c-0.00801,0.0347 -0.01868,0.06673 -0.02669,0.10143c0.00801,-0.0347 0.01868,-0.06673 0.02669,-0.10143zM136.93044,172.26591h1.79637v-3.41923c0.1815,-0.23222 0.37102,-0.45643 0.56587,-0.66996c-0.80343,0.87816 -1.49475,1.93516 -2.00724,3.14164c-0.20019,0.46977 -0.36567,0.93955 -0.49913,1.40933c0.04271,-0.15214 0.09075,-0.30963 0.14414,-0.46177zM139.89057,167.5788c-0.20553,0.18951 -0.40305,0.38437 -0.59523,0.5979c0.19218,-0.21354 0.3897,-0.40839 0.59523,-0.5979zM140.12813,167.36529c-0.07207,0.06673 -0.14948,0.13346 -0.22421,0.20019c0.07474,-0.06673 0.15214,-0.13346 0.22421,-0.20019zM140.24024,167.27185c-0.03203,0.02669 -0.0694,0.05605 -0.1041,0.08808c0.0347,-0.03203 0.07207,-0.06139 0.1041,-0.08808zM140.40572,167.13306c-0.05071,0.04271 -0.1041,0.08542 -0.15481,0.13346c0.05071,-0.04805 0.1041,-0.09076 0.15481,-0.13346zM142.48503,165.90524c0.00801,-2.2955 1.06233,-4.8259 3.07757,-6.84114c1.59083,-1.59083 3.49663,-2.58111 5.3624,-2.93878c-1.86577,0.35767 -3.77157,1.34794 -5.3624,2.93878c-2.01524,2.01524 -3.06956,4.54563 -3.07757,6.84114l-0.01335,0.008zM151.14922,156.08794c-0.06406,0.01067 -0.12545,0.01868 -0.1815,0.0347c0.05605,-0.01602 0.11744,-0.02402 0.1815,-0.0347zM151.91527,156.00256c-0.09876,0.00534 -0.19752,0.01601 -0.29895,0.02402c0.10143,-0.00801 0.20019,-0.01868 0.29895,-0.02402zM152.24892,155.98386c-0.07207,0.00534 -0.1388,0.00534 -0.20553,0.01067c0.06673,-0.00534 0.13346,-0.00534 0.20553,-0.01067zM155.32383,152.22564h3.44325v-1.79103c-0.34166,0.10677 -0.68331,0.23489 -1.02496,0.38436c-0.90485,0.38703 -1.72697,0.8755 -2.45299,1.43603zM158.87118,150.3999c-0.03203,0.01067 -0.06673,0.01868 -0.09876,0.0347c0.03203,-0.01602 0.06673,-0.02402 0.09876,-0.0347zM158.9913,150.36254c-0.0347,0.00801 -0.06673,0.02402 -0.10143,0.03203zM159.11408,150.32785c-0.0347,0.01067 -0.06673,0.02135 -0.09876,0.02936c0.03203,-0.008 0.06406,-0.01869 0.09876,-0.02936zM159.23152,150.29582c-0.03203,0.01067 -0.0694,0.01869 -0.1041,0.02936c0.0347,-0.01067 0.07207,-0.01869 0.1041,-0.02936zM159.8054,150.15435c-0.18952,0.04271 -0.37902,0.08541 -0.5632,0.13612c0.18418,-0.05071 0.37368,-0.09342 0.5632,-0.13612zM159.92017,150.13033c-0.02936,0.00534 -0.06139,0.01335 -0.09609,0.01869c0.0347,-0.00534 0.06673,-0.01335 0.09609,-0.01869zM160.04296,150.10629c-0.02669,0.00534 -0.0614,0.008 -0.09342,0.01868c0.03203,-0.01067 0.06673,-0.01334 0.09342,-0.01868zM160.16306,150.08228c-0.0347,0.00534 -0.06672,0.01335 -0.10142,0.01869c0.0347,-0.00534 0.06672,-0.01335 0.10142,-0.01869zM160.73161,149.99155c-0.1815,0.02402 -0.36568,0.05338 -0.54451,0.08541c0.17883,-0.03203 0.36301,-0.06139 0.54451,-0.08541zM160.96917,149.9675c-0.02936,0 -0.0614,0.00534 -0.09609,0.01067c0.0347,-0.00534 0.06673,-0.01067 0.09609,-0.01067zM161.09195,149.95415c-0.03203,0.00534 -0.06673,0.00534 -0.09876,0.01067c0.03203,-0.00534 0.06673,-0.00534 0.09876,-0.01067zM161.65248,149.91679c-0.1815,0.00801 -0.36568,0.01869 -0.54986,0.03737c0.18418,-0.01869 0.36835,-0.02936 0.54986,-0.03737zM161.76458,149.91679c-0.03203,0 -0.06406,0 -0.09342,0c0.02936,0 0.06139,0 0.09342,0zM161.87936,149.91144c-0.03203,0 -0.06139,0 -0.09075,0.00534c0.02936,-0.00534 0.05872,-0.00534 0.09075,-0.00534zM162.53865,149.92479c-0.13613,-0.00801 -0.26959,-0.01335 -0.40839,-0.01335c0.1388,0 0.27226,0.00534 0.40839,0.01335zM162.98974,149.9595c-0.02402,0 -0.04805,-0.00534 -0.07474,-0.00534c0.02669,0 0.05072,0.00534 0.07474,0.00534zM163.40614,150.01021c-0.08809,-0.01334 -0.18418,-0.02402 -0.27493,-0.03737c0.09076,0.01334 0.18685,0.02402 0.27493,0.03737zM163.61967,150.04492c-0.02135,-0.00534 -0.04538,-0.01067 -0.0694,-0.01067c0.02402,0 0.04805,0.00534 0.0694,0.01067zM164.11347,150.14368c-0.04805,-0.008 -0.09342,-0.01869 -0.13613,-0.02936c0.04271,0.01067 0.08809,0.02135 0.13613,0.02936zM164.33768,150.19974c-0.02402,-0.00267 -0.04805,-0.01335 -0.06673,-0.01869c0.01869,0.00534 0.04271,0.01602 0.06673,0.01869zM165.02633,150.41324c-0.04004,-0.01334 -0.0774,-0.02669 -0.12011,-0.0427c0.04271,0.01602 0.08007,0.02936 0.12011,0.0427zM165.12509,150.45332c-0.01869,-0.01067 -0.0427,-0.01869 -0.06139,-0.02402c0.01869,0.00534 0.0427,0.01335 0.06139,0.02402zM165.71231,150.69886l0.00534,-0.00534l-0.00534,0.00534c-0.01869,-0.00534 -0.03737,-0.01335 -0.05605,-0.02402zM166.95082,149.56981c-0.02402,0.01869 -0.04804,0.0347 -0.0694,0.05338c0.02135,-0.01869 0.04537,-0.0347 0.0694,-0.05338zM167.06559,149.48439c-0.02936,0.01869 -0.05338,0.03737 -0.08007,0.05606c0.02669,-0.01869 0.05071,-0.03737 0.08007,-0.05606zM167.34853,149.28955c-0.09342,0.06139 -0.18951,0.12812 -0.27759,0.19485c0.08809,-0.06673 0.18417,-0.13346 0.27759,-0.19485zM198.84764,172.26591h-11.4535v-11.45082h11.4535zM178.80736,172.26591h-11.45349v-11.45082h11.45349zM158.76708,172.26591h-11.45349v-11.45082h11.45349zM198.84764,192.3062h-11.4535v-11.45083h11.4535zM178.80736,192.3062h-11.45349v-11.45083h11.45349zM158.76708,192.3062h-11.45349v-11.45083h11.45349zM198.84764,212.34648h-11.4535v-11.45349h11.4535zM178.80736,212.34648h-11.45349v-11.45349h11.45349zM158.76708,212.34648h-11.45349v-11.45349h11.45349zM158.76708,200.89298" fill="#a137f5" fill-rule="evenodd" stroke="none" stroke-width="1" stroke-miterlimit="10"/><path d="M178.80736,149.28419c0.62726,0.41372 1.18245,0.88884 1.64155,1.41467c1.92982,-0.92087 4.44953,-1.06768 6.94523,-0.26425v1.79103h3.44593c1.36929,1.05433 2.38893,2.36757 2.96013,3.75822c2.28483,0.02402 4.79654,1.07835 6.79843,3.08024c2.01524,2.01524 3.06956,4.54563 3.07757,6.84114c1.39065,0.5632 2.70122,1.58016 3.75822,2.94144v3.41923h1.79903c0.81411,2.50103 0.68331,5.0341 -0.23756,6.97994c0.51248,0.45643 0.97692,0.99561 1.37997,1.60952h-2.94145v11.45083h2.94145c-0.40305,0.61391 -0.86749,1.15309 -1.37997,1.60952c0.92087,1.94584 1.05166,4.47891 0.23756,6.97727h-1.79903v3.4219c-1.057,1.36129 -2.36757,2.37558 -3.75822,2.94145c-0.00801,2.2955 -1.06768,4.82589 -3.07757,6.84113c-2.00189,2.00189 -4.5136,3.05622 -6.79843,3.08025c-0.5712,1.38798 -1.59083,2.70389 -2.96013,3.75555h-3.44593v1.79369c-2.4957,0.80343 -5.0154,0.65662 -6.94523,-0.26425c-0.4591,0.52583 -1.01429,1.00095 -1.64155,1.412v-2.94144h-11.45349v2.94144c-0.62459,-0.41106 -1.17978,-0.88617 -1.64155,-1.412c-1.92982,0.92087 -4.44954,1.06768 -6.94523,0.26425v-1.79369h-3.44325c-1.37196,-1.05166 -2.39159,-2.36757 -2.96013,-3.75555c-2.2875,-0.02402 -4.79654,-1.07835 -6.8011,-3.08025c-2.01524,-2.01524 -3.06956,-4.54563 -3.07757,-6.84113c-1.39065,-0.56587 -2.69855,-1.58016 -3.75822,-2.94145v-3.4219h-1.79637c-0.81677,-2.49836 -0.68331,-5.03143 0.23489,-6.97727c-0.51248,-0.45643 -0.97693,-0.9956 -1.37464,-1.60952h2.93611v-11.45083h-2.93611c0.39771,-0.61391 0.86215,-1.15309 1.37464,-1.60952c-0.9182,-1.94584 -1.05166,-4.4789 -0.23489,-6.97994h1.79637v-3.41923c1.05967,-1.36129 2.36757,-2.37824 3.75822,-2.94144c0.00801,-2.2955 1.06233,-4.8259 3.07757,-6.84114c2.00456,-2.00189 4.5136,-3.05622 6.8011,-3.08024c0.56853,-1.39065 1.58817,-2.70389 2.96013,-3.75822h3.44325v-1.79103c2.4957,-0.80343 5.01541,-0.65662 6.94523,0.26425c0.46177,-0.52583 1.01696,-1.00095 1.64155,-1.41467v2.94145h11.45349zM198.84764,160.81509h-11.4535v11.45082h11.4535zM178.80736,160.81509h-11.45349v11.45082h11.45349zM158.76708,160.81509h-11.45349v11.45082h11.45349zM198.84764,180.85537h-11.4535v11.45083h11.4535zM178.80736,180.85537h-11.45349v11.45083h11.45349zM158.76708,180.85537h-11.45349v11.45083h11.45349zM198.84764,200.89298h-11.4535v11.45349h11.4535zM178.80736,200.89298h-11.45349v11.45349h11.45349zM158.76708,200.89298h-11.45349v11.45349h11.45349zM158.76708,200.89298" fill="#fccc88" fill-rule="evenodd" stroke="none" stroke-width="1" stroke-miterlimit="10"/><path d="M182.62697,179.40601c-0.1815,2.46366 -0.33365,4.93533 -0.42707,7.39633c-0.05605,1.58016 -0.18418,4.25202 0.30428,5.75477c0.0694,0.21354 0.27492,0.69932 0.49647,0.88884c0.1041,-0.06139 0.22955,-0.17083 0.28561,-0.2429c0.35501,-0.39237 0.57922,-1.02497 0.78741,-1.51343c0.09075,-0.19752 0.18418,-0.40304 0.29895,-0.59256c0.56053,-0.91553 1.61219,-1.46005 2.69855,-1.28121c1.54813,0.26158 2.17006,1.53212 2.23145,2.89074c0.05071,1.29989 -0.1041,2.73592 -0.48846,3.97976c-0.5712,1.82038 -1.67091,3.37386 -3.2404,4.4789c-1.73764,1.22249 -4.06251,1.92181 -6.17918,1.49741c-2.08998,-0.42173 -3.86498,-1.9058 -4.95668,-3.71017c-1.22783,-2.02858 -1.27587,-4.26803 -1.27587,-6.57955c0,-3.57137 0.19485,-7.20682 0.37902,-10.77819c0.03737,-0.73936 0.07207,-1.50009 0.11478,-2.26347c-0.37635,0 -0.75538,-0.00534 -1.12906,-0.00534c-0.0347,0.37903 -0.06673,0.75538 -0.10143,1.12906c-0.28026,3.07491 -0.62459,6.14982 -0.93421,9.21939c-0.26158,2.56242 -0.45109,5.63465 -1.15309,8.09298c-0.52049,1.82306 -1.43603,3.46461 -3.04555,4.53495c-1.2652,0.84614 -2.64783,1.12106 -4.1319,0.77941c-1.35328,-0.30963 -2.69856,-1.08102 -3.56337,-2.17272c-0.96358,-1.21982 -1.3079,-2.79998 -1.03031,-4.31875c0.25624,-1.38798 1.049,-2.63716 1.76701,-3.83295c1.03832,-1.72697 2.0446,-3.44859 2.79731,-5.3277c0.79809,-1.96986 1.34261,-4.14525 1.66024,-6.24323c0.08542,-0.58455 0.15748,-1.17178 0.20552,-1.759c-0.36568,0.03737 -0.71801,0.08808 -1.03565,0.16015c-0.40571,0.09342 -0.92354,0.25624 -1.17978,0.61658c-0.20019,0.28026 -0.29362,0.65395 -0.37636,0.98226c-0.355,1.46538 -1.35594,2.44231 -2.9361,2.3302c-0.24023,-0.01869 -0.48846,-0.04004 -0.73403,-0.06139c-1.76968,-0.16282 -2.63449,-1.54279 -2.50637,-3.22705c0.0774,-1.0303 0.28561,-2.0793 0.62193,-3.05088c0.42707,-1.23317 1.12906,-2.55708 1.95385,-3.5687c0.74471,-0.91019 1.53745,-1.49742 2.54374,-2.07129c1.91114,-1.0917 4.50292,-1.18246 6.64628,-1.29723c5.1542,-0.26425 10.39916,-0.25891 15.56671,-0.29361c2.58644,-0.01869 6.25658,-0.47511 6.32331,3.23239c0.01869,1.00361 0.06673,2.01524 0.06673,3.02152c0,0.67264 -0.1041,1.25718 -0.48313,1.8364c-1.12373,1.73497 -3.48329,1.412 -5.26631,1.39065c-0.52583,-0.01067 -1.05433,-0.01602 -1.57482,-0.02135zM182.62697,179.40601" fill="#fccc88" fill-rule="evenodd" stroke="none" stroke-width="1" stroke-miterlimit="10"/><path d="M159.27156,178.01269c0.34432,-0.99561 0.92888,-2.06329 1.5161,-2.78664c0.58989,-0.72068 1.17711,-1.09437 1.8284,-1.47072c0.65395,-0.36835 1.37463,-0.74471 5.51188,-0.95824c4.13725,-0.21354 11.69105,-0.26425 15.45194,-0.29361c3.76355,-0.02669 3.7342,-0.02669 3.74754,0.72068c0.01602,0.74471 0.06673,2.23945 0.06673,2.97615c0,0.73403 -0.05071,0.70733 -3.16299,0.66729c-1.04366,-0.01334 -2.44498,-0.02669 -3.99044,-0.0427c-0.01602,0.37635 -0.05338,0.86481 -0.10143,1.50008c-0.14947,2.01257 -0.38703,5.52256 -0.49647,8.38393c-0.1041,2.86404 -0.07741,5.0768 0.43241,6.64094c0.5018,1.56148 1.49208,2.469 2.47968,2.65318c0.9876,0.18952 1.9752,-0.34699 2.63716,-1.0917c0.66996,-0.75004 1.01696,-1.70828 1.23049,-2.20208c0.21354,-0.49647 0.29362,-0.52049 0.32298,0.1041c0.02402,0.62726 0,1.90847 -0.37635,3.10961c-0.37368,1.19846 -1.09437,2.32486 -2.26615,3.14964c-1.17711,0.82478 -2.80532,1.36128 -4.20397,1.08102c-1.40133,-0.28026 -2.57576,-1.37463 -3.26976,-2.52238c-0.69132,-1.15042 -0.90485,-2.34889 -0.90485,-5.25831c0,-2.90675 0.21353,-7.52444 0.36835,-10.64473c0.12812,-2.42897 0.21887,-3.95307 0.34699,-4.93533c-1.96986,-0.01334 -3.93171,-0.02936 -5.56526,-0.03203h-0.78207c-0.00534,0.72869 -0.06139,1.75899 -0.21354,3.46728c-0.21354,2.3569 -0.61125,6.01636 -0.93422,9.19002c-0.31763,3.179 -0.56053,5.87222 -1.06768,7.64723c-0.50715,1.77501 -1.28121,2.62915 -2.00189,3.10693c-0.72068,0.48046 -1.38531,0.58989 -2.1487,0.41372c-0.76072,-0.17083 -1.61486,-0.62726 -2.12201,-1.26787c-0.50715,-0.6406 -0.66463,-1.46538 -0.51783,-2.26614c0.14681,-0.80343 0.5979,-1.57483 1.43869,-2.97615c0.84347,-1.39865 2.06862,-3.4299 2.97882,-5.68804c0.91019,-2.25814 1.50542,-4.74315 1.81772,-6.82245c0.3123,-2.07663 0.34166,-3.74754 0.33632,-4.63905v-0.16282c-2.03926,0.02936 -3.29645,0.10943 -4.26537,0.32831c-1.404,0.32297 -2.20208,0.93421 -2.69855,1.63088c-0.4938,0.69399 -0.67797,1.46806 -0.77406,1.85509c-0.09609,0.3897 -0.09876,0.40037 -0.26692,0.38436c-0.17083,-0.00801 -0.5018,-0.04271 -0.68598,-0.05605c-0.18685,-0.01869 -0.22422,-0.01869 -0.18685,-0.48846c0.0347,-0.46977 0.1388,-1.40399 0.49113,-2.40494zM158.78043,180.41763" fill="#521e7b" fill-rule="evenodd" stroke="none" stroke-width="1" stroke-miterlimit="10"/><path d="M140.45197,126.68288l-4.04649,-6.10711l-0.71534,7.29223zM149.28165,132.12803l-4.46288,1.11039l-2.2955,-3.45927l-7.17478,1.78301l-0.40572,4.13191l-4.46288,1.11038l2.95746,-20.72359l3.51266,-0.8755zM149.28165,132.12803" fill="#000000" fill-rule="nonzero" stroke="none" stroke-width="1" stroke-miterlimit="10"/><path d="M264.91542,199.28878l-30.82647,-3.53133l-4.11589,35.94063l-19.73865,-2.2608l10.25235,-89.52728l51.8837,5.94161l-2.04994,17.90492l-32.14771,-3.68081l-2.03392,17.7768l30.82646,3.52867zM264.91542,199.28878" fill="none" fill-rule="nonzero" stroke="#e8e8e8" stroke-width="7.18742" stroke-miterlimit="4"/><path d="M265.78363,198.38764l-30.80245,-3.52333l-4.11056,35.94865l-19.752,-2.26347l10.24969,-89.5353l51.8677,5.93627l-2.04994,17.90493l-32.11569,-3.67281l-2.03927,17.7768l30.80245,3.52333zM265.78363,198.38764" fill="#000000" fill-rule="nonzero" stroke="none" stroke-width="1" stroke-miterlimit="10"/><path d="M304.18712,183.64648v13.76234h-8.4987v-38.52175h14.44565c2.07663,0 4.01447,0.5205 5.80816,1.55881c1.7937,1.04099 3.23773,2.48501 4.33476,4.33476c1.09437,1.85242 1.64422,4.00378 1.64422,6.45944c0,2.60513 -0.54985,4.8339 -1.64422,6.68365c-1.09704,1.85242 -2.54107,3.26709 -4.33476,4.24935c-1.7937,0.98226 -3.73153,1.47339 -5.80816,1.47339zM308.72475,165.57073h-4.53762v11.3921h4.53762c1.24385,0 2.40494,-0.49114 3.48063,-1.4734c1.07301,-0.98226 1.61219,-2.39693 1.61219,-4.24935c0,-1.77768 -0.53918,-3.16566 -1.61219,-4.16394c-1.07569,-1.00361 -2.23678,-1.50542 -3.48063,-1.50542zM308.72475,165.57073" fill="#000000" fill-rule="nonzero" stroke="none" stroke-width="1" stroke-miterlimit="10"/><path d="M325.71779,164.76358c0,-1.39332 0.48046,-2.5731 1.44137,-3.53401c0.96625,-0.96624 2.14869,-1.45204 3.54468,-1.45204c1.35861,0 2.53039,0.4858 3.51265,1.45204c0.98226,0.96091 1.4734,2.14069 1.4734,3.53401c0,1.36129 -0.49114,2.53039 -1.4734,3.51265c-0.98226,0.98226 -2.15404,1.47339 -3.51265,1.47339c-1.39598,0 -2.57843,-0.49113 -3.54468,-1.47339c-0.96091,-0.98226 -1.44137,-2.15136 -1.44137,-3.51265zM334.95318,198.29929h-8.4987v-24.98362h8.4987zM334.95318,198.29929" fill="#000000" fill-rule="nonzero" stroke="none" stroke-width="1" stroke-miterlimit="10"/><path d="M341.57983,193.87909c0,-1.35861 0.48045,-2.53039 1.44136,-3.51265c0.96625,-0.98226 2.1487,-1.47339 3.54468,-1.47339c1.35861,0 2.53039,0.49113 3.51265,1.47339c0.98226,0.98226 1.47339,2.15404 1.47339,3.51265c0,1.39598 -0.49113,2.57844 -1.47339,3.54468c-0.98226,0.96091 -2.15404,1.44136 -3.51265,1.44136c-1.39598,0 -2.57844,-0.48045 -3.54468,-1.44136c-0.96091,-0.96624 -1.44136,-2.1487 -1.44136,-3.54468zM343.44826,185.32701l-1.13174,-29.51056h8.4987l-1.13173,29.51056zM343.44826,185.32701" fill="#000000" fill-rule="nonzero" stroke="none" stroke-width="1" stroke-miterlimit="10"/><path d="M313.40669,116.19146c-0.24412,0.0539 -0.29802,-0.19022 -0.29802,-0.19022l-0.00879,-0.03982c-0.38022,-1.72202 -0.76364,-2.83047 -1.0971,-4.59707c-2.25925,-2.41501 -3.8469,-5.57256 -6.24588,-7.97295c-2.15936,-2.16063 -3.73949,-4.62426 -5.86307,-6.74783c0,0 -0.17678,-0.17678 0,-0.35356c0.17678,-0.17678 0.35355,0 0.35355,0c2.12525,2.12525 3.70353,4.58701 5.86318,6.74793c2.44644,2.44787 4.10688,5.54137 6.33817,8.10026c0.40436,1.79533 0.74825,2.94394 1.13939,4.71541l0.0088,0.03982c0,0 0.0539,0.24413 -0.19022,0.29803z" fill="#cdcdcd" fill-rule="nonzero" stroke="none" stroke-width="0.5" stroke-miterlimit="10"/><path d="M113.97093,170.16231c-0.20072,-0.14903 -0.05169,-0.34975 -0.05169,-0.34975l0.29242,-0.39385c1.75073,-2.35793 1.54628,-5.94844 2.81301,-8.48207c0.87941,-1.75894 1.51211,-3.78883 2.39799,-5.47301c0.43865,-0.83393 1.55966,-1.26991 1.53113,-2.32615c0,0 0,-0.25 0.25,-0.25c0.25,0 0.25,0.25 0.25,0.25c-0.02475,1.23942 -1.08037,1.59268 -1.58861,2.55892c-0.88159,1.67602 -1.51632,3.70979 -2.39329,5.46384c-1.27904,2.55824 -1.09123,6.17594 -2.85878,8.55653l-0.29243,0.39385c0,0 -0.14903,0.20072 -0.34976,0.05169z" fill="#cdcdcd" fill-rule="nonzero" stroke="none" stroke-width="0.5" stroke-miterlimit="10"/><path d="M296.76045,213.25633c0.09372,0.23177 -0.13804,0.32549 -0.13804,0.32549l-0.17108,0.06918c-1.17296,0.4743 -2.12198,1.40396 -3.48455,1.71379c-1.66067,0.37762 -3.84701,0.00624 -5.55545,0.00618c-2.27181,-0.00034 -4.79176,0.29489 -7.03787,-0.0546c-1.13428,-0.17649 -2.18463,-0.83581 -3.3439,-0.83454c-2.89291,-0.01183 -6.33764,0.39701 -8.94801,-0.90817c0,0 -0.22361,-0.11181 -0.11181,-0.33541c0.11181,-0.2236 0.33541,-0.11181 0.33541,-0.11181c2.52875,1.26438 5.92044,0.84392 8.72645,0.8554c1.19705,0.0103 2.25153,0.65886 3.41872,0.84048c2.21905,0.34528 4.71613,0.04832 6.96104,0.04865c1.667,0.00006 3.8268,0.37412 5.44455,0.00627c1.35738,-0.30865 2.23214,-1.2143 3.40798,-1.68977l0.17107,-0.06918c0,0 0.23176,-0.09373 0.32549,0.13804z" fill="#cdcdcd" fill-rule="nonzero" stroke="none" stroke-width="0.5" stroke-miterlimit="10"/><path d="M153.25631,71.85165c-0.17827,0.17527 -0.35354,-0.00301 -0.35354,-0.00301c-0.11684,-0.11885 -0.32419,-0.32975 -0.44103,-0.4486c-1.03621,-1.05399 -1.67058,-1.99349 -2.34321,-3.20366c-0.28373,-0.51047 -1.19637,-0.59045 -1.61692,-0.76982c-1.07722,-0.45945 -2.7669,-1.83083 -3.63273,-2.6401c-1.7117,-0.31093 -2.03198,-2.01268 -3.47793,-2.62824c-0.80767,-0.34383 -3.36633,-0.86984 -4.24852,-0.8606c0,0 -0.25,0 -0.25,-0.25c0,-0.25 0.25,-0.25 0.25,-0.25c0.94127,0.00812 3.56913,0.52796 4.44437,0.90055c1.46192,0.62235 1.84627,2.27823 3.5066,2.64152c0.89429,0.77792 2.53282,2.206 3.5984,2.62444c0.54692,0.21477 1.48038,0.36528 1.85737,0.97816c0.69747,1.13388 1.26089,2.08166 2.26913,3.10721c0.11684,0.11885 0.23369,0.2377 0.35053,0.35655l0.0905,0.09205c0,0 0.17527,0.17827 -0.00301,0.35354z" fill="#cdcdcd" fill-rule="nonzero" stroke="none" stroke-width="0.5" stroke-miterlimit="10"/><path d="M323.34305,146.05349c0.00015,0.25 -0.24985,0.25015 -0.24985,0.25015l-0.07978,0.00005c-0.87806,0.00053 -2.60565,-0.33246 -3.39949,0.01628c-1.39082,0.611 -1.82393,2.60454 -3.60472,2.64011c0,0 -0.25,0 -0.25,-0.25c0,-0.25 0.25,-0.25 0.25,-0.25c1.55677,0.04205 2.1558,-2.0539 3.40439,-2.59822c0.88602,-0.38626 2.63328,-0.05758 3.59952,-0.05816l0.07978,-0.00005c0,0 0.25,-0.00015 0.25015,0.24985z" fill="#cdcdcd" fill-rule="nonzero" stroke="none" stroke-width="0.5" stroke-miterlimit="10"/></g></g></svg>