<svg version="1.1" xmlns="http://www.w3.org/2000/svg" xmlns:xlink="http://www.w3.org/1999/xlink" width="99" height="54.5" viewBox="0,0,99,54.5"><g transform="translate(-190.5,-149.75)"><g data-paper-data="{&quot;isPaintingLayer&quot;:true}" fill-rule="nonzero" stroke-linejoin="miter" stroke-miterlimit="10" stroke-dasharray="" stroke-dashoffset="0" style="mix-blend-mode: normal"><path d="M192.25,191.5c0,-8.96537 0,-20.94029 0,-26c0,-6.56706 5.03226,-10.5 10,-10.5c10.95041,0 53.98036,0 74.5,0c7.94992,0 11,3.93539 11,10.25c0,8.19601 0,19.13233 0,24.25c0,5.37018 -0.01997,13 -10.75,13c-19.96678,0 -63.57196,0 -74.75,0c-4.96774,0 -10,-2.0244 -10,-11z" fill="#8ae689" stroke="#000000" stroke-width="3.5" stroke-linecap="butt"/><path d="M192.25,188c0,-8.96537 0,-20.94029 0,-26c0,-6.56706 5.03226,-10.5 10,-10.5c10.95041,0 53.98036,0 74.5,0c7.94992,0 11,3.93539 11,10.25c0,8.19601 0,19.13233 0,24.25c0,5.37018 -0.01997,13 -10.75,13c-19.96678,0 -63.57196,0 -74.75,0c-4.96774,0 -10,-2.0244 -10,-11z" fill="#57e655" stroke="#000000" stroke-width="3.5" stroke-linecap="butt"/><path d="M218.95428,185.89566v-10.61386l0.20362,1.489l-8.60308,-12.15376h5.8669l6.56685,9.41757l-2.67255,-0.08908l5.93053,-9.32848h5.68873l-8.24674,12.49737l0.45815,-2.07441v10.85567zM239.13689,186.20109c-1.7817,0 -3.33433,-0.36058 -4.65788,-1.08174c-1.31506,-0.72117 -2.33742,-1.70534 -3.06707,-2.95254c-0.72965,-1.24719 -1.09447,-2.66831 -1.09447,-4.26336c0,-1.23871 0.20362,-2.37561 0.61087,-3.41069c0.40725,-1.03508 0.9757,-1.93018 1.70534,-2.68528c0.72965,-0.76359 1.59505,-1.35325 2.5962,-1.76897c1.00115,-0.41573 2.09987,-0.62359 3.29615,-0.62359c1.13689,0 2.17623,0.20362 3.11798,0.61087c0.94176,0.40725 1.75625,0.9757 2.44348,1.70534c0.69572,0.72965 1.22598,1.59081 1.59081,2.58347c0.36483,0.99266 0.52602,2.07442 0.48361,3.24525l-0.02545,1.31083h-12.86644l-0.69995,-2.73618h9.60847l-0.52178,0.58542v-0.61087c-0.03394,-0.50906 -0.19089,-0.95872 -0.47087,-1.349c-0.27149,-0.39876 -0.63208,-0.70844 -1.08174,-0.92903c-0.44119,-0.22908 -0.946,-0.34361 -1.51444,-0.34361c-0.78904,0 -1.46354,0.15696 -2.0235,0.47088c-0.55996,0.31392 -0.97993,0.77207 -1.25991,1.37446c-0.27998,0.5939 -0.41997,1.32779 -0.41997,2.20168c0,0.89085 0.18666,1.66717 0.55996,2.32894c0.37331,0.65329 0.92055,1.16235 1.64172,1.52717c0.72117,0.36483 1.57808,0.54724 2.57074,0.54724c0.68723,0 1.2981,-0.09757 1.83261,-0.2927c0.53451,-0.20362 1.11993,-0.55148 1.75625,-1.04357l2.27804,3.23252c-0.62784,0.543 -1.2981,0.98842 -2.01078,1.33628c-0.71268,0.33937 -1.43808,0.5939 -2.17622,0.76359c-0.73813,0.17817 -1.47202,0.26726 -2.20167,0.26726zM254.70081,186.20109c-1.57808,0 -2.9695,-0.25453 -4.17428,-0.76359c-1.20477,-0.50906 -2.1635,-1.1878 -2.87618,-2.03623l2.95254,-2.55801c0.62784,0.62784 1.33628,1.09023 2.12532,1.38719c0.78904,0.29695 1.5399,0.44543 2.25259,0.44543c0.27998,0 0.53027,-0.0297 0.75086,-0.08908c0.22908,-0.06787 0.41998,-0.15696 0.57269,-0.26725c0.15272,-0.1103 0.26726,-0.2418 0.34362,-0.39452c0.08485,-0.15272 0.12726,-0.33089 0.12726,-0.53451c0,-0.39876 -0.18241,-0.71268 -0.54723,-0.94176c-0.18666,-0.10181 -0.49209,-0.22059 -0.9163,-0.35634c-0.42421,-0.14423 -0.97145,-0.30968 -1.64171,-0.49633c-0.95024,-0.23756 -1.77746,-0.52178 -2.48165,-0.85267c-0.69572,-0.33937 -1.2684,-0.73389 -1.71807,-1.18356c-0.39876,-0.42421 -0.71268,-0.8951 -0.94176,-1.41263c-0.22059,-0.51755 -0.33089,-1.09872 -0.33089,-1.74352c0,-0.74662 0.17817,-1.42536 0.53451,-2.03623c0.35634,-0.61087 0.83146,-1.13689 1.42536,-1.57808c0.60238,-0.44967 1.29385,-0.78904 2.07442,-1.01812c0.78055,-0.23756 1.58232,-0.35634 2.4053,-0.35634c0.89934,0 1.75201,0.10181 2.55802,0.30543c0.81449,0.20362 1.56959,0.48785 2.26531,0.85268c0.70419,0.36483 1.32779,0.80177 1.87079,1.31083l-2.55801,2.85072c-0.36483,-0.33937 -0.77631,-0.64481 -1.23446,-0.9163c-0.44967,-0.27998 -0.92055,-0.50057 -1.41263,-0.66178c-0.48361,-0.1612 -0.92903,-0.2418 -1.33627,-0.2418c-0.29695,0 -0.56421,0.02545 -0.80176,0.07636c-0.22908,0.05091 -0.42846,0.13151 -0.59814,0.24181c-0.1612,0.1103 -0.28423,0.24181 -0.36906,0.39452c-0.07636,0.15272 -0.11453,0.33089 -0.11453,0.53451c0,0.20362 0.05515,0.39876 0.16545,0.58542c0.11878,0.17817 0.27574,0.32664 0.47088,0.44543c0.20362,0.11878 0.52602,0.25453 0.96721,0.40725c0.44967,0.15272 1.06053,0.34362 1.83261,0.57269c0.95872,0.26302 1.7817,0.55572 2.46893,0.87813c0.68723,0.3224 1.23447,0.70844 1.64172,1.15811c0.3224,0.33937 0.56421,0.73813 0.72541,1.19629c0.1612,0.45815 0.24181,0.95024 0.24181,1.47627c0,1.03508 -0.28847,1.95139 -0.8654,2.74891c-0.57693,0.79753 -1.37446,1.42536 -2.39257,1.88351c-1.00963,0.45815 -2.1635,0.68723 -3.46159,0.68723zM265.30906,178.14525c-0.1612,-1.23871 -0.3224,-2.51559 -0.48361,-3.83066c-0.1612,-1.31506 -0.2927,-2.62165 -0.39452,-3.91975c-0.10181,-1.2981 -0.15272,-2.54529 -0.15272,-3.74158v-2.37984h5.14149v2.37985c0,1.21325 -0.05091,2.48166 -0.15272,3.80521c-0.10181,1.31506 -0.23332,2.62589 -0.39452,3.93248c-0.1612,1.30659 -0.33513,2.55802 -0.52178,3.75431zM266.83624,186.22655c-0.83146,0 -1.48051,-0.23332 -1.94714,-0.69995c-0.46664,-0.46664 -0.69995,-1.13265 -0.69995,-1.99805c0,-0.81449 0.24181,-1.47202 0.72541,-1.9726c0.49209,-0.50906 1.13266,-0.76359 1.9217,-0.76359c0.83146,0 1.47202,0.23756 1.9217,0.71268c0.45815,0.47512 0.68723,1.14962 0.68723,2.02351c0,0.78904 -0.2418,1.43809 -0.7254,1.94715c-0.48361,0.50057 -1.11144,0.75086 -1.88351,0.75086z" fill="#000000" stroke="none" stroke-width="1" stroke-linecap="square"/></g></g></svg>