<svg version="1.1" xmlns="http://www.w3.org/2000/svg" xmlns:xlink="http://www.w3.org/1999/xlink" width="220.64373" height="68.44616" viewBox="0,0,220.64373,68.44616"><g transform="translate(-129.67814,-145.77692)"><g data-paper-data="{&quot;isPaintingLayer&quot;:true}" fill-rule="nonzero" stroke-linejoin="miter" stroke-miterlimit="10" stroke-dasharray="" stroke-dashoffset="0" style="mix-blend-mode: normal"><path d="M131.67814,195.2399c0,-10.52718 0,-23.20461 0,-29.5c0,-13.88468 8.9101,-17.96298 18.24169,-17.96298c24.95954,0 139.93786,0 182.5,0c9.91655,0 15.90204,6.63307 15.90204,14.96298c0,9.84685 -0.15881,22.06679 0,28.5c0.5,20.25382 -6.18622,20.98318 -16.40204,20.98318c-43.08585,0 -157.8496,0 -182.5,0c-9.10768,0 -17.74169,-1.14575 -17.74169,-16.98318z" fill="#ffffff" stroke="#000000" stroke-width="4" stroke-linecap="butt"/><path d="M202.17067,191.05609v-24.86241h10.72528c1.56716,0 2.9602,0.35642 4.1791,1.06926c1.21891,0.7074 2.1875,1.676 2.90578,2.90578c0.72372,1.22979 1.08559,2.61466 1.08559,4.15462c0,1.6107 -0.36186,3.04998 -1.08559,4.31786c-0.71828,1.26788 -1.68688,2.26912 -2.90578,3.00373c-1.21891,0.73461 -2.61194,1.10191 -4.1791,1.10191h-4.68517v8.30924zM208.10467,177.44951h3.9424c0.52239,0 0.9958,-0.1306 1.42024,-0.39179c0.42444,-0.26119 0.76726,-0.6149 1.02845,-1.0611c0.26119,-0.45165 0.39179,-0.97404 0.39179,-1.56716c0,-0.6149 -0.1306,-1.13456 -0.39179,-1.559c-0.26119,-0.42988 -0.60401,-0.76182 -1.02845,-0.9958c-0.42444,-0.23943 -0.89785,-0.35914 -1.42024,-0.35914h-3.9424zM225.11515,191.05609v-26.28265h5.68913v26.28265zM242.48856,191.37442c-1.58893,0 -3.00645,-0.419 -4.25257,-1.257c-1.24067,-0.84344 -2.22831,-2.00521 -2.96292,-3.48531c-0.72917,-1.4801 -1.09375,-3.15609 -1.09375,-5.02799c0,-1.91542 0.36458,-3.60774 1.09375,-5.07696c0.73461,-1.46922 1.74129,-2.62282 3.02006,-3.46082c1.27876,-0.84344 2.7371,-1.26516 4.375,-1.26516c0.89785,0 1.71953,0.1306 2.46502,0.39179c0.74549,0.26119 1.4012,0.62306 1.96712,1.08559c0.57136,0.46253 1.05838,0.9958 1.46105,1.59981c0.40267,0.60401 0.69924,1.24883 0.88969,1.93447l-1.17537,-0.14692v-4.47295h5.64832v18.86311h-5.75443v-4.54641l1.28148,-0.03265c-0.19045,0.65843 -0.50062,1.2842 -0.9305,1.87733c-0.42444,0.59313 -0.94411,1.11552 -1.559,1.56716c-0.6149,0.44621 -1.30053,0.79991 -2.0569,1.0611c-0.75637,0.26119 -1.56172,0.39179 -2.41604,0.39179zM244.04756,186.58314c0.87609,0 1.63518,-0.20134 2.27729,-0.60401c0.6421,-0.40268 1.14,-0.97676 1.4937,-1.72225c0.3537,-0.74549 0.53055,-1.62974 0.53055,-2.65275c0,-1.01757 -0.17685,-1.8991 -0.53055,-2.64459c-0.3537,-0.74549 -0.8516,-1.32502 -1.4937,-1.73857c-0.6421,-0.41356 -1.4012,-0.62034 -2.27729,-0.62034c-0.84888,0 -1.58893,0.20678 -2.22015,0.62034c-0.62578,0.41356 -1.11552,0.99308 -1.46922,1.73857c-0.3537,0.74549 -0.53055,1.62702 -0.53055,2.64459c0,1.02301 0.17685,1.90726 0.53055,2.65275c0.3537,0.74549 0.84344,1.31957 1.46922,1.72225c0.63122,0.40267 1.37127,0.60401 2.22015,0.60401zM260.89253,199.22656l4.29338,-10.12127l0.07346,2.91395l-9.09282,-19.82626h6.42374l3.98321,9.48461c0.21222,0.47341 0.41356,0.9822 0.60401,1.52635c0.19045,0.54415 0.33193,1.06654 0.42444,1.56716l-0.78358,0.45709c0.14148,-0.3537 0.30201,-0.79719 0.48158,-1.33046c0.17957,-0.53327 0.37547,-1.10735 0.58769,-1.72225l3.47715,-9.98251h6.46455l-8.02355,18.86311l-3.26493,8.17048z" fill="#000000" stroke="none" stroke-width="1" stroke-linecap="square"/></g></g></svg>