<svg version="1.1" xmlns="http://www.w3.org/2000/svg" xmlns:xlink="http://www.w3.org/1999/xlink" width="205.64286" height="99.25" viewBox="0,0,205.64286,99.25"><g transform="translate(-137.30606,-131)"><g data-paper-data="{&quot;isPaintingLayer&quot;:true}" fill-rule="nonzero" stroke-linejoin="miter" stroke-miterlimit="10" stroke-dasharray="" stroke-dashoffset="0" style="mix-blend-mode: normal"><path d="M140.55606,207.25c0,-18.73959 -0.38249,-45.48871 0,-55.5c0.5,-13.0871 3.89541,-16.75 15.32143,-16.75c22.08229,0 127.56734,0 168,0c15.33535,0 15.82143,4.98326 15.82143,16.75c0,17.95892 0,45.32915 0,56c0,14.97422 -0.38765,19.25 -14.32143,19.25c-38.12556,0 -140.83396,0 -165,0c-18.91714,0 -19.82143,-3.40978 -19.82143,-19.75z" fill="#ffffff" stroke-opacity="0.25901" stroke="#000000" stroke-width="6.5" stroke-linecap="butt"/><path d="M140.47107,205.25c0,-18.73959 -0.38249,-45.48871 0,-55.5c0.5,-13.0871 3.89541,-16.75 15.32143,-16.75c22.08229,0 127.56734,0 168,0c15.33535,0 15.82143,4.98326 15.82143,16.75c0,17.95892 0,45.32915 0,56c0,14.97422 -0.38765,19.25 -14.32143,19.25c-38.12556,0 -140.83396,0 -165,0c-18.91714,0 -19.82143,-3.40978 -19.82143,-19.75z" fill="#ffffff" stroke="#000000" stroke-width="4" stroke-linecap="butt"/><path d="M178.30094,166.34671l-3.12815,-10.44816h2.5823l1.56757,5.49351c0.06532,0.24727 0.12597,0.4992 0.18195,0.75579c0.05598,0.25193 0.10031,0.4922 0.13296,0.7208c0.03732,0.2286 0.06532,0.44088 0.08398,0.63683c0.01866,0.19128 0.03966,0.35224 0.06298,0.48287h-0.32891c0.05598,-0.36857 0.1073,-0.69748 0.15396,-0.98673c0.04665,-0.28926 0.09797,-0.55985 0.15396,-0.81178c0.06065,-0.25193 0.1353,-0.51786 0.22394,-0.79778l1.55358,-4.13588h2.02945l1.52559,4.13588c0.1213,0.32658 0.22161,0.63449 0.30092,0.92375c0.07931,0.28926 0.13996,0.56685 0.18195,0.83277c0.04665,0.26126 0.08398,0.52019 0.11197,0.77679l-0.29392,0.04899c0.01866,-0.18195 0.03266,-0.3499 0.04199,-0.50386c0.00933,-0.15396 0.02099,-0.30325 0.03499,-0.44788c0.01866,-0.14463 0.03732,-0.29625 0.05598,-0.45488c0.01866,-0.15862 0.04665,-0.33358 0.08398,-0.52486c0.04199,-0.19595 0.09797,-0.41755 0.16795,-0.66482l1.55358,-5.47951h2.51932l-3.13515,10.44816h-1.93847l-2.47733,-6.01836l0.28692,0.03499l-2.28838,5.98337zM190.98894,166.34671v-11.043h2.34436v4.73071l-0.47587,0.17495c0.11197,-0.35457 0.30792,-0.67882 0.58784,-0.97274c0.28459,-0.29392 0.62516,-0.52952 1.02172,-0.70681c0.40123,-0.18195 0.82111,-0.27293 1.25966,-0.27293c0.59717,0 1.0987,0.1213 1.50459,0.3639c0.40589,0.2426 0.71381,0.6065 0.92375,1.0917c0.20994,0.48054 0.31491,1.07071 0.31491,1.77052v4.86368h-2.40035v-4.67473c0,-0.31725 -0.04665,-0.57851 -0.13996,-0.78379c-0.08864,-0.20994 -0.22627,-0.36623 -0.41289,-0.46887c-0.18195,-0.1073 -0.40589,-0.15629 -0.67182,-0.14696c-0.20994,0 -0.40589,0.03266 -0.58784,0.09797c-0.17729,0.06532 -0.33124,0.16096 -0.46187,0.28692c-0.12597,0.1213 -0.22627,0.26126 -0.30092,0.41989c-0.07465,0.15862 -0.11197,0.33358 -0.11197,0.52486v4.74471h-1.18268c-0.27992,0 -0.52019,0 -0.7208,0c-0.19595,0 -0.35924,0 -0.48987,0zM204.2465,166.49367c-0.8771,0 -1.63989,-0.17495 -2.28838,-0.52486c-0.64383,-0.35457 -1.14535,-0.83744 -1.50459,-1.44861c-0.35457,-0.61117 -0.53186,-1.31098 -0.53186,-2.09943c0,-0.6065 0.09797,-1.16402 0.29392,-1.67255c0.20061,-0.50853 0.4782,-0.94941 0.83277,-1.32264c0.35924,-0.37323 0.78612,-0.66015 1.28065,-0.86077c0.49453,-0.20528 1.03339,-0.30792 1.61656,-0.30792c0.55985,0 1.07071,0.10031 1.53258,0.30092c0.46187,0.19595 0.86077,0.47354 1.19667,0.83277c0.34057,0.35924 0.5995,0.78379 0.77679,1.27365c0.18195,0.4852 0.26359,1.01706 0.24493,1.59557l-0.014,0.63683h-6.31928l-0.34291,-1.34363h4.71672l-0.25193,0.28692v-0.30092c-0.01866,-0.24727 -0.09564,-0.46654 -0.23094,-0.65782c-0.1353,-0.19595 -0.31258,-0.34757 -0.53186,-0.45488c-0.21927,-0.11197 -0.46654,-0.16795 -0.7418,-0.16795c-0.38723,0 -0.71847,0.07698 -0.99373,0.23094c-0.27526,0.15396 -0.48287,0.3779 -0.62283,0.67182c-0.13996,0.29392 -0.20994,0.65316 -0.20994,1.07771c0,0.43855 0.09098,0.82111 0.27293,1.14769c0.18662,0.32191 0.45721,0.57384 0.81178,0.75579c0.35457,0.17729 0.77446,0.26593 1.25966,0.26593c0.34057,0 0.64149,-0.04899 0.90275,-0.14696c0.26593,-0.10264 0.55285,-0.27293 0.86077,-0.51086l1.1197,1.58157c-0.30792,0.27059 -0.63683,0.48987 -0.98673,0.65782c-0.34524,0.16795 -0.69981,0.29392 -1.06371,0.3779c-0.3639,0.08398 -0.72547,0.12597 -1.08471,0.12597zM209.2147,166.34671v-7.92885h2.27438l0.06998,1.61656l-0.47587,0.17495c0.11197,-0.35457 0.30792,-0.67882 0.58784,-0.97274c0.28459,-0.29392 0.62516,-0.52952 1.02172,-0.70681c0.40123,-0.18195 0.82111,-0.27293 1.25966,-0.27293c0.59717,0 1.0987,0.1213 1.50459,0.3639c0.40589,0.2426 0.71381,0.6065 0.92375,1.0917c0.20994,0.48054 0.31491,1.07071 0.31491,1.77052v4.86368h-2.40035v-4.67473c0,-0.31725 -0.04665,-0.57851 -0.13996,-0.78379c-0.08864,-0.20994 -0.22627,-0.36623 -0.41289,-0.46887c-0.18195,-0.1073 -0.40589,-0.15629 -0.67182,-0.14696c-0.20994,0 -0.40589,0.03266 -0.58784,0.09797c-0.17729,0.06532 -0.33124,0.16096 -0.46187,0.28692c-0.12597,0.1213 -0.22627,0.26126 -0.30092,0.41989c-0.07465,0.15862 -0.11197,0.33358 -0.11197,0.52486v4.74471h-1.18268c-0.27992,0 -0.52019,0 -0.7208,0c-0.19595,0 -0.35924,0 -0.48987,0zM225.20543,166.34671l-2.61029,-7.92885h2.51932l1.4626,5.1506l-0.31491,-0.05598l1.64455,-4.00291h1.39962l1.73553,4.01691l-0.34291,0.02799l1.4626,-5.1366h2.51932l-2.70127,7.92885h-1.75652l-1.72153,-4.25484l0.18195,0.02799l-1.71453,4.22685zM238.62721,166.47967c-0.66715,0 -1.26199,-0.17495 -1.78452,-0.52486c-0.52252,-0.35457 -0.94008,-0.84211 -1.25266,-1.4626c-0.30792,-0.62516 -0.46187,-1.32964 -0.46187,-2.11343c0,-0.80711 0.15396,-1.51859 0.46187,-2.13442c0.31258,-0.6205 0.73713,-1.1057 1.27365,-1.4556c0.53652,-0.35457 1.14769,-0.53186 1.8335,-0.53186c0.3779,0 0.72314,0.05598 1.03572,0.16795c0.31725,0.1073 0.59484,0.25893 0.83277,0.45488c0.23794,0.19128 0.44088,0.41522 0.60883,0.67182c0.17262,0.25193 0.29858,0.52252 0.3779,0.81178l-0.49686,-0.06298v-1.88249h2.37236v7.92885h-2.41434v-1.91048l0.53885,-0.014c-0.07931,0.27992 -0.20994,0.54352 -0.39189,0.79079c-0.17729,0.24727 -0.39656,0.46654 -0.65782,0.65782c-0.2566,0.18662 -0.54585,0.33591 -0.86776,0.44788c-0.31725,0.1073 -0.65316,0.16096 -1.00773,0.16096zM239.27804,164.46422c0.36857,0 0.68581,-0.08398 0.95174,-0.25193c0.27059,-0.16795 0.48054,-0.40822 0.62983,-0.7208c0.14929,-0.31725 0.22394,-0.68815 0.22394,-1.1127c0,-0.42922 -0.07465,-0.80012 -0.22394,-1.1127c-0.14929,-0.31258 -0.35924,-0.55518 -0.62983,-0.7278c-0.26593,-0.17729 -0.58318,-0.26593 -0.95174,-0.26593c-0.35457,0 -0.66482,0.08864 -0.93075,0.26593c-0.26126,0.17262 -0.46654,0.41522 -0.61583,0.7278c-0.14929,0.31258 -0.22394,0.68348 -0.22394,1.1127c0,0.42455 0.07465,0.79545 0.22394,1.1127c0.14929,0.31258 0.35457,0.55285 0.61583,0.7208c0.26593,0.16795 0.57618,0.25193 0.93075,0.25193zM248.20512,166.49367c-0.77446,0 -1.45794,-0.12363 -2.05044,-0.3709c-0.5925,-0.24727 -1.06371,-0.58084 -1.41362,-1.00073l1.44861,-1.25266c0.30792,0.30792 0.65549,0.53419 1.04272,0.67882c0.39189,0.14463 0.76046,0.21694 1.1057,0.21694c0.13996,0 0.26359,-0.014 0.3709,-0.04199c0.11197,-0.03266 0.20528,-0.07465 0.27992,-0.12597c0.07465,-0.05598 0.13063,-0.1213 0.16795,-0.19595c0.04199,-0.07465 0.06298,-0.16329 0.06298,-0.26593c0,-0.19595 -0.08864,-0.3499 -0.26593,-0.46187c-0.08864,-0.04665 -0.23794,-0.10497 -0.44788,-0.17495c-0.20994,-0.06998 -0.4782,-0.15162 -0.80478,-0.24493c-0.47121,-0.11663 -0.87943,-0.2566 -1.22467,-0.41989c-0.34057,-0.16795 -0.6205,-0.35924 -0.83977,-0.57384c-0.19595,-0.20994 -0.3499,-0.44088 -0.46187,-0.69281c-0.1073,-0.2566 -0.16096,-0.54352 -0.16096,-0.86077c0,-0.36857 0.08631,-0.70214 0.25893,-1.00073c0.17262,-0.29858 0.40589,-0.55751 0.69981,-0.77679c0.29392,-0.21927 0.63216,-0.3849 1.01472,-0.49686c0.38723,-0.11663 0.78379,-0.17495 1.18968,-0.17495c0.43855,0 0.8561,0.05132 1.25266,0.15396c0.39656,0.09797 0.76746,0.2356 1.1127,0.41289c0.34524,0.17729 0.65082,0.39189 0.91675,0.64383l-1.25266,1.39962c-0.17729,-0.16795 -0.3779,-0.31958 -0.60184,-0.45488c-0.22394,-0.1353 -0.45721,-0.2426 -0.69981,-0.32191c-0.23794,-0.07931 -0.45488,-0.11897 -0.65082,-0.11897c-0.14929,0 -0.28226,0.014 -0.39889,0.04199c-0.11197,0.02333 -0.20994,0.06298 -0.29392,0.11897c-0.07931,0.05132 -0.13996,0.1143 -0.18195,0.18895c-0.03732,0.07465 -0.05598,0.16329 -0.05598,0.26593c0,0.09797 0.02799,0.19128 0.08398,0.27992c0.05598,0.08864 0.13296,0.16329 0.23094,0.22394c0.10264,0.06065 0.26126,0.1283 0.47587,0.20294c0.21927,0.07465 0.51786,0.16562 0.89576,0.27293c0.47121,0.13063 0.87476,0.27526 1.21067,0.43388c0.34057,0.15862 0.60883,0.34757 0.80478,0.56685c0.16329,0.17262 0.28459,0.3709 0.3639,0.59484c0.07931,0.22394 0.11897,0.46421 0.11897,0.7208c0,0.50853 -0.1423,0.95874 -0.42688,1.35063c-0.28459,0.39189 -0.67648,0.69981 -1.17568,0.92375c-0.49453,0.22394 -1.06138,0.33591 -1.70054,0.33591zM257.95621,166.34671v-10.44816h4.50678c0.65782,0 1.241,0.14929 1.74952,0.44788c0.51319,0.29858 0.92142,0.70681 1.22467,1.22467c0.30325,0.51786 0.45488,1.0987 0.45488,1.74253c0,0.67648 -0.15162,1.28299 -0.45488,1.81951c-0.30325,0.53186 -0.71147,0.95174 -1.22467,1.25966c-0.50853,0.30792 -1.0917,0.46187 -1.74952,0.46187h-1.97346v3.49205zM260.44753,160.62926h1.65855c0.21927,0 0.41755,-0.05365 0.59484,-0.16096c0.17729,-0.11197 0.31958,-0.26126 0.42688,-0.44788c0.11197,-0.19128 0.16795,-0.41055 0.16795,-0.65782c0,-0.26126 -0.05598,-0.48054 -0.16795,-0.65782c-0.1073,-0.17729 -0.2496,-0.31491 -0.42688,-0.41289c-0.17729,-0.10264 -0.37556,-0.15396 -0.59484,-0.15396h-1.65855zM267.71885,166.34671v-7.92885h2.38635v7.92885zM268.90853,156.85029c-0.44788,0 -0.79778,-0.10497 -1.04971,-0.31491c-0.25193,-0.21461 -0.3779,-0.52252 -0.3779,-0.92375c0,-0.35457 0.1283,-0.64616 0.3849,-0.87476c0.2566,-0.23327 0.60417,-0.3499 1.04272,-0.3499c0.44788,0 0.79545,0.1073 1.04272,0.32191c0.25193,0.21461 0.3779,0.51553 0.3779,0.90275c0,0.36857 -0.1283,0.66715 -0.3849,0.89576c-0.25193,0.2286 -0.59717,0.34291 -1.03572,0.34291zM280.11937,166.50767c-0.68581,0 -1.29465,-0.17495 -1.8265,-0.52486c-0.53186,-0.35457 -0.95174,-0.84211 -1.25966,-1.4626c-0.30792,-0.62516 -0.46187,-1.3343 -0.46187,-2.12742c0,-0.79778 0.15396,-1.50692 0.46187,-2.12742c0.30792,-0.62516 0.73014,-1.11503 1.26666,-1.4696c0.53652,-0.35924 1.15235,-0.53885 1.8475,-0.53885c0.35924,0 0.70214,0.05598 1.02872,0.16795c0.33124,0.1073 0.62983,0.2566 0.89576,0.44788c0.27059,0.18662 0.48987,0.40123 0.65782,0.64383c0.17262,0.2426 0.27293,0.49453 0.30092,0.75579l-0.56685,0.13296v-5.10161h2.40035v11.043h-2.2184l-0.13996,-1.80551l0.48287,0.07698c-0.03266,0.24727 -0.13063,0.4852 -0.29392,0.71381c-0.16329,0.2286 -0.37556,0.43155 -0.63683,0.60883c-0.2566,0.17262 -0.55285,0.31025 -0.88876,0.41289c-0.33124,0.10264 -0.68115,0.15396 -1.04971,0.15396zM280.73521,164.5272c0.36857,0 0.68581,-0.08864 0.95174,-0.26593c0.27059,-0.18195 0.4782,-0.43155 0.62283,-0.7488c0.14463,-0.32191 0.21694,-0.69515 0.21694,-1.1197c0,-0.43855 -0.07231,-0.81644 -0.21694,-1.13369c-0.14463,-0.32191 -0.35224,-0.57151 -0.62283,-0.7488c-0.26593,-0.17729 -0.58318,-0.26593 -0.95174,-0.26593c-0.36857,0 -0.68581,0.08864 -0.95174,0.26593c-0.26126,0.17729 -0.46654,0.42688 -0.61583,0.7488c-0.14929,0.31725 -0.22394,0.69515 -0.22394,1.13369c0,0.42455 0.07465,0.79778 0.22394,1.1197c0.14929,0.31725 0.35457,0.56685 0.61583,0.7488c0.26593,0.17729 0.58318,0.26593 0.95174,0.26593zM289.8116,166.47967c-0.66715,0 -1.26199,-0.17495 -1.78452,-0.52486c-0.52252,-0.35457 -0.94008,-0.84211 -1.25266,-1.4626c-0.30792,-0.62516 -0.46187,-1.32964 -0.46187,-2.11343c0,-0.80711 0.15396,-1.51859 0.46187,-2.13442c0.31258,-0.6205 0.73713,-1.1057 1.27365,-1.4556c0.53652,-0.35457 1.14769,-0.53186 1.8335,-0.53186c0.3779,0 0.72314,0.05598 1.03572,0.16795c0.31725,0.1073 0.59484,0.25893 0.83277,0.45488c0.23794,0.19128 0.44088,0.41522 0.60883,0.67182c0.17262,0.25193 0.29858,0.52252 0.3779,0.81178l-0.49686,-0.06298v-1.88249h2.37236v7.92885h-2.41434v-1.91048l0.53885,-0.014c-0.07931,0.27992 -0.20994,0.54352 -0.39189,0.79079c-0.17729,0.24727 -0.39656,0.46654 -0.65782,0.65782c-0.2566,0.18662 -0.54585,0.33591 -0.86776,0.44788c-0.31725,0.1073 -0.65316,0.16096 -1.00773,0.16096zM290.46243,164.46422c0.36857,0 0.68581,-0.08398 0.95174,-0.25193c0.27059,-0.16795 0.48054,-0.40822 0.62983,-0.7208c0.14929,-0.31725 0.22394,-0.68815 0.22394,-1.1127c0,-0.42922 -0.07465,-0.80012 -0.22394,-1.1127c-0.14929,-0.31258 -0.35924,-0.55518 -0.62983,-0.7278c-0.26593,-0.17729 -0.58318,-0.26593 -0.95174,-0.26593c-0.35457,0 -0.66482,0.08864 -0.93075,0.26593c-0.26126,0.17262 -0.46654,0.41522 -0.61583,0.7278c-0.14929,0.31258 -0.22394,0.68348 -0.22394,1.1127c0,0.42455 0.07465,0.79545 0.22394,1.1127c0.14929,0.31258 0.35457,0.55285 0.61583,0.7208c0.26593,0.16795 0.57618,0.25193 0.93075,0.25193zM297.53783,169.78278l1.80551,-4.25484l0.03499,1.22467l-3.82096,-8.33474h2.70127l1.67255,3.98892c0.08864,0.20061 0.17262,0.41522 0.25193,0.64383c0.07931,0.2286 0.13763,0.44554 0.17495,0.65082l-0.32191,0.19595c0.05598,-0.14929 0.1213,-0.33591 0.19595,-0.55985c0.07465,-0.22394 0.15862,-0.46421 0.25193,-0.7208l1.4626,-4.19886h2.71526l-3.37308,7.92885l-1.37863,3.43607z" fill="#000000" stroke="none" stroke-width="1" stroke-linecap="square"/><path d="M156.16977,184.4088c-0.82578,0 -1.56058,-0.17729 -2.2044,-0.53186c-0.64383,-0.35924 -1.15235,-0.84677 -1.52559,-1.4626c-0.36857,-0.6205 -0.55285,-1.32731 -0.55285,-2.12042c0,-0.79778 0.18428,-1.50459 0.55285,-2.12042c0.37323,-0.6205 0.88176,-1.10803 1.52559,-1.4626c0.64383,-0.35924 1.37863,-0.53885 2.2044,-0.53885c0.82578,0 1.55824,0.17962 2.1974,0.53885c0.64383,0.35457 1.15002,0.84211 1.51859,1.4626c0.36857,0.61583 0.55285,1.32264 0.55285,2.12042c0,0.79312 -0.18428,1.49993 -0.55285,2.12042c-0.36857,0.61583 -0.87476,1.10337 -1.51859,1.4626c-0.63916,0.35457 -1.37163,0.53186 -2.1974,0.53186zM156.16977,182.35136c0.35457,0 0.67182,-0.08864 0.95174,-0.26593c0.27992,-0.18195 0.4992,-0.42688 0.65782,-0.7348c0.15862,-0.30792 0.23327,-0.66015 0.22394,-1.05671c0.00933,-0.40123 -0.06532,-0.75813 -0.22394,-1.07071c-0.15862,-0.31258 -0.3779,-0.55751 -0.65782,-0.7348c-0.27992,-0.18195 -0.59717,-0.27293 -0.95174,-0.27293c-0.35924,0 -0.68115,0.09098 -0.96574,0.27293c-0.28459,0.17729 -0.5062,0.42222 -0.66482,0.7348c-0.15862,0.31258 -0.23327,0.66948 -0.22394,1.07071c-0.00933,0.39656 0.06532,0.7488 0.22394,1.05671c0.15862,0.30792 0.38023,0.55285 0.66482,0.7348c0.28459,0.17729 0.6065,0.26593 0.96574,0.26593zM162.1992,184.26184v-8.31374c0,-0.51786 0.11197,-0.9844 0.33591,-1.39962c0.22394,-0.41989 0.53652,-0.75113 0.93775,-0.99373c0.40589,-0.24727 0.8771,-0.3709 1.41362,-0.3709c0.3779,0 0.72547,0.05598 1.04272,0.16795c0.31725,0.1073 0.60184,0.26126 0.85377,0.46187l-0.68581,1.74253c-0.13063,-0.06532 -0.2566,-0.11897 -0.3779,-0.16096c-0.11663,-0.04199 -0.22627,-0.06298 -0.32891,-0.06298c-0.17729,0 -0.32658,0.03033 -0.44788,0.09098c-0.11663,0.06065 -0.20294,0.15396 -0.25893,0.27992c-0.05598,0.1213 -0.08398,0.27293 -0.08398,0.45488v8.1038h-1.18968c-0.27059,0 -0.50853,0 -0.71381,0c-0.20061,0 -0.36623,0 -0.49686,0zM161.05151,178.5304v-1.97346h5.17859v1.97346zM168.06361,184.26184v-8.31374c0,-0.51786 0.11197,-0.9844 0.33591,-1.39962c0.22394,-0.41989 0.53652,-0.75113 0.93775,-0.99373c0.40589,-0.24727 0.8771,-0.3709 1.41362,-0.3709c0.3779,0 0.72547,0.05598 1.04272,0.16795c0.31725,0.1073 0.60184,0.26126 0.85377,0.46187l-0.68581,1.74253c-0.13063,-0.06532 -0.2566,-0.11897 -0.3779,-0.16096c-0.11663,-0.04199 -0.22627,-0.06298 -0.32891,-0.06298c-0.17729,0 -0.32658,0.03033 -0.44788,0.09098c-0.11663,0.06065 -0.20294,0.15396 -0.25893,0.27992c-0.05598,0.1213 -0.08398,0.27293 -0.08398,0.45488v8.1038h-1.18968c-0.27059,0 -0.50853,0 -0.71381,0c-0.20061,0 -0.36623,0 -0.49686,0zM166.91592,178.5304v-1.97346h5.17859v1.97346zM173.57811,184.26184v-7.92885h2.38635v7.92885zM174.76779,174.76542c-0.44788,0 -0.79778,-0.10497 -1.04971,-0.31491c-0.25193,-0.21461 -0.3779,-0.52252 -0.3779,-0.92375c0,-0.35457 0.1283,-0.64616 0.3849,-0.87476c0.2566,-0.23327 0.60417,-0.3499 1.04272,-0.3499c0.44788,0 0.79545,0.1073 1.04272,0.32191c0.25193,0.21461 0.3779,0.51553 0.3779,0.90275c0,0.36857 -0.1283,0.66715 -0.3849,0.89576c-0.25193,0.2286 -0.59717,0.34291 -1.03572,0.34291zM181.67464,184.4088c-0.76513,0 -1.45094,-0.17729 -2.05744,-0.53186c-0.6065,-0.35924 -1.08704,-0.8491 -1.44161,-1.4696c-0.3499,-0.62516 -0.52486,-1.32964 -0.52486,-2.11343c0,-0.78845 0.17495,-1.49293 0.52486,-2.11343c0.35457,-0.62516 0.83511,-1.11503 1.44161,-1.4696c0.6065,-0.35924 1.29231,-0.53885 2.05744,-0.53885c0.70914,0 1.35996,0.12597 1.95247,0.3779c0.5925,0.24727 1.06138,0.59484 1.40662,1.04272l-1.29465,1.54658c-0.13996,-0.15862 -0.30558,-0.30558 -0.49686,-0.44088c-0.18662,-0.13996 -0.39423,-0.2496 -0.62283,-0.32891c-0.2286,-0.08398 -0.46887,-0.12597 -0.7208,-0.12597c-0.3779,0 -0.71147,0.08864 -1.00073,0.26593c-0.28459,0.17262 -0.50853,0.41289 -0.67182,0.7208c-0.15862,0.30792 -0.23794,0.66249 -0.23794,1.06371c0,0.3779 0.08164,0.7208 0.24493,1.02872c0.16795,0.30792 0.39656,0.55285 0.68581,0.7348c0.28926,0.17729 0.61583,0.26593 0.97973,0.26593c0.26126,0 0.50153,-0.03266 0.7208,-0.09797c0.21927,-0.06532 0.41989,-0.16096 0.60184,-0.28692c0.18662,-0.13063 0.35924,-0.29159 0.51786,-0.48287l1.28065,1.56757c-0.33591,0.42922 -0.80478,0.76746 -1.40662,1.01472c-0.60184,0.24727 -1.24799,0.3709 -1.93847,0.3709zM186.47171,184.26184v-7.92885h2.38635v7.92885zM187.66139,174.76542c-0.44788,0 -0.79778,-0.10497 -1.04971,-0.31491c-0.25193,-0.21461 -0.3779,-0.52252 -0.3779,-0.92375c0,-0.35457 0.1283,-0.64616 0.3849,-0.87476c0.2566,-0.23327 0.60417,-0.3499 1.04272,-0.3499c0.44788,0 0.79545,0.1073 1.04272,0.32191c0.25193,0.21461 0.3779,0.51553 0.3779,0.90275c0,0.36857 -0.1283,0.66715 -0.3849,0.89576c-0.25193,0.2286 -0.59717,0.34291 -1.03572,0.34291zM194.02564,184.3948c-0.66715,0 -1.26199,-0.17495 -1.78452,-0.52486c-0.52252,-0.35457 -0.94008,-0.84211 -1.25266,-1.4626c-0.30792,-0.62516 -0.46187,-1.32964 -0.46187,-2.11343c0,-0.80711 0.15396,-1.51859 0.46187,-2.13442c0.31258,-0.6205 0.73713,-1.1057 1.27365,-1.4556c0.53652,-0.35457 1.14769,-0.53186 1.8335,-0.53186c0.3779,0 0.72314,0.05598 1.03572,0.16795c0.31725,0.1073 0.59484,0.25893 0.83277,0.45488c0.23794,0.19128 0.44088,0.41522 0.60883,0.67182c0.17262,0.25193 0.29858,0.52252 0.3779,0.81178l-0.49686,-0.06298v-1.88249h2.37236v7.92885h-2.41434v-1.91048l0.53885,-0.014c-0.07931,0.27992 -0.20994,0.54352 -0.39189,0.79079c-0.17729,0.24727 -0.39656,0.46654 -0.65782,0.65782c-0.2566,0.18662 -0.54585,0.33591 -0.86776,0.44788c-0.31725,0.1073 -0.65316,0.16096 -1.00773,0.16096zM194.67646,182.37935c0.36857,0 0.68581,-0.08398 0.95174,-0.25193c0.27059,-0.16795 0.48054,-0.40822 0.62983,-0.7208c0.14929,-0.31725 0.22394,-0.68815 0.22394,-1.1127c0,-0.42922 -0.07465,-0.80012 -0.22394,-1.1127c-0.14929,-0.31258 -0.35924,-0.55518 -0.62983,-0.7278c-0.26593,-0.17729 -0.58318,-0.26593 -0.95174,-0.26593c-0.35457,0 -0.66482,0.08864 -0.93075,0.26593c-0.26126,0.17262 -0.46654,0.41522 -0.61583,0.7278c-0.14929,0.31258 -0.22394,0.68348 -0.22394,1.1127c0,0.42455 0.07465,0.79545 0.22394,1.1127c0.14929,0.31258 0.35457,0.55285 0.61583,0.7208c0.26593,0.16795 0.57618,0.25193 0.93075,0.25193zM200.95127,184.26184v-11.043h2.38635v11.043zM205.48904,184.26184v-11.043h2.38635v11.043zM210.78263,187.69791l1.80551,-4.25484l0.03499,1.22467l-3.82096,-8.33474h2.70127l1.67255,3.98892c0.08864,0.20061 0.17262,0.41522 0.25193,0.64383c0.07931,0.2286 0.13763,0.44554 0.17495,0.65082l-0.32191,0.19595c0.05598,-0.14929 0.1213,-0.33591 0.19595,-0.55985c0.07465,-0.22394 0.15862,-0.46421 0.25193,-0.7208l1.4626,-4.19886h2.71526l-3.37308,7.92885l-1.37863,3.43607zM223.81319,184.26184v-7.92885h2.27438l0.10497,2.5823l-0.44788,-0.48987c0.11663,-0.42922 0.31258,-0.81178 0.58784,-1.14769c0.27526,-0.34057 0.59484,-0.60883 0.95874,-0.80478c0.36857,-0.20061 0.76279,-0.30092 1.18268,-0.30092c0.17729,0 0.34291,0.01633 0.49686,0.04899c0.15396,0.02799 0.29625,0.06065 0.42688,0.09797l-0.65782,2.64528c-0.1073,-0.06998 -0.25426,-0.12597 -0.44088,-0.16795c-0.18195,-0.04665 -0.37323,-0.06998 -0.57384,-0.06998c-0.21927,0 -0.42455,0.03732 -0.61583,0.11197c-0.18662,0.07465 -0.34524,0.18195 -0.47587,0.32191c-0.12597,0.1353 -0.22627,0.29858 -0.30092,0.48987c-0.07465,0.18662 -0.11197,0.40123 -0.11197,0.64383v3.96792zM234.05546,184.4088c-0.8771,0 -1.63989,-0.17495 -2.28838,-0.52486c-0.64383,-0.35457 -1.14535,-0.83744 -1.50459,-1.44861c-0.35457,-0.61117 -0.53186,-1.31098 -0.53186,-2.09943c0,-0.6065 0.09797,-1.16402 0.29392,-1.67255c0.20061,-0.50853 0.4782,-0.94941 0.83277,-1.32264c0.35924,-0.37323 0.78612,-0.66015 1.28065,-0.86077c0.49453,-0.20528 1.03339,-0.30792 1.61656,-0.30792c0.55985,0 1.07071,0.10031 1.53258,0.30092c0.46187,0.19595 0.86077,0.47354 1.19667,0.83277c0.34057,0.35924 0.5995,0.78379 0.77679,1.27365c0.18195,0.4852 0.26359,1.01706 0.24493,1.59557l-0.014,0.63683h-6.31928l-0.34291,-1.34363h4.71672l-0.25193,0.28692v-0.30092c-0.01866,-0.24727 -0.09564,-0.46654 -0.23094,-0.65782c-0.1353,-0.19595 -0.31258,-0.34757 -0.53186,-0.45488c-0.21927,-0.11197 -0.46654,-0.16795 -0.7418,-0.16795c-0.38723,0 -0.71847,0.07698 -0.99373,0.23094c-0.27526,0.15396 -0.48287,0.3779 -0.62283,0.67182c-0.13996,0.29392 -0.20994,0.65316 -0.20994,1.07771c0,0.43855 0.09098,0.82111 0.27293,1.14769c0.18662,0.32191 0.45721,0.57384 0.81178,0.75579c0.35457,0.17729 0.77446,0.26593 1.25966,0.26593c0.34057,0 0.64149,-0.04899 0.90275,-0.14696c0.26593,-0.10264 0.55285,-0.27293 0.86077,-0.51086l1.1197,1.58157c-0.30792,0.27059 -0.63683,0.48987 -0.98673,0.65782c-0.34524,0.16795 -0.69981,0.29392 -1.06371,0.3779c-0.3639,0.08398 -0.72547,0.12597 -1.08471,0.12597zM242.50171,184.4088c-0.76513,0 -1.45094,-0.17729 -2.05744,-0.53186c-0.6065,-0.35924 -1.08704,-0.8491 -1.44161,-1.4696c-0.3499,-0.62516 -0.52486,-1.32964 -0.52486,-2.11343c0,-0.78845 0.17495,-1.49293 0.52486,-2.11343c0.35457,-0.62516 0.83511,-1.11503 1.44161,-1.4696c0.6065,-0.35924 1.29231,-0.53885 2.05744,-0.53885c0.70914,0 1.35996,0.12597 1.95247,0.3779c0.5925,0.24727 1.06138,0.59484 1.40662,1.04272l-1.29465,1.54658c-0.13996,-0.15862 -0.30558,-0.30558 -0.49686,-0.44088c-0.18662,-0.13996 -0.39423,-0.2496 -0.62283,-0.32891c-0.2286,-0.08398 -0.46887,-0.12597 -0.7208,-0.12597c-0.3779,0 -0.71147,0.08864 -1.00073,0.26593c-0.28459,0.17262 -0.50853,0.41289 -0.67182,0.7208c-0.15862,0.30792 -0.23794,0.66249 -0.23794,1.06371c0,0.3779 0.08164,0.7208 0.24493,1.02872c0.16795,0.30792 0.39656,0.55285 0.68581,0.7348c0.28926,0.17729 0.61583,0.26593 0.97973,0.26593c0.26126,0 0.50153,-0.03266 0.7208,-0.09797c0.21927,-0.06532 0.41989,-0.16096 0.60184,-0.28692c0.18662,-0.13063 0.35924,-0.29159 0.51786,-0.48287l1.28065,1.56757c-0.33591,0.42922 -0.80478,0.76746 -1.40662,1.01472c-0.60184,0.24727 -1.24799,0.3709 -1.93847,0.3709zM250.89581,184.4088c-0.82578,0 -1.56058,-0.17729 -2.2044,-0.53186c-0.64383,-0.35924 -1.15235,-0.84677 -1.52559,-1.4626c-0.36857,-0.6205 -0.55285,-1.32731 -0.55285,-2.12042c0,-0.79778 0.18428,-1.50459 0.55285,-2.12042c0.37323,-0.6205 0.88176,-1.10803 1.52559,-1.4626c0.64383,-0.35924 1.37863,-0.53885 2.2044,-0.53885c0.82578,0 1.55824,0.17962 2.1974,0.53885c0.64383,0.35457 1.15002,0.84211 1.51859,1.4626c0.36857,0.61583 0.55285,1.32264 0.55285,2.12042c0,0.79312 -0.18428,1.49993 -0.55285,2.12042c-0.36857,0.61583 -0.87476,1.10337 -1.51859,1.4626c-0.63916,0.35457 -1.37163,0.53186 -2.1974,0.53186zM250.89581,182.35136c0.35457,0 0.67182,-0.08864 0.95174,-0.26593c0.27992,-0.18195 0.4992,-0.42688 0.65782,-0.7348c0.15862,-0.30792 0.23327,-0.66015 0.22394,-1.05671c0.00933,-0.40123 -0.06532,-0.75813 -0.22394,-1.07071c-0.15862,-0.31258 -0.3779,-0.55751 -0.65782,-0.7348c-0.27992,-0.18195 -0.59717,-0.27293 -0.95174,-0.27293c-0.35924,0 -0.68115,0.09098 -0.96574,0.27293c-0.28459,0.17729 -0.5062,0.42222 -0.66482,0.7348c-0.15862,0.31258 -0.23327,0.66948 -0.22394,1.07071c-0.00933,0.39656 0.06532,0.7488 0.22394,1.05671c0.15862,0.30792 0.38023,0.55285 0.66482,0.7348c0.28459,0.17729 0.6065,0.26593 0.96574,0.26593zM260.35899,187.69791c-0.64849,0 -1.29465,-0.09564 -1.93847,-0.28692c-0.63916,-0.18662 -1.15702,-0.42922 -1.55358,-0.7278l0.83277,-1.67255c0.20994,0.13996 0.44088,0.26126 0.69281,0.3639c0.2566,0.10264 0.52252,0.18428 0.79778,0.24493c0.27992,0.06065 0.56451,0.09098 0.85377,0.09098c0.50853,0 0.92142,-0.07465 1.23866,-0.22394c0.31725,-0.14929 0.55518,-0.37556 0.71381,-0.67882c0.16329,-0.30325 0.24493,-0.68348 0.24493,-1.14069v-1.32964l0.46187,0.07698c-0.06998,0.32658 -0.2426,0.62516 -0.51786,0.89576c-0.27526,0.26593 -0.61117,0.48054 -1.00773,0.64383c-0.39656,0.16329 -0.81878,0.24493 -1.26666,0.24493c-0.71847,0 -1.35996,-0.16562 -1.92448,-0.49686c-0.55985,-0.33124 -1.00073,-0.79312 -1.32264,-1.38562c-0.32191,-0.5925 -0.48287,-1.27832 -0.48287,-2.05744c0,-0.79312 0.15862,-1.49526 0.47587,-2.10643c0.31725,-0.61583 0.75346,-1.0987 1.30864,-1.44861c0.55985,-0.35457 1.18734,-0.53186 1.88249,-0.53186c0.29858,0 0.58551,0.03499 0.86077,0.10497c0.27526,0.06998 0.52952,0.16329 0.76279,0.27992c0.23327,0.11197 0.44088,0.24493 0.62283,0.39889c0.18662,0.15396 0.33591,0.32191 0.44788,0.50386c0.11663,0.17729 0.19361,0.35924 0.23094,0.54585l-0.48987,0.11897l0.09098,-1.79151h2.26738v7.28502c0,0.64849 -0.09797,1.22233 -0.29392,1.72153c-0.19128,0.50386 -0.47354,0.93308 -0.84677,1.28765c-0.37323,0.35457 -0.82344,0.6205 -1.35063,0.79778c-0.52719,0.18195 -1.12436,0.27293 -1.79151,0.27293zM260.41497,182.35136c0.38723,0 0.72314,-0.08631 1.00773,-0.25893c0.28459,-0.17729 0.50386,-0.41989 0.65782,-0.7278c0.15396,-0.30792 0.23094,-0.67182 0.23094,-1.0917c0,-0.41522 -0.07698,-0.77912 -0.23094,-1.0917c-0.15396,-0.31258 -0.37323,-0.55518 -0.65782,-0.7278c-0.28459,-0.17729 -0.6205,-0.26593 -1.00773,-0.26593c-0.3779,0 -0.70681,0.08864 -0.98673,0.26593c-0.27526,0.17262 -0.48987,0.41522 -0.64383,0.7278c-0.15396,0.31258 -0.23094,0.67648 -0.23094,1.0917c0,0.41989 0.07698,0.78379 0.23094,1.0917c0.15396,0.30792 0.36857,0.55052 0.64383,0.7278c0.27992,0.17262 0.60883,0.25893 0.98673,0.25893zM266.71309,184.26184v-7.92885h2.27438l0.06998,1.61656l-0.47587,0.17495c0.11197,-0.35457 0.30792,-0.67882 0.58784,-0.97274c0.28459,-0.29392 0.62516,-0.52952 1.02172,-0.70681c0.40123,-0.18195 0.82111,-0.27293 1.25966,-0.27293c0.59717,0 1.0987,0.1213 1.50459,0.3639c0.40589,0.2426 0.71381,0.6065 0.92375,1.0917c0.20994,0.48054 0.31491,1.07071 0.31491,1.77052v4.86368h-2.40035v-4.67473c0,-0.31725 -0.04665,-0.57851 -0.13996,-0.78379c-0.08864,-0.20994 -0.22627,-0.36623 -0.41289,-0.46887c-0.18195,-0.1073 -0.40589,-0.15629 -0.67182,-0.14696c-0.20994,0 -0.40589,0.03266 -0.58784,0.09797c-0.17729,0.06532 -0.33124,0.16096 -0.46187,0.28692c-0.12597,0.1213 -0.22627,0.26126 -0.30092,0.41989c-0.07465,0.15862 -0.11197,0.33358 -0.11197,0.52486v4.74471h-1.18268c-0.27992,0 -0.52019,0 -0.7208,0c-0.19595,0 -0.35924,0 -0.48987,0zM276.33163,184.26184v-7.92885h2.38635v7.92885zM277.5213,174.76542c-0.44788,0 -0.79778,-0.10497 -1.04971,-0.31491c-0.25193,-0.21461 -0.3779,-0.52252 -0.3779,-0.92375c0,-0.35457 0.1283,-0.64616 0.3849,-0.87476c0.2566,-0.23327 0.60417,-0.3499 1.04272,-0.3499c0.44788,0 0.79545,0.1073 1.04272,0.32191c0.25193,0.21461 0.3779,0.51553 0.3779,0.90275c0,0.36857 -0.1283,0.66715 -0.3849,0.89576c-0.25193,0.2286 -0.59717,0.34291 -1.03572,0.34291zM280.64543,184.26184v-1.37163l4.20586,-5.40253v0.79079h-4.20586v-1.94547h6.56422v1.43461l-3.98192,5.24158l-0.06298,-0.68581h4.17786v1.93847zM292.79285,184.4088c-0.8771,0 -1.63989,-0.17495 -2.28838,-0.52486c-0.64383,-0.35457 -1.14535,-0.83744 -1.50459,-1.44861c-0.35457,-0.61117 -0.53186,-1.31098 -0.53186,-2.09943c0,-0.6065 0.09797,-1.16402 0.29392,-1.67255c0.20061,-0.50853 0.4782,-0.94941 0.83277,-1.32264c0.35924,-0.37323 0.78612,-0.66015 1.28065,-0.86077c0.49453,-0.20528 1.03339,-0.30792 1.61656,-0.30792c0.55985,0 1.07071,0.10031 1.53258,0.30092c0.46187,0.19595 0.86077,0.47354 1.19667,0.83277c0.34057,0.35924 0.5995,0.78379 0.77679,1.27365c0.18195,0.4852 0.26359,1.01706 0.24493,1.59557l-0.014,0.63683h-6.31928l-0.34291,-1.34363h4.71672l-0.25193,0.28692v-0.30092c-0.01866,-0.24727 -0.09564,-0.46654 -0.23094,-0.65782c-0.1353,-0.19595 -0.31258,-0.34757 -0.53186,-0.45488c-0.21927,-0.11197 -0.46654,-0.16795 -0.7418,-0.16795c-0.38723,0 -0.71847,0.07698 -0.99373,0.23094c-0.27526,0.15396 -0.48287,0.3779 -0.62283,0.67182c-0.13996,0.29392 -0.20994,0.65316 -0.20994,1.07771c0,0.43855 0.09098,0.82111 0.27293,1.14769c0.18662,0.32191 0.45721,0.57384 0.81178,0.75579c0.35457,0.17729 0.77446,0.26593 1.25966,0.26593c0.34057,0 0.64149,-0.04899 0.90275,-0.14696c0.26593,-0.10264 0.55285,-0.27293 0.86077,-0.51086l1.1197,1.58157c-0.30792,0.27059 -0.63683,0.48987 -0.98673,0.65782c-0.34524,0.16795 -0.69981,0.29392 -1.06371,0.3779c-0.3639,0.08398 -0.72547,0.12597 -1.08471,0.12597zM300.76322,184.4228c-0.68581,0 -1.29465,-0.17495 -1.8265,-0.52486c-0.53186,-0.35457 -0.95174,-0.84211 -1.25966,-1.4626c-0.30792,-0.62516 -0.46187,-1.3343 -0.46187,-2.12742c0,-0.79778 0.15396,-1.50692 0.46187,-2.12742c0.30792,-0.62516 0.73014,-1.11503 1.26666,-1.4696c0.53652,-0.35924 1.15235,-0.53885 1.8475,-0.53885c0.35924,0 0.70214,0.05598 1.02872,0.16795c0.33124,0.1073 0.62983,0.2566 0.89576,0.44788c0.27059,0.18662 0.48987,0.40123 0.65782,0.64383c0.17262,0.2426 0.27293,0.49453 0.30092,0.75579l-0.56685,0.13296v-5.10161h2.40035v11.043h-2.2184l-0.13996,-1.80551l0.48287,0.07698c-0.03266,0.24727 -0.13063,0.4852 -0.29392,0.71381c-0.16329,0.2286 -0.37556,0.43155 -0.63683,0.60883c-0.2566,0.17262 -0.55285,0.31025 -0.88876,0.41289c-0.33124,0.10264 -0.68115,0.15396 -1.04971,0.15396zM301.37905,182.44233c0.36857,0 0.68581,-0.08864 0.95174,-0.26593c0.27059,-0.18195 0.4782,-0.43155 0.62283,-0.7488c0.14463,-0.32191 0.21694,-0.69515 0.21694,-1.1197c0,-0.43855 -0.07231,-0.81644 -0.21694,-1.13369c-0.14463,-0.32191 -0.35224,-0.57151 -0.62283,-0.7488c-0.26593,-0.17729 -0.58318,-0.26593 -0.95174,-0.26593c-0.36857,0 -0.68581,0.08864 -0.95174,0.26593c-0.26126,0.17729 -0.46654,0.42688 -0.61583,0.7488c-0.14929,0.31725 -0.22394,0.69515 -0.22394,1.13369c0,0.42455 0.07465,0.79778 0.22394,1.1197c0.14929,0.31725 0.35457,0.56685 0.61583,0.7488c0.26593,0.17729 0.58318,0.26593 0.95174,0.26593zM315.23206,184.3948c-0.66715,0 -1.26199,-0.17495 -1.78452,-0.52486c-0.52252,-0.35457 -0.94008,-0.84211 -1.25266,-1.4626c-0.30792,-0.62516 -0.46187,-1.32964 -0.46187,-2.11343c0,-0.80711 0.15396,-1.51859 0.46187,-2.13442c0.31258,-0.6205 0.73713,-1.1057 1.27365,-1.4556c0.53652,-0.35457 1.14769,-0.53186 1.8335,-0.53186c0.3779,0 0.72314,0.05598 1.03572,0.16795c0.31725,0.1073 0.59484,0.25893 0.83277,0.45488c0.23794,0.19128 0.44088,0.41522 0.60883,0.67182c0.17262,0.25193 0.29858,0.52252 0.3779,0.81178l-0.49686,-0.06298v-1.88249h2.37236v7.92885h-2.41434v-1.91048l0.53885,-0.014c-0.07931,0.27992 -0.20994,0.54352 -0.39189,0.79079c-0.17729,0.24727 -0.39656,0.46654 -0.65782,0.65782c-0.2566,0.18662 -0.54585,0.33591 -0.86776,0.44788c-0.31725,0.1073 -0.65316,0.16096 -1.00773,0.16096zM315.88288,182.37935c0.36857,0 0.68581,-0.08398 0.95174,-0.25193c0.27059,-0.16795 0.48054,-0.40822 0.62983,-0.7208c0.14929,-0.31725 0.22394,-0.68815 0.22394,-1.1127c0,-0.42922 -0.07465,-0.80012 -0.22394,-1.1127c-0.14929,-0.31258 -0.35924,-0.55518 -0.62983,-0.7278c-0.26593,-0.17729 -0.58318,-0.26593 -0.95174,-0.26593c-0.35457,0 -0.66482,0.08864 -0.93075,0.26593c-0.26126,0.17262 -0.46654,0.41522 -0.61583,0.7278c-0.14929,0.31258 -0.22394,0.68348 -0.22394,1.1127c0,0.42455 0.07465,0.79545 0.22394,1.1127c0.14929,0.31258 0.35457,0.55285 0.61583,0.7208c0.26593,0.16795 0.57618,0.25193 0.93075,0.25193zM324.80997,184.4088c-0.77446,0 -1.45794,-0.12363 -2.05044,-0.3709c-0.5925,-0.24727 -1.06371,-0.58084 -1.41362,-1.00073l1.44861,-1.25266c0.30792,0.30792 0.65549,0.53419 1.04272,0.67882c0.39189,0.14463 0.76046,0.21694 1.1057,0.21694c0.13996,0 0.26359,-0.014 0.3709,-0.04199c0.11197,-0.03266 0.20528,-0.07465 0.27992,-0.12597c0.07465,-0.05598 0.13063,-0.1213 0.16795,-0.19595c0.04199,-0.07465 0.06298,-0.16329 0.06298,-0.26593c0,-0.19595 -0.08864,-0.3499 -0.26593,-0.46187c-0.08864,-0.04665 -0.23794,-0.10497 -0.44788,-0.17495c-0.20994,-0.06998 -0.4782,-0.15162 -0.80478,-0.24493c-0.47121,-0.11663 -0.87943,-0.2566 -1.22467,-0.41989c-0.34057,-0.16795 -0.6205,-0.35924 -0.83977,-0.57384c-0.19595,-0.20994 -0.3499,-0.44088 -0.46187,-0.69281c-0.1073,-0.2566 -0.16096,-0.54352 -0.16096,-0.86077c0,-0.36857 0.08631,-0.70214 0.25893,-1.00073c0.17262,-0.29858 0.40589,-0.55751 0.69981,-0.77679c0.29392,-0.21927 0.63216,-0.3849 1.01472,-0.49686c0.38723,-0.11663 0.78379,-0.17495 1.18968,-0.17495c0.43855,0 0.8561,0.05132 1.25266,0.15396c0.39656,0.09797 0.76746,0.2356 1.1127,0.41289c0.34524,0.17729 0.65082,0.39189 0.91675,0.64383l-1.25266,1.39962c-0.17729,-0.16795 -0.3779,-0.31958 -0.60184,-0.45488c-0.22394,-0.1353 -0.45721,-0.2426 -0.69981,-0.32191c-0.23794,-0.07931 -0.45488,-0.11897 -0.65082,-0.11897c-0.14929,0 -0.28226,0.014 -0.39889,0.04199c-0.11197,0.02333 -0.20994,0.06298 -0.29392,0.11897c-0.07931,0.05132 -0.13996,0.1143 -0.18195,0.18895c-0.03732,0.07465 -0.05598,0.16329 -0.05598,0.26593c0,0.09797 0.02799,0.19128 0.08398,0.27992c0.05598,0.08864 0.13296,0.16329 0.23094,0.22394c0.10264,0.06065 0.26126,0.1283 0.47587,0.20294c0.21927,0.07465 0.51786,0.16562 0.89576,0.27293c0.47121,0.13063 0.87476,0.27526 1.21067,0.43388c0.34057,0.15862 0.60883,0.34757 0.80478,0.56685c0.16329,0.17262 0.28459,0.3709 0.3639,0.59484c0.07931,0.22394 0.11897,0.46421 0.11897,0.7208c0,0.50853 -0.1423,0.95874 -0.42688,1.35063c-0.28459,0.39189 -0.67648,0.69981 -1.17568,0.92375c-0.49453,0.22394 -1.06138,0.33591 -1.70054,0.33591z" fill="#000000" stroke="none" stroke-width="1" stroke-linecap="square"/><path d="M213.19042,202.17697v-10.44816h4.50678c0.65782,0 1.241,0.14929 1.74952,0.44788c0.51319,0.29858 0.92142,0.70681 1.22467,1.22467c0.30325,0.51786 0.45488,1.0987 0.45488,1.74253c0,0.67648 -0.15162,1.28299 -0.45488,1.81951c-0.30325,0.53186 -0.71147,0.95174 -1.22467,1.25966c-0.50853,0.30792 -1.0917,0.46187 -1.74952,0.46187h-1.97346v3.49205zM215.68174,196.45953h1.65855c0.21927,0 0.41755,-0.05365 0.59484,-0.16096c0.17729,-0.11197 0.31958,-0.26126 0.42688,-0.44788c0.11197,-0.19128 0.16795,-0.41055 0.16795,-0.65782c0,-0.26126 -0.05598,-0.48054 -0.16795,-0.65782c-0.1073,-0.17729 -0.2496,-0.31491 -0.42688,-0.41289c-0.17729,-0.10264 -0.37556,-0.15396 -0.59484,-0.15396h-1.65855zM222.95306,202.17697v-7.92885h2.38635v7.92885zM224.14274,192.68055c-0.44788,0 -0.79778,-0.10497 -1.04971,-0.31491c-0.25193,-0.21461 -0.3779,-0.52252 -0.3779,-0.92375c0,-0.35457 0.1283,-0.64616 0.3849,-0.87476c0.2566,-0.23327 0.60417,-0.3499 1.04272,-0.3499c0.44788,0 0.79545,0.1073 1.04272,0.32191c0.25193,0.21461 0.3779,0.51553 0.3779,0.90275c0,0.36857 -0.1283,0.66715 -0.3849,0.89576c-0.25193,0.2286 -0.59717,0.34291 -1.03572,0.34291zM235.35358,202.33793c-0.68581,0 -1.29465,-0.17495 -1.8265,-0.52486c-0.53186,-0.35457 -0.95174,-0.84211 -1.25966,-1.4626c-0.30792,-0.62516 -0.46187,-1.3343 -0.46187,-2.12742c0,-0.79778 0.15396,-1.50692 0.46187,-2.12742c0.30792,-0.62516 0.73014,-1.11503 1.26666,-1.4696c0.53652,-0.35924 1.15235,-0.53885 1.8475,-0.53885c0.35924,0 0.70214,0.05598 1.02872,0.16795c0.33124,0.1073 0.62983,0.2566 0.89576,0.44788c0.27059,0.18662 0.48987,0.40123 0.65782,0.64383c0.17262,0.2426 0.27293,0.49453 0.30092,0.75579l-0.56685,0.13296v-5.10161h2.40035v11.043h-2.2184l-0.13996,-1.80551l0.48287,0.07698c-0.03266,0.24727 -0.13063,0.4852 -0.29392,0.71381c-0.16329,0.2286 -0.37556,0.43155 -0.63683,0.60883c-0.2566,0.17262 -0.55285,0.31025 -0.88876,0.41289c-0.33124,0.10264 -0.68115,0.15396 -1.04971,0.15396zM235.96942,200.35747c0.36857,0 0.68581,-0.08864 0.95174,-0.26593c0.27059,-0.18195 0.4782,-0.43155 0.62283,-0.7488c0.14463,-0.32191 0.21694,-0.69515 0.21694,-1.1197c0,-0.43855 -0.07231,-0.81644 -0.21694,-1.13369c-0.14463,-0.32191 -0.35224,-0.57151 -0.62283,-0.7488c-0.26593,-0.17729 -0.58318,-0.26593 -0.95174,-0.26593c-0.36857,0 -0.68581,0.08864 -0.95174,0.26593c-0.26126,0.17729 -0.46654,0.42688 -0.61583,0.7488c-0.14929,0.31725 -0.22394,0.69515 -0.22394,1.13369c0,0.42455 0.07465,0.79778 0.22394,1.1197c0.14929,0.31725 0.35457,0.56685 0.61583,0.7488c0.26593,0.17729 0.58318,0.26593 0.95174,0.26593zM245.04581,202.30994c-0.66715,0 -1.26199,-0.17495 -1.78452,-0.52486c-0.52252,-0.35457 -0.94008,-0.84211 -1.25266,-1.4626c-0.30792,-0.62516 -0.46187,-1.32964 -0.46187,-2.11343c0,-0.80711 0.15396,-1.51859 0.46187,-2.13442c0.31258,-0.6205 0.73713,-1.1057 1.27365,-1.4556c0.53652,-0.35457 1.14769,-0.53186 1.8335,-0.53186c0.3779,0 0.72314,0.05598 1.03572,0.16795c0.31725,0.1073 0.59484,0.25893 0.83277,0.45488c0.23794,0.19128 0.44088,0.41522 0.60883,0.67182c0.17262,0.25193 0.29858,0.52252 0.3779,0.81178l-0.49686,-0.06298v-1.88249h2.37236v7.92885h-2.41434v-1.91048l0.53885,-0.014c-0.07931,0.27992 -0.20994,0.54352 -0.39189,0.79079c-0.17729,0.24727 -0.39656,0.46654 -0.65782,0.65782c-0.2566,0.18662 -0.54585,0.33591 -0.86776,0.44788c-0.31725,0.1073 -0.65316,0.16096 -1.00773,0.16096zM245.69664,200.29449c0.36857,0 0.68581,-0.08398 0.95174,-0.25193c0.27059,-0.16795 0.48054,-0.40822 0.62983,-0.7208c0.14929,-0.31725 0.22394,-0.68815 0.22394,-1.1127c0,-0.42922 -0.07465,-0.80012 -0.22394,-1.1127c-0.14929,-0.31258 -0.35924,-0.55518 -0.62983,-0.7278c-0.26593,-0.17729 -0.58318,-0.26593 -0.95174,-0.26593c-0.35457,0 -0.66482,0.08864 -0.93075,0.26593c-0.26126,0.17262 -0.46654,0.41522 -0.61583,0.7278c-0.14929,0.31258 -0.22394,0.68348 -0.22394,1.1127c0,0.42455 0.07465,0.79545 0.22394,1.1127c0.14929,0.31258 0.35457,0.55285 0.61583,0.7208c0.26593,0.16795 0.57618,0.25193 0.93075,0.25193zM252.77203,205.61304l1.80552,-4.25484l0.03499,1.22467l-3.82098,-8.33474h2.70127l1.67256,3.98892c0.08864,0.20061 0.17262,0.41522 0.25193,0.64383c0.07931,0.2286 0.13763,0.44554 0.17495,0.65082l-0.32191,0.19595c0.05598,-0.14929 0.1213,-0.33591 0.19595,-0.55985c0.07465,-0.22394 0.15862,-0.46421 0.25193,-0.7208l1.4626,-4.19886h2.71526l-3.37308,7.92885l-1.37863,3.43607zM262.88049,198.59395l-0.47587,-1.95247c0.28926,-0.06998 0.56218,-0.15162 0.81878,-0.24493c0.2566,-0.09797 0.49453,-0.20061 0.71381,-0.30792c0.21927,-0.11197 0.40589,-0.24027 0.55985,-0.3849c0.15396,-0.14463 0.27526,-0.30325 0.3639,-0.47587c0.09331,-0.17262 0.13996,-0.35924 0.13996,-0.55985c0,-0.20061 -0.05132,-0.3709 -0.15396,-0.51086c-0.09797,-0.14463 -0.23094,-0.2566 -0.39889,-0.33591c-0.16795,-0.08398 -0.36623,-0.12597 -0.59484,-0.12597c-0.33124,0 -0.66249,0.11897 -0.99373,0.3569c-0.32658,0.23327 -0.6275,0.60883 -0.90275,1.12669l-1.63056,-1.51159c0.44788,-0.68581 0.98207,-1.21767 1.60256,-1.59557c0.62516,-0.3779 1.27599,-0.56685 1.95247,-0.56685c0.65782,0 1.25033,0.13296 1.77752,0.39889c0.52719,0.26126 0.94474,0.62283 1.25266,1.08471c0.30792,0.46187 0.46187,0.98207 0.46187,1.56058c0,0.36857 -0.07698,0.73247 -0.23094,1.0917c-0.15396,0.35924 -0.36857,0.69515 -0.64383,1.00773c-0.27059,0.31258 -0.59017,0.58784 -0.95874,0.82578c-0.36857,0.23794 -0.77679,0.42222 -1.22467,0.55285l-0.15396,0.56685zM262.34164,201.01529c0,-0.40123 0.11897,-0.72547 0.3569,-0.97274c0.2426,-0.24727 0.55285,-0.3709 0.93075,-0.3709c0.40589,0 0.72314,0.11663 0.95174,0.3499c0.2286,0.23327 0.34291,0.56451 0.34291,0.99373c0,0.38723 -0.11897,0.70447 -0.3569,0.95174c-0.23794,0.24727 -0.55052,0.3709 -0.93775,0.3709c-0.41055,0 -0.7278,-0.1143 -0.95174,-0.34291c-0.22394,-0.2286 -0.33591,-0.55518 -0.33591,-0.97973z" fill="#000000" stroke="none" stroke-width="1" stroke-linecap="square"/></g></g></svg>