<svg version="1.1" xmlns="http://www.w3.org/2000/svg" xmlns:xlink="http://www.w3.org/1999/xlink" width="492.49249" height="385.88589" viewBox="0,0,492.49249,385.88589"><g transform="translate(6.997,12.94295)"><g data-paper-data="{&quot;isPaintingLayer&quot;:true}" fill-rule="nonzero" stroke-linejoin="miter" stroke-miterlimit="10" stroke-dasharray="" stroke-dashoffset="0" style="mix-blend-mode: normal"><path d="M-6.997,372.94294v-385.88589h492.49249v385.88589z" fill="#f1f1f1" stroke="none" stroke-width="0" stroke-linecap="butt"/><path d="M104.36386,234.5c0,-33.56836 0,-95.38382 0,-112.75c0,-8.92662 2.42353,-18.32658 16.88614,-18.32658c27.75261,0 173.46271,0 231.5,0c22.36301,0 23.88614,5.4192 23.88614,23.57658c0,32.20457 0,88.00688 0,106c0,11.01794 -1.27937,23.57658 -19.88614,23.57658c-54.6071,0 -204.75609,0 -234,0c-17.92,0 -18.38614,-8.8434 -18.38614,-22.07658z" fill="#ffffff" stroke="#000000" stroke-width="4" stroke-linecap="butt"/><path d="M133.89822,133.88333l-2.80548,-9.36279h2.3127l1.40554,4.92218c0.05973,0.22399 0.11386,0.44985 0.16239,0.67757c0.05226,0.22399 0.09333,0.43865 0.12319,0.64397c0.02986,0.20532 0.05413,0.39571 0.0728,0.57117c0.01866,0.17173 0.03733,0.31732 0.056,0.43678h-0.29679c0.056,-0.33225 0.10266,-0.62717 0.14,-0.88476c0.04106,-0.25759 0.08773,-0.50025 0.13999,-0.72797c0.056,-0.22772 0.12319,-0.46665 0.20159,-0.71677l1.39434,-3.70704h1.81992l1.36074,3.70704c0.10826,0.29492 0.19786,0.57117 0.26879,0.82876c0.07093,0.25759 0.12693,0.50584 0.16799,0.74477c0.04106,0.23519 0.07466,0.46851 0.1008,0.69997l-0.26879,0.0392c0.01866,-0.16053 0.03173,-0.30985 0.0392,-0.44798c0.0112,-0.13813 0.0224,-0.27065 0.0336,-0.39758c0.01493,-0.13066 0.02986,-0.26692 0.0448,-0.40878c0.01866,-0.14559 0.0448,-0.30425 0.0784,-0.47598c0.03733,-0.17546 0.08773,-0.37518 0.1512,-0.59917l1.39434,-4.90539h2.2567l-2.80548,9.36279h-1.74152l-2.2175,-5.39256l0.25199,0.028l-2.04951,5.36456zM148.28148,134.01773c-0.73917,0 -1.39807,-0.16053 -1.97672,-0.48158c-0.57491,-0.32105 -1.03035,-0.75783 -1.36634,-1.31034c-0.33225,-0.55251 -0.49838,-1.18528 -0.49838,-1.89832c0,-0.71677 0.16613,-1.35141 0.49838,-1.90392c0.33599,-0.55251 0.79143,-0.98929 1.36634,-1.31034c0.57864,-0.32105 1.23755,-0.48158 1.97672,-0.48158c0.73917,0 1.3962,0.16053 1.97111,0.48158c0.57491,0.32105 1.02662,0.75783 1.35514,1.31034c0.33225,0.55251 0.49838,1.18715 0.49838,1.90392c0,0.71304 -0.16613,1.34581 -0.49838,1.89832c-0.32852,0.55251 -0.78023,0.98929 -1.35514,1.31034c-0.57491,0.32105 -1.23194,0.48158 -1.97111,0.48158zM148.28148,132.16981c0.32105,0 0.60664,-0.08026 0.85676,-0.24079c0.25012,-0.16053 0.44611,-0.37892 0.58798,-0.65517c0.14186,-0.27625 0.20906,-0.59171 0.20159,-0.94636c0.00747,-0.35838 -0.05973,-0.67757 -0.20159,-0.95756c-0.14186,-0.28372 -0.33785,-0.50585 -0.58798,-0.66637c-0.25012,-0.16053 -0.53571,-0.24079 -0.85676,-0.24079c-0.32105,0 -0.60851,0.08026 -0.86236,0.24079c-0.25386,0.16053 -0.45358,0.38265 -0.59918,0.66637c-0.14186,0.27999 -0.20719,0.59917 -0.19599,0.95756c-0.0112,0.35465 0.05413,0.6701 0.19599,0.94636c0.14559,0.27625 0.34532,0.49464 0.59918,0.65517c0.25386,0.16053 0.54131,0.24079 0.86236,0.24079zM155.93272,134.02893c-0.52638,0 -0.97436,-0.11386 -1.34394,-0.34159c-0.36958,-0.22772 -0.65517,-0.55438 -0.85676,-0.97996c-0.20159,-0.42932 -0.30239,-0.94262 -0.30239,-1.53993v-4.39021h2.15591v4.09342c0,0.28745 0.0448,0.53384 0.13439,0.73917c0.0896,0.20532 0.22212,0.36398 0.39758,0.47598c0.17919,0.11199 0.39385,0.16799 0.64397,0.16799c0.18666,0 0.35839,-0.03173 0.51518,-0.0952c0.15679,-0.06346 0.29119,-0.1512 0.40318,-0.26319c0.11199,-0.11199 0.19786,-0.24079 0.25759,-0.38638c0.06346,-0.14559 0.0952,-0.30799 0.0952,-0.48718v-4.24461h2.15591v7.10609h-2.02151l-0.0952,-1.45594l0.40318,-0.16239c-0.10826,0.33972 -0.28745,0.6421 -0.53758,0.90716c-0.25012,0.26132 -0.54878,0.47038 -0.89596,0.62717c-0.34719,0.15306 -0.71677,0.22959 -1.10875,0.22959zM162.11341,133.88333v-9.90036h2.1391v9.90036zM168.72317,134.02893c-0.61597,0 -1.16288,-0.15679 -1.64073,-0.47038c-0.47784,-0.31732 -0.85489,-0.7541 -1.13115,-1.31034c-0.27625,-0.55997 -0.41438,-1.19648 -0.41438,-1.90952c0,-0.71304 0.13813,-1.34767 0.41438,-1.90392c0.27625,-0.55997 0.65517,-1.00049 1.13675,-1.32154c0.48158,-0.32105 1.03596,-0.48158 1.66313,-0.48158c0.32105,0 0.62717,0.0504 0.91836,0.15119c0.29492,0.09706 0.56184,0.22959 0.80076,0.39758c0.24266,0.16799 0.43865,0.36212 0.58798,0.58237c0.15306,0.22026 0.24452,0.44611 0.27439,0.67757l-0.50958,0.11759v-4.575h2.15591v9.90036h-1.99351l-0.1232,-1.61833l0.42558,0.0672c-0.02613,0.22399 -0.11386,0.43865 -0.26319,0.64397c-0.14559,0.20159 -0.33412,0.38079 -0.56558,0.53758c-0.23146,0.15679 -0.49651,0.28185 -0.79516,0.37518c-0.29865,0.09333 -0.61224,0.14 -0.94076,0.14zM169.27194,132.25381c0.32852,0 0.61224,-0.08026 0.85116,-0.24079c0.24266,-0.16053 0.42745,-0.38265 0.55438,-0.66637c0.13066,-0.28745 0.19599,-0.62344 0.19599,-1.00796c0,-0.39198 -0.06533,-0.72983 -0.19599,-1.01355c-0.12693,-0.28745 -0.31172,-0.51145 -0.55438,-0.67197c-0.23892,-0.16053 -0.52265,-0.24079 -0.85116,-0.24079c-0.33225,0 -0.61597,0.08026 -0.85116,0.24079c-0.23519,0.16053 -0.41998,0.38452 -0.55438,0.67197c-0.13439,0.28372 -0.20159,0.62157 -0.20159,1.01355c0,0.38452 0.0672,0.7205 0.20159,1.00796c0.13439,0.28372 0.31918,0.50584 0.55438,0.66637c0.23519,0.16053 0.51891,0.24079 0.85116,0.24079zM179.96127,136.9576l1.61833,-3.80783l0.028,1.09755l-3.42705,-7.47007h2.41909l1.50073,3.57264c0.0784,0.17919 0.15306,0.37145 0.22399,0.57677c0.07466,0.20532 0.12879,0.40131 0.16239,0.58797l-0.29119,0.17359c0.05226,-0.13439 0.11199,-0.30052 0.17919,-0.49838c0.0672,-0.20159 0.13999,-0.41812 0.21839,-0.64957l1.31034,-3.76303h2.43589l-3.02387,7.10609l-1.22635,3.07427zM190.56884,134.01773c-0.73917,0 -1.39807,-0.16053 -1.97671,-0.48158c-0.57491,-0.32105 -1.03035,-0.75783 -1.36634,-1.31034c-0.33225,-0.55251 -0.49838,-1.18528 -0.49838,-1.89832c0,-0.71677 0.16613,-1.35141 0.49838,-1.90392c0.33599,-0.55251 0.79143,-0.98929 1.36634,-1.31034c0.57864,-0.32105 1.23754,-0.48158 1.97671,-0.48158c0.73917,0 1.39621,0.16053 1.97112,0.48158c0.57491,0.32105 1.02662,0.75783 1.35514,1.31034c0.33225,0.55251 0.49838,1.18715 0.49838,1.90392c0,0.71304 -0.16613,1.34581 -0.49838,1.89832c-0.32852,0.55251 -0.78023,0.98929 -1.35514,1.31034c-0.57491,0.32105 -1.23195,0.48158 -1.97112,0.48158zM190.56884,132.16981c0.32105,0 0.60664,-0.08026 0.85676,-0.24079c0.25012,-0.16053 0.44611,-0.37892 0.58797,-0.65517c0.14186,-0.27625 0.20906,-0.59171 0.20159,-0.94636c0.00747,-0.35838 -0.05973,-0.67757 -0.20159,-0.95756c-0.14186,-0.28372 -0.33785,-0.50585 -0.58797,-0.66637c-0.25012,-0.16053 -0.53571,-0.24079 -0.85676,-0.24079c-0.32105,0 -0.60851,0.08026 -0.86236,0.24079c-0.25386,0.16053 -0.45358,0.38265 -0.59917,0.66637c-0.14186,0.27999 -0.20719,0.59917 -0.19599,0.95756c-0.0112,0.35465 0.05413,0.6701 0.19599,0.94636c0.14559,0.27625 0.34532,0.49464 0.59917,0.65517c0.25386,0.16053 0.54131,0.24079 0.86236,0.24079zM198.22008,134.02893c-0.52638,0 -0.97435,-0.11386 -1.34394,-0.34159c-0.36958,-0.22772 -0.65517,-0.55438 -0.85676,-0.97996c-0.20159,-0.42932 -0.30239,-0.94262 -0.30239,-1.53993v-4.39021h2.15591v4.09342c0,0.28745 0.0448,0.53384 0.13439,0.73917c0.0896,0.20532 0.22212,0.36398 0.39758,0.47598c0.17919,0.11199 0.39385,0.16799 0.64397,0.16799c0.18666,0 0.35838,-0.03173 0.51518,-0.0952c0.15679,-0.06346 0.29119,-0.1512 0.40318,-0.26319c0.11199,-0.11199 0.19786,-0.24079 0.25759,-0.38638c0.06346,-0.14559 0.0952,-0.30799 0.0952,-0.48718v-4.24461h2.15591v7.10609h-2.02151l-0.0952,-1.45594l0.40318,-0.16239c-0.10826,0.33972 -0.28745,0.6421 -0.53758,0.90716c-0.25012,0.26132 -0.54878,0.47038 -0.89596,0.62717c-0.34719,0.15306 -0.71677,0.22959 -1.10875,0.22959zM208.68169,133.88333v-9.90036h2.1391v9.90036zM212.85495,133.88333v-7.10609h2.13911v7.10609zM213.9245,125.37731c-0.39945,0 -0.71304,-0.0952 -0.94076,-0.28559c-0.22772,-0.19412 -0.34158,-0.47038 -0.34158,-0.82876c0,-0.32105 0.11573,-0.58424 0.34718,-0.78957c0.23146,-0.20532 0.54318,-0.30799 0.93516,-0.30799c0.40318,0 0.7149,0.09706 0.93516,0.29119c0.22399,0.19039 0.33599,0.45918 0.33599,0.80637c0,0.33225 -0.11386,0.60104 -0.34159,0.80636c-0.22772,0.20532 -0.53758,0.30799 -0.92956,0.30799zM219.0656,131.79463l-0.78956,-1.60153l3.31505,-3.41585h2.82228zM217.00489,133.88333v-9.90036h2.1391v9.90036zM221.82068,133.88333l-2.50309,-3.23666l1.51193,-1.17595l3.51665,4.4126zM228.46732,134.01773c-0.78397,0 -1.46714,-0.15866 -2.04951,-0.47598c-0.57864,-0.31732 -1.02849,-0.75037 -1.34954,-1.29914c-0.32105,-0.54878 -0.48158,-1.17408 -0.48158,-1.87592c0,-0.54504 0.0896,-1.04529 0.26879,-1.50073c0.17919,-0.45545 0.42932,-0.8493 0.75037,-1.18155c0.32105,-0.33599 0.70183,-0.59544 1.14235,-0.77837c0.44051,-0.18293 0.92396,-0.27439 1.45034,-0.27439c0.50024,0 0.95756,0.0896 1.37194,0.26879c0.41438,0.17919 0.77276,0.42932 1.07515,0.75037c0.30612,0.32105 0.53944,0.69997 0.69997,1.13675c0.16053,0.43678 0.23146,0.91276 0.21279,1.42794l-0.0112,0.57678h-5.66135l-0.30799,-1.20395h4.22781l-0.22959,0.25759v-0.26879c-0.01493,-0.22399 -0.084,-0.42185 -0.20719,-0.59357c-0.11946,-0.17546 -0.27812,-0.31172 -0.47598,-0.40878c-0.19412,-0.1008 -0.41625,-0.15119 -0.66637,-0.15119c-0.34719,0 -0.64397,0.06906 -0.89036,0.20719c-0.24639,0.13813 -0.43118,0.33972 -0.55438,0.60477c-0.12319,0.26132 -0.18479,0.58424 -0.18479,0.96876c0,0.39198 0.08213,0.73357 0.24639,1.02476c0.16426,0.28745 0.40505,0.51144 0.72237,0.67197c0.31732,0.16053 0.69437,0.24079 1.13115,0.24079c0.30239,0 0.57117,-0.04293 0.80636,-0.1288c0.23519,-0.0896 0.49278,-0.24266 0.77277,-0.45918l1.00236,1.42234c-0.27625,0.23892 -0.57117,0.43492 -0.88476,0.58798c-0.31359,0.14933 -0.63277,0.26132 -0.95756,0.33598c-0.32479,0.0784 -0.6477,0.1176 -0.96876,0.1176zM239.82609,134.00653c-0.59731,0 -1.13115,-0.15866 -1.60153,-0.47598c-0.46665,-0.31732 -0.8381,-0.7541 -1.11435,-1.31034c-0.27625,-0.55997 -0.41438,-1.19088 -0.41438,-1.89272c0,-0.72424 0.13813,-1.36261 0.41438,-1.91512c0.27625,-0.55251 0.65517,-0.98742 1.13675,-1.30474c0.48158,-0.31732 1.03036,-0.47598 1.64633,-0.47598c0.33972,0 0.64957,0.0504 0.92956,0.15119c0.27999,0.09706 0.52638,0.23332 0.73917,0.40878c0.21652,0.17173 0.39945,0.37145 0.54878,0.59917c0.15306,0.22772 0.26506,0.47038 0.33599,0.72797l-0.44238,-0.056v-1.68553h2.12791v7.10609h-2.16711v-1.71352l0.48158,-0.0112c-0.07093,0.25012 -0.18666,0.48718 -0.34719,0.71117c-0.16053,0.22026 -0.35652,0.41625 -0.58797,0.58797c-0.23146,0.16799 -0.49091,0.30239 -0.77837,0.40318c-0.28372,0.09706 -0.58611,0.1456 -0.90716,0.1456zM240.41406,132.19781c0.32852,0 0.61224,-0.07466 0.85116,-0.22399c0.24266,-0.15306 0.43118,-0.36958 0.56558,-0.64957c0.13439,-0.28372 0.20159,-0.61597 0.20159,-0.99676c0,-0.38452 -0.0672,-0.71677 -0.20159,-0.99676c-0.13439,-0.28372 -0.32292,-0.50211 -0.56558,-0.65517c-0.23892,-0.15679 -0.52264,-0.23519 -0.85116,-0.23519c-0.32105,0 -0.60104,0.0784 -0.83996,0.23519c-0.23519,0.15306 -0.41998,0.37145 -0.55438,0.65517c-0.13066,0.27999 -0.19599,0.61224 -0.19599,0.99676c0,0.38078 0.06533,0.71304 0.19599,0.99676c0.13439,0.27999 0.31918,0.49651 0.55438,0.64957c0.23892,0.14933 0.51891,0.22399 0.83996,0.22399zM255.05092,136.8288v-4.659l0.46478,0.10639c-0.0336,0.22399 -0.12693,0.44051 -0.27999,0.64957c-0.14933,0.20906 -0.33785,0.39385 -0.56557,0.55438c-0.22772,0.16053 -0.48531,0.28932 -0.77276,0.38638c-0.28372,0.09333 -0.57677,0.14 -0.87916,0.14c-0.62717,0 -1.18155,-0.15866 -1.66313,-0.47598c-0.48158,-0.31732 -0.86049,-0.75223 -1.13675,-1.30474c-0.27625,-0.55251 -0.41438,-1.18528 -0.41438,-1.89832c0,-0.72424 0.13626,-1.36261 0.40878,-1.91512c0.27252,-0.55251 0.6477,-0.98742 1.12555,-1.30474c0.47784,-0.31732 1.01542,-0.47598 1.61273,-0.47598c0.33599,0 0.65517,0.0504 0.95756,0.15119c0.30612,0.09706 0.57864,0.22586 0.81756,0.38638c0.24266,0.16053 0.43865,0.34532 0.58798,0.55438c0.15306,0.20906 0.23892,0.42932 0.25759,0.66077l-0.48158,0.0784l0.0784,-1.68553h2.03271v10.05156zM253.49979,132.19781c0.32852,0 0.61224,-0.07466 0.85116,-0.22399c0.24266,-0.15306 0.43118,-0.36958 0.56557,-0.64957c0.13439,-0.28372 0.20159,-0.61597 0.20159,-0.99676c0,-0.38452 -0.0672,-0.71677 -0.20159,-0.99676c-0.13439,-0.28372 -0.32292,-0.50211 -0.56557,-0.65517c-0.23892,-0.15679 -0.52265,-0.23519 -0.85116,-0.23519c-0.32105,0 -0.60291,0.0784 -0.84556,0.23519c-0.23892,0.15306 -0.42371,0.37332 -0.55438,0.66077c-0.13066,0.28372 -0.19599,0.61411 -0.19599,0.99116c0,0.38078 0.06533,0.71304 0.19599,0.99676c0.13066,0.27999 0.31545,0.49651 0.55438,0.64957c0.24266,0.14933 0.52451,0.22399 0.84556,0.22399zM261.52406,134.02893c-0.52638,0 -0.97436,-0.11386 -1.34394,-0.34159c-0.36958,-0.22772 -0.65517,-0.55438 -0.85676,-0.97996c-0.20159,-0.42932 -0.30239,-0.94262 -0.30239,-1.53993v-4.39021h2.1559v4.09342c0,0.28745 0.0448,0.53384 0.1344,0.73917c0.0896,0.20532 0.22212,0.36398 0.39758,0.47598c0.17919,0.11199 0.39385,0.16799 0.64397,0.16799c0.18666,0 0.35838,-0.03173 0.51518,-0.0952c0.15679,-0.06346 0.29119,-0.1512 0.40318,-0.26319c0.11199,-0.11199 0.19786,-0.24079 0.25759,-0.38638c0.06346,-0.14559 0.0952,-0.30799 0.0952,-0.48718v-4.24461h2.1559v7.10609h-2.02151l-0.0952,-1.45594l0.40318,-0.16239c-0.10826,0.33972 -0.28746,0.6421 -0.53758,0.90716c-0.25012,0.26132 -0.54877,0.47038 -0.89596,0.62717c-0.34719,0.15306 -0.71677,0.22959 -1.10875,0.22959zM267.81114,133.88333v-7.10609h2.13911v7.10609zM268.8807,125.37731c-0.39945,0 -0.71304,-0.0952 -0.94076,-0.28559c-0.22772,-0.19412 -0.34159,-0.47038 -0.34159,-0.82876c0,-0.32105 0.11573,-0.58424 0.34719,-0.78957c0.23146,-0.20532 0.54318,-0.30799 0.93516,-0.30799c0.40318,0 0.7149,0.09706 0.93516,0.29119c0.22399,0.19039 0.33598,0.45918 0.33598,0.80637c0,0.33225 -0.11386,0.60104 -0.34158,0.80636c-0.22772,0.20532 -0.53758,0.30799 -0.92956,0.30799zM275.07455,134.01773c-0.6869,0 -1.30287,-0.16053 -1.84792,-0.48158c-0.54131,-0.32105 -0.97063,-0.7597 -1.28794,-1.31594c-0.31732,-0.55997 -0.47598,-1.19088 -0.47598,-1.89272c0,-0.70557 0.15866,-1.33647 0.47598,-1.89272c0.31732,-0.55997 0.74663,-1.00049 1.28794,-1.32154c0.54504,-0.32105 1.16102,-0.48158 1.84792,-0.48158c0.63464,0 1.21701,0.11199 1.74712,0.33598c0.53011,0.22399 0.95196,0.53571 1.26554,0.93516l-1.16475,1.39434c-0.12693,-0.14559 -0.27439,-0.27999 -0.44238,-0.40318c-0.16799,-0.12693 -0.35465,-0.22586 -0.55997,-0.29679c-0.20532,-0.07093 -0.41998,-0.10639 -0.64397,-0.10639c-0.33972,0 -0.63837,0.0784 -0.89596,0.23519c-0.25759,0.15679 -0.45918,0.37332 -0.60477,0.64957c-0.14186,0.27625 -0.21279,0.59357 -0.21279,0.95196c0,0.33599 0.0728,0.6421 0.21839,0.91836c0.14933,0.27625 0.35278,0.49464 0.61037,0.65517c0.26132,0.16053 0.55624,0.24079 0.88476,0.24079c0.23146,0 0.44425,-0.028 0.63837,-0.084c0.19786,-0.05973 0.37892,-0.14746 0.54318,-0.26319c0.16799,-0.11573 0.32292,-0.25759 0.46478,-0.42558l1.14795,1.40554c-0.30239,0.38078 -0.72423,0.68317 -1.26554,0.90716c-0.53758,0.22399 -1.11435,0.33599 -1.73032,0.33599zM281.31272,131.79463l-0.78957,-1.60153l3.31505,-3.41585h2.82228zM279.25201,133.88333v-9.90036h2.1391v9.90036zM284.0678,133.88333l-2.50309,-3.23666l1.51193,-1.17595l3.51664,4.4126zM292.49543,133.88333v-8.89801h2.13911v8.89801zM291.23548,128.65316v-1.87592h4.77659v1.87592zM299.65095,134.02893c-0.52638,0 -0.97436,-0.11386 -1.34394,-0.34159c-0.36958,-0.22772 -0.65517,-0.55438 -0.85676,-0.97996c-0.20159,-0.42932 -0.30239,-0.94262 -0.30239,-1.53993v-4.39021h2.15591v4.09342c0,0.28745 0.0448,0.53384 0.13439,0.73917c0.0896,0.20532 0.22212,0.36398 0.39758,0.47598c0.17919,0.11199 0.39385,0.16799 0.64397,0.16799c0.18666,0 0.35838,-0.03173 0.51518,-0.0952c0.15679,-0.06346 0.29119,-0.1512 0.40318,-0.26319c0.11199,-0.11199 0.19786,-0.24079 0.25759,-0.38638c0.06346,-0.14559 0.0952,-0.30799 0.0952,-0.48718v-4.24461h2.15591v7.10609h-2.02151l-0.0952,-1.45594l0.40318,-0.16239c-0.10826,0.33972 -0.28745,0.6421 -0.53758,0.90716c-0.25012,0.26132 -0.54878,0.47038 -0.89596,0.62717c-0.34719,0.15306 -0.71677,0.22959 -1.10875,0.22959zM306.40841,133.88333v-8.89801h2.13911v8.89801zM305.14846,128.65316v-1.87592h4.77659v1.87592zM314.42098,134.01773c-0.73917,0 -1.39807,-0.16053 -1.97671,-0.48158c-0.57491,-0.32105 -1.03035,-0.75783 -1.36634,-1.31034c-0.33225,-0.55251 -0.49838,-1.18528 -0.49838,-1.89832c0,-0.71677 0.16613,-1.35141 0.49838,-1.90392c0.33599,-0.55251 0.79143,-0.98929 1.36634,-1.31034c0.57864,-0.32105 1.23754,-0.48158 1.97671,-0.48158c0.73917,0 1.39621,0.16053 1.97112,0.48158c0.57491,0.32105 1.02662,0.75783 1.35514,1.31034c0.33225,0.55251 0.49838,1.18715 0.49838,1.90392c0,0.71304 -0.16613,1.34581 -0.49838,1.89832c-0.32852,0.55251 -0.78023,0.98929 -1.35514,1.31034c-0.57491,0.32105 -1.23195,0.48158 -1.97112,0.48158zM314.42098,132.16981c0.32105,0 0.60664,-0.08026 0.85676,-0.24079c0.25012,-0.16053 0.44611,-0.37892 0.58797,-0.65517c0.14186,-0.27625 0.20906,-0.59171 0.20159,-0.94636c0.00747,-0.35838 -0.05973,-0.67757 -0.20159,-0.95756c-0.14186,-0.28372 -0.33785,-0.50585 -0.58797,-0.66637c-0.25012,-0.16053 -0.53571,-0.24079 -0.85676,-0.24079c-0.32105,0 -0.60851,0.08026 -0.86236,0.24079c-0.25386,0.16053 -0.45358,0.38265 -0.59917,0.66637c-0.14186,0.27999 -0.20719,0.59917 -0.19599,0.95756c-0.0112,0.35465 0.05413,0.6701 0.19599,0.94636c0.14559,0.27625 0.34532,0.49464 0.59917,0.65517c0.25386,0.16053 0.54131,0.24079 0.86236,0.24079zM319.65314,133.88333v-7.10609h2.03271l0.0896,2.3183l-0.39758,-0.44238c0.10453,-0.38452 0.27999,-0.72797 0.52638,-1.03035c0.24639,-0.30239 0.53384,-0.54318 0.86236,-0.72237c0.33225,-0.17919 0.68504,-0.26879 1.05835,-0.26879c0.16053,0 0.30985,0.01307 0.44798,0.0392c0.13813,0.02613 0.26506,0.05786 0.38078,0.0952l-0.58797,2.3687c-0.09706,-0.06346 -0.22959,-0.11386 -0.39758,-0.15119c-0.16426,-0.04106 -0.33412,-0.0616 -0.50958,-0.0616c-0.19786,0 -0.38265,0.0336 -0.55438,0.1008c-0.16799,0.0672 -0.30985,0.16239 -0.42558,0.28559c-0.11573,0.12319 -0.20719,0.27065 -0.27439,0.44238c-0.0672,0.16799 -0.1008,0.36025 -0.1008,0.57678v3.55584zM325.85767,133.88333v-7.10609h2.1391v7.10609zM326.92722,125.37731c-0.39945,0 -0.71304,-0.0952 -0.94076,-0.28559c-0.22772,-0.19412 -0.34159,-0.47038 -0.34159,-0.82876c0,-0.32105 0.11573,-0.58424 0.34719,-0.78957c0.23146,-0.20532 0.54318,-0.30799 0.93516,-0.30799c0.40318,0 0.7149,0.09706 0.93516,0.29119c0.22399,0.19039 0.33599,0.45918 0.33599,0.80637c0,0.33225 -0.11386,0.60104 -0.34159,0.80636c-0.22772,0.20532 -0.53758,0.30799 -0.92956,0.30799zM332.62829,134.00653c-0.59731,0 -1.13115,-0.15866 -1.60153,-0.47598c-0.46665,-0.31732 -0.8381,-0.7541 -1.11435,-1.31034c-0.27625,-0.55997 -0.41438,-1.19088 -0.41438,-1.89272c0,-0.72424 0.13813,-1.36261 0.41438,-1.91512c0.27625,-0.55251 0.65517,-0.98742 1.13675,-1.30474c0.48158,-0.31732 1.03035,-0.47598 1.64633,-0.47598c0.33972,0 0.64957,0.0504 0.92956,0.15119c0.27999,0.09706 0.52638,0.23332 0.73917,0.40878c0.21652,0.17173 0.39945,0.37145 0.54878,0.59917c0.15306,0.22772 0.26506,0.47038 0.33599,0.72797l-0.44238,-0.056v-1.68553h2.1279v7.10609h-2.1671v-1.71352l0.48158,-0.0112c-0.07093,0.25012 -0.18666,0.48718 -0.34719,0.71117c-0.16053,0.22026 -0.35652,0.41625 -0.58797,0.58797c-0.23146,0.16799 -0.49091,0.30239 -0.77837,0.40318c-0.28372,0.09706 -0.58611,0.1456 -0.90716,0.1456zM333.21627,132.19781c0.32852,0 0.61224,-0.07466 0.85116,-0.22399c0.24266,-0.15306 0.43118,-0.36958 0.56558,-0.64957c0.13439,-0.28372 0.20159,-0.61597 0.20159,-0.99676c0,-0.38452 -0.0672,-0.71677 -0.20159,-0.99676c-0.13439,-0.28372 -0.32292,-0.50211 -0.56558,-0.65517c-0.23892,-0.15679 -0.52265,-0.23519 -0.85116,-0.23519c-0.32105,0 -0.60104,0.0784 -0.83996,0.23519c-0.23519,0.15306 -0.41998,0.37145 -0.55438,0.65517c-0.13066,0.27999 -0.19599,0.61224 -0.19599,0.99676c0,0.38078 0.06533,0.71304 0.19599,0.99676c0.13439,0.27999 0.31919,0.49651 0.55438,0.64957c0.23892,0.14933 0.51891,0.22399 0.83996,0.22399zM338.83481,133.88333v-9.90036h2.13911v9.90036zM344.548,130.67467l-0.43118,-1.75272c0.26132,-0.06346 0.50771,-0.13626 0.73917,-0.21839c0.23146,-0.08586 0.44425,-0.17732 0.63837,-0.27439c0.19786,-0.1008 0.36585,-0.21466 0.50398,-0.34159c0.13813,-0.13066 0.24639,-0.27439 0.32479,-0.43118c0.08213,-0.15679 0.12319,-0.32479 0.12319,-0.50398c0,-0.17546 -0.0448,-0.32852 -0.13439,-0.45918c-0.0896,-0.13066 -0.21092,-0.23146 -0.36398,-0.30239c-0.14933,-0.07093 -0.32665,-0.10639 -0.53198,-0.10639c-0.29492,0 -0.58984,0.10453 -0.88476,0.31359c-0.29119,0.20906 -0.56184,0.54691 -0.81196,1.01355l-1.46154,-1.35514c0.40318,-0.61597 0.88289,-1.09195 1.43914,-1.42794c0.55624,-0.33972 1.13862,-0.50958 1.74712,-0.50958c0.58984,0 1.11995,0.11759 1.59033,0.35278c0.47411,0.23519 0.8493,0.56184 1.12555,0.97996c0.27625,0.41438 0.41438,0.87916 0.41438,1.39434c0,0.33225 -0.06906,0.6589 -0.20719,0.97996c-0.13813,0.32105 -0.33038,0.62157 -0.57677,0.90156c-0.24639,0.27999 -0.53384,0.52824 -0.86236,0.74477c-0.32852,0.21279 -0.69437,0.37705 -1.09755,0.49278l-0.13439,0.50958zM344.06643,132.84178c0,-0.35838 0.1064,-0.6477 0.31919,-0.86796c0.21652,-0.22399 0.49278,-0.33598 0.82876,-0.33598c0.36585,0 0.65144,0.10453 0.85676,0.31358c0.20532,0.20906 0.30799,0.50585 0.30799,0.89036c0,0.34719 -0.10826,0.63277 -0.32479,0.85676c-0.21279,0.22026 -0.49278,0.33039 -0.83996,0.33039c-0.36585,0 -0.64957,-0.10266 -0.85116,-0.30799c-0.19786,-0.20532 -0.29679,-0.49838 -0.29679,-0.87916z" fill="#000000" stroke="none" stroke-width="1" stroke-linecap="square"/><path d="M211.63919,246.64077c-0.85723,-0.53137 -1.51043,-1.19631 -1.9596,-1.99483c-0.44623,-0.80145 -0.66935,-1.69245 -0.66935,-2.67298c0,-0.97466 0.22605,-1.86419 0.67815,-2.66858c0.4521,-0.80439 1.1053,-1.47227 1.9596,-2.00363l0.94677,0.89393c-0.64586,0.44917 -1.12879,1.00402 -1.44878,1.66456c-0.31706,0.6576 -0.47559,1.36218 -0.47559,2.11372c0,0.74861 0.15853,1.45319 0.47559,2.11372c0.31999,0.6576 0.80292,1.21099 1.44878,1.66015zM216.05473,244.79126c-0.48146,0 -0.91742,-0.05725 -1.30787,-0.17174c-0.39045,-0.11743 -0.73687,-0.28623 -1.03925,-0.50641c-0.29944,-0.22018 -0.56806,-0.48146 -0.80586,-0.78384l1.08328,-1.23301c0.34935,0.46972 0.70164,0.78531 1.05686,0.94677c0.35522,0.16146 0.72219,0.2422 1.1009,0.2422c0.18789,0 0.35816,-0.02349 0.51082,-0.07046c0.15559,-0.04991 0.27596,-0.12183 0.36109,-0.21578c0.08514,-0.09688 0.1277,-0.21431 0.1277,-0.35229c0,-0.10569 -0.02642,-0.2011 -0.07926,-0.28623c-0.05284,-0.08514 -0.12477,-0.15853 -0.21578,-0.22018c-0.09101,-0.06459 -0.19963,-0.12183 -0.32587,-0.17174c-0.12624,-0.05284 -0.25981,-0.09835 -0.40073,-0.13651c-0.14091,-0.0411 -0.28477,-0.07486 -0.43155,-0.10128c-0.40807,-0.09101 -0.76329,-0.20257 -1.06567,-0.33467c-0.29944,-0.13504 -0.54898,-0.29944 -0.74861,-0.4932c-0.19963,-0.19376 -0.34935,-0.41394 -0.44917,-0.66054c-0.09688,-0.24954 -0.14532,-0.52843 -0.14532,-0.83668c0,-0.33174 0.07486,-0.63559 0.22458,-0.91154c0.15266,-0.27596 0.35669,-0.51375 0.6121,-0.71338c0.25541,-0.19963 0.55045,-0.35376 0.88512,-0.46238c0.33761,-0.11156 0.68843,-0.16734 1.05246,-0.16734c0.4844,0 0.8998,0.05137 1.24622,0.15413c0.34935,0.10275 0.64733,0.24954 0.89393,0.44036c0.24954,0.18789 0.46238,0.41541 0.63852,0.68256l-1.1053,1.06127c-0.14679,-0.18202 -0.30678,-0.3332 -0.47999,-0.45357c-0.17027,-0.12037 -0.35229,-0.21137 -0.54605,-0.27302c-0.19082,-0.06459 -0.38898,-0.09688 -0.59449,-0.09688c-0.20844,0 -0.38898,0.02642 -0.54164,0.07926c-0.14972,0.05284 -0.26715,0.1277 -0.35229,0.22458c-0.0822,0.09394 -0.1233,0.20697 -0.1233,0.33908c0,0.12037 0.03376,0.22311 0.10128,0.30825c0.07046,0.0822 0.16587,0.15706 0.28623,0.22458c0.12037,0.06752 0.25688,0.12477 0.40953,0.17174c0.15559,0.04404 0.31706,0.07926 0.4844,0.10569c0.38752,0.07633 0.73687,0.17761 1.04806,0.30385c0.31119,0.12624 0.57981,0.28183 0.80586,0.46678c0.22899,0.18202 0.40513,0.39779 0.52843,0.64733c0.1233,0.2466 0.18495,0.53577 0.18495,0.86751c0,0.51082 -0.12477,0.94384 -0.37431,1.29906c-0.24954,0.35229 -0.59008,0.62237 -1.02163,0.81026c-0.42862,0.18495 -0.92475,0.27743 -1.48841,0.27743zM222.01117,244.80007c-0.41394,0 -0.76623,-0.08954 -1.05686,-0.26862c-0.29064,-0.17908 -0.51522,-0.43596 -0.67375,-0.77063c-0.15853,-0.33761 -0.23779,-0.74127 -0.23779,-1.21099v-3.45242h1.69538v3.21903c0,0.22605 0.03523,0.41981 0.10569,0.58127c0.07046,0.16146 0.17468,0.28623 0.31266,0.37431c0.14091,0.08807 0.30972,0.13211 0.50641,0.13211c0.14679,0 0.28183,-0.02495 0.40513,-0.07486c0.1233,-0.04991 0.22899,-0.1189 0.31706,-0.20697c0.08807,-0.08807 0.15559,-0.18935 0.20257,-0.30385c0.04991,-0.11449 0.07486,-0.2422 0.07486,-0.38311v-3.33792h1.69538v5.58816h-1.5897l-0.07486,-1.14493l0.31706,-0.1277c-0.08514,0.26715 -0.22605,0.50494 -0.42274,0.71338c-0.19669,0.2055 -0.43155,0.3699 -0.70457,0.4932c-0.27302,0.12037 -0.56366,0.18055 -0.87191,0.18055zM229.31166,247.10315c-0.45504,0 -0.90861,-0.06605 -1.36071,-0.19816c-0.4521,-0.13211 -0.81907,-0.30385 -1.1009,-0.51522l0.59008,-1.18016c0.14679,0.09981 0.30972,0.18642 0.4888,0.25981c0.17908,0.07339 0.36697,0.13064 0.56366,0.17174c0.19669,0.04404 0.39632,0.06605 0.59889,0.06605c0.35816,0 0.6488,-0.05284 0.87191,-0.15853c0.22605,-0.10569 0.39486,-0.26568 0.50641,-0.47999c0.11156,-0.21431 0.16734,-0.48293 0.16734,-0.80586v-0.93356l0.32587,0.05284c-0.04991,0.23192 -0.17174,0.44329 -0.3655,0.63412c-0.19082,0.18789 -0.42715,0.33908 -0.70898,0.45357c-0.27889,0.11449 -0.57687,0.17174 -0.89393,0.17174c-0.50494,0 -0.95558,-0.11743 -1.3519,-0.35229c-0.39339,-0.23486 -0.70457,-0.56072 -0.93356,-0.9776c-0.22899,-0.41687 -0.34348,-0.89833 -0.34348,-1.44438c0,-0.56072 0.11156,-1.05686 0.33467,-1.48841c0.22605,-0.43155 0.53577,-0.7721 0.92916,-1.02163c0.39339,-0.24954 0.83521,-0.37431 1.32548,-0.37431c0.21137,0 0.41247,0.02495 0.60329,0.07486c0.19376,0.04991 0.37284,0.11596 0.53724,0.19816c0.1644,0.07926 0.31119,0.17321 0.44036,0.28183c0.13211,0.10862 0.23779,0.22605 0.31706,0.35229c0.0822,0.12624 0.13651,0.25541 0.16293,0.38752l-0.34788,0.08367l0.06605,-1.26383h1.5985v5.13459c0,0.45797 -0.06899,0.8631 -0.20697,1.21539c-0.13504,0.35522 -0.33467,0.65614 -0.59889,0.90274c-0.26422,0.24954 -0.58274,0.43742 -0.95558,0.56366c-0.3699,0.12624 -0.78971,0.18935 -1.25943,0.18935zM229.3557,243.33807c0.27302,0 0.50935,-0.06018 0.70898,-0.18055c0.19963,-0.1233 0.35376,-0.29357 0.46238,-0.51082c0.10862,-0.22018 0.16293,-0.47706 0.16293,-0.77063c0,-0.29357 -0.05431,-0.55045 -0.16293,-0.77063c-0.10862,-0.22311 -0.26275,-0.39486 -0.46238,-0.51522c-0.19963,-0.1233 -0.43596,-0.18495 -0.70898,-0.18495c-0.26715,0 -0.49907,0.06165 -0.69577,0.18495c-0.19669,0.12037 -0.34935,0.29211 -0.45797,0.51522c-0.10862,0.22018 -0.16293,0.47706 -0.16293,0.77063c0,0.29357 0.05431,0.55045 0.16293,0.77063c0.10862,0.21724 0.26128,0.38752 0.45797,0.51082c0.19669,0.12037 0.42862,0.18055 0.69577,0.18055zM236.34969,247.10315c-0.45504,0 -0.90861,-0.06605 -1.36071,-0.19816c-0.4521,-0.13211 -0.81907,-0.30385 -1.1009,-0.51522l0.59008,-1.18016c0.14679,0.09981 0.30972,0.18642 0.4888,0.25981c0.17908,0.07339 0.36697,0.13064 0.56366,0.17174c0.19669,0.04404 0.39632,0.06605 0.59889,0.06605c0.35816,0 0.6488,-0.05284 0.87191,-0.15853c0.22605,-0.10569 0.39486,-0.26568 0.50641,-0.47999c0.11156,-0.21431 0.16734,-0.48293 0.16734,-0.80586v-0.93356l0.32587,0.05284c-0.04991,0.23192 -0.17174,0.44329 -0.3655,0.63412c-0.19082,0.18789 -0.42715,0.33908 -0.70898,0.45357c-0.27889,0.11449 -0.57687,0.17174 -0.89393,0.17174c-0.50494,0 -0.95558,-0.11743 -1.3519,-0.35229c-0.39339,-0.23486 -0.70457,-0.56072 -0.93356,-0.9776c-0.22899,-0.41687 -0.34348,-0.89833 -0.34348,-1.44438c0,-0.56072 0.11156,-1.05686 0.33467,-1.48841c0.22605,-0.43155 0.53577,-0.7721 0.92916,-1.02163c0.39339,-0.24954 0.83521,-0.37431 1.32548,-0.37431c0.21137,0 0.41247,0.02495 0.60329,0.07486c0.19376,0.04991 0.37284,0.11596 0.53724,0.19816c0.1644,0.07926 0.31119,0.17321 0.44036,0.28183c0.13211,0.10862 0.23779,0.22605 0.31706,0.35229c0.0822,0.12624 0.13651,0.25541 0.16293,0.38752l-0.34788,0.08367l0.06605,-1.26383h1.5985v5.13459c0,0.45797 -0.06899,0.8631 -0.20697,1.21539c-0.13504,0.35522 -0.33467,0.65614 -0.59889,0.90274c-0.26422,0.24954 -0.58274,0.43742 -0.95558,0.56366c-0.3699,0.12624 -0.78971,0.18935 -1.25943,0.18935zM236.39372,243.33807c0.27302,0 0.50935,-0.06018 0.70898,-0.18055c0.19963,-0.1233 0.35376,-0.29357 0.46238,-0.51082c0.10862,-0.22018 0.16293,-0.47706 0.16293,-0.77063c0,-0.29357 -0.05431,-0.55045 -0.16293,-0.77063c-0.10862,-0.22311 -0.26275,-0.39486 -0.46238,-0.51522c-0.19963,-0.1233 -0.43596,-0.18495 -0.70898,-0.18495c-0.26715,0 -0.49907,0.06165 -0.69577,0.18495c-0.19669,0.12037 -0.34935,0.29211 -0.45797,0.51522c-0.10862,0.22018 -0.16293,0.47706 -0.16293,0.77063c0,0.29357 0.05431,0.55045 0.16293,0.77063c0.10862,0.21724 0.26128,0.38752 0.45797,0.51082c0.19669,0.12037 0.42862,0.18055 0.69577,0.18055zM243.4934,244.79126c-0.6165,0 -1.15374,-0.12477 -1.61172,-0.37431c-0.45504,-0.24954 -0.80879,-0.59008 -1.06127,-1.02163c-0.25247,-0.43155 -0.37871,-0.92329 -0.37871,-1.4752c0,-0.42862 0.07046,-0.822 0.21137,-1.18016c0.14091,-0.35816 0.33761,-0.66788 0.59008,-0.92916c0.25247,-0.26422 0.55192,-0.46825 0.89833,-0.6121c0.34642,-0.14385 0.72659,-0.21578 1.14053,-0.21578c0.39339,0 0.75301,0.07046 1.07888,0.21137c0.32587,0.14091 0.6077,0.33761 0.84549,0.59008c0.24073,0.25247 0.42421,0.55045 0.55045,0.89393c0.12624,0.34348 0.18202,0.71779 0.16734,1.12292l-0.00881,0.45357h-4.45203l-0.2422,-0.94677h3.32471l-0.18055,0.20257v-0.21137c-0.01174,-0.17614 -0.06605,-0.33174 -0.16293,-0.46678c-0.09394,-0.13798 -0.21871,-0.24513 -0.37431,-0.32146c-0.15266,-0.07926 -0.32733,-0.1189 -0.52403,-0.1189c-0.27302,0 -0.50641,0.05431 -0.70017,0.16293c-0.19376,0.10862 -0.33908,0.26715 -0.43596,0.47559c-0.09688,0.2055 -0.14532,0.45944 -0.14532,0.76182c0,0.30825 0.06459,0.57687 0.19376,0.80586c0.12917,0.22605 0.31853,0.4022 0.56806,0.52843c0.24954,0.12624 0.54605,0.18935 0.88953,0.18935c0.23779,0 0.44917,-0.03376 0.63412,-0.10128c0.18495,-0.07046 0.38752,-0.19082 0.6077,-0.36109l0.78824,1.11851c-0.21724,0.18789 -0.44917,0.34201 -0.69577,0.46238c-0.2466,0.11743 -0.49761,0.2055 -0.75301,0.26422c-0.25541,0.06165 -0.50935,0.09248 -0.76182,0.09248zM248.8788,244.79126c-0.54605,0 -1.02751,-0.08807 -1.44438,-0.26422c-0.41687,-0.17614 -0.74861,-0.411 -0.99521,-0.70457l1.02163,-0.88512c0.21724,0.21724 0.46238,0.37724 0.7354,0.47999c0.27302,0.10275 0.53283,0.15413 0.77944,0.15413c0.09688,0 0.18348,-0.01028 0.25981,-0.03083c0.07926,-0.02349 0.14532,-0.05431 0.19816,-0.09248c0.05284,-0.03816 0.09248,-0.08367 0.1189,-0.13651c0.02936,-0.05284 0.04404,-0.11449 0.04404,-0.18495c0,-0.13798 -0.06312,-0.2466 -0.18935,-0.32587c-0.06459,-0.03523 -0.17027,-0.07633 -0.31706,-0.1233c-0.14679,-0.04991 -0.33614,-0.10715 -0.56806,-0.17174c-0.3288,-0.0822 -0.61503,-0.18055 -0.8587,-0.29504c-0.24073,-0.11743 -0.43889,-0.25394 -0.59449,-0.40953c-0.13798,-0.14679 -0.2466,-0.30972 -0.32587,-0.4888c-0.07633,-0.17908 -0.11449,-0.38018 -0.11449,-0.60329c0,-0.25834 0.06165,-0.4932 0.18495,-0.70457c0.1233,-0.21137 0.2877,-0.39339 0.4932,-0.54605c0.20844,-0.15559 0.4477,-0.27302 0.71779,-0.35229c0.27009,-0.0822 0.54751,-0.1233 0.83228,-0.1233c0.31119,0 0.60623,0.03523 0.88513,0.10569c0.28183,0.07046 0.54311,0.1688 0.78384,0.29504c0.24367,0.12624 0.45944,0.27743 0.64733,0.45357l-0.88512,0.9864c-0.12624,-0.11743 -0.26862,-0.22311 -0.42715,-0.31706c-0.1556,-0.09688 -0.31854,-0.17321 -0.48881,-0.22899c-0.16734,-0.05578 -0.32146,-0.08367 -0.46238,-0.08367c-0.10275,0 -0.19523,0.00881 -0.27743,0.02642c-0.07926,0.01761 -0.14825,0.0455 -0.20697,0.08367c-0.05578,0.03816 -0.09835,0.08367 -0.1277,0.13651c-0.02642,0.05284 -0.03963,0.11449 -0.03963,0.18495c0,0.07046 0.01908,0.13798 0.05725,0.20257c0.0411,0.06165 0.09541,0.11303 0.16293,0.15413c0.07046,0.0411 0.18202,0.08807 0.33467,0.14091c0.15559,0.05284 0.36697,0.1189 0.63412,0.19816c0.33174,0.09101 0.61651,0.19229 0.85431,0.30385c0.23779,0.11156 0.42715,0.24513 0.56806,0.40073c0.11156,0.11743 0.19523,0.25541 0.251,0.41394c0.05578,0.15853 0.08367,0.3288 0.08367,0.51082c0,0.35816 -0.09981,0.67522 -0.29944,0.95118c-0.19963,0.27596 -0.47559,0.4932 -0.82788,0.65173c-0.34936,0.15853 -0.74862,0.23779 -1.19779,0.23779zM252.66836,244.68557v-6.99731h1.68217v6.99731zM251.67755,240.57262v-1.4752h3.75626v1.4752zM259.0002,244.79126c-0.6165,0 -1.15374,-0.12477 -1.61172,-0.37431c-0.45504,-0.24954 -0.80879,-0.59008 -1.06127,-1.02163c-0.25247,-0.43155 -0.37871,-0.92329 -0.37871,-1.4752c0,-0.42862 0.07046,-0.822 0.21137,-1.18016c0.14091,-0.35816 0.33761,-0.66788 0.59008,-0.92916c0.25247,-0.26422 0.55192,-0.46825 0.89833,-0.6121c0.34642,-0.14385 0.72659,-0.21578 1.14053,-0.21578c0.39339,0 0.75301,0.07046 1.07888,0.21137c0.32587,0.14091 0.6077,0.33761 0.84549,0.59008c0.24073,0.25247 0.42421,0.55045 0.55045,0.89393c0.12624,0.34348 0.18202,0.71779 0.16734,1.12292l-0.00881,0.45357h-4.45203l-0.2422,-0.94677h3.32471l-0.18055,0.20257v-0.21137c-0.01174,-0.17614 -0.06605,-0.33174 -0.16293,-0.46678c-0.09394,-0.13798 -0.21871,-0.24513 -0.37431,-0.32146c-0.15266,-0.07926 -0.32733,-0.1189 -0.52403,-0.1189c-0.27302,0 -0.50641,0.05431 -0.70017,0.16293c-0.19376,0.10862 -0.33908,0.26715 -0.43596,0.47559c-0.09688,0.2055 -0.14532,0.45944 -0.14532,0.76182c0,0.30825 0.06459,0.57687 0.19376,0.80586c0.12917,0.22605 0.31853,0.4022 0.56806,0.52843c0.24954,0.12624 0.54605,0.18935 0.88953,0.18935c0.23779,0 0.44917,-0.03376 0.63412,-0.10128c0.18495,-0.07046 0.38752,-0.19082 0.6077,-0.36109l0.78824,1.11851c-0.21724,0.18789 -0.44917,0.34201 -0.69577,0.46238c-0.2466,0.11743 -0.49761,0.2055 -0.75301,0.26422c-0.25541,0.06165 -0.50935,0.09248 -0.76182,0.09248zM264.61899,244.80007c-0.4844,0 -0.91448,-0.1233 -1.29025,-0.3699c-0.37577,-0.24954 -0.67228,-0.59302 -0.88953,-1.03044c-0.21724,-0.44036 -0.32587,-0.9409 -0.32587,-1.50163c0,-0.56072 0.10862,-1.0598 0.32587,-1.49722c0.21724,-0.44036 0.51522,-0.78677 0.89393,-1.03925c0.37871,-0.25247 0.81466,-0.37871 1.30787,-0.37871c0.25247,0 0.4932,0.03963 0.72219,0.1189c0.23192,0.07633 0.44183,0.18055 0.62971,0.31266c0.19082,0.13211 0.34495,0.28477 0.46238,0.45797c0.12037,0.17321 0.19229,0.35082 0.21578,0.53283l-0.40073,0.09248v-3.59774h1.69538v7.78555h-1.56768l-0.09688,-1.27264l0.33467,0.05284c-0.02055,0.17614 -0.08954,0.34495 -0.20697,0.50641c-0.11449,0.15853 -0.26275,0.29944 -0.44476,0.42274c-0.18202,0.1233 -0.39045,0.22165 -0.62531,0.29504c-0.23486,0.07339 -0.48146,0.11009 -0.7398,0.11009zM265.05054,243.40413c0.25834,0 0.48146,-0.06312 0.66935,-0.18935c0.19082,-0.12624 0.33614,-0.30091 0.43596,-0.52403c0.10275,-0.22605 0.15413,-0.49027 0.15413,-0.79265c0,-0.30825 -0.05137,-0.57394 -0.15413,-0.79705c-0.09981,-0.22605 -0.24513,-0.4022 -0.43596,-0.52843c-0.18789,-0.12624 -0.411,-0.18935 -0.66935,-0.18935c-0.26128,0 -0.4844,0.06312 -0.66935,0.18935c-0.18495,0.12624 -0.33027,0.30238 -0.43596,0.52843c-0.10569,0.22311 -0.15853,0.4888 -0.15853,0.79705c0,0.30238 0.05284,0.5666 0.15853,0.79265c0.10569,0.22311 0.251,0.39779 0.43596,0.52403c0.18495,0.12624 0.40807,0.18935 0.66935,0.18935zM269.68054,246.64077l-0.94677,-0.89393c0.64292,-0.44917 1.12145,-1.00255 1.43557,-1.66015c0.31706,-0.66054 0.47559,-1.36511 0.47559,-2.11372c0,-0.75155 -0.15853,-1.45612 -0.47559,-2.11372c-0.31412,-0.66054 -0.79265,-1.21539 -1.43557,-1.66456l0.95558,-0.89393c0.8543,0.53137 1.50603,1.19778 1.9552,1.99923c0.44917,0.79852 0.67375,1.68951 0.67375,2.67298c0,0.97466 -0.22605,1.86419 -0.67815,2.66858c-0.4521,0.80145 -1.1053,1.46786 -1.9596,1.99923z" fill="#c2c2c2" stroke="none" stroke-width="1" stroke-linecap="square"/></g></g></svg>