<svg version="1.1" xmlns="http://www.w3.org/2000/svg" xmlns:xlink="http://www.w3.org/1999/xlink" width="205.64286" height="99.25" viewBox="0,0,205.64286,99.25"><g transform="translate(-137.30606,-131)"><g data-paper-data="{&quot;isPaintingLayer&quot;:true}" fill-rule="nonzero" stroke-linejoin="miter" stroke-miterlimit="10" stroke-dasharray="" stroke-dashoffset="0" style="mix-blend-mode: normal"><path d="M140.55606,207.25c0,-18.73959 -0.38249,-45.48871 0,-55.5c0.5,-13.0871 3.89541,-16.75 15.32143,-16.75c22.08229,0 127.56734,0 168,0c15.33535,0 15.82143,4.98326 15.82143,16.75c0,17.95892 0,45.32915 0,56c0,14.97422 -0.38765,19.25 -14.32143,19.25c-38.12556,0 -140.83396,0 -165,0c-18.91714,0 -19.82143,-3.40978 -19.82143,-19.75z" fill="#ffffff" stroke-opacity="0.25901" stroke="#000000" stroke-width="6.5" stroke-linecap="butt"/><path d="M140.47107,205.25c0,-18.73959 -0.38249,-45.48871 0,-55.5c0.5,-13.0871 3.89541,-16.75 15.32143,-16.75c22.08229,0 127.56734,0 168,0c15.33535,0 15.82143,4.98326 15.82143,16.75c0,17.95892 0,45.32915 0,56c0,14.97422 -0.38765,19.25 -14.32143,19.25c-38.12556,0 -140.83396,0 -165,0c-18.91714,0 -19.82143,-3.40978 -19.82143,-19.75z" fill="#ffffff" stroke="#000000" stroke-width="4" stroke-linecap="butt"/><path d="M154.85653,175.21573l-3.18714,-10.64517h2.63099l1.59713,5.59709c0.06655,0.25193 0.12834,0.50861 0.18538,0.77005c0.05704,0.25668 0.1022,0.50148 0.13547,0.7344c0.03803,0.23291 0.06655,0.44919 0.08556,0.64884c0.01901,0.19489 0.0404,0.35888 0.06417,0.49197h-0.33511c0.05704,-0.37552 0.10933,-0.71063 0.15686,-1.00534c0.04753,-0.29471 0.09982,-0.5704 0.15686,-0.82709c0.06179,-0.25668 0.13785,-0.52762 0.22816,-0.81283l1.58287,-4.21386h2.06772l1.55435,4.21386c0.12359,0.33274 0.22578,0.64646 0.30659,0.94117c0.08081,0.29471 0.1426,0.57753 0.18538,0.84848c0.04753,0.26619 0.08556,0.53 0.11408,0.79144l-0.29946,0.04991c0.01901,-0.18538 0.03327,-0.3565 0.04278,-0.51336c0.00951,-0.15686 0.02139,-0.30897 0.03565,-0.45632c0.01901,-0.14735 0.03803,-0.30184 0.05704,-0.46345c0.01901,-0.16161 0.04753,-0.33987 0.08556,-0.53475c0.04278,-0.19964 0.09982,-0.42543 0.17112,-0.67736l1.58287,-5.58283h2.56682l-3.19427,10.64517h-1.97503l-2.52404,-6.13185l0.29233,0.03565l-2.33153,6.0962zM167.78378,175.21573v-11.25123h2.38857v4.81992l-0.48484,0.17825c0.11408,-0.36126 0.31372,-0.69162 0.59892,-0.99108c0.28995,-0.29946 0.63695,-0.53951 1.04099,-0.72014c0.40879,-0.18538 0.83659,-0.27807 1.28341,-0.27807c0.60843,0 1.11942,0.12359 1.53296,0.37076c0.41354,0.24717 0.72727,0.61794 0.94117,1.11229c0.2139,0.4896 0.32085,1.0909 0.32085,1.8039v4.95539h-2.44561v-4.76288c0,-0.32323 -0.04753,-0.58942 -0.1426,-0.79857c-0.09031,-0.2139 -0.23054,-0.37314 -0.42067,-0.47771c-0.18538,-0.10933 -0.41354,-0.15924 -0.68449,-0.14973c-0.2139,0 -0.41354,0.03327 -0.59892,0.09982c-0.18063,0.06655 -0.33749,0.16399 -0.47058,0.29233c-0.12834,0.12359 -0.23054,0.26619 -0.30659,0.4278c-0.07605,0.16161 -0.11408,0.33987 -0.11408,0.53475v4.83418h-1.20498c-0.2852,0 -0.53,0 -0.7344,0c-0.19964,0 -0.36601,0 -0.4991,0zM181.24856,175.36546c-0.84135,0 -1.59,-0.18063 -2.24597,-0.54188c-0.65597,-0.36601 -1.17408,-0.86274 -1.55435,-1.49018c-0.37552,-0.6322 -0.56327,-1.35233 -0.56327,-2.16041c0,-0.81283 0.18776,-1.53296 0.56327,-2.16041c0.38027,-0.6322 0.89839,-1.12893 1.55435,-1.49018c0.65597,-0.36601 1.40462,-0.54901 2.24597,-0.54901c0.84135,0 1.58763,0.183 2.23884,0.54901c0.65597,0.36126 1.17171,0.85798 1.54722,1.49018c0.37552,0.62744 0.56327,1.34758 0.56327,2.16041c0,0.80807 -0.18776,1.52821 -0.56327,2.16041c-0.37552,0.62744 -0.89126,1.12417 -1.54722,1.49018c-0.65121,0.36126 -1.39749,0.54188 -2.23884,0.54188zM181.24856,173.26923c0.36126,0 0.68449,-0.09031 0.96969,-0.27094c0.2852,-0.18538 0.50861,-0.43493 0.67023,-0.74866c0.16161,-0.31372 0.23767,-0.6726 0.22816,-1.07664c0.00951,-0.40879 -0.06655,-0.77242 -0.22816,-1.0909c-0.16161,-0.31848 -0.38502,-0.56803 -0.67023,-0.74866c-0.2852,-0.18538 -0.60843,-0.27807 -0.96969,-0.27807c-0.36601,0 -0.69399,0.09269 -0.98395,0.27807c-0.28995,0.18063 -0.51574,0.43018 -0.67736,0.74866c-0.16161,0.31848 -0.23767,0.68211 -0.22816,1.0909c-0.00951,0.40404 0.06655,0.76292 0.22816,1.07664c0.16161,0.31372 0.3874,0.56327 0.67736,0.74866c0.28995,0.18063 0.61794,0.27094 0.98395,0.27094zM194.78004,175.36546c-0.78906,0 -1.48543,-0.12596 -2.08911,-0.37789c-0.60368,-0.25193 -1.08377,-0.59179 -1.44027,-1.0196l1.47592,-1.27628c0.31372,0.31372 0.66785,0.54426 1.06238,0.69162c0.39928,0.14735 0.7748,0.22103 1.12655,0.22103c0.1426,0 0.26856,-0.01426 0.37789,-0.04278c0.11408,-0.03327 0.20915,-0.07605 0.2852,-0.12834c0.07605,-0.05704 0.13309,-0.12359 0.17112,-0.19964c0.04278,-0.07605 0.06417,-0.16637 0.06417,-0.27094c0,-0.19964 -0.09031,-0.3565 -0.27094,-0.47058c-0.09031,-0.04753 -0.24242,-0.10695 -0.45632,-0.17825c-0.2139,-0.0713 -0.48722,-0.15448 -0.81996,-0.24955c-0.48009,-0.11883 -0.89601,-0.26143 -1.24776,-0.4278c-0.347,-0.17112 -0.6322,-0.36601 -0.85561,-0.58466c-0.19964,-0.2139 -0.3565,-0.44919 -0.47058,-0.70588c-0.10933,-0.26143 -0.16399,-0.55377 -0.16399,-0.877c0,-0.37552 0.08794,-0.71538 0.26381,-1.0196c0.17587,-0.30421 0.41354,-0.56803 0.71301,-0.79144c0.29946,-0.22341 0.64408,-0.39215 1.03386,-0.50623c0.39453,-0.11883 0.79857,-0.17825 1.21211,-0.17825c0.44682,0 0.87224,0.05229 1.27628,0.15686c0.40404,0.09982 0.78193,0.24004 1.13368,0.42067c0.35175,0.18063 0.6631,0.39928 0.93404,0.65597l-1.27628,1.42601c-0.18063,-0.17112 -0.38502,-0.32561 -0.61318,-0.46345c-0.22816,-0.13785 -0.46583,-0.24717 -0.71301,-0.32798c-0.24242,-0.08081 -0.46345,-0.12121 -0.6631,-0.12121c-0.15211,0 -0.28758,0.01426 -0.40641,0.04278c-0.11408,0.02377 -0.2139,0.06417 -0.29946,0.12121c-0.08081,0.05229 -0.1426,0.11646 -0.18538,0.19251c-0.03803,0.07605 -0.05704,0.16637 -0.05704,0.27094c0,0.09982 0.02852,0.19489 0.08556,0.2852c0.05704,0.09031 0.13547,0.16637 0.23529,0.22816c0.10457,0.06179 0.26619,0.13072 0.48484,0.20677c0.22341,0.07605 0.52762,0.16874 0.91265,0.27807c0.48009,0.13309 0.89126,0.28045 1.2335,0.44206c0.347,0.16161 0.62031,0.35413 0.81996,0.57753c0.16637,0.17587 0.28995,0.37789 0.37076,0.60605c0.08081,0.22816 0.12121,0.47296 0.12121,0.7344c0,0.51812 -0.14498,0.97682 -0.43493,1.3761c-0.28995,0.39928 -0.68924,0.71301 -1.19785,0.94117c-0.50386,0.22816 -1.08139,0.34224 -1.7326,0.34224zM200.25472,175.21573v-10.11042h2.43848v10.11042zM198.82871,169.26927v-2.13189h5.42597v2.13189zM208.54887,175.3512c-0.67973,0 -1.28579,-0.17825 -1.81816,-0.53475c-0.53238,-0.36126 -0.9578,-0.85798 -1.27628,-1.49018c-0.31372,-0.63695 -0.47058,-1.35471 -0.47058,-2.15328c0,-0.82233 0.15686,-1.54722 0.47058,-2.17467c0.31848,-0.6322 0.75103,-1.12655 1.29767,-1.48305c0.54664,-0.36126 1.16933,-0.54188 1.86807,-0.54188c0.38502,0 0.73677,0.05704 1.05525,0.17112c0.32323,0.10933 0.60605,0.26381 0.84848,0.46345c0.24242,0.19489 0.44919,0.42305 0.62031,0.68449c0.17587,0.25668 0.30421,0.53238 0.38502,0.82709l-0.50623,-0.06417v-1.91799h2.41709v8.07835h-2.45987v-1.94651l0.54901,-0.01426c-0.08081,0.2852 -0.2139,0.55377 -0.39928,0.8057c-0.18063,0.25193 -0.40404,0.47534 -0.67023,0.67023c-0.26143,0.19013 -0.55614,0.34224 -0.88413,0.45632c-0.32323,0.10933 -0.66547,0.16399 -1.02673,0.16399zM209.21197,173.29775c0.37552,0 0.69875,-0.08556 0.96969,-0.25668c0.27569,-0.17112 0.4896,-0.41592 0.64171,-0.7344c0.15211,-0.32323 0.22816,-0.70112 0.22816,-1.13368c0,-0.43731 -0.07605,-0.8152 -0.22816,-1.13368c-0.15211,-0.31848 -0.36601,-0.56565 -0.64171,-0.74153c-0.27094,-0.18063 -0.59417,-0.27094 -0.96969,-0.27094c-0.36126,0 -0.67736,0.09031 -0.9483,0.27094c-0.26619,0.17587 -0.47534,0.42305 -0.62744,0.74153c-0.15211,0.31848 -0.22816,0.69637 -0.22816,1.13368c0,0.43256 0.07605,0.81045 0.22816,1.13368c0.15211,0.31848 0.36126,0.56327 0.62744,0.7344c0.27094,0.17112 0.58704,0.25668 0.9483,0.25668zM215.5837,175.21573v-8.07835h2.31727l0.10695,2.63099l-0.45632,-0.4991c0.11883,-0.43731 0.31848,-0.82709 0.59892,-1.16933c0.28045,-0.347 0.60605,-0.62031 0.97682,-0.81996c0.37552,-0.20439 0.77718,-0.30659 1.20498,-0.30659c0.18063,0 0.34937,0.01664 0.50623,0.04991c0.15686,0.02852 0.30184,0.06179 0.43493,0.09982l-0.67023,2.69516c-0.10933,-0.0713 -0.25906,-0.12834 -0.44919,-0.17112c-0.18538,-0.04753 -0.38027,-0.0713 -0.58466,-0.0713c-0.22341,0 -0.43256,0.03803 -0.62744,0.11408c-0.19013,0.07605 -0.35175,0.18538 -0.48484,0.32798c-0.12834,0.13785 -0.23054,0.30421 -0.30659,0.4991c-0.07605,0.19013 -0.11408,0.40879 -0.11408,0.65597v4.04274zM223.47796,175.21573v-10.11042h2.43848v10.11042zM222.05195,169.26927v-2.13189h5.42597v2.13189zM229.00328,175.21573v-8.07835h2.43135v8.07835zM230.21539,165.54025c-0.45632,0 -0.81283,-0.10695 -1.06951,-0.32085c-0.25668,-0.21865 -0.38502,-0.53238 -0.38502,-0.94117c0,-0.36126 0.13072,-0.65834 0.39215,-0.89126c0.26143,-0.23767 0.61556,-0.3565 1.06238,-0.3565c0.45632,0 0.81045,0.10933 1.06238,0.32798c0.25668,0.21865 0.38502,0.52525 0.38502,0.91978c0,0.37552 -0.13072,0.67973 -0.39215,0.91265c-0.25668,0.23291 -0.60843,0.34937 -1.05525,0.34937zM233.71215,175.21573v-8.07835h2.31727l0.0713,1.64704l-0.48484,0.17825c0.11408,-0.36126 0.31372,-0.69162 0.59892,-0.99108c0.28995,-0.29946 0.63695,-0.53951 1.04099,-0.72014c0.40879,-0.18538 0.83659,-0.27807 1.28341,-0.27807c0.60843,0 1.11942,0.12359 1.53296,0.37076c0.41354,0.24717 0.72727,0.61794 0.94117,1.11229c0.2139,0.4896 0.32085,1.0909 0.32085,1.8039v4.95539h-2.44561v-4.76288c0,-0.32323 -0.04753,-0.58942 -0.1426,-0.79857c-0.09031,-0.2139 -0.23054,-0.37314 -0.42067,-0.47771c-0.18538,-0.10933 -0.41354,-0.15924 -0.68449,-0.14973c-0.2139,0 -0.41354,0.03327 -0.59892,0.09982c-0.18063,0.06655 -0.33749,0.16399 -0.47058,0.29233c-0.12834,0.12359 -0.23054,0.26619 -0.30659,0.4278c-0.07605,0.16161 -0.11408,0.33987 -0.11408,0.53475v4.83418h-1.20498c-0.2852,0 -0.53,0 -0.7344,0c-0.19964,0 -0.36601,0 -0.4991,0zM247.06996,178.71659c-0.66072,0 -1.31906,-0.09744 -1.97503,-0.29233c-0.65121,-0.19013 -1.17884,-0.43731 -1.58287,-0.74153l0.84848,-1.70408c0.2139,0.1426 0.44919,0.26619 0.70588,0.37076c0.26143,0.10457 0.53238,0.18776 0.81283,0.24955c0.2852,0.06179 0.57516,0.09269 0.86987,0.09269c0.51812,0 0.93879,-0.07605 1.26202,-0.22816c0.32323,-0.15211 0.56565,-0.38265 0.72727,-0.69162c0.16637,-0.30897 0.24955,-0.69637 0.24955,-1.1622v-1.35471l0.47058,0.07843c-0.0713,0.33274 -0.24717,0.63695 -0.52762,0.91265c-0.28045,0.27094 -0.62269,0.4896 -1.02673,0.65597c-0.40404,0.16637 -0.83422,0.24955 -1.29054,0.24955c-0.73202,0 -1.38561,-0.16874 -1.96077,-0.50623c-0.5704,-0.33749 -1.0196,-0.80807 -1.34758,-1.41175c-0.32798,-0.60368 -0.49197,-1.30242 -0.49197,-2.09624c0,-0.80807 0.16161,-1.52345 0.48484,-2.14615c0.32323,-0.62744 0.76767,-1.11942 1.33332,-1.47592c0.5704,-0.36126 1.20973,-0.54188 1.91799,-0.54188c0.30421,0 0.59655,0.03565 0.877,0.10695c0.28045,0.0713 0.53951,0.16637 0.77718,0.2852c0.23767,0.11408 0.44919,0.24955 0.63457,0.40641c0.19013,0.15686 0.34224,0.32798 0.45632,0.51336c0.11883,0.18063 0.19726,0.36601 0.23529,0.55614l-0.4991,0.12121l0.09269,-1.82529h2.31014v7.42239c0,0.66072 -0.09982,1.24538 -0.29946,1.75399c-0.19489,0.51336 -0.48247,0.95067 -0.86274,1.31193c-0.38027,0.36126 -0.83897,0.6322 -1.3761,0.81283c-0.53713,0.18538 -1.14556,0.27807 -1.82529,0.27807zM247.127,173.26923c0.39453,0 0.73677,-0.08794 1.02673,-0.26381c0.28995,-0.18063 0.51336,-0.4278 0.67023,-0.74153c0.15686,-0.31372 0.23529,-0.68449 0.23529,-1.11229c0,-0.42305 -0.07843,-0.79381 -0.23529,-1.11229c-0.15686,-0.31848 -0.38027,-0.56565 -0.67023,-0.74153c-0.28995,-0.18063 -0.6322,-0.27094 -1.02673,-0.27094c-0.38502,0 -0.72014,0.09031 -1.00534,0.27094c-0.28045,0.17587 -0.4991,0.42305 -0.65597,0.74153c-0.15686,0.31848 -0.23529,0.68924 -0.23529,1.11229c0,0.4278 0.07843,0.79857 0.23529,1.11229c0.15686,0.31372 0.37552,0.5609 0.65597,0.74153c0.2852,0.17587 0.62031,0.26381 1.00534,0.26381zM261.1699,175.37972c-0.59892,0 -1.10991,-0.12834 -1.53296,-0.38502c-0.4183,-0.25668 -0.74153,-0.62744 -0.96969,-1.11229c-0.22816,-0.4896 -0.34224,-1.07426 -0.34224,-1.75399v-4.99104h2.44561v4.65593c0,0.32323 0.04991,0.6013 0.14973,0.83422c0.10457,0.23291 0.25668,0.41354 0.45632,0.54188c0.20439,0.12834 0.44919,0.19251 0.7344,0.19251c0.2139,0 0.40879,-0.03565 0.58466,-0.10695c0.17587,-0.0713 0.32798,-0.16874 0.45632,-0.29233c0.12834,-0.12834 0.22578,-0.27569 0.29233,-0.44206c0.0713,-0.17112 0.10695,-0.3565 0.10695,-0.55614v-4.82705h2.45274v8.07835h-2.29588l-0.10695,-1.65417l0.45632,-0.18538c-0.12359,0.38502 -0.32798,0.72727 -0.61318,1.02673c-0.28045,0.29946 -0.62031,0.53713 -1.0196,0.71301c-0.39453,0.17587 -0.81283,0.26381 -1.25489,0.26381zM270.89803,175.36546c-0.78906,0 -1.48543,-0.12596 -2.08911,-0.37789c-0.60368,-0.25193 -1.08377,-0.59179 -1.44027,-1.0196l1.47592,-1.27628c0.31372,0.31372 0.66785,0.54426 1.06238,0.69162c0.39928,0.14735 0.7748,0.22103 1.12655,0.22103c0.1426,0 0.26856,-0.01426 0.37789,-0.04278c0.11408,-0.03327 0.20915,-0.07605 0.2852,-0.12834c0.07605,-0.05704 0.13309,-0.12359 0.17112,-0.19964c0.04278,-0.07605 0.06417,-0.16637 0.06417,-0.27094c0,-0.19964 -0.09031,-0.3565 -0.27094,-0.47058c-0.09031,-0.04753 -0.24242,-0.10695 -0.45632,-0.17825c-0.2139,-0.0713 -0.48722,-0.15448 -0.81996,-0.24955c-0.48009,-0.11883 -0.89601,-0.26143 -1.24776,-0.4278c-0.347,-0.17112 -0.6322,-0.36601 -0.85561,-0.58466c-0.19964,-0.2139 -0.3565,-0.44919 -0.47058,-0.70588c-0.10933,-0.26143 -0.16399,-0.55377 -0.16399,-0.877c0,-0.37552 0.08794,-0.71538 0.26381,-1.0196c0.17587,-0.30421 0.41354,-0.56803 0.71301,-0.79144c0.29946,-0.22341 0.64408,-0.39215 1.03386,-0.50623c0.39453,-0.11883 0.79857,-0.17825 1.21211,-0.17825c0.44682,0 0.87224,0.05229 1.27628,0.15686c0.40404,0.09982 0.78193,0.24004 1.13368,0.42067c0.35175,0.18063 0.6631,0.39928 0.93404,0.65597l-1.27628,1.42601c-0.18063,-0.17112 -0.38502,-0.32561 -0.61318,-0.46345c-0.22816,-0.13785 -0.46583,-0.24717 -0.71301,-0.32798c-0.24242,-0.08081 -0.46345,-0.12121 -0.6631,-0.12121c-0.15211,0 -0.28758,0.01426 -0.40641,0.04278c-0.11408,0.02377 -0.2139,0.06417 -0.29946,0.12121c-0.08081,0.05229 -0.1426,0.11646 -0.18538,0.19251c-0.03803,0.07605 -0.05704,0.16637 -0.05704,0.27094c0,0.09982 0.02852,0.19489 0.08556,0.2852c0.05704,0.09031 0.13547,0.16637 0.23529,0.22816c0.10457,0.06179 0.26619,0.13072 0.48484,0.20677c0.22341,0.07605 0.52762,0.16874 0.91265,0.27807c0.48009,0.13309 0.89126,0.28045 1.2335,0.44206c0.347,0.16161 0.62031,0.35413 0.81996,0.57753c0.16637,0.17587 0.28995,0.37789 0.37076,0.60605c0.08081,0.22816 0.12121,0.47296 0.12121,0.7344c0,0.51812 -0.14498,0.97682 -0.43493,1.3761c-0.28995,0.39928 -0.68924,0.71301 -1.19785,0.94117c-0.50386,0.22816 -1.08139,0.34224 -1.7326,0.34224zM275.84509,175.21573v-8.07835h2.43135v8.07835zM277.0572,165.54025c-0.45632,0 -0.81283,-0.10695 -1.06951,-0.32085c-0.25668,-0.21865 -0.38502,-0.53238 -0.38502,-0.94117c0,-0.36126 0.13072,-0.65834 0.39215,-0.89126c0.26143,-0.23767 0.61556,-0.3565 1.06238,-0.3565c0.45632,0 0.81045,0.10933 1.06238,0.32798c0.25668,0.21865 0.38502,0.52525 0.38502,0.91978c0,0.37552 -0.13072,0.67973 -0.39215,0.91265c-0.25668,0.23291 -0.60843,0.34937 -1.05525,0.34937zM280.55396,175.21573v-8.07835h2.31727l0.0713,1.64704l-0.48484,0.17825c0.11408,-0.36126 0.31372,-0.69162 0.59892,-0.99108c0.28995,-0.29946 0.63695,-0.53951 1.04099,-0.72014c0.40879,-0.18538 0.83659,-0.27807 1.28341,-0.27807c0.60843,0 1.11942,0.12359 1.53296,0.37076c0.41354,0.24717 0.72727,0.61794 0.94117,1.11229c0.2139,0.4896 0.32085,1.0909 0.32085,1.8039v4.95539h-2.44561v-4.76288c0,-0.32323 -0.04753,-0.58942 -0.1426,-0.79857c-0.09031,-0.2139 -0.23054,-0.37314 -0.42067,-0.47771c-0.18538,-0.10933 -0.41354,-0.15924 -0.68449,-0.14973c-0.2139,0 -0.41354,0.03327 -0.59892,0.09982c-0.18063,0.06655 -0.33749,0.16399 -0.47058,0.29233c-0.12834,0.12359 -0.23054,0.26619 -0.30659,0.4278c-0.07605,0.16161 -0.11408,0.33987 -0.11408,0.53475v4.83418h-1.20498c-0.2852,0 -0.53,0 -0.7344,0c-0.19964,0 -0.36601,0 -0.4991,0zM293.91176,178.71659c-0.66072,0 -1.31906,-0.09744 -1.97503,-0.29233c-0.65121,-0.19013 -1.17884,-0.43731 -1.58287,-0.74153l0.84848,-1.70408c0.2139,0.1426 0.44919,0.26619 0.70588,0.37076c0.26143,0.10457 0.53238,0.18776 0.81283,0.24955c0.2852,0.06179 0.57516,0.09269 0.86987,0.09269c0.51812,0 0.93879,-0.07605 1.26202,-0.22816c0.32323,-0.15211 0.56565,-0.38265 0.72727,-0.69162c0.16637,-0.30897 0.24955,-0.69637 0.24955,-1.1622v-1.35471l0.47058,0.07843c-0.0713,0.33274 -0.24717,0.63695 -0.52762,0.91265c-0.28045,0.27094 -0.62269,0.4896 -1.02673,0.65597c-0.40404,0.16637 -0.83422,0.24955 -1.29054,0.24955c-0.73202,0 -1.38561,-0.16874 -1.96077,-0.50623c-0.5704,-0.33749 -1.0196,-0.80807 -1.34758,-1.41175c-0.32798,-0.60368 -0.49197,-1.30242 -0.49197,-2.09624c0,-0.80807 0.16161,-1.52345 0.48484,-2.14615c0.32323,-0.62744 0.76767,-1.11942 1.33332,-1.47592c0.5704,-0.36126 1.20973,-0.54188 1.91799,-0.54188c0.30421,0 0.59655,0.03565 0.877,0.10695c0.28045,0.0713 0.53951,0.16637 0.77718,0.2852c0.23767,0.11408 0.44919,0.24955 0.63457,0.40641c0.19013,0.15686 0.34224,0.32798 0.45632,0.51336c0.11883,0.18063 0.19726,0.36601 0.23529,0.55614l-0.4991,0.12121l0.09269,-1.82529h2.31014v7.42239c0,0.66072 -0.09982,1.24538 -0.29946,1.75399c-0.19489,0.51336 -0.48247,0.95067 -0.86274,1.31193c-0.38027,0.36126 -0.83897,0.6322 -1.3761,0.81283c-0.53713,0.18538 -1.14556,0.27807 -1.82529,0.27807zM293.9688,173.26923c0.39453,0 0.73677,-0.08794 1.02673,-0.26381c0.28995,-0.18063 0.51336,-0.4278 0.67023,-0.74153c0.15686,-0.31372 0.23529,-0.68449 0.23529,-1.11229c0,-0.42305 -0.07843,-0.79381 -0.23529,-1.11229c-0.15686,-0.31848 -0.38027,-0.56565 -0.67023,-0.74153c-0.28995,-0.18063 -0.6322,-0.27094 -1.02673,-0.27094c-0.38502,0 -0.72014,0.09031 -1.00534,0.27094c-0.28045,0.17587 -0.4991,0.42305 -0.65597,0.74153c-0.15686,0.31848 -0.23529,0.68924 -0.23529,1.11229c0,0.4278 0.07843,0.79857 0.23529,1.11229c0.15686,0.31372 0.37552,0.5609 0.65597,0.74153c0.2852,0.17587 0.62031,0.26381 1.00534,0.26381zM305.92256,175.21573v-10.11042h2.43848v10.11042zM304.49655,169.26927v-2.13189h5.42597v2.13189zM311.30528,175.21573v-11.25123h2.38857v4.81992l-0.48484,0.17825c0.11408,-0.36126 0.31372,-0.69162 0.59892,-0.99108c0.28995,-0.29946 0.63695,-0.53951 1.04099,-0.72014c0.40879,-0.18538 0.83659,-0.27807 1.28341,-0.27807c0.60843,0 1.11942,0.12359 1.53296,0.37076c0.41354,0.24717 0.72727,0.61794 0.94117,1.11229c0.2139,0.4896 0.32085,1.0909 0.32085,1.8039v4.95539h-2.44561v-4.76288c0,-0.32323 -0.04753,-0.58942 -0.1426,-0.79857c-0.09031,-0.2139 -0.23054,-0.37314 -0.42067,-0.47771c-0.18538,-0.10933 -0.41354,-0.15924 -0.68449,-0.14973c-0.2139,0 -0.41354,0.03327 -0.59892,0.09982c-0.18063,0.06655 -0.33749,0.16399 -0.47058,0.29233c-0.12834,0.12359 -0.23054,0.26619 -0.30659,0.4278c-0.07605,0.16161 -0.11408,0.33987 -0.11408,0.53475v4.83418h-1.20498c-0.2852,0 -0.53,0 -0.7344,0c-0.19964,0 -0.36601,0 -0.4991,0zM324.81284,175.36546c-0.89363,0 -1.67081,-0.17825 -2.33153,-0.53475c-0.65597,-0.36126 -1.16695,-0.85323 -1.53296,-1.47592c-0.36126,-0.62269 -0.54188,-1.3357 -0.54188,-2.13902c0,-0.61794 0.09982,-1.18597 0.29946,-1.70408c0.20439,-0.51812 0.48722,-0.96731 0.84848,-1.34758c0.36601,-0.38027 0.80094,-0.6726 1.3048,-0.877c0.50386,-0.20915 1.05287,-0.31372 1.64704,-0.31372c0.5704,0 1.0909,0.1022 1.56148,0.30659c0.47058,0.19964 0.877,0.48247 1.21924,0.84848c0.347,0.36601 0.61081,0.79857 0.79144,1.29767c0.18538,0.49435 0.26856,1.03624 0.24955,1.62565l-0.01426,0.64884h-6.43844l-0.34937,-1.36897h4.80566l-0.25668,0.29233v-0.30659c-0.01901,-0.25193 -0.09744,-0.47534 -0.23529,-0.67023c-0.13785,-0.19964 -0.31848,-0.35413 -0.54188,-0.46345c-0.22341,-0.11408 -0.47534,-0.17112 -0.75579,-0.17112c-0.39453,0 -0.73202,0.07843 -1.01247,0.23529c-0.28045,0.15686 -0.49197,0.38502 -0.63457,0.68449c-0.1426,0.29946 -0.2139,0.66547 -0.2139,1.09803c0,0.44682 0.09269,0.83659 0.27807,1.16933c0.19013,0.32798 0.46583,0.58466 0.82709,0.77005c0.36126,0.18063 0.78906,0.27094 1.28341,0.27094c0.347,0 0.65359,-0.04991 0.91978,-0.14973c0.27094,-0.10457 0.56327,-0.27807 0.877,-0.52049l1.14081,1.61139c-0.31372,0.27569 -0.64884,0.4991 -1.00534,0.67023c-0.35175,0.17112 -0.71301,0.29946 -1.08377,0.38502c-0.37076,0.08556 -0.73915,0.12834 -1.10516,0.12834z" fill="#000000" stroke="none" stroke-width="1" stroke-linecap="square"/><path d="M181.49183,193.46868v-10.64517h4.59176c0.67023,0 1.2644,0.15211 1.78251,0.45632c0.52287,0.30421 0.93879,0.72014 1.24776,1.24776c0.30897,0.52762 0.46345,1.11942 0.46345,1.77538c0,0.68924 -0.15448,1.30718 -0.46345,1.85381c-0.30897,0.54188 -0.72489,0.96969 -1.24776,1.28341c-0.51812,0.31372 -1.11229,0.47058 -1.78251,0.47058h-2.01068v3.5579zM184.03013,187.64342h1.68982c0.22341,0 0.42543,-0.05466 0.60605,-0.16399c0.18063,-0.11408 0.32561,-0.26619 0.43493,-0.45632c0.11408,-0.19489 0.17112,-0.4183 0.17112,-0.67023c0,-0.26619 -0.05704,-0.4896 -0.17112,-0.67023c-0.10933,-0.18063 -0.2543,-0.32085 -0.43493,-0.42067c-0.18063,-0.10457 -0.38265,-0.15686 -0.60605,-0.15686h-1.68982zM191.43856,193.46868v-8.07835h2.43135v8.07835zM192.65067,183.79319c-0.45632,0 -0.81283,-0.10695 -1.06951,-0.32085c-0.25668,-0.21865 -0.38502,-0.53238 -0.38502,-0.94117c0,-0.36126 0.13072,-0.65834 0.39215,-0.89126c0.26143,-0.23767 0.61556,-0.3565 1.06238,-0.3565c0.45632,0 0.81045,0.10933 1.06238,0.32798c0.25668,0.21865 0.38502,0.52525 0.38502,0.91978c0,0.37552 -0.13072,0.67973 -0.39215,0.91265c-0.25668,0.23291 -0.60843,0.34937 -1.05525,0.34937zM203.7378,193.61841c-0.78906,0 -1.48543,-0.12596 -2.08911,-0.37789c-0.60368,-0.25193 -1.08377,-0.59179 -1.44027,-1.0196l1.47592,-1.27628c0.31372,0.31372 0.66785,0.54426 1.06238,0.69162c0.39928,0.14735 0.7748,0.22103 1.12655,0.22103c0.1426,0 0.26856,-0.01426 0.37789,-0.04278c0.11408,-0.03327 0.20915,-0.07605 0.2852,-0.12834c0.07605,-0.05704 0.13309,-0.12359 0.17112,-0.19964c0.04278,-0.07605 0.06417,-0.16637 0.06417,-0.27094c0,-0.19964 -0.09031,-0.3565 -0.27094,-0.47058c-0.09031,-0.04753 -0.24242,-0.10695 -0.45632,-0.17825c-0.2139,-0.0713 -0.48722,-0.15448 -0.81996,-0.24955c-0.48009,-0.11883 -0.89601,-0.26143 -1.24776,-0.4278c-0.347,-0.17112 -0.6322,-0.36601 -0.85561,-0.58466c-0.19964,-0.2139 -0.3565,-0.44919 -0.47058,-0.70588c-0.10933,-0.26143 -0.16399,-0.55377 -0.16399,-0.877c0,-0.37552 0.08794,-0.71538 0.26381,-1.0196c0.17587,-0.30421 0.41354,-0.56803 0.71301,-0.79144c0.29946,-0.22341 0.64408,-0.39215 1.03386,-0.50623c0.39453,-0.11883 0.79857,-0.17825 1.21211,-0.17825c0.44682,0 0.87224,0.05229 1.27628,0.15686c0.40404,0.09982 0.78193,0.24004 1.13368,0.42067c0.35175,0.18063 0.6631,0.39928 0.93404,0.65597l-1.27628,1.42601c-0.18063,-0.17112 -0.38502,-0.32561 -0.61318,-0.46345c-0.22816,-0.13785 -0.46583,-0.24717 -0.71301,-0.32798c-0.24242,-0.08081 -0.46345,-0.12121 -0.6631,-0.12121c-0.15211,0 -0.28758,0.01426 -0.40641,0.04278c-0.11408,0.02377 -0.2139,0.06417 -0.29946,0.12121c-0.08081,0.05229 -0.1426,0.11646 -0.18538,0.19251c-0.03803,0.07605 -0.05704,0.16637 -0.05704,0.27094c0,0.09982 0.02852,0.19489 0.08556,0.2852c0.05704,0.09031 0.13547,0.16637 0.23529,0.22816c0.10457,0.06179 0.26619,0.13072 0.48484,0.20677c0.22341,0.07605 0.52762,0.16874 0.91265,0.27807c0.48009,0.13309 0.89126,0.28045 1.2335,0.44206c0.347,0.16161 0.62031,0.35413 0.81996,0.57753c0.16637,0.17587 0.28995,0.37789 0.37076,0.60605c0.08081,0.22816 0.12121,0.47296 0.12121,0.7344c0,0.51812 -0.14498,0.97682 -0.43493,1.3761c-0.28995,0.39928 -0.68924,0.71301 -1.19785,0.94117c-0.50386,0.22816 -1.08139,0.34224 -1.7326,0.34224zM209.56185,196.96953l1.83955,-4.33507l0.03565,1.24776l-3.89301,-8.4919h2.7522l1.70408,4.06413c0.09031,0.20439 0.17587,0.42305 0.25668,0.65597c0.08081,0.23291 0.14022,0.45395 0.17825,0.6631l-0.32798,0.19964c0.05704,-0.15211 0.12359,-0.34224 0.19964,-0.5704c0.07605,-0.22816 0.16161,-0.47296 0.25668,-0.7344l1.49018,-4.27803h2.76646l-3.43669,8.07835l-1.40462,3.50086zM217.95719,193.46868v-8.07835h2.31727l0.0713,1.46166l-0.32085,0.01426c0.12359,-0.26143 0.27807,-0.49197 0.46345,-0.69162c0.19013,-0.20439 0.40404,-0.37552 0.64171,-0.51336c0.23767,-0.13785 0.48484,-0.24242 0.74153,-0.31372c0.26143,-0.0713 0.52287,-0.10695 0.78431,-0.10695c0.39928,0 0.76054,0.06179 1.08377,0.18538c0.32323,0.11883 0.60605,0.31372 0.84848,0.58466c0.24242,0.26619 0.43493,0.62744 0.57753,1.08377l-0.37789,-0.02852l0.12121,-0.24242c0.13309,-0.24242 0.30184,-0.46108 0.50623,-0.65597c0.20915,-0.19964 0.43969,-0.36839 0.69162,-0.50623c0.25668,-0.13785 0.52049,-0.24242 0.79144,-0.31372c0.27569,-0.0713 0.53951,-0.10695 0.79144,-0.10695c0.64171,0 1.17408,0.12596 1.59713,0.37789c0.4278,0.24717 0.75103,0.62031 0.96969,1.11942c0.21865,0.49435 0.32798,1.09565 0.32798,1.8039v4.92687h-2.45274v-4.72723c0,-0.32798 -0.04516,-0.59655 -0.13547,-0.8057c-0.09031,-0.2139 -0.22578,-0.37314 -0.40641,-0.47771c-0.17587,-0.10933 -0.39453,-0.16399 -0.65597,-0.16399c-0.2139,0 -0.41117,0.03565 -0.59179,0.10695c-0.17587,0.0713 -0.32798,0.16874 -0.45632,0.29233c-0.12359,0.11883 -0.22103,0.25906 -0.29233,0.42067c-0.0713,0.16161 -0.10695,0.34462 -0.10695,0.54901v4.80566h-2.44561v-4.74149c0,-0.30421 -0.04753,-0.56327 -0.1426,-0.77718c-0.09031,-0.2139 -0.22578,-0.37552 -0.40641,-0.48484c-0.18063,-0.11408 -0.39453,-0.17112 -0.64171,-0.17112c-0.20915,0 -0.40404,0.03565 -0.58466,0.10695c-0.17587,0.0713 -0.32798,0.16874 -0.45632,0.29233c-0.12359,0.11883 -0.22103,0.25906 -0.29233,0.42067c-0.0713,0.16161 -0.10695,0.33987 -0.10695,0.53475v4.81992zM237.45747,193.63267c-0.36601,0 -0.71776,-0.04991 -1.05525,-0.14973c-0.33274,-0.09982 -0.63457,-0.23529 -0.90552,-0.40641c-0.26619,-0.17587 -0.48722,-0.37789 -0.6631,-0.60605c-0.17587,-0.22816 -0.29471,-0.46345 -0.3565,-0.70588l0.52762,-0.17825l-0.13547,1.86807h-2.26736v-11.23697h2.45274v5.10512l-0.50623,-0.17825c0.06179,-0.26619 0.17825,-0.51336 0.34937,-0.74153c0.17587,-0.22816 0.39453,-0.43018 0.65597,-0.60605c0.26619,-0.17587 0.55614,-0.31372 0.86987,-0.41354c0.31372,-0.10457 0.63695,-0.15686 0.96969,-0.15686c0.7035,0 1.32619,0.18063 1.86807,0.54188c0.54188,0.3565 0.96969,0.85323 1.28341,1.49018c0.31372,0.6322 0.47058,1.35471 0.47058,2.16754c0,0.81758 -0.15448,1.54484 -0.46345,2.1818c-0.30897,0.6322 -0.73202,1.12893 -1.26915,1.49018c-0.53713,0.3565 -1.14556,0.53475 -1.82529,0.53475zM236.81577,191.58634c0.36601,0 0.68449,-0.09031 0.95543,-0.27094c0.27569,-0.18538 0.48722,-0.43731 0.63457,-0.75579c0.14735,-0.32323 0.22103,-0.70112 0.22103,-1.13368c0,-0.4278 -0.07368,-0.80332 -0.22103,-1.12655c-0.14735,-0.32323 -0.35888,-0.5704 -0.63457,-0.74153c-0.27094,-0.17587 -0.58942,-0.26381 -0.95543,-0.26381c-0.37552,0 -0.70112,0.08794 -0.97682,0.26381c-0.27094,0.17112 -0.48247,0.4183 -0.63457,0.74153c-0.15211,0.32323 -0.22816,0.69875 -0.22816,1.12655c0,0.43256 0.07605,0.81045 0.22816,1.13368c0.15211,0.31848 0.36363,0.5704 0.63457,0.75579c0.27569,0.18063 0.6013,0.27094 0.97682,0.27094zM246.41647,193.61841c-0.84135,0 -1.59,-0.18063 -2.24597,-0.54188c-0.65597,-0.36601 -1.17408,-0.86274 -1.55435,-1.49018c-0.37552,-0.6322 -0.56327,-1.35233 -0.56327,-2.16041c0,-0.81283 0.18776,-1.53296 0.56327,-2.16041c0.38027,-0.6322 0.89839,-1.12893 1.55435,-1.49018c0.65597,-0.36601 1.40462,-0.54901 2.24597,-0.54901c0.84135,0 1.58763,0.183 2.23884,0.54901c0.65597,0.36126 1.17171,0.85798 1.54722,1.49018c0.37552,0.62744 0.56327,1.34758 0.56327,2.16041c0,0.80807 -0.18776,1.52821 -0.56327,2.16041c-0.37552,0.62744 -0.89126,1.12417 -1.54722,1.49018c-0.65121,0.36126 -1.39749,0.54188 -2.23884,0.54188zM246.41647,191.52217c0.36126,0 0.68449,-0.09031 0.96969,-0.27094c0.2852,-0.18538 0.50861,-0.43493 0.67023,-0.74866c0.16161,-0.31372 0.23767,-0.6726 0.22816,-1.07664c0.00951,-0.40879 -0.06655,-0.77242 -0.22816,-1.0909c-0.16161,-0.31848 -0.38502,-0.56803 -0.67023,-0.74866c-0.2852,-0.18538 -0.60843,-0.27807 -0.96969,-0.27807c-0.36601,0 -0.69399,0.09269 -0.98395,0.27807c-0.28995,0.18063 -0.51574,0.43018 -0.67736,0.74866c-0.16161,0.31848 -0.23767,0.68211 -0.22816,1.0909c-0.00951,0.40404 0.06655,0.76292 0.22816,1.07664c0.16161,0.31372 0.3874,0.56327 0.67736,0.74866c0.28995,0.18063 0.61794,0.27094 0.98395,0.27094zM252.37898,193.46868v-11.25123h2.43135v11.25123zM262.35385,193.46868v-8.47051c0,-0.52762 0.11408,-1.00296 0.34224,-1.42601c0.22816,-0.4278 0.54664,-0.76529 0.95543,-1.01247c0.41354,-0.25193 0.89363,-0.37789 1.44027,-0.37789c0.38502,0 0.73915,0.05704 1.06238,0.17112c0.32323,0.10933 0.61318,0.26619 0.86987,0.47058l-0.69875,1.77538c-0.13309,-0.06655 -0.26143,-0.12121 -0.38502,-0.16399c-0.11883,-0.04278 -0.23054,-0.06417 -0.33511,-0.06417c-0.18063,0 -0.33274,0.0309 -0.45632,0.09269c-0.11883,0.06179 -0.20677,0.15686 -0.26381,0.2852c-0.05704,0.12359 -0.08556,0.27807 -0.08556,0.46345v8.25661h-1.21211c-0.27569,0 -0.51812,0 -0.72727,0c-0.20439,0 -0.37314,0 -0.50623,0zM261.18452,187.62916v-2.01068h5.27624v2.01068zM267.9652,193.46868v-8.07835h2.43135v8.07835zM269.17731,183.79319c-0.45632,0 -0.81283,-0.10695 -1.06951,-0.32085c-0.25668,-0.21865 -0.38502,-0.53238 -0.38502,-0.94117c0,-0.36126 0.13072,-0.65834 0.39215,-0.89126c0.26143,-0.23767 0.61556,-0.3565 1.06238,-0.3565c0.45632,0 0.81045,0.10933 1.06238,0.32798c0.25668,0.21865 0.38502,0.52525 0.38502,0.91978c0,0.37552 -0.13072,0.67973 -0.39215,0.91265c-0.25668,0.23291 -0.60843,0.34937 -1.05525,0.34937zM272.676,193.46868v-8.07835h2.31727l0.10695,2.63099l-0.45632,-0.4991c0.11883,-0.43731 0.31848,-0.82709 0.59892,-1.16933c0.28045,-0.347 0.60605,-0.62031 0.97682,-0.81996c0.37552,-0.20439 0.77718,-0.30659 1.20498,-0.30659c0.18063,0 0.34937,0.01664 0.50623,0.04991c0.15686,0.02852 0.30184,0.06179 0.43493,0.09982l-0.67023,2.69516c-0.10933,-0.0713 -0.25906,-0.12834 -0.44919,-0.17112c-0.18538,-0.04753 -0.38027,-0.0713 -0.58466,-0.0713c-0.22341,0 -0.43256,0.03803 -0.62744,0.11408c-0.19013,0.07605 -0.35175,0.18538 -0.48484,0.32798c-0.12834,0.13785 -0.23054,0.30421 -0.30659,0.4991c-0.07605,0.19013 -0.11408,0.40879 -0.11408,0.65597v4.04274zM282.31948,193.61841c-0.78906,0 -1.48543,-0.12596 -2.08911,-0.37789c-0.60368,-0.25193 -1.08377,-0.59179 -1.44027,-1.0196l1.47592,-1.27628c0.31372,0.31372 0.66785,0.54426 1.06238,0.69162c0.39928,0.14735 0.7748,0.22103 1.12655,0.22103c0.1426,0 0.26856,-0.01426 0.37789,-0.04278c0.11408,-0.03327 0.20915,-0.07605 0.2852,-0.12834c0.07605,-0.05704 0.13309,-0.12359 0.17112,-0.19964c0.04278,-0.07605 0.06417,-0.16637 0.06417,-0.27094c0,-0.19964 -0.09031,-0.3565 -0.27094,-0.47058c-0.09031,-0.04753 -0.24242,-0.10695 -0.45632,-0.17825c-0.2139,-0.0713 -0.48722,-0.15448 -0.81996,-0.24955c-0.48009,-0.11883 -0.89601,-0.26143 -1.24776,-0.4278c-0.347,-0.17112 -0.6322,-0.36601 -0.85561,-0.58466c-0.19964,-0.2139 -0.3565,-0.44919 -0.47058,-0.70588c-0.10933,-0.26143 -0.16399,-0.55377 -0.16399,-0.877c0,-0.37552 0.08794,-0.71538 0.26381,-1.0196c0.17587,-0.30421 0.41354,-0.56803 0.71301,-0.79144c0.29946,-0.22341 0.64408,-0.39215 1.03386,-0.50623c0.39453,-0.11883 0.79857,-0.17825 1.21211,-0.17825c0.44682,0 0.87224,0.05229 1.27628,0.15686c0.40404,0.09982 0.78193,0.24004 1.13368,0.42067c0.35175,0.18063 0.6631,0.39928 0.93404,0.65597l-1.27628,1.42601c-0.18063,-0.17112 -0.38502,-0.32561 -0.61318,-0.46345c-0.22816,-0.13785 -0.46583,-0.24717 -0.71301,-0.32798c-0.24242,-0.08081 -0.46345,-0.12121 -0.6631,-0.12121c-0.15211,0 -0.28758,0.01426 -0.40641,0.04278c-0.11408,0.02377 -0.2139,0.06417 -0.29946,0.12121c-0.08081,0.05229 -0.1426,0.11646 -0.18538,0.19251c-0.03803,0.07605 -0.05704,0.16637 -0.05704,0.27094c0,0.09982 0.02852,0.19489 0.08556,0.2852c0.05704,0.09031 0.13547,0.16637 0.23529,0.22816c0.10457,0.06179 0.26619,0.13072 0.48484,0.20677c0.22341,0.07605 0.52762,0.16874 0.91265,0.27807c0.48009,0.13309 0.89126,0.28045 1.2335,0.44206c0.347,0.16161 0.62031,0.35413 0.81996,0.57753c0.16637,0.17587 0.28995,0.37789 0.37076,0.60605c0.08081,0.22816 0.12121,0.47296 0.12121,0.7344c0,0.51812 -0.14498,0.97682 -0.43493,1.3761c-0.28995,0.39928 -0.68924,0.71301 -1.19785,0.94117c-0.50386,0.22816 -1.08139,0.34224 -1.7326,0.34224zM287.79417,193.46868v-10.11042h2.43848v10.11042zM286.36816,187.52221v-2.13189h5.42597v2.13189zM295.06635,189.81809l-0.48484,-1.98929c0.29471,-0.0713 0.57278,-0.15448 0.83422,-0.24955c0.26143,-0.09982 0.50386,-0.20439 0.72727,-0.31372c0.22341,-0.11408 0.41354,-0.2448 0.5704,-0.39215c0.15686,-0.14735 0.28045,-0.30897 0.37076,-0.48484c0.09507,-0.17587 0.1426,-0.36601 0.1426,-0.5704c0,-0.20439 -0.05229,-0.37789 -0.15686,-0.52049c-0.09982,-0.14735 -0.23529,-0.26143 -0.40641,-0.34224c-0.17112,-0.08556 -0.37314,-0.12834 -0.60605,-0.12834c-0.33749,0 -0.67498,0.12121 -1.01247,0.36363c-0.33274,0.23767 -0.63933,0.62031 -0.91978,1.14794l-1.6613,-1.54009c0.45632,-0.69875 1.00059,-1.24063 1.63278,-1.62565c0.63695,-0.38502 1.30005,-0.57753 1.98929,-0.57753c0.67023,0 1.2739,0.13547 1.81103,0.40641c0.53713,0.26619 0.96256,0.63457 1.27628,1.10516c0.31372,0.47058 0.47058,1.00059 0.47058,1.59c0,0.37552 -0.07843,0.74628 -0.23529,1.11229c-0.15686,0.36601 -0.37552,0.70825 -0.65597,1.02673c-0.27569,0.31848 -0.6013,0.59892 -0.97682,0.84135c-0.37552,0.24242 -0.79144,0.43018 -1.24776,0.56327l-0.15686,0.57753zM294.51734,192.28509c0,-0.40879 0.12121,-0.73915 0.36363,-0.99108c0.24717,-0.25193 0.56327,-0.37789 0.9483,-0.37789c0.41354,0 0.73677,0.11883 0.96969,0.3565c0.23291,0.23767 0.34937,0.57516 0.34937,1.01247c0,0.39453 -0.12121,0.71776 -0.36363,0.96969c-0.24242,0.25193 -0.5609,0.37789 -0.95543,0.37789c-0.4183,0 -0.74153,-0.11646 -0.96969,-0.34937c-0.22816,-0.23291 -0.34224,-0.56565 -0.34224,-0.99821z" fill="#000000" stroke="none" stroke-width="1" stroke-linecap="square"/></g></g></svg>