<svg version="1.1" xmlns="http://www.w3.org/2000/svg" xmlns:xlink="http://www.w3.org/1999/xlink" width="220.64373" height="68.44616" viewBox="0,0,220.64373,68.44616"><g transform="translate(-129.67815,-145.77692)"><g data-paper-data="{&quot;isPaintingLayer&quot;:true}" fill-rule="nonzero" stroke-linejoin="miter" stroke-miterlimit="10" stroke-dasharray="" stroke-dashoffset="0" style="mix-blend-mode: normal"><path d="M131.67815,195.2399c0,-10.52718 0,-23.20461 0,-29.5c0,-13.88468 8.9101,-17.96298 18.24169,-17.96298c24.95954,0 139.93786,0 182.5,0c9.91655,0 15.90204,6.63307 15.90204,14.96298c0,9.84685 -0.15881,22.06679 0,28.5c0.5,20.25382 -6.18622,20.98318 -16.40204,20.98318c-43.08585,0 -157.8496,0 -182.5,0c-9.10768,0 -17.74169,-1.14575 -17.74169,-16.98318z" fill="#c6c6c6" stroke="#000000" stroke-width="4" stroke-linecap="butt"/><path d="M152.1392,187.99779l7.75642,-19.60666h4.03591l7.70491,19.60666h-4.8212l-3.69475,-9.94494c-0.15019,-0.3905 -0.30039,-0.8089 -0.45058,-1.25519c-0.15019,-0.45058 -0.30039,-0.91403 -0.45058,-1.39036c-0.1459,-0.47633 -0.28966,-0.94193 -0.43127,-1.3968c-0.14161,-0.45916 -0.25748,-0.88614 -0.34759,-1.28093l0.83679,-0.02575c-0.11157,0.46775 -0.23816,0.92691 -0.37977,1.37749c-0.13732,0.44629 -0.27678,0.88829 -0.4184,1.32599c-0.14161,0.43771 -0.2961,0.87756 -0.46345,1.31956c-0.16736,0.43771 -0.32614,0.88829 -0.47633,1.35174l-3.69476,9.91919zM155.83395,184.24511l1.48691,-3.58533h9.01804l1.45473,3.58533zM179.56183,188.28102c-1.43756,0 -2.72708,-0.33686 -3.86855,-1.01059c-1.13718,-0.67372 -2.03834,-1.59419 -2.70348,-2.76141c-0.66085,-1.16722 -0.99127,-2.48892 -0.99127,-3.9651c0,-1.47189 0.33043,-2.79145 0.99127,-3.95867c0.66514,-1.16722 1.5663,-2.08769 2.70348,-2.76141c1.14147,-0.67372 2.43099,-1.01059 3.86855,-1.01059c1.32599,0 2.54471,0.23388 3.65613,0.70162c1.11143,0.46775 1.99328,1.12216 2.64555,1.96324l-2.43313,2.90946c-0.26176,-0.2961 -0.57073,-0.57503 -0.92691,-0.83679c-0.35617,-0.26176 -0.74882,-0.46775 -1.17794,-0.61794c-0.42912,-0.15019 -0.87756,-0.22529 -1.3453,-0.22529c-0.70805,0 -1.33458,0.16307 -1.87956,0.4892c-0.54069,0.32614 -0.96124,0.77886 -1.26163,1.35817c-0.2961,0.57932 -0.44414,1.24232 -0.44414,1.98899c0,0.71234 0.15448,1.35818 0.46345,1.93749c0.30897,0.57932 0.7338,1.03633 1.2745,1.37105c0.54069,0.33472 1.15649,0.50208 1.84738,0.50208c0.48491,0 0.93335,-0.06008 1.3453,-0.18023c0.41196,-0.12015 0.78959,-0.30038 1.13289,-0.54069c0.34759,-0.2446 0.67158,-0.54499 0.97196,-0.90116l2.40739,2.94164c-0.6351,0.80246 -1.5191,1.43756 -2.65199,1.90531c-1.12859,0.46775 -2.33658,0.70162 -3.62395,0.70162zM194.82903,188.28102c-1.43756,0 -2.72708,-0.33686 -3.86855,-1.01059c-1.13718,-0.67372 -2.03834,-1.59419 -2.70348,-2.76141c-0.66085,-1.16722 -0.99127,-2.48892 -0.99127,-3.9651c0,-1.47189 0.33043,-2.79145 0.99127,-3.95867c0.66514,-1.16722 1.5663,-2.08769 2.70348,-2.76141c1.14147,-0.67372 2.43099,-1.01059 3.86855,-1.01059c1.32599,0 2.54471,0.23388 3.65613,0.70162c1.11143,0.46775 1.99328,1.12216 2.64555,1.96324l-2.43313,2.90946c-0.26176,-0.2961 -0.57073,-0.57503 -0.9269,-0.83679c-0.35617,-0.26176 -0.74882,-0.46775 -1.17794,-0.61794c-0.42912,-0.15019 -0.87756,-0.22529 -1.3453,-0.22529c-0.70805,0 -1.33458,0.16307 -1.87956,0.4892c-0.54069,0.32614 -0.96124,0.77886 -1.26163,1.35817c-0.2961,0.57932 -0.44414,1.24232 -0.44414,1.98899c0,0.71234 0.15448,1.35818 0.46345,1.93749c0.30897,0.57932 0.7338,1.03633 1.2745,1.37105c0.54069,0.33472 1.15649,0.50208 1.84738,0.50208c0.48491,0 0.93335,-0.06008 1.3453,-0.18023c0.41196,-0.12015 0.78959,-0.30038 1.13289,-0.54069c0.34759,-0.2446 0.67158,-0.54499 0.97196,-0.90116l2.40739,2.94164c-0.6351,0.80246 -1.5191,1.43756 -2.65199,1.90531c-1.12859,0.46775 -2.33658,0.70162 -3.62395,0.70162zM210.65627,188.28102c-1.64354,0 -3.07253,-0.33043 -4.28695,-0.99127c-1.21442,-0.66514 -2.15849,-1.57274 -2.83221,-2.72279c-0.66943,-1.15005 -1.00415,-2.46317 -1.00415,-3.93936c0,-1.13718 0.18667,-2.18209 0.56001,-3.13475c0.37334,-0.95266 0.89472,-1.77872 1.56415,-2.47819c0.67372,-0.69947 1.47189,-1.24016 2.39451,-1.62208c0.92691,-0.38621 1.94178,-0.57932 3.04463,-0.57932c1.04706,0 2.00401,0.18667 2.87084,0.56001c0.86683,0.37334 1.6178,0.89687 2.2529,1.57059c0.6351,0.67372 1.12001,1.4676 1.45473,2.38164c0.33901,0.91403 0.4892,1.91389 0.45058,2.99957l-0.02575,1.20369h-11.85025l-0.64369,-2.52325h8.85068l-0.47633,0.53426v-0.56001c-0.03433,-0.46775 -0.17809,-0.884 -0.43127,-1.24875c-0.25318,-0.36475 -0.58575,-0.65012 -0.99771,-0.8561c-0.40767,-0.20598 -0.87326,-0.30897 -1.3968,-0.30897c-0.72951,0 -1.35175,0.1459 -1.86669,0.43771c-0.51066,0.28751 -0.89687,0.70805 -1.15863,1.26162c-0.26176,0.54928 -0.39265,1.22515 -0.39265,2.02761c0,0.82392 0.17165,1.54056 0.51495,2.14991c0.34759,0.60507 0.85181,1.07495 1.51266,1.40967c0.66514,0.33472 1.45473,0.50208 2.36876,0.50208c0.6351,0 1.1994,-0.09226 1.69289,-0.27678c0.49779,-0.18882 1.03633,-0.50637 1.61565,-0.95266l2.09842,2.96739c-0.57932,0.50636 -1.19725,0.91833 -1.85381,1.23588c-0.65227,0.31755 -1.31956,0.55571 -2.00187,0.71449c-0.67802,0.15878 -1.35389,0.23816 -2.02761,0.23816zM224.99933,188.28102c-1.45473,0 -2.73781,-0.23387 -3.84924,-0.70162c-1.11143,-0.46775 -1.99542,-1.09426 -2.65198,-1.87956l2.71635,-2.34945c0.57932,0.57503 1.23373,0.99986 1.96324,1.2745c0.72951,0.27035 1.4204,0.40552 2.07267,0.40552c0.26176,0 0.49564,-0.02789 0.70162,-0.08368c0.20598,-0.05578 0.37763,-0.13518 0.51495,-0.23817c0.14161,-0.10299 0.24889,-0.22529 0.32184,-0.3669c0.07724,-0.14161 0.11586,-0.30468 0.11586,-0.4892c0,-0.37334 -0.16735,-0.66299 -0.50207,-0.86898c-0.17165,-0.09441 -0.45273,-0.20598 -0.84323,-0.33472c-0.3905,-0.13303 -0.89472,-0.28322 -1.51266,-0.45058c-0.8797,-0.22314 -1.6414,-0.4892 -2.28509,-0.79817c-0.64369,-0.30897 -1.17151,-0.66729 -1.58347,-1.07496c-0.37334,-0.39479 -0.66299,-0.83035 -0.86898,-1.30668c-0.20169,-0.47633 -0.30253,-1.01273 -0.30253,-1.60921c0,-0.69089 0.16307,-1.31526 0.4892,-1.87312c0.32614,-0.56215 0.76384,-1.04921 1.31312,-1.46117c0.55357,-0.41196 1.18867,-0.72522 1.90531,-0.93978c0.72093,-0.21456 1.46331,-0.32184 2.22715,-0.32184c0.82392,0 1.60921,0.09441 2.35589,0.28323c0.74668,0.18452 1.44185,0.44628 2.08554,0.78529c0.64369,0.33472 1.21872,0.73595 1.72508,1.20369l-2.35589,2.63267c-0.33472,-0.31755 -0.71235,-0.60292 -1.13289,-0.8561c-0.42054,-0.25318 -0.8561,-0.45273 -1.30668,-0.59863c-0.44629,-0.15019 -0.8561,-0.22529 -1.22944,-0.22529c-0.27893,0 -0.52567,0.0236 -0.74024,0.0708c-0.21456,0.04291 -0.39694,0.11587 -0.54714,0.21886c-0.15019,0.10299 -0.26391,0.22529 -0.34115,0.3669c-0.07295,0.14161 -0.10943,0.30468 -0.10943,0.4892c0,0.18882 0.05149,0.3669 0.15448,0.53426c0.10299,0.16736 0.24889,0.30682 0.43771,0.4184c0.18452,0.11157 0.48277,0.23817 0.89472,0.37978c0.41196,0.13732 0.97197,0.30897 1.68002,0.51495c0.8797,0.2446 1.63496,0.5171 2.26577,0.81748c0.6351,0.2961 1.14147,0.65012 1.5191,1.06208c0.2961,0.31755 0.51924,0.6866 0.66944,1.10714c0.15019,0.42054 0.22529,0.87326 0.22529,1.35817c0,0.95266 -0.26606,1.79803 -0.79817,2.53612c-0.53211,0.73809 -1.26591,1.31741 -2.2014,1.73795c-0.9312,0.42054 -1.99542,0.63081 -3.19268,0.63081zM238.8659,188.28102c-1.45473,0 -2.73781,-0.23387 -3.84924,-0.70162c-1.11143,-0.46775 -1.99542,-1.09426 -2.65199,-1.87956l2.71635,-2.34945c0.57932,0.57503 1.23373,0.99986 1.96324,1.2745c0.72951,0.27035 1.4204,0.40552 2.07267,0.40552c0.26176,0 0.49564,-0.02789 0.70162,-0.08368c0.20598,-0.05578 0.37763,-0.13518 0.51495,-0.23817c0.14161,-0.10299 0.24889,-0.22529 0.32184,-0.3669c0.07724,-0.14161 0.11586,-0.30468 0.11586,-0.4892c0,-0.37334 -0.16735,-0.66299 -0.50207,-0.86898c-0.17165,-0.09441 -0.45273,-0.20598 -0.84323,-0.33472c-0.3905,-0.13303 -0.89472,-0.28322 -1.51266,-0.45058c-0.8797,-0.22314 -1.6414,-0.4892 -2.28509,-0.79817c-0.64369,-0.30897 -1.17151,-0.66729 -1.58347,-1.07496c-0.37334,-0.39479 -0.66299,-0.83035 -0.86898,-1.30668c-0.20169,-0.47633 -0.30253,-1.01273 -0.30253,-1.60921c0,-0.69089 0.16307,-1.31526 0.4892,-1.87312c0.32614,-0.56215 0.76384,-1.04921 1.31312,-1.46117c0.55357,-0.41196 1.18867,-0.72522 1.90531,-0.93978c0.72093,-0.21456 1.46331,-0.32184 2.22715,-0.32184c0.82392,0 1.60921,0.09441 2.35589,0.28323c0.74668,0.18452 1.44185,0.44628 2.08554,0.78529c0.64369,0.33472 1.21872,0.73595 1.72508,1.20369l-2.35589,2.63267c-0.33472,-0.31755 -0.71235,-0.60292 -1.13289,-0.8561c-0.42054,-0.25318 -0.8561,-0.45273 -1.30668,-0.59863c-0.44629,-0.15019 -0.8561,-0.22529 -1.22944,-0.22529c-0.27893,0 -0.52567,0.0236 -0.74024,0.0708c-0.21456,0.04291 -0.39694,0.11587 -0.54713,0.21886c-0.15019,0.10299 -0.26391,0.22529 -0.34115,0.3669c-0.07295,0.14161 -0.10943,0.30468 -0.10943,0.4892c0,0.18882 0.0515,0.3669 0.15448,0.53426c0.10299,0.16736 0.24889,0.30682 0.43771,0.4184c0.18452,0.11157 0.48276,0.23817 0.89472,0.37978c0.41196,0.13732 0.97197,0.30897 1.68002,0.51495c0.8797,0.2446 1.63496,0.5171 2.26578,0.81748c0.6351,0.2961 1.14147,0.65012 1.5191,1.06208c0.2961,0.31755 0.51924,0.6866 0.66944,1.10714c0.15019,0.42054 0.22529,0.87326 0.22529,1.35817c0,0.95266 -0.26606,1.79803 -0.79817,2.53612c-0.53211,0.73809 -1.26591,1.31741 -2.2014,1.73795c-0.9312,0.42054 -1.99543,0.63081 -3.19268,0.63081zM247.96916,187.99779v-14.87558h4.48005v14.87558zM250.20921,170.18057c-0.84108,0 -1.49979,-0.19954 -1.97612,-0.59862c-0.47204,-0.40338 -0.70805,-0.97841 -0.70805,-1.72508c0,-0.67372 0.24245,-1.22515 0.72736,-1.65427c0.48491,-0.42912 1.13718,-0.64369 1.95681,-0.64369c0.84108,0 1.49549,0.20169 1.96324,0.60507c0.46775,0.39908 0.70162,0.96338 0.70162,1.69289c0,0.69089 -0.23816,1.2509 -0.71449,1.68002c-0.47633,0.42912 -1.12645,0.64368 -1.95036,0.64368zM265.58871,188.30676c-0.66943,0 -1.31312,-0.09441 -1.93106,-0.28322c-0.61794,-0.18452 -1.17365,-0.43556 -1.66714,-0.75311c-0.49349,-0.31755 -0.90545,-0.6866 -1.23588,-1.10714c-0.32614,-0.42054 -0.54499,-0.85396 -0.65656,-1.30024l0.98484,-0.34115l-0.25747,3.45015h-4.17108v-20.70093h4.51224v9.41068l-0.9269,-0.33472c0.11157,-0.4892 0.32613,-0.94192 0.64368,-1.35817c0.31755,-0.42054 0.71878,-0.79388 1.20369,-1.12002c0.48491,-0.33043 1.01702,-0.5879 1.59634,-0.77242c0.57932,-0.18882 1.17794,-0.28323 1.79588,-0.28323c1.28737,0 2.43099,0.33257 3.43085,0.99772c0.99986,0.66085 1.78944,1.57488 2.36876,2.7421c0.57932,1.16722 0.86898,2.4975 0.86898,3.99085c0,1.51481 -0.28537,2.85582 -0.8561,4.02303c-0.57073,1.16722 -1.35174,2.0834 -2.34302,2.74854c-0.98698,0.66085 -2.107,0.99127 -3.36004,0.99127zM264.41076,184.52189c0.67372,0 1.26162,-0.16736 1.7637,-0.50208c0.50636,-0.33472 0.89472,-0.79602 1.16507,-1.38392c0.27035,-0.5879 0.40552,-1.28522 0.40552,-2.09198c0,-0.78101 -0.13517,-1.46975 -0.40552,-2.06623c-0.27035,-0.60077 -0.65871,-1.05994 -1.16507,-1.37749c-0.50208,-0.31755 -1.08998,-0.47632 -1.7637,-0.47632c-0.69089,0 -1.28952,0.15877 -1.79588,0.47632c-0.50208,0.31755 -0.89258,0.77672 -1.17151,1.37749c-0.27893,0.59648 -0.4184,1.28522 -0.4184,2.06623c0,0.80675 0.13947,1.50408 0.4184,2.09198c0.27893,0.5879 0.66943,1.0492 1.17151,1.38392c0.50636,0.33472 1.105,0.50208 1.79588,0.50208zM275.33808,187.99779v-14.87558h4.48005v14.87558zM277.57809,170.18057c-0.84108,0 -1.49978,-0.19954 -1.97611,-0.59862c-0.47204,-0.40338 -0.70805,-0.97841 -0.70805,-1.72508c0,-0.67372 0.24245,-1.22515 0.72736,-1.65427c0.48491,-0.42912 1.13717,-0.64369 1.9568,-0.64369c0.84108,0 1.4955,0.20169 1.96324,0.60507c0.46775,0.39908 0.70162,0.96338 0.70162,1.69289c0,0.69089 -0.23816,1.2509 -0.71449,1.68002c-0.47633,0.42912 -1.12645,0.64368 -1.95037,0.64368zM284.049,187.99779v-20.72668h4.48649v20.72668zM292.79033,187.99779v-14.87558h4.48005v14.87558zM295.03036,170.18057c-0.84108,0 -1.49979,-0.19954 -1.97612,-0.59862c-0.47204,-0.40338 -0.70805,-0.97841 -0.70805,-1.72508c0,-0.67372 0.24245,-1.22515 0.72736,-1.65427c0.48491,-0.42912 1.13718,-0.64369 1.95681,-0.64369c0.84108,0 1.49549,0.20169 1.96324,0.60507c0.46775,0.39908 0.70162,0.96338 0.70162,1.69289c0,0.69089 -0.23817,1.2509 -0.71449,1.68002c-0.47633,0.42912 -1.12645,0.64368 -1.95036,0.64368zM302.70497,187.99779v-18.62826h4.48649v18.62826zM300.07228,177.04227v-3.92005h10.00288v3.92005zM314.50433,194.44109l3.38579,-7.9817l0.05793,2.29796l-7.17066,-15.63513h5.0658l3.14119,7.47963c0.16736,0.37334 0.32613,0.77457 0.47632,1.20369c0.15019,0.42912 0.26176,0.84109 0.33472,1.23588l-0.61794,0.36046c0.11157,-0.27893 0.23817,-0.62867 0.37978,-1.04921c0.14161,-0.42054 0.29609,-0.87326 0.46345,-1.35817l2.7421,-7.87228h5.09799l-6.32743,14.87558l-2.57474,6.44329z" fill="#8c8c8c" stroke="none" stroke-width="1" stroke-linecap="square"/><text transform="translate(183.16516,197.19459) scale(0.24494,0.24494)" font-size="40" xml:space="preserve" fill="#949494" fill-rule="nonzero" stroke="none" stroke-width="1" stroke-linecap="butt" stroke-linejoin="miter" stroke-miterlimit="10" stroke-dasharray="" stroke-dashoffset="0" font-family="Sans Serif" font-weight="normal" text-anchor="start" style="mix-blend-mode: normal"><tspan x="0" dy="0">Temporarily Unavaliable</tspan></text></g></g></svg>