<svg version="1.1" xmlns="http://www.w3.org/2000/svg" xmlns:xlink="http://www.w3.org/1999/xlink" width="631.94871" height="454.51587" viewBox="0,0,631.94871,454.51587"><g transform="translate(75.90545,48.31936)"><g data-paper-data="{&quot;isPaintingLayer&quot;:true}" fill-rule="nonzero" stroke="none" stroke-width="0" stroke-linecap="butt" stroke-linejoin="miter" stroke-miterlimit="10" stroke-dasharray="" stroke-dashoffset="0" style="mix-blend-mode: normal"><path d="M-71.56156,388.70871v-417.41742h623.12313v417.41742z" fill="#ff6689"/><g fill="#efefef"><path d="M-75.90545,406.14195v-45.3413h45.3413v45.3413z"/><path d="M14.33619,405.701v-45.34129h45.3413v45.3413z"/><path d="M103.65854,405.701v-45.34129h45.34129v45.3413z"/><path d="M193.90017,405.95586v-45.34129h45.3413v45.3413z"/><path d="M283.60045,406.1965v-45.34129h45.3413v45.3413z"/><path d="M372.9228,406.1965v-45.34129h45.34129v45.3413z"/><path d="M463.16443,404.94986v-45.34129h45.3413v45.3413z"/><g><path d="M-30.36491,360.0909v-45.34129h45.3413v45.3413z"/><path d="M59.87673,359.64995v-45.34129h45.3413v45.3413z"/><path d="M149.19908,359.64995v-45.34129h45.3413v45.3413z"/><path d="M239.44071,359.90481v-45.34129h45.34129v45.3413z"/><path d="M329.14099,360.14544v-45.34129h45.3413v45.3413z"/><path d="M418.46334,360.14544v-45.34129h45.3413v45.3413z"/><path d="M508.70498,358.89881v-45.34129h45.3413v45.3413z"/></g></g><g fill="#efefef"><path d="M-75.40995,316.54736v-45.34129h45.34129v45.3413z"/><path d="M14.83168,316.10641v-45.34129h45.3413v45.3413z"/><path d="M104.15403,316.10641v-45.34129h45.3413v45.3413z"/><path d="M194.39567,316.36127v-45.34129h45.3413v45.3413z"/><path d="M284.09595,316.6019v-45.34129h45.34129v45.3413z"/><path d="M373.4183,316.6019v-45.34129h45.3413v45.3413z"/><path d="M463.65993,315.35527v-45.34129h45.3413v45.3413z"/><g><path d="M-29.86941,270.49631v-45.34129h45.34129v45.34129z"/><path d="M60.37222,270.05536v-45.34129h45.3413v45.34129z"/><path d="M149.69457,270.05536v-45.34129h45.3413v45.34129z"/><path d="M239.93621,270.31022v-45.34129h45.34129v45.34129z"/><path d="M329.63649,270.55085v-45.34129h45.34129v45.34129z"/><path d="M418.95884,270.55085v-45.34129h45.34129v45.34129z"/><path d="M509.20047,269.30422v-45.34129h45.3413v45.34129z"/></g></g><g fill="#efefef"><path d="M-73.90845,224.95577v-45.34129h45.34129v45.3413z"/><path d="M16.33318,224.51481v-45.34129h45.3413v45.34129z"/><path d="M105.65553,224.51481v-45.34129h45.3413v45.34129z"/><path d="M195.89717,224.76968v-45.34129h45.3413v45.34129z"/><path d="M285.59745,225.01031v-45.34129h45.34129v45.34129z"/><path d="M374.9198,225.01031v-45.34129h45.3413v45.34129z"/><path d="M465.16143,223.76367v-45.34129h45.3413v45.3413z"/><g><path d="M-28.36791,178.90472v-45.34129h45.34129v45.3413z"/><path d="M61.87372,178.46376v-45.34129h45.3413v45.3413z"/><path d="M151.19607,178.46376v-45.34129h45.3413v45.3413z"/><path d="M241.43771,178.71863v-45.34129h45.3413v45.3413z"/><path d="M331.13799,178.95926v-45.34129h45.34129v45.3413z"/><path d="M420.46034,178.95926v-45.34129h45.34129v45.3413z"/><path d="M510.70197,177.71262v-45.34129h45.34129v45.3413z"/></g></g><g fill="#efefef"><path d="M-74.91446,135.36117v-45.34129h45.34129v45.3413z"/><path d="M15.32718,134.92022v-45.34129h45.3413v45.3413z"/><path d="M104.64953,134.92022v-45.34129h45.3413v45.3413z"/><path d="M194.89116,135.17508v-45.34129h45.34129v45.3413z"/><path d="M284.59144,135.41571v-45.34129h45.3413v45.3413z"/><path d="M373.91379,135.41571v-45.34129h45.3413v45.3413z"/><path d="M464.15543,134.16908v-45.34129h45.3413v45.3413z"/><g><path d="M-29.37392,89.31012v-45.34129h45.3413v45.34129z"/><path d="M60.86772,88.86917v-45.3413h45.3413v45.3413z"/><path d="M150.19007,88.86917v-45.3413h45.3413v45.3413z"/><path d="M240.4317,89.12403v-45.34129h45.34129v45.34129z"/><path d="M330.13198,89.36466v-45.3413h45.34129v45.3413z"/><path d="M419.45433,89.36466v-45.3413h45.34129v45.3413z"/><path d="M509.69597,88.11803v-45.34129h45.34129v45.34129z"/></g></g><g fill="#efefef"><path d="M-74.41897,44.26508v-45.34129h45.3413v45.34129z"/><path d="M15.82267,43.82412v-45.3413h45.3413v45.3413z"/><path d="M105.14502,43.82412v-45.3413h45.3413v45.3413z"/><path d="M195.38665,44.07899v-45.3413h45.3413v45.3413z"/><path d="M285.08693,44.31962v-45.3413h45.34129v45.3413z"/><path d="M374.40928,44.31962v-45.3413h45.34129v45.3413z"/><path d="M464.65092,43.07298v-45.34129h45.34129v45.34129z"/><g><path d="M-28.87843,-1.78597v-45.34129h45.3413v45.3413z"/><path d="M61.36321,-2.22693v-45.34129h45.34129v45.34129z"/><path d="M150.68556,-2.22693v-45.34129h45.3413v45.34129z"/><path d="M240.92719,-1.97206v-45.3413h45.3413v45.3413z"/><path d="M330.62747,-1.73143v-45.34129h45.3413v45.3413z"/><path d="M419.94982,-1.73143v-45.34129h45.34129v45.3413z"/><path d="M510.19146,-2.97807v-45.34129h45.34129v45.3413z"/></g></g></g></g></svg>